# This file uses centimeters as units for non-parametric coordinates.

mtllib M_AnemoneBig.mtl
g default
v 0.229160 1.637857 0.766745
v 0.704211 1.637857 0.380130
v 0.766745 1.637857 -0.229160
v 0.380130 1.637857 -0.704211
v -0.229160 1.637857 -0.766745
v -0.704211 1.637857 -0.380130
v -0.766745 1.637857 0.229160
v -0.380130 1.637857 0.704211
v 0.060484 1.323697 0.202372
v 0.185867 1.323697 0.100330
v 0.202372 1.323697 -0.060484
v 0.100330 1.323697 -0.185867
v -0.060484 1.323697 -0.202372
v -0.185867 1.323697 -0.100330
v -0.202372 1.323697 0.060484
v -0.100330 1.323697 0.185867
v 0.142450 0.003756 0.476623
v 0.437751 0.003756 0.236296
v 0.476623 0.003756 -0.142450
v 0.236296 0.003756 -0.437751
v -0.142450 0.003756 -0.476623
v -0.437751 0.003756 -0.236296
v -0.476623 0.003756 0.142450
v -0.236296 0.003756 0.437750
v 0.142450 0.552416 0.476623
v 0.437751 0.552416 0.236296
v 0.476623 0.552416 -0.142450
v 0.236296 0.552416 -0.437751
v -0.142450 0.552416 -0.476623
v -0.437751 0.552416 -0.236296
v -0.476623 0.552416 0.142450
v -0.236296 0.552416 0.437750
v 0.110758 1.074645 0.370583
v 0.340359 1.074645 0.183724
v 0.370583 1.074645 -0.110758
v 0.183724 1.074645 -0.340359
v -0.110758 1.074645 -0.370583
v -0.340359 1.074645 -0.183724
v -0.370583 1.074645 0.110758
v -0.183724 1.074645 0.340359
v 0.000000 1.323697 -0.000000
vt 0.427970 0.740961
vt 0.441147 0.746419
vt 0.441147 0.798387
vt 0.391223 0.777708
vt 0.454324 0.740961
vt 0.491071 0.777708
vt 0.459782 0.727784
vt 0.511751 0.727784
vt 0.454324 0.714607
vt 0.491071 0.677860
vt 0.441147 0.709149
vt 0.441147 0.657180
vt 0.427970 0.714607
vt 0.391223 0.677860
vt 0.422512 0.727784
vt 0.428204 0.430202
vt 0.416341 0.432747
vt 0.442201 0.323133
vt 0.468705 0.324612
vt 0.465924 0.368175
vt 0.443417 0.366176
vt 0.494314 0.328727
vt 0.488279 0.373179
vt 0.518486 0.334075
vt 0.510482 0.380564
vt 0.319679 0.357482
vt 0.341443 0.347540
vt 0.357069 0.388622
vt 0.336903 0.399927
vt 0.364682 0.337825
vt 0.377689 0.378949
vt 0.389502 0.329956
vt 0.399026 0.371715
vt 0.415549 0.324905
vt 0.421015 0.367375
vt 0.440295 0.483068
vt 0.425344 0.489261
vt 0.425344 0.468117
vt 0.410392 0.483068
vt 0.404199 0.468117
vt 0.410392 0.453165
vt 0.425344 0.446972
vt 0.440295 0.453165
vt 0.446488 0.468117
vt 0.458822 0.409169
vt 0.442367 0.407107
vt 0.474837 0.414373
vt 0.489840 0.423183
vt 0.378877 0.425837
vt 0.365177 0.437736
vt 0.393845 0.417148
vt 0.409607 0.411206
vt 0.425866 0.407849
vt 0.451894 0.430669
vt 0.440227 0.429469
vt 0.462522 0.434000
vt 0.470917 0.439784
vt 0.395335 0.443016
vt 0.387991 0.450760
vt 0.405157 0.437028
vt 0.370544 0.727784
vn -0.134758 0.882350 -0.450887
vn -0.134758 0.882350 -0.450888
vn -0.414115 0.882349 -0.223537
vn -0.414114 0.882349 -0.223537
vn -0.450888 0.882349 0.134759
vn -0.450888 0.882350 0.134759
vn -0.223537 0.882349 0.414114
vn -0.223537 0.882349 0.414114
vn 0.134759 0.882350 0.450888
vn 0.134759 0.882350 0.450888
vn 0.414114 0.882349 0.223537
vn 0.414114 0.882349 0.223537
vn 0.450887 0.882350 -0.134759
vn 0.450887 0.882350 -0.134759
vn 0.223537 0.882349 -0.414114
vn 0.223537 0.882349 -0.414114
vn 0.286358 0.000000 0.958123
vn 0.879981 0.000000 0.475009
vn 0.876086 0.093979 0.472907
vn 0.285091 0.093979 0.953882
vn 0.958123 0.000000 -0.286358
vn 0.953882 0.093979 -0.285091
vn 0.475009 0.000000 -0.879981
vn 0.472907 0.093979 -0.876086
vn -0.286358 0.000000 -0.958123
vn -0.285090 0.093979 -0.953882
vn -0.879981 0.000000 -0.475009
vn -0.876086 0.093979 -0.472907
vn -0.958123 0.000000 0.286358
vn -0.953882 0.093979 0.285091
vn -0.475009 0.000000 0.879981
vn -0.472907 0.093979 0.876086
vn -0.000000 1.000000 0.000000
vn -0.000000 1.000000 0.000000
vn -0.000000 1.000000 -0.000000
vn 0.000000 1.000000 0.000000
vn -0.000000 1.000000 -0.000000
vn -0.000001 1.000000 -0.000000
vn -0.000000 1.000000 0.000000
vn -0.000000 1.000000 0.000000
vn -0.000000 1.000000 0.000000
vn 0.839383 0.300235 0.453095
vn 0.273147 0.300235 0.913920
vn 0.913920 0.300235 -0.273147
vn 0.453095 0.300235 -0.839383
vn -0.273147 0.300235 -0.913920
vn -0.839383 0.300235 -0.453095
vn -0.913920 0.300235 0.273147
vn -0.453095 0.300235 0.839383
vn 0.719240 0.576161 0.388242
vn 0.234051 0.576161 0.783108
vn 0.783108 0.576161 -0.234051
vn 0.388242 0.576161 -0.719240
vn -0.234051 0.576161 -0.783108
vn -0.719240 0.576161 -0.388243
vn -0.783108 0.576161 0.234051
vn -0.388242 0.576161 0.719240
s 1
g polySurface10
usemtl lambert6SG
f 9/1/1 1/4/2 2/3/3 10/2/4
f 10/2/4 2/3/3 3/6/5 11/5/6
f 11/5/6 3/6/5 4/8/7 12/7/8
f 12/7/8 4/8/7 5/10/9 13/9/10
f 13/9/10 5/10/9 6/12/11 14/11/12
f 14/11/12 6/12/11 7/14/13 15/13/14
f 15/13/14 7/14/13 8/61/15 16/15/16
f 16/15/16 8/61/15 1/4/2 9/1/1
s 2
f 17/18/17 18/19/18 26/20/19 25/21/20
f 18/19/18 19/22/21 27/23/22 26/20/19
f 19/22/21 20/24/23 28/25/24 27/23/22
f 20/26/23 21/27/25 29/28/26 28/29/24
f 21/27/25 22/30/27 30/31/28 29/28/26
f 22/30/27 23/32/29 31/33/30 30/31/28
f 23/32/29 24/34/31 32/35/32 31/33/30
f 24/34/31 17/18/17 25/21/20 32/35/32
s 3
f 9/36/33 10/37/34 41/38/35
f 10/37/34 11/39/36 41/38/35
f 11/39/36 12/40/37 41/38/35
f 12/40/37 13/41/38 41/38/35
f 13/41/38 14/42/39 41/38/35
f 14/42/39 15/43/40 41/38/35
f 15/43/40 16/44/41 41/38/35
f 16/44/41 9/36/33 41/38/35
s 2
f 25/21/20 26/20/19 34/45/42 33/46/43
f 26/20/19 27/23/22 35/47/44 34/45/42
f 27/23/22 28/25/24 36/48/45 35/47/44
f 28/29/24 29/28/26 37/49/46 36/50/45
f 29/28/26 30/31/28 38/51/47 37/49/46
f 30/31/28 31/33/30 39/52/48 38/51/47
f 31/33/30 32/35/32 40/53/49 39/52/48
f 32/35/32 25/21/20 33/46/43 40/53/49
f 33/46/43 34/45/42 10/54/50 9/55/51
f 34/45/42 35/47/44 11/56/52 10/54/50
f 35/47/44 36/48/45 12/57/53 11/56/52
f 36/50/45 37/49/46 13/58/54 12/59/53
f 37/49/46 38/51/47 14/60/55 13/58/54
f 38/51/47 39/52/48 15/17/56 14/60/55
f 39/52/48 40/53/49 16/16/57 15/17/56
f 40/53/49 33/46/43 9/55/51 16/16/57
