# This file uses centimeters as units for non-parametric coordinates.

mtllib M_BrainCoralBlue.mtl
g default
v 2.450736 0.009645 -1.404812
v 1.570129 0.009645 -2.289255
v 0.471753 0.009645 -2.299280
v -0.424851 0.009645 -1.431059
v -0.778897 0.009646 0.168510
v -0.452422 0.009646 1.589540
v 0.428184 0.009646 2.473983
v 1.526561 0.009646 2.484009
v 2.423165 0.009646 1.615787
v 2.775524 0.009646 0.200953
v 2.379732 0.484889 -1.336055
v 1.542225 0.484889 -2.177212
v 0.497607 0.484889 -2.186746
v -0.355114 0.484889 -1.361018
v -0.691914 0.599723 0.169304
v -0.381418 0.599723 1.520786
v 0.456089 0.599723 2.361940
v 1.500707 0.599723 2.371475
v 2.353428 0.599723 1.545749
v 2.688541 0.599723 0.200159
v 2.173670 0.922315 -1.136518
v 1.461244 0.922315 -1.852045
v 0.572639 0.922315 -1.860155
v -0.152729 0.922315 -1.157753
v -0.439480 1.123338 0.171608
v -0.175356 1.123338 1.321249
v 0.537069 1.123338 2.036776
v 1.425675 1.123338 2.044887
v 2.151043 1.123338 1.342484
v 2.436107 1.123338 0.197855
v 1.852721 1.330614 -0.825729
v 1.335114 1.330614 -1.345590
v 0.689504 1.330614 -1.351483
v 0.162493 1.330614 -0.841157
v -0.046304 1.538881 0.175196
v 0.145593 1.538881 1.010457
v 0.663200 1.538881 1.530321
v 1.308810 1.538881 1.536214
v 1.835820 1.538881 1.025885
v 2.042932 1.538881 0.194266
v 1.448302 1.593530 -0.434112
v 1.176180 1.593530 -0.707419
v 0.836763 1.593530 -0.710517
v 0.559697 1.593530 -0.442223
v 0.449126 1.805676 0.179719
v 0.550012 1.805676 0.618840
v 0.822134 1.805676 0.892150
v 1.161551 1.805676 0.895248
v 1.438617 1.805676 0.626951
v 1.547502 1.805676 0.189744
v 0.998314 1.897607 0.184731
vt 0.655111 0.792911
vt 0.704629 0.852684
vt 0.683738 0.857082
vt 0.641541 0.806147
vt 0.701648 0.923880
vt 0.681197 0.917751
vt 0.647306 0.979304
vt 0.634891 0.964981
vt 0.551414 0.997328
vt 0.552696 0.980320
vt 0.468311 0.971809
vt 0.481881 0.958574
vt 0.418793 0.912036
vt 0.439685 0.907638
vt 0.421775 0.840841
vt 0.442225 0.846969
vt 0.476116 0.785416
vt 0.488532 0.799740
vt 0.561061 0.766934
vt 0.560917 0.783991
vt 0.660498 0.862069
vt 0.626577 0.821123
vt 0.658456 0.910839
vt 0.621231 0.948806
vt 0.553772 0.961079
vt 0.496845 0.943598
vt 0.462924 0.902652
vt 0.464967 0.853881
vt 0.502191 0.815915
vt 0.560381 0.803254
vt 0.634751 0.867671
vt 0.610106 0.837922
vt 0.633268 0.903105
vt 0.606222 0.930689
vt 0.554676 0.939500
vt 0.513316 0.926799
vt 0.488671 0.897050
vt 0.490155 0.861616
vt 0.517200 0.834032
vt 0.559477 0.824833
vt 0.602309 0.874730
vt 0.589352 0.859090
vt 0.601529 0.893358
vt 0.587310 0.907860
vt 0.555814 0.912308
vt 0.534070 0.905631
vt 0.521114 0.889991
vt 0.521894 0.871362
vt 0.536113 0.856860
vt 0.558339 0.852024
vt 0.557076 0.882166
vn 0.886339 0.183542 -0.425106
vn 0.392291 0.232833 -0.889886
vn 0.371218 0.407342 -0.834428
vn 0.848003 0.331198 -0.413761
vn -0.375982 0.232833 -0.896898
vn -0.355924 0.407342 -0.841065
vn -0.878432 0.183542 -0.441214
vn -0.840309 0.331198 -0.429171
vn -0.988243 0.152893 -0.000610
vn -0.955460 0.294914 -0.011013
vn -0.871070 0.158964 0.464722
vn -0.842844 0.298906 0.447515
vn -0.397731 0.189275 0.897767
vn -0.382063 0.344994 0.857325
vn 0.381277 0.189275 0.904877
vn 0.366350 0.344994 0.864157
vn 0.862442 0.158965 0.480545
vn 0.834534 0.298906 0.462826
vn 0.988089 0.152893 0.017429
vn 0.955502 0.294914 0.006429
vn 0.302334 0.679571 -0.668414
vn 0.712254 0.593780 -0.374325
vn -0.290083 0.679571 -0.673821
vn -0.705302 0.593780 -0.387264
vn -0.824657 0.564176 -0.040582
vn -0.727352 0.571121 0.380501
vn -0.319365 0.633074 0.705141
vn 0.306440 0.633074 0.710853
vn 0.720285 0.571120 0.393715
vn 0.825260 0.564176 -0.025522
vn 0.232653 0.833504 -0.501142
vn 0.536642 0.777039 -0.328976
vn -0.223467 0.833504 -0.505306
vn -0.530547 0.777040 -0.338717
vn -0.618917 0.780975 -0.083782
vn -0.553803 0.783403 0.282102
vn -0.235315 0.829213 0.506984
vn 0.226022 0.829213 0.511195
vn 0.548561 0.783404 0.292164
vn 0.620344 0.780975 -0.072470
vn 0.154197 0.930856 -0.331255
vn 0.332221 0.896201 -0.294029
vn -0.148124 0.930856 -0.334015
vn -0.326799 0.896201 -0.300044
vn -0.370874 0.919184 -0.132487
vn -0.351847 0.920260 0.171247
vn -0.146940 0.940870 0.305242
vn 0.141344 0.940870 0.307873
vn 0.348662 0.920260 0.177641
vn 0.373231 0.919184 -0.125696
vn 0.001474 0.986874 -0.161486
s 1
g pSphere6
usemtl lambert5SG
f 1/1/1 2/2/2 12/3/3 11/4/4
f 2/2/2 3/5/5 13/6/6 12/3/3
f 3/5/5 4/7/7 14/8/8 13/6/6
f 4/7/7 5/9/9 15/10/10 14/8/8
f 5/9/9 6/11/11 16/12/12 15/10/10
f 6/11/11 7/13/13 17/14/14 16/12/12
f 7/13/13 8/15/15 18/16/16 17/14/14
f 8/15/15 9/17/17 19/18/18 18/16/16
f 9/17/17 10/19/19 20/20/20 19/18/18
f 10/19/19 1/1/1 11/4/4 20/20/20
f 11/4/4 12/3/3 22/21/21 21/22/22
f 12/3/3 13/6/6 23/23/23 22/21/21
f 13/6/6 14/8/8 24/24/24 23/23/23
f 14/8/8 15/10/10 25/25/25 24/24/24
f 15/10/10 16/12/12 26/26/26 25/25/25
f 16/12/12 17/14/14 27/27/27 26/26/26
f 17/14/14 18/16/16 28/28/28 27/27/27
f 18/16/16 19/18/18 29/29/29 28/28/28
f 19/18/18 20/20/20 30/30/30 29/29/29
f 20/20/20 11/4/4 21/22/22 30/30/30
f 21/22/22 22/21/21 32/31/31 31/32/32
f 22/21/21 23/23/23 33/33/33 32/31/31
f 23/23/23 24/24/24 34/34/34 33/33/33
f 24/24/24 25/25/25 35/35/35 34/34/34
f 25/25/25 26/26/26 36/36/36 35/35/35
f 26/26/26 27/27/27 37/37/37 36/36/36
f 27/27/27 28/28/28 38/38/38 37/37/37
f 28/28/28 29/29/29 39/39/39 38/38/38
f 29/29/29 30/30/30 40/40/40 39/39/39
f 30/30/30 21/22/22 31/32/32 40/40/40
f 31/32/32 32/31/31 42/41/41 41/42/42
f 32/31/31 33/33/33 43/43/43 42/41/41
f 33/33/33 34/34/34 44/44/44 43/43/43
f 34/34/34 35/35/35 45/45/45 44/44/44
f 35/35/35 36/36/36 46/46/46 45/45/45
f 36/36/36 37/37/37 47/47/47 46/46/46
f 37/37/37 38/38/38 48/48/48 47/47/47
f 38/38/38 39/39/39 49/49/49 48/48/48
f 39/39/39 40/40/40 50/50/50 49/49/49
f 40/40/40 31/32/32 41/42/42 50/50/50
f 41/42/42 42/41/41 51/51/51
f 42/41/41 43/43/43 51/51/51
f 43/43/43 44/44/44 51/51/51
f 44/44/44 45/45/45 51/51/51
f 45/45/45 46/46/46 51/51/51
f 46/46/46 47/47/47 51/51/51
f 47/47/47 48/48/48 51/51/51
f 48/48/48 49/49/49 51/51/51
f 49/49/49 50/50/50 51/51/51
f 50/50/50 41/42/42 51/51/51
