# This file uses centimeters as units for non-parametric coordinates.

mtllib M_BrainCoralPurple.mtl
g default
v -1.351057 0.126206 1.475975
v -0.427330 0.126206 2.298208
v 0.659623 0.126206 2.242603
v 1.494622 0.126206 1.330400
v 1.749374 0.126206 -0.272780
v 1.341705 0.126206 -1.658782
v 0.417978 0.126206 -2.481015
v -0.668974 0.126206 -2.425410
v -1.503973 0.126206 -1.513207
v -1.768078 0.126206 -0.092840
v -1.284932 0.597102 1.403736
v -0.406415 0.597102 2.185726
v 0.627338 0.597102 2.132843
v 1.421470 0.597102 1.265285
v 1.663296 0.710885 -0.268377
v 1.275580 0.710885 -1.586546
v 0.397063 0.710885 -2.368533
v -0.636690 0.710885 -2.315650
v -1.430822 0.710885 -1.448095
v -1.682000 0.710885 -0.097243
v -1.093028 1.030526 1.194091
v -0.345717 1.030526 1.859288
v 0.533646 1.030526 1.814302
v 1.209175 1.030526 1.076318
v 1.413487 1.229710 -0.255598
v 1.083676 1.229710 -1.376901
v 0.336365 1.229710 -2.042098
v -0.542998 1.229710 -1.997112
v -1.218526 1.229710 -1.259128
v -1.432191 1.229710 -0.110022
v -0.794131 1.435090 0.867558
v -0.251178 1.435090 1.350852
v 0.387716 1.435090 1.318169
v 0.878517 1.435090 0.781991
v 1.024401 1.641452 -0.235693
v 0.784780 1.641452 -1.050365
v 0.241826 1.641452 -1.533662
v -0.397068 1.641452 -1.500979
v -0.887868 1.641452 -0.964798
v -1.043105 1.641452 -0.129927
v -0.417500 1.695601 0.456103
v -0.132052 1.695601 0.710185
v 0.203835 1.695601 0.693003
v 0.461864 1.695601 0.411118
v 0.534124 1.905806 -0.210612
v 0.408148 1.905806 -0.638910
v 0.122700 1.905806 -0.892995
v -0.213186 1.905806 -0.875812
v -0.471215 1.905806 -0.593925
v -0.552828 1.905806 -0.155008
v -0.009352 1.996897 -0.182810
vt 0.245326 0.032395
vt 0.294843 0.092168
vt 0.273952 0.096566
vt 0.231756 0.045631
vt 0.291862 0.163364
vt 0.271412 0.157235
vt 0.237521 0.218788
vt 0.225105 0.204465
vt 0.141629 0.236812
vt 0.142911 0.219804
vt 0.058526 0.211293
vt 0.072096 0.198058
vt 0.009008 0.151520
vt 0.029899 0.147123
vt 0.011989 0.080325
vt 0.032440 0.086454
vt 0.066331 0.024900
vt 0.078746 0.039224
vt 0.151276 0.006418
vt 0.151132 0.023475
vt 0.250713 0.101553
vt 0.216792 0.060607
vt 0.248670 0.150323
vt 0.211445 0.188290
vt 0.143987 0.200563
vt 0.087060 0.183082
vt 0.053139 0.142136
vt 0.055181 0.093365
vt 0.092406 0.055399
vt 0.150595 0.042738
vt 0.224966 0.107155
vt 0.200321 0.077406
vt 0.223482 0.142589
vt 0.196437 0.170173
vt 0.144890 0.178984
vt 0.103531 0.166283
vt 0.078886 0.136534
vt 0.080369 0.101100
vt 0.107415 0.073516
vt 0.149692 0.064317
vt 0.192523 0.114214
vt 0.179567 0.098574
vt 0.191743 0.132842
vt 0.177525 0.147344
vt 0.146029 0.151792
vt 0.124285 0.145115
vt 0.111328 0.129475
vt 0.112108 0.110847
vt 0.126327 0.096344
vt 0.148553 0.091509
vt 0.147291 0.121650
vn -0.859139 0.183542 0.477695
vn -0.338006 0.232833 0.911889
vn -0.320309 0.407342 0.855263
vn -0.821556 0.331198 0.464063
vn 0.429296 0.232833 0.872636
vn 0.405913 0.407342 0.818112
vn 0.903401 0.183542 0.387530
vn 0.864623 0.331198 0.377804
vn 0.986487 0.152893 -0.058886
vn 0.954390 0.294914 -0.046528
vn 0.841513 0.158964 -0.516320
vn 0.814373 0.298906 -0.497445
vn 0.342961 0.189275 -0.920083
vn 0.329757 0.344994 -0.878772
vn -0.435062 0.189275 -0.880282
vn -0.417711 0.344994 -0.840534
vn -0.889808 0.158965 -0.427752
vn -0.860884 0.298906 -0.411745
vn -0.987346 0.152893 0.042088
vn -0.954156 0.294914 0.051107
vn -0.261545 0.679571 0.685403
vn -0.688427 0.593780 0.416526
vn 0.330123 0.679571 0.655135
vn 0.727338 0.593780 0.344101
vn 0.825604 0.564176 -0.009139
vn 0.703125 0.571121 -0.423600
vn 0.276334 0.633074 -0.723089
vn -0.348680 0.633074 -0.691115
vn -0.742681 0.571120 -0.349637
vn -0.822227 0.564176 0.075159
vn -0.202061 0.833504 0.514240
vn -0.515863 0.777039 0.360687
vn 0.253483 0.833504 0.490936
vn 0.549977 0.777040 0.306162
vn 0.622839 0.780975 0.046369
vn 0.535815 0.783404 -0.314931
vn 0.204367 0.829213 -0.520231
vn -0.256387 0.829213 -0.496661
vn -0.565155 0.783404 -0.258609
vn -0.614856 0.780975 0.109685
vn -0.133974 0.930856 0.339937
vn -0.313917 0.896201 0.313496
vn 0.167964 0.930856 0.324491
vn 0.344270 0.896201 0.279826
vn 0.378177 0.919184 0.109919
vn 0.340899 0.920260 -0.192118
vn 0.128297 0.940870 -0.313535
vn -0.159623 0.940870 -0.298806
vn -0.358724 0.920260 -0.156328
vn -0.364986 0.919184 0.147937
vn 0.008251 0.986874 0.161282
s 1
g pSphere4
usemtl lambert5SG
f 1/1/1 2/2/2 12/3/3 11/4/4
f 2/2/2 3/5/5 13/6/6 12/3/3
f 3/5/5 4/7/7 14/8/8 13/6/6
f 4/7/7 5/9/9 15/10/10 14/8/8
f 5/9/9 6/11/11 16/12/12 15/10/10
f 6/11/11 7/13/13 17/14/14 16/12/12
f 7/13/13 8/15/15 18/16/16 17/14/14
f 8/15/15 9/17/17 19/18/18 18/16/16
f 9/17/17 10/19/19 20/20/20 19/18/18
f 10/19/19 1/1/1 11/4/4 20/20/20
f 11/4/4 12/3/3 22/21/21 21/22/22
f 12/3/3 13/6/6 23/23/23 22/21/21
f 13/6/6 14/8/8 24/24/24 23/23/23
f 14/8/8 15/10/10 25/25/25 24/24/24
f 15/10/10 16/12/12 26/26/26 25/25/25
f 16/12/12 17/14/14 27/27/27 26/26/26
f 17/14/14 18/16/16 28/28/28 27/27/27
f 18/16/16 19/18/18 29/29/29 28/28/28
f 19/18/18 20/20/20 30/30/30 29/29/29
f 20/20/20 11/4/4 21/22/22 30/30/30
f 21/22/22 22/21/21 32/31/31 31/32/32
f 22/21/21 23/23/23 33/33/33 32/31/31
f 23/23/23 24/24/24 34/34/34 33/33/33
f 24/24/24 25/25/25 35/35/35 34/34/34
f 25/25/25 26/26/26 36/36/36 35/35/35
f 26/26/26 27/27/27 37/37/37 36/36/36
f 27/27/27 28/28/28 38/38/38 37/37/37
f 28/28/28 29/29/29 39/39/39 38/38/38
f 29/29/29 30/30/30 40/40/40 39/39/39
f 30/30/30 21/22/22 31/32/32 40/40/40
f 31/32/32 32/31/31 42/41/41 41/42/42
f 32/31/31 33/33/33 43/43/43 42/41/41
f 33/33/33 34/34/34 44/44/44 43/43/43
f 34/34/34 35/35/35 45/45/45 44/44/44
f 35/35/35 36/36/36 46/46/46 45/45/45
f 36/36/36 37/37/37 47/47/47 46/46/46
f 37/37/37 38/38/38 48/48/48 47/47/47
f 38/38/38 39/39/39 49/49/49 48/48/48
f 39/39/39 40/40/40 50/50/50 49/49/49
f 40/40/40 31/32/32 41/42/42 50/50/50
f 41/42/42 42/41/41 51/51/51
f 42/41/41 43/43/43 51/51/51
f 43/43/43 44/44/44 51/51/51
f 44/44/44 45/45/45 51/51/51
f 45/45/45 46/46/46 51/51/51
f 46/46/46 47/47/47 51/51/51
f 47/47/47 48/48/48 51/51/51
f 48/48/48 49/49/49 51/51/51
f 49/49/49 50/50/50 51/51/51
f 50/50/50 41/42/42 51/51/51
