# This file uses centimeters as units for non-parametric coordinates.

mtllib M_GreenCoral.mtl
g default
v 0.754224 3.083650 -0.489025
v 0.783291 2.841837 -0.595105
v 0.617941 2.822433 -0.796801
v 0.478061 3.031295 -0.800420
v 0.526276 3.188841 -0.597392
v 1.098249 3.677587 -1.118161
v 0.929216 3.253693 -0.636056
v 0.696820 3.320396 -0.740000
v 0.649425 3.220859 -0.977349
v 0.849938 3.079978 -1.017571
v 1.022858 3.100271 -0.806640
v 1.124206 3.702548 -0.984876
v 1.004198 3.721227 -1.028817
v 0.988620 3.687483 -1.151342
v 1.110612 3.605688 -1.190109
v 1.194409 3.614999 -1.087228
v 1.086585 3.493121 -0.865496
v 1.176968 3.394160 -1.009491
v 1.050469 3.380105 -1.164800
v 0.881906 3.470380 -1.116791
v 0.905977 3.528965 -0.932628
v 0.706160 2.785638 -0.727668
v 0.941633 3.043591 -0.944197
v 1.120847 3.340853 -1.116969
v 1.161381 3.564258 -1.166353
v -0.516099 2.076060 -1.607572
v -0.421115 2.013980 -1.554873
v -0.343610 2.047494 -1.660544
v -0.383262 2.094698 -1.734017
v -0.488437 2.124878 -1.719928
v -0.467120 2.253401 -1.643865
v -0.508203 2.226370 -1.627009
v -0.485832 2.223234 -1.679478
v -0.432996 2.235996 -1.687056
v -0.410860 2.244084 -1.626279
v -0.457340 2.238134 -1.589168
v -0.488993 2.162209 -1.703675
v -0.513035 2.166717 -1.601856
v -0.430679 2.187350 -1.548902
v -0.359649 2.196017 -1.622776
v -0.393064 2.180742 -1.708930
v 0.205333 1.414856 -0.759056
v 0.083200 1.154615 -0.732331
v -0.165690 1.134855 -0.659227
v -0.209585 1.383893 -0.645085
v -0.041128 1.581266 -0.752275
v -0.576871 2.313240 -1.959914
v -0.018860 1.567339 -1.206124
v -0.181973 1.695229 -1.052465
v -0.427675 1.568015 -1.020231
v -0.385974 1.350264 -1.153250
v -0.117203 1.349847 -1.274658
v -0.456539 2.290999 -1.955579
v -0.531803 2.280757 -1.855538
v -0.653122 2.284036 -1.868876
v -0.652228 2.185322 -1.977202
v -0.530733 2.189625 -2.030787
v -0.309583 1.910867 -1.731917
v -0.400246 1.795028 -1.838646
v -0.598346 1.792762 -1.750698
v -0.607811 1.933805 -1.598641
v -0.251615 1.830475 0.391642
v -0.200132 1.590585 0.482892
v 0.053793 1.581384 0.544251
v 0.159245 1.815588 0.490923
v -0.031288 1.989371 0.404577
v -0.269425 2.451874 1.370996
v -0.339382 2.002378 0.703671
v -0.099151 2.060226 0.672015
v 0.088884 1.989613 0.813510
v -0.034250 1.821183 0.930727
v -0.298933 1.829072 0.862843
v -0.356595 2.444334 1.274668
v -0.235652 2.475178 1.242888
v -0.148550 2.439011 1.329105
v -0.215790 2.340337 1.414137
v -0.344368 2.343628 1.380493
v -0.367421 2.231806 1.079896
v -0.346441 2.116272 1.231188
v -0.152340 2.111305 1.281976
v -0.053359 2.223769 1.162073
v -0.182576 2.268266 1.021588
v -0.081317 1.570336 0.530828
v -0.174905 1.809459 0.913941
v -0.256625 2.098076 1.274000
v -0.286311 2.326244 1.414995
v 0.419506 -0.025920 0.104700
v -0.302142 -0.025920 0.122196
v 0.037605 -0.025920 0.435708
v 0.036307 3.613579 -0.276406
v 0.504076 1.257040 -0.109211
v -0.311631 1.257040 -0.106485
v 0.008604 1.357530 0.197170
v 0.509194 2.277260 -0.139941
v 0.056452 2.277260 0.147553
v -0.265619 2.277260 -0.190617
v 0.412875 3.113888 -0.156842
v 0.060073 3.113888 0.092180
v -0.229511 3.113888 -0.198857
v 0.330457 3.482523 -0.150890
v 0.063654 3.482523 0.037430
v -0.176347 3.482523 -0.184038
v 0.007610 1.942153 0.201409
v -0.149564 1.464991 0.077861
v -0.206446 1.700067 -0.013011
v 0.327311 1.705617 0.090571
v 0.219571 1.448425 0.155379
v -0.117415 2.100424 0.748607
v -0.323864 2.135394 0.899210
v -0.208655 2.096584 0.754685
v -0.047490 2.098473 0.807625
v -0.004521 2.112703 0.953413
v -0.001340 2.396891 0.836493
v -0.035764 2.351083 0.712563
v -0.200164 2.358132 0.664499
v -0.273174 2.412233 0.788636
v -0.150927 2.466973 0.903700
v -0.143578 2.720152 0.737080
v -0.068229 2.677204 0.779772
v -0.160695 2.688444 0.821870
v -0.233934 2.690454 0.753036
v -0.187277 2.647053 0.653172
v -0.084866 2.638864 0.669695
v -0.099701 2.346977 0.665688
v -0.122363 2.635244 0.636273
v 0.187560 1.042445 -0.607838
v -0.103996 1.042445 -0.489847
v 0.297567 1.440394 -0.616823
v -0.210983 1.423359 -0.538547
v 0.034383 -0.025920 -0.411163
v 0.046507 1.601702 -0.598804
v 0.212815 -0.025920 -0.399493
v 0.171278 2.290734 -0.580115
v 0.140133 3.113888 -0.614944
v 0.134833 3.482523 -0.496630
v -0.190879 2.277260 -0.447523
v -0.176560 3.113888 -0.432570
v -0.144201 3.482523 -0.360646
v -0.207819 1.138105 -0.397957
v -0.214165 -0.025920 -0.276327
v 0.311875 3.482523 -0.439232
v 0.389626 3.113888 -0.466181
v 0.464051 2.277260 -0.496518
v 0.461708 1.138105 -0.459811
v 0.380061 -0.025920 -0.302435
v -0.327253 1.965238 -1.693163
v -0.401711 1.961543 -1.508651
v -0.537775 1.986919 -1.586493
v -0.499438 2.172107 -1.783812
v -0.543389 2.127438 -1.709852
v -0.358472 2.086040 -1.770165
v 0.100138 0.295903 0.401598
v 0.108393 0.839639 0.285105
v 0.274413 0.648150 0.136852
v 0.208468 0.344551 0.221193
v -0.180680 0.350546 0.210822
v -0.184069 0.657348 0.241762
v -0.003795 0.735435 0.473467
v 0.031517 0.503876 0.475170
v 0.340846 0.463314 0.462734
v 0.372924 0.697978 0.420244
v 0.206296 0.874287 0.437764
v 0.521007 1.246775 1.001722
v 0.362963 1.202904 0.988550
v 0.433264 1.223575 0.836233
v 0.596898 1.196423 0.865448
v 0.611064 1.125893 1.006470
v 0.466484 1.129898 1.082552
v 0.338012 1.064633 0.664012
v 0.230304 0.989189 0.840806
v 0.346288 0.862727 0.946510
v 0.552988 0.856910 0.837446
v 0.534788 0.979778 0.681107
v 0.218397 0.460433 0.524655
v 0.466957 0.836663 0.922836
v 0.556082 1.104740 1.075374
v 0.441744 2.528007 -0.487426
v 0.197714 2.849610 -0.597494
v 0.295270 2.573457 -0.560202
v 0.446774 2.583350 -0.360812
v 0.439048 2.813571 -0.217132
v 0.150670 2.865804 -0.624511
v -0.197169 2.886748 -0.437724
v -0.252044 2.920925 -0.197886
v 0.058931 2.850151 0.109636
v 0.445712 2.828669 -0.151081
vt 0.688892 0.606273
vt 0.671410 0.600993
vt 0.656043 0.589361
vt 0.645944 0.575093
vt 0.636111 0.560739
vt 0.702971 0.544582
vt 0.698125 0.590341
vt 0.712683 0.597476
vt 0.660613 0.560691
vt 0.671345 0.570813
vt 0.685742 0.582150
vt 0.709354 0.553058
vt 0.695733 0.534398
vt 0.694798 0.540951
vt 0.697080 0.547945
vt 0.702189 0.552422
vt 0.706997 0.568743
vt 0.696533 0.563680
vt 0.687051 0.555979
vt 0.679838 0.546936
vt 0.719605 0.570200
vt 0.662099 0.594821
vt 0.676587 0.576530
vt 0.689752 0.560539
vt 0.697655 0.551268
vt 0.527965 0.515203
vt 0.519653 0.537954
vt 0.509476 0.529621
vt 0.513536 0.520043
vt 0.508547 0.512654
vt 0.514870 0.499221
vt 0.495422 0.512923
vt 0.495306 0.500061
vt 0.497863 0.536532
vt 0.473353 0.507324
vt 0.501172 0.523310
vt 0.537505 0.546951
vt 0.537488 0.511330
vt 0.527207 0.575239
vt 0.500262 0.468928
vt 0.522587 0.482223
vt 0.578195 0.593117
vt 0.568400 0.599339
vt 0.555091 0.577386
vt 0.566891 0.566942
vt 0.591066 0.587489
vt 0.580498 0.562100
vt 0.602588 0.584593
vt 0.594627 0.562109
vt 0.558322 0.606529
vt 0.609591 0.564799
vt 0.553875 0.502861
vt 0.526778 0.473420
vt 0.601607 0.646002
vt 0.617356 0.642206
vt 0.612827 0.618048
vt 0.551550 0.564887
vt 0.547872 0.520269
vt 0.613392 0.640657
vt 0.603219 0.620586
vt 0.608323 0.639070
vt 0.593862 0.624767
vt 0.604029 0.641271
vt 0.586102 0.628567
vt 0.608899 0.646697
vt 0.456669 0.456898
vt 0.584146 0.631256
vt 0.492911 0.635294
vt 0.480696 0.637497
vt 0.475182 0.617853
vt 0.489180 0.611904
vt 0.496564 0.610819
vt 0.500186 0.634258
vt 0.520139 0.631304
vt 0.507787 0.632938
vt 0.504235 0.609221
vt 0.519462 0.610433
vt 0.467999 0.639887
vt 0.534513 0.614028
vt 0.627210 0.498891
vt 0.489231 0.660742
vt 0.498823 0.673587
vt 0.518641 0.675675
vt 0.518992 0.656133
vt 0.513765 0.671299
vt 0.509040 0.656310
vt 0.508570 0.668938
vt 0.498776 0.657883
vt 0.503787 0.657003
vt 0.505720 0.669082
vt 0.503044 0.669776
vt 0.506893 0.676128
vt 0.591429 0.447989
vt 0.527647 0.636725
vt 0.483537 0.650684
vt 0.669340 0.669724
vt 0.663878 0.662691
vt 0.671716 0.660381
vt 0.683430 0.688091
vt 0.683236 0.661904
vt 0.690954 0.664006
vt 0.690060 0.687982
vt 0.701924 0.666295
vt 0.697094 0.668792
vt 0.708904 0.676184
vt 0.657634 0.692183
vt 0.701519 0.689323
vt 0.456669 0.614668
vt 0.666252 0.634158
vt 0.671131 0.634468
vt 0.576468 0.553182
vt 0.675684 0.634434
vt 0.682882 0.633971
vt 0.693114 0.632985
vt 0.698326 0.649648
vt 0.647221 0.465008
vt 0.704150 0.631679
vt 0.715530 0.634265
vt 0.708486 0.642413
vt 0.691014 0.466974
vt 0.706276 0.713790
vt 0.698121 0.708690
vt 0.689384 0.706372
vt 0.697716 0.627580
vt 0.673861 0.702493
vt 0.671082 0.696621
vt 0.646117 0.617591
vt 0.665987 0.690419
vt 0.673667 0.689618
vt 0.676860 0.707664
vt 0.674966 0.722640
vt 0.693793 0.716110
vt 0.688655 0.714163
vt 0.677067 0.717319
vt 0.680336 0.715541
vt 0.686039 0.720207
vt 0.706907 0.669294
vt 0.694603 0.674483
vt 0.716821 0.666136
vt 0.610328 0.530071
vt 0.578180 0.528092
vt 0.576652 0.519874
vt 0.601825 0.510516
vt 0.571828 0.513612
vt 0.592344 0.491095
vt 0.562722 0.507165
vt 0.578810 0.478462
vt 0.606436 0.555318
vt 0.555173 0.505501
vt 0.574891 0.539854
vt 0.609401 0.546206
vt 0.566327 0.523995
vt 0.474834 0.644177
vt 0.521764 0.643105
vt 0.542796 0.586530
vt 0.680577 0.668855
vt 0.684364 0.706244
vt 0.685724 0.714255
vt 0.664856 0.698812
vt 0.663516 0.706129
vt 0.686798 0.527948
vt 0.651816 0.498855
vt 0.648739 0.515725
vt 0.668924 0.535724
vt 0.665448 0.527426
vt 0.679838 0.518790
vt 0.660939 0.522280
vt 0.672878 0.510831
vt 0.667387 0.506825
vt 0.658336 0.519842
vt 0.655088 0.518138
vt 0.661620 0.502926
vt 0.653296 0.527154
vt 0.661369 0.470203
vt 0.703111 0.513679
vt 0.676610 0.469333
vt 0.684294 0.479301
vt 0.691076 0.485021
vt 0.696331 0.499565
vt 0.697488 0.641992
vt 0.710547 0.650234
vt 0.675147 0.702498
vt 0.684140 0.701423
vt 0.689718 0.702231
vt 0.699789 0.702744
vt 0.662206 0.707171
vt 0.596156 0.556816
vt 0.679540 0.659850
vt 0.675107 0.673288
vt 0.548104 0.572926
vt 0.562235 0.558312
vt 0.590119 0.637481
vt 0.502414 0.448099
vt 0.620139 0.634792
vt 0.617851 0.629467
vt 0.617055 0.618124
vt 0.574563 0.630834
vt 0.664076 0.451920
vt 0.705032 0.654069
vt 0.682572 0.447780
vt 0.704587 0.639011
vt 0.703784 0.473033
vt 0.713048 0.491592
vt 0.506198 0.585428
vt 0.493445 0.589220
vt 0.522142 0.585746
vt 0.700906 0.681400
vt 0.466973 0.595658
vt 0.480574 0.590604
vt 0.670369 0.633290
vt 0.671487 0.710634
vt 0.652767 0.624945
vt 0.667207 0.696331
vt 0.635847 0.611296
vt 0.626590 0.592334
vt 0.645500 0.525897
vt 0.528877 0.657731
vt 0.641664 0.545231
vt 0.469946 0.644672
vt 0.600963 0.454330
vt 0.620044 0.469367
vt 0.461649 0.625189
vt 0.537344 0.602835
vt 0.480313 0.665514
vt 0.495552 0.679300
vt 0.532806 0.629888
vt 0.532309 0.635046
vt 0.638851 0.556350
vt 0.569218 0.471594
vt 0.571222 0.544437
vt 0.710024 0.706328
vt 0.665991 0.715228
vt 0.697971 0.721738
vt 0.713944 0.692036
vt 0.655224 0.665348
vt 0.656336 0.632425
vt 0.704168 0.614882
vt 0.624280 0.567851
vt 0.675300 0.535226
vt 0.715046 0.550122
vt 0.650460 0.548277
vt 0.592639 0.646727
vt 0.599838 0.649845
vt 0.549063 0.591868
vt 0.612486 0.556724
vt 0.615299 0.581709
vt 0.620737 0.611143
vt 0.468053 0.469393
vt 0.529586 0.591908
vt 0.501409 0.551247
vt 0.485771 0.520875
vt 0.713656 0.509993
vt 0.645802 0.476086
vt 0.639945 0.496493
vt 0.639752 0.515712
vn 0.868583 -0.397501 0.295901
vn 0.500828 0.320843 0.803885
vn 0.529683 0.215457 0.820374
vn 0.776672 -0.470466 0.418859
vn 0.493064 -0.806256 -0.326864
vn 0.572739 -0.715630 -0.399805
vn -0.712055 0.170448 -0.681120
vn -0.176644 -0.444590 -0.878144
vn -0.222873 -0.508528 -0.831701
vn -0.669760 0.108397 -0.734623
vn -0.495991 0.808086 0.317788
vn -0.416723 0.861858 0.289038
vn -0.549986 0.745703 0.376090
vn 0.519343 0.365853 0.772292
vn 0.415009 0.505635 0.756374
vn -0.604196 0.668537 0.433597
vn -0.678072 0.218839 -0.701661
vn -0.704216 0.367369 -0.607553
vn -0.111546 -0.275168 -0.954903
vn -0.098179 0.012495 -0.995090
vn 0.951424 -0.223557 0.211697
vn 0.673762 -0.542531 -0.501702
vn 0.761805 -0.168371 -0.625543
vn 0.979133 0.107682 0.172343
vn 0.387436 0.824975 -0.411472
vn -0.686820 0.217629 -0.693481
vn -0.823134 0.055393 0.565138
vn -0.921733 0.324779 0.211959
vn -0.654114 0.311673 -0.689198
vn 0.270733 0.637014 -0.721745
vn 0.618370 0.382243 -0.686665
vn 0.594015 0.790273 0.150381
vn 0.914693 0.213780 0.342980
vn -0.126315 0.637229 0.760252
vn 0.302251 0.102783 0.947671
vn -0.203353 0.975839 -0.079917
vn -0.651754 0.251633 0.715470
vn -0.414194 0.899856 -0.136759
vn 0.377692 0.224808 0.898226
vn 0.922020 0.179407 0.343064
vn 0.802336 0.569482 -0.178737
vn 0.330415 -0.741678 -0.583729
vn 0.919617 0.217108 -0.327367
vn 0.865760 0.105673 -0.489176
vn 0.369270 -0.757114 -0.538905
vn -0.631405 -0.754370 -0.179591
vn -0.549885 -0.822090 -0.147631
vn -0.850046 0.229904 0.473884
vn -0.909667 0.147687 0.388194
vn 0.130902 0.905062 0.404633
vn 0.086463 0.975650 0.201570
vn 0.325783 0.702931 0.632260
vn 0.892909 0.446261 0.059704
vn 0.853247 0.217047 -0.474193
vn 0.292878 0.740272 0.605161
vn -0.904363 0.184402 0.384869
vn -0.343882 0.701795 0.623882
vn -0.325417 0.605258 0.726475
vn -0.973702 0.132210 0.185539
vn -0.704326 -0.618124 -0.349067
vn -0.823433 -0.315565 -0.471569
vn 0.228628 -0.616607 -0.753343
vn 0.259486 -0.300605 -0.917771
vn 0.836030 -0.079081 -0.542955
vn -0.249697 0.829215 -0.500053
vn 0.116503 0.862937 0.491698
vn 0.781137 0.619244 0.079756
vn -0.843975 -0.504222 0.182940
vn -0.973173 0.095609 -0.209267
vn -0.937304 0.248196 -0.244661
vn -0.830656 -0.544311 0.117202
vn -0.144895 -0.876965 0.458191
vn -0.164332 -0.821372 0.546208
vn 0.954578 0.029628 0.296485
vn 0.606859 -0.558960 0.565054
vn 0.637537 -0.578322 0.509009
vn 0.943913 0.199199 0.263339
vn 0.132311 0.911279 -0.389955
vn 0.105906 0.957895 -0.266874
vn 0.053861 0.972264 0.227601
vn -0.976793 0.110865 -0.183260
vn -0.830425 0.456952 -0.318730
vn 0.173895 0.789629 -0.588428
vn 0.948117 0.056317 0.312893
vn 0.901968 0.408801 0.139053
vn 0.580107 -0.453144 0.676857
vn 0.599776 -0.182851 0.778996
vn -0.866328 -0.401090 0.297664
vn -0.193305 -0.714530 0.672369
vn -0.239304 -0.420681 0.875078
vn -0.917089 -0.136048 0.374752
vn -0.137740 0.780046 0.610373
vn 0.305283 0.181535 -0.934798
vn 0.879103 0.167650 -0.446174
vn -0.879636 0.411909 -0.237847
vn 0.496200 0.038863 -0.867338
vn 0.938538 -0.083245 -0.334989
vn 0.238590 -0.227068 -0.944201
vn -0.734913 0.022323 -0.677794
vn -0.935942 -0.042229 -0.349613
vn -0.995706 0.015075 -0.091332
vn -0.979341 0.048156 0.196399
vn -0.065512 -0.164930 0.984127
vn -0.837471 -0.087349 0.539456
vn -0.768407 0.096303 0.632674
vn 0.052992 0.449778 0.891567
vn 0.725464 0.047670 0.686607
vn 0.902868 0.055197 0.426359
vn -0.078329 0.122792 0.989336
vn -0.105254 0.597694 0.794785
vn 0.907226 -0.118412 -0.403633
vn 0.191929 -0.160449 -0.968204
vn -0.504281 -0.198289 -0.840465
vn -0.374985 -0.131117 -0.917712
vn -0.881583 -0.064113 -0.467654
vn -0.999740 -0.001445 0.022735
vn -0.079446 0.119776 0.989617
vn 0.985455 -0.037479 0.165753
vn 0.746062 -0.013632 0.665737
vn 0.010796 -0.150775 0.988509
vn -0.090536 0.070257 0.993412
vn 0.721164 0.083754 0.687683
vn 0.839484 0.143245 0.524164
vn -0.028473 0.111673 0.993337
vn -0.913673 0.045029 0.403948
vn -0.899134 0.107796 0.424191
vn 0.507644 0.846518 -0.160324
vn -0.168136 -0.011434 -0.985698
vn -0.257537 -0.010603 -0.966210
vn -0.136457 0.172281 -0.975550
vn 0.800697 0.368671 0.472193
vn -0.053203 0.307789 0.949966
vn -0.855685 0.272610 0.439872
vn 0.783335 0.409061 -0.468034
vn -0.102334 0.371613 -0.922731
vn -0.030520 0.999467 0.011615
vn 0.705684 -0.121737 0.697990
vn -0.896257 0.109110 0.429906
vn 0.991192 -0.028019 0.129434
vn 0.739974 0.104705 0.664436
vn 0.915123 0.210814 0.343668
vn 0.862218 0.347388 0.368650
vn -0.191233 0.365229 0.911064
vn -0.106880 0.408591 0.906438
vn -0.963370 0.240278 0.119103
vn -0.986212 0.165176 0.010165
vn -0.666173 0.083492 -0.741109
vn -0.620178 -0.120860 -0.775095
vn 0.264590 -0.204853 -0.942352
vn 0.203584 0.031725 -0.978543
vn 0.869158 0.158593 -0.468415
vn 0.884615 -0.071470 -0.460812
vn 0.102632 0.975049 -0.196840
vn -0.586052 0.174323 -0.791300
vn 0.896731 0.421431 0.135163
vn -0.153829 0.036830 -0.987411
vn -0.110048 0.187913 -0.976001
vn -0.869203 0.084875 -0.487116
vn -0.723117 0.002606 -0.690720
vn -0.703355 0.155333 -0.693659
vn -0.707258 0.324844 -0.627903
vn 0.845092 0.026633 -0.533957
vn 0.750059 -0.421386 -0.509750
vn 0.961717 -0.190738 0.196773
vn -0.206328 0.790363 -0.576849
vn -0.887884 0.254120 0.383517
vn -0.824423 0.394040 0.406275
vn -0.259618 0.800336 -0.540426
vn 0.823181 0.330921 -0.461372
vn 0.801141 0.174891 -0.572352
vn 0.967571 -0.186176 0.170718
vn 0.880612 -0.466665 0.082133
vn 0.181027 -0.699408 0.691417
vn 0.414632 -0.419558 0.807497
vn -0.401393 -0.144395 0.904452
vn -0.506588 -0.398652 0.764490
vn 0.188410 0.932790 0.307251
vn -0.839463 0.258887 0.477787
vn -0.087329 0.889735 -0.448047
vn -0.622994 -0.315679 0.715699
vn 0.041621 -0.757743 0.651225
vn 0.836593 -0.547817 0.002843
vn 0.870292 0.102250 -0.481806
vn -0.780356 0.035608 0.624321
vn 0.931405 0.049162 0.360648
vn 0.058151 -0.277534 -0.958954
s 1
g pCylinder70
usemtl initialShadingGroup
f 11/11/1 7/7/2 1/1/3 2/2/4
f 22/22/5 23/23/6 11/11/1 2/2/4
f 9/9/7 10/10/8 3/3/9 4/4/10
f 8/241/11 9/9/7 4/4/10 5/5/12
f 1/1/3 7/7/2 8/8/11 5/237/12
f 21/21/13 17/17/14 12/12/15 13/240/16
f 20/20/17 21/239/13 13/13/16 14/14/18
f 19/19/19 20/20/17 14/14/18 15/15/20
f 18/18/21 24/24/22 25/25/23 16/16/24
f 12/12/15 17/17/14 18/18/21 16/16/24
f 13/240/16 12/12/15 6/6/25
f 14/14/18 13/13/16 6/6/25
f 15/15/20 14/14/18 6/6/25
f 16/16/24 25/25/23 6/6/25
f 12/12/15 16/16/24 6/6/25
f 18/18/21 17/17/14 7/7/2 11/11/1
f 11/11/1 23/23/6 24/24/22 18/18/21
f 10/10/8 9/9/7 20/20/17 19/19/19
f 9/9/7 8/241/11 21/239/13 20/20/17
f 8/8/11 7/7/2 17/17/14 21/21/13
f 10/10/8 23/23/6 22/22/5 3/3/9
f 24/24/22 23/23/6 10/10/8 19/19/19
f 25/25/23 24/24/22 19/19/19 15/15/20
f 6/6/25 25/25/23 15/15/20
f 37/26/26 38/27/27 32/28/28 33/29/29
f 33/29/29 34/30/30 41/31/31 37/26/26
f 34/30/30 35/32/32 40/33/33 41/31/31
f 35/32/32 36/251/34 39/35/35 40/33/33
f 36/34/34 32/28/28 38/27/27 39/250/35
f 33/29/29 32/28/28 31/36/36
f 34/30/30 33/29/29 31/36/36
f 35/32/32 34/30/30 31/36/36
f 36/251/34 35/32/32 31/36/36
f 32/28/28 36/34/34 31/36/36
f 26/37/37 38/27/27 37/26/26 30/38/38
f 39/250/35 38/27/27 26/37/37 27/39/39
f 40/33/33 39/35/35 27/248/39 28/40/40
f 41/31/31 40/33/33 28/40/40 29/41/41
f 37/26/26 41/31/31 29/41/41 30/38/38
f 52/42/42 48/43/43 42/44/44 43/45/45
f 51/46/46 52/42/42 43/45/45 44/47/47
f 50/48/48 51/46/46 44/47/47 45/49/49
f 49/246/50 50/48/48 45/49/49 46/51/51
f 42/44/44 48/43/43 49/50/50 46/244/51
f 149/242/52 151/192/53 53/54/54 54/243/55
f 61/56/56 148/196/57 150/195/58 55/59/59
f 60/60/60 61/56/56 55/59/59 56/61/61
f 59/62/62 60/60/60 56/61/61 57/63/63
f 53/54/54 58/64/64 59/62/62 57/63/63
f 54/243/55 53/54/54 47/65/65
f 55/59/59 54/55/55 47/65/65
f 56/61/61 55/59/59 47/65/65
f 57/63/63 56/61/61 47/65/65
f 53/54/54 57/63/63 47/65/65
f 59/62/62 58/64/64 48/43/43 52/42/42
f 52/42/42 51/46/46 60/60/60 59/62/62
f 51/46/46 50/48/48 61/56/56 60/60/60
f 50/48/48 49/246/50 147/247/66 148/196/57 61/56/56
f 146/67/67 48/43/43 58/64/64
f 72/68/68 68/69/69 62/70/70 63/71/71
f 83/72/72 84/73/73 72/68/68 63/71/71
f 70/74/74 71/75/75 64/76/76 65/77/77
f 69/226/78 70/74/74 65/77/77 66/79/79
f 62/70/70 68/69/69 69/78/78 66/222/79
f 82/224/80 78/81/81 73/82/82 74/225/83
f 81/84/84 82/217/80 74/83/83 75/85/85
f 80/86/86 81/84/84 75/85/85 76/87/87
f 79/88/88 85/89/89 86/90/90 77/91/91
f 73/82/82 78/81/81 79/88/88 77/91/91
f 74/225/83 73/82/82 67/92/92
f 75/85/85 74/83/83 67/92/92
f 76/87/87 75/85/85 67/92/92
f 77/91/91 86/90/90 67/92/92
f 73/82/82 77/91/91 67/92/92
f 79/88/88 78/81/81 68/69/69 72/68/68
f 72/68/68 84/73/73 85/89/89 79/88/88
f 71/75/75 70/74/74 81/84/84 80/86/86
f 70/74/74 69/226/78 108/227/93 111/94/94
f 109/95/95 78/81/81 82/224/80
f 71/75/75 84/73/73 83/72/72 64/76/76
f 85/89/89 84/73/73 71/75/75 80/86/86
f 86/90/90 85/89/89 80/86/86 76/87/87
f 67/92/92 86/90/90 76/87/87
f 128/96/96 144/97/97 126/98/98
f 136/99/99 139/100/100 92/101/101 96/102/102
f 93/103/103 104/104/104 157/115/105 153/199/106
f 106/105/107 94/234/108 95/107/109 103/207/110
f 126/98/98 144/97/97 145/109/111 132/110/112
f 139/100/100 127/188/113 130/112/114 140/113/115
f 139/100/100 140/113/115 88/114/116 92/101/101
f 89/117/117 87/118/118 155/119/119 152/201/120
f 185/185/121 186/231/122 97/121/123 98/122/124
f 184/184/125 185/185/121 98/122/124 99/123/126
f 142/211/127 178/125/128 182/182/129 134/130/130
f 98/122/124 97/121/123 100/233/131 101/132/132
f 99/123/126 98/122/124 101/132/132 102/133/133
f 141/134/134 142/211/127 134/130/130 135/135/135
f 101/132/132 100/233/131 90/136/136
f 102/133/133 101/132/132 90/136/136
f 90/136/136 141/134/134 135/135/135
f 66/79/79 65/77/77 106/206/107 103/223/110
f 65/77/77 64/76/76 107/204/137 106/206/107
f 64/76/76 83/72/72 93/205/103 107/204/137
f 83/72/72 63/71/71 104/209/104 93/205/103
f 63/71/71 62/70/70 105/208/138 104/209/104
f 62/70/70 66/222/79 103/108/110 105/208/138
f 96/102/102 105/138/138 103/207/110 95/107/109
f 92/101/101 104/104/104 105/138/138 96/102/102
f 91/139/139 107/137/137 154/181/140
f 107/137/137 91/139/139 94/234/108 106/105/107
f 113/140/141 119/141/142 120/142/143 117/143/144
f 120/142/143 121/144/145 116/145/146 117/143/144
f 121/144/145 122/146/147 115/147/148 116/145/146
f 124/148/149 125/230/150 123/150/151 114/151/152
f 123/150/151 119/141/142 113/140/141 114/151/152
f 120/142/143 119/141/142 118/152/153
f 121/144/145 120/142/143 118/152/153
f 122/146/147 121/144/145 118/152/153
f 118/152/153 125/149/150 122/146/147
f 119/141/142 123/150/151 118/152/153
f 122/146/147 125/149/150 124/229/149 115/147/148
f 123/150/151 125/230/150 118/152/153
f 110/220/154 109/221/95 116/145/146 115/147/148
f 108/93/93 110/220/154 115/147/148 124/229/149
f 111/218/94 108/228/93 124/148/149 114/151/152
f 112/216/155 111/218/94 114/151/152 113/140/141
f 82/80/80 112/216/155 113/140/141 117/143/144
f 109/221/95 82/80/80 117/143/144 116/145/146
f 69/78/78 68/69/69 110/153/154 108/219/93
f 110/153/154 68/69/69 109/95/95
f 109/95/95 68/69/69 78/81/81
f 70/74/74 112/154/155 81/84/84
f 70/74/74 111/94/94 112/154/155
f 81/84/84 112/154/155 82/217/80
f 126/98/98 132/110/112 130/112/114 127/188/113
f 133/129/156 131/189/157 129/156/158 136/99/99
f 134/130/130 182/182/129 183/183/159 137/157/160
f 90/136/136 135/135/135 138/158/161
f 135/135/135 134/130/130 137/157/160 138/158/161
f 42/44/44 46/244/51 131/155/157 128/190/96
f 43/45/45 42/44/44 128/190/96 126/191/98
f 44/47/47 43/45/45 126/191/98 127/111/113
f 45/49/49 44/47/47 127/111/113 129/187/158
f 46/51/51 45/49/49 129/187/158 131/245/157
f 137/157/160 183/183/159 184/184/125 99/123/126
f 138/158/161 137/157/160 99/123/126 102/133/133
f 90/136/136 138/158/161 102/133/133
f 100/131/131 141/134/134 90/136/136
f 97/232/123 142/211/127 141/134/134 100/131/131
f 94/106/108 143/128/162 177/213/163 180/159/164
f 91/235/139 144/97/97 143/128/162 94/106/108
f 87/236/118 145/109/111 144/97/97 91/235/139
f 143/128/162 144/97/97 128/96/96
f 143/128/162 128/96/96 131/189/157 133/129/156
f 139/100/100 136/99/99 129/156/158 127/188/113
f 53/54/54 151/192/53 146/67/67 58/64/64
f 55/59/59 150/195/58 149/194/52 54/55/55
f 26/37/37 30/38/38 150/58/58 148/57/57
f 27/39/39 26/37/37 148/57/57 147/249/66
f 28/40/40 27/248/39 147/66/66 146/193/67
f 29/41/41 28/40/40 146/193/67 151/53/53
f 30/38/38 29/41/41 151/53/53 149/52/52
f 149/52/52 150/58/58 30/38/38
f 49/50/50 48/43/43 146/67/67 147/197/66
f 169/254/165 170/162/166 164/163/167 165/255/168
f 165/164/168 166/165/169 173/166/170 169/161/165
f 166/165/169 167/167/171 172/168/172 173/166/170
f 175/169/173 176/170/174 168/171/175 171/172/176
f 168/171/175 164/163/167 170/162/166 171/172/176
f 165/255/168 164/163/167 163/173/177
f 166/165/169 165/164/168 163/173/177
f 167/167/171 166/165/169 163/173/177
f 168/171/175 176/170/174 163/173/177
f 164/163/167 168/171/175 163/173/177
f 158/174/178 170/162/166 169/254/165 162/253/179
f 171/172/176 170/162/166 158/174/178 159/176/180
f 174/177/181 175/169/173 171/172/176 159/176/180
f 173/166/170 172/168/172 160/178/182 161/179/183
f 169/161/165 173/166/170 161/179/183 162/175/179
f 172/168/172 175/169/173 174/177/181 160/178/182
f 167/167/171 176/170/174 175/169/173 172/168/172
f 163/173/177 176/170/174 167/167/171
f 157/198/105 156/200/184 159/176/180 158/174/178
f 156/200/184 152/120/120 174/177/181 159/176/180
f 152/120/120 155/202/119 160/178/182 174/177/181
f 155/202/119 154/203/140 161/179/183 160/178/182
f 154/203/140 153/252/106 162/175/179 161/179/183
f 153/116/106 157/198/105 158/174/178 162/253/179
f 88/114/116 89/117/117 152/201/120 156/180/184
f 88/114/116 156/180/184 157/115/105 92/101/101
f 155/119/119 87/118/118 91/139/139 154/181/140
f 1/1/3 5/237/12 142/124/127 181/210/185
f 2/2/4 1/1/3 181/210/185 180/212/164
f 22/22/5 2/2/4 180/212/164 177/127/163
f 3/3/9 22/22/5 177/127/163 179/214/186
f 4/4/10 3/3/9 179/214/186 178/215/128
f 5/5/12 4/4/10 178/215/128 142/238/127
f 186/186/122 181/160/185 142/211/127 97/232/123
f 182/182/129 178/125/128 179/126/186 133/129/156
f 183/183/159 182/182/129 133/129/156 136/99/99
f 184/184/125 183/183/159 136/99/99 96/102/102
f 96/102/102 95/107/109 185/185/121 184/184/125
f 95/107/109 94/234/108 186/231/122 185/185/121
f 94/106/108 180/159/164 181/160/185 186/186/122
f 133/129/156 179/126/186 177/213/163 143/128/162
f 154/181/140 107/137/137 93/103/103 153/199/106
f 157/115/105 104/104/104 92/101/101
