# This file uses centimeters as units for non-parametric coordinates.

mtllib M_RedCoral.mtl
g default
v 0.073523 0.004965 0.025904
v 0.187988 0.073750 -0.134939
v 0.106312 0.255037 -0.199503
v -0.058631 0.298293 -0.078562
v -0.078896 0.143740 0.060747
v 0.888131 0.461075 0.893459
v 1.068982 0.564847 0.704791
v 1.046124 0.845099 0.707516
v 0.851148 0.914533 0.897869
v 0.753503 0.677193 1.012788
v 0.740482 0.797788 0.327359
v 0.811069 0.459041 0.366662
v 0.600159 0.333100 0.613507
v 0.399223 0.594011 0.726763
v 0.485947 0.881204 0.549914
v 0.404785 0.564288 0.034357
v 0.518885 0.311031 0.124552
v 0.358978 0.214939 0.349249
v 0.146049 0.408807 0.397925
v 0.174360 0.624717 0.203311
v 0.995509 0.697862 0.917074
v -0.115278 0.362428 -0.083861
v -0.011700 0.283367 0.087846
v 0.169694 0.189569 0.018852
v 0.178224 0.210659 -0.195494
v 0.002101 0.317492 -0.258974
v 0.674653 1.807968 0.091044
v 0.813973 1.701625 0.322002
v 1.057961 1.575459 0.229201
v 1.069435 1.603827 -0.059112
v 0.832537 1.747525 -0.144497
v 0.900011 1.107744 0.212313
v 0.597842 1.263995 0.327243
v 0.425301 1.395695 0.041212
v 0.620834 1.320840 -0.250495
v 0.914220 1.142876 -0.144748
v 0.561812 0.648228 0.123089
v 0.308406 0.779264 0.219472
v 0.163709 0.889711 -0.020400
v 0.327687 0.826935 -0.265033
v 0.573729 0.677691 -0.176351
v 0.942329 1.780732 0.099016
v -0.213074 0.020291 0.163710
v 0.016122 0.093570 0.159917
v 0.033148 0.276500 0.004477
v -0.185526 0.316279 -0.087797
v -0.337699 0.157932 0.010614
v -0.525053 0.788853 1.373833
v -0.226266 0.908348 1.408888
v -0.234104 1.222128 1.329758
v -0.537736 1.296561 1.245798
v -0.717552 1.028782 1.273038
v -0.060280 1.066101 0.816231
v -0.064996 0.699701 0.978832
v -0.439488 0.558574 0.955381
v -0.666219 0.837752 0.778287
v -0.431856 1.151422 0.692287
v 0.004541 0.706996 0.366574
v -0.019243 0.451444 0.583722
v -0.339428 0.349073 0.589020
v -0.513529 0.541357 0.375147
v -0.300944 0.762566 0.237667
v -0.472856 1.077167 1.440665
v 0.164509 0.166179 -0.118145
v 0.188952 0.066063 -0.307464
v -0.004812 -0.003127 -0.371729
v -0.149008 0.054226 -0.222129
v -0.044361 0.158863 -0.065406
v -0.069295 1.608696 -0.898304
v -0.036418 1.474033 -1.152952
v -0.297046 1.380967 -1.239394
v -0.491000 1.458111 -1.038170
v -0.350242 1.598855 -0.827365
v -0.266960 0.913723 -1.082011
v 0.055816 1.028981 -0.974957
v 0.015099 1.195754 -0.659587
v -0.332841 1.183568 -0.571733
v -0.507163 1.009263 -0.832805
v -0.150814 0.455318 -0.750546
v 0.119873 0.551977 -0.660767
v 0.085727 0.691837 -0.396290
v -0.206064 0.681617 -0.322613
v -0.352255 0.535440 -0.541555
v -0.265066 1.597489 -1.082706
v 0.393325 -0.034025 -0.214293
v 0.181640 0.008344 -0.320639
v 0.050267 0.145454 -0.172799
v 0.180758 0.187823 0.024918
v 0.392780 0.076899 -0.000727
v 1.073361 1.033008 -0.956861
v 0.811506 1.120895 -1.125649
v 0.708830 1.405304 -1.010103
v 0.907227 1.493191 -0.769904
v 1.132520 1.263100 -0.736998
v 0.346969 1.111495 -0.692293
v 0.512793 0.797823 -0.878902
v 0.849036 0.700893 -0.683312
v 0.891022 0.954659 -0.375821
v 0.580728 1.208425 -0.381372
v 0.153954 0.650251 -0.400148
v 0.337482 0.458709 -0.606680
v 0.633203 0.399520 -0.458115
v 0.632442 0.554480 -0.159765
v 0.336249 0.709441 -0.123939
v 0.996956 1.320593 -0.998978
v -0.129592 0.273270 0.049000
v 0.073390 0.279516 0.098637
v 0.178288 0.351415 -0.067288
v 0.040137 0.389605 -0.219473
v -0.150143 0.341309 -0.147602
v -0.376109 1.387607 0.616239
v -0.112080 1.429394 0.703496
v -0.000098 1.634144 0.546625
v -0.194918 1.718899 0.362416
v -0.427305 1.566530 0.405440
v 0.191850 1.279801 0.267747
v 0.035647 1.071201 0.498753
v -0.296753 1.033347 0.402039
v -0.345986 1.218551 0.111261
v -0.044013 1.370868 0.028263
v 0.219856 0.821311 0.062643
v 0.073314 0.720869 0.294440
v -0.210250 0.712144 0.225098
v -0.238960 0.807193 -0.049555
v 0.026860 0.874662 -0.149957
v -0.256067 1.618509 0.595521
v -0.034965 -0.072072 -0.103348
v -0.090993 0.001207 0.118926
v 0.054649 0.184138 0.175846
v 0.200689 0.223916 -0.011251
v 0.145304 0.065569 -0.183802
v -1.122080 0.696490 -0.719716
v -1.233739 0.815985 -0.440369
v -1.155298 1.129766 -0.427329
v -0.995161 1.204198 -0.698617
v -0.974631 0.936419 -0.879322
v -0.704761 0.973738 -0.125764
v -0.860523 0.607338 -0.172664
v -0.740352 0.466211 -0.528125
v -0.510321 0.745390 -0.700912
v -0.488324 1.059059 -0.452239
v -0.287502 0.614633 0.053925
v -0.490963 0.359081 -0.025591
v -0.412692 0.256710 -0.336107
v -0.160858 0.448994 -0.448500
v -0.083486 0.670203 -0.207447
v -1.200200 0.984804 -0.686725
vt 0.537288 0.138582
vt 0.465860 0.142850
vt 0.483904 0.142656
vt 0.502520 0.142489
vt 0.520418 0.141535
vt 0.465457 0.276620
vt 0.475101 0.262603
vt 0.489605 0.255818
vt 0.503512 0.255607
vt 0.516096 0.261506
vt 0.496394 0.274065
vt 0.483355 0.224797
vt 0.460208 0.230065
vt 0.554526 0.235875
vt 0.531918 0.228204
vt 0.507125 0.223555
vt 0.482369 0.185941
vt 0.459148 0.187761
vt 0.552490 0.184737
vt 0.529327 0.185803
vt 0.506110 0.185507
vt 0.528911 0.276445
vt 0.436847 0.187697
vt 0.435180 0.239704
vt 0.449334 0.140845
vt 0.449334 0.140845
vt 0.465860 0.142850
vt 0.459148 0.187761
vt 0.436847 0.187697
vt 0.483904 0.142656
vt 0.482369 0.185941
vt 0.502520 0.142489
vt 0.506110 0.185507
vt 0.520418 0.141535
vt 0.529327 0.185803
vt 0.537288 0.138582
vt 0.552490 0.184737
vt 0.460208 0.230065
vt 0.483355 0.224797
vt 0.489605 0.255818
vt 0.475101 0.262603
vt 0.435180 0.239704
vt 0.465457 0.276620
vt 0.531918 0.228204
vt 0.554526 0.235875
vt 0.528911 0.276445
vt 0.516096 0.261506
vt 0.507125 0.223555
vt 0.503512 0.255607
vt 0.496394 0.274065
vt 0.449334 0.140845
vt 0.465860 0.142850
vt 0.459148 0.187761
vt 0.436847 0.187697
vt 0.483904 0.142656
vt 0.482369 0.185941
vt 0.502520 0.142489
vt 0.506110 0.185507
vt 0.520418 0.141535
vt 0.529327 0.185803
vt 0.537288 0.138582
vt 0.552490 0.184737
vt 0.460208 0.230065
vt 0.483355 0.224797
vt 0.489605 0.255818
vt 0.475101 0.262603
vt 0.435180 0.239704
vt 0.465457 0.276620
vt 0.531918 0.228204
vt 0.554526 0.235875
vt 0.528911 0.276445
vt 0.516096 0.261506
vt 0.507125 0.223555
vt 0.503512 0.255607
vt 0.496394 0.274065
vt 0.449334 0.140845
vt 0.465860 0.142850
vt 0.459148 0.187761
vt 0.436847 0.187697
vt 0.483904 0.142656
vt 0.482369 0.185941
vt 0.502520 0.142489
vt 0.506110 0.185507
vt 0.520418 0.141535
vt 0.529327 0.185803
vt 0.537288 0.138582
vt 0.552490 0.184737
vt 0.460208 0.230065
vt 0.483355 0.224797
vt 0.489605 0.255818
vt 0.475101 0.262603
vt 0.435180 0.239704
vt 0.465457 0.276620
vt 0.531918 0.228204
vt 0.554526 0.235875
vt 0.528911 0.276445
vt 0.516096 0.261506
vt 0.507125 0.223555
vt 0.503512 0.255607
vt 0.496394 0.274065
vt 0.449334 0.140845
vt 0.465860 0.142850
vt 0.459148 0.187761
vt 0.436847 0.187697
vt 0.483904 0.142656
vt 0.482369 0.185941
vt 0.502520 0.142489
vt 0.506110 0.185507
vt 0.520418 0.141535
vt 0.529327 0.185803
vt 0.537288 0.138582
vt 0.552490 0.184737
vt 0.460208 0.230065
vt 0.483355 0.224797
vt 0.489605 0.255818
vt 0.475101 0.262603
vt 0.435180 0.239704
vt 0.465457 0.276620
vt 0.531918 0.228204
vt 0.554526 0.235875
vt 0.528911 0.276445
vt 0.516096 0.261506
vt 0.507125 0.223555
vt 0.503512 0.255607
vt 0.496394 0.274065
vt 0.449334 0.140845
vt 0.465860 0.142850
vt 0.459148 0.187761
vt 0.436847 0.187697
vt 0.483904 0.142656
vt 0.482369 0.185941
vt 0.502520 0.142489
vt 0.506110 0.185507
vt 0.520418 0.141535
vt 0.529327 0.185803
vt 0.537288 0.138582
vt 0.552490 0.184737
vt 0.460208 0.230065
vt 0.483355 0.224797
vt 0.489605 0.255818
vt 0.475101 0.262603
vt 0.435180 0.239704
vt 0.465457 0.276620
vt 0.531918 0.228204
vt 0.554526 0.235875
vt 0.528911 0.276445
vt 0.516096 0.261506
vt 0.507125 0.223555
vt 0.503512 0.255607
vt 0.496394 0.274065
vt 0.449334 0.140845
vt 0.465860 0.142850
vt 0.459148 0.187761
vt 0.436847 0.187697
vt 0.483904 0.142656
vt 0.482369 0.185941
vt 0.502520 0.142489
vt 0.506110 0.185507
vt 0.520418 0.141535
vt 0.529327 0.185803
vt 0.537288 0.138582
vt 0.552490 0.184737
vt 0.460208 0.230065
vt 0.483355 0.224797
vt 0.489605 0.255818
vt 0.475101 0.262603
vt 0.435180 0.239704
vt 0.465457 0.276620
vt 0.531918 0.228204
vt 0.554526 0.235875
vt 0.528911 0.276445
vt 0.516096 0.261506
vt 0.507125 0.223555
vt 0.503512 0.255607
vt 0.496394 0.274065
vn 0.116950 -0.876913 0.466205
vn 0.725188 -0.528053 -0.441885
vn 0.711000 -0.478612 -0.515179
vn 0.057057 -0.898395 0.435465
vn 0.226511 0.438918 -0.869508
vn 0.225384 0.544918 -0.807630
vn -0.708647 0.677104 -0.198367
vn -0.625385 0.765837 -0.149622
vn -0.762927 -0.151891 0.628388
vn -0.787914 -0.051785 0.613603
vn 0.735563 -0.447799 -0.508353
vn 0.384699 0.661027 -0.644244
vn 0.602534 0.687403 -0.405499
vn 0.828919 -0.433438 -0.353588
vn 0.015356 -0.917327 0.397837
vn 0.095553 -0.880729 0.463881
vn -0.718621 0.018155 0.695165
vn -0.530501 0.030432 0.847138
vn -0.432102 0.900492 0.049007
vn -0.188937 0.934527 0.301599
vn 0.706872 0.050791 0.705515
vn -0.884371 0.466668 0.010428
vn -0.375866 -0.003342 0.926668
vn -0.341846 -0.015723 0.939624
vn -0.886801 0.462048 0.009798
vn 0.564190 -0.609032 0.557467
vn 0.599330 -0.584172 0.547309
vn 0.611381 -0.492354 -0.619516
vn 0.645969 -0.469286 -0.602076
vn -0.300924 0.181187 -0.936278
vn -0.264984 0.172838 -0.948636
vn -0.284476 0.048821 0.957439
vn 0.698528 -0.441891 0.562841
vn 0.787527 -0.171765 0.591859
vn -0.218915 0.256207 0.941507
vn -0.874578 0.484693 0.013631
vn -0.781372 0.623355 0.029773
vn -0.208352 0.237813 -0.948701
vn -0.147053 0.434395 -0.888638
vn 0.745038 -0.329030 -0.580222
vn 0.832285 -0.060428 -0.551045
vn 0.487925 0.866586 0.104683
vn -0.351970 -0.788238 0.504775
vn 0.750307 -0.472908 0.461949
vn 0.805429 -0.435298 0.402243
vn -0.359409 -0.821418 0.442829
vn 0.864680 0.355751 -0.354640
vn 0.815185 0.467372 -0.342107
vn -0.200319 0.542937 -0.815532
vn -0.193355 0.647653 -0.736994
vn -0.946423 -0.177570 -0.269727
vn -0.944801 -0.084471 -0.316569
vn 0.813948 -0.400779 0.420553
vn 0.768210 0.623613 -0.144776
vn 0.687377 0.709039 0.157409
vn 0.735421 -0.354715 0.577350
vn -0.351097 -0.850421 0.391809
vn -0.361777 -0.795236 0.486536
vn -0.973484 0.003880 -0.228722
vn -0.998144 0.060666 0.005378
vn -0.250861 0.831155 -0.496237
vn -0.329298 0.929315 -0.167143
vn -0.205263 0.234495 0.950199
vn 0.731310 0.401386 0.551430
vn 0.886507 -0.182983 -0.424997
vn 0.868072 -0.195191 -0.456454
vn 0.731940 0.396794 0.553911
vn -0.144470 -0.657236 -0.739709
vn -0.173008 -0.628849 -0.758035
vn -0.936373 -0.341428 0.081441
vn -0.946597 -0.319483 0.043408
vn -0.367132 0.316749 0.874577
vn -0.403021 0.312889 0.860044
vn 0.847992 -0.131068 -0.513548
vn -0.212888 -0.485227 -0.848076
vn -0.215930 -0.218755 -0.951588
vn 0.822499 0.079766 -0.563145
vn 0.729110 0.419197 0.540992
vn 0.693455 0.558779 0.454847
vn -0.434277 0.380397 0.816518
vn -0.408268 0.567547 0.714988
vn -0.982539 -0.178924 -0.051013
vn -0.984433 0.085910 -0.153333
vn -0.150834 0.865711 -0.477278
vn 0.720625 -0.596994 -0.352559
vn -0.301065 -0.434847 -0.848686
vn -0.385147 -0.419447 -0.822026
vn 0.704170 -0.642884 -0.301403
vn -0.982430 0.154931 -0.104054
vn -0.959722 0.271397 -0.072650
vn -0.351031 0.352229 0.867590
vn -0.342205 0.471078 0.813007
vn 0.706784 -0.122672 0.696712
vn 0.661599 -0.044341 0.748546
vn -0.391182 -0.382823 -0.836913
vn -0.859085 0.474721 -0.191347
vn -0.662804 0.638897 -0.390514
vn -0.258870 -0.291595 -0.920847
vn 0.678817 -0.684017 -0.267073
vn 0.721581 -0.606926 -0.333110
vn 0.708719 0.065213 0.702471
vn 0.830872 0.178820 0.526949
vn -0.217653 0.712306 0.667269
vn -0.013142 0.894898 0.446077
vn 0.583622 0.477525 -0.656776
vn -0.730439 -0.365693 0.576825
vn 0.385401 -0.374143 0.843495
vn 0.463162 -0.381885 0.799778
vn -0.734599 -0.420538 0.532459
vn 0.992795 -0.058983 -0.104303
vn 0.987017 0.054323 -0.151149
vn 0.218582 0.144294 -0.965091
vn 0.244992 0.268261 -0.931673
vn -0.849755 -0.051584 -0.524648
vn -0.802360 0.006826 -0.596801
vn 0.479265 -0.345924 0.806623
vn 0.955758 0.289153 -0.054016
vn 0.842583 0.518630 0.145180
vn 0.388396 -0.216726 0.895644
vn -0.725707 -0.470555 0.501922
vn -0.737459 -0.377661 0.559934
vn -0.816237 0.129357 -0.563049
vn -0.873385 0.290101 -0.391203
vn 0.204025 0.548693 -0.810746
vn 0.091283 0.800748 -0.592005
vn -0.324743 0.680705 0.656645
vn -0.395692 -0.788238 -0.471284
vn -0.641412 -0.472908 0.604110
vn -0.598121 -0.435298 0.672879
vn -0.333946 -0.821418 -0.462333
vn 0.117212 0.355751 0.927202
vn 0.118002 0.467372 0.876150
vn 0.839559 0.542937 0.018983
vn 0.761917 0.647653 0.005254
vn 0.506898 -0.177570 -0.843518
vn 0.551700 -0.084471 -0.829754
vn -0.618018 -0.400779 0.676336
vn -0.060285 0.623613 0.779405
vn -0.330991 0.709038 0.622663
vn -0.748954 -0.354715 0.559683
vn -0.286852 -0.850421 -0.441021
vn -0.375528 -0.795236 -0.476003
vn 0.474355 0.003880 -0.880325
vn 0.254756 0.060666 -0.965101
vn 0.544445 0.831155 -0.112968
vn 0.247135 0.929315 -0.274405
vn -0.863953 0.234496 -0.445642
s 1
g pCylinder72
usemtl lambert5SG
f 1/25/1 2/2/2 17/18/3 18/23/4
f 2/2/2 3/3/5 16/17/6 17/18/3
f 3/3/5 4/4/7 20/21/8 16/17/6
f 4/4/7 5/5/9 19/20/10 20/21/8
f 5/5/9 1/1/1 18/19/4 19/20/10
f 12/13/11 11/12/12 8/8/13 7/7/14
f 13/24/15 12/13/11 7/7/14 6/6/16
f 14/15/17 13/14/15 6/22/16 10/10/18
f 15/16/19 14/15/17 10/10/18 9/9/20
f 11/12/12 15/16/19 9/9/20 8/8/13
f 17/18/3 16/17/6 11/12/12 12/13/11
f 18/23/4 17/18/3 12/13/11 13/24/15
f 19/20/10 18/19/4 13/14/15 14/15/17
f 20/21/8 19/20/10 14/15/17 15/16/19
f 16/17/6 20/21/8 15/16/19 11/12/12
f 6/6/16 7/7/14 21/11/21
f 7/7/14 8/8/13 21/11/21
f 8/8/13 9/9/20 21/11/21
f 9/9/20 10/10/18 21/11/21
f 10/10/18 6/22/16 21/11/21
s 2
f 22/26/22 23/27/23 38/28/24 39/29/25
f 23/27/23 24/30/26 37/31/27 38/28/24
f 24/30/26 25/32/28 41/33/29 37/31/27
f 25/32/28 26/34/30 40/35/31 41/33/29
f 26/34/30 22/36/22 39/37/25 40/35/31
f 33/38/32 32/39/33 29/40/34 28/41/35
f 34/42/36 33/38/32 28/41/35 27/43/37
f 35/44/38 34/45/36 27/46/37 31/47/39
f 36/48/40 35/44/38 31/47/39 30/49/41
f 32/39/33 36/48/40 30/49/41 29/40/34
f 38/28/24 37/31/27 32/39/33 33/38/32
f 39/29/25 38/28/24 33/38/32 34/42/36
f 40/35/31 39/37/25 34/45/36 35/44/38
f 41/33/29 40/35/31 35/44/38 36/48/40
f 37/31/27 41/33/29 36/48/40 32/39/33
f 27/43/37 28/41/35 42/50/42
f 28/41/35 29/40/34 42/50/42
f 29/40/34 30/49/41 42/50/42
f 30/49/41 31/47/39 42/50/42
f 31/47/39 27/46/37 42/50/42
s 3
f 43/51/43 44/52/44 59/53/45 60/54/46
f 44/52/44 45/55/47 58/56/48 59/53/45
f 45/55/47 46/57/49 62/58/50 58/56/48
f 46/57/49 47/59/51 61/60/52 62/58/50
f 47/59/51 43/61/43 60/62/46 61/60/52
f 54/63/53 53/64/54 50/65/55 49/66/56
f 55/67/57 54/63/53 49/66/56 48/68/58
f 56/69/59 55/70/57 48/71/58 52/72/60
f 57/73/61 56/69/59 52/72/60 51/74/62
f 53/64/54 57/73/61 51/74/62 50/65/55
f 59/53/45 58/56/48 53/64/54 54/63/53
f 60/54/46 59/53/45 54/63/53 55/67/57
f 61/60/52 60/62/46 55/70/57 56/69/59
f 62/58/50 61/60/52 56/69/59 57/73/61
f 58/56/48 62/58/50 57/73/61 53/64/54
f 48/68/58 49/66/56 63/75/63
f 49/66/56 50/65/55 63/75/63
f 50/65/55 51/74/62 63/75/63
f 51/74/62 52/72/60 63/75/63
f 52/72/60 48/71/58 63/75/63
s 4
f 64/76/64 65/77/65 80/78/66 81/79/67
f 65/77/65 66/80/68 79/81/69 80/78/66
f 66/80/68 67/82/70 83/83/71 79/81/69
f 67/82/70 68/84/72 82/85/73 83/83/71
f 68/84/72 64/86/64 81/87/67 82/85/73
f 75/88/74 74/89/75 71/90/76 70/91/77
f 76/92/78 75/88/74 70/91/77 69/93/79
f 77/94/80 76/95/78 69/96/79 73/97/81
f 78/98/82 77/94/80 73/97/81 72/99/83
f 74/89/75 78/98/82 72/99/83 71/90/76
f 80/78/66 79/81/69 74/89/75 75/88/74
f 81/79/67 80/78/66 75/88/74 76/92/78
f 82/85/73 81/87/67 76/95/78 77/94/80
f 83/83/71 82/85/73 77/94/80 78/98/82
f 79/81/69 83/83/71 78/98/82 74/89/75
f 69/93/79 70/91/77 84/100/84
f 70/91/77 71/90/76 84/100/84
f 71/90/76 72/99/83 84/100/84
f 72/99/83 73/97/81 84/100/84
f 73/97/81 69/96/79 84/100/84
s 5
f 85/101/85 86/102/86 101/103/87 102/104/88
f 86/102/86 87/105/89 100/106/90 101/103/87
f 87/105/89 88/107/91 104/108/92 100/106/90
f 88/107/91 89/109/93 103/110/94 104/108/92
f 89/109/93 85/111/85 102/112/88 103/110/94
f 96/113/95 95/114/96 92/115/97 91/116/98
f 97/117/99 96/113/95 91/116/98 90/118/100
f 98/119/101 97/120/99 90/121/100 94/122/102
f 99/123/103 98/119/101 94/122/102 93/124/104
f 95/114/96 99/123/103 93/124/104 92/115/97
f 101/103/87 100/106/90 95/114/96 96/113/95
f 102/104/88 101/103/87 96/113/95 97/117/99
f 103/110/94 102/112/88 97/120/99 98/119/101
f 104/108/92 103/110/94 98/119/101 99/123/103
f 100/106/90 104/108/92 99/123/103 95/114/96
f 90/118/100 91/116/98 105/125/105
f 91/116/98 92/115/97 105/125/105
f 92/115/97 93/124/104 105/125/105
f 93/124/104 94/122/102 105/125/105
f 94/122/102 90/121/100 105/125/105
s 6
f 106/126/106 107/127/107 122/128/108 123/129/109
f 107/127/107 108/130/110 121/131/111 122/128/108
f 108/130/110 109/132/112 125/133/113 121/131/111
f 109/132/112 110/134/114 124/135/115 125/133/113
f 110/134/114 106/136/106 123/137/109 124/135/115
f 117/138/116 116/139/117 113/140/118 112/141/119
f 118/142/120 117/138/116 112/141/119 111/143/121
f 119/144/122 118/145/120 111/146/121 115/147/123
f 120/148/124 119/144/122 115/147/123 114/149/125
f 116/139/117 120/148/124 114/149/125 113/140/118
f 122/128/108 121/131/111 116/139/117 117/138/116
f 123/129/109 122/128/108 117/138/116 118/142/120
f 124/135/115 123/137/109 118/145/120 119/144/122
f 125/133/113 124/135/115 119/144/122 120/148/124
f 121/131/111 125/133/113 120/148/124 116/139/117
f 111/143/121 112/141/119 126/150/126
f 112/141/119 113/140/118 126/150/126
f 113/140/118 114/149/125 126/150/126
f 114/149/125 115/147/123 126/150/126
f 115/147/123 111/146/121 126/150/126
s 7
f 127/151/127 128/152/128 143/153/129 144/154/130
f 128/152/128 129/155/131 142/156/132 143/153/129
f 129/155/131 130/157/133 146/158/134 142/156/132
f 130/157/133 131/159/135 145/160/136 146/158/134
f 131/159/135 127/161/127 144/162/130 145/160/136
f 138/163/137 137/164/138 134/165/139 133/166/140
f 139/167/141 138/163/137 133/166/140 132/168/142
f 140/169/143 139/170/141 132/171/142 136/172/144
f 141/173/145 140/169/143 136/172/144 135/174/146
f 137/164/138 141/173/145 135/174/146 134/165/139
f 143/153/129 142/156/132 137/164/138 138/163/137
f 144/154/130 143/153/129 138/163/137 139/167/141
f 145/160/136 144/162/130 139/170/141 140/169/143
f 146/158/134 145/160/136 140/169/143 141/173/145
f 142/156/132 146/158/134 141/173/145 137/164/138
f 132/168/142 133/166/140 147/175/147
f 133/166/140 134/165/139 147/175/147
f 134/165/139 135/174/146 147/175/147
f 135/174/146 136/172/144 147/175/147
f 136/172/144 132/171/142 147/175/147
