# This file uses centimeters as units for non-parametric coordinates.

mtllib M_SeaLeaf.mtl
g default
v 0.342647 0.555185 1.714722
v 0.674884 7.224562 1.779530
v 0.301961 0.598485 -1.720932
v 0.572995 7.263006 -1.654363
v 0.476646 5.700430 1.768349
v 0.374758 5.738873 -1.665544
v 0.351125 2.378154 1.734879
v 0.249237 2.416598 -1.699013
v 0.342031 4.542912 1.759384
v 0.240142 4.581355 -1.674508
v -0.048277 0.549175 -0.121320
v -0.072695 2.369533 -0.100216
v -0.081789 4.534291 -0.075711
v 0.052826 5.691809 -0.066746
v 0.251064 7.215942 -0.055565
v 0.006297 -0.061375 0.105131
v 0.096943 -0.053209 0.030573
v 0.156998 6.792532 -0.020195
v -0.068134 -0.066020 0.014132
v 0.022512 -0.057854 -0.060426
v 0.141796 6.063186 -0.013471
v 0.213597 6.069655 -0.072529
v 0.154640 6.065976 -0.144610
v 0.082839 6.059507 -0.085552
v -0.071259 4.805080 0.036670
v 0.016749 4.813009 -0.035719
v -0.055515 4.808499 -0.124071
v -0.143524 4.800570 -0.051682
v -0.088249 3.742930 0.112215
v 0.028810 3.753476 0.015932
v -0.067308 3.747477 -0.101583
v -0.184367 3.736931 -0.005300
v -0.076337 2.238416 0.115617
v 0.042822 2.249152 0.017607
v -0.055021 2.243045 -0.102017
v -0.174180 2.232310 -0.004006
v 0.117586 6.747006 -0.025024
v 0.164530 6.751235 -0.063636
v 0.203075 6.753641 -0.016509
v 0.156132 6.749411 0.022103
v -0.064959 3.187961 -0.136065
v 0.034667 3.194179 -0.014262
v -0.086664 3.183248 0.085535
v -0.186289 3.177030 -0.036268
v -0.091941 1.597212 0.082921
v 0.027683 1.607990 -0.015472
v -0.070542 1.601860 -0.135561
v -0.190165 1.591082 -0.037169
vt 0.720239 0.152953
vt 0.719741 0.438957
vt 0.562833 0.152082
vt 0.562335 0.438087
vt 0.719854 0.365844
vt 0.562449 0.364974
vt 0.720070 0.245988
vt 0.562665 0.245117
vt 0.719929 0.324346
vt 0.562524 0.323475
vt 0.635633 0.152485
vt 0.635465 0.245520
vt 0.635324 0.323878
vt 0.635249 0.365376
vt 0.635136 0.438489
vt 0.983407 0.934154
vt 0.985841 0.934154
vt 0.981901 0.963551
vt 0.980310 0.963551
vt 0.982370 0.963551
vt 0.983961 0.963551
vt 0.988992 0.934154
vt 0.986558 0.934154
vt 0.980935 0.880957
vt 0.983918 0.880957
vt 0.987780 0.880957
vt 0.984797 0.880957
vt 0.977224 0.835515
vt 0.981191 0.835515
vt 0.986328 0.835515
vt 0.982360 0.835515
vt 0.984487 0.770964
vt 0.989221 0.770964
vt 0.982206 0.811495
vt 0.978093 0.811495
vt 0.995350 0.770964
vt 0.987530 0.811495
vt 0.983417 0.811495
vt 0.990616 0.770964
vt 0.985058 0.743503
vt 0.990277 0.743503
vt 0.997034 0.743503
vt 0.991815 0.743503
vt 0.982135 0.965372
vt 0.982065 0.685900
vt 0.987285 0.685900
vt 0.994042 0.685900
vt 0.988822 0.685900
vn -0.999705 -0.012378 0.020889
vn -0.999642 -0.008161 0.025473
vn -0.979464 -0.009319 -0.201401
vn -0.978347 -0.018305 -0.206159
vn -0.973634 0.122484 -0.192444
vn -0.991962 0.122712 0.030876
vn -0.991216 0.128700 0.030441
vn -0.972987 0.127962 -0.192152
vn -0.998883 0.036451 0.030084
vn -0.979766 0.040022 -0.196106
vn -0.976219 -0.006725 0.216682
vn -0.975189 -0.006679 0.221275
vn -0.973777 0.035425 0.224730
vn -0.967598 0.118590 0.222912
vn -0.966944 0.124132 0.222735
vn -0.039231 0.014513 0.999125
vn 0.992710 -0.101864 0.064424
vn 0.991777 0.022839 0.125921
vn -0.050360 -0.033841 0.998158
vn -0.995088 0.069558 -0.070446
vn 0.131624 0.128280 -0.982965
vn 0.163648 -0.003172 -0.986514
vn -0.982210 0.144579 -0.119838
vn -0.135148 0.073519 0.988094
vn 0.993093 -0.070470 0.093805
vn 0.069541 -0.019182 -0.997395
vn -0.990650 0.095853 -0.097080
vn -0.111790 0.026066 0.993390
vn 0.992413 0.012667 0.122293
vn 0.088083 0.009874 -0.996064
vn -0.997110 0.024464 -0.071922
vn -0.096649 -0.002205 0.995316
vn 0.993147 -0.003413 0.116825
vn 0.997007 0.009097 0.076778
vn -0.094628 0.002098 0.995510
vn 0.101449 -0.001841 -0.994839
vn 0.103841 0.001339 -0.994593
vn -0.992952 -0.007447 -0.118282
vn -0.996944 0.003465 -0.078038
vn -0.107515 -0.008796 0.994165
vn 0.996554 0.020931 0.080263
vn 0.090538 -0.011235 -0.995830
vn -0.992191 -0.045099 -0.116289
vn -0.078708 0.996806 0.013494
vn -0.107318 0.006957 0.994200
vn 0.992010 0.044630 0.118003
vn 0.094714 -0.039720 -0.994712
vn -0.994020 -0.075640 -0.078762
s 1
g pPlane80
usemtl lambert6SG
f 11/11/1 12/12/2 8/8/3 3/3/4
f 6/6/5 14/14/6 15/15/7 4/4/8
f 8/8/3 12/12/2 13/13/9 10/10/10
f 10/10/10 13/13/9 14/14/6 6/6/5
f 1/1/11 7/7/12 12/12/2 11/11/1
f 13/13/9 12/12/2 7/7/12 9/9/13
f 14/14/6 13/13/9 9/9/13 5/5/14
f 15/15/7 14/14/6 5/5/14 2/2/15
s 3
f 21/16/16 22/17/17 39/18/18 40/19/19
f 37/20/20 38/21/21 23/22/22 24/23/23
f 22/17/17 23/22/22 38/21/21 39/18/18
f 24/23/23 21/16/16 40/19/19 37/20/20
f 25/24/24 26/25/25 22/17/17 21/16/16
f 26/25/25 27/26/26 23/22/22 22/17/17
f 24/23/23 23/22/22 27/26/26 28/27/27
f 28/27/27 25/24/24 21/16/16 24/23/23
f 29/28/28 30/29/29 26/25/25 25/24/24
f 30/29/29 31/30/30 27/26/26 26/25/25
f 28/27/27 27/26/26 31/30/30 32/31/31
f 32/31/31 29/28/28 25/24/24 28/27/27
f 33/32/32 34/33/33 42/34/34 43/35/35
f 34/33/33 35/36/36 41/37/37 42/34/34
f 44/38/38 41/37/37 35/36/36 36/39/39
f 36/39/39 33/32/32 43/35/35 44/38/38
f 45/40/40 46/41/41 34/33/33 33/32/32
f 46/41/41 47/42/42 35/36/36 34/33/33
f 36/39/39 35/36/36 47/42/42 48/43/43
f 48/43/43 45/40/40 33/32/32 36/39/39
f 18/44/44 38/21/21 37/20/20
f 39/18/18 38/21/21 18/44/44
f 40/19/19 39/18/18 18/44/44
f 37/20/20 40/19/19 18/44/44
f 42/34/34 41/37/37 31/30/30 30/29/29
f 43/35/35 42/34/34 30/29/29 29/28/28
f 44/38/38 43/35/35 29/28/28 32/31/31
f 32/31/31 31/30/30 41/37/37 44/38/38
f 16/45/45 17/46/46 46/41/41 45/40/40
f 17/46/46 20/47/47 47/42/42 46/41/41
f 48/43/43 47/42/42 20/47/47 19/48/48
f 19/48/48 16/45/45 45/40/40 48/43/43
