# This file uses centimeters as units for non-parametric coordinates.

mtllib M_SeaWeedLong.mtl
g default
v 0.747440 -0.096954 0.394713
v -0.562999 7.374302 1.825526
v -0.507457 -0.216293 -0.131455
v -1.817896 7.254962 1.299357
v -1.583908 4.979836 1.257321
v -0.329011 5.099175 1.783490
v -1.127830 2.153525 0.810622
v 0.127066 2.272864 1.336791
v -0.816495 -0.177422 0.022132
v -1.246068 8.085735 -0.816190
v 0.493277 -0.177422 -0.649020
v 0.063705 8.085735 -1.487343
v -0.013579 5.626959 -1.638164
v -1.323351 5.626959 -0.967010
v 0.098938 2.514890 -1.418584
v -1.210834 2.514890 -0.747432
v -0.245661 -0.170402 0.801091
v -1.512827 8.049170 0.801091
v -0.245661 -0.170402 -0.670627
v -1.512827 8.049170 -0.670627
v -1.585182 5.585623 -0.670627
v -1.585182 5.585623 0.801091
v -1.215896 2.485708 -0.670627
v -1.215896 2.485708 0.801091
v 0.171023 -0.226898 0.883361
v 1.525904 8.896424 0.883361
v 0.171023 -0.226898 -0.752896
v 1.525904 8.896424 -0.752896
v 0.869684 6.306250 -0.752896
v 0.869684 6.306250 0.883361
v 0.298621 2.900145 -0.752896
v 0.298621 2.900145 0.883361
v -0.577203 -0.178506 -0.754457
v 0.343307 8.018695 -1.815418
v 0.446221 -0.156575 0.302932
v 1.366731 8.040627 -0.758029
v 1.415763 5.576508 -0.754376
v 0.392339 5.554577 -1.811767
v 1.146654 2.483282 -0.429755
v 0.123230 2.461350 -1.487144
v 0.498476 -0.193876 -0.419356
v 1.817896 8.001192 0.097425
v -0.307243 -0.141748 0.811110
v 1.012176 8.053321 1.327891
v 0.994821 5.590528 1.420863
v 1.800541 5.538398 0.190396
v 0.588041 2.498270 1.285504
v 1.393760 2.446141 0.055037
v 0.357852 -0.226898 -0.164124
v 1.308635 8.896424 0.801129
v -0.624323 -0.226898 0.803327
v 0.326460 8.896424 1.768580
v -0.134040 6.306250 1.301072
v 0.848135 6.306250 0.333621
v -0.534782 2.900145 0.894231
v 0.447393 2.900145 -0.073220
v 0.578684 -0.234117 0.502147
v 1.456368 10.148478 -0.765569
v -0.952305 -0.234117 -0.557811
v -0.074621 10.148478 -1.825526
v -0.499716 7.200789 -1.211524
v 1.031273 7.200789 -0.151567
v -0.869648 3.324545 -0.677199
v 0.661341 3.324545 0.382758
vt 0.937302 0.046560
vt 0.943795 0.543806
vt 0.849836 0.047231
vt 0.856328 0.544478
vt 0.854473 0.402359
vt 0.941939 0.401687
vt 0.852046 0.216489
vt 0.939512 0.215817
vt 0.854473 0.402359
vt 0.941939 0.401687
vt 0.943795 0.543806
vt 0.856328 0.544478
vt 0.852046 0.216489
vt 0.939512 0.215817
vt 0.937302 0.046560
vt 0.849836 0.047231
vt 0.854473 0.402359
vt 0.941939 0.401687
vt 0.943795 0.543806
vt 0.856328 0.544478
vt 0.852046 0.216489
vt 0.939512 0.215817
vt 0.937302 0.046560
vt 0.849836 0.047231
vt 0.854473 0.402359
vt 0.941939 0.401687
vt 0.943795 0.543806
vt 0.856328 0.544478
vt 0.852046 0.216489
vt 0.939512 0.215817
vt 0.937302 0.046560
vt 0.849836 0.047231
vt 0.854473 0.402359
vt 0.941939 0.401687
vt 0.943795 0.543806
vt 0.856328 0.544478
vt 0.852046 0.216489
vt 0.939512 0.215817
vt 0.937302 0.046560
vt 0.849836 0.047231
vt 0.854473 0.402359
vt 0.941939 0.401687
vt 0.943795 0.543806
vt 0.856328 0.544478
vt 0.852046 0.216489
vt 0.939512 0.215817
vt 0.937302 0.046560
vt 0.849836 0.047231
vt 0.854473 0.402359
vt 0.941939 0.401687
vt 0.943795 0.543806
vt 0.856328 0.544478
vt 0.852046 0.216489
vt 0.939512 0.215817
vt 0.937302 0.046560
vt 0.849836 0.047231
vt 0.854473 0.402359
vt 0.941939 0.401687
vt 0.943795 0.543806
vt 0.856328 0.544478
vt 0.852046 0.216489
vt 0.939512 0.215817
vt 0.937302 0.046560
vt 0.849836 0.047231
vn -0.371756 -0.138233 0.917981
vn -0.371756 -0.138233 0.917981
vn -0.381507 -0.056284 0.922651
vn -0.381507 -0.056284 0.922651
vn -0.342780 -0.308194 0.887422
vn -0.342780 -0.308194 0.887422
vn -0.316449 -0.420808 0.850165
vn -0.316449 -0.420808 0.850165
vn -0.455990 -0.013867 -0.889877
vn -0.455990 -0.013867 -0.889877
vn -0.454954 0.068761 -0.887856
vn -0.454954 0.068761 -0.887856
vn -0.447896 -0.188067 -0.874082
vn -0.447896 -0.188067 -0.874082
vn -0.434188 -0.305794 -0.847332
vn -0.434188 -0.305794 -0.847332
vn -0.998579 -0.053296 0.000000
vn -0.998579 -0.053296 0.000000
vn -0.999569 0.029357 0.000000
vn -0.999569 0.029357 0.000000
vn -0.973974 -0.226660 0.000000
vn -0.973974 -0.226660 0.000000
vn -0.939295 -0.343110 0.000000
vn -0.939295 -0.343110 0.000000
vn -0.979690 0.200517 0.000000
vn -0.979690 0.200517 0.000000
vn -0.969374 0.245590 0.000000
vn -0.969374 0.245590 0.000000
vn -0.994330 0.106335 0.000000
vn -0.994330 0.106335 0.000000
vn -0.999169 0.040771 0.000000
vn -0.999169 0.040771 0.000000
vn 0.717541 -0.069354 -0.693054
vn 0.717541 -0.069354 -0.693054
vn 0.718353 0.013263 -0.695552
vn 0.718353 0.013263 -0.695552
vn 0.699651 -0.242280 -0.672152
vn 0.699651 -0.242280 -0.672152
vn 0.674590 -0.358144 -0.645493
vn 0.674590 -0.358144 -0.645493
vn 0.833356 -0.067813 0.548561
vn 0.833356 -0.067813 0.548561
vn 0.836796 0.014765 0.547316
vn 0.836796 0.014765 0.547316
vn 0.807302 -0.240691 0.538824
vn 0.807302 -0.240691 0.538824
vn 0.774621 -0.356551 0.522334
vn 0.774621 -0.356551 0.522334
vn -0.687494 0.200517 -0.697958
vn -0.680254 0.245591 -0.690609
vn -0.680254 0.245591 -0.690609
vn -0.687494 0.200517 -0.697958
vn -0.697768 0.106335 -0.708387
vn -0.697768 0.106335 -0.708387
vn -0.701163 0.040771 -0.711834
vn -0.701163 0.040771 -0.711834
vn -0.557664 0.200517 0.805483
vn -0.557664 0.200517 0.805483
vn -0.551792 0.245591 0.797001
vn -0.551792 0.245591 0.797001
vn -0.565998 0.106335 0.817520
vn -0.565998 0.106335 0.817520
vn -0.568752 0.040771 0.821498
vn -0.568752 0.040771 0.821498
s 1
g pPlane80
usemtl lambert6SG
f 5/5/1 6/6/2 2/2/3 4/4/4
f 7/7/5 8/8/6 6/6/2 5/5/1
f 1/1/7 8/8/6 7/7/5 3/3/8
s 2
f 13/9/9 14/10/10 10/11/11 12/12/12
f 15/13/13 16/14/14 14/10/10 13/9/9
f 9/15/15 16/14/14 15/13/13 11/16/16
s 3
f 21/17/17 22/18/18 18/19/19 20/20/20
f 23/21/21 24/22/22 22/18/18 21/17/17
f 17/23/23 24/22/22 23/21/21 19/24/24
s 4
f 29/25/25 30/26/26 26/27/27 28/28/28
f 31/29/29 32/30/30 30/26/26 29/25/25
f 25/31/31 32/30/30 31/29/29 27/32/32
s 5
f 37/33/33 38/34/34 34/35/35 36/36/36
f 39/37/37 40/38/38 38/34/34 37/33/33
f 33/39/39 40/38/38 39/37/37 35/40/40
s 6
f 45/41/41 46/42/42 42/43/43 44/44/44
f 47/45/45 48/46/46 46/42/42 45/41/41
f 41/47/47 48/46/46 47/45/45 43/48/48
s 7
f 53/49/49 52/52/50 50/51/51 54/50/52
f 55/53/53 53/49/49 54/50/52 56/54/54
f 49/55/55 51/56/56 55/53/53 56/54/54
s 8
f 61/57/57 62/58/58 58/59/59 60/60/60
f 63/61/61 64/62/62 62/58/58 61/57/57
f 57/63/63 64/62/62 63/61/61 59/64/64
