# This file uses centimeters as units for non-parametric coordinates.

mtllib M_SeaMushroomFlat.mtl
g default
v -2.855177 0.892812 0.830845
v -2.213387 0.892812 2.102544
v -0.903115 0.892812 3.086991
v -0.090283 0.892812 2.937946
v 0.691484 0.892812 2.374887
v 1.377612 0.892812 2.013647
v 2.739810 0.892812 1.615775
v 3.239184 0.892812 0.758093
v 3.046029 0.892812 -0.487191
v 2.008045 0.824693 -1.068574
v 2.008794 0.892812 -2.150933
v 0.655460 0.892812 -3.026372
v -0.707035 0.892812 -2.735933
v -1.245998 0.892812 -2.777559
v -2.664550 0.892812 -1.034560
v -2.526029 0.892812 -0.260960
v -2.855177 1.189006 0.830845
v -2.213387 1.189006 2.102544
v -0.903115 1.189006 3.086991
v -0.090283 1.189006 2.937946
v 0.691484 1.189006 2.374887
v 1.377612 1.189006 2.013647
v 2.739810 1.189006 1.615775
v 3.239184 1.189006 0.758093
v 3.046029 1.189006 -0.487191
v 2.008045 1.120888 -1.068574
v 2.008794 1.189006 -2.150933
v 0.655460 1.189006 -3.026372
v -0.707035 1.189006 -2.735933
v -1.245998 1.189006 -2.777559
v -2.664550 1.189006 -1.034560
v -2.526029 1.189006 -0.260960
v 0.000000 0.691503 -0.000000
v -3.032030 1.020915 0.883573
v -2.356599 1.020915 2.218937
v -0.990884 1.020915 3.249329
v -0.109247 1.020915 3.121516
v 0.744212 1.020915 2.551741
v 1.494005 1.020915 2.156860
v 2.902149 1.020915 1.703545
v 3.422754 1.020915 0.777057
v 3.222881 1.020915 -0.539920
v 2.205203 0.952797 -1.088873
v 2.150508 1.020915 -2.217176
v 0.674425 1.020915 -3.209942
v -0.759763 1.020915 -2.912785
v -1.362391 1.020915 -2.920772
v -2.826889 1.020915 -1.122330
v -2.709599 1.020915 -0.279924
v -0.502444 -0.061701 0.134143
v -0.407191 -0.061701 0.314410
v -0.250205 -0.061701 0.444504
v -0.055383 -0.061701 0.504617
v 0.147613 -0.061701 0.485602
v 0.327880 -0.061701 0.390350
v 0.457974 -0.061701 0.233363
v 0.518087 -0.061701 0.038541
v 0.499073 -0.061701 -0.164455
v 0.403820 -0.061701 -0.344722
v 0.246833 -0.061701 -0.474816
v 0.052011 -0.061701 -0.534930
v -0.150985 -0.061701 -0.515914
v -0.331252 -0.061701 -0.420661
v -0.461346 -0.061701 -0.263675
v -0.521459 -0.061701 -0.068853
v -2.422589 0.964913 0.634266
v -2.380984 0.964913 -0.256948
v -2.046995 0.964913 -1.117958
v -1.644923 0.964913 -1.835600
v -0.424159 0.964913 -2.618254
v 0.705381 0.964913 -2.619898
v 1.107647 0.964913 -2.058504
v 1.499223 0.896794 -1.117780
v 2.289869 0.964913 -0.726973
v 2.315976 0.964913 0.228288
v 2.048193 0.964913 1.096138
v 1.132031 0.964913 1.760670
v 0.637130 0.873741 2.152419
v -0.238600 0.964913 2.304467
v -1.106449 0.964913 2.036682
v -1.805760 0.964913 1.457170
v -1.251633 0.565543 0.325411
v -1.227107 0.565543 -0.147479
v -1.084943 0.565543 -0.608217
v -0.841335 0.565543 -0.986095
v -0.264216 0.565543 -1.340717
v 0.297175 0.565543 -1.355702
v 0.589844 0.565543 -1.107549
v 0.961105 0.565543 -0.799887
v 1.186369 0.565543 -0.373571
v 1.231341 0.565543 0.106500
v 1.089176 0.565543 0.567237
v 0.659989 0.565543 0.925944
v 0.355197 0.565543 1.163763
v -0.124873 0.565543 1.208734
v -0.585610 0.565543 1.066569
v -0.956872 0.565543 0.758907
v -1.178686 0.938052 1.135654
v -0.439483 0.924554 1.532986
v -0.043492 0.942159 1.620307
v 0.440983 0.968232 1.504307
v 0.946131 0.985394 1.384519
v 1.408740 0.930579 0.837572
v 1.889785 0.961559 0.302056
v 2.181639 1.055252 -0.569167
v 1.200450 0.969910 -0.849648
v 0.621000 0.898811 -1.127224
v 0.261821 0.891452 -1.170938
v -0.320104 0.914247 -1.251511
v -0.933991 0.924841 -1.050689
v -1.564456 0.951729 -0.550104
v -1.809031 0.953428 -0.177196
v -1.493250 0.940052 0.507336
v 0.977866 0.942599 -0.956273
v 1.837376 1.147054 -1.354130
v 2.013237 0.978963 -1.392078
v 1.837376 0.850860 -1.354130
v 1.348807 0.922961 -1.479141
v 0.818492 0.565543 -0.918069
v 0.343516 -0.061701 -0.394695
v -1.690174 0.952603 -0.358420
v -2.562436 1.189006 -0.633716
v -2.735688 1.020915 -0.686118
v -2.562436 0.892812 -0.633716
v -2.184643 0.964913 -0.671860
v -1.158019 0.565543 -0.371386
v -0.492246 -0.061701 -0.163531
v -1.219332 0.937011 -0.824130
v -1.959162 1.189006 -2.117589
v -2.096350 1.020915 -2.235709
v -1.959162 0.892812 -2.117589
v -1.826896 0.964913 -1.510804
v -0.951589 0.565543 -0.815072
v -0.390131 -0.061702 -0.349611
v 0.489607 0.896119 -1.143215
v 1.621359 1.189006 -2.612066
v 1.718170 1.020915 -2.721229
v 1.621359 0.892812 -2.612066
v 0.960492 0.964913 -2.263871
v 0.482781 0.565543 -1.198327
v 0.175564 -0.061701 -0.496807
v 1.659390 1.009828 -0.718456
v 2.598800 1.152749 -0.892115
v 2.786460 0.984658 -0.927583
v 2.598800 0.856555 -0.892115
v 1.841628 0.928656 -0.911131
v 1.066470 0.565543 -0.600482
v 0.448373 -0.061701 -0.260404
v -1.562466 0.942984 0.357293
v -2.844513 1.189006 0.585179
v -3.022838 1.020915 0.622193
v -2.844513 0.892812 0.585179
v -2.413470 0.964913 0.438920
v -1.246257 0.565543 0.221758
v -0.506612 -0.061701 0.089648
vt 0.406111 0.595644
vt 0.417954 0.581829
vt 0.395826 0.574112
vt 0.391050 0.581136
vt 0.392054 0.604876
vt 0.383903 0.585830
vt 0.375472 0.608117
vt 0.375472 0.587478
vt 0.358890 0.604876
vt 0.367041 0.585830
vt 0.349116 0.595644
vt 0.359893 0.581136
vt 0.335440 0.581829
vt 0.355117 0.574112
vt 0.332141 0.565532
vt 0.353440 0.565826
vt 0.360439 0.742802
vt 0.335340 0.777796
vt 0.331652 0.774168
vt 0.355621 0.740839
vt 0.293961 0.802385
vt 0.291965 0.797646
vt 0.269551 0.796332
vt 0.269551 0.791203
vt 0.247217 0.778140
vt 0.249212 0.773401
vt 0.227289 0.765080
vt 0.230976 0.761453
vt 0.189025 0.748523
vt 0.193843 0.746560
vt 0.177083 0.721419
vt 0.182297 0.721419
vt 0.183998 0.682661
vt 0.188816 0.684624
vt 0.216723 0.673304
vt 0.222206 0.674428
vt 0.227832 0.667020
vt 0.223000 0.665468
vt 0.221537 0.642262
vt 0.225328 0.644499
vt 0.265909 0.619029
vt 0.265909 0.624158
vt 0.305358 0.631342
vt 0.303362 0.636081
vt 0.322319 0.632842
vt 0.318632 0.636470
vt 0.359580 0.686753
vt 0.354762 0.688716
vt 0.350637 0.709710
vt 0.345422 0.709710
vt 0.316043 0.728004
vt 0.305377 0.744478
vt 0.275545 0.709710
vt 0.283446 0.753353
vt 0.272062 0.754636
vt 0.258781 0.750045
vt 0.244931 0.745290
vt 0.233516 0.728845
vt 0.221550 0.712664
vt 0.215877 0.687741
vt 0.244270 0.682788
vt 0.250836 0.680476
vt 0.261363 0.676768
vt 0.271586 0.676586
vt 0.288176 0.676020
vt 0.304848 0.683326
vt 0.321115 0.698969
vt 0.326907 0.709978
vt 0.365192 0.744903
vt 0.338246 0.782372
vt 0.293631 0.808764
vt 0.268433 0.801521
vt 0.245569 0.781509
vt 0.225068 0.768077
vt 0.183324 0.751335
vt 0.170344 0.723072
vt 0.177672 0.681708
vt 0.214123 0.670245
vt 0.219972 0.661917
vt 0.217701 0.636599
vt 0.264339 0.613733
vt 0.306443 0.627137
vt 0.323609 0.627573
vt 0.364226 0.686307
vt 0.335440 0.549236
vt 0.355117 0.557540
vt 0.344833 0.535420
vt 0.359893 0.550515
vt 0.358890 0.526189
vt 0.350232 0.531874
vt 0.362639 0.548712
vt 0.367041 0.545821
vt 0.369992 0.518719
vt 0.375472 0.544173
vt 0.389518 0.521221
vt 0.383903 0.545821
vt 0.408369 0.535420
vt 0.391050 0.550515
vt 0.415504 0.549236
vt 0.395826 0.557540
vt 0.418802 0.565532
vt 0.397503 0.565826
vt 0.460184 0.598725
vt 0.449394 0.565826
vt 0.445069 0.565505
vt 0.445558 0.591675
vt 0.459274 0.543637
vt 0.439773 0.539335
vt 0.421053 0.488419
vt 0.430022 0.517150
vt 0.404900 0.488008
vt 0.396127 0.490593
vt 0.365278 0.475407
vt 0.362545 0.487135
vt 0.322348 0.496904
vt 0.348860 0.502326
vt 0.324998 0.520707
vt 0.339909 0.518529
vt 0.319046 0.528537
vt 0.283723 0.539313
vt 0.311202 0.539336
vt 0.334327 0.528635
vt 0.276827 0.578201
vt 0.305906 0.565505
vt 0.289041 0.604772
vt 0.311202 0.591675
vt 0.328323 0.620512
vt 0.336403 0.613860
vt 0.347615 0.633140
vt 0.349915 0.626803
vt 0.369131 0.651954
vt 0.375488 0.633890
vt 0.353726 0.709909
vt 0.392843 0.658764
vt 0.402115 0.628684
vt 0.434827 0.633951
vt 0.424689 0.613860
vt 0.324092 0.704628
vt 0.349961 0.699507
vt 0.354983 0.698553
vt 0.358829 0.698439
vt 0.454196 0.555043
vt 0.442495 0.552787
vt 0.417199 0.557613
vt 0.396688 0.561799
vt 0.312210 0.690406
vt 0.334984 0.660116
vt 0.339183 0.657242
vt 0.341992 0.654156
vt 0.438352 0.513410
vt 0.434435 0.527191
vt 0.411598 0.541673
vt 0.393212 0.553694
vt 0.265103 0.676702
vt 0.240173 0.637058
vt 0.237769 0.633763
vt 0.234762 0.628235
vt 0.338053 0.489040
vt 0.353866 0.496769
vt 0.362951 0.523457
vt 0.370125 0.545219
vt 0.230989 0.685105
vt 0.206588 0.679197
vt 0.201416 0.677680
vt 0.197073 0.675607
vt 0.302524 0.533577
vt 0.323511 0.533640
vt 0.340439 0.541882
vt 0.357659 0.553801
vt 0.318424 0.724053
vt 0.353386 0.734016
vt 0.358290 0.735549
vt 0.362679 0.737233
vt 0.457819 0.591514
vt 0.445451 0.585939
vt 0.418140 0.578257
vt 0.396194 0.572296
vn -0.921140 0.007204 0.389164
vn -0.757826 0.008527 0.652401
vn -0.019856 0.999718 0.013006
vn -0.023744 0.999693 0.007050
vn -0.416403 0.012279 0.909097
vn -0.008011 0.998928 0.045593
vn 0.336325 0.008965 0.941703
vn 0.039247 0.998943 0.023917
vn 0.529861 -0.001765 0.848082
vn -0.008580 0.999693 -0.023234
vn 0.346573 -0.003895 0.938015
vn -0.015724 0.999258 -0.035158
vn 0.641598 0.017149 0.766850
vn 0.008190 0.996913 0.078084
vn 0.991738 0.012963 0.127622
vn 0.051134 0.998684 0.004065
vn 0.945405 0.020216 -0.325270
vn 0.030642 0.998769 -0.039007
vn 0.033966 0.968177 -0.247949
vn 0.568217 -0.007224 -0.822847
vn 0.423893 -0.025001 -0.905367
vn -0.001346 0.999705 0.024265
vn -0.040597 0.997442 0.058831
vn 0.999608 -0.013066 -0.024773
vn 0.972039 0.037555 -0.231799
vn 0.120867 0.991889 0.039334
vn 0.028800 0.999149 -0.029544
vn 0.557403 0.008530 -0.830198
vn 0.062952 0.012074 -0.997943
vn 0.002050 0.999256 -0.038525
vn -0.125773 -0.000475 -0.992059
vn 0.011743 0.999003 0.043081
vn -0.505410 0.011054 -0.862809
vn -0.003609 0.999669 -0.025472
vn -0.022511 0.999679 -0.011603
vn -0.775089 0.004237 -0.631838
vn -0.905553 0.008139 -0.424155
vn -0.059944 0.998190 0.004782
vn 0.019059 0.998975 0.041070
vn -0.985318 -0.001655 0.170720
vn -0.974980 -0.005883 -0.222215
vn 0.061358 0.998039 -0.012358
vn -0.055303 0.996360 -0.064878
vn -0.966938 0.014120 -0.254621
vn 0.158780 0.984792 -0.070519
vn 0.124799 0.985903 -0.111447
vn -0.009537 0.999812 -0.016892
vn 0.060753 0.986972 -0.148983
vn -0.066867 0.981553 -0.179114
vn -0.103033 0.976563 -0.188968
vn -0.085054 0.975634 -0.202247
vn -0.109410 0.984746 -0.135295
vn -0.151448 0.988392 -0.011985
vn -0.158622 0.985546 0.059482
vn -0.126031 0.979455 0.157431
vn -0.140122 0.979627 0.143865
vn -0.181714 0.981457 0.061008
vn -0.138417 0.985890 0.094132
vn -0.067244 0.987363 0.143498
vn -0.004507 0.986779 0.162012
vn 0.033257 0.985700 0.165194
vn 0.088132 0.986506 0.137980
vn 0.138329 0.983781 0.114198
vn 0.160260 0.982610 0.093777
vn 0.203046 0.978145 0.044785
vn 0.219666 0.975455 0.015306
vn 0.188099 0.982008 -0.016734
vn -0.123101 -0.991479 0.042602
vn -0.105912 -0.990626 0.086270
vn -0.050535 -0.988722 0.140977
vn 0.073508 -0.989481 0.124597
vn 0.081336 -0.984773 0.153643
vn 0.033901 -0.995943 0.083354
vn 0.062077 -0.988709 0.136383
vn 0.114948 -0.993261 0.014810
vn 0.085683 -0.995464 -0.041339
vn 0.062940 -0.993932 -0.090210
vn 0.037059 -0.994763 0.095250
vn 0.036370 -0.998039 -0.050940
vn 0.174949 -0.982791 -0.059284
vn 0.102052 -0.978497 -0.179246
vn 0.013305 -0.974831 -0.222547
vn 0.011424 -0.996936 -0.077384
vn -0.045985 -0.991700 -0.120066
vn -0.159915 -0.978468 -0.130490
vn -0.211762 -0.974275 -0.077106
vn -0.079977 -0.995761 0.045420
vn -0.081266 -0.996522 -0.018431
vn -0.247186 -0.964591 -0.092001
vn -0.315360 -0.905072 0.285293
vn -0.347882 -0.917526 0.192677
vn -0.575520 -0.762442 0.295733
vn -0.496701 -0.751677 0.433902
vn -0.202359 -0.905020 0.374153
vn -0.315757 -0.747912 0.583888
vn -0.063436 -0.907109 0.416087
vn -0.068430 -0.748286 0.659838
vn 0.144209 -0.911936 0.384157
vn 0.214641 -0.743671 0.633154
vn 0.308761 -0.879613 0.361866
vn 0.439728 -0.719893 0.537023
vn 0.346338 -0.904692 0.248159
vn 0.560764 -0.742955 0.365461
vn 0.419983 -0.906259 0.048046
vn 0.655176 -0.752397 0.068140
vn 0.411649 -0.904966 -0.107618
vn 0.641384 -0.752558 -0.149277
vn 0.406204 -0.854120 -0.324773
vn 0.412394 -0.858818 -0.303912
vn 0.587530 -0.747281 -0.310450
vn 0.518080 -0.753719 -0.404353
vn 0.335067 -0.881444 -0.332847
vn 0.364583 -0.866041 -0.342130
vn 0.423777 -0.747599 -0.511380
vn 0.397838 -0.753045 -0.524069
vn 0.071250 -0.934680 -0.348276
vn 0.293813 -0.894887 -0.335933
vn 0.336819 -0.776431 -0.532643
vn 0.075371 -0.802103 -0.592410
vn -0.117703 -0.929155 -0.350454
vn -0.196083 -0.789679 -0.581343
vn -0.240828 -0.918587 -0.313368
vn -0.377856 -0.772870 -0.509800
vn -0.392306 -0.901945 -0.180531
vn -0.369195 -0.899150 -0.235001
vn -0.536234 -0.756362 -0.374659
vn -0.591824 -0.752285 -0.289502
vn -0.413838 -0.907871 -0.067136
vn -0.421798 -0.895454 -0.142296
vn -0.638962 -0.743544 -0.197156
vn -0.652130 -0.754006 -0.078743
vn -0.414114 -0.910127 -0.013343
vn -0.653407 -0.756988 -0.005328
vn -0.158896 -0.987288 0.003728
vn -0.077779 -0.995715 0.050016
vn -0.190413 -0.978238 -0.082428
vn -0.174199 -0.984370 -0.025894
vn -0.082120 -0.995711 -0.042605
vn -0.098931 -0.994244 -0.041120
vn -0.047925 -0.989524 -0.136184
vn -0.097577 -0.986189 -0.133830
vn 0.011858 -0.996298 -0.085151
vn 0.094524 -0.993381 -0.065271
vn 0.098811 -0.984131 -0.147387
vn 0.060780 -0.993956 -0.091418
vn 0.178435 -0.979667 -0.091722
vn 0.205180 -0.961054 -0.185142
vn 0.100492 -0.994842 0.013848
vn 0.091969 -0.995120 0.035761
vn 0.082205 -0.995666 0.043489
vn 0.147585 -0.980256 0.131593
vn 0.045893 -0.985525 0.163200
vn -0.040647 -0.990656 0.130186
vn -0.042011 -0.995753 0.081924
vn -0.078925 -0.994043 0.075168
s 1
g pCylinder70
usemtl lambert5SG
f 34/17/1 35/18/2 18/19/3 17/20/4
f 35/18/2 36/21/5 19/22/6 18/19/3
f 36/21/5 37/23/7 20/24/8 19/22/6
f 37/23/7 38/25/9 21/26/10 20/24/8
f 38/25/9 39/27/11 22/28/12 21/26/10
f 39/27/11 40/29/13 23/30/14 22/28/12
f 40/29/13 41/31/15 24/32/16 23/30/14
f 41/31/15 42/33/17 25/34/18 24/32/16
f 143/163/19 144/164/20 43/35/21 26/36/22
f 115/37/23 116/38/24 44/39/25 27/40/26
f 136/155/27 137/156/28 45/41/29 28/42/30
f 45/41/29 46/43/31 29/44/32 28/42/30
f 46/43/31 47/45/33 30/46/34 29/44/32
f 129/147/35 130/148/36 48/47/37 31/48/38
f 122/139/39 123/140/40 49/49/41 32/50/42
f 150/171/43 151/172/44 34/17/1 17/20/4
f 113/51/45 98/52/46 33/53/47
f 98/52/46 99/54/48 33/53/47
f 99/54/48 100/55/49 33/53/47
f 100/55/49 101/56/50 33/53/47
f 101/56/50 102/57/51 33/53/47
f 102/57/51 103/58/52 33/53/47
f 103/58/52 104/59/53 33/53/47
f 104/59/53 105/60/54 33/53/47
f 105/60/54 142/162/55 33/53/47
f 106/61/56 114/62/57 33/53/47
f 107/63/58 135/154/59 33/53/47
f 108/64/60 109/65/61 33/53/47
f 109/65/61 110/66/62 33/53/47
f 110/66/62 128/146/63 33/53/47
f 111/67/64 121/138/65 33/53/47
f 112/68/66 149/170/67 33/53/47
f 1/69/68 2/70/69 35/18/2 34/17/1
f 2/70/69 3/71/70 36/21/5 35/18/2
f 3/71/70 4/72/71 37/23/7 36/21/5
f 4/72/71 5/73/72 38/25/9 37/23/7
f 5/73/72 6/74/73 39/27/11 38/25/9
f 6/74/73 7/75/74 40/29/13 39/27/11
f 7/75/74 8/76/75 41/31/15 40/29/13
f 8/76/75 9/77/76 42/33/17 41/31/15
f 144/164/20 145/165/77 10/78/78 43/35/21
f 116/38/24 117/79/79 11/80/80 44/39/25
f 137/156/28 138/157/81 12/81/82 45/41/29
f 12/81/82 13/82/83 46/43/31 45/41/29
f 13/82/83 14/83/84 47/45/33 46/43/31
f 130/148/36 131/149/85 15/84/86 48/47/37
f 123/140/40 124/141/87 16/133/88 49/49/41
f 151/172/44 152/173/89 1/69/68 34/17/1
f 97/1/90 82/2/91 50/3/92 51/4/93
f 96/5/94 97/1/90 51/4/93 52/6/95
f 95/7/96 96/5/94 52/6/95 53/8/97
f 94/9/98 95/7/96 53/8/97 54/10/99
f 93/11/100 94/9/98 54/10/99 55/12/101
f 92/13/102 93/11/100 55/12/101 56/14/103
f 91/15/104 92/13/102 56/14/103 57/16/105
f 90/85/106 91/15/104 57/16/105 58/86/107
f 89/87/108 147/168/109 148/169/110 59/88/111
f 88/89/112 119/90/113 120/91/114 60/92/115
f 87/93/116 140/160/117 141/161/118 61/94/119
f 86/95/120 87/93/116 61/94/119 62/96/121
f 85/97/122 86/95/120 62/96/121 63/98/123
f 84/99/124 133/152/125 134/153/126 64/100/127
f 83/101/128 126/144/129 127/145/130 65/102/131
f 82/2/91 154/176/132 155/177/133 50/3/92
f 1/103/68 152/174/89 153/175/134 66/106/135
f 16/104/88 124/142/87 125/143/136 67/105/137
f 15/107/86 131/150/85 132/151/138 68/108/139
f 14/109/84 13/111/83 70/112/140 69/110/141
f 13/111/83 12/113/82 71/114/142 70/112/140
f 12/113/82 138/158/81 139/159/143 71/114/142
f 11/115/80 117/117/79 118/118/144 72/116/145
f 10/119/78 145/166/77 146/167/146 73/122/147
f 9/120/76 8/123/75 75/124/148 74/121/149
f 8/123/75 7/125/74 76/126/150 75/124/148
f 7/125/74 6/127/73 77/128/151 76/126/150
f 6/127/73 5/129/72 78/130/152 77/128/151
f 5/129/72 4/131/71 79/132/153 78/130/152
f 4/131/71 3/134/70 80/135/154 79/132/153
f 3/134/70 2/136/69 81/137/155 80/135/154
f 2/136/69 1/103/68 66/106/135 81/137/155
f 66/106/135 153/175/134 154/176/132 82/2/91
f 67/105/137 125/143/136 126/144/129 83/101/128
f 68/108/139 132/151/138 133/152/125 84/99/124
f 69/110/141 70/112/140 86/95/120 85/97/122
f 70/112/140 71/114/142 87/93/116 86/95/120
f 71/114/142 139/159/143 140/160/117 87/93/116
f 72/116/145 118/118/144 119/90/113 88/89/112
f 73/122/147 146/167/146 147/168/109 89/87/108
f 74/121/149 75/124/148 91/15/104 90/85/106
f 75/124/148 76/126/150 92/13/102 91/15/104
f 76/126/150 77/128/151 93/11/100 92/13/102
f 77/128/151 78/130/152 94/9/98 93/11/100
f 78/130/152 79/132/153 95/7/96 94/9/98
f 79/132/153 80/135/154 96/5/94 95/7/96
f 80/135/154 81/137/155 97/1/90 96/5/94
f 81/137/155 66/106/135 82/2/91 97/1/90
f 18/19/3 19/22/6 99/54/48 98/52/46
f 19/22/6 20/24/8 100/55/49 99/54/48
f 20/24/8 21/26/10 101/56/50 100/55/49
f 21/26/10 22/28/12 102/57/51 101/56/50
f 22/28/12 23/30/14 103/58/52 102/57/51
f 23/30/14 24/32/16 104/59/53 103/58/52
f 24/32/16 25/34/18 105/60/54 104/59/53
f 142/162/55 143/163/19 26/36/22 106/61/56
f 114/62/57 115/37/23 27/40/26 107/63/58
f 135/154/59 136/155/27 28/42/30 108/64/60
f 28/42/30 29/44/32 109/65/61 108/64/60
f 29/44/32 30/46/34 110/66/62 109/65/61
f 128/146/63 129/147/35 31/48/38 111/67/64
f 121/138/65 122/139/39 32/50/42 112/68/66
f 149/170/67 150/171/43 17/20/4 113/51/45
f 17/20/4 18/19/3 98/52/46 113/51/45
f 26/36/22 115/37/23 114/62/57 106/61/56
f 43/35/21 116/38/24 115/37/23 26/36/22
f 10/78/78 117/79/79 116/38/24 43/35/21
f 118/118/144 117/117/79 10/119/78 73/122/147
f 119/90/113 118/118/144 73/122/147 89/87/108
f 120/91/114 119/90/113 89/87/108 59/88/111
f 33/53/47 114/62/57 107/63/58
f 31/48/38 122/139/39 121/138/65 111/67/64
f 48/47/37 123/140/40 122/139/39 31/48/38
f 15/84/86 124/141/87 123/140/40 48/47/37
f 125/143/136 124/142/87 15/107/86 68/108/139
f 126/144/129 125/143/136 68/108/139 84/99/124
f 127/145/130 126/144/129 84/99/124 64/100/127
f 33/53/47 121/138/65 112/68/66
f 30/46/34 129/147/35 128/146/63 110/66/62
f 47/45/33 130/148/36 129/147/35 30/46/34
f 14/83/84 131/149/85 130/148/36 47/45/33
f 132/151/138 131/150/85 14/109/84 69/110/141
f 133/152/125 132/151/138 69/110/141 85/97/122
f 134/153/126 133/152/125 85/97/122 63/98/123
f 33/53/47 128/146/63 111/67/64
f 27/40/26 136/155/27 135/154/59 107/63/58
f 44/39/25 137/156/28 136/155/27 27/40/26
f 11/80/80 138/157/81 137/156/28 44/39/25
f 139/159/143 138/158/81 11/115/80 72/116/145
f 140/160/117 139/159/143 72/116/145 88/89/112
f 141/161/118 140/160/117 88/89/112 60/92/115
f 33/53/47 135/154/59 108/64/60
f 25/34/18 143/163/19 142/162/55 105/60/54
f 42/33/17 144/164/20 143/163/19 25/34/18
f 9/77/76 145/165/77 144/164/20 42/33/17
f 146/167/146 145/166/77 9/120/76 74/121/149
f 147/168/109 146/167/146 74/121/149 90/85/106
f 148/169/110 147/168/109 90/85/106 58/86/107
f 33/53/47 142/162/55 106/61/56
f 32/50/42 150/171/43 149/170/67 112/68/66
f 49/49/41 151/172/44 150/171/43 32/50/42
f 16/133/88 152/173/89 151/172/44 49/49/41
f 153/175/134 152/174/89 16/104/88 67/105/137
f 154/176/132 153/175/134 67/105/137 83/101/128
f 155/177/133 154/176/132 83/101/128 65/102/131
f 33/53/47 149/170/67 113/51/45
