# This file uses centimeters as units for non-parametric coordinates.

mtllib M_SeaPlant.mtl
g default
v -0.492086 0.109904 0.431053
v 0.229829 -0.035848 -0.337050
v -1.541498 1.525177 -0.823812
v -0.819584 1.379425 -1.591915
v -0.959871 1.034734 -0.184095
v -0.235467 0.901784 -0.952287
v -0.024836 0.073905 0.105413
v -0.490131 1.011537 -0.509824
v -1.074248 1.489178 -1.149452
v 0.294634 0.146113 0.467903
v -0.396516 -0.099581 -0.072343
v -0.899982 0.957065 1.627401
v -1.591133 0.711371 1.087154
v -0.346605 0.736899 1.019579
v -1.040899 0.501887 0.478495
v -0.024835 0.073905 0.105412
v -0.669217 0.675373 0.656250
v -1.219452 0.884857 1.264909
v 0.596650 0.166834 0.126260
v -0.519419 -0.149366 0.296545
v 0.627825 1.210504 2.268572
v -0.488244 0.894304 2.438857
v 0.547166 0.927158 1.213771
v -0.572462 0.624705 1.386260
v -0.024836 0.073905 0.105412
v -0.077879 0.847976 1.195128
v 0.006341 1.117575 2.247725
v 0.019046 -0.042604 0.592076
v -0.186850 0.011197 -0.320149
v -1.823822 0.171192 1.020635
v -2.029718 0.224994 0.108411
v -0.972592 0.247436 0.833002
v -1.183471 0.311437 -0.077496
v -0.024835 0.073905 0.105413
v -1.021456 0.374145 0.348066
v -1.867703 0.287702 0.533972
v -0.504901 -0.050233 0.185836
v 0.370896 0.059105 -0.127955
v -1.178383 0.671368 -1.442429
v -0.302585 0.780707 -1.756220
v -0.870350 0.506045 -0.640311
v 0.003459 0.626569 -0.955754
v -0.024836 0.073905 0.105413
v -0.392274 0.641369 -0.722386
v -0.698317 0.795506 -1.522852
v -0.595959 -0.058505 -0.073988
v 0.532170 0.007210 0.099466
v -0.281962 0.467951 -2.315645
v 0.846166 0.533665 -2.142190
v -0.442440 0.437245 -1.260280
v 0.685689 0.516064 -1.091790
v -0.024836 0.073905 0.105413
v 0.128683 0.582760 -1.085843
v 0.289162 0.600361 -2.136244
v -0.307719 0.098185 -0.154454
v 0.303787 -0.000119 0.208200
v 0.364553 1.052734 -1.029291
v 0.976060 0.954430 -0.666637
v 0.028675 0.721948 -0.552598
v 0.640605 0.632279 -0.188318
v -0.024837 0.073905 0.105413
v 0.311980 0.706303 -0.291105
v 0.647435 1.028454 -0.769424
v 0.094336 0.013642 -0.492973
v 0.094336 0.013642 0.650302
v 2.029718 1.300137 -0.492973
v 2.029718 1.300137 0.650302
v 1.040582 0.897523 -0.492973
v 1.040582 0.911536 0.650302
v -0.024836 0.073905 0.105413
v 0.921409 0.971798 0.105413
v 1.910546 1.360399 0.105413
vt 0.725768 0.044172
vt 0.829755 0.041551
vt 0.732152 0.297495
vt 0.836139 0.294875
vt 0.728889 0.168027
vt 0.832876 0.165406
vt 0.780194 0.042800
vt 0.783315 0.166655
vt 0.786578 0.296124
vt 0.728889 0.168027
vt 0.783315 0.166655
vt 0.786578 0.296124
vt 0.732152 0.297495
vt 0.725768 0.044172
vt 0.780194 0.042800
vt 0.829755 0.041551
vt 0.832876 0.165406
vt 0.836139 0.294875
vt 0.728889 0.168027
vt 0.783315 0.166655
vt 0.786578 0.296124
vt 0.732152 0.297495
vt 0.725768 0.044172
vt 0.780194 0.042800
vt 0.829755 0.041551
vt 0.832876 0.165406
vt 0.836139 0.294875
vt 0.728889 0.168027
vt 0.783315 0.166655
vt 0.786578 0.296124
vt 0.732152 0.297495
vt 0.725768 0.044172
vt 0.780194 0.042800
vt 0.829755 0.041551
vt 0.832876 0.165406
vt 0.836139 0.294875
vt 0.728889 0.168027
vt 0.783315 0.166655
vt 0.786578 0.296124
vt 0.732152 0.297495
vt 0.725768 0.044172
vt 0.780194 0.042800
vt 0.829755 0.041551
vt 0.832876 0.165406
vt 0.836139 0.294875
vt 0.728889 0.168027
vt 0.783315 0.166655
vt 0.786578 0.296124
vt 0.732152 0.297495
vt 0.725768 0.044172
vt 0.780194 0.042800
vt 0.829755 0.041551
vt 0.832876 0.165406
vt 0.836139 0.294875
vt 0.728889 0.168027
vt 0.783315 0.166655
vt 0.786578 0.296124
vt 0.732152 0.297495
vt 0.725768 0.044172
vt 0.780194 0.042800
vt 0.829755 0.041551
vt 0.832876 0.165406
vt 0.836139 0.294875
vt 0.728889 0.168027
vt 0.783315 0.166655
vt 0.786578 0.296124
vt 0.732152 0.297495
vt 0.725768 0.044172
vt 0.780194 0.042800
vt 0.829755 0.041551
vt 0.832876 0.165406
vt 0.836139 0.294875
vn 0.400532 0.763373 0.506789
vn 0.554947 0.735603 0.388487
vn 0.435138 0.864129 0.252855
vn 0.314764 0.872601 0.373485
vn 0.466190 0.638261 0.612608
vn 0.623041 0.622555 0.473546
vn 0.763315 0.573692 0.297031
vn 0.673206 0.708494 0.211730
vn 0.552036 0.826155 0.112803
vn 0.232530 0.898913 -0.371330
vn 0.102965 0.852955 -0.511729
vn -0.040767 0.931347 -0.361844
vn 0.090700 0.962015 -0.257490
vn 0.355108 0.811715 -0.463700
vn 0.202302 0.772056 -0.602498
vn 0.024508 0.689336 -0.724027
vn -0.077175 0.789373 -0.609044
vn -0.182881 0.866915 -0.463695
vn -0.110685 0.898912 -0.423917
vn -0.301721 0.852955 -0.425949
vn -0.291254 0.931347 -0.218549
vn -0.125141 0.962015 -0.242626
vn -0.093812 0.811713 -0.576472
vn -0.299626 0.772056 -0.560495
vn -0.510015 0.689337 -0.514490
vn -0.496100 0.789374 -0.361627
vn -0.462850 0.866915 -0.185008
vn 0.152707 0.962026 0.226245
vn 0.136174 0.990153 0.032476
vn -0.080063 0.993371 0.082482
vn -0.038657 0.968467 0.246124
vn 0.323344 0.924768 0.200630
vn 0.285669 0.958322 -0.003434
vn 0.229848 0.946393 -0.226960
vn 0.060485 0.983928 -0.168012
vn -0.122589 0.987523 -0.098845
vn -0.163068 0.880701 0.444719
vn 0.027458 0.912333 0.408526
vn -0.052183 0.976013 0.211368
vn -0.209289 0.940504 0.267676
vn -0.115339 0.797123 0.592699
vn 0.082631 0.839890 0.536430
vn 0.295451 0.844080 0.447479
vn 0.214937 0.927566 0.305653
vn 0.121001 0.982314 0.142891
vn -0.282520 0.943975 0.170567
vn -0.096228 0.968924 0.227872
vn -0.065402 0.997809 0.009961
vn -0.232553 0.972495 -0.013136
vn -0.319169 0.887044 0.333592
vn -0.115780 0.919515 0.375615
vn 0.113066 0.908371 0.402589
vn 0.118144 0.966269 0.228837
vn 0.119185 0.992261 0.034836
vn -0.407610 0.763373 0.501115
vn -0.258571 0.735603 0.626123
vn -0.152224 0.864130 0.479696
vn -0.296136 0.872602 0.388420
vn -0.496627 0.638261 0.588205
vn -0.326794 0.622554 0.711078
vn -0.124009 0.573692 0.809629
vn -0.060334 0.708494 0.703133
vn 0.009889 0.826154 0.563357
vn -0.533233 0.822317 -0.198639
vn -0.564608 0.825346 -0.004688
vn -0.368628 0.929560 -0.005671
vn -0.365585 0.914070 -0.175565
vn -0.669707 0.711321 -0.213341
vn -0.686837 0.726798 -0.004405
vn -0.670703 0.706821 0.224860
vn -0.529790 0.822521 0.206837
vn -0.359694 0.915558 0.179925
s 1
g pPlane80
usemtl lambert6SG
f 5/5/1 8/8/2 9/9/3 3/3/4
f 1/1/5 7/7/6 8/8/2 5/5/1
f 8/8/2 7/7/6 2/2/7 6/6/8
f 9/9/3 8/8/2 6/6/8 4/4/9
s 2
f 14/10/10 17/11/11 18/12/12 12/13/13
f 10/14/14 16/15/15 17/11/11 14/10/10
f 17/11/11 16/15/15 11/16/16 15/17/17
f 18/12/12 17/11/11 15/17/17 13/18/18
s 3
f 23/19/19 26/20/20 27/21/21 21/22/22
f 19/23/23 25/24/24 26/20/20 23/19/19
f 26/20/20 25/24/24 20/25/25 24/26/26
f 27/21/21 26/20/20 24/26/26 22/27/27
s 4
f 32/28/28 35/29/29 36/30/30 30/31/31
f 28/32/32 34/33/33 35/29/29 32/28/28
f 35/29/29 34/33/33 29/34/34 33/35/35
f 36/30/30 35/29/29 33/35/35 31/36/36
s 5
f 41/37/37 44/38/38 45/39/39 39/40/40
f 37/41/41 43/42/42 44/38/38 41/37/37
f 44/38/38 43/42/42 38/43/43 42/44/44
f 45/39/39 44/38/38 42/44/44 40/45/45
s 6
f 50/46/46 53/47/47 54/48/48 48/49/49
f 46/50/50 52/51/51 53/47/47 50/46/46
f 53/47/47 52/51/51 47/52/52 51/53/53
f 54/48/48 53/47/47 51/53/53 49/54/54
s 7
f 59/55/55 62/56/56 63/57/57 57/58/58
f 55/59/59 61/60/60 62/56/56 59/55/55
f 62/56/56 61/60/60 56/61/61 60/62/62
f 63/57/57 62/56/56 60/62/62 58/63/63
s 8
f 68/64/64 71/65/65 72/66/66 66/67/67
f 64/68/68 70/69/69 71/65/65 68/64/64
f 71/65/65 70/69/69 65/70/70 69/71/71
f 72/66/66 71/65/65 69/71/71 67/72/72
