# This file uses centimeters as units for non-parametric coordinates.

mtllib M_SeaweedLongLeaf.mtl
g default
v 0.117623 -0.023203 0.500000
v 0.705647 5.597123 0.500000
v 0.117623 -0.023203 -0.500000
v 0.705647 5.597123 -0.500000
v 0.232289 3.990767 -0.500000
v 0.232289 3.990767 0.500000
v -0.060849 1.889899 -0.500000
v -0.060849 1.889899 0.500000
vt 0.937302 0.046560
vt 0.943795 0.543806
vt 0.849836 0.047231
vt 0.856328 0.544478
vt 0.854473 0.402359
vt 0.941939 0.401687
vt 0.852046 0.216489
vt 0.939512 0.215817
vn -0.979288 0.202475 0.000000
vn -0.979288 0.202475 0.000000
vn -0.959220 0.282661 0.000000
vn -0.959220 0.282661 0.000000
vn -0.999592 0.028555 0.000000
vn -0.999592 0.028555 0.000000
vn -0.995677 -0.092886 0.000000
vn -0.995677 -0.092886 0.000000
s 1
g pPlane80
usemtl lambert6SG
f 5/5/1 6/6/2 2/2/3 4/4/4
f 7/7/5 8/8/6 6/6/2 5/5/1
f 1/1/7 8/8/6 7/7/5 3/3/8
