# This file uses centimeters as units for non-parametric coordinates.

mtllib M_StarfishOrange.mtl
g default
v 0.039060 0.000000 -0.596824
v -0.146236 0.000000 -0.495784
v -0.312723 0.000000 -0.502572
v -0.465753 0.000000 -0.365306
v -0.562607 0.000000 -0.183978
v -0.493068 0.000000 0.016919
v -0.549241 0.000000 0.220701
v -0.440633 0.000000 0.395242
v -0.278879 0.000000 0.522112
v -0.131297 0.000000 0.505352
v 0.059535 0.000000 0.560996
v 0.250284 0.000000 0.484347
v 0.414172 0.000000 0.352492
v 0.535460 0.000000 0.170447
v 0.591602 0.000000 -0.019540
v 0.549241 0.000000 -0.220701
v 0.393428 0.000000 -0.407444
v 0.234451 0.000000 -0.532930
v 0.039060 0.193998 -0.596824
v -0.146236 0.193998 -0.495784
v -0.312723 0.193998 -0.502572
v -0.465753 0.274907 -0.365306
v -0.562607 0.193998 -0.183978
v -0.493068 0.193998 0.016919
v -0.549241 0.193998 0.220701
v -0.440633 0.274907 0.395242
v -0.278879 0.193998 0.522112
v -0.131297 0.193998 0.505352
v 0.059535 0.193998 0.560996
v 0.250284 0.274907 0.484347
v 0.385635 0.193998 0.365585
v 0.535460 0.193998 0.170447
v 0.591602 0.274907 -0.019540
v 0.549241 0.193998 -0.220701
v 0.393428 0.193998 -0.407444
v 0.234451 0.274907 -0.532930
v 0.000000 0.000000 0.000000
v -0.849267 0.000000 -0.770568
v -0.944056 0.000000 -0.740455
v -0.767543 0.169777 -0.612758
v -0.849267 0.088868 -0.770568
v -0.965858 0.000000 -0.642562
v -0.965858 0.088868 -0.642562
v -0.886811 0.000000 0.694325
v -0.893139 0.000000 0.801135
v -0.809165 0.169777 0.714325
v -0.874216 0.098272 0.700603
v -0.787222 0.000000 0.825514
v -0.787222 0.088868 0.825514
v 0.402759 0.021495 1.049686
v 0.513933 0.000000 1.063221
v 0.409307 0.169777 0.908452
v 0.383918 0.124023 1.016432
v 0.553039 0.021495 0.978797
v 0.497946 0.134541 0.923892
v 1.106768 0.000000 0.037805
v 1.199144 0.000000 -0.039607
v 1.079987 0.169777 -0.025358
v 1.106768 0.102622 0.037805
v 1.112303 0.000000 -0.105681
v 1.112303 0.102622 -0.105681
v 0.572261 0.000000 -1.004860
v 0.520844 0.000000 -1.069109
v 0.459602 0.169777 -0.946248
v 0.564303 0.101175 -1.008827
v 0.434454 0.000000 -1.074782
v 0.434454 0.088868 -1.074782
v 0.045135 0.069492 -0.630837
v -0.149516 0.068906 -0.526646
v -0.328933 0.067351 -0.538262
v -0.902209 0.061897 -0.832709
v -1.002155 0.061453 -0.802352
v -1.029431 0.061961 -0.678288
v -0.620549 0.067783 -0.196664
v -0.537538 0.069604 -0.002135
v -0.615511 0.070587 0.202653
v -0.938743 0.071462 0.713556
v -0.921667 0.072135 0.837968
v -0.808989 0.073020 0.865760
v -0.280902 0.074451 0.563021
v -0.120496 0.075833 0.549077
v 0.074836 0.077565 0.627944
v 0.424159 0.086320 1.107443
v 0.553737 0.084000 1.097812
v 0.596281 0.087011 1.009072
v 0.459499 0.078474 0.385581
v 0.583466 0.077919 0.193732
v 1.184837 0.080648 0.061391
v 1.281413 0.080758 -0.019307
v 1.202456 0.079723 -0.119631
v 0.603704 0.075115 -0.251859
v 0.424167 0.073205 -0.423064
v 0.596566 0.070390 -1.058710
v 0.547638 0.069609 -1.124618
v 0.461654 0.068982 -1.129341
v 0.007483 0.343967 0.000602
vt 0.295641 0.276815
vt 0.303351 0.290670
vt 0.325056 0.251399
vt 0.284758 0.270530
vt 0.280572 0.255688
vt 0.281752 0.240329
vt 0.294326 0.230444
vt 0.299008 0.215308
vt 0.313004 0.208663
vt 0.328453 0.207174
vt 0.337177 0.214185
vt 0.351591 0.218367
vt 0.360638 0.230901
vt 0.365735 0.245839
vt 0.366083 0.262229
vt 0.361958 0.276493
vt 0.351105 0.287490
vt 0.333607 0.293001
vt 0.390459 0.149172
vt 0.375789 0.138000
vt 0.379661 0.130234
vt 0.392200 0.139938
vt 0.360781 0.136560
vt 0.367183 0.128737
vt 0.309274 0.153133
vt 0.301422 0.149301
vt 0.335834 0.127946
vt 0.323912 0.142128
vt 0.300877 0.138728
vt 0.316822 0.131253
vt 0.341364 0.104560
vt 0.350919 0.089662
vt 0.360209 0.088119
vt 0.352537 0.102154
vt 0.347294 0.071771
vt 0.358558 0.072361
vt 0.318391 0.294515
vt 0.327598 0.025417
vt 0.234889 0.260092
vt 0.239708 0.265817
vt 0.330728 0.015409
vt 0.345338 0.032703
vt 0.237468 0.253030
vt 0.340325 0.032937
vt 0.300626 0.164777
vt 0.296699 0.171778
vt 0.340437 0.014626
vt 0.348353 0.024737
vt 0.308363 0.167509
vt 0.379960 0.046587
vt 0.400902 0.204971
vt 0.393270 0.201343
vt 0.393042 0.049876
vt 0.393206 0.056313
vt 0.399972 0.211881
vt 0.382428 0.053299
vt 0.399855 0.302263
vt 0.397107 0.293648
vt 0.410296 0.045995
vt 0.408104 0.054486
vt 0.391643 0.302934
vt 0.445824 0.011206
vt 0.314903 0.339931
vt 0.320783 0.337947
vt 0.456415 0.013728
vt 0.438457 0.032970
vt 0.309168 0.336806
vt 0.437908 0.024672
vt 0.458710 0.021598
vt 0.294181 0.278632
vt 0.302359 0.293064
vt 0.282278 0.272130
vt 0.233816 0.267607
vt 0.228678 0.261659
vt 0.231969 0.252722
vt 0.277545 0.238793
vt 0.290720 0.229854
vt 0.294054 0.213775
vt 0.294170 0.168469
vt 0.300301 0.161300
vt 0.308607 0.164089
vt 0.329982 0.204508
vt 0.339637 0.211858
vt 0.355280 0.214755
vt 0.396975 0.198558
vt 0.404841 0.204392
vt 0.403954 0.211713
vt 0.369964 0.245577
vt 0.370085 0.262694
vt 0.403037 0.295307
vt 0.405919 0.304299
vt 0.396822 0.307451
vt 0.353312 0.291654
vt 0.334932 0.295227
vt 0.320149 0.342329
vt 0.314360 0.344518
vt 0.445248 0.032892
vt 0.308690 0.341349
vt 0.438783 0.071073
vt 0.446394 0.088514
vt 0.438683 0.089109
vt 0.429953 0.072867
vt 0.494334 0.107432
vt 0.501212 0.115362
vt 0.476789 0.110143
vt 0.479567 0.105789
vt 0.493293 0.122562
vt 0.478197 0.116476
vt 0.441917 0.125448
vt 0.424695 0.137137
vt 0.420933 0.130177
vt 0.434852 0.118226
vt 0.430187 0.191741
vt 0.425228 0.196510
vt 0.419684 0.175897
vt 0.426185 0.176742
vt 0.418047 0.195751
vt 0.415699 0.180064
vt 0.357495 0.116738
vt 0.368810 0.060747
vt 0.421352 0.062450
vt 0.440503 0.103846
vt 0.407539 0.137556
vt 0.397269 0.095339
vn -0.682891 0.000878 -0.730520
vn -0.248123 0.003171 -0.968723
vn -0.139639 0.830068 -0.539896
vn -0.335869 0.821539 -0.460724
vn 0.337841 0.005052 -0.941190
vn 0.100941 0.831170 -0.546779
vn 0.336703 0.060737 -0.939650
vn -0.620356 0.568105 -0.540754
vn -0.201157 0.966272 -0.160793
vn 0.253145 0.620823 -0.741954
vn -0.849835 0.116448 0.514024
vn -0.630842 0.686985 0.360680
vn -0.828607 0.003889 0.559818
vn -0.999493 0.000207 0.031849
vn -0.532484 0.846342 0.012852
vn -0.488986 0.844839 0.217115
vn -0.887736 0.033052 -0.459164
vn -0.525040 0.820113 -0.227480
vn -0.891260 0.058795 -0.449665
vn -0.722842 0.348432 0.596737
vn -0.179704 0.967057 0.180300
vn -0.640869 0.703077 -0.308173
vn 0.389831 0.037067 0.920140
vn 0.283483 0.643139 0.711344
vn 0.394657 -0.002637 0.918825
vn -0.149476 -0.004436 0.988755
vn -0.068763 0.847734 0.525946
vn 0.151154 0.834402 0.530025
vn -0.686710 -0.001698 0.726930
vn -0.295528 0.855955 0.424269
vn -0.686280 0.171119 0.706922
vn 0.428699 0.470573 0.771219
vn 0.087537 0.975863 0.200071
vn -0.517028 0.672304 0.529801
vn 0.947005 0.304082 -0.103511
vn 0.613549 0.788413 -0.044309
vn 0.986728 0.151603 0.058172
vn 0.458515 0.008482 0.888646
vn 0.289415 0.835525 0.467052
vn 0.494249 0.864113 0.095011
vn 0.309407 0.001103 0.950929
vn 0.938354 0.340193 0.061323
vn 0.247445 0.968870 0.007865
vn 0.238848 0.653601 0.718163
vn 0.329221 0.049431 -0.942958
vn 0.242156 0.681423 -0.690669
vn 0.416866 -0.007951 -0.908933
vn 0.997845 0.020029 -0.062479
vn 0.510004 0.855286 -0.091550
vn 0.269086 0.847889 -0.456811
vn 0.983938 0.072288 0.163217
vn 0.371976 0.419546 -0.828018
vn 0.100000 0.969779 -0.222549
vn 0.817610 0.563842 0.116604
vn -0.684904 0.049298 -0.726964
vn -0.575211 0.538732 -0.615549
vn -0.051054 -0.978699 -0.198850
vn -0.230088 -0.944516 -0.234411
vn -0.000000 -1.000000 -0.000000
vn 0.106508 -0.956366 -0.272067
vn 0.000000 -1.000000 0.000000
vn -0.232855 -0.958392 0.165114
vn -0.192241 -0.981345 0.002430
vn -0.254244 -0.956292 -0.144451
vn 0.000000 -1.000000 0.000000
vn 0.133426 -0.949536 0.283864
vn -0.032404 -0.974228 0.223227
vn -0.188361 -0.961099 0.202010
vn 0.011371 -0.999851 0.013024
vn 0.276591 -0.960963 0.006942
vn 0.126889 -0.952775 0.275898
vn -0.000000 -1.000000 -0.000000
vn 0.110035 -0.957250 -0.267515
vn 0.268783 -0.963201 -0.000010
vn 0.000000 -1.000000 0.000000
vn -0.071478 -0.995568 -0.061116
vn 0.116811 -0.950653 -0.287427
vn -0.121885 0.988061 -0.094227
vn -0.256568 -0.950257 0.176593
vn -0.105307 -0.990810 0.084894
vn -0.262899 -0.954245 -0.142478
vn -0.112809 0.987732 0.107980
vn 0.136143 -0.943646 0.301657
vn 0.027464 -0.997900 0.058671
vn -0.338840 -0.873825 0.348737
vn 0.078603 0.988199 0.131471
vn 0.489336 -0.870380 -0.054680
vn 0.172258 -0.984995 0.010625
vn 0.104181 -0.933708 0.342543
vn 0.156618 0.987646 0.005087
vn 0.098808 -0.940158 -0.326097
vn 0.038988 -0.996473 -0.074311
vn 0.373116 -0.924890 0.073235
vn 0.064450 0.987646 -0.142834
vn -0.255310 -0.932550 -0.255280
vn 0.006044 0.999981 0.000731
s 1
g pCylinder70
usemtl lambert5SG
f 68/19/1 69/20/2 20/21/3 19/22/4
f 69/20/2 70/23/5 21/24/6 20/21/3
f 71/25/7 72/26/8 40/27/9 41/28/10
f 72/26/8 73/29/11 43/30/12 40/27/9
f 74/31/13 75/32/14 24/33/15 23/34/16
f 75/32/14 76/35/17 25/36/18 24/33/15
f 77/38/19 78/41/20 46/42/21 47/44/22
f 78/41/20 79/47/23 49/48/24 46/42/21
f 80/50/25 81/53/26 28/54/27 27/56/28
f 81/53/26 82/59/29 29/60/30 28/54/27
f 83/62/31 84/65/32 52/66/33 53/68/34
f 84/65/32 85/69/35 55/97/36 52/66/33
f 86/99/37 87/100/38 32/101/39 31/102/40
f 88/103/41 89/104/42 58/105/43 59/106/44
f 89/104/42 90/107/45 61/108/46 58/105/43
f 91/109/47 92/110/48 35/111/49 34/112/50
f 93/113/51 94/114/52 64/115/53 65/116/54
f 94/114/52 95/117/55 67/118/56 64/115/53
f 2/1/57 1/2/58 37/3/59
f 3/4/60 2/1/57 37/3/59
f 4/5/61 3/4/60 37/3/59
f 5/6/62 4/5/61 37/3/59
f 6/7/63 5/6/62 37/3/59
f 7/8/64 6/7/63 37/3/59
f 8/9/65 7/8/64 37/3/59
f 9/10/66 8/9/65 37/3/59
f 10/11/67 9/10/66 37/3/59
f 11/12/68 10/11/67 37/3/59
f 12/13/69 11/12/68 37/3/59
f 13/14/70 12/13/69 37/3/59
f 14/15/71 13/14/70 37/3/59
f 15/16/72 14/15/71 37/3/59
f 16/17/73 15/16/72 37/3/59
f 17/18/74 16/17/73 37/3/59
f 18/37/75 17/18/74 37/3/59
f 1/2/58 18/37/75 37/3/59
f 3/4/60 4/5/61 39/39/76 38/40/77
f 22/119/78 21/24/6 41/28/10 40/27/9
f 21/24/6 70/23/5 71/25/7 41/28/10
f 4/5/61 5/6/62 42/43/79 39/39/76
f 73/29/11 74/31/13 23/34/16 43/30/12
f 23/34/16 22/119/78 40/27/9 43/30/12
f 7/8/64 8/9/65 45/45/80 44/46/81
f 26/120/82 25/36/18 47/44/22 46/42/21
f 25/36/18 76/35/17 77/38/19 47/44/22
f 8/9/65 9/10/66 48/49/83 45/45/80
f 79/47/23 80/50/25 27/56/28 49/48/24
f 27/56/28 26/120/82 46/42/21 49/48/24
f 11/12/68 12/13/69 51/51/84 50/52/85
f 30/121/86 29/60/30 53/68/34 52/66/33
f 29/60/30 82/59/29 83/62/31 53/68/34
f 12/13/69 13/14/70 54/55/87 51/51/84
f 85/69/35 86/99/37 31/102/40 55/97/36
f 31/102/40 30/121/86 52/66/33 55/97/36
f 14/15/71 15/16/72 57/57/88 56/58/89
f 33/122/90 32/101/39 59/106/44 58/105/43
f 32/101/39 87/100/38 88/103/41 59/106/44
f 15/16/72 16/17/73 60/61/91 57/57/88
f 90/107/45 91/109/47 34/112/50 61/108/46
f 34/112/50 33/122/90 58/105/43 61/108/46
f 17/18/74 18/37/75 63/63/92 62/64/93
f 36/123/94 35/111/49 65/116/54 64/115/53
f 35/111/49 92/110/48 93/113/51 65/116/54
f 18/37/75 1/2/58 66/67/95 63/63/92
f 95/117/55 68/19/1 19/22/4 67/118/56
f 19/22/4 36/123/94 64/115/53 67/118/56
f 1/2/58 2/1/57 69/70/2 68/71/1
f 2/1/57 3/4/60 70/72/5 69/70/2
f 71/73/7 70/72/5 3/4/60 38/40/77
f 38/40/77 39/39/76 72/74/8 71/73/7
f 39/39/76 42/43/79 73/75/11 72/74/8
f 5/6/62 74/76/13 73/75/11 42/43/79
f 5/6/62 6/7/63 75/77/14 74/76/13
f 6/7/63 7/8/64 76/78/17 75/77/14
f 77/79/19 76/78/17 7/8/64 44/46/81
f 44/46/81 45/45/80 78/80/20 77/79/19
f 45/45/80 48/49/83 79/81/23 78/80/20
f 9/10/66 80/82/25 79/81/23 48/49/83
f 9/10/66 10/11/67 81/83/26 80/82/25
f 10/11/67 11/12/68 82/84/29 81/83/26
f 83/85/31 82/84/29 11/12/68 50/52/85
f 50/52/85 51/51/84 84/86/32 83/85/31
f 51/51/84 54/55/87 85/87/35 84/86/32
f 13/14/70 86/88/37 85/87/35 54/55/87
f 13/14/70 14/15/71 87/89/38 86/88/37
f 88/90/41 87/89/38 14/15/71 56/58/89
f 56/58/89 57/57/88 89/91/42 88/90/41
f 57/57/88 60/61/91 90/92/45 89/91/42
f 16/17/73 91/93/47 90/92/45 60/61/91
f 16/17/73 17/18/74 92/94/48 91/93/47
f 93/95/51 92/94/48 17/18/74 62/64/93
f 62/64/93 63/63/92 94/96/52 93/95/51
f 63/63/92 66/67/95 95/98/55 94/96/52
f 1/2/58 68/71/1 95/98/55 66/67/95
f 19/22/4 20/21/3 96/124/96
f 20/21/3 21/24/6 96/124/96
f 21/24/6 22/119/78 96/124/96
f 22/119/78 23/34/16 96/124/96
f 23/34/16 24/33/15 96/124/96
f 24/33/15 25/36/18 96/124/96
f 25/36/18 26/120/82 96/124/96
f 26/120/82 27/56/28 96/124/96
f 27/56/28 28/54/27 96/124/96
f 28/54/27 29/60/30 96/124/96
f 29/60/30 30/121/86 96/124/96
f 30/121/86 31/102/40 96/124/96
f 31/102/40 32/101/39 96/124/96
f 32/101/39 33/122/90 96/124/96
f 33/122/90 34/112/50 96/124/96
f 34/112/50 35/111/49 96/124/96
f 35/111/49 36/123/94 96/124/96
f 36/123/94 19/22/4 96/124/96
