# This file uses centimeters as units for non-parametric coordinates.

mtllib M_StarfishPurple.mtl
g default
v 0.073864 0.000000 -0.590168
v -0.116019 0.000000 -0.500760
v -0.280890 0.000000 -0.517287
v -0.440873 0.000000 -0.390021
v -0.547680 0.000000 -0.215712
v -0.490461 0.000000 -0.012193
v -0.558204 0.000000 0.186797
v -0.460652 0.000000 0.366449
v -0.307538 0.000000 0.501902
v -0.160049 0.000000 0.493941
v 0.026117 0.000000 0.560398
v 0.219979 0.000000 0.495523
v 0.390422 0.000000 0.374267
v 0.521528 0.000000 0.200683
v 0.588429 0.000000 0.015385
v 0.558204 0.000000 -0.186797
v 0.414509 0.000000 -0.381337
v 0.264071 0.000000 -0.515252
v 0.073864 0.192919 -0.590168
v -0.116019 0.192919 -0.500760
v -0.280890 0.192919 -0.517287
v -0.440873 0.273377 -0.390021
v -0.547680 0.192919 -0.215712
v -0.490461 0.192919 -0.012193
v -0.558204 0.192919 0.186797
v -0.460652 0.273377 0.366449
v -0.307538 0.192919 0.501902
v -0.160049 0.192919 0.493941
v 0.026117 0.192919 0.560398
v 0.219979 0.273377 0.495523
v 0.361324 0.192919 0.385587
v 0.521528 0.192919 0.200683
v 0.588429 0.273377 0.015385
v 0.558204 0.192919 -0.186797
v 0.414509 0.192919 -0.381337
v 0.264071 0.273377 -0.515252
v 0.000000 0.000000 0.000000
v -0.797758 0.000000 -0.814870
v -0.893625 0.000000 -0.790550
v -0.725910 0.168832 -0.653409
v -0.797758 0.088374 -0.814870
v -0.921024 0.000000 -0.694654
v -0.921024 0.088374 -0.694654
v -0.921154 0.000000 0.637114
v -0.933716 0.000000 0.742772
v -0.845252 0.168832 0.661533
v -0.909021 0.097725 0.644087
v -0.830006 0.000000 0.773200
v -0.830006 0.088374 0.773200
v 0.338103 0.021375 1.065697
v 0.447669 0.000000 1.085669
v 0.352906 0.168832 0.925880
v 0.321354 0.123332 1.031579
v 0.491452 0.021375 1.004162
v 0.439989 0.133792 0.946419
v 1.096460 0.000000 0.102599
v 1.192712 0.000000 0.031185
v 1.073589 0.168832 0.038323
v 1.096460 0.102051 0.102599
v 1.110391 0.000000 -0.039512
v 1.110391 0.102051 -0.039512
v 0.627160 0.000000 -0.963874
v 0.579895 0.000000 -1.030677
v 0.511877 0.168832 -0.912314
v 0.619493 0.100612 -0.968280
v 0.494471 0.000000 -1.041388
v 0.494471 0.088374 -1.041388
v 0.081895 0.069105 -0.623575
v -0.117460 0.068523 -0.531589
v -0.294883 0.066976 -0.553669
v -0.846661 0.061553 -0.879670
v -0.947661 0.061111 -0.855411
v -0.982032 0.061616 -0.733857
v -0.604453 0.067406 -0.231711
v -0.533486 0.069217 -0.033723
v -0.622930 0.070194 0.164985
v -0.973838 0.071064 0.653151
v -0.964201 0.071733 0.777658
v -0.853980 0.072614 0.811872
v -0.311952 0.074036 0.542392
v -0.151898 0.075411 0.537981
v 0.037370 0.077134 0.627757
v 0.355950 0.085840 1.124291
v 0.485148 0.083533 1.122348
v 0.532599 0.086527 1.036758
v 0.433473 0.078038 0.409780
v 0.567814 0.077485 0.226621
v 1.172572 0.080199 0.130603
v 1.273187 0.080309 0.056172
v 1.200705 0.079280 -0.048060
v 0.614102 0.074697 -0.214525
v 0.445941 0.072797 -0.395035
v 0.654453 0.069998 -1.015902
v 0.609758 0.069221 -1.084205
v 0.524680 0.068598 -1.093949
v 0.007393 0.342052 0.001038
vt 0.289391 0.938494
vt 0.303695 0.945336
vt 0.298684 0.900746
vt 0.276878 0.939662
vt 0.264878 0.929976
vt 0.256956 0.916765
vt 0.261496 0.901428
vt 0.256560 0.886373
vt 0.264133 0.872857
vt 0.275874 0.862706
vt 0.287045 0.863379
vt 0.301222 0.858452
vt 0.315852 0.863444
vt 0.328651 0.872681
vt 0.338415 0.885849
vt 0.343302 0.899871
vt 0.340809 0.915120
vt 0.329723 0.929736
vt 0.852139 0.685634
vt 0.837468 0.674462
vt 0.841340 0.666696
vt 0.853879 0.676400
vt 0.822460 0.673022
vt 0.828862 0.665198
vt 0.770953 0.689595
vt 0.763101 0.685763
vt 0.797513 0.664408
vt 0.785591 0.678590
vt 0.762556 0.675190
vt 0.778501 0.667715
vt 0.803043 0.641021
vt 0.812598 0.626124
vt 0.821888 0.624581
vt 0.814216 0.638616
vt 0.808973 0.608233
vt 0.820237 0.608823
vt 0.318187 0.939773
vt 0.789277 0.561879
vt 0.230161 0.959994
vt 0.237403 0.961876
vt 0.792407 0.551871
vt 0.807017 0.569165
vt 0.228180 0.952741
vt 0.802004 0.569399
vt 0.228650 0.844217
vt 0.229497 0.852200
vt 0.802116 0.551088
vt 0.810032 0.561199
vt 0.236542 0.841971
vt 0.841639 0.583049
vt 0.333699 0.819002
vt 0.325374 0.820457
vt 0.854721 0.586338
vt 0.854885 0.592774
vt 0.336936 0.825177
vt 0.844107 0.589761
vt 0.389121 0.898972
vt 0.381897 0.893533
vt 0.871975 0.582457
vt 0.869783 0.590948
vt 0.382811 0.904269
vt 0.907503 0.547668
vt 0.341612 0.978838
vt 0.345261 0.973818
vt 0.918094 0.550190
vt 0.900136 0.569432
vt 0.335126 0.979605
vt 0.899587 0.561134
vt 0.920390 0.558060
vt 0.289251 0.940821
vt 0.304270 0.947862
vt 0.275781 0.942401
vt 0.233632 0.966744
vt 0.226001 0.964864
vt 0.223516 0.955671
vt 0.252637 0.917945
vt 0.258213 0.903033
vt 0.251632 0.887988
vt 0.225520 0.850964
vt 0.226374 0.841569
vt 0.234763 0.839040
vt 0.275579 0.859647
vt 0.287707 0.860058
vt 0.302143 0.853372
vt 0.326785 0.816042
vt 0.336576 0.816251
vt 0.340088 0.822736
vt 0.331949 0.870021
vt 0.341949 0.883913
vt 0.387694 0.891456
vt 0.395246 0.897124
vt 0.389648 0.904958
vt 0.345018 0.917240
vt 0.332092 0.930786
vt 0.347278 0.977759
vt 0.343822 0.982894
vt 0.906927 0.569353
vt 0.337364 0.983588
vt 0.900462 0.607535
vt 0.908073 0.624976
vt 0.900362 0.625571
vt 0.891632 0.609328
vt 0.956013 0.643894
vt 0.962891 0.651824
vt 0.938468 0.646605
vt 0.941246 0.642251
vt 0.954972 0.659024
vt 0.939876 0.652938
vt 0.903596 0.661909
vt 0.886374 0.673599
vt 0.882612 0.666639
vt 0.896531 0.654688
vt 0.891866 0.728202
vt 0.886907 0.732972
vt 0.881363 0.712359
vt 0.887864 0.713204
vt 0.879726 0.732213
vt 0.877378 0.716526
vt 0.819174 0.653200
vt 0.830489 0.597209
vt 0.883031 0.598912
vt 0.902182 0.640308
vt 0.869218 0.674017
vt 0.858948 0.631801
vn -0.638506 0.000878 -0.769616
vn -0.190415 0.003171 -0.981699
vn -0.107474 0.830068 -0.547207
vn -0.308042 0.821539 -0.479775
vn 0.392896 0.005052 -0.919569
vn 0.133091 0.831170 -0.539855
vn 0.391668 0.060737 -0.918100
vn -0.587300 0.568105 -0.576485
vn -0.191298 0.966272 -0.172404
vn 0.296569 0.620823 -0.725690
vn -0.878738 0.116448 0.462881
vn -0.651063 0.686985 0.322752
vn -0.860255 0.003889 0.509849
vn -0.999627 0.000207 -0.027300
vn -0.532313 0.846342 -0.018652
vn -0.500967 0.844839 0.187825
vn -0.859037 0.033052 -0.510846
vn -0.510672 0.820113 -0.258124
vn -0.863115 0.058795 -0.501572
vn -0.756858 0.348432 0.552957
vn -0.190049 0.967057 0.169360
vn -0.621528 0.703077 -0.345524
vn 0.334748 0.037067 0.941578
vn 0.240931 0.643139 0.726860
vn 0.339643 -0.002637 0.940551
vn -0.207672 -0.004436 0.978188
vn -0.099738 0.847734 0.520961
vn 0.119553 0.834402 0.538034
vn -0.728486 -0.001698 0.685058
vn -0.320095 0.855955 0.406055
vn -0.726874 0.171119 0.665110
vn 0.382353 0.470573 0.795215
vn 0.075555 0.975863 0.204897
vn -0.547447 0.672304 0.498306
vn 0.951469 0.304082 -0.047341
vn 0.615095 0.788413 -0.007957
vn 0.981563 0.151603 0.116408
vn 0.405174 0.008482 0.914200
vn 0.261296 0.835525 0.483346
vn 0.487767 0.864113 0.124066
vn 0.252644 0.001103 0.967559
vn 0.933087 0.340194 0.116693
vn 0.246548 0.968870 0.022481
vn 0.195971 0.653601 0.731028
vn 0.384395 0.049431 -0.921844
vn 0.282567 0.681423 -0.675143
vn 0.469875 -0.007951 -0.882697
vn 0.999794 0.020029 -0.003374
vn 0.514524 0.855286 -0.061237
vn 0.295624 0.847889 -0.440103
vn 0.972567 0.072288 0.221105
vn 0.420280 0.419546 -0.804578
vn 0.112983 0.969779 -0.216247
vn 0.809286 0.563842 0.164739
vn -0.640726 0.049298 -0.766186
vn -0.537812 0.538732 -0.648480
vn -0.039208 -0.978699 -0.201521
vn -0.215827 -0.944516 -0.247604
vn -0.000000 -1.000000 -0.000000
vn 0.122407 -0.956366 -0.265294
vn 0.000000 -1.000000 0.000000
vn -0.242210 -0.958392 0.151058
vn -0.192048 -0.981345 -0.008940
vn -0.245259 -0.956292 -0.159229
vn 0.000000 -1.000000 0.000000
vn 0.116410 -0.949536 0.291256
vn -0.045545 -0.974228 0.220921
vn -0.199975 -0.961099 0.190521
vn 0.010581 -0.999851 0.013673
vn 0.275697 -0.960963 0.023282
vn 0.110356 -0.952775 0.282917
vn -0.000000 -1.000000 -0.000000
vn 0.125658 -0.957250 -0.260541
vn 0.268313 -0.963201 0.015881
vn 0.000000 -1.000000 0.000000
vn -0.067740 -0.995568 -0.065235
vn 0.133600 -0.950653 -0.280018
vn -0.116100 0.988061 -0.101268
vn -0.266560 -0.950257 0.161115
vn -0.110142 -0.990809 0.078520
vn -0.254015 -0.954245 -0.157772
vn -0.118995 0.987732 0.101121
vn 0.118070 -0.943646 0.309179
vn 0.023947 -0.997900 0.060192
vn -0.358866 -0.873825 0.328094
vn 0.070693 0.988199 0.135888
vn 0.491713 -0.870380 -0.025654
vn 0.171329 -0.984995 0.020791
vn 0.083746 -0.933708 0.348103
vn 0.156043 0.987646 0.014337
vn 0.117915 -0.940158 -0.319685
vn 0.043313 -0.996473 -0.071876
vn 0.368134 -0.924890 0.095166
vn 0.072782 0.987646 -0.138774
vn -0.239771 -0.932549 -0.269928
vn 0.005990 0.999981 0.001087
s 1
g pCylinder70
usemtl lambert5SG
f 68/19/1 69/20/2 20/21/3 19/22/4
f 69/20/2 70/23/5 21/24/6 20/21/3
f 71/25/7 72/26/8 40/27/9 41/28/10
f 72/26/8 73/29/11 43/30/12 40/27/9
f 74/31/13 75/32/14 24/33/15 23/34/16
f 75/32/14 76/35/17 25/36/18 24/33/15
f 77/38/19 78/41/20 46/42/21 47/44/22
f 78/41/20 79/47/23 49/48/24 46/42/21
f 80/50/25 81/53/26 28/54/27 27/56/28
f 81/53/26 82/59/29 29/60/30 28/54/27
f 83/62/31 84/65/32 52/66/33 53/68/34
f 84/65/32 85/69/35 55/97/36 52/66/33
f 86/99/37 87/100/38 32/101/39 31/102/40
f 88/103/41 89/104/42 58/105/43 59/106/44
f 89/104/42 90/107/45 61/108/46 58/105/43
f 91/109/47 92/110/48 35/111/49 34/112/50
f 93/113/51 94/114/52 64/115/53 65/116/54
f 94/114/52 95/117/55 67/118/56 64/115/53
f 2/1/57 1/2/58 37/3/59
f 3/4/60 2/1/57 37/3/59
f 4/5/61 3/4/60 37/3/59
f 5/6/62 4/5/61 37/3/59
f 6/7/63 5/6/62 37/3/59
f 7/8/64 6/7/63 37/3/59
f 8/9/65 7/8/64 37/3/59
f 9/10/66 8/9/65 37/3/59
f 10/11/67 9/10/66 37/3/59
f 11/12/68 10/11/67 37/3/59
f 12/13/69 11/12/68 37/3/59
f 13/14/70 12/13/69 37/3/59
f 14/15/71 13/14/70 37/3/59
f 15/16/72 14/15/71 37/3/59
f 16/17/73 15/16/72 37/3/59
f 17/18/74 16/17/73 37/3/59
f 18/37/75 17/18/74 37/3/59
f 1/2/58 18/37/75 37/3/59
f 3/4/60 4/5/61 39/39/76 38/40/77
f 22/119/78 21/24/6 41/28/10 40/27/9
f 21/24/6 70/23/5 71/25/7 41/28/10
f 4/5/61 5/6/62 42/43/79 39/39/76
f 73/29/11 74/31/13 23/34/16 43/30/12
f 23/34/16 22/119/78 40/27/9 43/30/12
f 7/8/64 8/9/65 45/45/80 44/46/81
f 26/120/82 25/36/18 47/44/22 46/42/21
f 25/36/18 76/35/17 77/38/19 47/44/22
f 8/9/65 9/10/66 48/49/83 45/45/80
f 79/47/23 80/50/25 27/56/28 49/48/24
f 27/56/28 26/120/82 46/42/21 49/48/24
f 11/12/68 12/13/69 51/51/84 50/52/85
f 30/121/86 29/60/30 53/68/34 52/66/33
f 29/60/30 82/59/29 83/62/31 53/68/34
f 12/13/69 13/14/70 54/55/87 51/51/84
f 85/69/35 86/99/37 31/102/40 55/97/36
f 31/102/40 30/121/86 52/66/33 55/97/36
f 14/15/71 15/16/72 57/57/88 56/58/89
f 33/122/90 32/101/39 59/106/44 58/105/43
f 32/101/39 87/100/38 88/103/41 59/106/44
f 15/16/72 16/17/73 60/61/91 57/57/88
f 90/107/45 91/109/47 34/112/50 61/108/46
f 34/112/50 33/122/90 58/105/43 61/108/46
f 17/18/74 18/37/75 63/63/92 62/64/93
f 36/123/94 35/111/49 65/116/54 64/115/53
f 35/111/49 92/110/48 93/113/51 65/116/54
f 18/37/75 1/2/58 66/67/95 63/63/92
f 95/117/55 68/19/1 19/22/4 67/118/56
f 19/22/4 36/123/94 64/115/53 67/118/56
f 1/2/58 2/1/57 69/70/2 68/71/1
f 2/1/57 3/4/60 70/72/5 69/70/2
f 71/73/7 70/72/5 3/4/60 38/40/77
f 38/40/77 39/39/76 72/74/8 71/73/7
f 39/39/76 42/43/79 73/75/11 72/74/8
f 5/6/62 74/76/13 73/75/11 42/43/79
f 5/6/62 6/7/63 75/77/14 74/76/13
f 6/7/63 7/8/64 76/78/17 75/77/14
f 77/79/19 76/78/17 7/8/64 44/46/81
f 44/46/81 45/45/80 78/80/20 77/79/19
f 45/45/80 48/49/83 79/81/23 78/80/20
f 9/10/66 80/82/25 79/81/23 48/49/83
f 9/10/66 10/11/67 81/83/26 80/82/25
f 10/11/67 11/12/68 82/84/29 81/83/26
f 83/85/31 82/84/29 11/12/68 50/52/85
f 50/52/85 51/51/84 84/86/32 83/85/31
f 51/51/84 54/55/87 85/87/35 84/86/32
f 13/14/70 86/88/37 85/87/35 54/55/87
f 13/14/70 14/15/71 87/89/38 86/88/37
f 88/90/41 87/89/38 14/15/71 56/58/89
f 56/58/89 57/57/88 89/91/42 88/90/41
f 57/57/88 60/61/91 90/92/45 89/91/42
f 16/17/73 91/93/47 90/92/45 60/61/91
f 16/17/73 17/18/74 92/94/48 91/93/47
f 93/95/51 92/94/48 17/18/74 62/64/93
f 62/64/93 63/63/92 94/96/52 93/95/51
f 63/63/92 66/67/95 95/98/55 94/96/52
f 1/2/58 68/71/1 95/98/55 66/67/95
f 19/22/4 20/21/3 96/124/96
f 20/21/3 21/24/6 96/124/96
f 21/24/6 22/119/78 96/124/96
f 22/119/78 23/34/16 96/124/96
f 23/34/16 24/33/15 96/124/96
f 24/33/15 25/36/18 96/124/96
f 25/36/18 26/120/82 96/124/96
f 26/120/82 27/56/28 96/124/96
f 27/56/28 28/54/27 96/124/96
f 28/54/27 29/60/30 96/124/96
f 29/60/30 30/121/86 96/124/96
f 30/121/86 31/102/40 96/124/96
f 31/102/40 32/101/39 96/124/96
f 32/101/39 33/122/90 96/124/96
f 33/122/90 34/112/50 96/124/96
f 34/112/50 35/111/49 96/124/96
f 35/111/49 36/123/94 96/124/96
f 36/123/94 19/22/4 96/124/96
