# This file uses centimeters as units for non-parametric coordinates.

mtllib M_TubesCoral.mtl
g default
v -0.636875 1.693003 1.411800
v -0.451933 1.693003 1.189483
v -0.557713 1.693003 0.986910
v -0.886514 1.693003 1.016044
v -0.905461 1.693003 1.304609
v -0.626188 1.204509 1.190316
v -0.506655 1.204509 1.046626
v -0.557869 1.204509 0.930558
v -0.787537 1.204509 0.934528
v -0.799783 1.204509 1.121035
v -0.554654 0.573501 0.838848
v -0.426241 0.573501 0.684485
v -0.484863 0.573501 0.556674
v -0.727988 0.573501 0.564060
v -0.741144 0.573501 0.764422
v -0.647850 1.705823 1.351851
v -0.508099 1.705823 1.183858
v -0.576179 1.705823 1.041052
v -0.836488 1.705823 1.052801
v -0.850805 1.705823 1.270853
v -0.640045 1.416915 1.200694
v -0.543922 1.416915 1.085145
v -0.622998 1.416915 1.118786
v -0.575606 1.416915 1.000036
v -0.769795 1.416915 0.995000
v -0.779643 1.416915 1.144981
v -0.642623 1.720708 1.389130
v -0.477938 1.720708 1.191164
v -0.566819 1.720708 1.015380
v -0.864919 1.720708 1.036721
v -0.881791 1.720708 1.293680
v -0.688646 0.016396 -0.416136
v -0.824502 0.016396 -0.140537
v -0.704053 0.016396 0.074156
v -0.335837 0.016396 -0.298980
v -0.380962 0.016396 -0.345489
v -0.779674 2.745517 -1.352061
v -0.969213 2.745517 -1.035762
v -0.809503 2.745517 -0.838070
v -0.390072 2.745517 -0.979338
v -0.420285 2.745517 -1.269541
v -0.728397 1.955749 -1.159079
v -0.849878 1.853119 -0.960269
v -0.775844 1.853119 -0.860900
v -0.476399 1.853119 -0.951068
v -0.495090 1.853119 -1.111368
v -0.768939 1.283174 -0.942728
v -0.900543 1.283174 -0.723108
v -0.814879 1.283174 -0.610391
v -0.499146 1.283174 -0.707497
v -0.519401 1.283174 -0.885431
v -0.754118 2.761863 -1.278672
v -0.897342 2.761863 -1.039662
v -0.796827 2.761863 -0.909902
v -0.460296 2.761863 -1.015865
v -0.482548 2.761863 -1.216316
v -0.722455 2.123959 -1.184197
v -0.810457 2.123959 -1.016093
v -0.767086 2.123959 -0.951912
v -0.510584 2.123959 -1.023793
v -0.525151 2.123959 -1.137600
v -0.767997 2.780843 -1.324621
v -0.936775 2.780843 -1.042966
v -0.803598 2.780843 -0.875724
v -0.421327 2.780843 -1.001167
v -0.447971 2.780843 -1.251141
v -0.615338 1.283174 -0.579909
v -0.584394 1.853118 -0.826972
v -0.558455 2.745517 -0.829524
v -0.571007 2.780843 -0.859317
v -0.586955 2.761863 -0.883819
v -0.596965 2.123959 -0.908901
v -0.672146 0.471487 -0.530194
v -0.821281 0.471487 -0.281319
v -0.713210 0.471487 -0.142887
v -0.485802 0.701124 -0.186527
v -0.356975 0.701124 -0.303488
v -0.389366 0.471487 -0.465265
v 0.101344 0.016396 -0.142999
v -0.255888 0.016396 -0.258992
v 0.101419 0.016396 0.232594
v 1.190801 2.238623 -0.367413
v 0.773535 2.238623 -0.502900
v 0.515738 2.238623 -0.147924
v 0.773676 2.238623 0.206949
v 1.190888 2.238623 0.071296
v 0.872745 1.497552 -0.257864
v 0.603055 1.497552 -0.345432
v 0.436433 1.497552 -0.116002
v 0.565505 1.497552 0.110960
v 0.872802 1.497552 0.025687
v 0.561908 0.819459 -0.206418
v 0.193541 0.837440 -0.285759
v 0.085598 0.797006 -0.052596
v 0.272282 0.837440 0.192384
v 0.561968 0.819459 0.098196
v 1.112515 2.258072 -0.318224
v 0.797211 2.258072 -0.420603
v 0.602407 2.258072 -0.152369
v 0.797317 2.258072 0.115789
v 1.112580 2.258072 0.013284
v 0.895163 1.819784 -0.244180
v 0.678288 1.819784 -0.314599
v 0.738264 1.819784 -0.130139
v 0.544298 1.819784 -0.130100
v 0.678362 1.819784 0.054346
v 0.895208 1.819784 -0.016160
v 1.162096 2.280654 -0.346561
v 0.790533 2.280654 -0.467208
v 0.560972 2.280654 -0.151113
v 0.790659 2.280654 0.164891
v 1.162173 2.280654 0.044097
v 0.738241 1.204131 -0.235602
v 0.738300 1.204131 0.057063
v 0.420584 1.167555 0.154936
v 0.344717 1.277549 -0.099823
v 0.382577 1.167555 -0.311504
v 0.657906 1.028879 -0.222306
v 0.329632 1.028879 -0.305990
v 0.403234 1.028879 0.162590
v 0.657965 1.028879 0.075802
v 0.200210 0.904204 -0.219784
v 0.278604 1.043423 -0.256964
v 0.257472 0.904204 0.127934
v 0.352704 1.043423 0.106267
v 0.121711 0.874799 -0.050222
v 0.365321 1.144271 0.100701
v 0.310149 1.224262 -0.084566
v 0.337682 1.144271 -0.238506
v -0.022894 1.180406 -0.125414
v 0.056565 1.246703 -0.163916
v 0.020455 1.178746 0.119759
v 0.118739 1.244529 0.098643
v -0.052211 1.147691 -0.010493
v 0.171438 1.279901 0.086507
v 0.178642 1.301360 -0.053064
v 0.138759 1.287469 -0.150729
v -0.253748 1.623968 -0.056160
v -0.179764 1.632501 -0.094192
v -0.219679 1.623754 0.138735
v -0.126627 1.632221 0.119155
v -0.284481 1.619758 0.036554
v -0.076710 1.636773 0.108005
v -0.066108 1.639536 -0.003817
v -0.100958 1.637747 -0.080834
v -0.456706 1.954079 -0.107479
v -0.298780 1.970185 -0.159328
v -0.392393 1.953675 0.260429
v -0.216737 1.969657 0.223466
v -0.514720 1.946130 0.067539
v -0.122507 1.978252 0.202419
v -0.102493 1.983466 -0.008671
v -0.168281 1.980090 -0.154057
v -0.438387 1.975372 -0.088117
v -0.301878 1.989547 -0.136441
v -0.381791 1.975017 0.235649
v -0.227209 1.989082 0.203121
v -0.489441 1.968378 0.065902
v -0.144285 1.996646 0.184599
v -0.126673 2.001234 -0.001164
v -0.184567 1.998263 -0.129107
v -0.424222 1.948879 -0.073144
v -0.304273 1.961559 -0.118742
v -0.373592 1.948562 0.216487
v -0.235308 1.961144 0.187389
v -0.469893 1.942622 0.064636
v -0.161127 1.967910 0.170820
v -0.145371 1.972015 0.004641
v -0.197162 1.969357 -0.109813
v -0.187317 1.553797 -0.027085
v -0.152344 1.558810 -0.058696
v -0.167304 1.553672 0.087405
v -0.112641 1.558646 0.075902
v -0.205371 1.551324 0.027379
v -0.083317 1.561320 0.069353
v -0.077089 1.562943 0.003663
v -0.097562 1.561892 -0.041580
v -0.128059 1.558246 0.017967
v 0.337340 0.429039 -0.175495
v 0.337407 0.429039 0.163727
v 0.014808 0.438253 0.268617
v -0.188524 0.389651 -0.005052
v -0.025598 0.438253 -0.272708
v -0.356204 0.469257 -0.066798
v -0.210038 0.506636 -0.262226
v -0.293545 0.016396 -0.266656
v -0.565492 0.573501 0.522811
v -0.636277 1.204509 0.896132
v -0.652484 1.693003 0.956637
v -0.656523 1.720708 0.983821
v -0.659645 1.705823 1.007909
v -0.648158 1.416915 0.964123
v -0.684465 0.148158 -0.445036
v -0.816993 0.148158 -0.174990
v -0.462479 0.131795 0.080960
v -0.361035 0.117969 0.133082
v -0.257701 0.124127 0.337502
v 0.161213 0.122710 0.215144
v 0.161140 0.122710 -0.151233
v -0.197538 0.125044 -0.262467
v -0.272387 0.150330 -0.265533
v -0.341193 0.206342 -0.300122
v -0.383092 0.148158 -0.375838
v -0.482258 0.123254 0.527871
v -0.703727 0.123254 0.439485
v -0.462296 0.016396 0.456396
v -0.698228 0.016396 0.382373
v -0.500886 1.717233 -1.057500
v -0.481823 1.717233 -0.892996
v -0.591771 1.717232 -0.768067
v -0.785151 1.717233 -0.801173
v -0.861957 1.717233 -0.903725
v -0.745729 1.601433 -1.066680
v -0.872251 1.601433 -0.855540
v -0.793082 1.601433 -0.750276
v -0.598058 1.601433 -0.717870
v -0.486444 1.601433 -0.843508
v -0.505826 1.601433 -1.011595
v -0.750177 1.641061 -1.096981
v -0.836859 1.641061 -0.952328
v -0.829806 1.720395 -0.985341
v -0.585818 1.641061 -1.059242
v -0.582434 1.720395 -1.090692
v -0.742296 1.863940 -1.138343
v -0.578463 1.813492 -1.127598
v -0.821530 1.813492 -1.024079
v -0.772379 1.780125 -1.366590
v -0.823028 1.820616 -1.311895
v -0.822190 1.855283 -1.286603
v -0.678705 1.825067 -1.378909
v -0.637770 1.872690 -1.363547
v -0.736217 1.919699 -1.286585
v -0.660544 1.911648 -1.323571
v -0.807868 1.897530 -1.262260
v -0.784494 2.201626 -1.648489
v -0.837783 2.201626 -1.547684
v -0.831262 2.201627 -1.492123
v -0.666812 2.201627 -1.640856
v -0.610920 2.201627 -1.592203
v -0.720817 2.201627 -1.460379
v -0.631570 2.201627 -1.513270
v -0.807624 2.201627 -1.433665
v -0.777595 2.410710 -1.752214
v -0.855751 2.416276 -1.671227
v -0.847141 2.421415 -1.591572
v -0.642768 2.418136 -1.753444
v -0.572491 2.425526 -1.669529
v -0.708800 2.430500 -1.515937
v -0.597658 2.431103 -1.564814
v -0.817106 2.427791 -1.503028
v -0.772669 2.427424 -1.740971
v -0.843817 2.432490 -1.667245
v -0.835979 2.437169 -1.594731
v -0.649929 2.434184 -1.742092
v -0.585952 2.440912 -1.665700
v -0.710040 2.445440 -1.525876
v -0.608863 2.445989 -1.570372
v -0.808637 2.442973 -1.514125
v -0.764692 2.407634 -1.722769
v -0.824497 2.411893 -1.660798
v -0.817908 2.415825 -1.599846
v -0.661522 2.413316 -1.723711
v -0.607745 2.418971 -1.659499
v -0.712049 2.422777 -1.541969
v -0.627003 2.423238 -1.579371
v -0.794925 2.420703 -1.532092
v -0.749682 2.210891 -1.609703
v -0.772987 2.212550 -1.585554
v -0.770420 2.214083 -1.561802
v -0.740406 2.213395 -1.584334
v -0.709479 2.213105 -1.610070
v -0.688523 2.215309 -1.585047
v -0.729168 2.216791 -1.539248
v -0.696028 2.216972 -1.553823
v -0.761464 2.215983 -1.535399
v -0.284484 0.016396 0.311151
v -0.704053 0.016396 0.074156
v -0.705453 0.135706 0.087280
vt 0.023632 0.549989
vt 0.014840 0.554902
vt 0.006696 0.557968
vt 0.042972 0.545183
vt 0.033153 0.547387
vt 0.259315 0.593148
vt 0.031959 0.572293
vt 0.024322 0.577394
vt 0.019294 0.580747
vt 0.050180 0.568421
vt 0.041083 0.569075
vt 0.043332 0.603284
vt 0.036568 0.610476
vt 0.031245 0.614785
vt 0.062716 0.602039
vt 0.053087 0.600491
vt 0.022612 0.547391
vt 0.014208 0.551903
vt 0.007582 0.554541
vt 0.271885 0.585493
vt 0.031925 0.544507
vt 0.258067 0.601387
vt 0.252452 0.592013
vt 0.255226 0.587529
vt 0.266041 0.585729
vt 0.268259 0.594617
vt 0.023196 0.548660
vt 0.014603 0.553220
vt 0.007043 0.555988
vt 0.041901 0.543732
vt 0.032438 0.545986
vt 0.232911 0.470012
vt 0.249009 0.459620
vt 0.253735 0.521829
vt 0.233333 0.523437
vt 0.258249 0.458530
vt 0.268265 0.522534
vt 0.272068 0.458476
vt 0.181637 0.528077
vt 0.203757 0.461424
vt 0.215207 0.463085
vt 0.212941 0.523299
vt 0.195937 0.524644
vt 0.238355 0.549455
vt 0.241373 0.544997
vt 0.241921 0.565283
vt 0.231563 0.422494
vt 0.247907 0.416776
vt 0.256981 0.413909
vt 0.270958 0.413755
vt 0.202376 0.416654
vt 0.213863 0.420852
vt 0.230558 0.358918
vt 0.251519 0.353933
vt 0.263598 0.350316
vt 0.280137 0.366695
vt 0.191129 0.366138
vt 0.209195 0.355730
vt 0.233351 0.526099
vt 0.252989 0.524804
vt 0.252833 0.527317
vt 0.233722 0.528772
vt 0.266418 0.525657
vt 0.264681 0.527821
vt 0.184232 0.531368
vt 0.252364 0.542664
vt 0.197733 0.527697
vt 0.213684 0.526174
vt 0.214121 0.529191
vt 0.257390 0.551403
vt 0.233310 0.326128
vt 0.251919 0.320328
vt 0.210662 0.321332
vt 0.214226 0.322806
vt 0.099344 0.467529
vt 0.124932 0.465345
vt 0.122251 0.531734
vt 0.093425 0.535422
vt 0.149282 0.463766
vt 0.005656 0.520878
vt 0.045334 0.455528
vt 0.038640 0.520710
vt 0.073219 0.464538
vt 0.065632 0.529607
vt 0.193187 0.644565
vt 0.180633 0.648019
vt 0.184702 0.636992
vt 0.173702 0.636233
vt 0.181973 0.625495
vt 0.194015 0.630645
vt 0.102593 0.426326
vt 0.131588 0.418320
vt 0.131681 0.431438
vt 0.101601 0.442262
vt 0.053753 0.411045
vt 0.075275 0.421978
vt 0.074103 0.438347
vt 0.049096 0.423060
vt 0.139582 0.358881
vt 0.108430 0.369229
vt 0.114121 0.328974
vt 0.144413 0.317968
vt 0.054019 0.347195
vt 0.302741 0.345551
vt 0.079064 0.363040
vt 0.083559 0.321283
vt 0.092850 0.539219
vt 0.120858 0.536114
vt 0.120770 0.539683
vt 0.092867 0.542980
vt 0.009019 0.526192
vt 0.147222 0.542269
vt 0.039059 0.525580
vt 0.038461 0.529354
vt 0.065499 0.533887
vt 0.064618 0.538049
vt 0.151166 0.442052
vt 0.103872 0.407256
vt 0.135083 0.398091
vt 0.054074 0.389901
vt 0.077052 0.402434
vt 0.169922 0.553813
vt 0.175761 0.563070
vt 0.151929 0.569359
vt 0.150199 0.561997
vt 0.156638 0.392551
vt 0.177864 0.590268
vt 0.174017 0.600942
vt 0.153542 0.596527
vt 0.153566 0.588300
vt 0.174468 0.575586
vt 0.152900 0.577801
vt 0.169158 0.605577
vt 0.154887 0.543319
vt 0.146679 0.548888
vt 0.153551 0.600957
vt 0.165410 0.547566
vt 0.149488 0.555683
vt 0.118600 0.573576
vt 0.119546 0.567631
vt 0.122352 0.596150
vt 0.119813 0.589760
vt 0.118568 0.580805
vt 0.120470 0.556267
vt 0.123632 0.599621
vt 0.120629 0.561997
vt 0.092959 0.573961
vt 0.094393 0.565814
vt 0.097941 0.601738
vt 0.095225 0.593576
vt 0.092359 0.582902
vt 0.096086 0.549703
vt 0.100322 0.606272
vt 0.096370 0.559083
vt 0.090874 0.573945
vt 0.092386 0.565861
vt 0.095899 0.602128
vt 0.093324 0.593951
vt 0.090525 0.583218
vt 0.093792 0.550261
vt 0.098491 0.606789
vt 0.094312 0.558885
vt 0.197747 0.577178
vt 0.185242 0.570663
vt 0.192651 0.563313
vt 0.196173 0.567454
vt 0.192627 0.535623
vt 0.207204 0.540263
vt 0.201333 0.551296
vt 0.195570 0.549462
vt 0.181301 0.553449
vt 0.191094 0.556509
vt 0.215017 0.542869
vt 0.215567 0.563324
vt 0.204639 0.560412
vt 0.204421 0.552327
vt 0.209253 0.576922
vt 0.202143 0.565787
vt 0.194736 0.559056
vt 0.290021 0.350631
vt 0.186948 0.347631
vt 0.207732 0.319710
vt 0.027183 0.615971
vt 0.057360 0.566445
vt 0.051179 0.539656
vt 0.049240 0.538541
vt 0.258476 0.580119
vt 0.259475 0.586173
vt 0.232658 0.335488
vt 0.252278 0.329965
vt 0.081053 0.331685
vt 0.112314 0.339279
vt 0.199329 0.323474
vt 0.202856 0.327709
vt 0.205506 0.333572
vt 0.212422 0.332170
vt 0.052490 0.627980
vt 0.063845 0.625006
vt 0.054668 0.634102
vt 0.065746 0.630506
vt 0.226045 0.602285
vt 0.214812 0.453666
vt 0.203446 0.450886
vt 0.271852 0.447842
vt 0.257979 0.447467
vt 0.249080 0.449184
vt 0.232319 0.445023
vt 0.248900 0.440299
vt 0.257862 0.438326
vt 0.192082 0.439485
vt 0.203160 0.441820
vt 0.214437 0.445057
vt 0.103432 0.270543
vt 0.111970 0.283142
vt 0.077380 0.273062
vt 0.077617 0.265396
vt 0.104676 0.286406
vt 0.076190 0.276730
vt 0.109875 0.256474
vt 0.076020 0.255938
vt 0.104008 0.251184
vt 0.074681 0.250112
vt 0.089902 0.231895
vt 0.097088 0.245054
vt 0.075052 0.244438
vt 0.076725 0.236728
vt 0.096097 0.290103
vt 0.074262 0.280949
vt 0.037952 0.270952
vt 0.035232 0.261135
vt 0.039724 0.275585
vt 0.036703 0.250497
vt 0.038949 0.244322
vt 0.042968 0.238412
vt 0.046799 0.230148
vt 0.041553 0.280935
vt 0.016611 0.266993
vt 0.015533 0.258519
vt 0.017551 0.272970
vt 0.015808 0.248437
vt 0.018265 0.240707
vt 0.021227 0.233102
vt 0.023265 0.223236
vt 0.019346 0.280298
vt 0.014916 0.267063
vt 0.013792 0.258444
vt 0.015776 0.273142
vt 0.014107 0.248256
vt 0.016662 0.240266
vt 0.019656 0.232645
vt 0.021382 0.223425
vt 0.017597 0.280250
vt 0.216078 0.610157
vt 0.214370 0.600442
vt 0.217979 0.594444
vt 0.226526 0.615685
vt 0.235505 0.612182
vt 0.234901 0.593236
vt 0.239197 0.603391
vt 0.225285 0.590504
vt 0.224598 0.603017
vt 0.224663 0.600791
vt 0.225605 0.599642
vt 0.226615 0.605050
vt 0.228778 0.603998
vt 0.228264 0.600499
vt 0.229511 0.602045
vt 0.227165 0.599062
vt 0.034491 0.645291
vt 0.043111 0.638489
vt 0.286434 0.324981
vt 0.080162 0.633131
vt 0.143234 0.328585
vt 0.181255 0.334787
vt 0.166096 0.351350
vt 0.205507 0.318552
vt 0.046924 0.410365
vt 0.042891 0.419605
vt 0.137838 0.417882
vt 0.139015 0.428916
vt 0.153380 0.436878
vt 0.029525 0.389225
vt 0.047489 0.395053
vt 0.140899 0.403974
vt 0.208902 0.658912
vt 0.172963 0.668800
vt 0.153121 0.635060
vt 0.176798 0.604319
vt 0.211273 0.619060
vt 0.024553 0.340714
vt 0.029077 0.381917
vt 0.023915 0.431893
vt 0.024326 0.426235
vt 0.156525 0.399879
vt 0.022547 0.453235
vt 0.150667 0.539200
vt 0.151405 0.610527
vt 0.011972 0.529671
vt 0.154905 0.534462
vt 0.047275 0.642116
vt 0.267484 0.314899
vt 0.270360 0.322559
vt 0.294255 0.323268
vt 0.050835 0.308874
vt 0.088739 0.574197
vt 0.090127 0.566128
vt 0.093661 0.602231
vt 0.091205 0.594111
vt 0.088589 0.583548
vt 0.091404 0.550964
vt 0.096223 0.607091
vt 0.091924 0.558995
vt 0.160037 0.615293
vt 0.100052 0.618006
vt 0.097617 0.617462
vt 0.102298 0.618535
vt 0.124742 0.607220
vt 0.002615 0.556144
vt 0.047867 0.537907
vt 0.003134 0.554667
vt 0.002194 0.558489
vt 0.015443 0.582225
vt 0.041241 0.542488
vt 0.272020 0.602217
vt 0.256923 0.606638
vt 0.252268 0.583444
vt 0.246879 0.594477
vt 0.057671 0.298065
vt 0.028358 0.310486
vt 0.080521 0.627959
vt 0.029024 0.646187
vt 0.090636 0.622027
vt 0.070472 0.599621
vt 0.233560 0.464142
vt 0.242340 0.458095
vt 0.243119 0.451119
vt 0.221500 0.454129
vt 0.221648 0.460482
vt 0.220950 0.448295
vt 0.232528 0.448010
vt 0.243242 0.445158
vt 0.012368 0.266928
vt 0.011492 0.258387
vt 0.013236 0.273035
vt 0.011705 0.248313
vt 0.014001 0.239778
vt 0.017183 0.232063
vt 0.018692 0.223804
vt 0.014867 0.279893
vt 0.256002 0.559596
vt 0.236061 0.579975
vt 0.222334 0.549587
vt 0.199070 0.530325
vt 0.271764 0.438684
vt 0.192302 0.448748
vt 0.192564 0.459895
vt 0.171593 0.355166
vt 0.166795 0.344850
vt 0.179346 0.369602
vt 0.190658 0.415539
vt 0.281952 0.529186
vt 0.185940 0.533449
vt 0.279714 0.530903
vt 0.284478 0.526049
vt 0.014521 0.288128
vt 0.012209 0.286873
vt 0.016168 0.288894
vt 0.039930 0.289357
vt 0.070186 0.287209
vt 0.082837 0.291503
vt 0.234004 0.534483
vt 0.256696 0.532930
vt 0.269378 0.550089
vt 0.265619 0.574461
vn 0.204193 -0.429256 0.879798
vn 0.956091 -0.124151 0.265474
vn 0.947595 -0.137170 0.288527
vn 0.183333 -0.347659 0.919523
vn 0.743322 0.273768 -0.610347
vn 0.759975 0.109435 -0.640673
vn -0.040114 0.355462 -0.933830
vn -0.063082 0.159890 -0.985117
vn -0.827902 0.084043 -0.554540
vn -0.763532 -0.376477 0.524675
vn -0.763039 -0.312362 0.565864
vn -0.856396 -0.037593 -0.514949
vn -0.253363 0.486310 -0.836247
vn -0.961169 0.225352 -0.159283
vn -0.000000 1.000000 0.000001
vn -0.723239 0.223715 0.653358
vn 0.009981 0.215118 0.976537
vn 0.721096 0.230978 0.653200
vn 0.774413 0.477857 -0.414653
vn 0.211130 -0.483424 0.849544
vn 0.958190 0.003295 0.286115
vn 0.639689 0.552975 -0.533869
vn 0.029345 0.641330 -0.766704
vn -0.794131 0.330484 -0.510035
vn -0.791378 -0.377349 0.480967
vn -0.100564 0.983130 0.152781
vn -0.050709 0.971951 0.229653
vn -0.867774 -0.319203 0.380890
vn 0.232781 -0.502307 0.832767
vn 0.124997 0.884264 0.449948
vn 0.463774 0.880354 0.099457
vn -0.881204 0.352373 -0.315140
vn -0.157549 0.576797 -0.801551
vn 0.386032 0.882775 -0.267747
vn -0.771904 0.044362 0.634189
vn -0.044359 0.919962 -0.389489
vn 0.023341 -0.025695 0.999397
vn -0.345700 0.902174 -0.258021
vn -0.372338 0.894615 0.247038
vn 0.663787 0.554202 -0.502242
vn 0.830901 0.259737 0.492077
vn -0.389302 -0.217260 -0.895121
vn -0.992876 -0.109838 0.046186
vn -0.986479 -0.112910 -0.118785
vn -0.373399 -0.185014 -0.909034
vn -0.448317 0.019364 0.893665
vn -0.451076 0.004735 0.892473
vn 0.304079 0.027945 0.952237
vn 0.314287 0.014307 0.949220
vn 0.951161 -0.062149 0.302373
vn 0.749414 -0.185761 -0.635509
vn 0.643921 -0.158651 -0.748463
vn 0.957606 -0.040763 0.285181
vn 0.976990 0.169918 0.128910
vn 0.429310 0.290410 -0.855193
vn 0.381581 0.276932 0.881876
vn -0.273856 0.296643 -0.914880
vn -0.910934 0.295280 -0.288113
vn -0.641339 0.192734 0.742656
vn 0.329025 0.526471 0.783946
vn 0.868667 0.392777 0.301900
vn 0.929612 0.276180 -0.244019
vn -0.035036 0.997107 -0.067457
vn -0.987475 0.016477 -0.156913
vn -0.427503 0.386569 0.817194
vn -0.411505 0.388491 0.824463
vn -0.938023 0.200262 0.282857
vn 0.293012 0.370172 0.881542
vn 0.264558 0.374848 0.888537
vn 0.965321 0.067851 0.252093
vn 0.639577 -0.312232 -0.702462
vn 0.892682 -0.198752 -0.404496
vn 0.948004 0.090860 0.305012
vn -0.336333 0.562463 0.755325
vn -0.872074 0.470371 0.135053
vn -0.365337 -0.408537 -0.836437
vn -0.998725 -0.045839 -0.021144
vn -0.964729 -0.164710 -0.205350
vn -0.355357 -0.411187 -0.839432
vn -0.488579 0.402131 0.774326
vn -0.496906 0.386097 0.777183
vn 0.057526 0.548050 0.834465
vn 0.124309 0.519971 0.845091
vn 0.928277 0.343758 0.141889
vn 0.602275 -0.245585 -0.759574
vn 0.554329 -0.319656 -0.768466
vn 0.968487 0.213679 0.127958
vn -0.192546 0.884265 -0.425444
vn -0.475189 0.879171 -0.035403
vn 0.963133 0.224475 0.148279
vn 0.374047 0.275284 0.885611
vn -0.235107 0.904290 0.356349
vn 0.448367 0.137994 -0.883133
vn 0.108610 0.919879 0.376864
vn -0.284021 0.136059 -0.949115
vn 0.406446 0.908259 0.099336
vn 0.304588 0.891081 -0.336453
vn -0.611031 0.255221 0.749336
vn -0.942271 0.163757 -0.292079
vn -0.420252 -0.223671 -0.879409
vn -0.999023 0.043390 -0.008448
vn -0.750429 0.636937 0.176545
vn 0.069680 0.604776 0.793341
vn 0.726343 -0.015257 -0.687163
vn 0.480248 -0.193857 -0.855443
vn 0.726105 -0.396192 -0.561964
vn -0.320548 -0.089527 -0.942992
vn -0.211476 -0.107609 -0.971441
vn 0.785967 -0.347658 -0.511264
vn -0.976697 0.213717 -0.019684
vn -0.986421 0.158519 -0.042949
vn -0.348554 0.038845 0.936483
vn -0.205480 -0.023829 0.978371
vn 0.727125 -0.340336 0.596205
vn 0.795912 -0.314526 0.517298
vn -0.674244 0.505177 0.538694
vn 0.404985 0.205513 0.890928
vn 0.000000 1.000000 -0.000000
vn 0.999603 -0.019782 -0.020043
vn 0.405197 0.121928 -0.906062
vn -0.679951 0.458942 -0.571872
vn 0.712148 -0.374631 -0.593714
vn 0.102822 -0.129925 -0.986178
vn -0.199865 0.051495 -0.978469
vn 0.691868 -0.381719 -0.612869
vn 0.180081 0.023003 0.983383
vn 0.796673 -0.304484 0.522112
vn 0.731276 -0.255995 0.632220
vn -0.168740 0.185366 0.968073
vn -0.146120 0.152759 -0.977402
vn 0.676024 -0.420545 -0.605090
vn 0.685681 -0.422993 -0.592384
vn 0.191167 -0.147072 -0.970477
vn -0.268368 0.360015 0.893514
vn -0.614829 0.697872 0.367369
vn 0.469409 0.459477 0.754013
vn 0.741903 -0.332517 0.582248
vn 0.691310 -0.313903 0.650811
vn 0.371509 0.884263 -0.282949
vn -0.143163 0.882862 -0.447279
vn 0.192028 0.327206 0.925236
vn -0.685970 0.576795 0.443569
vn -0.449405 0.893245 -0.012206
vn 0.999595 0.022774 0.017046
vn -0.139169 0.901041 0.410802
vn 0.208754 0.246970 -0.946271
vn 0.367505 0.894614 0.254177
vn -0.712593 0.554201 -0.430200
vn -0.888062 0.459627 -0.009458
vn 0.697191 -0.418460 -0.582079
vn -0.137800 0.024554 -0.990156
vn -0.128858 0.246717 0.960482
vn 0.791169 -0.357188 0.496457
vn -0.765388 -0.022386 -0.643180
vn -0.453657 0.180903 -0.872622
vn -0.141970 0.205951 0.968209
vn -0.556284 -0.009905 0.830934
vn -0.835330 0.542864 0.086732
vn -0.933747 -0.325862 0.148091
vn 0.140117 0.989872 -0.022802
vn -0.169376 0.582722 0.794825
vn -0.367452 0.547018 -0.752163
vn -0.705286 -0.295348 -0.644470
vn -0.260723 0.077655 -0.962285
vn 0.133616 0.091977 0.986756
vn -0.443417 -0.300482 0.844448
vn -0.848390 -0.508289 0.147907
vn 0.701867 0.708295 -0.075508
vn 0.612345 0.570376 0.547454
vn 0.330283 0.555678 -0.762978
vn -0.688059 -0.392259 -0.610499
vn -0.186821 -0.116303 -0.975485
vn 0.207143 -0.075854 0.975365
vn -0.424338 -0.403463 0.810651
vn -0.838346 -0.524214 0.149588
vn 0.924876 0.364037 -0.109919
vn 0.845243 0.233212 0.480808
vn 0.564017 0.228982 -0.793380
vn -0.696124 -0.407902 -0.590785
vn -0.168909 -0.179394 -0.969169
vn 0.220385 -0.154363 0.963121
vn -0.465599 -0.429807 0.773617
vn -0.851375 -0.503249 0.147991
vn 0.976983 0.168506 -0.130803
vn 0.861998 0.048122 0.504623
vn 0.556546 0.017116 -0.830640
vn -0.159672 0.986314 -0.041116
vn -0.111104 0.993375 0.029372
vn -0.102964 0.993185 -0.054612
vn -0.152240 0.978624 0.138271
vn -0.166392 0.985206 0.041011
vn -0.061697 0.997691 0.028396
vn 0.039821 0.995061 0.090933
vn -0.007536 0.997098 -0.075760
vn 0.682753 0.485630 0.545904
vn 0.174023 0.276789 0.945042
vn -0.223774 0.232358 -0.946538
vn 0.439975 0.501371 -0.745016
vn 0.810185 0.568396 -0.143271
vn -0.988562 -0.077748 0.129234
vn -0.864268 0.059486 -0.499502
vn -0.571809 0.073218 0.817113
vn 0.639548 0.477319 0.602615
vn 0.097758 0.239815 0.965884
vn -0.225565 0.235489 -0.945339
vn 0.316644 0.464749 -0.826888
vn 0.799612 0.584436 -0.138042
vn -0.983519 -0.134103 0.121269
vn -0.921063 -0.056999 -0.385221
vn -0.678324 -0.012654 0.734654
vn -0.085991 0.996090 0.020238
vn 0.565898 0.690023 -0.451252
vn 0.161613 -0.011440 -0.986788
vn -0.452616 -0.176041 -0.874156
vn -0.999700 -0.000290 0.024475
vn -0.897095 0.059025 0.437877
vn 0.409448 -0.235629 0.881380
vn 0.616306 -0.348195 0.706348
vn 0.684361 -0.415134 -0.599427
vn 0.245393 -0.171037 -0.954216
vn 0.361787 -0.030271 -0.931769
vn 0.690443 -0.031732 -0.722691
vn 0.393919 -0.179361 -0.901475
vn -0.999369 -0.033834 0.010790
vn -0.894859 -0.256084 0.365581
vn 0.237304 -0.473232 0.848374
vn -0.262164 0.111618 -0.958546
vn -0.677090 0.230896 -0.698739
vn 0.442501 0.162769 -0.881873
vn -0.302685 -0.368816 -0.878838
vn -0.870774 -0.348676 -0.346666
vn -0.259349 -0.822887 -0.505565
vn -0.991677 0.037459 -0.123181
vn 0.325828 -0.672660 -0.664353
vn 0.747720 -0.314687 -0.584711
vn 0.670242 0.189224 -0.717614
vn -0.244105 0.940009 -0.238318
vn -0.961474 0.173765 -0.213012
vn -0.873962 -0.375269 -0.308810
vn -0.292616 -0.714486 -0.635520
vn -0.991087 0.095654 0.092715
vn 0.321368 -0.643046 -0.695136
vn 0.914660 -0.234527 -0.329233
vn 0.736575 0.496487 0.459302
vn 0.262618 0.692664 0.671750
vn -0.649303 0.563180 0.511111
vn -0.913018 -0.242267 -0.328184
vn -0.350302 -0.493160 -0.796292
vn -0.974654 0.059914 0.215546
vn 0.299199 -0.506929 -0.808395
vn 0.918512 -0.286302 -0.272702
vn 0.760462 0.189512 0.621114
vn 0.339122 0.362418 0.868130
vn -0.368686 0.371687 0.852009
vn -0.892877 -0.196053 -0.405380
vn -0.323520 -0.382286 -0.865559
vn -0.975665 0.071836 0.207167
vn 0.328261 -0.379941 -0.864806
vn 0.932348 -0.210710 -0.293818
vn 0.792883 0.078342 0.604318
vn 0.330712 0.230742 0.915089
vn -0.436466 0.257902 0.861965
vn -0.116282 0.986153 -0.118237
vn -0.066113 0.986087 -0.152515
vn 0.034203 0.996242 -0.079581
vn -0.029363 0.983516 -0.178419
vn 0.079138 0.993837 -0.077628
vn 0.019069 0.998096 0.058665
vn -0.037755 0.991920 -0.121116
vn -0.109183 0.984003 0.140772
vn 0.816236 0.443750 0.369926
vn 0.272517 0.539782 0.796473
vn 0.934221 0.278226 -0.223206
vn -0.345721 0.569496 0.745756
vn -0.839070 0.502512 0.208430
vn -0.746479 0.298524 -0.594687
vn -0.279087 0.118421 -0.952936
vn 0.468905 0.259151 -0.844375
s 1
g pCylinder70
usemtl lambert5SG
f 6/7/1 7/8/2 2/2/3 1/1/4
f 7/8/2 8/9/5 3/3/6 2/2/3
f 8/9/5 188/322/7 189/321/8 3/3/6
f 9/10/9 10/11/10 5/5/11 4/4/12
f 10/11/10 6/7/1 1/1/4 5/5/11
f 21/22/13 22/23/14 23/6/15
f 22/23/14 24/24/16 23/6/15
f 24/24/16 192/188/17 25/25/18 23/6/15
f 25/25/18 26/26/19 23/6/15
f 26/26/19 21/22/13 23/6/15
f 11/12/20 12/13/21 7/8/2 6/7/1
f 12/13/21 13/14/22 8/9/5 7/8/2
f 13/14/22 187/183/23 188/322/7 8/9/5
f 14/15/24 15/16/25 10/11/10 9/10/9
f 15/16/25 11/12/20 6/7/1 10/11/10
f 196/269/26 195/331/27 187/183/23 13/14/22
f 205/198/28 204/197/29 11/12/20 15/16/25
f 27/27/30 28/28/31 17/18/32 16/17/33
f 28/28/31 29/29/34 18/19/35 17/18/32
f 29/29/34 190/318/36 191/320/37 18/19/35
f 30/30/38 31/31/39 20/21/40 19/323/41
f 31/31/39 27/27/30 16/17/33 20/21/40
f 16/325/33 17/327/32 22/23/14 21/22/13
f 17/327/32 18/326/35 24/24/16 22/23/14
f 18/326/35 191/187/37 192/188/17 24/24/16
f 19/20/41 20/324/40 26/26/19 25/25/18
f 20/324/40 16/325/33 21/22/13 26/26/19
f 1/1/4 2/2/3 28/28/31 27/27/30
f 2/2/3 3/3/6 29/29/34 28/28/31
f 3/3/6 189/321/8 190/318/36 29/29/34
f 4/4/12 5/5/11 31/31/39 30/30/38
f 5/5/11 1/1/4 27/27/30 31/31/39
f 42/32/42 43/33/43 38/34/44 37/35/45
f 43/33/43 44/36/46 39/37/47 38/34/44
f 44/36/46 68/38/48 69/364/49 39/37/47
f 45/40/50 46/41/51 41/42/52 40/43/53
f 46/41/51 42/32/42 37/35/45 41/42/52
f 58/44/54 59/45/55 57/46/56
f 59/45/55 72/66/57 60/70/58 57/46/56
f 60/70/58 61/350/59 57/46/56
f 267/261/60 268/262/61 269/263/62 270/201/63
f 214/208/64 215/209/65 211/205/66 212/206/67
f 215/209/65 216/354/68 210/204/69 211/205/66
f 217/211/70 218/212/71 208/202/72 209/203/73
f 271/264/74 267/261/60 270/201/63 272/265/75
f 73/53/76 74/54/77 48/48/78 47/47/79
f 74/54/77 75/55/80 49/49/81 48/48/78
f 75/55/80 76/56/82 67/50/83 49/49/81
f 77/57/84 78/58/85 51/52/86 50/51/87
f 78/58/85 73/53/76 47/47/79 51/52/86
f 62/59/88 63/60/89 53/61/90 52/62/91
f 63/60/89 64/63/92 54/64/93 53/61/90
f 64/63/92 70/361/94 71/363/95 54/64/93
f 65/67/96 66/68/97 56/69/98 55/353/99
f 66/68/97 62/59/88 52/62/91 56/69/98
f 52/351/91 53/352/90 58/44/54 57/46/56
f 53/352/90 54/371/93 59/45/55 58/44/54
f 54/371/93 71/372/95 72/66/57 59/45/55
f 55/373/99 56/374/98 61/350/59 60/70/58
f 56/374/98 52/351/91 57/46/56 61/350/59
f 37/35/45 38/34/44 63/60/89 62/59/88
f 38/34/44 39/37/47 64/63/92 63/60/89
f 39/37/47 69/364/49 70/361/94 64/63/92
f 40/43/53 41/42/52 66/68/97 65/67/96
f 41/42/52 37/35/45 62/59/88 66/68/97
f 67/360/83 76/359/82 77/57/84 50/51/87
f 209/203/73 210/355/69 216/210/68 217/211/70
f 69/39/49 68/356/48 45/40/50 40/43/53
f 70/65/94 69/39/49 40/43/53 65/67/96
f 71/362/95 70/65/94 65/67/96 55/353/99
f 72/66/57 71/372/95 55/373/99 60/70/58
f 193/189/100 194/190/101 74/54/77 73/53/76
f 194/190/101 278/302/102 75/55/80 74/54/77
f 76/56/82 75/55/80 184/180/103
f 202/195/104 203/196/105 78/58/85 77/57/84
f 203/196/105 193/189/100 73/53/76 78/58/85
f 87/75/106 88/76/107 83/77/108 82/78/109
f 88/76/107 89/79/110 84/299/111 83/77/108
f 89/295/110 90/81/112 85/82/113 84/80/111
f 90/81/112 91/83/114 86/84/115 85/82/113
f 91/83/114 87/75/106 82/78/109 86/84/115
f 102/85/116 103/86/117 104/87/118
f 103/86/117 105/88/119 104/87/118
f 105/88/119 106/89/120 104/87/118
f 106/89/120 107/90/121 104/87/118
f 107/90/121 102/85/116 104/87/118
f 118/91/122 119/92/123 117/93/124 113/94/125
f 120/95/126 121/96/127 114/97/128 115/98/129
f 121/96/127 118/91/122 113/94/125 114/97/128
f 183/99/130 179/100/131 199/192/132 200/273/133
f 181/103/134 182/290/135 196/329/26 197/304/136
f 180/105/137 181/103/134 197/304/136 198/191/138
f 198/191/138 199/192/132 179/100/131 180/105/137
f 108/107/139 109/108/140 98/109/141 97/110/142
f 109/108/140 110/296/143 99/112/144 98/109/141
f 110/111/143 111/113/145 100/114/146 99/298/144
f 111/113/145 112/115/147 101/116/148 100/114/146
f 112/115/147 108/107/139 97/110/142 101/116/148
f 97/285/142 98/286/141 103/86/117 102/85/116
f 98/286/141 99/287/144 105/88/119 103/86/117
f 99/287/144 100/288/146 106/89/120 105/88/119
f 100/288/146 101/289/148 107/90/121 106/89/120
f 101/289/148 97/285/142 102/85/116 107/90/121
f 82/78/109 83/77/108 109/108/140 108/107/139
f 83/77/108 84/299/111 110/296/143 109/108/140
f 84/80/111 85/82/113 111/113/145 110/111/143
f 85/82/113 86/84/115 112/115/147 111/113/145
f 86/84/115 82/78/109 108/107/139 112/115/147
f 114/97/128 113/94/125 87/75/106 91/83/114
f 115/98/129 114/97/128 91/83/114 90/81/112
f 116/292/149 115/98/129 90/81/112 89/295/110
f 117/93/124 116/117/149 89/79/110 88/76/107
f 113/94/125 117/93/124 88/76/107 87/75/106
f 92/118/150 93/119/151 119/92/123 118/91/122
f 95/120/152 96/121/153 121/96/127 120/95/126
f 96/121/153 92/118/150 118/91/122 121/96/127
f 119/92/123 93/119/151 122/284/154 123/279/155
f 95/120/152 120/95/126 125/277/156 124/283/157
f 93/119/151 94/126/158 126/294/159 122/284/154
f 94/291/158 95/120/152 124/283/157 126/282/159
f 115/98/129 116/292/149 128/293/160 127/278/161
f 116/117/149 117/93/124 129/280/162 128/281/160
f 117/93/124 119/92/123 123/279/155 129/280/162
f 120/95/126 115/98/129 127/278/161 125/277/156
f 123/122/155 122/123/154 130/124/163 131/125/164
f 124/127/157 125/128/156 133/129/165 132/130/166
f 122/123/154 126/131/159 134/132/167 130/124/163
f 126/131/159 124/127/157 132/130/166 134/132/167
f 127/133/161 128/313/160 136/297/168 135/136/169
f 128/134/160 129/137/162 137/138/170 136/135/168
f 129/137/162 123/122/155 131/125/164 137/138/170
f 125/128/156 127/133/161 135/136/169 133/129/165
f 131/125/164 130/124/163 138/139/171 139/140/172
f 132/130/166 133/129/165 141/141/173 140/142/174
f 130/124/163 134/132/167 142/143/175 138/139/171
f 134/132/167 132/130/166 140/142/174 142/143/175
f 135/136/169 136/297/168 144/317/176 143/145/177
f 136/135/168 137/138/170 145/146/178 144/144/176
f 137/138/170 131/125/164 139/140/172 145/146/178
f 133/129/165 135/136/169 143/145/177 141/141/173
f 139/140/172 138/139/171 146/147/179 147/148/180
f 140/142/174 141/141/173 149/149/181 148/150/182
f 138/139/171 142/143/175 150/151/183 146/147/179
f 142/143/175 140/142/174 148/150/182 150/151/183
f 143/145/177 144/317/176 152/316/184 151/153/185
f 144/144/176 145/146/178 153/154/186 152/152/184
f 145/146/178 139/140/172 147/148/180 153/154/186
f 141/141/173 143/145/177 151/153/185 149/149/181
f 147/148/180 146/147/179 154/155/187 155/156/188
f 148/150/182 149/149/181 157/157/189 156/158/190
f 146/147/179 150/151/183 158/159/191 154/155/187
f 150/151/183 148/150/182 156/158/190 158/159/191
f 151/153/185 152/316/184 160/314/192 159/161/193
f 152/152/184 153/154/186 161/162/194 160/160/192
f 153/154/186 147/148/180 155/156/188 161/162/194
f 149/149/181 151/153/185 159/161/193 157/157/189
f 155/156/188 154/155/187 162/305/195 163/306/196
f 156/158/190 157/157/189 165/307/197 164/308/198
f 154/155/187 158/159/191 166/309/199 162/305/195
f 158/159/191 156/158/190 164/308/198 166/309/199
f 159/161/193 160/314/192 168/315/200 167/311/201
f 160/160/192 161/162/194 169/312/202 168/310/200
f 161/162/194 155/156/188 163/306/196 169/312/202
f 157/157/189 159/161/193 167/311/201 165/307/197
f 163/163/196 162/164/195 170/165/203 171/166/204
f 164/167/198 165/168/197 173/169/205 172/170/206
f 162/164/195 166/171/199 174/172/207 170/165/203
f 166/171/199 164/167/198 172/170/206 174/172/207
f 167/173/201 168/174/200 176/175/208 175/176/209
f 168/174/200 169/177/202 177/178/210 176/175/208
f 169/177/202 163/163/196 171/166/204 177/178/210
f 165/168/197 167/173/201 175/176/209 173/169/205
f 175/176/209 178/179/211 173/169/205
f 178/179/211 172/170/206 173/169/205
f 171/166/204 178/179/211 177/178/210
f 178/179/211 174/172/207 172/170/206
f 177/178/210 178/179/211 176/175/208
f 178/179/211 170/165/203 174/172/207
f 176/175/208 178/179/211 175/176/209
f 171/166/204 170/165/203 178/179/211
f 180/105/137 179/100/131 92/118/150 96/121/153
f 181/103/134 180/105/137 96/121/153 95/120/152
f 182/290/135 181/103/134 95/120/152 94/291/158
f 183/99/130 182/275/135 94/126/158 93/119/151
f 179/100/131 183/99/130 93/119/151 92/118/150
f 77/57/84 76/359/82 184/357/103 185/181/212
f 201/194/213 202/195/104 77/57/84 185/181/212
f 184/180/103 195/271/27 196/303/26 182/104/135
f 185/181/212 184/357/103 182/358/135 183/274/130
f 200/193/133 201/194/213 185/181/212 183/274/130
f 188/184/7 187/333/23 14/15/24 9/10/9
f 189/185/8 188/184/7 9/10/9 4/4/12
f 190/186/36 189/185/8 4/4/12 30/30/38
f 191/319/37 190/186/36 30/30/38 19/323/41
f 192/188/17 191/187/37 19/20/41 25/25/18
f 184/180/103 75/55/80 278/302/102 195/271/27
f 32/71/214 33/72/215 194/190/101 193/189/100
f 33/72/215 277/301/216 278/302/102 194/190/101
f 198/191/138 197/304/136 276/328/217 81/106/218
f 79/101/219 199/192/132 198/191/138 81/106/218
f 200/273/133 199/192/132 79/101/219 80/102/220
f 186/182/221 201/194/213 200/193/133 80/276/220
f 35/73/222 202/195/104 201/194/213 186/182/221
f 35/73/222 36/74/223 203/196/105 202/195/104
f 36/74/223 32/71/214 193/189/100 203/196/105
f 34/272/224 207/200/225 205/198/28 278/330/102
f 207/200/225 206/199/226 204/197/29 205/198/28
f 272/265/75 270/201/63 273/266/227 274/267/228
f 209/203/73 208/202/72 46/41/51 45/40/50
f 68/356/48 210/355/69 209/203/73 45/40/50
f 211/205/66 210/204/69 68/38/48 44/36/46
f 212/206/67 211/205/66 44/36/46 43/33/43
f 270/201/63 269/263/62 275/268/229 273/266/227
f 47/47/79 48/48/78 214/208/64 213/207/230
f 48/48/78 49/49/81 215/209/65 214/208/64
f 49/49/81 67/50/83 216/354/68 215/209/65
f 217/211/70 216/210/68 67/360/83 50/51/87
f 50/51/87 51/52/86 218/212/71 217/211/70
f 51/52/86 47/47/79 213/207/230 218/212/71
f 213/207/230 214/208/64 220/341/231 219/340/232
f 214/208/64 212/206/67 221/336/233 220/341/231
f 218/212/71 213/207/230 219/340/232 222/339/234
f 208/202/72 218/212/71 222/339/234 223/337/235
f 42/32/42 46/41/51 225/338/236 224/334/237
f 46/41/51 208/202/72 223/337/235 225/338/236
f 212/206/67 43/33/43 226/335/238 221/336/233
f 43/33/43 42/32/42 224/334/237 226/335/238
f 219/213/232 220/214/231 228/215/239 227/216/240
f 220/214/231 221/217/233 229/218/241 228/215/239
f 222/219/234 219/213/232 227/216/240 230/220/242
f 223/221/235 222/219/234 230/220/242 231/222/243
f 224/223/237 225/224/236 233/225/244 232/226/245
f 225/224/236 223/221/235 231/222/243 233/225/244
f 221/217/233 226/227/238 234/228/246 229/218/241
f 226/227/238 224/370/237 232/369/245 234/228/246
f 227/216/240 228/215/239 236/229/247 235/230/248
f 228/215/239 229/218/241 237/231/249 236/229/247
f 230/220/242 227/216/240 235/230/248 238/232/250
f 231/222/243 230/220/242 238/232/250 239/233/251
f 232/226/245 233/225/244 241/234/252 240/235/253
f 233/225/244 231/222/243 239/233/251 241/234/252
f 229/218/241 234/228/246 242/236/254 237/231/249
f 234/228/246 232/369/245 240/368/253 242/236/254
f 235/230/248 236/229/247 244/237/255 243/238/256
f 236/229/247 237/231/249 245/239/257 244/237/255
f 238/232/250 235/230/248 243/238/256 246/240/258
f 239/233/251 238/232/250 246/240/258 247/241/259
f 240/235/253 241/234/252 249/242/260 248/243/261
f 241/234/252 239/233/251 247/241/259 249/242/260
f 237/231/249 242/236/254 250/244/262 245/239/257
f 242/236/254 240/368/253 248/367/261 250/244/262
f 243/238/256 244/237/255 252/245/263 251/246/264
f 244/237/255 245/239/257 253/247/265 252/245/263
f 246/240/258 243/238/256 251/246/264 254/248/266
f 247/241/259 246/240/258 254/248/266 255/249/267
f 248/243/261 249/242/260 257/250/268 256/251/269
f 249/242/260 247/241/259 255/249/267 257/250/268
f 245/239/257 250/244/262 258/252/270 253/247/265
f 250/244/262 248/367/261 256/365/269 258/252/270
f 251/246/264 252/245/263 260/342/271 259/343/272
f 252/245/263 253/247/265 261/344/273 260/342/271
f 254/248/266 251/246/264 259/343/272 262/345/274
f 255/249/267 254/248/266 262/345/274 263/346/275
f 256/251/269 257/250/268 265/347/276 264/348/277
f 257/250/268 255/249/267 263/346/275 265/347/276
f 253/247/265 258/252/270 266/349/278 261/344/273
f 258/252/270 256/365/269 264/366/277 266/349/278
f 259/253/272 260/254/271 268/262/61 267/261/60
f 260/254/271 261/255/273 269/263/62 268/262/61
f 262/256/274 259/253/272 267/261/60 271/264/74
f 263/257/275 262/256/274 271/264/74 272/265/75
f 264/258/277 265/259/276 274/267/228 273/266/227
f 265/259/276 263/257/275 272/265/75 274/267/228
f 261/255/273 266/260/278 275/268/229 269/263/62
f 266/260/278 264/258/277 273/266/227 275/268/229
f 197/270/136 204/197/29 206/199/226 276/300/217
f 13/14/22 12/13/21 197/270/136 196/269/26
f 12/13/21 11/12/20 204/197/29 197/270/136
f 14/15/24 187/333/23 195/332/27 278/330/102
f 15/16/25 14/15/24 278/330/102 205/198/28
