# This file uses centimeters as units for non-parametric coordinates.

mtllib PinkCoral.mtl
g default
v -0.414083 2.875911 0.378042
v -0.453723 2.644900 0.475355
v -0.319832 2.626363 0.685483
v -0.187563 2.825895 0.704831
v -0.210197 2.976404 0.506766
v -0.811982 3.443317 0.935655
v -0.596797 3.038359 0.497595
v -0.388189 3.102082 0.622630
v -0.370238 3.006992 0.853155
v -0.565007 2.872404 0.868494
v -0.705028 2.891790 0.648745
v -0.821439 3.467163 0.806276
v -0.712607 3.485008 0.861610
v -0.711772 3.452771 0.979601
v -0.831896 3.374630 1.002493
v -0.899674 3.383525 0.895372
v -0.772171 3.267092 0.697321
v -0.874285 3.172551 0.823621
v -0.771968 3.159124 0.985330
v -0.606619 3.245366 0.958970
v -0.608498 3.301335 0.781547
v -0.395645 2.591211 0.609871
v -0.643634 2.837642 0.788464
v -0.833282 3.121625 0.931952
v -0.877349 3.335051 0.974183
v 0.663593 1.913330 1.583552
v 0.579493 1.854023 1.522758
v 0.493954 1.886041 1.614172
v 0.523206 1.931135 1.688375
v 0.624571 1.959968 1.686978
v 0.613005 2.082749 1.612404
v 0.653891 2.056926 1.601091
v 0.626702 2.053930 1.648314
v 0.575723 2.066122 1.649489
v 0.561641 2.073848 1.589322
v 0.609952 2.068165 1.559410
v 0.626947 1.995631 1.671625
v 0.661337 1.999937 1.577781
v 0.589245 2.019649 1.518183
v 0.513465 2.027929 1.580173
v 0.535358 2.013336 1.665694
v 0.075834 1.281661 0.696626
v 0.194721 1.033046 0.685172
v 0.439119 1.014168 0.644149
v 0.482363 1.252082 0.635729
v 0.310381 1.440639 0.718236
v 0.681148 2.139915 1.924674
v 0.237622 1.427333 1.146192
v 0.409822 1.549511 1.019000
v 0.646546 1.427979 1.016380
v 0.591856 1.219956 1.137809
v 0.323105 1.219556 1.222388
v 0.567503 2.118668 1.906871
v 0.650276 2.108883 1.820542
v 0.763833 2.112015 1.846997
v 0.750659 2.017711 1.949646
v 0.629321 2.021822 1.986649
v 0.453558 1.755516 1.678000
v 0.527411 1.644852 1.789552
v 0.725322 1.642687 1.728669
v 0.751600 1.777430 1.585515
v 0.640186 1.678715 -0.342856
v 0.601735 1.449541 -0.435268
v 0.367860 1.440751 -0.522360
v 0.261769 1.664493 -0.483774
v 0.432671 1.830514 -0.380194
v 0.768508 2.272357 -1.269777
v 0.758938 1.842940 -0.628840
v 0.527470 1.898204 -0.626146
v 0.365211 1.830745 -0.781753
v 0.495345 1.669838 -0.878926
v 0.738681 1.677375 -0.784421
v 0.840231 2.265154 -1.168490
v 0.721898 2.294619 -1.152106
v 0.649088 2.260068 -1.243796
v 0.722541 2.165802 -1.316801
v 0.840674 2.168946 -1.270259
v 0.828339 2.062119 -0.982510
v 0.825653 1.951745 -1.128403
v 0.647321 1.947000 -1.198661
v 0.539792 2.054441 -1.096191
v 0.646374 2.096950 -0.948234
v 0.494490 1.430197 -0.494255
v 0.626850 1.658638 -0.847001
v 0.745330 1.934362 -1.179230
v 0.789531 2.152339 -1.309591
v -0.029040 -0.094756 -0.147041
v 0.657456 -0.094756 -0.081530
v 0.370866 -0.094756 -0.417561
v 0.291075 3.382169 0.258049
v -0.133596 1.130896 0.046237
v 0.640438 1.130896 0.136461
v 0.371234 1.226897 -0.188000
v -0.141946 2.105543 0.074804
v 0.320204 2.105543 -0.146381
v 0.587222 2.105543 0.211028
v -0.052508 2.904798 0.101794
v 0.310469 2.904798 -0.094271
v 0.552034 2.904798 0.214735
v 0.026345 3.256967 0.105526
v 0.300843 3.256967 -0.042746
v 0.503293 3.256967 0.194630
v 0.372659 1.785405 -0.191908
v 0.507687 1.329557 -0.056836
v 0.551301 1.554132 0.035831
v 0.056802 1.559435 -0.123150
v 0.166370 1.313731 -0.172364
v 0.553508 1.936605 -0.696718
v 0.766467 1.970014 -0.816080
v 0.640743 1.932937 -0.692101
v 0.493897 1.934742 -0.760654
v 0.469727 1.948337 -0.903827
v 0.453407 2.219830 -0.793287
v 0.471958 2.176068 -0.671819
v 0.622428 2.182802 -0.607524
v 0.705805 2.234487 -0.716965
v 0.602941 2.286781 -0.840015
v 0.577013 2.528651 -0.682807
v 0.510399 2.487622 -0.731875
v 0.602896 2.498359 -0.761285
v 0.664533 2.500280 -0.687662
v 0.608916 2.458817 -0.598246
v 0.513656 2.450994 -0.625571
v 0.527272 2.172146 -0.620082
v 0.545420 2.447536 -0.589603
v 0.109897 0.925887 0.555214
v 0.399871 0.925887 0.476467
v 0.004530 1.306059 0.551220
v 0.495811 1.289785 0.534833
v 0.277567 -0.094756 0.386089
v 0.244719 1.460162 0.562693
v 0.109647 -0.094756 0.354718
v 0.128495 2.118415 0.530770
v 0.154074 2.904798 0.567349
v 0.172563 3.256967 0.455728
v 0.487098 2.105543 0.446207
v 0.475217 2.904798 0.430395
v 0.452707 3.256967 0.358491
v 0.508806 1.017273 0.401120
v 0.528664 -0.094756 0.286471
v 0.011164 3.256967 0.381141
v -0.065651 2.904798 0.397857
v -0.139697 2.105543 0.418165
v -0.133299 1.017273 0.383613
v -0.037948 -0.094756 0.243627
v 0.474728 1.807459 1.643251
v 0.566347 1.803929 1.476708
v 0.686551 1.828171 1.566024
v 0.627737 2.005087 1.748826
v 0.677841 1.962413 1.683673
v 0.495579 1.922864 1.719842
v 0.307670 0.212692 -0.392322
v 0.286586 0.732140 -0.282764
v 0.112243 0.549204 -0.161030
v 0.184390 0.259167 -0.233528
v 0.552329 0.264894 -0.179414
v 0.559064 0.557991 -0.208376
v 0.414431 0.632591 -0.448666
v 0.381131 0.411375 -0.454299
v 0.086308 0.372625 -0.477698
v 0.051046 0.596807 -0.441045
v 0.211091 0.765240 -0.438704
v -0.023257 1.121089 -1.009443
v 0.125155 1.079178 -0.978967
v 0.041141 1.098925 -0.842488
v -0.110746 1.072986 -0.888818
v -0.108138 1.005607 -1.024193
v 0.037657 1.009433 -1.079909
v 0.111896 0.947083 -0.668294
v 0.234176 0.875010 -0.823734
v 0.136188 0.754196 -0.937194
v -0.072282 0.748639 -0.857261
v -0.072807 0.866018 -0.706898
v 0.209499 0.369873 -0.522500
v 0.019036 0.729297 -0.928467
v -0.048146 0.985399 -1.083295
v -0.117504 2.345089 0.412078
v 0.101443 2.652326 0.544246
v 0.013151 2.388508 0.497774
v -0.107870 2.397960 0.291409
v -0.084194 2.617896 0.156003
v 0.142992 2.667797 0.575225
v 0.494179 2.687805 0.437628
v 0.573518 2.720456 0.216378
v 0.313537 2.652843 -0.110698
v -0.082999 2.632320 0.092593
vt 0.943027 0.869626
vt 0.925545 0.864345
vt 0.910179 0.852714
vt 0.900079 0.838445
vt 0.890246 0.824092
vt 0.957106 0.807935
vt 0.952261 0.853694
vt 0.966819 0.860829
vt 0.914748 0.824044
vt 0.925480 0.834165
vt 0.939877 0.845502
vt 0.963489 0.816411
vt 0.949868 0.797751
vt 0.948933 0.804304
vt 0.951216 0.811298
vt 0.956325 0.815774
vt 0.961132 0.832096
vt 0.950669 0.827033
vt 0.941186 0.819332
vt 0.933973 0.810289
vt 0.973741 0.833553
vt 0.916234 0.858174
vt 0.930723 0.839883
vt 0.943888 0.823892
vt 0.951790 0.814620
vt 0.782101 0.778556
vt 0.773788 0.801307
vt 0.763611 0.792974
vt 0.767671 0.783395
vt 0.762682 0.776007
vt 0.769006 0.762574
vt 0.749557 0.776276
vt 0.749442 0.763413
vt 0.751998 0.799884
vt 0.727488 0.770676
vt 0.755307 0.786662
vt 0.791640 0.810304
vt 0.791624 0.774682
vt 0.781343 0.838592
vt 0.754398 0.732280
vt 0.776723 0.745576
vt 0.832330 0.856469
vt 0.822535 0.862692
vt 0.809227 0.840739
vt 0.821026 0.830295
vt 0.845201 0.850842
vt 0.834633 0.825453
vt 0.856723 0.847946
vt 0.848762 0.825462
vt 0.812457 0.869882
vt 0.863726 0.828152
vt 0.808010 0.766214
vt 0.780913 0.736773
vt 0.855743 0.909355
vt 0.871491 0.905558
vt 0.866962 0.881400
vt 0.805686 0.828240
vt 0.802007 0.783622
vt 0.867527 0.904010
vt 0.857354 0.883939
vt 0.862458 0.902422
vt 0.847997 0.888119
vt 0.858164 0.904624
vt 0.840237 0.891919
vt 0.863035 0.910050
vt 0.710805 0.720250
vt 0.838281 0.894608
vt 0.747046 0.898647
vt 0.734832 0.900849
vt 0.729317 0.881206
vt 0.743315 0.875256
vt 0.750699 0.874171
vt 0.754322 0.897611
vt 0.774275 0.894656
vt 0.761922 0.896291
vt 0.758371 0.872574
vt 0.773597 0.873785
vt 0.722134 0.903239
vt 0.788648 0.877381
vt 0.881345 0.762243
vt 0.743367 0.924095
vt 0.752958 0.936940
vt 0.772776 0.939028
vt 0.773127 0.919486
vt 0.767901 0.934651
vt 0.763176 0.919662
vt 0.762705 0.932291
vt 0.752912 0.921235
vt 0.757922 0.920355
vt 0.759855 0.932434
vt 0.757179 0.933129
vt 0.761029 0.939481
vt 0.845565 0.711342
vt 0.781782 0.900078
vt 0.737672 0.914037
vt 0.923476 0.933077
vt 0.918013 0.926044
vt 0.925851 0.923733
vt 0.937565 0.951444
vt 0.937371 0.925257
vt 0.945090 0.927358
vt 0.944195 0.951334
vt 0.956059 0.929648
vt 0.951230 0.932145
vt 0.963039 0.939537
vt 0.911769 0.955535
vt 0.955654 0.952676
vt 0.710805 0.878021
vt 0.920388 0.897511
vt 0.925267 0.897821
vt 0.830603 0.816535
vt 0.929819 0.897787
vt 0.937017 0.897324
vt 0.947249 0.896338
vt 0.952461 0.913000
vt 0.901356 0.728360
vt 0.958286 0.895031
vt 0.969665 0.897618
vt 0.962621 0.905766
vt 0.945149 0.730327
vt 0.960411 0.977143
vt 0.952257 0.972043
vt 0.943519 0.969725
vt 0.951851 0.890932
vt 0.927996 0.965846
vt 0.925218 0.959974
vt 0.900253 0.880943
vt 0.920122 0.953772
vt 0.927802 0.952971
vt 0.930995 0.971016
vt 0.929101 0.985993
vt 0.947928 0.979463
vt 0.942791 0.977516
vt 0.931202 0.980671
vt 0.934471 0.978894
vt 0.940175 0.983559
vt 0.961042 0.932647
vt 0.948738 0.937835
vt 0.970956 0.929488
vt 0.864463 0.793424
vt 0.832315 0.791445
vt 0.830787 0.783227
vt 0.855960 0.773869
vt 0.825964 0.776965
vt 0.846479 0.754448
vt 0.816858 0.770517
vt 0.832945 0.741815
vt 0.860572 0.818670
vt 0.809308 0.768854
vt 0.829026 0.803207
vt 0.863536 0.809559
vt 0.820462 0.787348
vt 0.728969 0.907529
vt 0.775899 0.906458
vt 0.796931 0.849883
vt 0.934712 0.932207
vt 0.938499 0.969597
vt 0.939859 0.977608
vt 0.918991 0.962165
vt 0.917651 0.969482
vt 0.940934 0.791300
vt 0.905951 0.762208
vt 0.902875 0.779078
vt 0.923059 0.799077
vt 0.919584 0.790779
vt 0.933974 0.782143
vt 0.915075 0.785633
vt 0.927013 0.774184
vt 0.921523 0.770178
vt 0.912472 0.783195
vt 0.909223 0.781491
vt 0.915755 0.766279
vt 0.907432 0.790506
vt 0.915505 0.733556
vt 0.957246 0.777032
vt 0.930745 0.732685
vt 0.938430 0.742654
vt 0.945212 0.748373
vt 0.950466 0.762918
vt 0.951623 0.905344
vt 0.964683 0.913586
vt 0.929282 0.965850
vt 0.938276 0.964776
vt 0.943854 0.965583
vt 0.953925 0.966097
vt 0.916342 0.970523
vt 0.850291 0.820169
vt 0.933676 0.923203
vt 0.929242 0.936640
vt 0.802239 0.836278
vt 0.816370 0.821665
vt 0.844254 0.900834
vt 0.756549 0.711452
vt 0.874275 0.898144
vt 0.871986 0.892820
vt 0.871191 0.881476
vt 0.828698 0.894187
vt 0.918211 0.715272
vt 0.959168 0.917421
vt 0.936707 0.711133
vt 0.958723 0.902364
vt 0.957919 0.736386
vt 0.967183 0.754944
vt 0.760334 0.848781
vt 0.747580 0.852573
vt 0.776277 0.849099
vt 0.955041 0.944753
vt 0.721108 0.859011
vt 0.734709 0.853957
vt 0.924504 0.896643
vt 0.925623 0.973987
vt 0.906902 0.888297
vt 0.921343 0.959683
vt 0.889982 0.874648
vt 0.880725 0.855686
vt 0.899635 0.789250
vt 0.783013 0.921083
vt 0.895799 0.808584
vt 0.724081 0.908025
vt 0.855098 0.717683
vt 0.874180 0.732720
vt 0.715784 0.888541
vt 0.791479 0.866188
vt 0.734449 0.928867
vt 0.749687 0.942653
vt 0.786942 0.893241
vt 0.786444 0.898399
vt 0.892986 0.819703
vt 0.823354 0.734947
vt 0.825358 0.807790
vt 0.964159 0.969681
vt 0.920126 0.978581
vt 0.952107 0.985091
vt 0.968079 0.955389
vt 0.909359 0.928701
vt 0.910472 0.895777
vt 0.958304 0.878235
vt 0.878416 0.831203
vt 0.929436 0.798578
vt 0.969181 0.813475
vt 0.904595 0.811630
vt 0.846774 0.910079
vt 0.853973 0.913198
vt 0.803198 0.855221
vt 0.866621 0.820077
vt 0.869434 0.845062
vt 0.874873 0.874496
vt 0.722188 0.732746
vt 0.783721 0.855261
vt 0.755544 0.814599
vt 0.739907 0.784227
vt 0.967791 0.773345
vt 0.899937 0.739439
vt 0.894081 0.759845
vt 0.893888 0.779065
vn -0.827160 -0.397501 -0.397240
vn -0.401523 0.320843 -0.857811
vn -0.428208 0.215457 -0.877619
vn -0.721259 -0.470466 -0.508377
vn -0.528483 -0.806256 0.265815
vn -0.616278 -0.715630 0.328748
vn 0.625867 0.170448 0.761076
vn 0.070802 -0.444590 0.892931
vn 0.122233 -0.508528 0.852325
vn 0.577501 0.108397 0.809161
vn 0.530308 0.808086 -0.256455
vn 0.448181 0.861858 -0.237350
vn 0.590862 0.745703 -0.307911
vn -0.423669 0.365853 -0.828647
vn -0.321973 0.505635 -0.800417
vn 0.651536 0.668537 -0.358553
vn 0.589680 0.218839 0.777423
vn 0.626846 0.367369 0.687098
vn -0.002975 -0.275168 0.961392
vn -0.021032 0.012495 0.999701
vn -0.919439 -0.223557 -0.323502
vn -0.728718 -0.542531 0.417888
vn -0.830883 -0.168371 0.530362
vn -0.951639 0.107682 -0.287729
vn -0.433684 0.824975 0.362401
vn 0.599340 0.217629 0.770343
vn 0.884582 0.055393 -0.463083
vn 0.940417 0.324779 -0.100674
vn 0.567377 0.311673 0.762196
vn -0.354764 0.637014 0.684365
vn -0.695749 0.382243 0.608132
vn -0.571877 0.790273 -0.220056
vn -0.867335 0.213780 -0.449476
vn 0.215960 0.637229 -0.739797
vn -0.187235 0.102783 -0.976923
vn 0.192387 0.975839 0.103567
vn 0.732326 0.251633 -0.632756
vn 0.394958 0.899856 0.185115
vn -0.268027 0.224808 -0.936815
vn -0.874599 0.179406 -0.450432
vn -0.817913 0.569482 0.081908
vn -0.397584 -0.741678 0.540223
vn -0.952060 0.217108 0.215513
vn -0.917857 0.105673 0.382585
vn -0.430824 -0.757114 0.491090
vn 0.605522 -0.754371 0.253511
vn 0.528389 -0.822090 0.212070
vn 0.900434 0.229904 -0.369273
vn 0.949425 0.147687 -0.277093
vn -0.081780 0.905062 -0.417343
vn -0.061841 0.975650 -0.210432
vn -0.248164 0.702931 -0.666560
vn -0.879443 0.446261 -0.165623
vn -0.903650 0.217047 0.369199
vn -0.218721 0.740272 -0.635735
vn 0.943763 0.184402 -0.274422
vn 0.415737 0.701795 -0.578486
vn 0.409622 0.605258 -0.682549
vn 0.988869 0.132210 -0.068253
vn 0.657740 -0.618124 0.430466
vn 0.761410 -0.315565 0.566281
vn -0.316722 -0.616607 0.720752
vn -0.366943 -0.300605 0.880335
vn -0.894744 -0.079081 0.439522
vn 0.188364 0.829215 0.526232
vn -0.057114 0.862937 -0.502073
vn -0.766079 0.619244 -0.172220
vn 0.859755 -0.504222 -0.081123
vn 0.941324 0.095609 0.323680
vn 0.901495 0.248196 0.354550
vn 0.838702 -0.544311 -0.017439
vn 0.198433 -0.876964 -0.437673
vn 0.228214 -0.821372 -0.522749
vn -0.912473 0.029628 -0.408063
vn -0.535244 -0.558960 -0.633307
vn -0.572378 -0.578322 -0.581315
vn -0.905832 0.199199 -0.373882
vn -0.177812 0.911279 0.371421
vn -0.136936 0.957895 0.252362
vn -0.026371 0.972264 -0.232396
vn 0.948015 0.110865 0.298289
vn 0.786555 0.456952 0.415362
vn -0.242738 0.789629 0.563529
vn -0.904105 0.056317 -0.423584
vn -0.878987 0.408801 -0.245485
vn -0.495367 -0.453144 -0.741129
vn -0.502731 -0.182851 -0.844883
vn 0.895612 -0.401090 -0.192368
vn 0.272007 -0.714530 -0.644561
vn 0.341820 -0.420681 -0.840349
vn 0.955193 -0.136048 -0.262862
vn 0.209453 0.780046 -0.589624
vn -0.414442 0.181535 0.891786
vn -0.925984 0.167650 0.338299
vn 0.845048 0.411909 0.340916
vn -0.595966 0.038863 0.802069
vn -0.971754 -0.083245 0.220827
vn -0.349343 -0.227068 0.909065
vn 0.648959 0.022323 0.760496
vn 0.887643 -0.042229 0.458592
vn 0.977742 0.015075 0.209268
vn 0.995761 0.048156 -0.078364
vn 0.182253 -0.164930 -0.969320
vn 0.895758 -0.087349 -0.435876
vn 0.838288 0.096303 -0.536656
vn 0.053569 0.449778 -0.891533
vn -0.638528 0.047670 -0.768121
vn -0.845664 0.055197 -0.530853
vn 0.195599 0.122792 -0.972966
vn 0.199162 0.597694 -0.776592
vn -0.948841 -0.118412 0.292712
vn -0.305874 -0.160449 0.938455
vn 0.400595 -0.198289 0.894542
vn 0.263019 -0.131117 0.955840
vn 0.819612 -0.064113 0.569320
vn 0.995333 -0.001445 0.096493
vn 0.196742 0.119776 -0.973112
vn -0.958700 -0.037479 -0.281939
vn -0.661464 -0.013632 -0.749853
vn 0.107009 -0.150775 -0.982759
vn 0.208204 0.070257 -0.975559
vn -0.634130 0.083754 -0.768677
vn -0.771082 0.143245 -0.620414
vn 0.146574 0.111673 -0.982876
vn 0.955279 0.045029 -0.292257
vn 0.943255 0.107796 -0.314087
vn -0.523125 0.846518 0.098724
vn 0.049545 -0.011434 0.998706
vn 0.140631 -0.010603 0.990005
vn 0.019301 0.172281 0.984859
vn -0.738761 0.368671 -0.564193
vn 0.165962 0.307789 -0.936868
vn 0.901982 0.272610 -0.334832
vn -0.833501 0.409061 0.371409
vn -0.008289 0.371613 0.928351
vn 0.031686 0.999467 -0.007897
vn -0.617533 -0.121737 -0.777067
vn 0.941078 0.109110 -0.320105
vn -0.968722 -0.028019 -0.246561
vn -0.655575 0.104705 -0.747836
vn -0.867679 0.210814 -0.450211
vn -0.812176 0.347388 -0.468713
vn 0.298377 0.365229 -0.881804
vn 0.214074 0.408591 -0.887258
vn 0.970698 0.240278 -0.003521
vn 0.980403 0.165176 0.107363
vn 0.573167 0.083492 0.815174
vn 0.523452 -0.120860 0.843440
vn -0.374938 -0.204853 0.904133
vn -0.318677 0.031725 0.947332
vn -0.918759 0.158593 0.361567
vn -0.933200 -0.071470 0.352177
vn -0.125344 0.975049 0.183216
vn 0.487639 0.174323 0.855465
vn -0.874251 0.421431 -0.240999
vn 0.035136 0.036830 0.998704
vn -0.006974 0.187913 0.982161
vn 0.805003 0.084875 0.587168
vn 0.635708 0.002606 0.771925
vn 0.615736 0.155333 0.772490
vn 0.627443 0.324845 0.707666
vn -0.902670 0.026633 0.429508
vn -0.805431 -0.421386 0.416792
vn -0.931437 -0.190738 -0.309910
vn 0.136159 0.790363 0.597317
vn 0.927240 0.254120 -0.275043
vn 0.866941 0.394040 -0.305197
vn 0.193407 0.800336 0.567499
vn -0.872270 0.330921 0.360049
vn -0.863604 0.174891 0.472865
vn -0.940353 -0.186176 -0.284738
vn -0.864563 -0.466665 -0.186427
vn -0.097392 -0.699408 -0.708056
vn -0.315511 -0.419558 -0.851131
vn 0.506254 -0.144395 -0.850210
vn 0.594031 -0.398652 -0.698716
vn -0.150476 0.932790 -0.327504
vn 0.890391 0.258887 -0.374409
vn 0.033347 0.889735 0.455259
vn 0.703797 -0.315679 -0.636409
vn 0.036235 -0.757743 -0.651546
vn -0.830300 -0.547817 -0.102459
vn -0.921479 0.102250 0.374728
vn 0.849157 0.035608 -0.526939
vn -0.881824 0.049162 -0.469009
vn -0.171946 -0.277534 0.945203
s 1
g pCylinder71
usemtl initialShadingGroup
f 11/11/1 7/7/2 1/1/3 2/2/4
f 22/22/5 23/23/6 11/11/1 2/2/4
f 9/9/7 10/10/8 3/3/9 4/4/10
f 8/241/11 9/9/7 4/4/10 5/5/12
f 1/1/3 7/7/2 8/8/11 5/237/12
f 21/21/13 17/17/14 12/12/15 13/240/16
f 20/20/17 21/239/13 13/13/16 14/14/18
f 19/19/19 20/20/17 14/14/18 15/15/20
f 18/18/21 24/24/22 25/25/23 16/16/24
f 12/12/15 17/17/14 18/18/21 16/16/24
f 13/240/16 12/12/15 6/6/25
f 14/14/18 13/13/16 6/6/25
f 15/15/20 14/14/18 6/6/25
f 16/16/24 25/25/23 6/6/25
f 12/12/15 16/16/24 6/6/25
f 18/18/21 17/17/14 7/7/2 11/11/1
f 11/11/1 23/23/6 24/24/22 18/18/21
f 10/10/8 9/9/7 20/20/17 19/19/19
f 9/9/7 8/241/11 21/239/13 20/20/17
f 8/8/11 7/7/2 17/17/14 21/21/13
f 10/10/8 23/23/6 22/22/5 3/3/9
f 24/24/22 23/23/6 10/10/8 19/19/19
f 25/25/23 24/24/22 19/19/19 15/15/20
f 6/6/25 25/25/23 15/15/20
f 37/26/26 38/27/27 32/28/28 33/29/29
f 33/29/29 34/30/30 41/31/31 37/26/26
f 34/30/30 35/32/32 40/33/33 41/31/31
f 35/32/32 36/251/34 39/35/35 40/33/33
f 36/34/34 32/28/28 38/27/27 39/250/35
f 33/29/29 32/28/28 31/36/36
f 34/30/30 33/29/29 31/36/36
f 35/32/32 34/30/30 31/36/36
f 36/251/34 35/32/32 31/36/36
f 32/28/28 36/34/34 31/36/36
f 26/37/37 38/27/27 37/26/26 30/38/38
f 39/250/35 38/27/27 26/37/37 27/39/39
f 40/33/33 39/35/35 27/248/39 28/40/40
f 41/31/31 40/33/33 28/40/40 29/41/41
f 37/26/26 41/31/31 29/41/41 30/38/38
f 52/42/42 48/43/43 42/44/44 43/45/45
f 51/46/46 52/42/42 43/45/45 44/47/47
f 50/48/48 51/46/46 44/47/47 45/49/49
f 49/246/50 50/48/48 45/49/49 46/51/51
f 42/44/44 48/43/43 49/50/50 46/244/51
f 149/242/52 151/192/53 53/54/54 54/243/55
f 61/56/56 148/196/57 150/195/58 55/59/59
f 60/60/60 61/56/56 55/59/59 56/61/61
f 59/62/62 60/60/60 56/61/61 57/63/63
f 53/54/54 58/64/64 59/62/62 57/63/63
f 54/243/55 53/54/54 47/65/65
f 55/59/59 54/55/55 47/65/65
f 56/61/61 55/59/59 47/65/65
f 57/63/63 56/61/61 47/65/65
f 53/54/54 57/63/63 47/65/65
f 59/62/62 58/64/64 48/43/43 52/42/42
f 52/42/42 51/46/46 60/60/60 59/62/62
f 51/46/46 50/48/48 61/56/56 60/60/60
f 50/48/48 49/246/50 147/247/66 148/196/57 61/56/56
f 146/67/67 48/43/43 58/64/64
f 72/68/68 68/69/69 62/70/70 63/71/71
f 83/72/72 84/73/73 72/68/68 63/71/71
f 70/74/74 71/75/75 64/76/76 65/77/77
f 69/226/78 70/74/74 65/77/77 66/79/79
f 62/70/70 68/69/69 69/78/78 66/222/79
f 82/224/80 78/81/81 73/82/82 74/225/83
f 81/84/84 82/217/80 74/83/83 75/85/85
f 80/86/86 81/84/84 75/85/85 76/87/87
f 79/88/88 85/89/89 86/90/90 77/91/91
f 73/82/82 78/81/81 79/88/88 77/91/91
f 74/225/83 73/82/82 67/92/92
f 75/85/85 74/83/83 67/92/92
f 76/87/87 75/85/85 67/92/92
f 77/91/91 86/90/90 67/92/92
f 73/82/82 77/91/91 67/92/92
f 79/88/88 78/81/81 68/69/69 72/68/68
f 72/68/68 84/73/73 85/89/89 79/88/88
f 71/75/75 70/74/74 81/84/84 80/86/86
f 70/74/74 69/226/78 108/227/93 111/94/94
f 109/95/95 78/81/81 82/224/80
f 71/75/75 84/73/73 83/72/72 64/76/76
f 85/89/89 84/73/73 71/75/75 80/86/86
f 86/90/90 85/89/89 80/86/86 76/87/87
f 67/92/92 86/90/90 76/87/87
f 128/96/96 144/97/97 126/98/98
f 136/99/99 139/100/100 92/101/101 96/102/102
f 93/103/103 104/104/104 157/115/105 153/199/106
f 106/105/107 94/234/108 95/107/109 103/207/110
f 126/98/98 144/97/97 145/109/111 132/110/112
f 139/100/100 127/188/113 130/112/114 140/113/115
f 139/100/100 140/113/115 88/114/116 92/101/101
f 89/117/117 87/118/118 155/119/119 152/201/120
f 185/185/121 186/231/122 97/121/123 98/122/124
f 184/184/125 185/185/121 98/122/124 99/123/126
f 142/211/127 178/125/128 182/182/129 134/130/130
f 98/122/124 97/121/123 100/233/131 101/132/132
f 99/123/126 98/122/124 101/132/132 102/133/133
f 141/134/134 142/211/127 134/130/130 135/135/135
f 101/132/132 100/233/131 90/136/136
f 102/133/133 101/132/132 90/136/136
f 90/136/136 141/134/134 135/135/135
f 66/79/79 65/77/77 106/206/107 103/223/110
f 65/77/77 64/76/76 107/204/137 106/206/107
f 64/76/76 83/72/72 93/205/103 107/204/137
f 83/72/72 63/71/71 104/209/104 93/205/103
f 63/71/71 62/70/70 105/208/138 104/209/104
f 62/70/70 66/222/79 103/108/110 105/208/138
f 96/102/102 105/138/138 103/207/110 95/107/109
f 92/101/101 104/104/104 105/138/138 96/102/102
f 91/139/139 107/137/137 154/181/140
f 107/137/137 91/139/139 94/234/108 106/105/107
f 113/140/141 119/141/142 120/142/143 117/143/144
f 120/142/143 121/144/145 116/145/146 117/143/144
f 121/144/145 122/146/147 115/147/148 116/145/146
f 124/148/149 125/230/150 123/150/151 114/151/152
f 123/150/151 119/141/142 113/140/141 114/151/152
f 120/142/143 119/141/142 118/152/153
f 121/144/145 120/142/143 118/152/153
f 122/146/147 121/144/145 118/152/153
f 118/152/153 125/149/150 122/146/147
f 119/141/142 123/150/151 118/152/153
f 122/146/147 125/149/150 124/229/149 115/147/148
f 123/150/151 125/230/150 118/152/153
f 110/220/154 109/221/95 116/145/146 115/147/148
f 108/93/93 110/220/154 115/147/148 124/229/149
f 111/218/94 108/228/93 124/148/149 114/151/152
f 112/216/155 111/218/94 114/151/152 113/140/141
f 82/80/80 112/216/155 113/140/141 117/143/144
f 109/221/95 82/80/80 117/143/144 116/145/146
f 69/78/78 68/69/69 110/153/154 108/219/93
f 110/153/154 68/69/69 109/95/95
f 109/95/95 68/69/69 78/81/81
f 70/74/74 112/154/155 81/84/84
f 70/74/74 111/94/94 112/154/155
f 81/84/84 112/154/155 82/217/80
f 126/98/98 132/110/112 130/112/114 127/188/113
f 133/129/156 131/189/157 129/156/158 136/99/99
f 134/130/130 182/182/129 183/183/159 137/157/160
f 90/136/136 135/135/135 138/158/161
f 135/135/135 134/130/130 137/157/160 138/158/161
f 42/44/44 46/244/51 131/155/157 128/190/96
f 43/45/45 42/44/44 128/190/96 126/191/98
f 44/47/47 43/45/45 126/191/98 127/111/113
f 45/49/49 44/47/47 127/111/113 129/187/158
f 46/51/51 45/49/49 129/187/158 131/245/157
f 137/157/160 183/183/159 184/184/125 99/123/126
f 138/158/161 137/157/160 99/123/126 102/133/133
f 90/136/136 138/158/161 102/133/133
f 100/131/131 141/134/134 90/136/136
f 97/232/123 142/211/127 141/134/134 100/131/131
f 94/106/108 143/128/162 177/213/163 180/159/164
f 91/235/139 144/97/97 143/128/162 94/106/108
f 87/236/118 145/109/111 144/97/97 91/235/139
f 143/128/162 144/97/97 128/96/96
f 143/128/162 128/96/96 131/189/157 133/129/156
f 139/100/100 136/99/99 129/156/158 127/188/113
f 53/54/54 151/192/53 146/67/67 58/64/64
f 55/59/59 150/195/58 149/194/52 54/55/55
f 26/37/37 30/38/38 150/58/58 148/57/57
f 27/39/39 26/37/37 148/57/57 147/249/66
f 28/40/40 27/248/39 147/66/66 146/193/67
f 29/41/41 28/40/40 146/193/67 151/53/53
f 30/38/38 29/41/41 151/53/53 149/52/52
f 149/52/52 150/58/58 30/38/38
f 49/50/50 48/43/43 146/67/67 147/197/66
f 169/254/165 170/162/166 164/163/167 165/255/168
f 165/164/168 166/165/169 173/166/170 169/161/165
f 166/165/169 167/167/171 172/168/172 173/166/170
f 175/169/173 176/170/174 168/171/175 171/172/176
f 168/171/175 164/163/167 170/162/166 171/172/176
f 165/255/168 164/163/167 163/173/177
f 166/165/169 165/164/168 163/173/177
f 167/167/171 166/165/169 163/173/177
f 168/171/175 176/170/174 163/173/177
f 164/163/167 168/171/175 163/173/177
f 158/174/178 170/162/166 169/254/165 162/253/179
f 171/172/176 170/162/166 158/174/178 159/176/180
f 174/177/181 175/169/173 171/172/176 159/176/180
f 173/166/170 172/168/172 160/178/182 161/179/183
f 169/161/165 173/166/170 161/179/183 162/175/179
f 172/168/172 175/169/173 174/177/181 160/178/182
f 167/167/171 176/170/174 175/169/173 172/168/172
f 163/173/177 176/170/174 167/167/171
f 157/198/105 156/200/184 159/176/180 158/174/178
f 156/200/184 152/120/120 174/177/181 159/176/180
f 152/120/120 155/202/119 160/178/182 174/177/181
f 155/202/119 154/203/140 161/179/183 160/178/182
f 154/203/140 153/252/106 162/175/179 161/179/183
f 153/116/106 157/198/105 158/174/178 162/253/179
f 88/114/116 89/117/117 152/201/120 156/180/184
f 88/114/116 156/180/184 157/115/105 92/101/101
f 155/119/119 87/118/118 91/139/139 154/181/140
f 1/1/3 5/237/12 142/124/127 181/210/185
f 2/2/4 1/1/3 181/210/185 180/212/164
f 22/22/5 2/2/4 180/212/164 177/127/163
f 3/3/9 22/22/5 177/127/163 179/214/186
f 4/4/10 3/3/9 179/214/186 178/215/128
f 5/5/12 4/4/10 178/215/128 142/238/127
f 186/186/122 181/160/185 142/211/127 97/232/123
f 182/182/129 178/125/128 179/126/186 133/129/156
f 183/183/159 182/182/129 133/129/156 136/99/99
f 184/184/125 183/183/159 136/99/99 96/102/102
f 96/102/102 95/107/109 185/185/121 184/184/125
f 95/107/109 94/234/108 186/231/122 185/185/121
f 94/106/108 180/159/164 181/160/185 186/186/122
f 133/129/156 179/126/186 177/213/163 143/128/162
f 154/181/140 107/137/137 93/103/103 153/199/106
f 157/115/105 104/104/104 92/101/101
