# This file uses centimeters as units for non-parametric coordinates.

mtllib Crystal.mtl
g default
v 0.888375 1.339817 0.371630
v 0.157647 12.526848 -0.782858
v -2.125292 8.453055 0.066702
v -0.920627 8.575682 -1.708055
v 1.912160 8.156525 -0.002820
v -0.453688 2.596343 0.620977
v 0.750577 10.666247 0.067446
v -0.474435 3.773350 -1.628222
v 1.495174 1.840267 0.109317
v 1.118491 7.395987 -1.836902
v -1.081457 11.183281 0.026078
v -2.116069 5.704192 -0.682970
v -0.289731 8.136819 1.495063
v 0.819514 4.450966 -1.848533
v 2.144012 5.539934 -0.539338
v 1.226192 5.195390 1.384625
v -0.634067 1.707275 -0.770899
v 1.095122 7.696325 1.091464
v 0.724754 8.745132 -1.739622
v -0.647832 2.329170 0.413186
v -2.124958 5.791117 0.104260
v -0.904025 9.126838 1.073452
v -1.317725 10.389215 -0.492646
v 1.225029 1.815440 0.608767
v -0.746556 10.906168 -0.999973
v 1.721921 3.137184 -0.589433
v -1.225529 6.638340 1.238818
v 1.586962 9.215123 -0.434344
v -1.089055 4.847404 -1.596571
v -0.863814 10.890161 0.378265
v 0.179244 0.046383 -0.003547
v 1.438892 6.603455 1.119292
v -1.787054 4.697057 0.315563
v 2.005592 4.274091 -0.614759
v -1.560960 4.801461 -1.212173
v -0.288114 10.451106 0.573706
v 1.635748 3.920175 0.932821
v -1.322896 9.049401 -1.381896
v 0.974172 3.008631 1.016827
v -1.815131 5.631238 0.562757
v 1.644758 7.278359 -1.219519
v 0.587401 6.162993 1.515710
v -1.702186 7.615323 0.863831
v -0.760356 6.489764 -1.845638
v 2.123092 4.488946 -0.156306
v -0.061225 4.147644 1.295231
v -2.129950 7.424623 0.488691
v 2.110218 5.320076 0.390630
v -0.237983 9.521177 -1.660514
v 2.124289 6.773135 -0.068944
v -1.248047 2.856977 -0.643811
v 1.366588 1.935573 0.555315
v -1.965912 9.467063 -0.182972
v 0.976619 3.433732 -1.415126
v -1.500250 3.749621 0.239803
v 1.130580 9.610434 0.327820
v 0.831609 3.681589 1.246789
v 0.914710 5.291013 -1.960836
v -2.061173 8.262579 -0.805001
v 0.151785 5.515964 -1.932453
v -0.577840 11.064315 0.320313
v -2.118239 7.824988 -0.762550
v 1.758795 6.580559 0.769026
vt 0.146342 0.729595
vt 0.173999 0.992408
vt 0.106521 0.844754
vt 0.085858 0.760966
vt 0.208652 0.575897
vt 0.112097 0.645587
vt 0.257646 0.585232
vt 0.023048 0.522338
vt 0.154674 0.437939
vt 0.249926 0.692298
vt 0.117345 0.535803
vt 0.025257 0.609066
vt 0.050845 0.520521
vt 0.160659 0.337484
vt 0.080874 0.420491
vt 0.001992 0.410597
vt 0.124277 0.354534
vt 0.267482 0.418185
vt 0.037846 0.309398
vt 0.158650 0.247261
vt 0.103198 0.144340
vt 0.224175 0.270795
vt 0.112155 0.001981
vt 0.067804 0.151903
vt 0.258569 0.351520
vt 0.082381 0.104625
vt 0.063563 0.142370
vt 0.382571 0.822769
vt 0.423736 0.885784
vt 0.359541 0.992408
vt 0.407146 0.749589
vt 0.342311 0.863793
vt 0.460448 0.587504
vt 0.490219 0.602638
vt 0.357783 0.654003
vt 0.312002 0.716444
vt 0.426960 0.669119
vt 0.466326 0.445185
vt 0.519977 0.525106
vt 0.451685 0.862523
vt 0.506854 0.722589
vt 0.361152 0.619277
vt 0.429941 0.457872
vt 0.454457 0.183139
vt 0.470946 0.204341
vt 0.325471 0.379335
vt 0.286119 0.678850
vt 0.367468 0.450974
vt 0.524454 0.327449
vt 0.446709 0.371050
vt 0.440697 0.295863
vt 0.294966 0.382981
vt 0.275200 0.513316
vt 0.370575 0.225024
vt 0.360490 0.133786
vt 0.421385 0.001981
vt 0.292454 0.297746
vt 0.725914 0.844754
vt 0.678860 0.992408
vt 0.620493 0.876343
vt 0.643485 0.827680
vt 0.597799 0.862523
vt 0.753256 0.609066
vt 0.756070 0.760966
vt 0.580527 0.885784
vt 0.594608 0.722589
vt 0.643357 0.644023
vt 0.712965 0.487384
vt 0.569094 0.525106
vt 0.763658 0.410597
vt 0.780537 0.522338
vt 0.661491 0.327449
vt 0.531267 0.602638
vt 0.732345 0.290464
vt 0.743658 0.237059
vt 0.630346 0.204341
vt 0.796160 0.309398
vt 0.614939 0.183139
vt 0.763566 0.142370
vt 0.774800 0.151903
vt 0.736850 0.104625
vt 0.680574 0.001981
vt 0.981836 0.576203
vt 0.836187 0.315538
vt 0.890361 0.240505
vt 0.921292 0.558352
vt 0.848906 0.481073
vt 0.850001 0.130595
vt 0.966762 0.302091
vt 0.871596 0.696642
vt 0.974282 0.642868
vt 0.804264 0.277945
vt 0.921757 0.001981
vt 0.998008 0.409157
vt 0.822821 0.611407
vt 0.923471 0.992408
vt 0.986749 0.723594
vt 0.858928 0.860602
vn 0.689026 -0.187515 -0.700058
vn 0.689026 -0.187515 -0.700058
vn 0.689026 -0.187515 -0.700058
vn -0.588713 -0.284272 -0.756708
vn -0.588713 -0.284272 -0.756708
vn -0.588713 -0.284272 -0.756708
vn -0.778808 0.348956 -0.521236
vn -0.778808 0.348957 -0.521236
vn -0.778808 0.348957 -0.521236
vn -0.542079 -0.227657 0.808902
vn -0.542079 -0.227657 0.808902
vn -0.542079 -0.227657 0.808902
vn -0.542079 -0.227657 0.808902
vn 0.757957 0.264373 -0.596328
vn 0.757957 0.264373 -0.596328
vn 0.757957 0.264373 -0.596328
vn 0.299980 0.475895 0.826762
vn 0.299980 0.475895 0.826762
vn 0.299980 0.475895 0.826762
vn 0.299980 0.475895 0.826762
vn 0.869074 0.400506 0.290353
vn 0.869074 0.400506 0.290353
vn 0.869074 0.400506 0.290353
vn 0.869074 0.400506 0.290353
vn 0.744487 0.010418 0.667556
vn 0.744487 0.010418 0.667556
vn 0.744487 0.010418 0.667556
vn 0.744487 0.010418 0.667556
vn -0.174313 -0.059222 0.982908
vn -0.174313 -0.059222 0.982908
vn -0.174313 -0.059222 0.982908
vn -0.626989 0.005031 -0.779012
vn -0.626989 0.005031 -0.779012
vn -0.626989 0.005031 -0.779012
vn -0.626989 0.005031 -0.779012
vn 0.762981 -0.035863 -0.645425
vn 0.762981 -0.035863 -0.645425
vn 0.762981 -0.035863 -0.645425
vn 0.590797 -0.424892 -0.685876
vn 0.590797 -0.424892 -0.685876
vn 0.590797 -0.424892 -0.685876
vn -0.020780 0.065167 -0.997658
vn -0.020780 0.065167 -0.997658
vn -0.020780 0.065167 -0.997658
vn -0.348354 0.296227 -0.889325
vn -0.348354 0.296227 -0.889325
vn -0.348354 0.296227 -0.889325
vn -0.781987 0.486887 -0.389151
vn -0.781987 0.486887 -0.389151
vn -0.781987 0.486887 -0.389151
vn -0.429435 0.115006 0.895745
vn -0.429435 0.115006 0.895745
vn -0.429435 0.115006 0.895745
vn -0.956400 -0.291282 0.021281
vn -0.956401 -0.291282 0.021281
vn -0.956401 -0.291282 0.021281
vn -0.695904 0.275737 0.663088
vn -0.695904 0.275738 0.663088
vn -0.695904 0.275737 0.663088
vn -0.695904 0.275737 0.663088
vn 0.362029 0.344573 0.866143
vn 0.362029 0.344573 0.866143
vn 0.362029 0.344573 0.866143
vn 0.320898 0.152379 0.934775
vn 0.320898 0.152379 0.934775
vn 0.320898 0.152379 0.934775
vn 0.043398 -0.391350 -0.919218
vn 0.043398 -0.391349 -0.919218
vn 0.043398 -0.391350 -0.919218
vn 0.043398 -0.391349 -0.919218
vn -0.021689 0.065563 -0.997613
vn -0.021689 0.065563 -0.997613
vn -0.021689 0.065563 -0.997613
vn -0.021689 0.065563 -0.997613
vn -0.621344 0.003516 -0.783530
vn -0.621344 0.003516 -0.783530
vn -0.621344 0.003516 -0.783530
vn -0.621344 0.003516 -0.783530
vn 0.934278 0.140017 -0.327901
vn 0.934278 0.140017 -0.327901
vn 0.934278 0.140017 -0.327901
vn 0.896167 0.121762 0.426683
vn 0.896167 0.121762 0.426683
vn 0.896167 0.121762 0.426683
vn -0.154288 -0.058246 0.986308
vn -0.154288 -0.058246 0.986308
vn -0.154288 -0.058246 0.986308
vn -0.174080 -0.388371 0.904911
vn -0.174080 -0.388371 0.904911
vn -0.155411 -0.328077 0.931780
vn -0.178158 -0.370126 0.911738
vn 0.076270 -0.387171 -0.918848
vn 0.076270 -0.387171 -0.918848
vn 0.076270 -0.387171 -0.918848
vn -0.844876 -0.477594 0.241016
vn -0.844876 -0.477594 0.241016
vn -0.844876 -0.477594 0.241016
vn 0.353222 0.341315 0.871056
vn 0.353222 0.341315 0.871056
vn 0.353222 0.341315 0.871056
vn 0.353222 0.341315 0.871056
vn 0.725652 0.243762 0.643436
vn 0.725652 0.243762 0.643436
vn 0.725651 0.243762 0.643436
vn -0.033950 0.062016 -0.997498
vn -0.033950 0.062016 -0.997498
vn -0.033950 0.062016 -0.997498
vn 0.758849 0.264379 -0.595191
vn 0.758849 0.264379 -0.595191
vn 0.758849 0.264379 -0.595191
vn -0.913724 -0.364013 0.180562
vn -0.913724 -0.364013 0.180562
vn -0.913724 -0.364013 0.180562
vn -0.999954 -0.000757 -0.009527
vn -0.999954 -0.000757 -0.009527
vn -0.999954 -0.000757 -0.009527
vn -0.999954 -0.000757 -0.009527
vn -0.254462 0.660168 0.706702
vn -0.254462 0.660168 0.706702
vn -0.254462 0.660168 0.706702
vn -0.697399 0.276570 0.661169
vn -0.697399 0.276570 0.661169
vn -0.697399 0.276570 0.661169
vn -0.697399 0.276570 0.661169
vn -0.778962 0.348851 -0.521077
vn -0.778962 0.348851 -0.521077
vn -0.778962 0.348851 -0.521077
vn -0.986822 0.126954 -0.100328
vn -0.986822 0.126954 -0.100328
vn -0.986822 0.126954 -0.100328
vn -0.986822 0.126954 -0.100328
vn 0.960842 -0.241780 -0.135371
vn 0.960842 -0.241780 -0.135371
vn 0.960842 -0.241780 -0.135371
vn 0.960842 -0.241780 -0.135371
vn 0.998841 -0.002362 0.048074
vn 0.998841 -0.002362 0.048074
vn 0.998841 -0.002362 0.048074
vn -0.002426 -0.107979 0.994150
vn -0.002426 -0.107979 0.994150
vn -0.002426 -0.107979 0.994150
vn 0.746955 0.004339 0.664861
vn 0.746955 0.004339 0.664861
vn 0.746955 0.004339 0.664861
vn -0.331111 0.304383 -0.893150
vn -0.331111 0.304383 -0.893150
vn -0.331111 0.304383 -0.893150
vn -0.783409 0.488543 -0.384183
vn -0.783409 0.488543 -0.384183
vn -0.783409 0.488543 -0.384183
vn 0.656801 -0.443433 -0.609902
vn 0.656801 -0.443433 -0.609902
vn 0.656801 -0.443433 -0.609902
vn -0.673639 -0.073249 0.735421
vn -0.673639 -0.073249 0.735421
vn -0.673639 -0.073249 0.735421
vn -0.673639 -0.073249 0.735421
vn -0.454201 0.117367 0.883135
vn -0.454201 0.117367 0.883135
vn -0.454201 0.117367 0.883135
vn 0.864291 0.393315 0.313536
vn 0.864291 0.393315 0.313536
vn 0.864291 0.393315 0.313536
vn 0.934685 0.157156 -0.318850
vn 0.934685 0.157156 -0.318850
vn 0.934685 0.157156 -0.318850
vn -0.541061 -0.286317 -0.790744
vn -0.541061 -0.286317 -0.790744
vn -0.541061 -0.286317 -0.790744
vn -0.198428 -0.098931 -0.975110
vn -0.198428 -0.098931 -0.975110
vn -0.198428 -0.098931 -0.975110
vn -0.041461 0.369589 0.928270
vn -0.041461 0.369589 0.928270
vn -0.041461 0.369589 0.928270
vn 0.363781 0.127231 0.922755
vn 0.363781 0.127231 0.922755
vn 0.363781 0.127231 0.922755
vn 0.363781 0.127231 0.922755
vn 0.723753 0.244097 0.645445
vn 0.723753 0.244097 0.645445
vn 0.723753 0.244097 0.645445
vn -0.956405 -0.291263 0.021361
vn -0.956404 -0.291263 0.021361
vn -0.956404 -0.291263 0.021361
vn -0.841792 -0.126095 0.524868
vn -0.841792 -0.126095 0.524868
vn -0.841792 -0.126095 0.524868
vn 0.974110 -0.094277 -0.205478
vn 0.974110 -0.094277 -0.205478
vn 0.974110 -0.094277 -0.205478
vn 0.752841 -0.043191 -0.656784
vn 0.752841 -0.043191 -0.656784
vn 0.752841 -0.043191 -0.656784
vn -0.856114 -0.267086 -0.442419
vn -0.856114 -0.267086 -0.442419
vn -0.856113 -0.267086 -0.442419
vn -0.035459 0.367242 0.929449
vn -0.035459 0.367242 0.929449
vn -0.035459 0.367242 0.929449
vn 0.930229 -0.187722 0.315333
vn 0.930229 -0.187722 0.315333
vn 0.930229 -0.187722 0.315333
vn 0.930229 -0.187722 0.315333
vn 0.384649 -0.196041 0.902005
vn 0.384649 -0.196041 0.902005
vn 0.384649 -0.196041 0.902005
vn -0.367230 0.295404 -0.881974
vn -0.367230 0.295404 -0.881974
vn -0.367230 0.295404 -0.881974
vn 0.431000 -0.218886 0.875402
vn 0.431000 -0.218886 0.875401
vn 0.431000 -0.218886 0.875401
vn 0.431000 -0.218886 0.875401
vn -0.842891 -0.161178 0.513378
vn -0.842891 -0.161178 0.513378
vn -0.842891 -0.161178 0.513378
vn -0.546405 -0.229677 0.805413
vn -0.546405 -0.229677 0.805413
vn -0.546405 -0.229677 0.805413
vn -0.546405 -0.229677 0.805413
vn 0.756908 -0.037894 -0.652421
vn 0.756908 -0.037894 -0.652421
vn 0.756908 -0.037894 -0.652421
vn 0.758235 0.264421 -0.595954
vn 0.758235 0.264421 -0.595954
vn 0.758235 0.264421 -0.595954
vn 0.047929 -0.102956 0.993531
vn 0.047929 -0.102956 0.993531
vn 0.047929 -0.102956 0.993531
vn -0.227125 -0.101428 -0.968569
vn -0.227125 -0.101428 -0.968569
vn -0.227125 -0.101428 -0.968569
vn -0.140368 -0.364585 0.920529
vn -0.140368 -0.364585 0.920530
vn -0.140368 -0.364585 0.920530
vn -0.522095 -0.225429 0.822556
vn -0.522095 -0.225429 0.822556
vn -0.522095 -0.225429 0.822556
vn -0.704553 0.272119 0.655406
vn -0.704553 0.272119 0.655406
vn -0.704553 0.272119 0.655406
vn -0.999931 -0.000291 -0.011745
vn -0.999931 -0.000291 -0.011745
vn -0.999931 -0.000291 -0.011745
vn 0.929257 -0.192931 0.315054
vn 0.929257 -0.192931 0.315054
vn 0.929257 -0.192931 0.315053
vn 0.999665 -0.001512 0.025828
vn 0.999665 -0.001512 0.025828
vn 0.999665 -0.001512 0.025828
vn 0.667288 -0.540709 0.512211
vn 0.678304 -0.602036 0.421257
vn 0.681176 -0.650409 0.336107
vn 0.681176 -0.650409 0.336107
vn 0.132417 0.261727 -0.956015
vn 0.132417 0.261727 -0.956015
vn 0.132417 0.261727 -0.956015
vn -0.031885 0.062134 -0.997558
vn -0.031885 0.062134 -0.997558
vn -0.031885 0.062134 -0.997558
vn 0.906135 0.119553 0.405741
vn 0.906135 0.119553 0.405741
vn 0.906135 0.119553 0.405741
vn 0.934156 0.158526 -0.319723
vn 0.934156 0.158526 -0.319723
vn 0.934156 0.158526 -0.319723
vn -0.844623 -0.477761 0.241569
vn -0.844623 -0.477761 0.241569
vn -0.844623 -0.477761 0.241569
vn -0.699422 -0.301906 -0.647813
vn -0.699422 -0.301906 -0.647813
vn -0.699422 -0.301906 -0.647813
vn -0.757072 0.346057 -0.554154
vn -0.757072 0.346057 -0.554154
vn -0.757072 0.346057 -0.554154
vn -0.819918 0.463478 -0.336041
vn -0.819918 0.463478 -0.336041
vn -0.819918 0.463478 -0.336041
vn 0.696951 -0.180676 -0.693985
vn 0.696951 -0.180676 -0.693985
vn 0.696951 -0.180676 -0.693985
vn -0.956413 -0.291232 0.021396
vn -0.956413 -0.291232 0.021396
vn -0.956413 -0.291232 0.021396
vn 0.459311 -0.198556 0.865800
vn 0.459311 -0.198556 0.865800
vn 0.459311 -0.198556 0.865800
vn -0.155518 -0.348767 0.924216
vn -0.155518 -0.348767 0.924216
vn -0.155518 -0.348768 0.924216
vn 0.726563 -0.171292 -0.665406
vn 0.726563 -0.171292 -0.665406
vn 0.726563 -0.171292 -0.665406
vn -0.095736 -0.137707 -0.985835
vn -0.095736 -0.137707 -0.985835
vn -0.095736 -0.137707 -0.985835
vn -0.690320 -0.019685 -0.723236
vn -0.690320 -0.019685 -0.723236
vn -0.690320 -0.019685 -0.723236
vn -0.690320 -0.019685 -0.723236
vn -0.073371 -0.123978 -0.989569
vn -0.073371 -0.123978 -0.989569
vn -0.073371 -0.123978 -0.989569
vn -0.260271 0.661447 0.703383
vn -0.260271 0.661447 0.703383
vn -0.260271 0.661447 0.703383
vn -0.035366 0.367347 0.929411
vn -0.035366 0.367347 0.929411
vn -0.035366 0.367347 0.929411
vn 0.723736 0.245442 0.644953
vn 0.723736 0.245442 0.644953
vn 0.723736 0.245442 0.644953
vn -0.135549 -0.250734 0.958519
vn -0.114423 -0.218376 0.969133
vn 0.662032 -0.519624 0.540097
s off
g Crystal:Group29522
usemtl lambert2SG
f 26/20/1 58/18/2 34/14/3
f 35/46/4 29/52/5 17/55/6
f 25/32/7 38/36/8 23/28/9
f 20/44/10 6/45/11 27/39/12 40/38/13
f 41/5/14 2/2/15 28/1/16
f 7/58/17 2/59/18 61/60/19 36/61/20
f 28/1/21 2/2/22 7/3/23 56/4/24
f 16/16/25 48/15/26 63/13/27 32/8/28
f 27/69/29 46/72/30 13/67/31
f 29/52/32 35/46/33 4/47/34 44/53/35
f 58/18/36 10/7/37 34/14/38
f 31/23/39 54/22/40 26/20/41
f 58/83/42 4/84/43 49/85/44
f 4/84/45 25/88/46 49/85/47
f 23/28/48 11/29/49 2/30/50
f 22/66/51 27/69/52 13/67/53
f 55/51/54 12/48/55 51/54/56
f 11/29/57 53/31/58 47/33/59 43/34/60
f 13/67/61 18/63/62 36/61/63
f 42/68/64 18/63/65 13/67/66
f 31/96/67 8/90/68 14/91/69 54/97/70
f 60/86/71 44/87/72 4/84/73 58/83/74
f 35/46/75 59/35/76 38/36/77 4/47/78
f 15/9/79 41/5/80 50/11/81
f 48/15/82 5/6/83 63/13/84
f 46/72/85 42/68/86 13/67/87
s 1
f 39/75/88 6/76/89 20/78/90 24/79/91
s off
f 31/96/92 17/98/93 8/90/94
f 17/55/95 20/44/96 55/51/97
f 7/58/98 36/61/99 18/63/100 56/64/101
f 5/6/102 56/4/103 32/8/104
f 10/94/105 58/83/106 19/89/107
f 2/2/108 10/7/109 19/10/110
f 20/44/111 17/55/112 31/56/113
f 3/37/114 62/42/115 12/48/116 21/43/117
f 11/65/118 30/62/119 2/59/120
f 30/40/121 11/29/122 43/34/123 22/41/124
f 59/35/125 23/28/126 38/36/127
f 3/37/128 53/31/129 59/35/130 62/42/131
f 9/21/132 26/20/133 34/14/134 45/17/135
f 50/11/136 45/17/137 15/9/138
f 42/68/139 46/72/140 57/74/141
f 16/16/142 37/19/143 48/15/144
f 25/88/145 2/93/146 49/85/147
f 25/32/148 23/28/149 2/30/150
f 9/21/151 31/23/152 26/20/153
f 40/38/154 27/39/155 43/34/156 47/33/157
f 27/69/158 22/66/159 43/73/160
f 56/4/161 5/6/162 28/1/163
f 41/5/164 28/1/165 5/6/166
f 29/52/167 8/57/168 17/55/169
f 8/90/170 44/87/171 60/86/172
f 36/61/173 22/66/174 13/67/175
f 16/70/176 32/71/177 18/63/178 42/68/179
f 32/8/180 56/4/181 18/12/182
f 33/50/183 21/43/184 12/48/185
f 21/43/186 40/38/187 47/33/188
f 45/17/189 34/14/190 15/9/191
f 34/14/192 10/7/193 15/9/194
f 35/46/195 51/54/196 12/48/197
f 22/66/198 36/61/199 30/62/200
f 37/19/201 52/24/202 9/21/203 45/17/204
f 16/70/205 39/75/206 37/77/207
f 38/92/208 25/88/209 4/84/210
f 37/77/211 39/75/212 24/79/213 52/80/214
f 33/50/215 40/38/216 21/43/217
f 20/44/218 40/38/219 33/50/220 55/51/221
f 10/7/222 41/5/223 15/9/224
f 41/5/225 10/7/226 2/2/227
f 16/70/228 42/68/229 57/74/230
f 44/87/231 8/90/232 29/95/233
f 46/72/234 6/76/235 57/74/236
f 27/39/237 6/45/238 46/49/239
f 3/37/240 47/33/241 53/31/242
f 21/43/243 47/33/244 3/37/245
f 37/19/246 45/17/247 48/15/248
f 48/15/249 45/17/250 50/11/251
s 2
f 1/26/252 9/21/253 52/24/254 24/27/255
s off
f 49/85/256 2/93/257 19/89/258
f 58/83/259 49/85/260 19/89/261
f 48/15/262 50/11/263 5/6/264
f 5/6/265 50/11/266 41/5/267
f 17/55/268 55/51/269 51/54/270
f 51/54/271 35/46/272 17/55/273
f 53/31/274 23/28/275 59/35/276
f 53/31/277 11/29/278 23/28/279
f 26/20/280 54/22/281 58/18/282
f 55/51/283 33/50/284 12/48/285
f 16/70/286 57/74/287 39/75/288
f 39/75/289 57/74/290 6/76/291
f 58/18/292 54/22/293 14/25/294
f 60/86/295 14/91/296 8/90/297
f 35/46/298 12/48/299 62/42/300 59/35/301
f 14/91/302 60/86/303 58/83/304
f 30/62/305 61/60/306 2/59/307
f 30/62/308 36/61/309 61/60/310
f 63/13/311 5/6/312 32/8/313
s 1
f 1/81/314 20/78/90 31/82/315
s 2
f 1/26/252 31/23/316 9/21/253
s 1
f 24/79/91 20/78/90 1/81/314
