# This file uses centimeters as units for non-parametric coordinates.

mtllib M_BrickMed.mtl
g default
v -2.025494 -0.379796 -2.422613
v -2.025494 -0.610568 -2.020849
v -2.262129 -0.373959 -2.024317
v 1.138742 -0.377424 -2.260750
v 0.902107 -0.614033 -2.257282
v 0.902107 -0.380884 -2.496844
v -2.262129 -0.314787 2.013088
v -2.025494 -0.551396 2.016556
v -2.025494 -0.311327 2.249182
v 0.902107 -0.311327 2.249182
v 0.902107 -0.556563 1.664013
v 1.138742 -0.319954 1.660545
v -2.262129 2.604421 1.418971
v -1.881569 2.593162 2.065975
v -2.025494 2.841031 1.415503
v 0.902107 2.847415 1.851140
v 0.902107 2.615960 2.206280
v 1.138742 2.610806 1.854608
v -2.262129 2.549863 -2.303652
v -2.025494 2.786472 -2.307120
v -2.025494 2.546402 -2.539745
v 0.902107 2.548415 -2.402424
v 0.902107 2.790082 -2.060788
v 1.138742 2.553473 -2.057321
v -2.262129 1.805486 -2.292743
v -2.262129 1.864528 1.735827
v -2.025494 1.871583 2.217189
v 0.902107 1.871583 2.217189
v 1.138742 1.868123 1.981096
v 1.138742 1.805486 -2.292743
v 0.902107 1.802026 -2.528836
v -2.025494 1.802026 -2.528836
v -1.986195 -0.533898 0.524542
v 0.799214 -0.533898 0.524542
v 1.138742 -0.261968 0.520557
v 1.138742 1.829615 0.489903
v 1.086644 2.562567 0.479161
v 0.902107 2.787894 0.475858
v -1.926790 2.787894 0.475858
v -2.262129 2.493071 0.480179
v -2.262129 1.829615 0.489902
v -2.262129 -0.251836 0.520408
v -0.624584 -0.328058 -2.497618
v -0.624584 1.776066 -2.528455
v -0.624584 2.493577 -2.538971
v -0.624584 2.725106 -2.306221
v -0.624584 2.727949 0.476737
v -0.624584 2.786733 1.898718
v -0.624584 2.562124 2.138155
v -0.624584 1.844613 2.148670
v -0.624584 -0.259511 2.179508
v -0.624584 -0.491041 1.946757
v -0.624584 -0.473953 0.523663
v -0.624584 -0.552668 -2.258182
vt 0.502114 0.239433
vt 0.497508 0.162882
vt 0.535404 0.161174
vt 0.539121 0.231373
vt 0.389562 0.167660
vt 0.388678 0.226307
vt 0.491811 0.020151
vt 0.530097 0.031148
vt 0.555993 0.231519
vt 0.550440 0.160516
vt 0.502915 0.256820
vt 0.542838 0.252531
vt 0.380289 0.025232
vt 0.388996 0.259061
vt 0.367009 0.168614
vt 0.371745 0.228329
vt 0.491459 0.002787
vt 0.532262 0.009796
vt 0.547120 0.029842
vt 0.378368 0.008442
vt 0.363350 0.025074
vt 0.583360 0.159581
vt 0.617837 0.159581
vt 0.616756 0.222037
vt 0.580271 0.206575
vt 0.580271 0.019115
vt 0.617491 0.019040
vt 0.722651 0.160129
vt 0.725481 0.234571
vt 0.616037 0.249086
vt 0.577289 0.243802
vt 0.563817 0.208578
vt 0.560632 0.159658
vt 0.617753 0.001929
vt 0.577859 0.002843
vt 0.727222 0.031932
vt 0.563549 0.018330
vt 0.742665 0.160342
vt 0.741743 0.236167
vt 0.726194 0.251004
vt 0.728780 0.008757
vt 0.743935 0.031284
vt 0.434922 0.437752
vt 0.434667 0.401071
vt 0.511573 0.402620
vt 0.511615 0.439799
vt 0.363160 0.401588
vt 0.369609 0.439420
vt 0.435627 0.294395
vt 0.512401 0.292979
vt 0.434369 0.454451
vt 0.510744 0.461049
vt 0.364669 0.291085
vt 0.360320 0.475157
vt 0.435863 0.277852
vt 0.511413 0.261568
vt 0.365580 0.274364
vt 0.599130 0.326775
vt 0.599277 0.290220
vt 0.676763 0.287733
vt 0.676338 0.325934
vt 0.527097 0.286568
vt 0.526340 0.325426
vt 0.599969 0.273481
vt 0.678131 0.266769
vt 0.598577 0.433479
vt 0.675699 0.436464
vt 0.527664 0.269325
vt 0.527242 0.436709
vt 0.598292 0.450054
vt 0.675427 0.453412
vt 0.526727 0.460330
vt 0.434932 0.645942
vt 0.432434 0.584849
vt 0.489482 0.586157
vt 0.495457 0.631024
vt 0.374102 0.580753
vt 0.362141 0.648507
vt 0.438694 0.474244
vt 0.498207 0.478084
vt 0.382163 0.478883
vt 0.828930 0.085606
vt 0.828936 0.011735
vt 0.908283 0.014123
vt 0.908233 0.085609
vt 0.756083 0.036726
vt 0.761268 0.085606
vt 0.828924 0.230051
vt 0.908256 0.217305
vt 0.756124 0.230089
vn -0.195706 -0.032682 -0.980118
vn -0.996125 -0.006002 -0.087742
vn -0.959256 0.276470 -0.058245
vn -0.114624 0.210996 -0.970743
vn -0.006488 -0.998181 -0.059945
vn -0.015634 -0.131549 -0.991186
vn 0.125492 -0.107238 -0.986282
vn 0.106275 -0.993537 -0.039884
vn -0.994736 -0.102458 0.001524
vn -0.115500 -0.993202 0.014501
vn -0.109497 -0.987083 0.116951
vn -0.985542 -0.095535 0.139928
vn 0.996331 0.011388 -0.084825
vn 0.149349 0.014444 -0.988679
vn 0.184078 0.340684 -0.921981
vn 0.976720 0.210036 -0.043626
vn 0.097679 -0.995114 0.014406
vn 0.993825 -0.110948 0.001671
vn 0.988626 -0.101441 0.111035
vn 0.089889 -0.991114 0.098042
vn -0.987753 0.034506 0.152161
vn -0.219913 0.060412 0.973647
vn -0.258554 0.469434 0.844264
vn -0.958919 0.263300 0.105580
vn 0.004375 -0.120161 0.992745
vn 0.009816 -0.989823 0.141967
vn 0.185703 -0.148296 0.971351
vn 0.179338 0.008964 0.983747
vn 0.988206 0.002771 0.153109
vn 0.973564 0.213269 0.081796
vn 0.100516 0.293886 0.950541
vn -0.103138 0.993415 0.049891
vn -0.107355 0.994111 -0.014795
vn -0.964443 0.264266 -0.003635
vn -0.020860 0.991682 0.127011
vn -0.038403 0.378862 0.924656
vn 0.080764 0.993167 0.084243
vn 0.973520 0.228575 -0.003383
vn 0.093543 0.995508 -0.014605
vn 0.029697 0.272509 -0.961695
vn 0.007739 0.995976 -0.089281
vn 0.083227 0.994557 -0.062687
vn 0.000109 -0.999893 0.014658
vn -0.005794 0.025657 0.999654
vn -0.000182 0.999893 -0.014651
vn -0.003903 -0.008618 -0.999955
vn 0.999963 0.008578 -0.000120
vn -1.000000 -0.000000 0.000000
vn -0.209197 -0.159738 -0.964739
vn -0.102874 -0.994214 -0.030894
vn -0.992846 -0.100458 -0.064537
vn 0.990755 -0.116889 -0.068852
vn -0.162987 -0.068253 0.984265
vn -0.120707 0.990405 -0.067288
s 1
g pCube212
usemtl lambert5SG
f 32/34/1 25/27/2 19/26/3 21/35/4
f 54/70/5 43/66/6 6/67/7 5/71/8
f 42/28/9 33/38/10 8/39/11 7/29/12
f 30/7/13 31/17/14 22/18/15 24/8/16
f 34/15/17 35/5/18 12/6/19 11/16/20
f 26/24/21 27/30/22 14/31/23 13/25/24
f 51/49/25 52/55/26 11/56/20 10/50/27
f 28/11/28 29/1/29 18/4/30 17/12/31
f 13/25/24 15/32/32 39/33/33 40/22/34
f 48/51/35 49/43/36 17/46/31 16/52/37
f 16/9/37 18/4/30 37/3/38 38/10/39
f 45/59/40 46/64/41 23/65/42 22/60/15
f 52/73/26 53/74/43 34/75/17 11/76/20
f 49/43/36 50/44/44 28/45/28 17/46/31
f 47/82/45 48/83/35 16/84/37 38/85/39
f 44/58/46 45/59/40 22/60/15 31/61/14
f 29/1/29 36/2/47 37/3/38 18/4/30
f 40/22/34 41/23/48 26/24/21 13/25/24
f 1/41/49 2/42/50 3/36/51
f 4/13/52 5/21/8 6/20/7
f 7/29/12 8/39/11 9/40/53
f 10/14/27 11/16/20 12/6/19
f 13/25/24 14/31/23 15/32/32
f 16/9/37 17/12/31 18/4/30
f 19/26/3 20/37/54 21/35/4
f 22/18/15 23/19/42 24/8/16
f 26/24/21 41/23/48 42/28/9 7/29/12
f 7/29/12 9/40/53 27/30/22 26/24/21
f 50/44/44 51/49/25 10/50/27 28/45/28
f 10/14/27 12/6/19 29/1/29 28/11/28
f 35/5/18 36/2/47 29/1/29 12/6/19
f 4/13/52 6/20/7 31/17/14 30/7/13
f 43/66/6 44/58/46 31/61/14 6/67/7
f 1/41/49 3/36/51 25/27/2 32/34/1
f 53/74/43 54/79/5 5/80/8 34/75/17
f 5/21/8 4/13/52 35/5/18 34/15/17
f 4/13/52 30/7/13 36/2/47 35/5/18
f 37/3/38 36/2/47 30/7/13 24/8/16
f 38/10/39 37/3/38 24/8/16 23/19/42
f 46/88/41 47/82/45 38/85/39 23/89/42
f 40/22/34 39/33/33 20/37/54 19/26/3
f 19/26/3 25/27/2 41/23/48 40/22/34
f 42/28/9 41/23/48 25/27/2 3/36/51
f 3/36/51 2/42/50 33/38/10 42/28/9
f 32/63/1 44/58/46 43/66/6 1/69/49
f 21/62/4 45/59/40 44/58/46 32/63/1
f 21/62/4 20/68/54 46/64/41 45/59/40
f 39/87/33 47/82/45 46/88/41 20/90/54
f 15/86/32 48/83/35 47/82/45 39/87/33
f 15/54/32 14/48/23 49/43/36 48/51/35
f 27/47/22 50/44/44 49/43/36 14/48/23
f 9/53/53 51/49/25 50/44/44 27/47/22
f 9/53/53 8/57/11 52/55/26 51/49/25
f 33/77/10 53/74/43 52/73/26 8/78/11
f 2/81/50 54/79/5 53/74/43 33/77/10
f 2/72/50 1/69/49 43/66/6 54/70/5
