# This file uses centimeters as units for non-parametric coordinates.

mtllib M_Bridge.mtl
g default
v 3.625653 0.216542 3.111479
v 3.617651 -0.072405 3.113945
v 3.666276 0.163693 -2.947948
v 3.658275 -0.125254 -2.945482
v 2.521636 0.195321 -2.955898
v 2.513634 -0.093627 -2.953432
v 2.481012 0.248170 3.103529
v 2.473011 -0.040778 3.105996
v 3.788411 -0.072321 3.119364
v 3.796588 0.216632 3.119727
v 3.670059 -0.061363 -2.939265
v 3.678236 0.227590 -2.938902
v 4.814487 -0.093717 -2.961679
v 4.822664 0.195236 -2.961317
v 4.932840 -0.104674 3.096949
v 4.941016 0.184279 3.097312
v 2.934094 0.205470 -2.729845
v 2.981272 0.181981 -2.677144
v 3.004760 0.229159 -2.729845
v 2.679247 -0.424652 -2.729845
v 2.702735 -0.377474 -2.677144
v 2.655558 -0.353986 -2.729845
v 11.677637 -4.088806 -2.729845
v 11.654148 -4.135983 -2.677144
v 11.701326 -4.159472 -2.729845
v 11.422790 -4.718927 -2.729845
v 11.375612 -4.695439 -2.677144
v 11.352124 -4.742617 -2.729845
v 11.677637 -4.088806 -3.364775
v 11.701326 -4.159472 -3.364775
v 11.654148 -4.135983 -3.417476
v 11.375612 -4.695439 -3.417476
v 11.422790 -4.718927 -3.364775
v 11.352124 -4.742617 -3.364775
v 3.004760 0.229159 -3.364775
v 2.981272 0.181981 -3.417476
v 2.934094 0.205470 -3.364775
v 2.655558 -0.353986 -3.364775
v 2.702735 -0.377474 -3.417476
v 2.679247 -0.424652 -3.364775
v 7.680088 -2.192821 -2.714686
v 7.429801 -2.695536 -2.714686
v 7.408695 -2.737928 -2.762043
v 7.408695 -2.737928 -3.332577
v 7.429801 -2.695536 -3.379934
v 7.680088 -2.192821 -3.379934
v 7.701194 -2.150428 -3.332577
v 7.701194 -2.150428 -2.762043
v 2.934094 0.205470 3.261086
v 2.981272 0.181981 3.313787
v 3.004760 0.229159 3.261086
v 2.679247 -0.424652 3.261086
v 2.702735 -0.377474 3.313787
v 2.655558 -0.353986 3.261086
v 11.677637 -4.088806 3.261086
v 11.654148 -4.135983 3.313787
v 11.701326 -4.159472 3.261086
v 11.422790 -4.718927 3.261086
v 11.375612 -4.695439 3.313787
v 11.352124 -4.742617 3.261086
v 11.677637 -4.088806 2.626156
v 11.701326 -4.159472 2.626156
v 11.654148 -4.135983 2.573455
v 11.375612 -4.695439 2.573455
v 11.422790 -4.718927 2.626156
v 11.352124 -4.742617 2.626156
v 3.004760 0.229159 2.626156
v 2.981272 0.181981 2.573455
v 2.934094 0.205470 2.626156
v 2.655558 -0.353986 2.626156
v 2.702735 -0.377474 2.573455
v 2.679247 -0.424652 2.626156
v 7.680088 -2.192821 3.276245
v 7.429801 -2.695536 3.276245
v 7.408695 -2.737928 3.228889
v 7.408695 -2.737928 2.658354
v 7.429801 -2.695536 2.610998
v 7.680088 -2.192821 2.610998
v 7.701194 -2.150428 2.658354
v 7.701194 -2.150428 3.228889
v -2.323292 -0.181176 3.327601
v -2.371051 -0.203460 3.380302
v -2.348767 -0.251218 3.327601
v -2.657588 0.410640 3.327601
v -2.635304 0.362882 3.380302
v -2.587546 0.385166 3.327601
v -11.128397 -4.347767 3.327601
v -11.150681 -4.300009 3.380302
v -11.198439 -4.322293 3.327601
v -11.462692 -3.755951 3.327601
v -11.414934 -3.733667 3.380302
v -11.437218 -3.685909 3.327601
v -11.128397 -4.347767 2.692671
v -11.198439 -4.322293 2.692671
v -11.150681 -4.300009 2.639970
v -11.414934 -3.733667 2.639970
v -11.462692 -3.755951 2.692671
v -11.437218 -3.685909 2.692671
v -2.348767 -0.251218 2.692671
v -2.371051 -0.203460 2.639970
v -2.323292 -0.181176 2.692671
v -2.587546 0.385166 2.692671
v -2.635304 0.362882 2.639970
v -2.657588 0.410640 2.692671
v -7.155403 -2.400852 3.342760
v -7.392856 -1.891949 3.342760
v -7.412879 -1.849035 3.295403
v -7.412879 -1.849035 2.724869
v -7.392856 -1.891949 2.677512
v -7.155403 -2.400852 2.677512
v -7.135379 -2.443767 2.724869
v -7.135379 -2.443767 3.295403
v 10.192930 0.346031 3.349953
v 10.140229 0.398518 3.354703
v 10.140229 0.341281 3.402440
v 10.140229 0.407101 2.675051
v 10.140229 0.454838 2.732287
v 10.192930 0.402351 2.727538
v 0.451905 0.341281 3.402440
v 0.451905 0.398518 3.354703
v 0.399204 0.346031 3.349953
v 0.399204 0.402351 2.727538
v 0.451905 0.454838 2.732287
v 0.451905 0.407101 2.675051
v 0.451905 -0.291065 3.345221
v 0.399204 -0.286316 3.292734
v 0.451905 -0.338802 3.287985
v 0.451905 -0.282482 2.665569
v 0.399204 -0.229995 2.670319
v 0.451905 -0.225246 2.617832
v 10.140229 -0.291065 3.345221
v 10.140229 -0.338802 3.287985
v 10.192930 -0.286316 3.292734
v 10.192930 -0.229995 2.670319
v 10.140229 -0.282482 2.665569
v 10.140229 -0.225246 2.617832
v 4.875483 0.363984 3.319757
v 4.875483 0.414592 2.760467
v 4.875483 0.371696 2.709036
v 4.875483 -0.196517 2.657620
v 4.875483 -0.247948 2.700516
v 4.875483 -0.298556 3.259805
v 4.875483 -0.255661 3.311236
v 4.875483 0.312552 3.362652
v 0.485441 -0.254461 3.327601
v 0.432740 -0.254461 3.380302
v 0.432740 -0.307162 3.327601
v 0.432740 0.423199 3.327601
v 0.432740 0.370497 3.380302
v 0.485441 0.370497 3.327601
v -9.255584 -0.307162 3.327601
v -9.255584 -0.254461 3.380302
v -9.308286 -0.254461 3.327601
v -9.308286 0.370497 3.327601
v -9.255584 0.370497 3.380302
v -9.255584 0.423199 3.327601
v -9.255584 -0.307162 2.692671
v -9.308286 -0.254461 2.692671
v -9.255584 -0.254461 2.639970
v -9.255584 0.370497 2.639970
v -9.308286 0.370497 2.692671
v -9.255584 0.423199 2.692671
v 0.432740 -0.307162 2.692671
v 0.432740 -0.254461 2.639970
v 0.485441 -0.254461 2.692671
v 0.485441 0.370497 2.692671
v 0.432740 0.370497 2.639970
v 0.432740 0.423199 2.692671
v -4.832007 -0.222769 3.342760
v -4.832007 0.338805 3.342760
v -4.832007 0.386162 3.295403
v -4.832007 0.386162 2.724869
v -4.832007 0.338805 2.677512
v -4.832007 -0.222769 2.677512
v -4.832007 -0.270125 2.724869
v -4.832007 -0.270125 3.295403
v -2.323292 -0.293560 -2.729845
v -2.371051 -0.315844 -2.677144
v -2.348767 -0.363602 -2.729845
v -2.657588 0.298256 -2.729845
v -2.635304 0.250498 -2.677144
v -2.587546 0.272782 -2.729845
v -11.128397 -4.460152 -2.729845
v -11.150681 -4.412394 -2.677144
v -11.198439 -4.434678 -2.729845
v -11.462692 -3.868335 -2.729845
v -11.414934 -3.846052 -2.677144
v -11.437218 -3.798293 -2.729845
v -11.128397 -4.460152 -3.364775
v -11.198439 -4.434678 -3.364775
v -11.150681 -4.412394 -3.417476
v -11.414934 -3.846052 -3.417476
v -11.462692 -3.868335 -3.364775
v -11.437218 -3.798293 -3.364775
v -2.348767 -0.363602 -3.364775
v -2.371051 -0.315844 -3.417476
v -2.323292 -0.293560 -3.364775
v -2.587546 0.272782 -3.364775
v -2.635304 0.250498 -3.417476
v -2.657588 0.298256 -3.364775
v -7.155403 -2.513237 -2.714686
v -7.392856 -2.004334 -2.714686
v -7.412879 -1.961419 -2.762043
v -7.412879 -1.961419 -3.332577
v -7.392856 -2.004334 -3.379934
v -7.155403 -2.513237 -3.379934
v -7.135379 -2.556151 -3.332577
v -7.135379 -2.556151 -2.762043
v -1.412632 -0.072321 3.117900
v -1.404457 0.216632 3.118286
v -1.513980 -0.061363 -2.941037
v -1.505805 0.227590 -2.940651
v -0.369493 -0.093717 -2.960239
v -0.361318 0.195236 -2.959853
v -0.268146 -0.104674 3.098698
v -0.259971 0.184279 3.099084
v -3.873021 0.173858 -2.975137
v -3.864668 -0.115084 -2.973278
v -4.156521 0.204605 3.077944
v -4.148168 -0.084337 3.079803
v -3.013148 0.237999 3.131325
v -3.004796 -0.050943 3.133184
v -2.729649 0.207252 -2.921756
v -2.721296 -0.081690 -2.919897
v -4.055448 -0.072321 -2.943708
v -4.063609 0.216632 -2.944326
v -4.126122 -0.061363 3.115664
v -4.134283 0.227590 3.115047
v -5.270692 -0.093717 3.102373
v -5.278853 0.195236 3.101755
v -5.200019 -0.104674 -2.956999
v -5.208180 0.184279 -2.957617
v -6.511594 -0.072321 3.119364
v -6.503417 0.216632 3.119727
v -6.629946 -0.061363 -2.939265
v -6.621769 0.227590 -2.938902
v -5.485518 -0.093717 -2.961679
v -5.477341 0.195236 -2.961317
v -5.367165 -0.104674 3.096949
v -5.358989 0.184279 3.097312
v -6.674352 0.216542 3.111479
v -6.682354 -0.072405 3.113945
v -6.633729 0.163693 -2.947948
v -6.641730 -0.125254 -2.945482
v -7.778369 0.195321 -2.955898
v -7.786370 -0.093627 -2.953432
v -7.818993 0.248170 3.103529
v -7.826994 -0.040778 3.105996
v 0.485441 1.126961 3.327601
v 0.432740 1.126961 3.380302
v 0.432740 1.074259 3.327601
v 0.432740 1.804620 3.327601
v 0.432740 1.751919 3.380302
v 0.485441 1.751919 3.327601
v -9.255584 1.074259 3.327601
v -9.255584 1.126961 3.380302
v -9.308286 1.126961 3.327601
v -9.308286 1.751919 3.327601
v -9.255584 1.751919 3.380302
v -9.255584 1.804620 3.327601
v -9.255584 1.074259 2.692671
v -9.308286 1.126961 2.692671
v -9.255584 1.126961 2.639970
v -9.255584 1.751919 2.639970
v -9.308286 1.751919 2.692671
v -9.255584 1.804620 2.692671
v 0.432740 1.074259 2.692671
v 0.432740 1.126961 2.639970
v 0.485441 1.126961 2.692671
v 0.485441 1.751919 2.692671
v 0.432740 1.751919 2.639970
v 0.432740 1.804620 2.692671
v -4.832007 1.158653 3.342760
v -4.832007 1.720227 3.342760
v -4.832007 1.767583 3.295403
v -4.832007 1.767583 2.724869
v -4.832007 1.720227 2.677512
v -4.832007 1.158653 2.677512
v -4.832007 1.111296 2.724869
v -4.832007 1.111296 3.295403
v 10.192930 1.727453 3.349953
v 10.140229 1.779940 3.354703
v 10.140229 1.722703 3.402440
v 10.140229 1.788522 2.675051
v 10.140229 1.836260 2.732287
v 10.192930 1.783773 2.727538
v 0.451905 1.722703 3.402440
v 0.451905 1.779940 3.354703
v 0.399204 1.727453 3.349953
v 0.399204 1.783773 2.727538
v 0.451905 1.836260 2.732287
v 0.451905 1.788522 2.675051
v 0.451905 1.090357 3.345221
v 0.399204 1.095106 3.292734
v 0.451905 1.042619 3.287985
v 0.451905 1.098940 2.665569
v 0.399204 1.151427 2.670319
v 0.451905 1.156176 2.617832
v 10.140229 1.090357 3.345221
v 10.140229 1.042619 3.287985
v 10.192930 1.095106 3.292734
v 10.192930 1.151427 2.670319
v 10.140229 1.098940 2.665569
v 10.140229 1.156176 2.617832
v 4.875483 1.745406 3.319757
v 4.875483 1.796014 2.760467
v 4.875483 1.753118 2.709036
v 4.875483 1.184905 2.657620
v 4.875483 1.133474 2.700516
v 4.875483 1.082865 3.259805
v 4.875483 1.125761 3.311236
v 4.875483 1.693974 3.362652
v 10.192930 1.727453 -2.779504
v 10.140229 1.779940 -2.774754
v 10.140229 1.722703 -2.727017
v 10.140229 1.788522 -3.454406
v 10.140229 1.836260 -3.397170
v 10.192930 1.783773 -3.401919
v 0.451905 1.722703 -2.727017
v 0.451905 1.779940 -2.774754
v 0.399204 1.727453 -2.779504
v 0.399204 1.783773 -3.401919
v 0.451905 1.836260 -3.397170
v 0.451905 1.788522 -3.454406
v 0.451905 1.090357 -2.784236
v 0.399204 1.095106 -2.836723
v 0.451905 1.042619 -2.841472
v 0.451905 1.098940 -3.463888
v 0.399204 1.151427 -3.459138
v 0.451905 1.156176 -3.511625
v 10.140229 1.090357 -2.784236
v 10.140229 1.042619 -2.841472
v 10.192930 1.095106 -2.836723
v 10.192930 1.151427 -3.459138
v 10.140229 1.098940 -3.463888
v 10.140229 1.156176 -3.511625
v 4.875483 1.745406 -2.809700
v 4.875483 1.796014 -3.368990
v 4.875483 1.753118 -3.420421
v 4.875483 1.184905 -3.471837
v 4.875483 1.133474 -3.428941
v 4.875483 1.082865 -2.869652
v 4.875483 1.125761 -2.818221
v 4.875483 1.693974 -2.766805
v 0.485441 1.126961 -2.801857
v 0.432740 1.126961 -2.749155
v 0.432740 1.074259 -2.801857
v 0.432740 1.804620 -2.801857
v 0.432740 1.751919 -2.749155
v 0.485441 1.751919 -2.801857
v -9.255584 1.074259 -2.801857
v -9.255584 1.126961 -2.749155
v -9.308286 1.126961 -2.801857
v -9.308286 1.751919 -2.801857
v -9.255584 1.751919 -2.749155
v -9.255584 1.804620 -2.801857
v -9.255584 1.074259 -3.436786
v -9.308286 1.126961 -3.436786
v -9.255584 1.126961 -3.489487
v -9.255584 1.751919 -3.489487
v -9.308286 1.751919 -3.436786
v -9.255584 1.804620 -3.436786
v 0.432740 1.074259 -3.436786
v 0.432740 1.126961 -3.489487
v 0.485441 1.126961 -3.436786
v 0.485441 1.751919 -3.436786
v 0.432740 1.751919 -3.489487
v 0.432740 1.804620 -3.436786
v -4.832007 1.158653 -2.786698
v -4.832007 1.720227 -2.786698
v -4.832007 1.767583 -2.834054
v -4.832007 1.767583 -3.404589
v -4.832007 1.720227 -3.451945
v -4.832007 1.158653 -3.451945
v -4.832007 1.111296 -3.404589
v -4.832007 1.111296 -2.834054
v -8.371023 0.077791 2.780974
v -8.370432 0.077791 3.141796
v -8.371023 1.606639 2.780974
v -8.370432 1.606639 3.141796
v -7.961519 1.606639 2.780303
v -7.960927 1.606639 3.141124
v -7.961519 0.077791 2.780303
v -7.960927 0.077791 3.141124
v 0.538159 0.077791 -3.243558
v 0.538751 0.077791 -2.882736
v 0.538159 1.606639 -3.243558
v 0.538751 1.606639 -2.882736
v 0.947664 1.606639 -3.244230
v 0.948256 1.606639 -2.883408
v 0.947664 0.077791 -3.244230
v 0.948256 0.077791 -2.883408
v 0.538159 0.077791 2.780974
v 0.538751 0.077791 3.141796
v 0.538159 1.606639 2.780974
v 0.538751 1.606639 3.141796
v 0.947664 1.606639 2.780303
v 0.948256 1.606639 3.141124
v 0.947664 0.077791 2.780303
v 0.948256 0.077791 3.141124
v -8.371023 0.077791 -3.243558
v -8.370432 0.077791 -2.882736
v -8.371023 1.606639 -3.243558
v -8.370432 1.606639 -2.882736
v -7.961519 1.606639 -3.244230
v -7.960927 1.606639 -2.883408
v -7.961519 0.077791 -3.244230
v -7.960927 0.077791 -2.883408
v 4.992751 0.077791 2.780974
v 4.993343 0.077791 3.141796
v 4.992751 1.606639 2.780974
v 4.993343 1.606639 3.141796
v 5.402256 1.606639 2.780303
v 5.402847 1.606639 3.141124
v 5.402256 0.077791 2.780303
v 5.402847 0.077791 3.141124
v 9.447342 0.077791 2.780974
v 9.447934 0.077791 3.141796
v 9.447342 1.606639 2.780974
v 9.447934 1.606639 3.141796
v 9.856847 1.606639 2.780303
v 9.857439 1.606639 3.141124
v 9.856847 0.077791 2.780303
v 9.857439 0.077791 3.141124
v -3.916432 0.077791 2.780974
v -3.915840 0.077791 3.141796
v -3.916432 1.606639 2.780974
v -3.915840 1.606639 3.141796
v -3.506927 1.606639 2.780303
v -3.506336 1.606639 3.141124
v -3.506927 0.077791 2.780303
v -3.506336 0.077791 3.141124
v -3.916432 0.077791 -3.243558
v -3.915840 0.077791 -2.882736
v -3.916432 1.606639 -3.243558
v -3.915840 1.606639 -2.882736
v -3.506927 1.606639 -3.244230
v -3.506336 1.606639 -2.883408
v -3.506927 0.077791 -3.244230
v -3.506336 0.077791 -2.883408
v 4.992751 0.077791 -3.243558
v 4.993343 0.077791 -2.882736
v 4.992751 1.606639 -3.243558
v 4.993343 1.606639 -2.882736
v 5.402256 1.606639 -3.244230
v 5.402847 1.606639 -2.883408
v 5.402256 0.077791 -3.244230
v 5.402847 0.077791 -2.883408
v 9.447342 0.077791 -3.243558
v 9.447934 0.077791 -2.882736
v 9.447342 1.606639 -3.243558
v 9.447934 1.606639 -2.882736
v 9.856847 1.606639 -3.244230
v 9.857439 1.606639 -2.883408
v 9.856847 0.077791 -3.244230
v 9.857439 0.077791 -2.883408
v 6.244557 -0.072321 -2.943708
v 6.236396 0.216632 -2.944326
v 6.173883 -0.061363 3.115664
v 6.165723 0.227590 3.115047
v 5.029313 -0.093717 3.102373
v 5.021152 0.195236 3.101755
v 5.099987 -0.104674 -2.956999
v 5.091825 0.184279 -2.957617
v 6.426985 0.173858 -2.975137
v 6.435338 -0.115084 -2.973278
v 6.143485 0.204605 3.077944
v 6.151838 -0.084337 3.079803
v 7.286858 0.237999 3.131325
v 7.295210 -0.050943 3.133184
v 7.570357 0.207252 -2.921756
v 7.578710 -0.081690 -2.919897
v 9.103249 -0.072321 3.136087
v 9.111432 0.216632 3.136154
v 8.765709 -0.061363 -2.914290
v 8.773893 0.227590 -2.914223
v 9.908577 -0.093717 -2.978107
v 9.916761 0.195236 -2.978040
v 10.246116 -0.104674 3.072270
v 10.254300 0.184279 3.072337
v 8.685972 0.216542 3.111479
v 8.677971 -0.072405 3.113945
v 8.726596 0.163693 -2.947948
v 8.718595 -0.125254 -2.945482
v 7.581956 0.195321 -2.955898
v 7.573955 -0.093627 -2.953432
v 7.541332 0.248170 3.103529
v 7.533331 -0.040778 3.105996
v -8.933341 0.173858 -2.975137
v -8.924988 -0.115084 -2.973278
v -9.216841 0.204605 3.077944
v -9.208488 -0.084337 3.079803
v -8.073468 0.237999 3.131325
v -8.065115 -0.050943 3.133184
v -7.789968 0.207252 -2.921756
v -7.781615 -0.081690 -2.919897
v -1.614033 0.216542 3.111479
v -1.622035 -0.072405 3.113945
v -1.573409 0.163693 -2.947948
v -1.581411 -0.125254 -2.945482
v -2.718050 0.195321 -2.955898
v -2.726051 -0.093627 -2.953432
v -2.758674 0.248170 3.103529
v -2.766675 -0.040778 3.105996
v 10.192930 0.346031 -2.779504
v 10.140229 0.398518 -2.774754
v 10.140229 0.341281 -2.727017
v 10.140229 0.407101 -3.454406
v 10.140229 0.454838 -3.397170
v 10.192930 0.402351 -3.401919
v 0.451905 0.341281 -2.727017
v 0.451905 0.398518 -2.774754
v 0.399204 0.346031 -2.779504
v 0.399204 0.402351 -3.401919
v 0.451905 0.454838 -3.397170
v 0.451905 0.407101 -3.454406
v 0.451905 -0.291065 -2.784236
v 0.399204 -0.286316 -2.836723
v 0.451905 -0.338802 -2.841472
v 0.451905 -0.282482 -3.463888
v 0.399204 -0.229995 -3.459138
v 0.451905 -0.225246 -3.511625
v 10.140229 -0.291065 -2.784236
v 10.140229 -0.338802 -2.841472
v 10.192930 -0.286316 -2.836723
v 10.192930 -0.229995 -3.459138
v 10.140229 -0.282482 -3.463888
v 10.140229 -0.225246 -3.511625
v 4.875483 0.363984 -2.809700
v 4.875483 0.414592 -3.368990
v 4.875483 0.371696 -3.420421
v 4.875483 -0.196517 -3.471837
v 4.875483 -0.247948 -3.428941
v 4.875483 -0.298556 -2.869652
v 4.875483 -0.255661 -2.818221
v 4.875483 0.312552 -2.766805
v 0.485441 -0.254461 -2.801857
v 0.432740 -0.254461 -2.749155
v 0.432740 -0.307162 -2.801857
v 0.432740 0.423199 -2.801857
v 0.432740 0.370497 -2.749155
v 0.485441 0.370497 -2.801857
v -9.255584 -0.307162 -2.801857
v -9.255584 -0.254461 -2.749155
v -9.308286 -0.254461 -2.801857
v -9.308286 0.370497 -2.801857
v -9.255584 0.370497 -2.749155
v -9.255584 0.423199 -2.801857
v -9.255584 -0.307162 -3.436786
v -9.308286 -0.254461 -3.436786
v -9.255584 -0.254461 -3.489487
v -9.255584 0.370497 -3.489487
v -9.308286 0.370497 -3.436786
v -9.255584 0.423199 -3.436786
v 0.432740 -0.307162 -3.436786
v 0.432740 -0.254461 -3.489487
v 0.485441 -0.254461 -3.436786
v 0.485441 0.370497 -3.436786
v 0.432740 0.370497 -3.489487
v 0.432740 0.423199 -3.436786
v -4.832007 -0.222769 -2.786698
v -4.832007 0.338805 -2.786698
v -4.832007 0.386162 -2.834054
v -4.832007 0.386162 -3.404589
v -4.832007 0.338805 -3.451945
v -4.832007 -0.222769 -3.451945
v -4.832007 -0.270125 -3.404589
v -4.832007 -0.270125 -2.834054
v 1.366665 0.173858 -2.975137
v 1.375018 -0.115084 -2.973278
v 1.083165 0.204605 3.077944
v 1.091518 -0.084337 3.079803
v 2.226538 0.237999 3.131325
v 2.234890 -0.050943 3.133184
v 2.510037 0.207252 -2.921756
v 2.518390 -0.081690 -2.919897
v 1.184237 -0.072321 -2.943708
v 1.176076 0.216632 -2.944326
v 1.113564 -0.061363 3.115664
v 1.105403 0.227590 3.115047
v -0.031006 -0.093717 3.102373
v -0.039168 0.195236 3.101755
v 0.039667 -0.104674 -2.956999
v 0.031506 0.184279 -2.957617
vt 0.379249 0.162425
vt 0.403904 0.162426
vt 0.403904 0.539123
vt 0.379249 0.539124
vt 0.378863 0.560216
vt 0.294202 0.560213
vt 0.294203 0.539123
vt 0.519471 0.539123
vt 0.487805 0.539123
vt 0.487805 0.162426
vt 0.519471 0.162426
vt 0.294202 0.162427
vt 0.294202 0.141337
vt 0.378863 0.141334
vt 0.379249 0.162425
vt 0.403904 0.162426
vt 0.403904 0.539123
vt 0.379249 0.539124
vt 0.378863 0.560216
vt 0.294202 0.560213
vt 0.294203 0.539123
vt 0.519471 0.539123
vt 0.487805 0.539123
vt 0.487805 0.162426
vt 0.519471 0.162426
vt 0.294202 0.162427
vt 0.294202 0.141337
vt 0.378863 0.141334
vt 0.276567 0.212032
vt 0.281308 0.212032
vt 0.281308 0.268386
vt 0.276567 0.268386
vt 0.088923 0.276427
vt 0.088923 0.273064
vt 0.145149 0.273064
vt 0.145149 0.276427
vt 0.079504 0.567192
vt 0.088923 0.567192
vt 0.088923 0.894668
vt 0.079504 0.894668
vt 0.215599 0.212032
vt 0.220340 0.212032
vt 0.220341 0.268386
vt 0.215599 0.268386
vt 0.145149 0.567192
vt 0.154568 0.567192
vt 0.154568 0.894668
vt 0.145149 0.894668
vt 0.281309 0.959062
vt 0.276567 0.959062
vt 0.276567 0.902708
vt 0.281309 0.902708
vt 0.088923 0.898031
vt 0.145149 0.898031
vt 0.220341 0.959063
vt 0.215600 0.959063
vt 0.215599 0.902709
vt 0.220341 0.902709
vt 0.281308 0.894668
vt 0.276567 0.894668
vt 0.276567 0.567192
vt 0.281309 0.567192
vt 0.220341 0.894668
vt 0.210922 0.894668
vt 0.210922 0.567192
vt 0.220341 0.567192
vt 0.276567 0.276427
vt 0.220341 0.276427
vt 0.023149 0.567193
vt 0.023150 0.894669
vt 0.079504 0.276427
vt 0.154568 0.276427
vt 0.281309 0.276427
vt 0.210922 0.276427
vt 0.023149 0.276428
vt 0.276567 0.212032
vt 0.281308 0.212032
vt 0.281308 0.268386
vt 0.276567 0.268386
vt 0.088923 0.276427
vt 0.088923 0.273064
vt 0.145149 0.273064
vt 0.145149 0.276427
vt 0.079504 0.567192
vt 0.088923 0.567192
vt 0.088923 0.894668
vt 0.079504 0.894668
vt 0.215599 0.212032
vt 0.220340 0.212032
vt 0.220341 0.268386
vt 0.215599 0.268386
vt 0.145149 0.567192
vt 0.154568 0.567192
vt 0.154568 0.894668
vt 0.145149 0.894668
vt 0.281309 0.959062
vt 0.276567 0.959062
vt 0.276567 0.902708
vt 0.281309 0.902708
vt 0.088923 0.898031
vt 0.145149 0.898031
vt 0.220341 0.959063
vt 0.215600 0.959063
vt 0.215599 0.902709
vt 0.220341 0.902709
vt 0.281308 0.894668
vt 0.276567 0.894668
vt 0.276567 0.567192
vt 0.281309 0.567192
vt 0.220341 0.894668
vt 0.210922 0.894668
vt 0.210922 0.567192
vt 0.220341 0.567192
vt 0.276567 0.276427
vt 0.220341 0.276427
vt 0.023149 0.567193
vt 0.023150 0.894669
vt 0.079504 0.276427
vt 0.154568 0.276427
vt 0.281309 0.276427
vt 0.210922 0.276427
vt 0.023149 0.276428
vt 0.276567 0.212032
vt 0.281308 0.212032
vt 0.281308 0.268386
vt 0.276567 0.268386
vt 0.088923 0.276427
vt 0.088923 0.273064
vt 0.145149 0.273064
vt 0.145149 0.276427
vt 0.079504 0.567192
vt 0.088923 0.567192
vt 0.088923 0.894668
vt 0.079504 0.894668
vt 0.215599 0.212032
vt 0.220340 0.212032
vt 0.220341 0.268386
vt 0.215599 0.268386
vt 0.145149 0.567192
vt 0.154568 0.567192
vt 0.154568 0.894668
vt 0.145149 0.894668
vt 0.281309 0.959062
vt 0.276567 0.959062
vt 0.276567 0.902708
vt 0.281309 0.902708
vt 0.088923 0.898031
vt 0.145149 0.898031
vt 0.220341 0.959063
vt 0.215600 0.959063
vt 0.215599 0.902709
vt 0.220341 0.902709
vt 0.281308 0.894668
vt 0.276567 0.894668
vt 0.276567 0.567192
vt 0.281309 0.567192
vt 0.220341 0.894668
vt 0.210922 0.894668
vt 0.210922 0.567192
vt 0.220341 0.567192
vt 0.276567 0.276427
vt 0.220341 0.276427
vt 0.023149 0.567193
vt 0.023150 0.894669
vt 0.079504 0.276427
vt 0.154568 0.276427
vt 0.281309 0.276427
vt 0.210922 0.276427
vt 0.023149 0.276428
vt 0.276567 0.212032
vt 0.281308 0.212032
vt 0.281308 0.268386
vt 0.276567 0.268386
vt 0.088923 0.276427
vt 0.088923 0.273064
vt 0.145149 0.273064
vt 0.145149 0.276427
vt 0.079504 0.567192
vt 0.088923 0.567192
vt 0.088923 0.894668
vt 0.079504 0.894668
vt 0.215599 0.212032
vt 0.220340 0.212032
vt 0.220341 0.268386
vt 0.215599 0.268386
vt 0.145149 0.567192
vt 0.154568 0.567192
vt 0.154568 0.894668
vt 0.145149 0.894668
vt 0.281309 0.959062
vt 0.276567 0.959062
vt 0.276567 0.902708
vt 0.281309 0.902708
vt 0.088923 0.898031
vt 0.145149 0.898031
vt 0.220341 0.959063
vt 0.215600 0.959063
vt 0.215599 0.902709
vt 0.220341 0.902709
vt 0.281308 0.894668
vt 0.276567 0.894668
vt 0.276567 0.567192
vt 0.281309 0.567192
vt 0.220341 0.894668
vt 0.210922 0.894668
vt 0.210922 0.567192
vt 0.220341 0.567192
vt 0.276567 0.276427
vt 0.220341 0.276427
vt 0.023149 0.567193
vt 0.023150 0.894669
vt 0.079504 0.276427
vt 0.154568 0.276427
vt 0.281309 0.276427
vt 0.210922 0.276427
vt 0.023149 0.276428
vt 0.276567 0.212032
vt 0.281308 0.212032
vt 0.281308 0.268386
vt 0.276567 0.268386
vt 0.088923 0.276427
vt 0.088923 0.273064
vt 0.145149 0.273064
vt 0.145149 0.276427
vt 0.079504 0.567192
vt 0.088923 0.567192
vt 0.088923 0.894668
vt 0.079504 0.894668
vt 0.215599 0.212032
vt 0.220340 0.212032
vt 0.220341 0.268386
vt 0.215599 0.268386
vt 0.145149 0.567192
vt 0.154568 0.567192
vt 0.154568 0.894668
vt 0.145149 0.894668
vt 0.281309 0.959062
vt 0.276567 0.959062
vt 0.276567 0.902708
vt 0.281309 0.902708
vt 0.088923 0.898031
vt 0.145149 0.898031
vt 0.220341 0.959063
vt 0.215600 0.959063
vt 0.215599 0.902709
vt 0.220341 0.902709
vt 0.281308 0.894668
vt 0.276567 0.894668
vt 0.276567 0.567192
vt 0.281309 0.567192
vt 0.220341 0.894668
vt 0.210922 0.894668
vt 0.210922 0.567192
vt 0.220341 0.567192
vt 0.276567 0.276427
vt 0.220341 0.276427
vt 0.023149 0.567193
vt 0.023150 0.894669
vt 0.079504 0.276427
vt 0.154568 0.276427
vt 0.281309 0.276427
vt 0.210922 0.276427
vt 0.023149 0.276428
vt 0.276567 0.212032
vt 0.281308 0.212032
vt 0.281308 0.268386
vt 0.276567 0.268386
vt 0.088923 0.276427
vt 0.088923 0.273064
vt 0.145149 0.273064
vt 0.145149 0.276427
vt 0.079504 0.567192
vt 0.088923 0.567192
vt 0.088923 0.894668
vt 0.079504 0.894668
vt 0.215599 0.212032
vt 0.220340 0.212032
vt 0.220341 0.268386
vt 0.215599 0.268386
vt 0.145149 0.567192
vt 0.154568 0.567192
vt 0.154568 0.894668
vt 0.145149 0.894668
vt 0.281309 0.959062
vt 0.276567 0.959062
vt 0.276567 0.902708
vt 0.281309 0.902708
vt 0.088923 0.898031
vt 0.145149 0.898031
vt 0.220341 0.959063
vt 0.215600 0.959063
vt 0.215599 0.902709
vt 0.220341 0.902709
vt 0.281308 0.894668
vt 0.276567 0.894668
vt 0.276567 0.567192
vt 0.281309 0.567192
vt 0.220341 0.894668
vt 0.210922 0.894668
vt 0.210922 0.567192
vt 0.220341 0.567192
vt 0.276567 0.276427
vt 0.220341 0.276427
vt 0.023149 0.567193
vt 0.023150 0.894669
vt 0.079504 0.276427
vt 0.154568 0.276427
vt 0.281309 0.276427
vt 0.210922 0.276427
vt 0.023149 0.276428
vt 0.379249 0.162425
vt 0.403904 0.162426
vt 0.403904 0.539123
vt 0.379249 0.539124
vt 0.378863 0.560216
vt 0.294202 0.560213
vt 0.294203 0.539123
vt 0.519471 0.539123
vt 0.487805 0.539123
vt 0.487805 0.162426
vt 0.519471 0.162426
vt 0.294202 0.162427
vt 0.294202 0.141337
vt 0.378863 0.141334
vt 0.379249 0.162425
vt 0.403904 0.162426
vt 0.403904 0.539123
vt 0.379249 0.539124
vt 0.378863 0.560216
vt 0.294202 0.560213
vt 0.294203 0.539123
vt 0.519471 0.539123
vt 0.487805 0.539123
vt 0.487805 0.162426
vt 0.519471 0.162426
vt 0.294202 0.162427
vt 0.294202 0.141337
vt 0.378863 0.141334
vt 0.379249 0.162425
vt 0.403904 0.162426
vt 0.403904 0.539123
vt 0.379249 0.539124
vt 0.378863 0.560216
vt 0.294202 0.560213
vt 0.294203 0.539123
vt 0.519471 0.539123
vt 0.487805 0.539123
vt 0.487805 0.162426
vt 0.519471 0.162426
vt 0.294202 0.162427
vt 0.294202 0.141337
vt 0.378863 0.141334
vt 0.379249 0.162425
vt 0.403904 0.162426
vt 0.403904 0.539123
vt 0.379249 0.539124
vt 0.378863 0.560216
vt 0.294202 0.560213
vt 0.294203 0.539123
vt 0.519471 0.539123
vt 0.487805 0.539123
vt 0.487805 0.162426
vt 0.519471 0.162426
vt 0.294202 0.162427
vt 0.294202 0.141337
vt 0.378863 0.141334
vt 0.379249 0.162425
vt 0.403904 0.162426
vt 0.403904 0.539123
vt 0.379249 0.539124
vt 0.378863 0.560216
vt 0.294202 0.560213
vt 0.294203 0.539123
vt 0.519471 0.539123
vt 0.487805 0.539123
vt 0.487805 0.162426
vt 0.519471 0.162426
vt 0.294202 0.162427
vt 0.294202 0.141337
vt 0.378863 0.141334
vt 0.276567 0.212032
vt 0.281308 0.212032
vt 0.281308 0.268386
vt 0.276567 0.268386
vt 0.088923 0.276427
vt 0.088923 0.273064
vt 0.145149 0.273064
vt 0.145149 0.276427
vt 0.079504 0.567192
vt 0.088923 0.567192
vt 0.088923 0.894668
vt 0.079504 0.894668
vt 0.215599 0.212032
vt 0.220340 0.212032
vt 0.220341 0.268386
vt 0.215599 0.268386
vt 0.145149 0.567192
vt 0.154568 0.567192
vt 0.154568 0.894668
vt 0.145149 0.894668
vt 0.281309 0.959062
vt 0.276567 0.959062
vt 0.276567 0.902708
vt 0.281309 0.902708
vt 0.088923 0.898031
vt 0.145149 0.898031
vt 0.220341 0.959063
vt 0.215600 0.959063
vt 0.215599 0.902709
vt 0.220341 0.902709
vt 0.281308 0.894668
vt 0.276567 0.894668
vt 0.276567 0.567192
vt 0.281309 0.567192
vt 0.220341 0.894668
vt 0.210922 0.894668
vt 0.210922 0.567192
vt 0.220341 0.567192
vt 0.276567 0.276427
vt 0.220341 0.276427
vt 0.023149 0.567193
vt 0.023150 0.894669
vt 0.079504 0.276427
vt 0.154568 0.276427
vt 0.281309 0.276427
vt 0.210922 0.276427
vt 0.023149 0.276428
vt 0.276567 0.212032
vt 0.281308 0.212032
vt 0.281308 0.268386
vt 0.276567 0.268386
vt 0.088923 0.276427
vt 0.088923 0.273064
vt 0.145149 0.273064
vt 0.145149 0.276427
vt 0.079504 0.567192
vt 0.088923 0.567192
vt 0.088923 0.894668
vt 0.079504 0.894668
vt 0.215599 0.212032
vt 0.220340 0.212032
vt 0.220341 0.268386
vt 0.215599 0.268386
vt 0.145149 0.567192
vt 0.154568 0.567192
vt 0.154568 0.894668
vt 0.145149 0.894668
vt 0.281309 0.959062
vt 0.276567 0.959062
vt 0.276567 0.902708
vt 0.281309 0.902708
vt 0.088923 0.898031
vt 0.145149 0.898031
vt 0.220341 0.959063
vt 0.215600 0.959063
vt 0.215599 0.902709
vt 0.220341 0.902709
vt 0.281308 0.894668
vt 0.276567 0.894668
vt 0.276567 0.567192
vt 0.281309 0.567192
vt 0.220341 0.894668
vt 0.210922 0.894668
vt 0.210922 0.567192
vt 0.220341 0.567192
vt 0.276567 0.276427
vt 0.220341 0.276427
vt 0.023149 0.567193
vt 0.023150 0.894669
vt 0.079504 0.276427
vt 0.154568 0.276427
vt 0.281309 0.276427
vt 0.210922 0.276427
vt 0.023149 0.276428
vt 0.276567 0.212032
vt 0.281308 0.212032
vt 0.281308 0.268386
vt 0.276567 0.268386
vt 0.088923 0.276427
vt 0.088923 0.273064
vt 0.145149 0.273064
vt 0.145149 0.276427
vt 0.079504 0.567192
vt 0.088923 0.567192
vt 0.088923 0.894668
vt 0.079504 0.894668
vt 0.215599 0.212032
vt 0.220340 0.212032
vt 0.220341 0.268386
vt 0.215599 0.268386
vt 0.145149 0.567192
vt 0.154568 0.567192
vt 0.154568 0.894668
vt 0.145149 0.894668
vt 0.281309 0.959062
vt 0.276567 0.959062
vt 0.276567 0.902708
vt 0.281309 0.902708
vt 0.088923 0.898031
vt 0.145149 0.898031
vt 0.220341 0.959063
vt 0.215600 0.959063
vt 0.215599 0.902709
vt 0.220341 0.902709
vt 0.281308 0.894668
vt 0.276567 0.894668
vt 0.276567 0.567192
vt 0.281309 0.567192
vt 0.220341 0.894668
vt 0.210922 0.894668
vt 0.210922 0.567192
vt 0.220341 0.567192
vt 0.276567 0.276427
vt 0.220341 0.276427
vt 0.023149 0.567193
vt 0.023150 0.894669
vt 0.079504 0.276427
vt 0.154568 0.276427
vt 0.281309 0.276427
vt 0.210922 0.276427
vt 0.023149 0.276428
vt 0.276567 0.212032
vt 0.281308 0.212032
vt 0.281308 0.268386
vt 0.276567 0.268386
vt 0.088923 0.276427
vt 0.088923 0.273064
vt 0.145149 0.273064
vt 0.145149 0.276427
vt 0.079504 0.567192
vt 0.088923 0.567192
vt 0.088923 0.894668
vt 0.079504 0.894668
vt 0.215599 0.212032
vt 0.220340 0.212032
vt 0.220341 0.268386
vt 0.215599 0.268386
vt 0.145149 0.567192
vt 0.154568 0.567192
vt 0.154568 0.894668
vt 0.145149 0.894668
vt 0.281309 0.959062
vt 0.276567 0.959062
vt 0.276567 0.902708
vt 0.281309 0.902708
vt 0.088923 0.898031
vt 0.145149 0.898031
vt 0.220341 0.959063
vt 0.215600 0.959063
vt 0.215599 0.902709
vt 0.220341 0.902709
vt 0.281308 0.894668
vt 0.276567 0.894668
vt 0.276567 0.567192
vt 0.281309 0.567192
vt 0.220341 0.894668
vt 0.210922 0.894668
vt 0.210922 0.567192
vt 0.220341 0.567192
vt 0.276567 0.276427
vt 0.220341 0.276427
vt 0.023149 0.567193
vt 0.023150 0.894669
vt 0.079504 0.276427
vt 0.154568 0.276427
vt 0.281309 0.276427
vt 0.210922 0.276427
vt 0.023149 0.276428
vt 0.060113 0.047188
vt 0.088497 0.047188
vt 0.088497 0.201583
vt 0.060113 0.201583
vt 0.145264 0.229966
vt 0.116880 0.229966
vt 0.116880 0.201583
vt 0.145264 0.201583
vt 0.116880 0.047188
vt 0.145264 0.047188
vt 0.116880 0.018804
vt 0.145264 0.018804
vt 0.031730 0.047188
vt 0.031730 0.201583
vt 0.060113 0.047188
vt 0.088497 0.047188
vt 0.088497 0.201583
vt 0.060113 0.201583
vt 0.145264 0.229966
vt 0.116880 0.229966
vt 0.116880 0.201583
vt 0.145264 0.201583
vt 0.116880 0.047188
vt 0.145264 0.047188
vt 0.116880 0.018804
vt 0.145264 0.018804
vt 0.031730 0.047188
vt 0.031730 0.201583
vt 0.060113 0.047188
vt 0.088497 0.047188
vt 0.088497 0.201583
vt 0.060113 0.201583
vt 0.145264 0.229966
vt 0.116880 0.229966
vt 0.116880 0.201583
vt 0.145264 0.201583
vt 0.116880 0.047188
vt 0.145264 0.047188
vt 0.116880 0.018804
vt 0.145264 0.018804
vt 0.031730 0.047188
vt 0.031730 0.201583
vt 0.060113 0.047188
vt 0.088497 0.047188
vt 0.088497 0.201583
vt 0.060113 0.201583
vt 0.145264 0.229966
vt 0.116880 0.229966
vt 0.116880 0.201583
vt 0.145264 0.201583
vt 0.116880 0.047188
vt 0.145264 0.047188
vt 0.116880 0.018804
vt 0.145264 0.018804
vt 0.031730 0.047188
vt 0.031730 0.201583
vt 0.060113 0.047188
vt 0.088497 0.047188
vt 0.088497 0.201583
vt 0.060113 0.201583
vt 0.145264 0.229966
vt 0.116880 0.229966
vt 0.116880 0.201583
vt 0.145264 0.201583
vt 0.116880 0.047188
vt 0.145264 0.047188
vt 0.116880 0.018804
vt 0.145264 0.018804
vt 0.031730 0.047188
vt 0.031730 0.201583
vt 0.060113 0.047188
vt 0.088497 0.047188
vt 0.088497 0.201583
vt 0.060113 0.201583
vt 0.145264 0.229966
vt 0.116880 0.229966
vt 0.116880 0.201583
vt 0.145264 0.201583
vt 0.116880 0.047188
vt 0.145264 0.047188
vt 0.116880 0.018804
vt 0.145264 0.018804
vt 0.031730 0.047188
vt 0.031730 0.201583
vt 0.060113 0.047188
vt 0.088497 0.047188
vt 0.088497 0.201583
vt 0.060113 0.201583
vt 0.145264 0.229966
vt 0.116880 0.229966
vt 0.116880 0.201583
vt 0.145264 0.201583
vt 0.116880 0.047188
vt 0.145264 0.047188
vt 0.116880 0.018804
vt 0.145264 0.018804
vt 0.031730 0.047188
vt 0.031730 0.201583
vt 0.060113 0.047188
vt 0.088497 0.047188
vt 0.088497 0.201583
vt 0.060113 0.201583
vt 0.145264 0.229966
vt 0.116880 0.229966
vt 0.116880 0.201583
vt 0.145264 0.201583
vt 0.116880 0.047188
vt 0.145264 0.047188
vt 0.116880 0.018804
vt 0.145264 0.018804
vt 0.031730 0.047188
vt 0.031730 0.201583
vt 0.060113 0.047188
vt 0.088497 0.047188
vt 0.088497 0.201583
vt 0.060113 0.201583
vt 0.145264 0.229966
vt 0.116880 0.229966
vt 0.116880 0.201583
vt 0.145264 0.201583
vt 0.116880 0.047188
vt 0.145264 0.047188
vt 0.116880 0.018804
vt 0.145264 0.018804
vt 0.031730 0.047188
vt 0.031730 0.201583
vt 0.060113 0.047188
vt 0.088497 0.047188
vt 0.088497 0.201583
vt 0.060113 0.201583
vt 0.145264 0.229966
vt 0.116880 0.229966
vt 0.116880 0.201583
vt 0.145264 0.201583
vt 0.116880 0.047188
vt 0.145264 0.047188
vt 0.116880 0.018804
vt 0.145264 0.018804
vt 0.031730 0.047188
vt 0.031730 0.201583
vt 0.379249 0.162425
vt 0.403904 0.162426
vt 0.403904 0.539123
vt 0.379249 0.539124
vt 0.378863 0.560216
vt 0.294202 0.560213
vt 0.294203 0.539123
vt 0.519471 0.539123
vt 0.487805 0.539123
vt 0.487805 0.162426
vt 0.519471 0.162426
vt 0.294202 0.162427
vt 0.294202 0.141337
vt 0.378863 0.141334
vt 0.379249 0.162425
vt 0.403904 0.162426
vt 0.403904 0.539123
vt 0.379249 0.539124
vt 0.378863 0.560216
vt 0.294202 0.560213
vt 0.294203 0.539123
vt 0.519471 0.539123
vt 0.487805 0.539123
vt 0.487805 0.162426
vt 0.519471 0.162426
vt 0.294202 0.162427
vt 0.294202 0.141337
vt 0.378863 0.141334
vt 0.379249 0.162425
vt 0.403904 0.162426
vt 0.403904 0.539123
vt 0.379249 0.539124
vt 0.378863 0.560216
vt 0.294202 0.560213
vt 0.294203 0.539123
vt 0.519471 0.539123
vt 0.487805 0.539123
vt 0.487805 0.162426
vt 0.519471 0.162426
vt 0.294202 0.162427
vt 0.294202 0.141337
vt 0.378863 0.141334
vt 0.379249 0.162425
vt 0.403904 0.162426
vt 0.403904 0.539123
vt 0.379249 0.539124
vt 0.378863 0.560216
vt 0.294202 0.560213
vt 0.294203 0.539123
vt 0.519471 0.539123
vt 0.487805 0.539123
vt 0.487805 0.162426
vt 0.519471 0.162426
vt 0.294202 0.162427
vt 0.294202 0.141337
vt 0.378863 0.141334
vt 0.379249 0.162425
vt 0.403904 0.162426
vt 0.403904 0.539123
vt 0.379249 0.539124
vt 0.378863 0.560216
vt 0.294202 0.560213
vt 0.294203 0.539123
vt 0.519471 0.539123
vt 0.487805 0.539123
vt 0.487805 0.162426
vt 0.519471 0.162426
vt 0.294202 0.162427
vt 0.294202 0.141337
vt 0.378863 0.141334
vt 0.379249 0.162425
vt 0.403904 0.162426
vt 0.403904 0.539123
vt 0.379249 0.539124
vt 0.378863 0.560216
vt 0.294202 0.560213
vt 0.294203 0.539123
vt 0.519471 0.539123
vt 0.487805 0.539123
vt 0.487805 0.162426
vt 0.519471 0.162426
vt 0.294202 0.162427
vt 0.294202 0.141337
vt 0.378863 0.141334
vt 0.276567 0.212032
vt 0.281308 0.212032
vt 0.281308 0.268386
vt 0.276567 0.268386
vt 0.088923 0.276427
vt 0.088923 0.273064
vt 0.145149 0.273064
vt 0.145149 0.276427
vt 0.079504 0.567192
vt 0.088923 0.567192
vt 0.088923 0.894668
vt 0.079504 0.894668
vt 0.215599 0.212032
vt 0.220340 0.212032
vt 0.220341 0.268386
vt 0.215599 0.268386
vt 0.145149 0.567192
vt 0.154568 0.567192
vt 0.154568 0.894668
vt 0.145149 0.894668
vt 0.281309 0.959062
vt 0.276567 0.959062
vt 0.276567 0.902708
vt 0.281309 0.902708
vt 0.088923 0.898031
vt 0.145149 0.898031
vt 0.220341 0.959063
vt 0.215600 0.959063
vt 0.215599 0.902709
vt 0.220341 0.902709
vt 0.281308 0.894668
vt 0.276567 0.894668
vt 0.276567 0.567192
vt 0.281309 0.567192
vt 0.220341 0.894668
vt 0.210922 0.894668
vt 0.210922 0.567192
vt 0.220341 0.567192
vt 0.276567 0.276427
vt 0.220341 0.276427
vt 0.023149 0.567193
vt 0.023150 0.894669
vt 0.079504 0.276427
vt 0.154568 0.276427
vt 0.281309 0.276427
vt 0.210922 0.276427
vt 0.023149 0.276428
vt 0.276567 0.212032
vt 0.281308 0.212032
vt 0.281308 0.268386
vt 0.276567 0.268386
vt 0.088923 0.276427
vt 0.088923 0.273064
vt 0.145149 0.273064
vt 0.145149 0.276427
vt 0.079504 0.567192
vt 0.088923 0.567192
vt 0.088923 0.894668
vt 0.079504 0.894668
vt 0.215599 0.212032
vt 0.220340 0.212032
vt 0.220341 0.268386
vt 0.215599 0.268386
vt 0.145149 0.567192
vt 0.154568 0.567192
vt 0.154568 0.894668
vt 0.145149 0.894668
vt 0.281309 0.959062
vt 0.276567 0.959062
vt 0.276567 0.902708
vt 0.281309 0.902708
vt 0.088923 0.898031
vt 0.145149 0.898031
vt 0.220341 0.959063
vt 0.215600 0.959063
vt 0.215599 0.902709
vt 0.220341 0.902709
vt 0.281308 0.894668
vt 0.276567 0.894668
vt 0.276567 0.567192
vt 0.281309 0.567192
vt 0.220341 0.894668
vt 0.210922 0.894668
vt 0.210922 0.567192
vt 0.220341 0.567192
vt 0.276567 0.276427
vt 0.220341 0.276427
vt 0.023149 0.567193
vt 0.023150 0.894669
vt 0.079504 0.276427
vt 0.154568 0.276427
vt 0.281309 0.276427
vt 0.210922 0.276427
vt 0.023149 0.276428
vt 0.379249 0.162425
vt 0.403904 0.162426
vt 0.403904 0.539123
vt 0.379249 0.539124
vt 0.378863 0.560216
vt 0.294202 0.560213
vt 0.294203 0.539123
vt 0.519471 0.539123
vt 0.487805 0.539123
vt 0.487805 0.162426
vt 0.519471 0.162426
vt 0.294202 0.162427
vt 0.294202 0.141337
vt 0.378863 0.141334
vt 0.379249 0.162425
vt 0.403904 0.162426
vt 0.403904 0.539123
vt 0.379249 0.539124
vt 0.378863 0.560216
vt 0.294202 0.560213
vt 0.294203 0.539123
vt 0.519471 0.539123
vt 0.487805 0.539123
vt 0.487805 0.162426
vt 0.519471 0.162426
vt 0.294202 0.162427
vt 0.294202 0.141337
vt 0.378863 0.141334
vn 0.999594 -0.027621 0.006942
vn 0.999594 -0.027621 0.006942
vn 0.999594 -0.027621 0.006942
vn 0.999594 -0.027621 0.006942
vn 0.006704 -0.008721 -0.999940
vn 0.006704 -0.008721 -0.999940
vn 0.006704 -0.008721 -0.999940
vn 0.006704 -0.008721 -0.999940
vn -0.999594 0.027623 -0.006942
vn -0.999594 0.027623 -0.006942
vn -0.999594 0.027623 -0.006942
vn -0.999594 0.027623 -0.006942
vn -0.006704 0.008721 0.999940
vn -0.006704 0.008721 0.999940
vn -0.006704 0.008721 0.999940
vn -0.006704 0.008721 0.999940
vn -0.027679 -0.999581 0.008533
vn -0.027679 -0.999581 0.008533
vn -0.027679 -0.999581 0.008533
vn -0.027679 -0.999581 0.008533
vn 0.027679 0.999581 -0.008533
vn 0.027679 0.999581 -0.008533
vn 0.027679 0.999581 -0.008533
vn 0.027679 0.999581 -0.008533
vn -0.999409 0.028255 0.019574
vn -0.999409 0.028255 0.019574
vn -0.999409 0.028255 0.019574
vn -0.999409 0.028255 0.019574
vn -0.019531 0.001808 -0.999808
vn -0.019531 0.001808 -0.999808
vn -0.019531 0.001808 -0.999808
vn -0.019531 0.001808 -0.999808
vn 0.999409 -0.028255 -0.019574
vn 0.999409 -0.028255 -0.019574
vn 0.999409 -0.028255 -0.019574
vn 0.999409 -0.028255 -0.019574
vn 0.019531 -0.001809 0.999808
vn 0.019531 -0.001809 0.999808
vn 0.019531 -0.001809 0.999808
vn 0.019531 -0.001809 0.999808
vn 0.028284 0.999599 0.001255
vn 0.028284 0.999599 0.001255
vn 0.028284 0.999599 0.001255
vn 0.028284 0.999599 0.001255
vn -0.028284 -0.999599 -0.001255
vn -0.028284 -0.999599 -0.001255
vn -0.028284 -0.999599 -0.001255
vn -0.028284 -0.999599 -0.001255
vn -0.857544 0.509267 0.072566
vn 0.442149 0.893702 0.076170
vn 0.442149 0.893701 -0.076170
vn -0.857544 0.509267 -0.072566
vn 0.032289 0.070246 0.997007
vn -0.923232 0.377329 0.072567
vn -0.036591 -0.068104 0.997007
vn 0.444391 0.892590 0.076153
vn 0.034440 0.069181 0.997010
vn 0.036979 0.067856 0.997010
vn 0.447063 0.891258 0.076123
vn -0.446634 -0.891469 0.076170
vn -0.923232 0.377329 -0.072567
vn -0.446634 -0.891469 -0.076169
vn -0.034445 -0.069179 0.997010
vn -0.444396 -0.892588 0.076153
vn -0.441722 -0.893917 0.076123
vn -0.031857 -0.070406 0.997010
vn 0.923232 -0.377328 0.072567
vn 0.923232 -0.377328 -0.072567
vn 0.447063 0.891257 -0.076123
vn 0.857544 -0.509266 0.072567
vn -0.441722 -0.893917 -0.076123
vn 0.857544 -0.509266 -0.072567
vn 0.036980 0.067855 -0.997010
vn 0.034440 0.069180 -0.997010
vn 0.444391 0.892590 -0.076153
vn -0.031857 -0.070406 -0.997010
vn -0.444396 -0.892588 -0.076153
vn -0.034445 -0.069178 -0.997010
vn 0.032290 0.070245 -0.997007
vn -0.036590 -0.068104 -0.997007
vn -0.857544 0.509267 0.072566
vn 0.442149 0.893702 0.076170
vn 0.442149 0.893702 -0.076170
vn -0.857544 0.509267 -0.072566
vn 0.032290 0.070246 0.997007
vn -0.923232 0.377329 0.072567
vn -0.036591 -0.068104 0.997007
vn 0.444391 0.892590 0.076153
vn 0.034440 0.069181 0.997010
vn 0.036979 0.067856 0.997010
vn 0.447063 0.891258 0.076123
vn -0.446634 -0.891469 0.076170
vn -0.923232 0.377329 -0.072567
vn -0.446634 -0.891469 -0.076170
vn -0.034445 -0.069178 0.997010
vn -0.444396 -0.892588 0.076153
vn -0.441722 -0.893917 0.076123
vn -0.031857 -0.070406 0.997010
vn 0.923232 -0.377328 0.072567
vn 0.923232 -0.377328 -0.072567
vn 0.447063 0.891258 -0.076123
vn 0.857544 -0.509266 0.072567
vn -0.441722 -0.893917 -0.076123
vn 0.857544 -0.509266 -0.072567
vn 0.036979 0.067855 -0.997010
vn 0.034440 0.069180 -0.997010
vn 0.444391 0.892590 -0.076153
vn -0.031857 -0.070406 -0.997010
vn -0.444396 -0.892588 -0.076153
vn -0.034444 -0.069178 -0.997010
vn 0.032289 0.070245 -0.997007
vn -0.036590 -0.068104 -0.997007
vn 0.932508 0.353785 0.072567
vn 0.423874 -0.902513 0.076170
vn 0.423874 -0.902513 -0.076170
vn 0.932508 0.353785 -0.072567
vn 0.034851 -0.069011 0.997007
vn 0.870188 0.487347 0.072567
vn -0.030497 0.071043 0.997007
vn 0.421608 -0.903575 0.076153
vn 0.032679 -0.070030 0.997010
vn 0.030060 -0.071192 0.997010
vn 0.418901 -0.904835 0.076123
vn -0.419334 0.904631 0.076169
vn 0.870188 0.487348 -0.072567
vn -0.419334 0.904631 -0.076169
vn -0.032674 0.070032 0.997010
vn -0.421603 0.903577 0.076153
vn -0.424308 0.902312 0.076123
vn -0.035246 0.068772 0.997010
vn -0.870188 -0.487347 0.072567
vn -0.870188 -0.487347 -0.072567
vn 0.418902 -0.904835 -0.076123
vn -0.932508 -0.353785 0.072567
vn -0.424308 0.902312 -0.076123
vn -0.932508 -0.353785 -0.072567
vn 0.030060 -0.071191 -0.997010
vn 0.032679 -0.070029 -0.997010
vn 0.421608 -0.903575 -0.076153
vn -0.035246 0.068771 -0.997010
vn -0.421603 0.903577 -0.076153
vn -0.032674 0.070032 -0.997010
vn 0.034851 -0.069010 -0.997007
vn -0.030497 0.071042 -0.997007
vn 0.994637 0.065631 0.079932
vn 0.002505 -0.013997 0.999899
vn 0.002505 -0.165717 0.986170
vn 0.994637 -0.078913 0.066853
vn 0.002402 0.985986 0.166809
vn 0.994637 0.078913 -0.066853
vn 0.002402 0.999914 0.012889
vn 0.000003 -0.014014 0.999902
vn 0.000003 0.985988 0.166814
vn -0.002861 0.985993 0.166760
vn -0.002983 -0.014044 0.999897
vn 0.002505 0.165717 -0.986170
vn 0.994637 -0.065631 -0.079932
vn 0.002505 0.013997 -0.999899
vn 0.000003 0.999917 0.012884
vn 0.000003 0.165701 -0.986176
vn -0.002983 0.165670 -0.986177
vn -0.002861 0.999912 0.012939
vn -0.994637 0.065631 0.079933
vn -0.994637 -0.078913 0.066854
vn -0.002983 -0.165670 0.986177
vn -0.994637 0.078913 -0.066854
vn -0.002983 0.014044 -0.999897
vn -0.994637 -0.065631 -0.079933
vn -0.002861 -0.999912 -0.012939
vn 0.000003 -0.999917 -0.012885
vn 0.000003 -0.165701 0.986176
vn -0.002861 -0.985994 -0.166759
vn 0.000003 0.014014 -0.999902
vn 0.000003 -0.985988 -0.166814
vn 0.002402 -0.999914 -0.012890
vn 0.002402 -0.985986 -0.166808
vn 0.994637 -0.073693 0.072567
vn 0.002505 -0.997092 0.076170
vn 0.002505 -0.997092 -0.076170
vn 0.994637 -0.073693 -0.072567
vn 0.002402 -0.077274 0.997007
vn 0.994637 0.073693 0.072567
vn 0.002402 0.077274 0.997007
vn 0.000003 -0.997096 0.076153
vn 0.000003 -0.077279 0.997010
vn -0.002861 -0.077225 0.997010
vn -0.002983 -0.997094 0.076123
vn 0.002505 0.997092 0.076170
vn 0.994637 0.073693 -0.072567
vn 0.002505 0.997092 -0.076170
vn 0.000003 0.077279 0.997010
vn 0.000003 0.997096 0.076153
vn -0.002983 0.997094 0.076123
vn -0.002861 0.077225 0.997010
vn -0.994637 -0.073694 0.072568
vn -0.994637 -0.073694 -0.072568
vn -0.002983 -0.997094 -0.076123
vn -0.994637 0.073694 0.072568
vn -0.002983 0.997094 -0.076123
vn -0.994637 0.073694 -0.072568
vn -0.002861 -0.077224 -0.997010
vn 0.000003 -0.077279 -0.997010
vn 0.000003 -0.997096 -0.076153
vn -0.002861 0.077224 -0.997010
vn 0.000003 0.997096 -0.076153
vn 0.000003 0.077279 -0.997010
vn 0.002402 -0.077274 -0.997007
vn 0.002402 0.077274 -0.997007
vn 0.932508 0.353785 0.072567
vn 0.423874 -0.902513 0.076170
vn 0.423874 -0.902513 -0.076170
vn 0.932508 0.353785 -0.072567
vn 0.034851 -0.069011 0.997007
vn 0.870188 0.487348 0.072567
vn -0.030497 0.071043 0.997007
vn 0.421608 -0.903575 0.076153
vn 0.032679 -0.070030 0.997010
vn 0.030060 -0.071192 0.997010
vn 0.418901 -0.904835 0.076123
vn -0.419334 0.904631 0.076169
vn 0.870188 0.487348 -0.072567
vn -0.419334 0.904631 -0.076169
vn -0.032674 0.070032 0.997010
vn -0.421603 0.903577 0.076153
vn -0.424308 0.902312 0.076124
vn -0.035246 0.068772 0.997010
vn -0.870188 -0.487347 0.072566
vn -0.870188 -0.487347 -0.072566
vn 0.418902 -0.904835 -0.076123
vn -0.932508 -0.353785 0.072566
vn -0.424309 0.902312 -0.076124
vn -0.932508 -0.353785 -0.072566
vn 0.030060 -0.071191 -0.997010
vn 0.032679 -0.070029 -0.997010
vn 0.421608 -0.903575 -0.076153
vn -0.035246 0.068771 -0.997010
vn -0.421604 0.903577 -0.076153
vn -0.032674 0.070032 -0.997010
vn 0.034851 -0.069010 -0.997007
vn -0.030497 0.071042 -0.997007
vn -0.999460 0.028255 0.016769
vn -0.999460 0.028255 0.016769
vn -0.999460 0.028255 0.016769
vn -0.999460 0.028255 0.016769
vn -0.016724 0.001808 -0.999859
vn -0.016724 0.001808 -0.999858
vn -0.016724 0.001808 -0.999859
vn -0.016724 0.001808 -0.999859
vn 0.999460 -0.028255 -0.016769
vn 0.999460 -0.028255 -0.016769
vn 0.999460 -0.028255 -0.016769
vn 0.999460 -0.028255 -0.016769
vn 0.016724 -0.001808 0.999859
vn 0.016724 -0.001808 0.999859
vn 0.016724 -0.001808 0.999859
vn 0.016724 -0.001808 0.999859
vn 0.028280 0.999599 0.001335
vn 0.028280 0.999599 0.001335
vn 0.028280 0.999599 0.001335
vn 0.028280 0.999599 0.001335
vn -0.028280 -0.999599 -0.001335
vn -0.028280 -0.999599 -0.001335
vn -0.028280 -0.999599 -0.001335
vn -0.028280 -0.999599 -0.001335
vn -0.998487 -0.029164 -0.046617
vn -0.998487 -0.029164 -0.046617
vn -0.998487 -0.029164 -0.046617
vn -0.998487 -0.029164 -0.046617
vn -0.046784 0.005074 0.998892
vn -0.046783 0.005074 0.998892
vn -0.046784 0.005074 0.998892
vn -0.046784 0.005074 0.998892
vn 0.998487 0.029164 0.046617
vn 0.998487 0.029164 0.046617
vn 0.998487 0.029164 0.046617
vn 0.998487 0.029164 0.046617
vn 0.046784 -0.005074 -0.998892
vn 0.046784 -0.005074 -0.998892
vn 0.046784 -0.005074 -0.998892
vn 0.046784 -0.005074 -0.998892
vn 0.028894 -0.999562 0.006431
vn 0.028894 -0.999562 0.006431
vn 0.028894 -0.999562 0.006431
vn 0.028894 -0.999562 0.006431
vn -0.028894 0.999562 -0.006431
vn -0.028894 0.999562 -0.006431
vn -0.028894 0.999562 -0.006431
vn -0.028894 0.999562 -0.006431
vn 0.999533 0.028254 0.011607
vn 0.999533 0.028254 0.011607
vn 0.999533 0.028254 0.011607
vn 0.999533 0.028254 0.011607
vn -0.011663 0.001808 0.999930
vn -0.011663 0.001808 0.999930
vn -0.011663 0.001808 0.999930
vn -0.011663 0.001808 0.999930
vn -0.999533 -0.028256 -0.011607
vn -0.999533 -0.028256 -0.011607
vn -0.999533 -0.028256 -0.011607
vn -0.999533 -0.028256 -0.011607
vn 0.011663 -0.001809 -0.999930
vn 0.011663 -0.001809 -0.999930
vn 0.011663 -0.001809 -0.999930
vn 0.011663 -0.001809 -0.999930
vn -0.028231 0.999599 -0.002137
vn -0.028231 0.999599 -0.002137
vn -0.028231 0.999599 -0.002137
vn -0.028231 0.999599 -0.002137
vn 0.028231 -0.999599 0.002137
vn 0.028231 -0.999599 0.002137
vn 0.028231 -0.999599 0.002137
vn 0.028231 -0.999599 0.002137
vn -0.999409 0.028256 0.019574
vn -0.999409 0.028256 0.019574
vn -0.999409 0.028256 0.019574
vn -0.999409 0.028256 0.019574
vn -0.019531 0.001808 -0.999808
vn -0.019531 0.001808 -0.999808
vn -0.019531 0.001808 -0.999808
vn -0.019531 0.001808 -0.999808
vn 0.999409 -0.028256 -0.019574
vn 0.999409 -0.028256 -0.019574
vn 0.999409 -0.028256 -0.019574
vn 0.999409 -0.028256 -0.019574
vn 0.019531 -0.001809 0.999808
vn 0.019531 -0.001809 0.999808
vn 0.019531 -0.001809 0.999808
vn 0.019531 -0.001809 0.999808
vn 0.028284 0.999599 0.001255
vn 0.028284 0.999599 0.001255
vn 0.028284 0.999599 0.001255
vn 0.028284 0.999599 0.001255
vn -0.028284 -0.999599 -0.001255
vn -0.028284 -0.999599 -0.001255
vn -0.028284 -0.999599 -0.001255
vn -0.028284 -0.999599 -0.001255
vn 0.999594 -0.027624 0.006942
vn 0.999594 -0.027624 0.006942
vn 0.999594 -0.027624 0.006942
vn 0.999594 -0.027624 0.006942
vn 0.006704 -0.008721 -0.999940
vn 0.006704 -0.008721 -0.999940
vn 0.006704 -0.008721 -0.999940
vn 0.006704 -0.008721 -0.999940
vn -0.999594 0.027622 -0.006942
vn -0.999594 0.027622 -0.006942
vn -0.999594 0.027622 -0.006942
vn -0.999594 0.027622 -0.006942
vn -0.006704 0.008721 0.999940
vn -0.006704 0.008721 0.999940
vn -0.006704 0.008721 0.999940
vn -0.006704 0.008721 0.999940
vn -0.027679 -0.999581 0.008533
vn -0.027679 -0.999581 0.008533
vn -0.027679 -0.999581 0.008533
vn -0.027679 -0.999581 0.008533
vn 0.027679 0.999581 -0.008533
vn 0.027679 0.999581 -0.008533
vn 0.027679 0.999581 -0.008533
vn 0.027679 0.999581 -0.008533
vn 0.994637 -0.073693 0.072567
vn 0.002505 -0.997092 0.076170
vn 0.002505 -0.997092 -0.076170
vn 0.994637 -0.073693 -0.072567
vn 0.002402 -0.077274 0.997007
vn 0.994637 0.073693 0.072567
vn 0.002402 0.077274 0.997007
vn 0.000003 -0.997096 0.076154
vn 0.000003 -0.077279 0.997010
vn -0.002861 -0.077225 0.997010
vn -0.002983 -0.997094 0.076123
vn 0.002505 0.997092 0.076170
vn 0.994637 0.073693 -0.072567
vn 0.002505 0.997092 -0.076170
vn 0.000003 0.077279 0.997010
vn 0.000003 0.997096 0.076153
vn -0.002983 0.997094 0.076123
vn -0.002861 0.077225 0.997010
vn -0.994637 -0.073694 0.072568
vn -0.994637 -0.073694 -0.072568
vn -0.002983 -0.997094 -0.076123
vn -0.994637 0.073694 0.072568
vn -0.002983 0.997094 -0.076123
vn -0.994637 0.073694 -0.072568
vn -0.002861 -0.077224 -0.997010
vn 0.000003 -0.077279 -0.997010
vn 0.000003 -0.997096 -0.076154
vn -0.002861 0.077224 -0.997010
vn 0.000003 0.997096 -0.076153
vn 0.000003 0.077279 -0.997010
vn 0.002402 -0.077274 -0.997007
vn 0.002402 0.077274 -0.997007
vn 0.994637 0.065630 0.079932
vn 0.002505 -0.013997 0.999899
vn 0.002505 -0.165717 0.986170
vn 0.994637 -0.078913 0.066853
vn 0.002402 0.985986 0.166809
vn 0.994637 0.078913 -0.066853
vn 0.002402 0.999914 0.012889
vn 0.000003 -0.014014 0.999902
vn 0.000003 0.985988 0.166814
vn -0.002861 0.985993 0.166760
vn -0.002983 -0.014044 0.999897
vn 0.002505 0.165717 -0.986170
vn 0.994637 -0.065631 -0.079932
vn 0.002505 0.013997 -0.999899
vn 0.000003 0.999917 0.012884
vn 0.000003 0.165701 -0.986176
vn -0.002983 0.165670 -0.986177
vn -0.002861 0.999912 0.012939
vn -0.994637 0.065631 0.079933
vn -0.994637 -0.078913 0.066854
vn -0.002983 -0.165670 0.986177
vn -0.994637 0.078913 -0.066854
vn -0.002983 0.014044 -0.999897
vn -0.994637 -0.065631 -0.079933
vn -0.002861 -0.999912 -0.012939
vn 0.000003 -0.999917 -0.012885
vn 0.000003 -0.165701 0.986176
vn -0.002861 -0.985994 -0.166759
vn 0.000003 0.014014 -0.999902
vn 0.000003 -0.985988 -0.166814
vn 0.002402 -0.999914 -0.012890
vn 0.002402 -0.985986 -0.166808
vn 0.994637 0.065631 0.079932
vn 0.002505 -0.013997 0.999899
vn 0.002505 -0.165717 0.986170
vn 0.994637 -0.078913 0.066853
vn 0.002402 0.985986 0.166809
vn 0.994637 0.078913 -0.066853
vn 0.002402 0.999914 0.012889
vn 0.000003 -0.014014 0.999902
vn 0.000003 0.985988 0.166814
vn -0.002861 0.985993 0.166760
vn -0.002983 -0.014044 0.999897
vn 0.002505 0.165717 -0.986170
vn 0.994637 -0.065631 -0.079932
vn 0.002505 0.013997 -0.999899
vn 0.000003 0.999917 0.012884
vn 0.000003 0.165701 -0.986176
vn -0.002983 0.165670 -0.986177
vn -0.002861 0.999912 0.012939
vn -0.994637 0.065631 0.079933
vn -0.994637 -0.078913 0.066854
vn -0.002983 -0.165670 0.986177
vn -0.994637 0.078913 -0.066854
vn -0.002983 0.014044 -0.999897
vn -0.994637 -0.065631 -0.079933
vn -0.002861 -0.999912 -0.012939
vn 0.000003 -0.999917 -0.012885
vn 0.000003 -0.165701 0.986176
vn -0.002861 -0.985994 -0.166759
vn 0.000003 0.014014 -0.999902
vn 0.000003 -0.985988 -0.166814
vn 0.002402 -0.999914 -0.012890
vn 0.002402 -0.985986 -0.166808
vn 0.994637 -0.073693 0.072567
vn 0.002505 -0.997092 0.076170
vn 0.002505 -0.997092 -0.076170
vn 0.994637 -0.073693 -0.072567
vn 0.002402 -0.077274 0.997007
vn 0.994637 0.073693 0.072567
vn 0.002402 0.077274 0.997007
vn 0.000003 -0.997096 0.076154
vn 0.000003 -0.077279 0.997010
vn -0.002861 -0.077225 0.997010
vn -0.002983 -0.997094 0.076123
vn 0.002505 0.997092 0.076170
vn 0.994637 0.073693 -0.072567
vn 0.002505 0.997092 -0.076170
vn 0.000003 0.077279 0.997010
vn 0.000003 0.997096 0.076153
vn -0.002983 0.997094 0.076123
vn -0.002861 0.077225 0.997010
vn -0.994637 -0.073694 0.072568
vn -0.994637 -0.073694 -0.072568
vn -0.002983 -0.997094 -0.076123
vn -0.994637 0.073694 0.072568
vn -0.002983 0.997094 -0.076123
vn -0.994637 0.073694 -0.072568
vn -0.002861 -0.077224 -0.997010
vn 0.000003 -0.077279 -0.997010
vn 0.000003 -0.997096 -0.076154
vn -0.002861 0.077224 -0.997010
vn 0.000003 0.997096 -0.076153
vn 0.000003 0.077279 -0.997010
vn 0.002402 -0.077274 -0.997007
vn 0.002402 0.077274 -0.997007
vn -0.999999 0.000000 0.001639
vn -0.999999 0.000000 0.001639
vn -0.999999 0.000000 0.001639
vn -0.999999 0.000000 0.001639
vn 0.000000 1.000000 0.000000
vn 0.000000 1.000000 0.000000
vn 0.000000 1.000000 0.000000
vn 0.000000 1.000000 0.000000
vn 0.999999 0.000000 -0.001640
vn 0.999999 0.000000 -0.001640
vn 0.999999 0.000000 -0.001640
vn 0.999999 0.000000 -0.001640
vn 0.000000 -1.000000 0.000000
vn 0.000000 -1.000000 0.000000
vn 0.000000 -1.000000 0.000000
vn 0.000000 -1.000000 0.000000
vn 0.001640 0.000000 0.999999
vn 0.001640 0.000000 0.999999
vn 0.001640 0.000000 0.999999
vn 0.001640 0.000000 0.999999
vn -0.001640 0.000000 -0.999999
vn -0.001640 0.000000 -0.999999
vn -0.001640 0.000000 -0.999999
vn -0.001640 0.000000 -0.999999
vn -0.999999 0.000000 0.001640
vn -0.999999 0.000000 0.001640
vn -0.999999 0.000000 0.001640
vn -0.999999 0.000000 0.001640
vn 0.000000 1.000000 -0.000000
vn 0.000000 1.000000 -0.000000
vn 0.000000 1.000000 -0.000000
vn 0.000000 1.000000 -0.000000
vn 0.999999 0.000000 -0.001641
vn 0.999999 0.000000 -0.001641
vn 0.999999 0.000000 -0.001641
vn 0.999999 0.000000 -0.001641
vn 0.000000 -1.000000 0.000000
vn 0.000000 -1.000000 0.000000
vn 0.000000 -1.000000 0.000000
vn 0.000000 -1.000000 0.000000
vn 0.001641 0.000000 0.999999
vn 0.001641 0.000000 0.999999
vn 0.001641 0.000000 0.999999
vn 0.001641 0.000000 0.999999
vn -0.001640 0.000000 -0.999999
vn -0.001640 0.000000 -0.999999
vn -0.001640 0.000000 -0.999999
vn -0.001640 0.000000 -0.999999
vn -0.999999 0.000000 0.001640
vn -0.999999 0.000000 0.001640
vn -0.999999 0.000000 0.001640
vn -0.999999 0.000000 0.001640
vn 0.000000 1.000000 -0.000000
vn 0.000000 1.000000 -0.000000
vn 0.000000 1.000000 -0.000000
vn 0.000000 1.000000 -0.000000
vn 0.999999 0.000000 -0.001641
vn 0.999999 0.000000 -0.001641
vn 0.999999 0.000000 -0.001641
vn 0.999999 0.000000 -0.001641
vn 0.000000 -1.000000 0.000000
vn 0.000000 -1.000000 0.000000
vn 0.000000 -1.000000 0.000000
vn 0.000000 -1.000000 0.000000
vn 0.001640 0.000000 0.999999
vn 0.001640 0.000000 0.999999
vn 0.001640 0.000000 0.999999
vn 0.001640 0.000000 0.999999
vn -0.001640 0.000000 -0.999999
vn -0.001640 0.000000 -0.999999
vn -0.001640 0.000000 -0.999999
vn -0.001640 0.000000 -0.999999
vn -0.999999 0.000000 0.001639
vn -0.999999 0.000000 0.001639
vn -0.999999 0.000000 0.001639
vn -0.999999 0.000000 0.001639
vn 0.000000 1.000000 0.000000
vn 0.000000 1.000000 0.000000
vn 0.000000 1.000000 0.000000
vn 0.000000 1.000000 0.000000
vn 0.999999 0.000000 -0.001640
vn 0.999999 0.000000 -0.001640
vn 0.999999 0.000000 -0.001640
vn 0.999999 0.000000 -0.001640
vn 0.000000 -1.000000 0.000000
vn 0.000000 -1.000000 0.000000
vn 0.000000 -1.000000 0.000000
vn 0.000000 -1.000000 0.000000
vn 0.001641 0.000000 0.999999
vn 0.001641 0.000000 0.999999
vn 0.001641 0.000000 0.999999
vn 0.001641 0.000000 0.999999
vn -0.001640 0.000000 -0.999999
vn -0.001640 0.000000 -0.999999
vn -0.001640 0.000000 -0.999999
vn -0.001640 0.000000 -0.999999
vn -0.999999 0.000000 0.001640
vn -0.999999 0.000000 0.001640
vn -0.999999 0.000000 0.001640
vn -0.999999 0.000000 0.001640
vn 0.000000 1.000000 0.000000
vn 0.000000 1.000000 0.000000
vn 0.000000 1.000000 0.000000
vn 0.000000 1.000000 0.000000
vn 0.999999 0.000000 -0.001640
vn 0.999999 0.000000 -0.001640
vn 0.999999 0.000000 -0.001640
vn 0.999999 0.000000 -0.001640
vn 0.000000 -1.000000 0.000000
vn 0.000000 -1.000000 0.000000
vn 0.000000 -1.000000 0.000000
vn 0.000000 -1.000000 0.000000
vn 0.001640 0.000000 0.999999
vn 0.001640 0.000000 0.999999
vn 0.001640 0.000000 0.999999
vn 0.001640 0.000000 0.999999
vn -0.001640 0.000000 -0.999999
vn -0.001640 0.000000 -0.999999
vn -0.001640 0.000000 -0.999999
vn -0.001640 0.000000 -0.999999
vn -0.999999 0.000000 0.001641
vn -0.999999 0.000000 0.001641
vn -0.999999 0.000000 0.001641
vn -0.999999 0.000000 0.001641
vn 0.000000 1.000000 0.000000
vn 0.000000 1.000000 0.000000
vn 0.000000 1.000000 0.000000
vn 0.000000 1.000000 0.000000
vn 0.999999 0.000000 -0.001641
vn 0.999999 0.000000 -0.001641
vn 0.999999 0.000000 -0.001641
vn 0.999999 0.000000 -0.001641
vn 0.000000 -1.000000 0.000000
vn 0.000000 -1.000000 0.000000
vn 0.000000 -1.000000 0.000000
vn 0.000000 -1.000000 0.000000
vn 0.001640 0.000000 0.999999
vn 0.001640 0.000000 0.999999
vn 0.001640 0.000000 0.999999
vn 0.001640 0.000000 0.999999
vn -0.001640 0.000000 -0.999999
vn -0.001640 0.000000 -0.999999
vn -0.001640 0.000000 -0.999999
vn -0.001640 0.000000 -0.999999
vn -0.999999 0.000000 0.001641
vn -0.999999 0.000000 0.001641
vn -0.999999 0.000000 0.001641
vn -0.999999 0.000000 0.001641
vn 0.000000 1.000000 0.000000
vn 0.000000 1.000000 0.000000
vn 0.000000 1.000000 0.000000
vn 0.000000 1.000000 0.000000
vn 0.999999 0.000000 -0.001640
vn 0.999999 0.000000 -0.001640
vn 0.999999 0.000000 -0.001640
vn 0.999999 0.000000 -0.001640
vn 0.000000 -1.000000 0.000000
vn 0.000000 -1.000000 0.000000
vn 0.000000 -1.000000 0.000000
vn 0.000000 -1.000000 0.000000
vn 0.001640 0.000000 0.999999
vn 0.001640 0.000000 0.999999
vn 0.001640 0.000000 0.999999
vn 0.001640 0.000000 0.999999
vn -0.001640 0.000000 -0.999999
vn -0.001640 0.000000 -0.999999
vn -0.001640 0.000000 -0.999999
vn -0.001640 0.000000 -0.999999
vn -0.999999 0.000000 0.001641
vn -0.999999 0.000000 0.001641
vn -0.999999 0.000000 0.001641
vn -0.999999 0.000000 0.001641
vn 0.000000 1.000000 0.000000
vn 0.000000 1.000000 0.000000
vn 0.000000 1.000000 0.000000
vn 0.000000 1.000000 0.000000
vn 0.999999 0.000000 -0.001640
vn 0.999999 0.000000 -0.001640
vn 0.999999 0.000000 -0.001640
vn 0.999999 0.000000 -0.001640
vn 0.000000 -1.000000 0.000000
vn 0.000000 -1.000000 0.000000
vn 0.000000 -1.000000 0.000000
vn 0.000000 -1.000000 0.000000
vn 0.001641 0.000000 0.999999
vn 0.001641 0.000000 0.999999
vn 0.001641 0.000000 0.999999
vn 0.001641 0.000000 0.999999
vn -0.001640 0.000000 -0.999999
vn -0.001640 0.000000 -0.999999
vn -0.001640 0.000000 -0.999999
vn -0.001640 0.000000 -0.999999
vn -0.999999 0.000000 0.001640
vn -0.999999 0.000000 0.001640
vn -0.999999 0.000000 0.001640
vn -0.999999 0.000000 0.001640
vn 0.000000 1.000000 0.000000
vn 0.000000 1.000000 0.000000
vn 0.000000 1.000000 0.000000
vn 0.000000 1.000000 0.000000
vn 0.999999 0.000000 -0.001640
vn 0.999999 0.000000 -0.001640
vn 0.999999 0.000000 -0.001640
vn 0.999999 0.000000 -0.001640
vn 0.000000 -1.000000 0.000000
vn 0.000000 -1.000000 0.000000
vn 0.000000 -1.000000 0.000000
vn 0.000000 -1.000000 0.000000
vn 0.001641 0.000000 0.999999
vn 0.001641 0.000000 0.999999
vn 0.001641 0.000000 0.999999
vn 0.001641 0.000000 0.999999
vn -0.001640 0.000000 -0.999999
vn -0.001640 0.000000 -0.999999
vn -0.001640 0.000000 -0.999999
vn -0.001640 0.000000 -0.999999
vn -0.999999 0.000000 0.001641
vn -0.999999 0.000000 0.001641
vn -0.999999 0.000000 0.001641
vn -0.999999 0.000000 0.001641
vn 0.000000 1.000000 0.000000
vn 0.000000 1.000000 0.000000
vn 0.000000 1.000000 0.000000
vn 0.000000 1.000000 0.000000
vn 0.999999 0.000000 -0.001641
vn 0.999999 0.000000 -0.001641
vn 0.999999 0.000000 -0.001641
vn 0.999999 0.000000 -0.001641
vn 0.000000 -1.000000 0.000000
vn 0.000000 -1.000000 0.000000
vn 0.000000 -1.000000 0.000000
vn 0.000000 -1.000000 0.000000
vn 0.001641 0.000000 0.999999
vn 0.001641 0.000000 0.999999
vn 0.001641 0.000000 0.999999
vn 0.001641 0.000000 0.999999
vn -0.001640 0.000000 -0.999999
vn -0.001640 0.000000 -0.999999
vn -0.001640 0.000000 -0.999999
vn -0.001640 0.000000 -0.999999
vn 0.999533 0.028256 0.011607
vn 0.999533 0.028256 0.011607
vn 0.999533 0.028256 0.011607
vn 0.999533 0.028256 0.011607
vn -0.011663 0.001808 0.999930
vn -0.011663 0.001808 0.999930
vn -0.011663 0.001808 0.999930
vn -0.011663 0.001808 0.999930
vn -0.999533 -0.028253 -0.011607
vn -0.999533 -0.028253 -0.011607
vn -0.999533 -0.028253 -0.011607
vn -0.999533 -0.028253 -0.011607
vn 0.011663 -0.001809 -0.999930
vn 0.011663 -0.001809 -0.999930
vn 0.011663 -0.001809 -0.999930
vn 0.011663 -0.001809 -0.999930
vn -0.028231 0.999599 -0.002137
vn -0.028231 0.999599 -0.002137
vn -0.028231 0.999599 -0.002137
vn -0.028231 0.999599 -0.002137
vn 0.028231 -0.999599 0.002137
vn 0.028231 -0.999599 0.002137
vn 0.028231 -0.999599 0.002137
vn 0.028231 -0.999599 0.002137
vn -0.998487 -0.029164 -0.046617
vn -0.998487 -0.029164 -0.046617
vn -0.998487 -0.029164 -0.046617
vn -0.998487 -0.029164 -0.046617
vn -0.046784 0.005074 0.998892
vn -0.046784 0.005074 0.998892
vn -0.046784 0.005074 0.998892
vn -0.046784 0.005074 0.998892
vn 0.998487 0.029164 0.046617
vn 0.998487 0.029164 0.046617
vn 0.998487 0.029164 0.046617
vn 0.998487 0.029164 0.046617
vn 0.046784 -0.005074 -0.998892
vn 0.046784 -0.005074 -0.998892
vn 0.046784 -0.005074 -0.998892
vn 0.046784 -0.005074 -0.998892
vn 0.028894 -0.999562 0.006431
vn 0.028894 -0.999562 0.006431
vn 0.028894 -0.999562 0.006431
vn 0.028894 -0.999562 0.006431
vn -0.028894 0.999562 -0.006431
vn -0.028894 0.999562 -0.006431
vn -0.028894 0.999562 -0.006431
vn -0.028894 0.999562 -0.006431
vn -0.998046 0.028256 0.055730
vn -0.998046 0.028256 0.055730
vn -0.998046 0.028256 0.055730
vn -0.998046 0.028256 0.055730
vn -0.055702 0.001808 -0.998446
vn -0.055702 0.001808 -0.998446
vn -0.055702 0.001808 -0.998446
vn -0.055702 0.001808 -0.998446
vn 0.998046 -0.028256 -0.055730
vn 0.998046 -0.028256 -0.055730
vn 0.998046 -0.028256 -0.055730
vn 0.998046 -0.028256 -0.055730
vn 0.055701 -0.001809 0.998446
vn 0.055701 -0.001809 0.998446
vn 0.055701 -0.001809 0.998446
vn 0.055701 -0.001809 0.998446
vn 0.028311 0.999599 0.000231
vn 0.028311 0.999599 0.000231
vn 0.028311 0.999599 0.000231
vn 0.028311 0.999599 0.000231
vn -0.028311 -0.999599 -0.000231
vn -0.028311 -0.999599 -0.000231
vn -0.028311 -0.999599 -0.000231
vn -0.028311 -0.999599 -0.000231
vn 0.999594 -0.027620 0.006942
vn 0.999594 -0.027620 0.006942
vn 0.999594 -0.027620 0.006942
vn 0.999594 -0.027620 0.006942
vn 0.006704 -0.008721 -0.999940
vn 0.006704 -0.008721 -0.999940
vn 0.006704 -0.008721 -0.999940
vn 0.006704 -0.008721 -0.999940
vn -0.999594 0.027620 -0.006942
vn -0.999594 0.027620 -0.006942
vn -0.999594 0.027620 -0.006942
vn -0.999594 0.027620 -0.006942
vn -0.006704 0.008721 0.999940
vn -0.006704 0.008721 0.999940
vn -0.006704 0.008721 0.999940
vn -0.006704 0.008721 0.999940
vn -0.027679 -0.999581 0.008533
vn -0.027679 -0.999581 0.008533
vn -0.027679 -0.999581 0.008533
vn -0.027679 -0.999581 0.008533
vn 0.027679 0.999581 -0.008533
vn 0.027679 0.999581 -0.008533
vn 0.027679 0.999581 -0.008533
vn 0.027679 0.999581 -0.008533
vn -0.998487 -0.029162 -0.046617
vn -0.998487 -0.029162 -0.046617
vn -0.998487 -0.029162 -0.046617
vn -0.998487 -0.029162 -0.046617
vn -0.046784 0.005074 0.998892
vn -0.046784 0.005074 0.998892
vn -0.046784 0.005074 0.998892
vn -0.046784 0.005074 0.998892
vn 0.998487 0.029166 0.046617
vn 0.998487 0.029166 0.046617
vn 0.998487 0.029166 0.046617
vn 0.998487 0.029166 0.046617
vn 0.046784 -0.005074 -0.998892
vn 0.046784 -0.005074 -0.998892
vn 0.046784 -0.005074 -0.998892
vn 0.046784 -0.005074 -0.998892
vn 0.028894 -0.999562 0.006431
vn 0.028894 -0.999562 0.006431
vn 0.028894 -0.999562 0.006431
vn 0.028894 -0.999562 0.006431
vn -0.028894 0.999562 -0.006431
vn -0.028894 0.999562 -0.006431
vn -0.028894 0.999562 -0.006431
vn -0.028894 0.999562 -0.006431
vn 0.999594 -0.027622 0.006942
vn 0.999594 -0.027622 0.006942
vn 0.999594 -0.027622 0.006942
vn 0.999594 -0.027622 0.006942
vn 0.006704 -0.008721 -0.999940
vn 0.006704 -0.008721 -0.999940
vn 0.006704 -0.008721 -0.999940
vn 0.006704 -0.008721 -0.999940
vn -0.999594 0.027621 -0.006942
vn -0.999594 0.027621 -0.006942
vn -0.999594 0.027621 -0.006942
vn -0.999594 0.027621 -0.006942
vn -0.006704 0.008721 0.999940
vn -0.006704 0.008721 0.999940
vn -0.006704 0.008721 0.999940
vn -0.006704 0.008721 0.999940
vn -0.027679 -0.999581 0.008533
vn -0.027679 -0.999581 0.008533
vn -0.027679 -0.999581 0.008533
vn -0.027679 -0.999581 0.008533
vn 0.027679 0.999581 -0.008533
vn 0.027679 0.999581 -0.008533
vn 0.027679 0.999581 -0.008533
vn 0.027679 0.999581 -0.008533
vn 0.994637 0.065630 0.079932
vn 0.002505 -0.013997 0.999899
vn 0.002505 -0.165717 0.986170
vn 0.994637 -0.078913 0.066853
vn 0.002402 0.985986 0.166809
vn 0.994637 0.078913 -0.066853
vn 0.002402 0.999914 0.012889
vn 0.000003 -0.014014 0.999902
vn 0.000003 0.985988 0.166814
vn -0.002861 0.985993 0.166760
vn -0.002983 -0.014044 0.999897
vn 0.002505 0.165717 -0.986170
vn 0.994637 -0.065631 -0.079932
vn 0.002505 0.013997 -0.999899
vn 0.000003 0.999917 0.012884
vn 0.000003 0.165701 -0.986176
vn -0.002983 0.165670 -0.986177
vn -0.002861 0.999912 0.012939
vn -0.994637 0.065631 0.079933
vn -0.994637 -0.078913 0.066854
vn -0.002983 -0.165670 0.986177
vn -0.994637 0.078913 -0.066854
vn -0.002983 0.014044 -0.999897
vn -0.994637 -0.065631 -0.079933
vn -0.002861 -0.999912 -0.012939
vn 0.000003 -0.999917 -0.012885
vn 0.000003 -0.165701 0.986176
vn -0.002861 -0.985994 -0.166759
vn 0.000003 0.014014 -0.999902
vn 0.000003 -0.985988 -0.166814
vn 0.002402 -0.999914 -0.012890
vn 0.002402 -0.985986 -0.166808
vn 0.994637 -0.073693 0.072567
vn 0.002505 -0.997092 0.076170
vn 0.002505 -0.997092 -0.076170
vn 0.994637 -0.073693 -0.072567
vn 0.002402 -0.077274 0.997007
vn 0.994637 0.073693 0.072567
vn 0.002402 0.077274 0.997007
vn 0.000003 -0.997096 0.076153
vn 0.000003 -0.077279 0.997010
vn -0.002861 -0.077225 0.997010
vn -0.002983 -0.997094 0.076123
vn 0.002505 0.997092 0.076170
vn 0.994637 0.073693 -0.072567
vn 0.002505 0.997092 -0.076170
vn 0.000003 0.077279 0.997010
vn 0.000003 0.997096 0.076153
vn -0.002983 0.997094 0.076123
vn -0.002861 0.077225 0.997010
vn -0.994637 -0.073694 0.072568
vn -0.994637 -0.073694 -0.072568
vn -0.002983 -0.997094 -0.076123
vn -0.994637 0.073694 0.072568
vn -0.002983 0.997094 -0.076123
vn -0.994637 0.073694 -0.072568
vn -0.002861 -0.077224 -0.997010
vn 0.000003 -0.077279 -0.997010
vn 0.000003 -0.997096 -0.076153
vn -0.002861 0.077224 -0.997010
vn 0.000003 0.997096 -0.076153
vn 0.000003 0.077279 -0.997010
vn 0.002402 -0.077274 -0.997007
vn 0.002402 0.077274 -0.997007
vn -0.998487 -0.029164 -0.046617
vn -0.998487 -0.029164 -0.046617
vn -0.998487 -0.029164 -0.046617
vn -0.998487 -0.029164 -0.046617
vn -0.046784 0.005074 0.998892
vn -0.046784 0.005074 0.998892
vn -0.046784 0.005074 0.998892
vn -0.046783 0.005074 0.998892
vn 0.998487 0.029164 0.046617
vn 0.998487 0.029164 0.046617
vn 0.998487 0.029164 0.046617
vn 0.998487 0.029164 0.046617
vn 0.046784 -0.005074 -0.998892
vn 0.046784 -0.005074 -0.998892
vn 0.046784 -0.005074 -0.998892
vn 0.046784 -0.005074 -0.998892
vn 0.028894 -0.999562 0.006431
vn 0.028894 -0.999562 0.006431
vn 0.028894 -0.999562 0.006431
vn 0.028894 -0.999562 0.006431
vn -0.028894 0.999562 -0.006431
vn -0.028894 0.999562 -0.006431
vn -0.028894 0.999562 -0.006431
vn -0.028894 0.999562 -0.006431
vn 0.999533 0.028256 0.011607
vn 0.999533 0.028256 0.011607
vn 0.999533 0.028256 0.011607
vn 0.999533 0.028256 0.011607
vn -0.011663 0.001808 0.999930
vn -0.011663 0.001808 0.999930
vn -0.011663 0.001808 0.999930
vn -0.011663 0.001808 0.999930
vn -0.999533 -0.028255 -0.011607
vn -0.999533 -0.028255 -0.011607
vn -0.999533 -0.028255 -0.011607
vn -0.999533 -0.028255 -0.011607
vn 0.011663 -0.001809 -0.999930
vn 0.011663 -0.001809 -0.999930
vn 0.011663 -0.001809 -0.999930
vn 0.011663 -0.001809 -0.999930
vn -0.028231 0.999599 -0.002137
vn -0.028231 0.999599 -0.002137
vn -0.028231 0.999599 -0.002137
vn -0.028231 0.999599 -0.002137
vn 0.028231 -0.999599 0.002137
vn 0.028231 -0.999599 0.002137
vn 0.028231 -0.999599 0.002137
vn 0.028231 -0.999599 0.002137
s off
g polySurface335
usemtl lambert6SG
f 1/1/1 2/2/2 4/3/3 3/4/4
f 3/4/5 4/5/6 6/6/7 5/7/8
f 5/8/9 6/9/10 8/10/11 7/11/12
f 7/12/13 8/13/14 2/14/15 1/1/16
f 2/2/17 8/10/18 6/9/19 4/3/20
f 7/12/21 1/1/22 3/4/23 5/7/24
f 9/15/25 10/16/26 12/17/27 11/18/28
f 11/18/29 12/19/30 14/20/31 13/21/32
f 13/22/33 14/23/34 16/24/35 15/25/36
f 15/26/37 16/27/38 10/28/39 9/15/40
f 10/16/41 16/24/42 14/23/43 12/17/44
f 15/26/45 9/15/46 11/18/47 13/21/48
s 1
f 17/29/49 19/30/50 35/31/51 37/32/52
f 18/33/53 17/34/49 22/35/54 21/36/55
f 48/37/56 41/38/57 24/39/58 23/40/59
f 20/41/60 22/42/54 38/43/61 40/44/62
f 42/45/63 43/46/64 28/47/65 27/48/66
f 23/49/59 25/50/67 30/51/68 29/52/69
f 25/53/67 24/39/58 27/48/66 26/54/70
f 26/55/70 28/56/65 34/57/71 33/58/72
f 29/59/69 31/60/73 46/61/74 47/62/75
f 31/60/73 30/51/68 33/58/72 32/63/76
f 32/63/76 34/64/71 44/65/77 45/66/78
f 37/32/52 36/67/79 39/68/80 38/43/61
f 41/38/57 42/45/63 27/48/66 24/39/58
f 25/50/67 26/55/70 33/58/72 30/51/68
f 31/60/73 32/63/76 45/66/78 46/61/74
f 37/32/52 38/43/61 22/42/54 17/29/49
f 43/46/64 44/65/77 34/64/71 28/47/65
f 47/69/75 48/37/56 23/40/59 29/70/69
f 17/34/49 18/33/53 19/71/50
f 20/72/60 21/36/55 22/35/54
f 23/40/59 24/39/58 25/53/67
f 26/54/70 27/48/66 28/47/65
f 29/52/69 30/51/68 31/60/73
f 32/63/76 33/58/72 34/57/71
f 35/73/51 36/67/79 37/32/52
f 38/43/61 39/68/80 40/74/62
f 18/33/53 21/36/55 42/45/63 41/38/57
f 21/36/55 20/72/60 43/46/64 42/45/63
f 20/72/60 40/74/62 44/65/77 43/46/64
f 45/66/78 44/65/77 40/74/62 39/68/80
f 46/61/74 45/66/78 39/68/80 36/67/79
f 47/62/75 46/61/74 36/67/79 35/73/51
f 35/75/51 19/71/50 48/37/56 47/69/75
f 19/71/50 18/33/53 41/38/57 48/37/56
s 4
f 49/76/81 51/77/82 67/78/83 69/79/84
f 50/80/85 49/81/81 54/82/86 53/83/87
f 80/84/88 73/85/89 56/86/90 55/87/91
f 52/88/92 54/89/86 70/90/93 72/91/94
f 74/92/95 75/93/96 60/94/97 59/95/98
f 55/96/91 57/97/99 62/98/100 61/99/101
f 57/100/99 56/86/90 59/95/98 58/101/102
f 58/102/102 60/103/97 66/104/103 65/105/104
f 61/106/101 63/107/105 78/108/106 79/109/107
f 63/107/105 62/98/100 65/105/104 64/110/108
f 64/110/108 66/111/103 76/112/109 77/113/110
f 69/79/84 68/114/111 71/115/112 70/90/93
f 73/85/89 74/92/95 59/95/98 56/86/90
f 57/97/99 58/102/102 65/105/104 62/98/100
f 63/107/105 64/110/108 77/113/110 78/108/106
f 69/79/84 70/90/93 54/89/86 49/76/81
f 75/93/96 76/112/109 66/111/103 60/94/97
f 79/116/107 80/84/88 55/87/91 61/117/101
f 49/81/81 50/80/85 51/118/82
f 52/119/92 53/83/87 54/82/86
f 55/87/91 56/86/90 57/100/99
f 58/101/102 59/95/98 60/94/97
f 61/99/101 62/98/100 63/107/105
f 64/110/108 65/105/104 66/104/103
f 67/120/83 68/114/111 69/79/84
f 70/90/93 71/115/112 72/121/94
f 50/80/85 53/83/87 74/92/95 73/85/89
f 53/83/87 52/119/92 75/93/96 74/92/95
f 52/119/92 72/121/94 76/112/109 75/93/96
f 77/113/110 76/112/109 72/121/94 71/115/112
f 78/108/106 77/113/110 71/115/112 68/114/111
f 79/109/107 78/108/106 68/114/111 67/120/83
f 67/122/83 51/118/82 80/84/88 79/116/107
f 51/118/82 50/80/85 73/85/89 80/84/88
s 7
f 81/123/113 83/124/114 99/125/115 101/126/116
f 82/127/117 81/128/113 86/129/118 85/130/119
f 112/131/120 105/132/121 88/133/122 87/134/123
f 84/135/124 86/136/118 102/137/125 104/138/126
f 106/139/127 107/140/128 92/141/129 91/142/130
f 87/143/123 89/144/131 94/145/132 93/146/133
f 89/147/131 88/133/122 91/142/130 90/148/134
f 90/149/134 92/150/129 98/151/135 97/152/136
f 93/153/133 95/154/137 110/155/138 111/156/139
f 95/154/137 94/145/132 97/152/136 96/157/140
f 96/157/140 98/158/135 108/159/141 109/160/142
f 101/126/116 100/161/143 103/162/144 102/137/125
f 105/132/121 106/139/127 91/142/130 88/133/122
f 89/144/131 90/149/134 97/152/136 94/145/132
f 95/154/137 96/157/140 109/160/142 110/155/138
f 101/126/116 102/137/125 86/136/118 81/123/113
f 107/140/128 108/159/141 98/158/135 92/141/129
f 111/163/139 112/131/120 87/134/123 93/164/133
f 81/128/113 82/127/117 83/165/114
f 84/166/124 85/130/119 86/129/118
f 87/134/123 88/133/122 89/147/131
f 90/148/134 91/142/130 92/141/129
f 93/146/133 94/145/132 95/154/137
f 96/157/140 97/152/136 98/151/135
f 99/167/115 100/161/143 101/126/116
f 102/137/125 103/162/144 104/168/126
f 82/127/117 85/130/119 106/139/127 105/132/121
f 85/130/119 84/166/124 107/140/128 106/139/127
f 84/166/124 104/168/126 108/159/141 107/140/128
f 109/160/142 108/159/141 104/168/126 103/162/144
f 110/155/138 109/160/142 103/162/144 100/161/143
f 111/156/139 110/155/138 100/161/143 99/167/115
f 99/169/115 83/165/114 112/131/120 111/163/139
f 83/165/114 82/127/117 105/132/121 112/131/120
s 10
f 113/170/145 115/171/146 131/172/147 133/173/148
f 114/174/149 113/175/145 118/176/150 117/177/151
f 144/178/152 137/179/153 120/180/154 119/181/155
f 116/182/156 118/183/150 134/184/157 136/185/158
f 138/186/159 139/187/160 124/188/161 123/189/162
f 119/190/155 121/191/163 126/192/164 125/193/165
f 121/194/163 120/180/154 123/189/162 122/195/166
f 122/196/166 124/197/161 130/198/167 129/199/168
f 125/200/165 127/201/169 142/202/170 143/203/171
f 127/201/169 126/192/164 129/199/168 128/204/172
f 128/204/172 130/205/167 140/206/173 141/207/174
f 133/173/148 132/208/175 135/209/176 134/184/157
f 137/179/153 138/186/159 123/189/162 120/180/154
f 121/191/163 122/196/166 129/199/168 126/192/164
f 127/201/169 128/204/172 141/207/174 142/202/170
f 133/173/148 134/184/157 118/183/150 113/170/145
f 139/187/160 140/206/173 130/205/167 124/188/161
f 143/210/171 144/178/152 119/181/155 125/211/165
f 113/175/145 114/174/149 115/212/146
f 116/213/156 117/177/151 118/176/150
f 119/181/155 120/180/154 121/194/163
f 122/195/166 123/189/162 124/188/161
f 125/193/165 126/192/164 127/201/169
f 128/204/172 129/199/168 130/198/167
f 131/214/147 132/208/175 133/173/148
f 134/184/157 135/209/176 136/215/158
f 114/174/149 117/177/151 138/186/159 137/179/153
f 117/177/151 116/213/156 139/187/160 138/186/159
f 116/213/156 136/215/158 140/206/173 139/187/160
f 141/207/174 140/206/173 136/215/158 135/209/176
f 142/202/170 141/207/174 135/209/176 132/208/175
f 143/203/171 142/202/170 132/208/175 131/214/147
f 131/216/147 115/212/146 144/178/152 143/210/171
f 115/212/146 114/174/149 137/179/153 144/178/152
s 13
f 145/217/177 147/218/178 163/219/179 165/220/180
f 146/221/181 145/222/177 150/223/182 149/224/183
f 176/225/184 169/226/185 152/227/186 151/228/187
f 148/229/188 150/230/182 166/231/189 168/232/190
f 170/233/191 171/234/192 156/235/193 155/236/194
f 151/237/187 153/238/195 158/239/196 157/240/197
f 153/241/195 152/227/186 155/236/194 154/242/198
f 154/243/198 156/244/193 162/245/199 161/246/200
f 157/247/197 159/248/201 174/249/202 175/250/203
f 159/248/201 158/239/196 161/246/200 160/251/204
f 160/251/204 162/252/199 172/253/205 173/254/206
f 165/220/180 164/255/207 167/256/208 166/231/189
f 169/226/185 170/233/191 155/236/194 152/227/186
f 153/238/195 154/243/198 161/246/200 158/239/196
f 159/248/201 160/251/204 173/254/206 174/249/202
f 165/220/180 166/231/189 150/230/182 145/217/177
f 171/234/192 172/253/205 162/252/199 156/235/193
f 175/257/203 176/225/184 151/228/187 157/258/197
f 145/222/177 146/221/181 147/259/178
f 148/260/188 149/224/183 150/223/182
f 151/228/187 152/227/186 153/241/195
f 154/242/198 155/236/194 156/235/193
f 157/240/197 158/239/196 159/248/201
f 160/251/204 161/246/200 162/245/199
f 163/261/179 164/255/207 165/220/180
f 166/231/189 167/256/208 168/262/190
f 146/221/181 149/224/183 170/233/191 169/226/185
f 149/224/183 148/260/188 171/234/192 170/233/191
f 148/260/188 168/262/190 172/253/205 171/234/192
f 173/254/206 172/253/205 168/262/190 167/256/208
f 174/249/202 173/254/206 167/256/208 164/255/207
f 175/250/203 174/249/202 164/255/207 163/261/179
f 163/263/179 147/259/178 176/225/184 175/257/203
f 147/259/178 146/221/181 169/226/185 176/225/184
s 16
f 177/264/209 179/265/210 195/266/211 197/267/212
f 178/268/213 177/269/209 182/270/214 181/271/215
f 208/272/216 201/273/217 184/274/218 183/275/219
f 180/276/220 182/277/214 198/278/221 200/279/222
f 202/280/223 203/281/224 188/282/225 187/283/226
f 183/284/219 185/285/227 190/286/228 189/287/229
f 185/288/227 184/274/218 187/283/226 186/289/230
f 186/290/230 188/291/225 194/292/231 193/293/232
f 189/294/229 191/295/233 206/296/234 207/297/235
f 191/295/233 190/286/228 193/293/232 192/298/236
f 192/298/236 194/299/231 204/300/237 205/301/238
f 197/267/212 196/302/239 199/303/240 198/278/221
f 201/273/217 202/280/223 187/283/226 184/274/218
f 185/285/227 186/290/230 193/293/232 190/286/228
f 191/295/233 192/298/236 205/301/238 206/296/234
f 197/267/212 198/278/221 182/277/214 177/264/209
f 203/281/224 204/300/237 194/299/231 188/282/225
f 207/304/235 208/272/216 183/275/219 189/305/229
f 177/269/209 178/268/213 179/306/210
f 180/307/220 181/271/215 182/270/214
f 183/275/219 184/274/218 185/288/227
f 186/289/230 187/283/226 188/282/225
f 189/287/229 190/286/228 191/295/233
f 192/298/236 193/293/232 194/292/231
f 195/308/211 196/302/239 197/267/212
f 198/278/221 199/303/240 200/309/222
f 178/268/213 181/271/215 202/280/223 201/273/217
f 181/271/215 180/307/220 203/281/224 202/280/223
f 180/307/220 200/309/222 204/300/237 203/281/224
f 205/301/238 204/300/237 200/309/222 199/303/240
f 206/296/234 205/301/238 199/303/240 196/302/239
f 207/297/235 206/296/234 196/302/239 195/308/211
f 195/310/211 179/306/210 208/272/216 207/304/235
f 179/306/210 178/268/213 201/273/217 208/272/216
s off
f 209/311/241 210/312/242 212/313/243 211/314/244
f 211/314/245 212/315/246 214/316/247 213/317/248
f 213/318/249 214/319/250 216/320/251 215/321/252
f 215/322/253 216/323/254 210/324/255 209/311/256
f 210/312/257 216/320/258 214/319/259 212/313/260
f 215/322/261 209/311/262 211/314/263 213/317/264
f 217/325/265 218/326/266 220/327/267 219/328/268
f 219/328/269 220/329/270 222/330/271 221/331/272
f 221/332/273 222/333/274 224/334/275 223/335/276
f 223/336/277 224/337/278 218/338/279 217/325/280
f 218/326/281 224/334/282 222/333/283 220/327/284
f 223/336/285 217/325/286 219/328/287 221/331/288
f 225/339/289 226/340/290 228/341/291 227/342/292
f 227/342/293 228/343/294 230/344/295 229/345/296
f 229/346/297 230/347/298 232/348/299 231/349/300
f 231/350/301 232/351/302 226/352/303 225/339/304
f 226/340/305 232/348/306 230/347/307 228/341/308
f 231/350/309 225/339/310 227/342/311 229/345/312
f 233/353/313 234/354/314 236/355/315 235/356/316
f 235/356/317 236/357/318 238/358/319 237/359/320
f 237/360/321 238/361/322 240/362/323 239/363/324
f 239/364/325 240/365/326 234/366/327 233/353/328
f 234/354/329 240/362/330 238/361/331 236/355/332
f 239/364/333 233/353/334 235/356/335 237/359/336
f 241/367/337 242/368/338 244/369/339 243/370/340
f 243/370/341 244/371/342 246/372/343 245/373/344
f 245/374/345 246/375/346 248/376/347 247/377/348
f 247/378/349 248/379/350 242/380/351 241/367/352
f 242/368/353 248/376/354 246/375/355 244/369/356
f 247/378/357 241/367/358 243/370/359 245/373/360
s 19
f 249/381/361 251/382/362 267/383/363 269/384/364
f 250/385/365 249/386/361 254/387/366 253/388/367
f 280/389/368 273/390/369 256/391/370 255/392/371
f 252/393/372 254/394/366 270/395/373 272/396/374
f 274/397/375 275/398/376 260/399/377 259/400/378
f 255/401/371 257/402/379 262/403/380 261/404/381
f 257/405/379 256/391/370 259/400/378 258/406/382
f 258/407/382 260/408/377 266/409/383 265/410/384
f 261/411/381 263/412/385 278/413/386 279/414/387
f 263/412/385 262/403/380 265/410/384 264/415/388
f 264/415/388 266/416/383 276/417/389 277/418/390
f 269/384/364 268/419/391 271/420/392 270/395/373
f 273/390/369 274/397/375 259/400/378 256/391/370
f 257/402/379 258/407/382 265/410/384 262/403/380
f 263/412/385 264/415/388 277/418/390 278/413/386
f 269/384/364 270/395/373 254/394/366 249/381/361
f 275/398/376 276/417/389 266/416/383 260/399/377
f 279/421/387 280/389/368 255/392/371 261/422/381
f 249/386/361 250/385/365 251/423/362
f 252/424/372 253/388/367 254/387/366
f 255/392/371 256/391/370 257/405/379
f 258/406/382 259/400/378 260/399/377
f 261/404/381 262/403/380 263/412/385
f 264/415/388 265/410/384 266/409/383
f 267/425/363 268/419/391 269/384/364
f 270/395/373 271/420/392 272/426/374
f 250/385/365 253/388/367 274/397/375 273/390/369
f 253/388/367 252/424/372 275/398/376 274/397/375
f 252/424/372 272/426/374 276/417/389 275/398/376
f 277/418/390 276/417/389 272/426/374 271/420/392
f 278/413/386 277/418/390 271/420/392 268/419/391
f 279/414/387 278/413/386 268/419/391 267/425/363
f 267/427/363 251/423/362 280/389/368 279/421/387
f 251/423/362 250/385/365 273/390/369 280/389/368
s 22
f 281/428/393 283/429/394 299/430/395 301/431/396
f 282/432/397 281/433/393 286/434/398 285/435/399
f 312/436/400 305/437/401 288/438/402 287/439/403
f 284/440/404 286/441/398 302/442/405 304/443/406
f 306/444/407 307/445/408 292/446/409 291/447/410
f 287/448/403 289/449/411 294/450/412 293/451/413
f 289/452/411 288/438/402 291/447/410 290/453/414
f 290/454/414 292/455/409 298/456/415 297/457/416
f 293/458/413 295/459/417 310/460/418 311/461/419
f 295/459/417 294/450/412 297/457/416 296/462/420
f 296/462/420 298/463/415 308/464/421 309/465/422
f 301/431/396 300/466/423 303/467/424 302/442/405
f 305/437/401 306/444/407 291/447/410 288/438/402
f 289/449/411 290/454/414 297/457/416 294/450/412
f 295/459/417 296/462/420 309/465/422 310/460/418
f 301/431/396 302/442/405 286/441/398 281/428/393
f 307/445/408 308/464/421 298/463/415 292/446/409
f 311/468/419 312/436/400 287/439/403 293/469/413
f 281/433/393 282/432/397 283/470/394
f 284/471/404 285/435/399 286/434/398
f 287/439/403 288/438/402 289/452/411
f 290/453/414 291/447/410 292/446/409
f 293/451/413 294/450/412 295/459/417
f 296/462/420 297/457/416 298/456/415
f 299/472/395 300/466/423 301/431/396
f 302/442/405 303/467/424 304/473/406
f 282/432/397 285/435/399 306/444/407 305/437/401
f 285/435/399 284/471/404 307/445/408 306/444/407
f 284/471/404 304/473/406 308/464/421 307/445/408
f 309/465/422 308/464/421 304/473/406 303/467/424
f 310/460/418 309/465/422 303/467/424 300/466/423
f 311/461/419 310/460/418 300/466/423 299/472/395
f 299/474/395 283/470/394 312/436/400 311/468/419
f 283/470/394 282/432/397 305/437/401 312/436/400
s 25
f 313/475/425 315/476/426 331/477/427 333/478/428
f 314/479/429 313/480/425 318/481/430 317/482/431
f 344/483/432 337/484/433 320/485/434 319/486/435
f 316/487/436 318/488/430 334/489/437 336/490/438
f 338/491/439 339/492/440 324/493/441 323/494/442
f 319/495/435 321/496/443 326/497/444 325/498/445
f 321/499/443 320/485/434 323/494/442 322/500/446
f 322/501/446 324/502/441 330/503/447 329/504/448
f 325/505/445 327/506/449 342/507/450 343/508/451
f 327/506/449 326/497/444 329/504/448 328/509/452
f 328/509/452 330/510/447 340/511/453 341/512/454
f 333/478/428 332/513/455 335/514/456 334/489/437
f 337/484/433 338/491/439 323/494/442 320/485/434
f 321/496/443 322/501/446 329/504/448 326/497/444
f 327/506/449 328/509/452 341/512/454 342/507/450
f 333/478/428 334/489/437 318/488/430 313/475/425
f 339/492/440 340/511/453 330/510/447 324/493/441
f 343/515/451 344/483/432 319/486/435 325/516/445
f 313/480/425 314/479/429 315/517/426
f 316/518/436 317/482/431 318/481/430
f 319/486/435 320/485/434 321/499/443
f 322/500/446 323/494/442 324/493/441
f 325/498/445 326/497/444 327/506/449
f 328/509/452 329/504/448 330/503/447
f 331/519/427 332/513/455 333/478/428
f 334/489/437 335/514/456 336/520/438
f 314/479/429 317/482/431 338/491/439 337/484/433
f 317/482/431 316/518/436 339/492/440 338/491/439
f 316/518/436 336/520/438 340/511/453 339/492/440
f 341/512/454 340/511/453 336/520/438 335/514/456
f 342/507/450 341/512/454 335/514/456 332/513/455
f 343/508/451 342/507/450 332/513/455 331/519/427
f 331/521/427 315/517/426 344/483/432 343/515/451
f 315/517/426 314/479/429 337/484/433 344/483/432
s 28
f 345/522/457 347/523/458 363/524/459 365/525/460
f 346/526/461 345/527/457 350/528/462 349/529/463
f 376/530/464 369/531/465 352/532/466 351/533/467
f 348/534/468 350/535/462 366/536/469 368/537/470
f 370/538/471 371/539/472 356/540/473 355/541/474
f 351/542/467 353/543/475 358/544/476 357/545/477
f 353/546/475 352/532/466 355/541/474 354/547/478
f 354/548/478 356/549/473 362/550/479 361/551/480
f 357/552/477 359/553/481 374/554/482 375/555/483
f 359/553/481 358/544/476 361/551/480 360/556/484
f 360/556/484 362/557/479 372/558/485 373/559/486
f 365/525/460 364/560/487 367/561/488 366/536/469
f 369/531/465 370/538/471 355/541/474 352/532/466
f 353/543/475 354/548/478 361/551/480 358/544/476
f 359/553/481 360/556/484 373/559/486 374/554/482
f 365/525/460 366/536/469 350/535/462 345/522/457
f 371/539/472 372/558/485 362/557/479 356/540/473
f 375/562/483 376/530/464 351/533/467 357/563/477
f 345/527/457 346/526/461 347/564/458
f 348/565/468 349/529/463 350/528/462
f 351/533/467 352/532/466 353/546/475
f 354/547/478 355/541/474 356/540/473
f 357/545/477 358/544/476 359/553/481
f 360/556/484 361/551/480 362/550/479
f 363/566/459 364/560/487 365/525/460
f 366/536/469 367/561/488 368/567/470
f 346/526/461 349/529/463 370/538/471 369/531/465
f 349/529/463 348/565/468 371/539/472 370/538/471
f 348/565/468 368/567/470 372/558/485 371/539/472
f 373/559/486 372/558/485 368/567/470 367/561/488
f 374/554/482 373/559/486 367/561/488 364/560/487
f 375/555/483 374/554/482 364/560/487 363/566/459
f 363/568/459 347/564/458 376/530/464 375/562/483
f 347/564/458 346/526/461 369/531/465 376/530/464
s off
f 377/569/489 378/570/490 380/571/491 379/572/492
f 379/573/493 380/574/494 382/575/495 381/576/496
f 381/576/497 382/575/498 384/577/499 383/578/500
f 383/578/501 384/577/502 378/579/503 377/580/504
f 378/570/505 384/577/506 382/575/507 380/571/508
f 383/581/509 377/569/510 379/572/511 381/582/512
f 385/583/513 386/584/514 388/585/515 387/586/516
f 387/587/517 388/588/518 390/589/519 389/590/520
f 389/590/521 390/589/522 392/591/523 391/592/524
f 391/592/525 392/591/526 386/593/527 385/594/528
f 386/584/529 392/591/530 390/589/531 388/585/532
f 391/595/533 385/583/534 387/586/535 389/596/536
f 393/597/537 394/598/538 396/599/539 395/600/540
f 395/601/541 396/602/542 398/603/543 397/604/544
f 397/604/545 398/603/546 400/605/547 399/606/548
f 399/606/549 400/605/550 394/607/551 393/608/552
f 394/598/553 400/605/554 398/603/555 396/599/556
f 399/609/557 393/597/558 395/600/559 397/610/560
f 401/611/561 402/612/562 404/613/563 403/614/564
f 403/615/565 404/616/566 406/617/567 405/618/568
f 405/618/569 406/617/570 408/619/571 407/620/572
f 407/620/573 408/619/574 402/621/575 401/622/576
f 402/612/577 408/619/578 406/617/579 404/613/580
f 407/623/581 401/611/582 403/614/583 405/624/584
f 409/625/585 410/626/586 412/627/587 411/628/588
f 411/629/589 412/630/590 414/631/591 413/632/592
f 413/632/593 414/631/594 416/633/595 415/634/596
f 415/634/597 416/633/598 410/635/599 409/636/600
f 410/626/601 416/633/602 414/631/603 412/627/604
f 415/637/605 409/625/606 411/628/607 413/638/608
f 417/639/609 418/640/610 420/641/611 419/642/612
f 419/643/613 420/644/614 422/645/615 421/646/616
f 421/646/617 422/645/618 424/647/619 423/648/620
f 423/648/621 424/647/622 418/649/623 417/650/624
f 418/640/625 424/647/626 422/645/627 420/641/628
f 423/651/629 417/639/630 419/642/631 421/652/632
f 425/653/633 426/654/634 428/655/635 427/656/636
f 427/657/637 428/658/638 430/659/639 429/660/640
f 429/660/641 430/659/642 432/661/643 431/662/644
f 431/662/645 432/661/646 426/663/647 425/664/648
f 426/654/649 432/661/650 430/659/651 428/655/652
f 431/665/653 425/653/654 427/656/655 429/666/656
f 433/667/657 434/668/658 436/669/659 435/670/660
f 435/671/661 436/672/662 438/673/663 437/674/664
f 437/674/665 438/673/666 440/675/667 439/676/668
f 439/676/669 440/675/670 434/677/671 433/678/672
f 434/668/673 440/675/674 438/673/675 436/669/676
f 439/679/677 433/667/678 435/670/679 437/680/680
f 441/681/681 442/682/682 444/683/683 443/684/684
f 443/685/685 444/686/686 446/687/687 445/688/688
f 445/688/689 446/687/690 448/689/691 447/690/692
f 447/690/693 448/689/694 442/691/695 441/692/696
f 442/682/697 448/689/698 446/687/699 444/683/700
f 447/693/701 441/681/702 443/684/703 445/694/704
f 449/695/705 450/696/706 452/697/707 451/698/708
f 451/699/709 452/700/710 454/701/711 453/702/712
f 453/702/713 454/701/714 456/703/715 455/704/716
f 455/704/717 456/703/718 450/705/719 449/706/720
f 450/696/721 456/703/722 454/701/723 452/697/724
f 455/707/725 449/695/726 451/698/727 453/708/728
f 457/709/729 458/710/730 460/711/731 459/712/732
f 459/712/733 460/713/734 462/714/735 461/715/736
f 461/716/737 462/717/738 464/718/739 463/719/740
f 463/720/741 464/721/742 458/722/743 457/709/744
f 458/710/745 464/718/746 462/717/747 460/711/748
f 463/720/749 457/709/750 459/712/751 461/715/752
f 465/723/753 466/724/754 468/725/755 467/726/756
f 467/726/757 468/727/758 470/728/759 469/729/760
f 469/730/761 470/731/762 472/732/763 471/733/764
f 471/734/765 472/735/766 466/736/767 465/723/768
f 466/724/769 472/732/770 470/731/771 468/725/772
f 471/734/773 465/723/774 467/726/775 469/729/776
f 473/737/777 474/738/778 476/739/779 475/740/780
f 475/740/781 476/741/782 478/742/783 477/743/784
f 477/744/785 478/745/786 480/746/787 479/747/788
f 479/748/789 480/749/790 474/750/791 473/737/792
f 474/738/793 480/746/794 478/745/795 476/739/796
f 479/748/797 473/737/798 475/740/799 477/743/800
f 481/751/801 482/752/802 484/753/803 483/754/804
f 483/754/805 484/755/806 486/756/807 485/757/808
f 485/758/809 486/759/810 488/760/811 487/761/812
f 487/762/813 488/763/814 482/764/815 481/751/816
f 482/752/817 488/760/818 486/759/819 484/753/820
f 487/762/821 481/751/822 483/754/823 485/757/824
f 489/765/825 490/766/826 492/767/827 491/768/828
f 491/768/829 492/769/830 494/770/831 493/771/832
f 493/772/833 494/773/834 496/774/835 495/775/836
f 495/776/837 496/777/838 490/778/839 489/765/840
f 490/766/841 496/774/842 494/773/843 492/767/844
f 495/776/845 489/765/846 491/768/847 493/771/848
f 497/779/849 498/780/850 500/781/851 499/782/852
f 499/782/853 500/783/854 502/784/855 501/785/856
f 501/786/857 502/787/858 504/788/859 503/789/860
f 503/790/861 504/791/862 498/792/863 497/779/864
f 498/780/865 504/788/866 502/787/867 500/781/868
f 503/790/869 497/779/870 499/782/871 501/785/872
s 31
f 505/793/873 507/794/874 523/795/875 525/796/876
f 506/797/877 505/798/873 510/799/878 509/800/879
f 536/801/880 529/802/881 512/803/882 511/804/883
f 508/805/884 510/806/878 526/807/885 528/808/886
f 530/809/887 531/810/888 516/811/889 515/812/890
f 511/813/883 513/814/891 518/815/892 517/816/893
f 513/817/891 512/803/882 515/812/890 514/818/894
f 514/819/894 516/820/889 522/821/895 521/822/896
f 517/823/893 519/824/897 534/825/898 535/826/899
f 519/824/897 518/815/892 521/822/896 520/827/900
f 520/827/900 522/828/895 532/829/901 533/830/902
f 525/796/876 524/831/903 527/832/904 526/807/885
f 529/802/881 530/809/887 515/812/890 512/803/882
f 513/814/891 514/819/894 521/822/896 518/815/892
f 519/824/897 520/827/900 533/830/902 534/825/898
f 525/796/876 526/807/885 510/806/878 505/793/873
f 531/810/888 532/829/901 522/828/895 516/811/889
f 535/833/899 536/801/880 511/804/883 517/834/893
f 505/798/873 506/797/877 507/835/874
f 508/836/884 509/800/879 510/799/878
f 511/804/883 512/803/882 513/817/891
f 514/818/894 515/812/890 516/811/889
f 517/816/893 518/815/892 519/824/897
f 520/827/900 521/822/896 522/821/895
f 523/837/875 524/831/903 525/796/876
f 526/807/885 527/832/904 528/838/886
f 506/797/877 509/800/879 530/809/887 529/802/881
f 509/800/879 508/836/884 531/810/888 530/809/887
f 508/836/884 528/838/886 532/829/901 531/810/888
f 533/830/902 532/829/901 528/838/886 527/832/904
f 534/825/898 533/830/902 527/832/904 524/831/903
f 535/826/899 534/825/898 524/831/903 523/837/875
f 523/839/875 507/835/874 536/801/880 535/833/899
f 507/835/874 506/797/877 529/802/881 536/801/880
s 34
f 537/840/905 539/841/906 555/842/907 557/843/908
f 538/844/909 537/845/905 542/846/910 541/847/911
f 568/848/912 561/849/913 544/850/914 543/851/915
f 540/852/916 542/853/910 558/854/917 560/855/918
f 562/856/919 563/857/920 548/858/921 547/859/922
f 543/860/915 545/861/923 550/862/924 549/863/925
f 545/864/923 544/850/914 547/859/922 546/865/926
f 546/866/926 548/867/921 554/868/927 553/869/928
f 549/870/925 551/871/929 566/872/930 567/873/931
f 551/871/929 550/862/924 553/869/928 552/874/932
f 552/874/932 554/875/927 564/876/933 565/877/934
f 557/843/908 556/878/935 559/879/936 558/854/917
f 561/849/913 562/856/919 547/859/922 544/850/914
f 545/861/923 546/866/926 553/869/928 550/862/924
f 551/871/929 552/874/932 565/877/934 566/872/930
f 557/843/908 558/854/917 542/853/910 537/840/905
f 563/857/920 564/876/933 554/875/927 548/858/921
f 567/880/931 568/848/912 543/851/915 549/881/925
f 537/845/905 538/844/909 539/882/906
f 540/883/916 541/847/911 542/846/910
f 543/851/915 544/850/914 545/864/923
f 546/865/926 547/859/922 548/858/921
f 549/863/925 550/862/924 551/871/929
f 552/874/932 553/869/928 554/868/927
f 555/884/907 556/878/935 557/843/908
f 558/854/917 559/879/936 560/885/918
f 538/844/909 541/847/911 562/856/919 561/849/913
f 541/847/911 540/883/916 563/857/920 562/856/919
f 540/883/916 560/885/918 564/876/933 563/857/920
f 565/877/934 564/876/933 560/885/918 559/879/936
f 566/872/930 565/877/934 559/879/936 556/878/935
f 567/873/931 566/872/930 556/878/935 555/884/907
f 555/886/907 539/882/906 568/848/912 567/880/931
f 539/882/906 538/844/909 561/849/913 568/848/912
s off
f 569/887/937 570/888/938 572/889/939 571/890/940
f 571/890/941 572/891/942 574/892/943 573/893/944
f 573/894/945 574/895/946 576/896/947 575/897/948
f 575/898/949 576/899/950 570/900/951 569/887/952
f 570/888/953 576/896/954 574/895/955 572/889/956
f 575/898/957 569/887/958 571/890/959 573/893/960
f 577/901/961 578/902/962 580/903/963 579/904/964
f 579/904/965 580/905/966 582/906/967 581/907/968
f 581/908/969 582/909/970 584/910/971 583/911/972
f 583/912/973 584/913/974 578/914/975 577/901/976
f 578/902/977 584/910/978 582/909/979 580/903/980
f 583/912/981 577/901/982 579/904/983 581/907/984
