# This file uses centimeters as units for non-parametric coordinates.

mtllib M_BrickBig.mtl
g default
v -1.359399 -2.106638 1.490979
v -1.446124 -1.771017 1.787790
v -1.682759 -1.771017 1.551155
v 1.718111 -1.594140 1.551155
v 1.481476 -1.594140 1.787790
v 1.481476 -2.019352 1.551155
v -1.682759 3.848831 1.551155
v -1.446124 3.826836 1.787790
v -1.346360 4.572029 1.465660
v 1.380585 4.525011 1.489901
v 1.481476 4.019248 1.787790
v 1.718111 4.019248 1.551155
v -1.682759 4.298439 -1.376446
v -1.446124 4.572029 -1.376446
v -1.446124 4.298439 -1.613081
v 1.481476 4.379497 -1.613081
v 1.481476 4.572029 -1.376446
v 1.718111 4.379497 -1.376446
v -1.682759 -1.579468 -1.376446
v -1.446124 -1.686718 -1.613081
v -1.446124 -2.045709 -1.376446
v 1.481476 -2.006272 -1.376446
v 1.481476 -1.495124 -1.613081
v 1.718111 -1.495124 -1.376446
v -1.682759 -1.914107 0.947100
v -1.682759 4.290403 0.947100
v -1.430070 4.572029 0.947100
v 1.481476 4.572029 0.947100
v 1.718111 4.271167 0.947100
v 1.718111 -1.790748 0.947100
v 1.481476 -2.106638 0.947100
v -1.446124 -2.106638 0.947100
v -1.446124 3.407434 1.787790
v 1.481476 3.739438 1.787790
v 1.718111 3.739438 1.551155
v 1.718111 3.739437 0.947100
v 1.718111 3.739438 -1.376446
v 1.481476 3.739438 -1.613081
v -1.446124 3.739438 -1.613081
v -1.682759 3.739438 -1.376446
v -1.682759 3.739438 0.947100
v -1.682759 3.407435 1.551155
v -0.386468 -2.106638 1.551155
v -0.386468 -2.106638 0.947100
v -0.386468 -2.106638 -1.376446
v -0.386468 -1.914107 -1.613081
v -0.386468 3.739438 -1.613081
v -0.386468 4.109377 -1.613081
v -0.386468 4.511435 -1.376446
v -0.376224 4.511435 0.947100
v -0.322813 4.511435 1.496605
v -0.386468 4.347492 1.787790
v -0.386468 3.739438 1.787790
v -0.386468 -1.914107 1.787790
v -1.446124 -2.106638 -0.815912
v -0.386468 -2.106638 -0.815912
v 1.481476 -2.106638 -0.815912
v 1.718111 -1.799198 -0.815912
v 1.718111 3.739438 -0.815912
v 1.718111 4.353364 -0.815912
v 1.481476 4.572029 -0.815912
v -0.383997 4.511435 -0.815912
v -1.442251 4.572029 -0.815912
v -1.682759 4.296501 -0.815912
v -1.682759 3.739438 -0.815912
v -1.682759 -1.903271 -0.675849
v -1.374161 1.153803 1.704193
v -0.366599 1.272311 1.704193
v 1.316436 1.272311 1.704193
v 1.634515 1.272311 1.441954
v 1.634515 1.272311 0.904833
v 1.634515 1.272311 -0.771505
v 1.634515 1.272311 -1.266846
v 1.314885 1.272311 -1.529484
v -0.366599 1.074343 -1.529484
v -1.374161 0.877412 -1.529484
v -1.599163 0.921923 -1.217987
v -1.599163 1.078840 -0.713376
v -1.599163 1.272311 0.904833
v -1.599163 1.153803 1.479192
vt 0.708240 0.795751
vt 0.699251 0.774801
vt 0.770221 0.764588
vt 0.773888 0.787686
vt 0.669475 0.778886
vt 0.666034 0.795908
vt 0.691066 0.671780
vt 0.758795 0.666970
vt 0.791879 0.762181
vt 0.794853 0.786174
vt 0.668854 0.672925
vt 0.682392 0.831728
vt 0.715761 0.819235
vt 0.654595 0.778594
vt 0.650980 0.791347
vt 0.753300 0.545860
vt 0.683679 0.549606
vt 0.778524 0.665470
vt 0.807410 0.784776
vt 0.804742 0.760533
vt 0.660419 0.558479
vt 0.651841 0.673576
vt 0.775622 0.556633
vt 0.682535 0.533813
vt 0.753050 0.530404
vt 0.794794 0.664202
vt 0.657248 0.539578
vt 0.647201 0.558810
vt 0.776920 0.534552
vt 0.788612 0.555734
vt 0.876542 0.817969
vt 0.870773 0.792356
vt 0.947245 0.785746
vt 0.950060 0.808739
vt 0.843336 0.793493
vt 0.836790 0.824536
vt 0.869175 0.675489
vt 0.938824 0.680699
vt 0.971547 0.770026
vt 0.972335 0.787700
vt 0.847124 0.669403
vt 0.880831 0.843908
vt 0.840889 0.850214
vt 0.820407 0.819975
vt 0.828041 0.792686
vt 0.866361 0.549273
vt 0.934749 0.546095
vt 0.963003 0.674510
vt 0.985627 0.768961
vt 0.986068 0.787431
vt 0.976007 0.820363
vt 0.954295 0.823962
vt 0.837734 0.564218
vt 0.830540 0.667843
vt 0.960432 0.551042
vt 0.976450 0.673838
vt 0.857630 0.537263
vt 0.833693 0.542999
vt 0.823688 0.560143
vt 0.974502 0.550805
vt 0.716555 0.456738
vt 0.694762 0.457523
vt 0.695524 0.341584
vt 0.717869 0.331949
vt 0.724399 0.493792
vt 0.693775 0.505501
vt 0.792551 0.332999
vt 0.792722 0.456738
vt 0.714237 0.523926
vt 0.792028 0.499175
vt 0.718611 0.292352
vt 0.792674 0.294035
vt 0.922905 0.333515
vt 0.923085 0.456933
vt 0.791956 0.520765
vt 0.923020 0.499810
vt 0.717601 0.262171
vt 0.792957 0.272840
vt 0.922865 0.293881
vt 0.924622 0.533987
vt 0.925270 0.254714
vt 0.486522 0.875090
vt 0.503598 0.868901
vt 0.533491 0.952911
vt 0.516060 0.959035
vt 0.554024 0.850723
vt 0.584088 0.934866
vt 0.498762 0.842623
vt 0.547177 0.823612
vt 0.672350 0.902503
vt 0.642293 0.819012
vt 0.593825 0.961753
vt 0.542924 0.979656
vt 0.479132 0.806037
vt 0.538617 0.808696
vt 0.628203 0.794984
vt 0.681556 0.928602
vt 0.660439 0.812424
vt 0.687792 0.897146
vt 0.549635 0.996462
vt 0.601939 0.983955
vt 0.623667 0.765383
vt 0.696084 0.925336
vt 0.687211 0.942575
vt 0.533146 0.994743
vt 0.640442 0.766813
vt 0.403784 0.937477
vt 0.394960 0.909402
vt 0.473059 0.907096
vt 0.473866 0.917672
vt 0.338000 0.891342
vt 0.327867 0.917449
vt 0.400090 0.802043
vt 0.467915 0.808693
vt 0.358816 0.790851
vt 0.418827 0.676525
vt 0.489546 0.699610
vt 0.376476 0.675170
vt 0.554070 0.510606
vt 0.554032 0.493521
vt 0.640277 0.481090
vt 0.640288 0.510591
vt 0.505166 0.484799
vt 0.505163 0.510606
vt 0.632620 0.624547
vt 0.554980 0.633668
vt 0.508461 0.642749
vt 0.554070 0.771640
vt 0.640284 0.752316
vt 0.505162 0.761165
vn -0.165657 -0.986122 0.011002
vn -0.998498 -0.054695 0.003191
vn -0.997898 -0.064582 -0.005312
vn -0.180759 -0.983039 -0.031003
vn 0.001136 -0.056442 0.998405
vn 0.017910 -0.932750 0.360079
vn 0.177669 -0.906751 0.382409
vn 0.118301 -0.035326 0.992349
vn -0.971000 -0.036171 0.236328
vn -0.159564 -0.033896 0.986605
vn -0.190260 0.234220 0.953385
vn -0.932773 0.205244 0.296327
vn 0.998701 -0.050817 0.003808
vn 0.157431 -0.987266 0.022853
vn 0.161464 -0.986479 -0.028078
vn 0.998596 -0.052666 -0.005609
vn 0.123497 -0.034526 0.991744
vn 0.947472 -0.043278 0.316896
vn 0.925744 0.275587 0.258941
vn 0.097661 0.297355 0.949759
vn -0.954236 0.295390 0.046681
vn -0.212731 0.976648 0.030056
vn -0.165225 0.986256 0.000791
vn -0.959387 0.282087 0.001594
vn -0.002604 0.907571 0.419891
vn -0.019944 0.343188 0.939055
vn 0.140829 0.906602 0.397793
vn 0.121239 0.992333 0.024010
vn 0.955556 0.292319 0.038253
vn 0.961353 0.275243 0.006416
vn 0.088297 0.996091 0.002681
vn -0.945594 0.229857 -0.230256
vn -0.117449 0.266912 -0.956538
vn -0.217538 -0.032004 -0.975527
vn -0.956067 -0.033624 -0.291213
vn -0.003829 0.269761 -0.962920
vn -0.003706 0.930301 -0.366779
vn 0.036142 0.944140 -0.327556
vn 0.073076 0.273985 -0.958954
vn 0.943884 0.224250 -0.242477
vn 0.940614 -0.040072 -0.337106
vn 0.131673 -0.032499 -0.990760
vn 0.014913 -0.908742 -0.417092
vn 0.000669 -0.058805 -0.998269
vn 0.118234 -0.034725 -0.992378
vn 0.194554 -0.872459 -0.448291
vn 0.002142 -0.028203 0.999600
vn 0.000060 1.000000 -0.000072
vn 0.002230 0.999985 0.005065
vn 0.001869 -0.026520 -0.999646
vn 0.003836 -0.999922 0.011863
vn 0.001625 -0.999827 -0.018523
vn 0.999617 -0.027661 0.000000
vn 0.999632 -0.027131 -0.000000
vn -0.999659 -0.026033 0.002094
vn -0.999645 -0.026616 -0.001190
vn -0.167418 -0.943000 0.287615
vn -0.172710 -0.031800 0.984459
vn -0.965620 -0.029355 0.258294
vn 0.954877 -0.014710 0.296636
vn -0.268115 0.850145 0.453175
vn -0.110269 0.928401 -0.354840
vn -0.967511 -0.014192 -0.252428
vn -0.176286 -0.032673 -0.983796
vn -0.280913 -0.892039 -0.354054
vn 0.953697 -0.009594 -0.300615
vn 0.000446 -0.000436 1.000000
vn 0.105764 -0.000117 0.994391
vn 0.952560 -0.000071 0.304350
vn 1.000000 -0.000031 -0.000662
vn 0.999999 -0.000035 0.000969
vn 0.948472 -0.000054 -0.316861
vn 0.104517 -0.001042 -0.994523
vn -0.000588 0.000022 -1.000000
vn -0.200644 0.002041 -0.979662
vn -0.970726 0.002489 -0.240175
vn -0.999999 -0.000379 0.001086
vn -0.999997 -0.001875 -0.001548
vn -0.967845 0.001293 0.251543
vn -0.165535 0.000806 0.986204
s 1
g pCube214
usemtl lambert5SG
f 32/61/1 25/62/2 66/63/3 55/64/4
f 54/75/5 43/70/6 6/76/7 5/80/8
f 42/39/9 33/49/10 8/50/11 7/40/12
f 30/17/13 31/24/14 57/25/15 58/16/16
f 34/14/17 35/5/18 12/6/19 11/15/20
f 26/82/21 27/83/22 63/84/23 64/85/24
f 51/89/25 52/95/26 11/102/20 10/96/27
f 28/91/28 29/98/29 60/99/30 61/90/31
f 13/36/32 15/44/33 39/45/34 40/35/35
f 48/101/36 49/92/37 17/97/38 16/104/39
f 16/19/39 18/10/40 37/9/41 38/20/42
f 45/72/43 46/78/44 23/81/45 22/79/46
f 52/107/26 53/108/47 34/109/17 11/110/20
f 61/90/31 62/87/48 50/86/49 28/91/28
f 47/119/50 48/120/36 16/121/39 38/122/42
f 44/68/51 56/67/52 57/73/15 31/74/14
f 29/1/29 36/2/53 59/3/54 60/4/30
f 64/31/24 65/32/55 41/33/56 26/34/21
f 1/65/57 2/69/58 3/66/59
f 4/21/60 5/28/8 6/27/7
f 7/40/12 8/50/11 9/51/61
f 10/96/27 11/102/20 12/106/19
f 13/105/32 14/93/62 15/100/33
f 16/104/39 17/97/38 18/103/40
f 19/53/63 20/59/64 21/58/65
f 22/29/46 23/30/45 24/23/66
f 26/34/21 41/33/56 42/39/9 7/40/12
f 7/40/12 9/51/61 27/52/22 26/34/21
f 50/86/49 51/89/25 10/96/27 28/91/28
f 10/12/27 12/6/19 29/1/29 28/13/28
f 35/5/18 36/2/53 29/1/29 12/6/19
f 4/21/60 6/27/7 31/24/14 30/17/13
f 43/70/6 44/68/51 31/74/14 6/76/7
f 1/65/57 3/66/59 25/62/2 32/61/1
f 53/108/47 68/113/67 69/114/68 34/109/17
f 69/22/68 70/11/69 35/5/18 34/14/17
f 70/11/69 71/7/70 36/2/53 35/5/18
f 71/7/70 72/8/71 59/3/54 36/2/53
f 38/20/42 37/9/41 73/18/72 74/26/73
f 74/125/73 75/126/74 47/119/50 38/122/42
f 40/35/35 39/45/34 76/54/75 77/41/76
f 65/32/55 78/37/77 79/38/78 41/33/56
f 42/39/9 41/33/56 79/38/78 80/48/79
f 80/48/79 67/56/80 33/49/10 42/39/9
f 32/61/1 44/68/51 43/70/6 1/65/57
f 55/64/4 56/67/52 44/68/51 32/61/1
f 21/71/65 20/77/64 46/78/44 45/72/43
f 39/124/34 47/119/50 75/126/74 76/127/75
f 15/123/33 48/120/36 47/119/50 39/124/34
f 15/100/33 14/93/62 49/92/37 48/101/36
f 27/83/22 50/86/49 62/87/48 63/84/23
f 9/88/61 51/89/25 50/86/49 27/83/22
f 9/88/61 8/94/11 52/95/26 51/89/25
f 33/111/10 53/108/47 52/107/26 8/112/11
f 67/115/80 68/113/67 53/108/47 33/111/10
f 2/69/58 1/65/57 43/70/6 54/75/5
f 21/71/65 45/72/43 56/67/52 55/64/4
f 57/73/15 56/67/52 45/72/43 22/79/46
f 58/16/16 57/25/15 22/29/46 24/23/66
f 37/9/41 59/3/54 72/8/71 73/18/72
f 60/4/30 59/3/54 37/9/41 18/10/40
f 61/90/31 60/99/30 18/103/40 17/97/38
f 49/92/37 62/87/48 61/90/31 17/97/38
f 63/84/23 62/87/48 49/92/37 14/93/62
f 64/31/24 63/42/23 14/43/62 13/36/32
f 40/35/35 65/32/55 64/31/24 13/36/32
f 77/41/76 78/37/77 65/32/55 40/35/35
f 55/57/4 66/46/3 19/53/63 21/58/65
f 2/118/58 54/116/5 68/113/67 67/115/80
f 69/114/68 68/113/67 54/116/5 5/117/8
f 5/28/8 4/21/60 70/11/69 69/22/68
f 4/21/60 30/17/13 71/7/70 70/11/69
f 58/16/16 72/8/71 71/7/70 30/17/13
f 73/18/72 72/8/71 58/16/16 24/23/66
f 74/26/73 73/18/72 24/23/66 23/30/45
f 46/128/44 75/126/74 74/125/73 23/129/45
f 76/127/75 75/126/74 46/128/44 20/130/64
f 77/41/76 76/54/75 20/59/64 19/53/63
f 19/53/63 66/46/3 78/37/77 77/41/76
f 79/38/78 78/37/77 66/46/3 25/47/2
f 80/48/79 79/38/78 25/47/2 3/55/59
f 3/55/59 2/60/58 67/56/80 80/48/79
