# This file uses centimeters as units for non-parametric coordinates.

mtllib M_BrickSmall.mtl
g default
v 1.501080 1.682706 1.258776
v 1.495796 1.401580 1.493451
v 1.737698 1.403185 1.262208
v -1.662337 1.569112 1.186773
v -1.431088 1.567508 1.428669
v -1.425787 1.734802 1.193223
v 1.738130 -1.430242 1.242998
v 1.496228 -1.431847 1.474240
v 1.501580 -1.595931 1.236547
v -1.425278 -1.595931 1.170641
v -1.430668 -1.184435 1.410011
v -1.661916 -1.182830 1.168115
v 1.803976 -1.023549 -1.681171
v 1.423115 -1.477540 -1.672081
v 1.572728 -1.021944 -1.923068
v -1.354084 -1.327672 -1.991047
v -1.359373 -1.576078 -1.756151
v -1.595986 -1.329276 -1.759804
v 1.803577 1.588966 -1.663458
v 1.572329 1.590571 -1.905355
v 1.566977 1.754655 -1.667662
v -1.359867 1.658284 -1.734222
v -1.354503 1.417697 -1.972433
v -1.596405 1.416092 -1.741191
v 1.786818 1.583917 -0.919207
v 1.787250 -1.243309 -0.938376
v 1.550726 -1.581126 -0.945994
v -1.376132 -1.581126 -1.011900
v -1.612733 -1.415437 -1.016104
v -1.613191 1.583918 -0.995768
v -1.376641 1.749607 -0.989318
v 1.550218 1.749607 -0.923411
v 1.457665 -0.384898 1.441102
v -1.327038 -0.384898 1.378397
v -1.660357 -0.383054 1.098869
v -1.613267 -0.368868 -0.992361
v -1.544681 -0.363897 -1.724015
v -1.355118 -0.362369 -1.945151
v 1.473062 -0.362369 -1.881466
v 1.801678 -0.364369 -1.579144
v 1.786741 -0.368868 -0.915800
v 1.739880 -0.382985 1.165299
v 0.101707 1.735160 1.174775
v 0.149079 1.749430 -0.928993
v 0.165233 1.754297 -1.646382
v 0.170393 1.590155 -1.875537
v 0.169837 -0.362776 -1.850847
v 0.170843 -1.360847 -1.895545
v 0.165734 -1.528083 -1.668637
v 0.149580 -1.532949 -0.951248
v 0.102208 -1.547220 1.152521
v 0.097048 -1.383078 1.381675
v 0.097749 -0.384492 1.350514
v 0.096597 1.567924 1.401683
vt 0.340318 0.398221
vt 0.289080 0.399366
vt 0.288894 0.363336
vt 0.335584 0.362748
vt 0.288965 0.502031
vt 0.327929 0.505288
vt 0.193929 0.398898
vt 0.202357 0.363316
vt 0.336704 0.346910
vt 0.288857 0.348990
vt 0.354637 0.398218
vt 0.351716 0.359933
vt 0.193902 0.504596
vt 0.351195 0.506437
vt 0.288894 0.523631
vt 0.329555 0.521295
vt 0.179730 0.398518
vt 0.186387 0.360318
vt 0.201514 0.347255
vt 0.180197 0.505696
vt 0.192579 0.520489
vt 0.128174 0.707996
vt 0.128174 0.675455
vt 0.170051 0.676091
vt 0.159502 0.711000
vt 0.034020 0.711753
vt 0.033612 0.676322
vt 0.127949 0.574945
vt 0.177707 0.571769
vt 0.190019 0.676615
vt 0.187492 0.713845
vt 0.162071 0.726581
vt 0.128442 0.729908
vt 0.019448 0.676178
vt 0.020855 0.714282
vt 0.041914 0.571210
vt 0.033041 0.727614
vt 0.128103 0.555648
vt 0.179667 0.556453
vt 0.191221 0.570970
vt 0.024489 0.569810
vt 0.040845 0.555359
vt 0.281465 0.696453
vt 0.281313 0.661633
vt 0.354847 0.662998
vt 0.354880 0.698674
vt 0.213248 0.662407
vt 0.219819 0.698027
vt 0.281843 0.559888
vt 0.355378 0.557977
vt 0.281191 0.710116
vt 0.354438 0.715093
vt 0.214200 0.556877
vt 0.211795 0.723290
vt 0.281958 0.546314
vt 0.354912 0.535203
vt 0.214663 0.543018
vt 0.087172 0.417109
vt 0.087276 0.382253
vt 0.161206 0.379909
vt 0.160969 0.416129
vt 0.018858 0.379254
vt 0.018468 0.415836
vt 0.087606 0.368551
vt 0.161865 0.363635
vt 0.086855 0.518931
vt 0.160601 0.521690
vt 0.019107 0.365145
vt 0.018924 0.521773
vt 0.086713 0.532538
vt 0.160467 0.535686
vt 0.018667 0.539548
vt 0.097383 0.898568
vt 0.097326 0.848837
vt 0.168007 0.848638
vt 0.173486 0.888244
vt 0.029849 0.849124
vt 0.028679 0.900989
vt 0.097327 0.751800
vt 0.173218 0.751760
vt 0.027613 0.760059
vt 0.257179 0.780004
vt 0.257130 0.730883
vt 0.332695 0.732264
vt 0.332815 0.780021
vt 0.188287 0.747681
vt 0.193316 0.780004
vt 0.257219 0.876898
vt 0.333008 0.868244
vt 0.187790 0.876671
vn 0.138784 0.990059 0.022851
vn 0.992219 0.121380 0.027719
vn 0.963155 0.078450 -0.257250
vn 0.086481 0.984360 -0.153479
vn -0.016696 0.096201 0.995222
vn 0.009003 0.995937 0.089606
vn -0.090692 0.993354 0.070867
vn -0.129843 0.070718 0.989009
vn 0.992392 -0.000729 0.123118
vn 0.092407 -0.006625 0.995699
vn 0.086347 -0.148983 0.985063
vn 0.974374 -0.191437 0.118099
vn -0.992548 0.116968 -0.034154
vn -0.105987 0.994235 -0.016263
vn -0.128177 0.958367 -0.255155
vn -0.969112 0.066000 -0.237628
vn -0.117517 -0.006394 0.993050
vn -0.996217 -0.000832 0.086902
vn -0.982933 -0.164670 0.082020
vn -0.115781 -0.135293 0.984018
vn 0.976675 -0.214491 -0.010029
vn 0.160059 -0.986425 -0.036714
vn 0.197743 -0.914372 -0.353300
vn 0.953166 -0.168196 -0.251364
vn -0.005014 -0.996185 0.087127
vn -0.031123 -0.183170 0.982589
vn -0.135941 -0.984755 0.108524
vn -0.126792 -0.991913 -0.005724
vn -0.978200 -0.206233 -0.024356
vn -0.963860 -0.125046 -0.235241
vn -0.069222 -0.974666 -0.212682
vn 0.134204 -0.094945 -0.986395
vn 0.126946 0.007196 -0.991884
vn 0.971219 0.001286 -0.238184
vn 0.040928 -0.182962 -0.982268
vn 0.034105 -0.961824 -0.271536
vn -0.057171 -0.133945 -0.989338
vn -0.968193 0.001615 -0.250201
vn -0.071570 0.006781 -0.997413
vn -0.016843 0.979594 -0.200278
vn 0.015445 0.109652 -0.993850
vn -0.062744 0.079383 -0.994868
vn -0.022620 -0.006788 0.999721
vn 0.004391 -0.999887 -0.014409
vn 0.022694 0.006775 -0.999720
vn 0.002681 0.999993 0.002607
vn -0.999518 0.000047 -0.031061
vn 0.999747 0.000000 0.022512
vn 0.147003 0.982500 0.114385
vn 0.083482 0.062305 0.994560
vn 0.987476 0.096933 0.124479
vn -0.990474 0.099706 0.094978
vn 0.114444 -0.991872 0.055604
vn 0.144285 0.081664 -0.986161
s 1
g pCube215
usemtl lambert5SG
f 32/34/1 25/27/2 19/26/3 21/35/4
f 54/70/5 43/66/6 6/67/7 5/71/8
f 42/28/9 33/38/10 8/39/11 7/29/12
f 30/7/13 31/17/14 22/18/15 24/8/16
f 34/15/17 35/5/18 12/6/19 11/16/20
f 26/24/21 27/30/22 14/31/23 13/25/24
f 51/49/25 52/55/26 11/56/20 10/50/27
f 28/11/28 29/1/29 18/4/30 17/12/31
f 13/25/24 15/32/32 39/33/33 40/22/34
f 48/51/35 49/43/36 17/46/31 16/52/37
f 16/9/37 18/4/30 37/3/38 38/10/39
f 45/59/40 46/64/41 23/65/42 22/60/15
f 52/73/26 53/74/43 34/75/17 11/76/20
f 49/43/36 50/44/44 28/45/28 17/46/31
f 47/82/45 48/83/35 16/84/37 38/85/39
f 44/58/46 45/59/40 22/60/15 31/61/14
f 29/1/29 36/2/47 37/3/38 18/4/30
f 40/22/34 41/23/48 26/24/21 13/25/24
f 1/41/49 2/42/50 3/36/51
f 4/13/52 5/21/8 6/20/7
f 7/29/12 8/39/11 9/40/53
f 10/14/27 11/16/20 12/6/19
f 13/25/24 14/31/23 15/32/32
f 16/9/37 17/12/31 18/4/30
f 19/26/3 20/37/54 21/35/4
f 22/18/15 23/19/42 24/8/16
f 26/24/21 41/23/48 42/28/9 7/29/12
f 7/29/12 9/40/53 27/30/22 26/24/21
f 50/44/44 51/49/25 10/50/27 28/45/28
f 10/14/27 12/6/19 29/1/29 28/11/28
f 35/5/18 36/2/47 29/1/29 12/6/19
f 4/13/52 6/20/7 31/17/14 30/7/13
f 43/66/6 44/58/46 31/61/14 6/67/7
f 1/41/49 3/36/51 25/27/2 32/34/1
f 53/74/43 54/79/5 5/80/8 34/75/17
f 5/21/8 4/13/52 35/5/18 34/15/17
f 4/13/52 30/7/13 36/2/47 35/5/18
f 37/3/38 36/2/47 30/7/13 24/8/16
f 38/10/39 37/3/38 24/8/16 23/19/42
f 46/88/41 47/82/45 38/85/39 23/89/42
f 40/22/34 39/33/33 20/37/54 19/26/3
f 19/26/3 25/27/2 41/23/48 40/22/34
f 42/28/9 41/23/48 25/27/2 3/36/51
f 3/36/51 2/42/50 33/38/10 42/28/9
f 32/63/1 44/58/46 43/66/6 1/69/49
f 21/62/4 45/59/40 44/58/46 32/63/1
f 21/62/4 20/68/54 46/64/41 45/59/40
f 39/87/33 47/82/45 46/88/41 20/90/54
f 15/86/32 48/83/35 47/82/45 39/87/33
f 15/54/32 14/48/23 49/43/36 48/51/35
f 27/47/22 50/44/44 49/43/36 14/48/23
f 9/53/53 51/49/25 50/44/44 27/47/22
f 9/53/53 8/57/11 52/55/26 51/49/25
f 33/77/10 53/74/43 52/73/26 8/78/11
f 2/81/50 54/79/5 53/74/43 33/77/10
f 2/72/50 1/69/49 43/66/6 54/70/5
