# This file uses centimeters as units for non-parametric coordinates.

mtllib M_Bridge2.mtl
g default
v 9.447342 0.077791 2.780974
v 9.447934 0.077791 3.141796
v 9.447342 1.606639 2.780974
v 9.447934 1.606639 3.141796
v 9.856847 1.606639 2.780303
v 9.857439 1.606639 3.141124
v 9.856847 0.077791 2.780303
v 9.857439 0.077791 3.141124
v -8.371023 0.077791 -3.243558
v -8.370432 0.077791 -2.882736
v -8.371023 1.606639 -3.243558
v -8.370432 1.606639 -2.882736
v -7.961519 1.606639 -3.244230
v -7.960927 1.606639 -2.883408
v -7.961519 0.077791 -3.244230
v -7.960927 0.077791 -2.883408
v 4.992751 0.077791 2.780974
v 4.993343 0.077791 3.141796
v 4.992751 1.606639 2.780974
v 4.993343 1.606639 3.141796
v 5.402256 1.606639 2.780303
v 5.402847 1.606639 3.141124
v 5.402256 0.077791 2.780303
v 5.402847 0.077791 3.141124
v -3.916432 0.077791 2.780974
v -3.915840 0.077791 3.141796
v -3.916432 1.606639 2.780974
v -3.915840 1.606639 3.141796
v -3.506927 1.606639 2.780303
v -3.506336 1.606639 3.141124
v -3.506927 0.077791 2.780303
v -3.506336 0.077791 3.141124
v -3.916432 0.077791 -3.243558
v -3.915840 0.077791 -2.882736
v -3.916432 1.606639 -3.243558
v -3.915840 1.606639 -2.882736
v -3.506927 1.606639 -3.244230
v -3.506336 1.606639 -2.883408
v -3.506927 0.077791 -3.244230
v -3.506336 0.077791 -2.883408
v 0.538159 0.077791 2.780974
v 0.538751 0.077791 3.141796
v 0.538159 1.606639 2.780974
v 0.538751 1.606639 3.141796
v 0.947664 1.606639 2.780303
v 0.948256 1.606639 3.141124
v 0.947664 0.077791 2.780303
v 0.948256 0.077791 3.141124
v 4.992751 0.077791 -3.243558
v 4.993343 0.077791 -2.882736
v 4.992751 1.606639 -3.243558
v 4.993343 1.606639 -2.882736
v 5.402256 1.606639 -3.244230
v 5.402847 1.606639 -2.883408
v 5.402256 0.077791 -3.244230
v 5.402847 0.077791 -2.883408
v 10.192930 0.346031 -2.779504
v 10.140229 0.398518 -2.774754
v 10.140229 0.341281 -2.727017
v 10.140229 0.407101 -3.454406
v 10.140229 0.454838 -3.397170
v 10.192930 0.402351 -3.401919
v 0.451905 0.341281 -2.727017
v 0.451905 0.398518 -2.774754
v 0.399204 0.346031 -2.779504
v 0.399204 0.402351 -3.401919
v 0.451905 0.454838 -3.397170
v 0.451905 0.407101 -3.454406
v 0.451905 -0.291065 -2.784236
v 0.399204 -0.286316 -2.836723
v 0.451905 -0.338802 -2.841472
v 0.451905 -0.282482 -3.463888
v 0.399204 -0.229995 -3.459138
v 0.451905 -0.225246 -3.511625
v 10.140229 -0.291065 -2.784236
v 10.140229 -0.338802 -2.841472
v 10.192930 -0.286316 -2.836723
v 10.192930 -0.229995 -3.459138
v 10.140229 -0.282482 -3.463888
v 10.140229 -0.225246 -3.511625
v 4.875483 0.363984 -2.809700
v 4.875483 0.414592 -3.368990
v 4.875483 0.371696 -3.420421
v 4.875483 -0.196517 -3.471837
v 4.875483 -0.247948 -3.428941
v 4.875483 -0.298556 -2.869652
v 4.875483 -0.255661 -2.818221
v 4.875483 0.312552 -2.766805
v 8.685972 0.216542 3.111479
v 8.677971 -0.072405 3.113945
v 8.726596 0.163693 -2.947948
v 8.718595 -0.125254 -2.945482
v 7.581956 0.195321 -2.955898
v 7.573955 -0.093627 -2.953432
v 7.541332 0.248170 3.103529
v 7.533331 -0.040778 3.105996
v 9.103249 -0.072321 3.136087
v 9.111432 0.216632 3.136154
v 8.765709 -0.061363 -2.914290
v 8.773893 0.227590 -2.914223
v 9.908577 -0.093717 -2.978107
v 9.916761 0.195236 -2.978040
v 10.246116 -0.104674 3.072270
v 10.254300 0.184279 3.072337
v 1.366665 0.173858 -2.975137
v 1.375018 -0.115084 -2.973278
v 1.083165 0.204605 3.077944
v 1.091518 -0.084337 3.079803
v 2.226538 0.237999 3.131325
v 2.234890 -0.050943 3.133184
v 2.510037 0.207252 -2.921756
v 2.518390 -0.081690 -2.919897
v 0.485441 -0.254461 -2.801857
v 0.432740 -0.254461 -2.749155
v 0.432740 -0.307162 -2.801857
v 0.432740 0.423199 -2.801857
v 0.432740 0.370497 -2.749155
v 0.485441 0.370497 -2.801857
v -9.255584 -0.307162 -2.801857
v -9.255584 -0.254461 -2.749155
v -9.308286 -0.254461 -2.801857
v -9.308286 0.370497 -2.801857
v -9.255584 0.370497 -2.749155
v -9.255584 0.423199 -2.801857
v -9.255584 -0.307162 -3.436786
v -9.308286 -0.254461 -3.436786
v -9.255584 -0.254461 -3.489487
v -9.255584 0.370497 -3.489487
v -9.308286 0.370497 -3.436786
v -9.255584 0.423199 -3.436786
v 0.432740 -0.307162 -3.436786
v 0.432740 -0.254461 -3.489487
v 0.485441 -0.254461 -3.436786
v 0.485441 0.370497 -3.436786
v 0.432740 0.370497 -3.489487
v 0.432740 0.423199 -3.436786
v -4.832007 -0.222769 -2.786698
v -4.832007 0.338805 -2.786698
v -4.832007 0.386162 -2.834054
v -4.832007 0.386162 -3.404589
v -4.832007 0.338805 -3.451945
v -4.832007 -0.222769 -3.451945
v -4.832007 -0.270125 -3.404589
v -4.832007 -0.270125 -2.834054
v -8.933341 0.173858 -2.975137
v -8.924988 -0.115084 -2.973278
v -9.216841 0.204605 3.077944
v -9.208488 -0.084337 3.079803
v -8.073468 0.237999 3.131325
v -8.065115 -0.050943 3.133184
v -7.789968 0.207252 -2.921756
v -7.781615 -0.081690 -2.919897
v 9.447342 0.077791 -3.243558
v 9.447934 0.077791 -2.882736
v 9.447342 1.606639 -3.243558
v 9.447934 1.606639 -2.882736
v 9.856847 1.606639 -3.244230
v 9.857439 1.606639 -2.883408
v 9.856847 0.077791 -3.244230
v 9.857439 0.077791 -2.883408
v 6.426985 0.173858 -2.975137
v 6.435338 -0.115084 -2.973278
v 6.143485 0.204605 3.077944
v 6.151838 -0.084337 3.079803
v 7.286858 0.237999 3.131325
v 7.295210 -0.050943 3.133184
v 7.570357 0.207252 -2.921756
v 7.578710 -0.081690 -2.919897
v -1.614033 0.216542 3.111479
v -1.622035 -0.072405 3.113945
v -1.573409 0.163693 -2.947948
v -1.581411 -0.125254 -2.945482
v -2.718050 0.195321 -2.955898
v -2.726051 -0.093627 -2.953432
v -2.758674 0.248170 3.103529
v -2.766675 -0.040778 3.105996
v 0.485441 -0.254461 3.327601
v 0.432740 -0.254461 3.380302
v 0.432740 -0.307162 3.327601
v 0.432740 0.423199 3.327601
v 0.432740 0.370497 3.380302
v 0.485441 0.370497 3.327601
v -9.255584 -0.307162 3.327601
v -9.255584 -0.254461 3.380302
v -9.308286 -0.254461 3.327601
v -9.308286 0.370497 3.327601
v -9.255584 0.370497 3.380302
v -9.255584 0.423199 3.327601
v -9.255584 -0.307162 2.692671
v -9.308286 -0.254461 2.692671
v -9.255584 -0.254461 2.639970
v -9.255584 0.370497 2.639970
v -9.308286 0.370497 2.692671
v -9.255584 0.423199 2.692671
v 0.432740 -0.307162 2.692671
v 0.432740 -0.254461 2.639970
v 0.485441 -0.254461 2.692671
v 0.485441 0.370497 2.692671
v 0.432740 0.370497 2.639970
v 0.432740 0.423199 2.692671
v -4.832007 -0.222769 3.342760
v -4.832007 0.338805 3.342760
v -4.832007 0.386162 3.295403
v -4.832007 0.386162 2.724869
v -4.832007 0.338805 2.677512
v -4.832007 -0.222769 2.677512
v -4.832007 -0.270125 2.724869
v -4.832007 -0.270125 3.295403
v -3.873021 0.173858 -2.975137
v -3.864668 -0.115084 -2.973278
v -4.156521 0.204605 3.077944
v -4.148168 -0.084337 3.079803
v -3.013148 0.237999 3.131325
v -3.004796 -0.050943 3.133184
v -2.729649 0.207252 -2.921756
v -2.721296 -0.081690 -2.919897
v 10.192930 0.346031 3.349953
v 10.140229 0.398518 3.354703
v 10.140229 0.341281 3.402440
v 10.140229 0.407101 2.675051
v 10.140229 0.454838 2.732287
v 10.192930 0.402351 2.727538
v 0.451905 0.341281 3.402440
v 0.451905 0.398518 3.354703
v 0.399204 0.346031 3.349953
v 0.399204 0.402351 2.727538
v 0.451905 0.454838 2.732287
v 0.451905 0.407101 2.675051
v 0.451905 -0.291065 3.345221
v 0.399204 -0.286316 3.292734
v 0.451905 -0.338802 3.287985
v 0.451905 -0.282482 2.665569
v 0.399204 -0.229995 2.670319
v 0.451905 -0.225246 2.617832
v 10.140229 -0.291065 3.345221
v 10.140229 -0.338802 3.287985
v 10.192930 -0.286316 3.292734
v 10.192930 -0.229995 2.670319
v 10.140229 -0.282482 2.665569
v 10.140229 -0.225246 2.617832
v 4.875483 0.363984 3.319757
v 4.875483 0.414592 2.760467
v 4.875483 0.371696 2.709036
v 4.875483 -0.196517 2.657620
v 4.875483 -0.247948 2.700516
v 4.875483 -0.298556 3.259805
v 4.875483 -0.255661 3.311236
v 4.875483 0.312552 3.362652
v -2.323292 -0.181176 3.327601
v -2.371051 -0.203460 3.380302
v -2.348767 -0.251218 3.327601
v -2.657588 0.410640 3.327601
v -2.635304 0.362882 3.380302
v -2.587546 0.385166 3.327601
v -11.128397 -4.347767 3.327601
v -11.150681 -4.300009 3.380302
v -11.198439 -4.322293 3.327601
v -11.462692 -3.755951 3.327601
v -11.414934 -3.733667 3.380302
v -11.437218 -3.685909 3.327601
v -11.128397 -4.347767 2.692671
v -11.198439 -4.322293 2.692671
v -11.150681 -4.300009 2.639970
v -11.414934 -3.733667 2.639970
v -11.462692 -3.755951 2.692671
v -11.437218 -3.685909 2.692671
v -2.348767 -0.251218 2.692671
v -2.371051 -0.203460 2.639970
v -2.323292 -0.181176 2.692671
v -2.587546 0.385166 2.692671
v -2.635304 0.362882 2.639970
v -2.657588 0.410640 2.692671
v -7.155403 -2.400852 3.342760
v -7.392856 -1.891949 3.342760
v -7.412879 -1.849035 3.295403
v -7.412879 -1.849035 2.724869
v -7.392856 -1.891949 2.677512
v -7.155403 -2.400852 2.677512
v -7.135379 -2.443767 2.724869
v -7.135379 -2.443767 3.295403
v -2.323292 -0.293560 -2.729845
v -2.371051 -0.315844 -2.677144
v -2.348767 -0.363602 -2.729845
v -2.657588 0.298256 -2.729845
v -2.635304 0.250498 -2.677144
v -2.587546 0.272782 -2.729845
v -11.128397 -4.460152 -2.729845
v -11.150681 -4.412394 -2.677144
v -11.198439 -4.434678 -2.729845
v -11.462692 -3.868335 -2.729845
v -11.414934 -3.846052 -2.677144
v -11.437218 -3.798293 -2.729845
v -11.128397 -4.460152 -3.364775
v -11.198439 -4.434678 -3.364775
v -11.150681 -4.412394 -3.417476
v -11.414934 -3.846052 -3.417476
v -11.462692 -3.868335 -3.364775
v -11.437218 -3.798293 -3.364775
v -2.348767 -0.363602 -3.364775
v -2.371051 -0.315844 -3.417476
v -2.323292 -0.293560 -3.364775
v -2.587546 0.272782 -3.364775
v -2.635304 0.250498 -3.417476
v -2.657588 0.298256 -3.364775
v -7.155403 -2.513237 -2.714686
v -7.392856 -2.004334 -2.714686
v -7.412879 -1.961419 -2.762043
v -7.412879 -1.961419 -3.332577
v -7.392856 -2.004334 -3.379934
v -7.155403 -2.513237 -3.379934
v -7.135379 -2.556151 -3.332577
v -7.135379 -2.556151 -2.762043
v 2.934094 0.205470 3.261086
v 2.981272 0.181981 3.313787
v 3.004760 0.229159 3.261086
v 2.679247 -0.424652 3.261086
v 2.702735 -0.377474 3.313787
v 2.655558 -0.353986 3.261086
v 11.677637 -4.088806 3.261086
v 11.654148 -4.135983 3.313787
v 11.701326 -4.159472 3.261086
v 11.422790 -4.718927 3.261086
v 11.375612 -4.695439 3.313787
v 11.352124 -4.742617 3.261086
v 11.677637 -4.088806 2.626156
v 11.701326 -4.159472 2.626156
v 11.654148 -4.135983 2.573455
v 11.375612 -4.695439 2.573455
v 11.422790 -4.718927 2.626156
v 11.352124 -4.742617 2.626156
v 3.004760 0.229159 2.626156
v 2.981272 0.181981 2.573455
v 2.934094 0.205470 2.626156
v 2.655558 -0.353986 2.626156
v 2.702735 -0.377474 2.573455
v 2.679247 -0.424652 2.626156
v 7.680088 -2.192821 3.276245
v 7.429801 -2.695536 3.276245
v 7.408695 -2.737928 3.228889
v 7.408695 -2.737928 2.658354
v 7.429801 -2.695536 2.610998
v 7.680088 -2.192821 2.610998
v 7.701194 -2.150428 2.658354
v 7.701194 -2.150428 3.228889
v 2.934094 0.205470 -2.729845
v 2.981272 0.181981 -2.677144
v 3.004760 0.229159 -2.729845
v 2.679247 -0.424652 -2.729845
v 2.702735 -0.377474 -2.677144
v 2.655558 -0.353986 -2.729845
v 11.677637 -4.088806 -2.729845
v 11.654148 -4.135983 -2.677144
v 11.701326 -4.159472 -2.729845
v 11.422790 -4.718927 -2.729845
v 11.375612 -4.695439 -2.677144
v 11.352124 -4.742617 -2.729845
v 11.677637 -4.088806 -3.364775
v 11.701326 -4.159472 -3.364775
v 11.654148 -4.135983 -3.417476
v 11.375612 -4.695439 -3.417476
v 11.422790 -4.718927 -3.364775
v 11.352124 -4.742617 -3.364775
v 3.004760 0.229159 -3.364775
v 2.981272 0.181981 -3.417476
v 2.934094 0.205470 -3.364775
v 2.655558 -0.353986 -3.364775
v 2.702735 -0.377474 -3.417476
v 2.679247 -0.424652 -3.364775
v 7.680088 -2.192821 -2.714686
v 7.429801 -2.695536 -2.714686
v 7.408695 -2.737928 -2.762043
v 7.408695 -2.737928 -3.332577
v 7.429801 -2.695536 -3.379934
v 7.680088 -2.192821 -3.379934
v 7.701194 -2.150428 -3.332577
v 7.701194 -2.150428 -2.762043
v 3.625653 0.216542 3.111479
v 3.617651 -0.072405 3.113945
v 3.666276 0.163693 -2.947948
v 3.658275 -0.125254 -2.945482
v 2.521636 0.195321 -2.955898
v 2.513634 -0.093627 -2.953432
v 2.481012 0.248170 3.103529
v 2.473011 -0.040778 3.105996
v -1.412632 -0.072321 3.117900
v -1.404457 0.216632 3.118286
v -1.513980 -0.061363 -2.941037
v -1.505805 0.227590 -2.940651
v -0.369493 -0.093717 -2.960239
v -0.361318 0.195236 -2.959853
v -0.268146 -0.104674 3.098698
v -0.259971 0.184279 3.099084
v 0.485441 1.126961 -2.801857
v 0.432740 1.126961 -2.749155
v 0.432740 1.074259 -2.801857
v 0.432740 1.804620 -2.801857
v 0.432740 1.751919 -2.749155
v 0.485441 1.751919 -2.801857
v -9.255584 1.074259 -2.801857
v -9.255584 1.126961 -2.749155
v -9.308286 1.126961 -2.801857
v -9.308286 1.751919 -2.801857
v -9.255584 1.751919 -2.749155
v -9.255584 1.804620 -2.801857
v -9.255584 1.074259 -3.436786
v -9.308286 1.126961 -3.436786
v -9.255584 1.126961 -3.489487
v -9.255584 1.751919 -3.489487
v -9.308286 1.751919 -3.436786
v -9.255584 1.804620 -3.436786
v 0.432740 1.074259 -3.436786
v 0.432740 1.126961 -3.489487
v 0.485441 1.126961 -3.436786
v 0.485441 1.751919 -3.436786
v 0.432740 1.751919 -3.489487
v 0.432740 1.804620 -3.436786
v -4.832007 1.158653 -2.786698
v -4.832007 1.720227 -2.786698
v -4.832007 1.767583 -2.834054
v -4.832007 1.767583 -3.404589
v -4.832007 1.720227 -3.451945
v -4.832007 1.158653 -3.451945
v -4.832007 1.111296 -3.404589
v -4.832007 1.111296 -2.834054
v -8.371023 0.077791 2.780974
v -8.370432 0.077791 3.141796
v -8.371023 1.606639 2.780974
v -8.370432 1.606639 3.141796
v -7.961519 1.606639 2.780303
v -7.960927 1.606639 3.141124
v -7.961519 0.077791 2.780303
v -7.960927 0.077791 3.141124
v -6.674352 0.216542 3.111479
v -6.682354 -0.072405 3.113945
v -6.633729 0.163693 -2.947948
v -6.641730 -0.125254 -2.945482
v -7.778369 0.195321 -2.955898
v -7.786370 -0.093627 -2.953432
v -7.818993 0.248170 3.103529
v -7.826994 -0.040778 3.105996
v -6.511594 -0.072321 3.119364
v -6.503417 0.216632 3.119727
v -6.629946 -0.061363 -2.939265
v -6.621769 0.227590 -2.938902
v -5.485518 -0.093717 -2.961679
v -5.477341 0.195236 -2.961317
v -5.367165 -0.104674 3.096949
v -5.358989 0.184279 3.097312
v 10.192930 1.727453 3.349953
v 10.140229 1.779940 3.354703
v 10.140229 1.722703 3.402440
v 10.140229 1.788522 2.675051
v 10.140229 1.836260 2.732287
v 10.192930 1.783773 2.727538
v 0.451905 1.722703 3.402440
v 0.451905 1.779940 3.354703
v 0.399204 1.727453 3.349953
v 0.399204 1.783773 2.727538
v 0.451905 1.836260 2.732287
v 0.451905 1.788522 2.675051
v 0.451905 1.090357 3.345221
v 0.399204 1.095106 3.292734
v 0.451905 1.042619 3.287985
v 0.451905 1.098940 2.665569
v 0.399204 1.151427 2.670319
v 0.451905 1.156176 2.617832
v 10.140229 1.090357 3.345221
v 10.140229 1.042619 3.287985
v 10.192930 1.095106 3.292734
v 10.192930 1.151427 2.670319
v 10.140229 1.098940 2.665569
v 10.140229 1.156176 2.617832
v 4.875483 1.745406 3.319757
v 4.875483 1.796014 2.760467
v 4.875483 1.753118 2.709036
v 4.875483 1.184905 2.657620
v 4.875483 1.133474 2.700516
v 4.875483 1.082865 3.259805
v 4.875483 1.125761 3.311236
v 4.875483 1.693974 3.362652
v 0.538159 0.077791 -3.243558
v 0.538751 0.077791 -2.882736
v 0.538159 1.606639 -3.243558
v 0.538751 1.606639 -2.882736
v 0.947664 1.606639 -3.244230
v 0.948256 1.606639 -2.883408
v 0.947664 0.077791 -3.244230
v 0.948256 0.077791 -2.883408
v 10.192930 1.727453 -2.779504
v 10.140229 1.779940 -2.774754
v 10.140229 1.722703 -2.727017
v 10.140229 1.788522 -3.454406
v 10.140229 1.836260 -3.397170
v 10.192930 1.783773 -3.401919
v 0.451905 1.722703 -2.727017
v 0.451905 1.779940 -2.774754
v 0.399204 1.727453 -2.779504
v 0.399204 1.783773 -3.401919
v 0.451905 1.836260 -3.397170
v 0.451905 1.788522 -3.454406
v 0.451905 1.090357 -2.784236
v 0.399204 1.095106 -2.836723
v 0.451905 1.042619 -2.841472
v 0.451905 1.098940 -3.463888
v 0.399204 1.151427 -3.459138
v 0.451905 1.156176 -3.511625
v 10.140229 1.090357 -2.784236
v 10.140229 1.042619 -2.841472
v 10.192930 1.095106 -2.836723
v 10.192930 1.151427 -3.459138
v 10.140229 1.098940 -3.463888
v 10.140229 1.156176 -3.511625
v 4.875483 1.745406 -2.809700
v 4.875483 1.796014 -3.368990
v 4.875483 1.753118 -3.420421
v 4.875483 1.184905 -3.471837
v 4.875483 1.133474 -3.428941
v 4.875483 1.082865 -2.869652
v 4.875483 1.125761 -2.818221
v 4.875483 1.693974 -2.766805
v -4.055448 -0.072321 -2.943708
v -4.063609 0.216632 -2.944326
v -4.126122 -0.061363 3.115664
v -4.134283 0.227590 3.115047
v -5.270692 -0.093717 3.102373
v -5.278853 0.195236 3.101755
v -5.200019 -0.104674 -2.956999
v -5.208180 0.184279 -2.957617
v 0.485441 1.126961 3.327601
v 0.432740 1.126961 3.380302
v 0.432740 1.074259 3.327601
v 0.432740 1.804620 3.327601
v 0.432740 1.751919 3.380302
v 0.485441 1.751919 3.327601
v -9.255584 1.074259 3.327601
v -9.255584 1.126961 3.380302
v -9.308286 1.126961 3.327601
v -9.308286 1.751919 3.327601
v -9.255584 1.751919 3.380302
v -9.255584 1.804620 3.327601
v -9.255584 1.074259 2.692671
v -9.308286 1.126961 2.692671
v -9.255584 1.126961 2.639970
v -9.255584 1.751919 2.639970
v -9.308286 1.751919 2.692671
v -9.255584 1.804620 2.692671
v 0.432740 1.074259 2.692671
v 0.432740 1.126961 2.639970
v 0.485441 1.126961 2.692671
v 0.485441 1.751919 2.692671
v 0.432740 1.751919 2.639970
v 0.432740 1.804620 2.692671
v -4.832007 1.158653 3.342760
v -4.832007 1.720227 3.342760
v -4.832007 1.767583 3.295403
v -4.832007 1.767583 2.724869
v -4.832007 1.720227 2.677512
v -4.832007 1.158653 2.677512
v -4.832007 1.111296 2.724869
v -4.832007 1.111296 3.295403
v 1.184237 -0.072321 -2.943708
v 1.176076 0.216632 -2.944326
v 1.113564 -0.061363 3.115664
v 1.105403 0.227590 3.115047
v -0.031006 -0.093717 3.102373
v -0.039168 0.195236 3.101755
v 0.039667 -0.104674 -2.956999
v 0.031506 0.184279 -2.957617
vt 0.060113 0.047188
vt 0.088497 0.047188
vt 0.088497 0.201583
vt 0.060113 0.201583
vt 0.145264 0.229966
vt 0.116880 0.229966
vt 0.116880 0.201583
vt 0.145264 0.201583
vt 0.116880 0.047188
vt 0.145264 0.047188
vt 0.116880 0.018804
vt 0.145264 0.018804
vt 0.031730 0.047188
vt 0.031730 0.201583
vt 0.060113 0.047188
vt 0.088497 0.047188
vt 0.088497 0.201583
vt 0.060113 0.201583
vt 0.145264 0.229966
vt 0.116880 0.229966
vt 0.116880 0.201583
vt 0.145264 0.201583
vt 0.116880 0.047188
vt 0.145264 0.047188
vt 0.116880 0.018804
vt 0.145264 0.018804
vt 0.031730 0.047188
vt 0.031730 0.201583
vt 0.060113 0.047188
vt 0.088497 0.047188
vt 0.088497 0.201583
vt 0.060113 0.201583
vt 0.145264 0.229966
vt 0.116880 0.229966
vt 0.116880 0.201583
vt 0.145264 0.201583
vt 0.116880 0.047188
vt 0.145264 0.047188
vt 0.116880 0.018804
vt 0.145264 0.018804
vt 0.031730 0.047188
vt 0.031730 0.201583
vt 0.060113 0.047188
vt 0.088497 0.047188
vt 0.088497 0.201583
vt 0.060113 0.201583
vt 0.145264 0.229966
vt 0.116880 0.229966
vt 0.116880 0.201583
vt 0.145264 0.201583
vt 0.116880 0.047188
vt 0.145264 0.047188
vt 0.116880 0.018804
vt 0.145264 0.018804
vt 0.031730 0.047188
vt 0.031730 0.201583
vt 0.060113 0.047188
vt 0.088497 0.047188
vt 0.088497 0.201583
vt 0.060113 0.201583
vt 0.145264 0.229966
vt 0.116880 0.229966
vt 0.116880 0.201583
vt 0.145264 0.201583
vt 0.116880 0.047188
vt 0.145264 0.047188
vt 0.116880 0.018804
vt 0.145264 0.018804
vt 0.031730 0.047188
vt 0.031730 0.201583
vt 0.060113 0.047188
vt 0.088497 0.047188
vt 0.088497 0.201583
vt 0.060113 0.201583
vt 0.145264 0.229966
vt 0.116880 0.229966
vt 0.116880 0.201583
vt 0.145264 0.201583
vt 0.116880 0.047188
vt 0.145264 0.047188
vt 0.116880 0.018804
vt 0.145264 0.018804
vt 0.031730 0.047188
vt 0.031730 0.201583
vt 0.060113 0.047188
vt 0.088497 0.047188
vt 0.088497 0.201583
vt 0.060113 0.201583
vt 0.145264 0.229966
vt 0.116880 0.229966
vt 0.116880 0.201583
vt 0.145264 0.201583
vt 0.116880 0.047188
vt 0.145264 0.047188
vt 0.116880 0.018804
vt 0.145264 0.018804
vt 0.031730 0.047188
vt 0.031730 0.201583
vt 0.276567 0.212032
vt 0.281308 0.212032
vt 0.281308 0.268386
vt 0.276567 0.268386
vt 0.088923 0.276427
vt 0.088923 0.273064
vt 0.145149 0.273064
vt 0.145149 0.276427
vt 0.079504 0.567192
vt 0.088923 0.567192
vt 0.088923 0.894668
vt 0.079504 0.894668
vt 0.215599 0.212032
vt 0.220340 0.212032
vt 0.220341 0.268386
vt 0.215599 0.268386
vt 0.145149 0.567192
vt 0.154568 0.567192
vt 0.154568 0.894668
vt 0.145149 0.894668
vt 0.281309 0.959062
vt 0.276567 0.959062
vt 0.276567 0.902708
vt 0.281309 0.902708
vt 0.088923 0.898031
vt 0.145149 0.898031
vt 0.220341 0.959063
vt 0.215600 0.959063
vt 0.215599 0.902709
vt 0.220341 0.902709
vt 0.281308 0.894668
vt 0.276567 0.894668
vt 0.276567 0.567192
vt 0.281309 0.567192
vt 0.220341 0.894668
vt 0.210922 0.894668
vt 0.210922 0.567192
vt 0.220341 0.567192
vt 0.276567 0.276427
vt 0.220341 0.276427
vt 0.023149 0.567193
vt 0.023150 0.894669
vt 0.079504 0.276427
vt 0.154568 0.276427
vt 0.281309 0.276427
vt 0.210922 0.276427
vt 0.023149 0.276428
vt 0.379249 0.162425
vt 0.403904 0.162426
vt 0.403904 0.539123
vt 0.379249 0.539124
vt 0.378863 0.560216
vt 0.294202 0.560213
vt 0.294203 0.539123
vt 0.519471 0.539123
vt 0.487805 0.539123
vt 0.487805 0.162426
vt 0.519471 0.162426
vt 0.294202 0.162427
vt 0.294202 0.141337
vt 0.378863 0.141334
vt 0.379249 0.162425
vt 0.403904 0.162426
vt 0.403904 0.539123
vt 0.379249 0.539124
vt 0.378863 0.560216
vt 0.294202 0.560213
vt 0.294203 0.539123
vt 0.519471 0.539123
vt 0.487805 0.539123
vt 0.487805 0.162426
vt 0.519471 0.162426
vt 0.294202 0.162427
vt 0.294202 0.141337
vt 0.378863 0.141334
vt 0.379249 0.162425
vt 0.403904 0.162426
vt 0.403904 0.539123
vt 0.379249 0.539124
vt 0.378863 0.560216
vt 0.294202 0.560213
vt 0.294203 0.539123
vt 0.519471 0.539123
vt 0.487805 0.539123
vt 0.487805 0.162426
vt 0.519471 0.162426
vt 0.294202 0.162427
vt 0.294202 0.141337
vt 0.378863 0.141334
vt 0.276567 0.212032
vt 0.281308 0.212032
vt 0.281308 0.268386
vt 0.276567 0.268386
vt 0.088923 0.276427
vt 0.088923 0.273064
vt 0.145149 0.273064
vt 0.145149 0.276427
vt 0.079504 0.567192
vt 0.088923 0.567192
vt 0.088923 0.894668
vt 0.079504 0.894668
vt 0.215599 0.212032
vt 0.220340 0.212032
vt 0.220341 0.268386
vt 0.215599 0.268386
vt 0.145149 0.567192
vt 0.154568 0.567192
vt 0.154568 0.894668
vt 0.145149 0.894668
vt 0.281309 0.959062
vt 0.276567 0.959062
vt 0.276567 0.902708
vt 0.281309 0.902708
vt 0.088923 0.898031
vt 0.145149 0.898031
vt 0.220341 0.959063
vt 0.215600 0.959063
vt 0.215599 0.902709
vt 0.220341 0.902709
vt 0.281308 0.894668
vt 0.276567 0.894668
vt 0.276567 0.567192
vt 0.281309 0.567192
vt 0.220341 0.894668
vt 0.210922 0.894668
vt 0.210922 0.567192
vt 0.220341 0.567192
vt 0.276567 0.276427
vt 0.220341 0.276427
vt 0.023149 0.567193
vt 0.023150 0.894669
vt 0.079504 0.276427
vt 0.154568 0.276427
vt 0.281309 0.276427
vt 0.210922 0.276427
vt 0.023149 0.276428
vt 0.379249 0.162425
vt 0.403904 0.162426
vt 0.403904 0.539123
vt 0.379249 0.539124
vt 0.378863 0.560216
vt 0.294202 0.560213
vt 0.294203 0.539123
vt 0.519471 0.539123
vt 0.487805 0.539123
vt 0.487805 0.162426
vt 0.519471 0.162426
vt 0.294202 0.162427
vt 0.294202 0.141337
vt 0.378863 0.141334
vt 0.060113 0.047188
vt 0.088497 0.047188
vt 0.088497 0.201583
vt 0.060113 0.201583
vt 0.145264 0.229966
vt 0.116880 0.229966
vt 0.116880 0.201583
vt 0.145264 0.201583
vt 0.116880 0.047188
vt 0.145264 0.047188
vt 0.116880 0.018804
vt 0.145264 0.018804
vt 0.031730 0.047188
vt 0.031730 0.201583
vt 0.379249 0.162425
vt 0.403904 0.162426
vt 0.403904 0.539123
vt 0.379249 0.539124
vt 0.378863 0.560216
vt 0.294202 0.560213
vt 0.294203 0.539123
vt 0.519471 0.539123
vt 0.487805 0.539123
vt 0.487805 0.162426
vt 0.519471 0.162426
vt 0.294202 0.162427
vt 0.294202 0.141337
vt 0.378863 0.141334
vt 0.379249 0.162425
vt 0.403904 0.162426
vt 0.403904 0.539123
vt 0.379249 0.539124
vt 0.378863 0.560216
vt 0.294202 0.560213
vt 0.294203 0.539123
vt 0.519471 0.539123
vt 0.487805 0.539123
vt 0.487805 0.162426
vt 0.519471 0.162426
vt 0.294202 0.162427
vt 0.294202 0.141337
vt 0.378863 0.141334
vt 0.276567 0.212032
vt 0.281308 0.212032
vt 0.281308 0.268386
vt 0.276567 0.268386
vt 0.088923 0.276427
vt 0.088923 0.273064
vt 0.145149 0.273064
vt 0.145149 0.276427
vt 0.079504 0.567192
vt 0.088923 0.567192
vt 0.088923 0.894668
vt 0.079504 0.894668
vt 0.215599 0.212032
vt 0.220340 0.212032
vt 0.220341 0.268386
vt 0.215599 0.268386
vt 0.145149 0.567192
vt 0.154568 0.567192
vt 0.154568 0.894668
vt 0.145149 0.894668
vt 0.281309 0.959062
vt 0.276567 0.959062
vt 0.276567 0.902708
vt 0.281309 0.902708
vt 0.088923 0.898031
vt 0.145149 0.898031
vt 0.220341 0.959063
vt 0.215600 0.959063
vt 0.215599 0.902709
vt 0.220341 0.902709
vt 0.281308 0.894668
vt 0.276567 0.894668
vt 0.276567 0.567192
vt 0.281309 0.567192
vt 0.220341 0.894668
vt 0.210922 0.894668
vt 0.210922 0.567192
vt 0.220341 0.567192
vt 0.276567 0.276427
vt 0.220341 0.276427
vt 0.023149 0.567193
vt 0.023150 0.894669
vt 0.079504 0.276427
vt 0.154568 0.276427
vt 0.281309 0.276427
vt 0.210922 0.276427
vt 0.023149 0.276428
vt 0.379249 0.162425
vt 0.403904 0.162426
vt 0.403904 0.539123
vt 0.379249 0.539124
vt 0.378863 0.560216
vt 0.294202 0.560213
vt 0.294203 0.539123
vt 0.519471 0.539123
vt 0.487805 0.539123
vt 0.487805 0.162426
vt 0.519471 0.162426
vt 0.294202 0.162427
vt 0.294202 0.141337
vt 0.378863 0.141334
vt 0.276567 0.212032
vt 0.281308 0.212032
vt 0.281308 0.268386
vt 0.276567 0.268386
vt 0.088923 0.276427
vt 0.088923 0.273064
vt 0.145149 0.273064
vt 0.145149 0.276427
vt 0.079504 0.567192
vt 0.088923 0.567192
vt 0.088923 0.894668
vt 0.079504 0.894668
vt 0.215599 0.212032
vt 0.220340 0.212032
vt 0.220341 0.268386
vt 0.215599 0.268386
vt 0.145149 0.567192
vt 0.154568 0.567192
vt 0.154568 0.894668
vt 0.145149 0.894668
vt 0.281309 0.959062
vt 0.276567 0.959062
vt 0.276567 0.902708
vt 0.281309 0.902708
vt 0.088923 0.898031
vt 0.145149 0.898031
vt 0.220341 0.959063
vt 0.215600 0.959063
vt 0.215599 0.902709
vt 0.220341 0.902709
vt 0.281308 0.894668
vt 0.276567 0.894668
vt 0.276567 0.567192
vt 0.281309 0.567192
vt 0.220341 0.894668
vt 0.210922 0.894668
vt 0.210922 0.567192
vt 0.220341 0.567192
vt 0.276567 0.276427
vt 0.220341 0.276427
vt 0.023149 0.567193
vt 0.023150 0.894669
vt 0.079504 0.276427
vt 0.154568 0.276427
vt 0.281309 0.276427
vt 0.210922 0.276427
vt 0.023149 0.276428
vt 0.276567 0.212032
vt 0.281308 0.212032
vt 0.281308 0.268386
vt 0.276567 0.268386
vt 0.088923 0.276427
vt 0.088923 0.273064
vt 0.145149 0.273064
vt 0.145149 0.276427
vt 0.079504 0.567192
vt 0.088923 0.567192
vt 0.088923 0.894668
vt 0.079504 0.894668
vt 0.215599 0.212032
vt 0.220340 0.212032
vt 0.220341 0.268386
vt 0.215599 0.268386
vt 0.145149 0.567192
vt 0.154568 0.567192
vt 0.154568 0.894668
vt 0.145149 0.894668
vt 0.281309 0.959062
vt 0.276567 0.959062
vt 0.276567 0.902708
vt 0.281309 0.902708
vt 0.088923 0.898031
vt 0.145149 0.898031
vt 0.220341 0.959063
vt 0.215600 0.959063
vt 0.215599 0.902709
vt 0.220341 0.902709
vt 0.281308 0.894668
vt 0.276567 0.894668
vt 0.276567 0.567192
vt 0.281309 0.567192
vt 0.220341 0.894668
vt 0.210922 0.894668
vt 0.210922 0.567192
vt 0.220341 0.567192
vt 0.276567 0.276427
vt 0.220341 0.276427
vt 0.023149 0.567193
vt 0.023150 0.894669
vt 0.079504 0.276427
vt 0.154568 0.276427
vt 0.281309 0.276427
vt 0.210922 0.276427
vt 0.023149 0.276428
vt 0.276567 0.212032
vt 0.281308 0.212032
vt 0.281308 0.268386
vt 0.276567 0.268386
vt 0.088923 0.276427
vt 0.088923 0.273064
vt 0.145149 0.273064
vt 0.145149 0.276427
vt 0.079504 0.567192
vt 0.088923 0.567192
vt 0.088923 0.894668
vt 0.079504 0.894668
vt 0.215599 0.212032
vt 0.220340 0.212032
vt 0.220341 0.268386
vt 0.215599 0.268386
vt 0.145149 0.567192
vt 0.154568 0.567192
vt 0.154568 0.894668
vt 0.145149 0.894668
vt 0.281309 0.959062
vt 0.276567 0.959062
vt 0.276567 0.902708
vt 0.281309 0.902708
vt 0.088923 0.898031
vt 0.145149 0.898031
vt 0.220341 0.959063
vt 0.215600 0.959063
vt 0.215599 0.902709
vt 0.220341 0.902709
vt 0.281308 0.894668
vt 0.276567 0.894668
vt 0.276567 0.567192
vt 0.281309 0.567192
vt 0.220341 0.894668
vt 0.210922 0.894668
vt 0.210922 0.567192
vt 0.220341 0.567192
vt 0.276567 0.276427
vt 0.220341 0.276427
vt 0.023149 0.567193
vt 0.023150 0.894669
vt 0.079504 0.276427
vt 0.154568 0.276427
vt 0.281309 0.276427
vt 0.210922 0.276427
vt 0.023149 0.276428
vt 0.276567 0.212032
vt 0.281308 0.212032
vt 0.281308 0.268386
vt 0.276567 0.268386
vt 0.088923 0.276427
vt 0.088923 0.273064
vt 0.145149 0.273064
vt 0.145149 0.276427
vt 0.079504 0.567192
vt 0.088923 0.567192
vt 0.088923 0.894668
vt 0.079504 0.894668
vt 0.215599 0.212032
vt 0.220340 0.212032
vt 0.220341 0.268386
vt 0.215599 0.268386
vt 0.145149 0.567192
vt 0.154568 0.567192
vt 0.154568 0.894668
vt 0.145149 0.894668
vt 0.281309 0.959062
vt 0.276567 0.959062
vt 0.276567 0.902708
vt 0.281309 0.902708
vt 0.088923 0.898031
vt 0.145149 0.898031
vt 0.220341 0.959063
vt 0.215600 0.959063
vt 0.215599 0.902709
vt 0.220341 0.902709
vt 0.281308 0.894668
vt 0.276567 0.894668
vt 0.276567 0.567192
vt 0.281309 0.567192
vt 0.220341 0.894668
vt 0.210922 0.894668
vt 0.210922 0.567192
vt 0.220341 0.567192
vt 0.276567 0.276427
vt 0.220341 0.276427
vt 0.023149 0.567193
vt 0.023150 0.894669
vt 0.079504 0.276427
vt 0.154568 0.276427
vt 0.281309 0.276427
vt 0.210922 0.276427
vt 0.023149 0.276428
vt 0.276567 0.212032
vt 0.281308 0.212032
vt 0.281308 0.268386
vt 0.276567 0.268386
vt 0.088923 0.276427
vt 0.088923 0.273064
vt 0.145149 0.273064
vt 0.145149 0.276427
vt 0.079504 0.567192
vt 0.088923 0.567192
vt 0.088923 0.894668
vt 0.079504 0.894668
vt 0.215599 0.212032
vt 0.220340 0.212032
vt 0.220341 0.268386
vt 0.215599 0.268386
vt 0.145149 0.567192
vt 0.154568 0.567192
vt 0.154568 0.894668
vt 0.145149 0.894668
vt 0.281309 0.959062
vt 0.276567 0.959062
vt 0.276567 0.902708
vt 0.281309 0.902708
vt 0.088923 0.898031
vt 0.145149 0.898031
vt 0.220341 0.959063
vt 0.215600 0.959063
vt 0.215599 0.902709
vt 0.220341 0.902709
vt 0.281308 0.894668
vt 0.276567 0.894668
vt 0.276567 0.567192
vt 0.281309 0.567192
vt 0.220341 0.894668
vt 0.210922 0.894668
vt 0.210922 0.567192
vt 0.220341 0.567192
vt 0.276567 0.276427
vt 0.220341 0.276427
vt 0.023149 0.567193
vt 0.023150 0.894669
vt 0.079504 0.276427
vt 0.154568 0.276427
vt 0.281309 0.276427
vt 0.210922 0.276427
vt 0.023149 0.276428
vt 0.379249 0.162425
vt 0.403904 0.162426
vt 0.403904 0.539123
vt 0.379249 0.539124
vt 0.378863 0.560216
vt 0.294202 0.560213
vt 0.294203 0.539123
vt 0.519471 0.539123
vt 0.487805 0.539123
vt 0.487805 0.162426
vt 0.519471 0.162426
vt 0.294202 0.162427
vt 0.294202 0.141337
vt 0.378863 0.141334
vt 0.379249 0.162425
vt 0.403904 0.162426
vt 0.403904 0.539123
vt 0.379249 0.539124
vt 0.378863 0.560216
vt 0.294202 0.560213
vt 0.294203 0.539123
vt 0.519471 0.539123
vt 0.487805 0.539123
vt 0.487805 0.162426
vt 0.519471 0.162426
vt 0.294202 0.162427
vt 0.294202 0.141337
vt 0.378863 0.141334
vt 0.276567 0.212032
vt 0.281308 0.212032
vt 0.281308 0.268386
vt 0.276567 0.268386
vt 0.088923 0.276427
vt 0.088923 0.273064
vt 0.145149 0.273064
vt 0.145149 0.276427
vt 0.079504 0.567192
vt 0.088923 0.567192
vt 0.088923 0.894668
vt 0.079504 0.894668
vt 0.215599 0.212032
vt 0.220340 0.212032
vt 0.220341 0.268386
vt 0.215599 0.268386
vt 0.145149 0.567192
vt 0.154568 0.567192
vt 0.154568 0.894668
vt 0.145149 0.894668
vt 0.281309 0.959062
vt 0.276567 0.959062
vt 0.276567 0.902708
vt 0.281309 0.902708
vt 0.088923 0.898031
vt 0.145149 0.898031
vt 0.220341 0.959063
vt 0.215600 0.959063
vt 0.215599 0.902709
vt 0.220341 0.902709
vt 0.281308 0.894668
vt 0.276567 0.894668
vt 0.276567 0.567192
vt 0.281309 0.567192
vt 0.220341 0.894668
vt 0.210922 0.894668
vt 0.210922 0.567192
vt 0.220341 0.567192
vt 0.276567 0.276427
vt 0.220341 0.276427
vt 0.023149 0.567193
vt 0.023150 0.894669
vt 0.079504 0.276427
vt 0.154568 0.276427
vt 0.281309 0.276427
vt 0.210922 0.276427
vt 0.023149 0.276428
vt 0.060113 0.047188
vt 0.088497 0.047188
vt 0.088497 0.201583
vt 0.060113 0.201583
vt 0.145264 0.229966
vt 0.116880 0.229966
vt 0.116880 0.201583
vt 0.145264 0.201583
vt 0.116880 0.047188
vt 0.145264 0.047188
vt 0.116880 0.018804
vt 0.145264 0.018804
vt 0.031730 0.047188
vt 0.031730 0.201583
vt 0.379249 0.162425
vt 0.403904 0.162426
vt 0.403904 0.539123
vt 0.379249 0.539124
vt 0.378863 0.560216
vt 0.294202 0.560213
vt 0.294203 0.539123
vt 0.519471 0.539123
vt 0.487805 0.539123
vt 0.487805 0.162426
vt 0.519471 0.162426
vt 0.294202 0.162427
vt 0.294202 0.141337
vt 0.378863 0.141334
vt 0.379249 0.162425
vt 0.403904 0.162426
vt 0.403904 0.539123
vt 0.379249 0.539124
vt 0.378863 0.560216
vt 0.294202 0.560213
vt 0.294203 0.539123
vt 0.519471 0.539123
vt 0.487805 0.539123
vt 0.487805 0.162426
vt 0.519471 0.162426
vt 0.294202 0.162427
vt 0.294202 0.141337
vt 0.378863 0.141334
vt 0.276567 0.212032
vt 0.281308 0.212032
vt 0.281308 0.268386
vt 0.276567 0.268386
vt 0.088923 0.276427
vt 0.088923 0.273064
vt 0.145149 0.273064
vt 0.145149 0.276427
vt 0.079504 0.567192
vt 0.088923 0.567192
vt 0.088923 0.894668
vt 0.079504 0.894668
vt 0.215599 0.212032
vt 0.220340 0.212032
vt 0.220341 0.268386
vt 0.215599 0.268386
vt 0.145149 0.567192
vt 0.154568 0.567192
vt 0.154568 0.894668
vt 0.145149 0.894668
vt 0.281309 0.959062
vt 0.276567 0.959062
vt 0.276567 0.902708
vt 0.281309 0.902708
vt 0.088923 0.898031
vt 0.145149 0.898031
vt 0.220341 0.959063
vt 0.215600 0.959063
vt 0.215599 0.902709
vt 0.220341 0.902709
vt 0.281308 0.894668
vt 0.276567 0.894668
vt 0.276567 0.567192
vt 0.281309 0.567192
vt 0.220341 0.894668
vt 0.210922 0.894668
vt 0.210922 0.567192
vt 0.220341 0.567192
vt 0.276567 0.276427
vt 0.220341 0.276427
vt 0.023149 0.567193
vt 0.023150 0.894669
vt 0.079504 0.276427
vt 0.154568 0.276427
vt 0.281309 0.276427
vt 0.210922 0.276427
vt 0.023149 0.276428
vt 0.060113 0.047188
vt 0.088497 0.047188
vt 0.088497 0.201583
vt 0.060113 0.201583
vt 0.145264 0.229966
vt 0.116880 0.229966
vt 0.116880 0.201583
vt 0.145264 0.201583
vt 0.116880 0.047188
vt 0.145264 0.047188
vt 0.116880 0.018804
vt 0.145264 0.018804
vt 0.031730 0.047188
vt 0.031730 0.201583
vt 0.276567 0.212032
vt 0.281308 0.212032
vt 0.281308 0.268386
vt 0.276567 0.268386
vt 0.088923 0.276427
vt 0.088923 0.273064
vt 0.145149 0.273064
vt 0.145149 0.276427
vt 0.079504 0.567192
vt 0.088923 0.567192
vt 0.088923 0.894668
vt 0.079504 0.894668
vt 0.215599 0.212032
vt 0.220340 0.212032
vt 0.220341 0.268386
vt 0.215599 0.268386
vt 0.145149 0.567192
vt 0.154568 0.567192
vt 0.154568 0.894668
vt 0.145149 0.894668
vt 0.281309 0.959062
vt 0.276567 0.959062
vt 0.276567 0.902708
vt 0.281309 0.902708
vt 0.088923 0.898031
vt 0.145149 0.898031
vt 0.220341 0.959063
vt 0.215600 0.959063
vt 0.215599 0.902709
vt 0.220341 0.902709
vt 0.281308 0.894668
vt 0.276567 0.894668
vt 0.276567 0.567192
vt 0.281309 0.567192
vt 0.220341 0.894668
vt 0.210922 0.894668
vt 0.210922 0.567192
vt 0.220341 0.567192
vt 0.276567 0.276427
vt 0.220341 0.276427
vt 0.023149 0.567193
vt 0.023150 0.894669
vt 0.079504 0.276427
vt 0.154568 0.276427
vt 0.281309 0.276427
vt 0.210922 0.276427
vt 0.023149 0.276428
vt 0.379249 0.162425
vt 0.403904 0.162426
vt 0.403904 0.539123
vt 0.379249 0.539124
vt 0.378863 0.560216
vt 0.294202 0.560213
vt 0.294203 0.539123
vt 0.519471 0.539123
vt 0.487805 0.539123
vt 0.487805 0.162426
vt 0.519471 0.162426
vt 0.294202 0.162427
vt 0.294202 0.141337
vt 0.378863 0.141334
vt 0.276567 0.212032
vt 0.281308 0.212032
vt 0.281308 0.268386
vt 0.276567 0.268386
vt 0.088923 0.276427
vt 0.088923 0.273064
vt 0.145149 0.273064
vt 0.145149 0.276427
vt 0.079504 0.567192
vt 0.088923 0.567192
vt 0.088923 0.894668
vt 0.079504 0.894668
vt 0.215599 0.212032
vt 0.220340 0.212032
vt 0.220341 0.268386
vt 0.215599 0.268386
vt 0.145149 0.567192
vt 0.154568 0.567192
vt 0.154568 0.894668
vt 0.145149 0.894668
vt 0.281309 0.959062
vt 0.276567 0.959062
vt 0.276567 0.902708
vt 0.281309 0.902708
vt 0.088923 0.898031
vt 0.145149 0.898031
vt 0.220341 0.959063
vt 0.215600 0.959063
vt 0.215599 0.902709
vt 0.220341 0.902709
vt 0.281308 0.894668
vt 0.276567 0.894668
vt 0.276567 0.567192
vt 0.281309 0.567192
vt 0.220341 0.894668
vt 0.210922 0.894668
vt 0.210922 0.567192
vt 0.220341 0.567192
vt 0.276567 0.276427
vt 0.220341 0.276427
vt 0.023149 0.567193
vt 0.023150 0.894669
vt 0.079504 0.276427
vt 0.154568 0.276427
vt 0.281309 0.276427
vt 0.210922 0.276427
vt 0.023149 0.276428
vt 0.379249 0.162425
vt 0.403904 0.162426
vt 0.403904 0.539123
vt 0.379249 0.539124
vt 0.378863 0.560216
vt 0.294202 0.560213
vt 0.294203 0.539123
vt 0.519471 0.539123
vt 0.487805 0.539123
vt 0.487805 0.162426
vt 0.519471 0.162426
vt 0.294202 0.162427
vt 0.294202 0.141337
vt 0.378863 0.141334
vn -0.999999 0.000000 0.001641
vn -0.999999 0.000000 0.001641
vn -0.999999 0.000000 0.001641
vn -0.999999 0.000000 0.001641
vn 0.000000 1.000000 0.000000
vn 0.000000 1.000000 0.000000
vn 0.000000 1.000000 0.000000
vn 0.000000 1.000000 0.000000
vn 0.999999 0.000000 -0.001641
vn 0.999999 0.000000 -0.001641
vn 0.999999 0.000000 -0.001641
vn 0.999999 0.000000 -0.001641
vn 0.000000 -1.000000 0.000000
vn 0.000000 -1.000000 0.000000
vn 0.000000 -1.000000 0.000000
vn 0.000000 -1.000000 0.000000
vn 0.001640 0.000000 0.999999
vn 0.001640 0.000000 0.999999
vn 0.001640 0.000000 0.999999
vn 0.001640 0.000000 0.999999
vn -0.001640 0.000000 -0.999999
vn -0.001640 0.000000 -0.999999
vn -0.001640 0.000000 -0.999999
vn -0.001640 0.000000 -0.999999
vn -0.999999 0.000000 0.001639
vn -0.999999 0.000000 0.001639
vn -0.999999 0.000000 0.001639
vn -0.999999 0.000000 0.001639
vn 0.000000 1.000000 0.000000
vn 0.000000 1.000000 0.000000
vn 0.000000 1.000000 0.000000
vn 0.000000 1.000000 0.000000
vn 0.999999 0.000000 -0.001640
vn 0.999999 0.000000 -0.001640
vn 0.999999 0.000000 -0.001640
vn 0.999999 0.000000 -0.001640
vn 0.000000 -1.000000 0.000000
vn 0.000000 -1.000000 0.000000
vn 0.000000 -1.000000 0.000000
vn 0.000000 -1.000000 0.000000
vn 0.001641 0.000000 0.999999
vn 0.001641 0.000000 0.999999
vn 0.001641 0.000000 0.999999
vn 0.001641 0.000000 0.999999
vn -0.001640 0.000000 -0.999999
vn -0.001640 0.000000 -0.999999
vn -0.001640 0.000000 -0.999999
vn -0.001640 0.000000 -0.999999
vn -0.999999 0.000000 0.001640
vn -0.999999 0.000000 0.001640
vn -0.999999 0.000000 0.001640
vn -0.999999 0.000000 0.001640
vn 0.000000 1.000000 0.000000
vn 0.000000 1.000000 0.000000
vn 0.000000 1.000000 0.000000
vn 0.000000 1.000000 0.000000
vn 0.999999 0.000000 -0.001640
vn 0.999999 0.000000 -0.001640
vn 0.999999 0.000000 -0.001640
vn 0.999999 0.000000 -0.001640
vn 0.000000 -1.000000 0.000000
vn 0.000000 -1.000000 0.000000
vn 0.000000 -1.000000 0.000000
vn 0.000000 -1.000000 0.000000
vn 0.001640 0.000000 0.999999
vn 0.001640 0.000000 0.999999
vn 0.001640 0.000000 0.999999
vn 0.001640 0.000000 0.999999
vn -0.001640 0.000000 -0.999999
vn -0.001640 0.000000 -0.999999
vn -0.001640 0.000000 -0.999999
vn -0.001640 0.000000 -0.999999
vn -0.999999 0.000000 0.001641
vn -0.999999 0.000000 0.001641
vn -0.999999 0.000000 0.001641
vn -0.999999 0.000000 0.001641
vn 0.000000 1.000000 0.000000
vn 0.000000 1.000000 0.000000
vn 0.000000 1.000000 0.000000
vn 0.000000 1.000000 0.000000
vn 0.999999 0.000000 -0.001640
vn 0.999999 0.000000 -0.001640
vn 0.999999 0.000000 -0.001640
vn 0.999999 0.000000 -0.001640
vn 0.000000 -1.000000 0.000000
vn 0.000000 -1.000000 0.000000
vn 0.000000 -1.000000 0.000000
vn 0.000000 -1.000000 0.000000
vn 0.001640 0.000000 0.999999
vn 0.001640 0.000000 0.999999
vn 0.001640 0.000000 0.999999
vn 0.001640 0.000000 0.999999
vn -0.001640 0.000000 -0.999999
vn -0.001640 0.000000 -0.999999
vn -0.001640 0.000000 -0.999999
vn -0.001640 0.000000 -0.999999
vn -0.999999 0.000000 0.001641
vn -0.999999 0.000000 0.001641
vn -0.999999 0.000000 0.001641
vn -0.999999 0.000000 0.001641
vn 0.000000 1.000000 0.000000
vn 0.000000 1.000000 0.000000
vn 0.000000 1.000000 0.000000
vn 0.000000 1.000000 0.000000
vn 0.999999 0.000000 -0.001640
vn 0.999999 0.000000 -0.001640
vn 0.999999 0.000000 -0.001640
vn 0.999999 0.000000 -0.001640
vn 0.000000 -1.000000 0.000000
vn 0.000000 -1.000000 0.000000
vn 0.000000 -1.000000 0.000000
vn 0.000000 -1.000000 0.000000
vn 0.001641 0.000000 0.999999
vn 0.001641 0.000000 0.999999
vn 0.001641 0.000000 0.999999
vn 0.001641 0.000000 0.999999
vn -0.001640 0.000000 -0.999999
vn -0.001640 0.000000 -0.999999
vn -0.001640 0.000000 -0.999999
vn -0.001640 0.000000 -0.999999
vn -0.999999 0.000000 0.001640
vn -0.999999 0.000000 0.001640
vn -0.999999 0.000000 0.001640
vn -0.999999 0.000000 0.001640
vn 0.000000 1.000000 -0.000000
vn 0.000000 1.000000 -0.000000
vn 0.000000 1.000000 -0.000000
vn 0.000000 1.000000 -0.000000
vn 0.999999 0.000000 -0.001641
vn 0.999999 0.000000 -0.001641
vn 0.999999 0.000000 -0.001641
vn 0.999999 0.000000 -0.001641
vn 0.000000 -1.000000 0.000000
vn 0.000000 -1.000000 0.000000
vn 0.000000 -1.000000 0.000000
vn 0.000000 -1.000000 0.000000
vn 0.001640 0.000000 0.999999
vn 0.001640 0.000000 0.999999
vn 0.001640 0.000000 0.999999
vn 0.001640 0.000000 0.999999
vn -0.001640 0.000000 -0.999999
vn -0.001640 0.000000 -0.999999
vn -0.001640 0.000000 -0.999999
vn -0.001640 0.000000 -0.999999
vn -0.999999 0.000000 0.001640
vn -0.999999 0.000000 0.001640
vn -0.999999 0.000000 0.001640
vn -0.999999 0.000000 0.001640
vn 0.000000 1.000000 0.000000
vn 0.000000 1.000000 0.000000
vn 0.000000 1.000000 0.000000
vn 0.000000 1.000000 0.000000
vn 0.999999 0.000000 -0.001640
vn 0.999999 0.000000 -0.001640
vn 0.999999 0.000000 -0.001640
vn 0.999999 0.000000 -0.001640
vn 0.000000 -1.000000 0.000000
vn 0.000000 -1.000000 0.000000
vn 0.000000 -1.000000 0.000000
vn 0.000000 -1.000000 0.000000
vn 0.001641 0.000000 0.999999
vn 0.001641 0.000000 0.999999
vn 0.001641 0.000000 0.999999
vn 0.001641 0.000000 0.999999
vn -0.001640 0.000000 -0.999999
vn -0.001640 0.000000 -0.999999
vn -0.001640 0.000000 -0.999999
vn -0.001640 0.000000 -0.999999
vn 0.994637 0.065630 0.079932
vn 0.002505 -0.013997 0.999899
vn 0.002505 -0.165717 0.986170
vn 0.994637 -0.078913 0.066853
vn 0.002402 0.985986 0.166809
vn 0.994637 0.078913 -0.066853
vn 0.002402 0.999914 0.012889
vn 0.000003 -0.014014 0.999902
vn 0.000003 0.985988 0.166814
vn -0.002861 0.985993 0.166760
vn -0.002983 -0.014044 0.999897
vn 0.002505 0.165717 -0.986170
vn 0.994637 -0.065631 -0.079932
vn 0.002505 0.013997 -0.999899
vn 0.000003 0.999917 0.012884
vn 0.000003 0.165701 -0.986176
vn -0.002983 0.165670 -0.986177
vn -0.002861 0.999912 0.012939
vn -0.994637 0.065631 0.079933
vn -0.994637 -0.078913 0.066854
vn -0.002983 -0.165670 0.986177
vn -0.994637 0.078913 -0.066854
vn -0.002983 0.014044 -0.999897
vn -0.994637 -0.065631 -0.079933
vn -0.002861 -0.999912 -0.012939
vn 0.000003 -0.999917 -0.012885
vn 0.000003 -0.165701 0.986176
vn -0.002861 -0.985994 -0.166759
vn 0.000003 0.014014 -0.999902
vn 0.000003 -0.985988 -0.166814
vn 0.002402 -0.999914 -0.012890
vn 0.002402 -0.985986 -0.166808
vn 0.999594 -0.027620 0.006942
vn 0.999594 -0.027620 0.006942
vn 0.999594 -0.027620 0.006942
vn 0.999594 -0.027620 0.006942
vn 0.006704 -0.008721 -0.999940
vn 0.006704 -0.008721 -0.999940
vn 0.006704 -0.008721 -0.999940
vn 0.006704 -0.008721 -0.999940
vn -0.999594 0.027620 -0.006942
vn -0.999594 0.027620 -0.006942
vn -0.999594 0.027620 -0.006942
vn -0.999594 0.027620 -0.006942
vn -0.006704 0.008721 0.999940
vn -0.006704 0.008721 0.999940
vn -0.006704 0.008721 0.999940
vn -0.006704 0.008721 0.999940
vn -0.027679 -0.999581 0.008533
vn -0.027679 -0.999581 0.008533
vn -0.027679 -0.999581 0.008533
vn -0.027679 -0.999581 0.008533
vn 0.027679 0.999581 -0.008533
vn 0.027679 0.999581 -0.008533
vn 0.027679 0.999581 -0.008533
vn 0.027679 0.999581 -0.008533
vn -0.998046 0.028256 0.055730
vn -0.998046 0.028256 0.055730
vn -0.998046 0.028256 0.055730
vn -0.998046 0.028256 0.055730
vn -0.055702 0.001808 -0.998446
vn -0.055702 0.001808 -0.998446
vn -0.055702 0.001808 -0.998446
vn -0.055702 0.001808 -0.998446
vn 0.998046 -0.028256 -0.055730
vn 0.998046 -0.028256 -0.055730
vn 0.998046 -0.028256 -0.055730
vn 0.998046 -0.028256 -0.055730
vn 0.055701 -0.001809 0.998446
vn 0.055701 -0.001809 0.998446
vn 0.055701 -0.001809 0.998446
vn 0.055701 -0.001809 0.998446
vn 0.028311 0.999599 0.000231
vn 0.028311 0.999599 0.000231
vn 0.028311 0.999599 0.000231
vn 0.028311 0.999599 0.000231
vn -0.028311 -0.999599 -0.000231
vn -0.028311 -0.999599 -0.000231
vn -0.028311 -0.999599 -0.000231
vn -0.028311 -0.999599 -0.000231
vn -0.998487 -0.029164 -0.046617
vn -0.998487 -0.029164 -0.046617
vn -0.998487 -0.029164 -0.046617
vn -0.998487 -0.029164 -0.046617
vn -0.046784 0.005074 0.998892
vn -0.046784 0.005074 0.998892
vn -0.046784 0.005074 0.998892
vn -0.046783 0.005074 0.998892
vn 0.998487 0.029164 0.046617
vn 0.998487 0.029164 0.046617
vn 0.998487 0.029164 0.046617
vn 0.998487 0.029164 0.046617
vn 0.046784 -0.005074 -0.998892
vn 0.046784 -0.005074 -0.998892
vn 0.046784 -0.005074 -0.998892
vn 0.046784 -0.005074 -0.998892
vn 0.028894 -0.999562 0.006431
vn 0.028894 -0.999562 0.006431
vn 0.028894 -0.999562 0.006431
vn 0.028894 -0.999562 0.006431
vn -0.028894 0.999562 -0.006431
vn -0.028894 0.999562 -0.006431
vn -0.028894 0.999562 -0.006431
vn -0.028894 0.999562 -0.006431
vn 0.994637 -0.073693 0.072567
vn 0.002505 -0.997092 0.076170
vn 0.002505 -0.997092 -0.076170
vn 0.994637 -0.073693 -0.072567
vn 0.002402 -0.077274 0.997007
vn 0.994637 0.073693 0.072567
vn 0.002402 0.077274 0.997007
vn 0.000003 -0.997096 0.076153
vn 0.000003 -0.077279 0.997010
vn -0.002861 -0.077225 0.997010
vn -0.002983 -0.997094 0.076123
vn 0.002505 0.997092 0.076170
vn 0.994637 0.073693 -0.072567
vn 0.002505 0.997092 -0.076170
vn 0.000003 0.077279 0.997010
vn 0.000003 0.997096 0.076153
vn -0.002983 0.997094 0.076123
vn -0.002861 0.077225 0.997010
vn -0.994637 -0.073694 0.072568
vn -0.994637 -0.073694 -0.072568
vn -0.002983 -0.997094 -0.076123
vn -0.994637 0.073694 0.072568
vn -0.002983 0.997094 -0.076123
vn -0.994637 0.073694 -0.072568
vn -0.002861 -0.077224 -0.997010
vn 0.000003 -0.077279 -0.997010
vn 0.000003 -0.997096 -0.076153
vn -0.002861 0.077224 -0.997010
vn 0.000003 0.997096 -0.076153
vn 0.000003 0.077279 -0.997010
vn 0.002402 -0.077274 -0.997007
vn 0.002402 0.077274 -0.997007
vn -0.998487 -0.029162 -0.046617
vn -0.998487 -0.029162 -0.046617
vn -0.998487 -0.029162 -0.046617
vn -0.998487 -0.029162 -0.046617
vn -0.046784 0.005074 0.998892
vn -0.046784 0.005074 0.998892
vn -0.046784 0.005074 0.998892
vn -0.046784 0.005074 0.998892
vn 0.998487 0.029166 0.046617
vn 0.998487 0.029166 0.046617
vn 0.998487 0.029166 0.046617
vn 0.998487 0.029166 0.046617
vn 0.046784 -0.005074 -0.998892
vn 0.046784 -0.005074 -0.998892
vn 0.046784 -0.005074 -0.998892
vn 0.046784 -0.005074 -0.998892
vn 0.028894 -0.999562 0.006431
vn 0.028894 -0.999562 0.006431
vn 0.028894 -0.999562 0.006431
vn 0.028894 -0.999562 0.006431
vn -0.028894 0.999562 -0.006431
vn -0.028894 0.999562 -0.006431
vn -0.028894 0.999562 -0.006431
vn -0.028894 0.999562 -0.006431
vn -0.999999 0.000000 0.001641
vn -0.999999 0.000000 0.001641
vn -0.999999 0.000000 0.001641
vn -0.999999 0.000000 0.001641
vn 0.000000 1.000000 0.000000
vn 0.000000 1.000000 0.000000
vn 0.000000 1.000000 0.000000
vn 0.000000 1.000000 0.000000
vn 0.999999 0.000000 -0.001641
vn 0.999999 0.000000 -0.001641
vn 0.999999 0.000000 -0.001641
vn 0.999999 0.000000 -0.001641
vn 0.000000 -1.000000 0.000000
vn 0.000000 -1.000000 0.000000
vn 0.000000 -1.000000 0.000000
vn 0.000000 -1.000000 0.000000
vn 0.001641 0.000000 0.999999
vn 0.001641 0.000000 0.999999
vn 0.001641 0.000000 0.999999
vn 0.001641 0.000000 0.999999
vn -0.001640 0.000000 -0.999999
vn -0.001640 0.000000 -0.999999
vn -0.001640 0.000000 -0.999999
vn -0.001640 0.000000 -0.999999
vn -0.998487 -0.029164 -0.046617
vn -0.998487 -0.029164 -0.046617
vn -0.998487 -0.029164 -0.046617
vn -0.998487 -0.029164 -0.046617
vn -0.046784 0.005074 0.998892
vn -0.046784 0.005074 0.998892
vn -0.046784 0.005074 0.998892
vn -0.046784 0.005074 0.998892
vn 0.998487 0.029164 0.046617
vn 0.998487 0.029164 0.046617
vn 0.998487 0.029164 0.046617
vn 0.998487 0.029164 0.046617
vn 0.046784 -0.005074 -0.998892
vn 0.046784 -0.005074 -0.998892
vn 0.046784 -0.005074 -0.998892
vn 0.046784 -0.005074 -0.998892
vn 0.028894 -0.999562 0.006431
vn 0.028894 -0.999562 0.006431
vn 0.028894 -0.999562 0.006431
vn 0.028894 -0.999562 0.006431
vn -0.028894 0.999562 -0.006431
vn -0.028894 0.999562 -0.006431
vn -0.028894 0.999562 -0.006431
vn -0.028894 0.999562 -0.006431
vn 0.999594 -0.027622 0.006942
vn 0.999594 -0.027622 0.006942
vn 0.999594 -0.027622 0.006942
vn 0.999594 -0.027622 0.006942
vn 0.006704 -0.008721 -0.999940
vn 0.006704 -0.008721 -0.999940
vn 0.006704 -0.008721 -0.999940
vn 0.006704 -0.008721 -0.999940
vn -0.999594 0.027621 -0.006942
vn -0.999594 0.027621 -0.006942
vn -0.999594 0.027621 -0.006942
vn -0.999594 0.027621 -0.006942
vn -0.006704 0.008721 0.999940
vn -0.006704 0.008721 0.999940
vn -0.006704 0.008721 0.999940
vn -0.006704 0.008721 0.999940
vn -0.027679 -0.999581 0.008533
vn -0.027679 -0.999581 0.008533
vn -0.027679 -0.999581 0.008533
vn -0.027679 -0.999581 0.008533
vn 0.027679 0.999581 -0.008533
vn 0.027679 0.999581 -0.008533
vn 0.027679 0.999581 -0.008533
vn 0.027679 0.999581 -0.008533
vn 0.994637 -0.073693 0.072567
vn 0.002505 -0.997092 0.076170
vn 0.002505 -0.997092 -0.076170
vn 0.994637 -0.073693 -0.072567
vn 0.002402 -0.077274 0.997007
vn 0.994637 0.073693 0.072567
vn 0.002402 0.077274 0.997007
vn 0.000003 -0.997096 0.076153
vn 0.000003 -0.077279 0.997010
vn -0.002861 -0.077225 0.997010
vn -0.002983 -0.997094 0.076123
vn 0.002505 0.997092 0.076170
vn 0.994637 0.073693 -0.072567
vn 0.002505 0.997092 -0.076170
vn 0.000003 0.077279 0.997010
vn 0.000003 0.997096 0.076153
vn -0.002983 0.997094 0.076123
vn -0.002861 0.077225 0.997010
vn -0.994637 -0.073694 0.072568
vn -0.994637 -0.073694 -0.072568
vn -0.002983 -0.997094 -0.076123
vn -0.994637 0.073694 0.072568
vn -0.002983 0.997094 -0.076123
vn -0.994637 0.073694 -0.072568
vn -0.002861 -0.077224 -0.997010
vn 0.000003 -0.077279 -0.997010
vn 0.000003 -0.997096 -0.076153
vn -0.002861 0.077224 -0.997010
vn 0.000003 0.997096 -0.076153
vn 0.000003 0.077279 -0.997010
vn 0.002402 -0.077274 -0.997007
vn 0.002402 0.077274 -0.997007
vn -0.998487 -0.029164 -0.046617
vn -0.998487 -0.029164 -0.046617
vn -0.998487 -0.029164 -0.046617
vn -0.998487 -0.029164 -0.046617
vn -0.046784 0.005074 0.998892
vn -0.046783 0.005074 0.998892
vn -0.046784 0.005074 0.998892
vn -0.046784 0.005074 0.998892
vn 0.998487 0.029164 0.046617
vn 0.998487 0.029164 0.046617
vn 0.998487 0.029164 0.046617
vn 0.998487 0.029164 0.046617
vn 0.046784 -0.005074 -0.998892
vn 0.046784 -0.005074 -0.998892
vn 0.046784 -0.005074 -0.998892
vn 0.046784 -0.005074 -0.998892
vn 0.028894 -0.999562 0.006431
vn 0.028894 -0.999562 0.006431
vn 0.028894 -0.999562 0.006431
vn 0.028894 -0.999562 0.006431
vn -0.028894 0.999562 -0.006431
vn -0.028894 0.999562 -0.006431
vn -0.028894 0.999562 -0.006431
vn -0.028894 0.999562 -0.006431
vn 0.994637 0.065631 0.079932
vn 0.002505 -0.013997 0.999899
vn 0.002505 -0.165717 0.986170
vn 0.994637 -0.078913 0.066853
vn 0.002402 0.985986 0.166809
vn 0.994637 0.078913 -0.066853
vn 0.002402 0.999914 0.012889
vn 0.000003 -0.014014 0.999902
vn 0.000003 0.985988 0.166814
vn -0.002861 0.985993 0.166760
vn -0.002983 -0.014044 0.999897
vn 0.002505 0.165717 -0.986170
vn 0.994637 -0.065631 -0.079932
vn 0.002505 0.013997 -0.999899
vn 0.000003 0.999917 0.012884
vn 0.000003 0.165701 -0.986176
vn -0.002983 0.165670 -0.986177
vn -0.002861 0.999912 0.012939
vn -0.994637 0.065631 0.079933
vn -0.994637 -0.078913 0.066854
vn -0.002983 -0.165670 0.986177
vn -0.994637 0.078913 -0.066854
vn -0.002983 0.014044 -0.999897
vn -0.994637 -0.065631 -0.079933
vn -0.002861 -0.999912 -0.012939
vn 0.000003 -0.999917 -0.012885
vn 0.000003 -0.165701 0.986176
vn -0.002861 -0.985994 -0.166759
vn 0.000003 0.014014 -0.999902
vn 0.000003 -0.985988 -0.166814
vn 0.002402 -0.999914 -0.012890
vn 0.002402 -0.985986 -0.166808
vn 0.932508 0.353785 0.072567
vn 0.423874 -0.902513 0.076170
vn 0.423874 -0.902513 -0.076170
vn 0.932508 0.353785 -0.072567
vn 0.034851 -0.069011 0.997007
vn 0.870188 0.487347 0.072567
vn -0.030497 0.071043 0.997007
vn 0.421608 -0.903575 0.076153
vn 0.032679 -0.070030 0.997010
vn 0.030060 -0.071192 0.997010
vn 0.418901 -0.904835 0.076123
vn -0.419334 0.904631 0.076169
vn 0.870188 0.487348 -0.072567
vn -0.419334 0.904631 -0.076169
vn -0.032674 0.070032 0.997010
vn -0.421603 0.903577 0.076153
vn -0.424308 0.902312 0.076123
vn -0.035246 0.068772 0.997010
vn -0.870188 -0.487347 0.072567
vn -0.870188 -0.487347 -0.072567
vn 0.418902 -0.904835 -0.076123
vn -0.932508 -0.353785 0.072567
vn -0.424308 0.902312 -0.076123
vn -0.932508 -0.353785 -0.072567
vn 0.030060 -0.071191 -0.997010
vn 0.032679 -0.070029 -0.997010
vn 0.421608 -0.903575 -0.076153
vn -0.035246 0.068771 -0.997010
vn -0.421603 0.903577 -0.076153
vn -0.032674 0.070032 -0.997010
vn 0.034851 -0.069010 -0.997007
vn -0.030497 0.071042 -0.997007
vn 0.932508 0.353785 0.072567
vn 0.423874 -0.902513 0.076170
vn 0.423874 -0.902513 -0.076170
vn 0.932508 0.353785 -0.072567
vn 0.034851 -0.069011 0.997007
vn 0.870188 0.487348 0.072567
vn -0.030497 0.071043 0.997007
vn 0.421608 -0.903575 0.076153
vn 0.032679 -0.070030 0.997010
vn 0.030060 -0.071192 0.997010
vn 0.418901 -0.904835 0.076123
vn -0.419334 0.904631 0.076169
vn 0.870188 0.487348 -0.072567
vn -0.419334 0.904631 -0.076169
vn -0.032674 0.070032 0.997010
vn -0.421603 0.903577 0.076153
vn -0.424308 0.902312 0.076124
vn -0.035246 0.068772 0.997010
vn -0.870188 -0.487347 0.072566
vn -0.870188 -0.487347 -0.072566
vn 0.418902 -0.904835 -0.076123
vn -0.932508 -0.353785 0.072566
vn -0.424309 0.902312 -0.076124
vn -0.932508 -0.353785 -0.072566
vn 0.030060 -0.071191 -0.997010
vn 0.032679 -0.070029 -0.997010
vn 0.421608 -0.903575 -0.076153
vn -0.035246 0.068771 -0.997010
vn -0.421604 0.903577 -0.076153
vn -0.032674 0.070032 -0.997010
vn 0.034851 -0.069010 -0.997007
vn -0.030497 0.071042 -0.997007
vn -0.857544 0.509267 0.072566
vn 0.442149 0.893702 0.076170
vn 0.442149 0.893702 -0.076170
vn -0.857544 0.509267 -0.072566
vn 0.032290 0.070246 0.997007
vn -0.923232 0.377329 0.072567
vn -0.036591 -0.068104 0.997007
vn 0.444391 0.892590 0.076153
vn 0.034440 0.069181 0.997010
vn 0.036979 0.067856 0.997010
vn 0.447063 0.891258 0.076123
vn -0.446634 -0.891469 0.076170
vn -0.923232 0.377329 -0.072567
vn -0.446634 -0.891469 -0.076170
vn -0.034445 -0.069178 0.997010
vn -0.444396 -0.892588 0.076153
vn -0.441722 -0.893917 0.076123
vn -0.031857 -0.070406 0.997010
vn 0.923232 -0.377328 0.072567
vn 0.923232 -0.377328 -0.072567
vn 0.447063 0.891258 -0.076123
vn 0.857544 -0.509266 0.072567
vn -0.441722 -0.893917 -0.076123
vn 0.857544 -0.509266 -0.072567
vn 0.036979 0.067855 -0.997010
vn 0.034440 0.069180 -0.997010
vn 0.444391 0.892590 -0.076153
vn -0.031857 -0.070406 -0.997010
vn -0.444396 -0.892588 -0.076153
vn -0.034444 -0.069178 -0.997010
vn 0.032289 0.070245 -0.997007
vn -0.036590 -0.068104 -0.997007
vn -0.857544 0.509267 0.072566
vn 0.442149 0.893702 0.076170
vn 0.442149 0.893701 -0.076170
vn -0.857544 0.509267 -0.072566
vn 0.032289 0.070246 0.997007
vn -0.923232 0.377329 0.072567
vn -0.036591 -0.068104 0.997007
vn 0.444391 0.892590 0.076153
vn 0.034440 0.069181 0.997010
vn 0.036979 0.067856 0.997010
vn 0.447063 0.891258 0.076123
vn -0.446634 -0.891469 0.076170
vn -0.923232 0.377329 -0.072567
vn -0.446634 -0.891469 -0.076169
vn -0.034445 -0.069179 0.997010
vn -0.444396 -0.892588 0.076153
vn -0.441722 -0.893917 0.076123
vn -0.031857 -0.070406 0.997010
vn 0.923232 -0.377328 0.072567
vn 0.923232 -0.377328 -0.072567
vn 0.447063 0.891257 -0.076123
vn 0.857544 -0.509266 0.072567
vn -0.441722 -0.893917 -0.076123
vn 0.857544 -0.509266 -0.072567
vn 0.036980 0.067855 -0.997010
vn 0.034440 0.069180 -0.997010
vn 0.444391 0.892590 -0.076153
vn -0.031857 -0.070406 -0.997010
vn -0.444396 -0.892588 -0.076153
vn -0.034445 -0.069178 -0.997010
vn 0.032290 0.070245 -0.997007
vn -0.036590 -0.068104 -0.997007
vn 0.999594 -0.027621 0.006942
vn 0.999594 -0.027621 0.006942
vn 0.999594 -0.027621 0.006942
vn 0.999594 -0.027621 0.006942
vn 0.006704 -0.008721 -0.999940
vn 0.006704 -0.008721 -0.999940
vn 0.006704 -0.008721 -0.999940
vn 0.006704 -0.008721 -0.999940
vn -0.999594 0.027623 -0.006942
vn -0.999594 0.027623 -0.006942
vn -0.999594 0.027623 -0.006942
vn -0.999594 0.027623 -0.006942
vn -0.006704 0.008721 0.999940
vn -0.006704 0.008721 0.999940
vn -0.006704 0.008721 0.999940
vn -0.006704 0.008721 0.999940
vn -0.027679 -0.999581 0.008533
vn -0.027679 -0.999581 0.008533
vn -0.027679 -0.999581 0.008533
vn -0.027679 -0.999581 0.008533
vn 0.027679 0.999581 -0.008533
vn 0.027679 0.999581 -0.008533
vn 0.027679 0.999581 -0.008533
vn 0.027679 0.999581 -0.008533
vn -0.999460 0.028255 0.016769
vn -0.999460 0.028255 0.016769
vn -0.999460 0.028255 0.016769
vn -0.999460 0.028255 0.016769
vn -0.016724 0.001808 -0.999859
vn -0.016724 0.001808 -0.999858
vn -0.016724 0.001808 -0.999859
vn -0.016724 0.001808 -0.999859
vn 0.999460 -0.028255 -0.016769
vn 0.999460 -0.028255 -0.016769
vn 0.999460 -0.028255 -0.016769
vn 0.999460 -0.028255 -0.016769
vn 0.016724 -0.001808 0.999859
vn 0.016724 -0.001808 0.999859
vn 0.016724 -0.001808 0.999859
vn 0.016724 -0.001808 0.999859
vn 0.028280 0.999599 0.001335
vn 0.028280 0.999599 0.001335
vn 0.028280 0.999599 0.001335
vn 0.028280 0.999599 0.001335
vn -0.028280 -0.999599 -0.001335
vn -0.028280 -0.999599 -0.001335
vn -0.028280 -0.999599 -0.001335
vn -0.028280 -0.999599 -0.001335
vn 0.994637 -0.073693 0.072567
vn 0.002505 -0.997092 0.076170
vn 0.002505 -0.997092 -0.076170
vn 0.994637 -0.073693 -0.072567
vn 0.002402 -0.077274 0.997007
vn 0.994637 0.073693 0.072567
vn 0.002402 0.077274 0.997007
vn 0.000003 -0.997096 0.076154
vn 0.000003 -0.077279 0.997010
vn -0.002861 -0.077225 0.997010
vn -0.002983 -0.997094 0.076123
vn 0.002505 0.997092 0.076170
vn 0.994637 0.073693 -0.072567
vn 0.002505 0.997092 -0.076170
vn 0.000003 0.077279 0.997010
vn 0.000003 0.997096 0.076153
vn -0.002983 0.997094 0.076123
vn -0.002861 0.077225 0.997010
vn -0.994637 -0.073694 0.072568
vn -0.994637 -0.073694 -0.072568
vn -0.002983 -0.997094 -0.076123
vn -0.994637 0.073694 0.072568
vn -0.002983 0.997094 -0.076123
vn -0.994637 0.073694 -0.072568
vn -0.002861 -0.077224 -0.997010
vn 0.000003 -0.077279 -0.997010
vn 0.000003 -0.997096 -0.076154
vn -0.002861 0.077224 -0.997010
vn 0.000003 0.997096 -0.076153
vn 0.000003 0.077279 -0.997010
vn 0.002402 -0.077274 -0.997007
vn 0.002402 0.077274 -0.997007
vn -0.999999 0.000000 0.001639
vn -0.999999 0.000000 0.001639
vn -0.999999 0.000000 0.001639
vn -0.999999 0.000000 0.001639
vn 0.000000 1.000000 0.000000
vn 0.000000 1.000000 0.000000
vn 0.000000 1.000000 0.000000
vn 0.000000 1.000000 0.000000
vn 0.999999 0.000000 -0.001640
vn 0.999999 0.000000 -0.001640
vn 0.999999 0.000000 -0.001640
vn 0.999999 0.000000 -0.001640
vn 0.000000 -1.000000 0.000000
vn 0.000000 -1.000000 0.000000
vn 0.000000 -1.000000 0.000000
vn 0.000000 -1.000000 0.000000
vn 0.001640 0.000000 0.999999
vn 0.001640 0.000000 0.999999
vn 0.001640 0.000000 0.999999
vn 0.001640 0.000000 0.999999
vn -0.001640 0.000000 -0.999999
vn -0.001640 0.000000 -0.999999
vn -0.001640 0.000000 -0.999999
vn -0.001640 0.000000 -0.999999
vn 0.999594 -0.027624 0.006942
vn 0.999594 -0.027624 0.006942
vn 0.999594 -0.027624 0.006942
vn 0.999594 -0.027624 0.006942
vn 0.006704 -0.008721 -0.999940
vn 0.006704 -0.008721 -0.999940
vn 0.006704 -0.008721 -0.999940
vn 0.006704 -0.008721 -0.999940
vn -0.999594 0.027622 -0.006942
vn -0.999594 0.027622 -0.006942
vn -0.999594 0.027622 -0.006942
vn -0.999594 0.027622 -0.006942
vn -0.006704 0.008721 0.999940
vn -0.006704 0.008721 0.999940
vn -0.006704 0.008721 0.999940
vn -0.006704 0.008721 0.999940
vn -0.027679 -0.999581 0.008533
vn -0.027679 -0.999581 0.008533
vn -0.027679 -0.999581 0.008533
vn -0.027679 -0.999581 0.008533
vn 0.027679 0.999581 -0.008533
vn 0.027679 0.999581 -0.008533
vn 0.027679 0.999581 -0.008533
vn 0.027679 0.999581 -0.008533
vn -0.999409 0.028256 0.019574
vn -0.999409 0.028256 0.019574
vn -0.999409 0.028256 0.019574
vn -0.999409 0.028256 0.019574
vn -0.019531 0.001808 -0.999808
vn -0.019531 0.001808 -0.999808
vn -0.019531 0.001808 -0.999808
vn -0.019531 0.001808 -0.999808
vn 0.999409 -0.028256 -0.019574
vn 0.999409 -0.028256 -0.019574
vn 0.999409 -0.028256 -0.019574
vn 0.999409 -0.028256 -0.019574
vn 0.019531 -0.001809 0.999808
vn 0.019531 -0.001809 0.999808
vn 0.019531 -0.001809 0.999808
vn 0.019531 -0.001809 0.999808
vn 0.028284 0.999599 0.001255
vn 0.028284 0.999599 0.001255
vn 0.028284 0.999599 0.001255
vn 0.028284 0.999599 0.001255
vn -0.028284 -0.999599 -0.001255
vn -0.028284 -0.999599 -0.001255
vn -0.028284 -0.999599 -0.001255
vn -0.028284 -0.999599 -0.001255
vn 0.994637 0.065630 0.079932
vn 0.002505 -0.013997 0.999899
vn 0.002505 -0.165717 0.986170
vn 0.994637 -0.078913 0.066853
vn 0.002402 0.985986 0.166809
vn 0.994637 0.078913 -0.066853
vn 0.002402 0.999914 0.012889
vn 0.000003 -0.014014 0.999902
vn 0.000003 0.985988 0.166814
vn -0.002861 0.985993 0.166760
vn -0.002983 -0.014044 0.999897
vn 0.002505 0.165717 -0.986170
vn 0.994637 -0.065631 -0.079932
vn 0.002505 0.013997 -0.999899
vn 0.000003 0.999917 0.012884
vn 0.000003 0.165701 -0.986176
vn -0.002983 0.165670 -0.986177
vn -0.002861 0.999912 0.012939
vn -0.994637 0.065631 0.079933
vn -0.994637 -0.078913 0.066854
vn -0.002983 -0.165670 0.986177
vn -0.994637 0.078913 -0.066854
vn -0.002983 0.014044 -0.999897
vn -0.994637 -0.065631 -0.079933
vn -0.002861 -0.999912 -0.012939
vn 0.000003 -0.999917 -0.012885
vn 0.000003 -0.165701 0.986176
vn -0.002861 -0.985994 -0.166759
vn 0.000003 0.014014 -0.999902
vn 0.000003 -0.985988 -0.166814
vn 0.002402 -0.999914 -0.012890
vn 0.002402 -0.985986 -0.166808
vn -0.999999 0.000000 0.001640
vn -0.999999 0.000000 0.001640
vn -0.999999 0.000000 0.001640
vn -0.999999 0.000000 0.001640
vn 0.000000 1.000000 -0.000000
vn 0.000000 1.000000 -0.000000
vn 0.000000 1.000000 -0.000000
vn 0.000000 1.000000 -0.000000
vn 0.999999 0.000000 -0.001641
vn 0.999999 0.000000 -0.001641
vn 0.999999 0.000000 -0.001641
vn 0.999999 0.000000 -0.001641
vn 0.000000 -1.000000 0.000000
vn 0.000000 -1.000000 0.000000
vn 0.000000 -1.000000 0.000000
vn 0.000000 -1.000000 0.000000
vn 0.001641 0.000000 0.999999
vn 0.001641 0.000000 0.999999
vn 0.001641 0.000000 0.999999
vn 0.001641 0.000000 0.999999
vn -0.001640 0.000000 -0.999999
vn -0.001640 0.000000 -0.999999
vn -0.001640 0.000000 -0.999999
vn -0.001640 0.000000 -0.999999
vn 0.994637 0.065631 0.079932
vn 0.002505 -0.013997 0.999899
vn 0.002505 -0.165717 0.986170
vn 0.994637 -0.078913 0.066853
vn 0.002402 0.985986 0.166809
vn 0.994637 0.078913 -0.066853
vn 0.002402 0.999914 0.012889
vn 0.000003 -0.014014 0.999902
vn 0.000003 0.985988 0.166814
vn -0.002861 0.985993 0.166760
vn -0.002983 -0.014044 0.999897
vn 0.002505 0.165717 -0.986170
vn 0.994637 -0.065631 -0.079932
vn 0.002505 0.013997 -0.999899
vn 0.000003 0.999917 0.012884
vn 0.000003 0.165701 -0.986176
vn -0.002983 0.165670 -0.986177
vn -0.002861 0.999912 0.012939
vn -0.994637 0.065631 0.079933
vn -0.994637 -0.078913 0.066854
vn -0.002983 -0.165670 0.986177
vn -0.994637 0.078913 -0.066854
vn -0.002983 0.014044 -0.999897
vn -0.994637 -0.065631 -0.079933
vn -0.002861 -0.999912 -0.012939
vn 0.000003 -0.999917 -0.012885
vn 0.000003 -0.165701 0.986176
vn -0.002861 -0.985994 -0.166759
vn 0.000003 0.014014 -0.999902
vn 0.000003 -0.985988 -0.166814
vn 0.002402 -0.999914 -0.012890
vn 0.002402 -0.985986 -0.166808
vn 0.999533 0.028254 0.011607
vn 0.999533 0.028254 0.011607
vn 0.999533 0.028254 0.011607
vn 0.999533 0.028254 0.011607
vn -0.011663 0.001808 0.999930
vn -0.011663 0.001808 0.999930
vn -0.011663 0.001808 0.999930
vn -0.011663 0.001808 0.999930
vn -0.999533 -0.028256 -0.011607
vn -0.999533 -0.028256 -0.011607
vn -0.999533 -0.028256 -0.011607
vn -0.999533 -0.028256 -0.011607
vn 0.011663 -0.001809 -0.999930
vn 0.011663 -0.001809 -0.999930
vn 0.011663 -0.001809 -0.999930
vn 0.011663 -0.001809 -0.999930
vn -0.028231 0.999599 -0.002137
vn -0.028231 0.999599 -0.002137
vn -0.028231 0.999599 -0.002137
vn -0.028231 0.999599 -0.002137
vn 0.028231 -0.999599 0.002137
vn 0.028231 -0.999599 0.002137
vn 0.028231 -0.999599 0.002137
vn 0.028231 -0.999599 0.002137
vn 0.994637 -0.073693 0.072567
vn 0.002505 -0.997092 0.076170
vn 0.002505 -0.997092 -0.076170
vn 0.994637 -0.073693 -0.072567
vn 0.002402 -0.077274 0.997007
vn 0.994637 0.073693 0.072567
vn 0.002402 0.077274 0.997007
vn 0.000003 -0.997096 0.076154
vn 0.000003 -0.077279 0.997010
vn -0.002861 -0.077225 0.997010
vn -0.002983 -0.997094 0.076123
vn 0.002505 0.997092 0.076170
vn 0.994637 0.073693 -0.072567
vn 0.002505 0.997092 -0.076170
vn 0.000003 0.077279 0.997010
vn 0.000003 0.997096 0.076153
vn -0.002983 0.997094 0.076123
vn -0.002861 0.077225 0.997010
vn -0.994637 -0.073694 0.072568
vn -0.994637 -0.073694 -0.072568
vn -0.002983 -0.997094 -0.076123
vn -0.994637 0.073694 0.072568
vn -0.002983 0.997094 -0.076123
vn -0.994637 0.073694 -0.072568
vn -0.002861 -0.077224 -0.997010
vn 0.000003 -0.077279 -0.997010
vn 0.000003 -0.997096 -0.076154
vn -0.002861 0.077224 -0.997010
vn 0.000003 0.997096 -0.076153
vn 0.000003 0.077279 -0.997010
vn 0.002402 -0.077274 -0.997007
vn 0.002402 0.077274 -0.997007
vn 0.999533 0.028256 0.011607
vn 0.999533 0.028256 0.011607
vn 0.999533 0.028256 0.011607
vn 0.999533 0.028256 0.011607
vn -0.011663 0.001808 0.999930
vn -0.011663 0.001808 0.999930
vn -0.011663 0.001808 0.999930
vn -0.011663 0.001808 0.999930
vn -0.999533 -0.028255 -0.011607
vn -0.999533 -0.028255 -0.011607
vn -0.999533 -0.028255 -0.011607
vn -0.999533 -0.028255 -0.011607
vn 0.011663 -0.001809 -0.999930
vn 0.011663 -0.001809 -0.999930
vn 0.011663 -0.001809 -0.999930
vn 0.011663 -0.001809 -0.999930
vn -0.028231 0.999599 -0.002137
vn -0.028231 0.999599 -0.002137
vn -0.028231 0.999599 -0.002137
vn -0.028231 0.999599 -0.002137
vn 0.028231 -0.999599 0.002137
vn 0.028231 -0.999599 0.002137
vn 0.028231 -0.999599 0.002137
vn 0.028231 -0.999599 0.002137
s off
g polySurface358
usemtl lambert6SG
f 1/1/1 2/2/2 4/3/3 3/4/4
f 3/5/5 4/6/6 6/7/7 5/8/8
f 5/8/9 6/7/10 8/9/11 7/10/12
f 7/10/13 8/9/14 2/11/15 1/12/16
f 2/2/17 8/9/18 6/7/19 4/3/20
f 7/13/21 1/1/22 3/4/23 5/14/24
f 9/15/25 10/16/26 12/17/27 11/18/28
f 11/19/29 12/20/30 14/21/31 13/22/32
f 13/22/33 14/21/34 16/23/35 15/24/36
f 15/24/37 16/23/38 10/25/39 9/26/40
f 10/16/41 16/23/42 14/21/43 12/17/44
f 15/27/45 9/15/46 11/18/47 13/28/48
f 17/29/49 18/30/50 20/31/51 19/32/52
f 19/33/53 20/34/54 22/35/55 21/36/56
f 21/36/57 22/35/58 24/37/59 23/38/60
f 23/38/61 24/37/62 18/39/63 17/40/64
f 18/30/65 24/37/66 22/35/67 20/31/68
f 23/41/69 17/29/70 19/32/71 21/42/72
f 25/43/73 26/44/74 28/45/75 27/46/76
f 27/47/77 28/48/78 30/49/79 29/50/80
f 29/50/81 30/49/82 32/51/83 31/52/84
f 31/52/85 32/51/86 26/53/87 25/54/88
f 26/44/89 32/51/90 30/49/91 28/45/92
f 31/55/93 25/43/94 27/46/95 29/56/96
f 33/57/97 34/58/98 36/59/99 35/60/100
f 35/61/101 36/62/102 38/63/103 37/64/104
f 37/64/105 38/63/106 40/65/107 39/66/108
f 39/66/109 40/65/110 34/67/111 33/68/112
f 34/58/113 40/65/114 38/63/115 36/59/116
f 39/69/117 33/57/118 35/60/119 37/70/120
f 41/71/121 42/72/122 44/73/123 43/74/124
f 43/75/125 44/76/126 46/77/127 45/78/128
f 45/78/129 46/77/130 48/79/131 47/80/132
f 47/80/133 48/79/134 42/81/135 41/82/136
f 42/72/137 48/79/138 46/77/139 44/73/140
f 47/83/141 41/71/142 43/74/143 45/84/144
f 49/85/145 50/86/146 52/87/147 51/88/148
f 51/89/149 52/90/150 54/91/151 53/92/152
f 53/92/153 54/91/154 56/93/155 55/94/156
f 55/94/157 56/93/158 50/95/159 49/96/160
f 50/86/161 56/93/162 54/91/163 52/87/164
f 55/97/165 49/85/166 51/88/167 53/98/168
s 1
f 57/99/169 59/100/170 75/101/171 77/102/172
f 58/103/173 57/104/169 62/105/174 61/106/175
f 88/107/176 81/108/177 64/109/178 63/110/179
f 60/111/180 62/112/174 78/113/181 80/114/182
f 82/115/183 83/116/184 68/117/185 67/118/186
f 63/119/179 65/120/187 70/121/188 69/122/189
f 65/123/187 64/109/178 67/118/186 66/124/190
f 66/125/190 68/126/185 74/127/191 73/128/192
f 69/129/189 71/130/193 86/131/194 87/132/195
f 71/130/193 70/121/188 73/128/192 72/133/196
f 72/133/196 74/134/191 84/135/197 85/136/198
f 77/102/172 76/137/199 79/138/200 78/113/181
f 81/108/177 82/115/183 67/118/186 64/109/178
f 65/120/187 66/125/190 73/128/192 70/121/188
f 71/130/193 72/133/196 85/136/198 86/131/194
f 77/102/172 78/113/181 62/112/174 57/99/169
f 83/116/184 84/135/197 74/134/191 68/117/185
f 87/139/195 88/107/176 63/110/179 69/140/189
f 57/104/169 58/103/173 59/141/170
f 60/142/180 61/106/175 62/105/174
f 63/110/179 64/109/178 65/123/187
f 66/124/190 67/118/186 68/117/185
f 69/122/189 70/121/188 71/130/193
f 72/133/196 73/128/192 74/127/191
f 75/143/171 76/137/199 77/102/172
f 78/113/181 79/138/200 80/144/182
f 58/103/173 61/106/175 82/115/183 81/108/177
f 61/106/175 60/142/180 83/116/184 82/115/183
f 60/142/180 80/144/182 84/135/197 83/116/184
f 85/136/198 84/135/197 80/144/182 79/138/200
f 86/131/194 85/136/198 79/138/200 76/137/199
f 87/132/195 86/131/194 76/137/199 75/143/171
f 75/145/171 59/141/170 88/107/176 87/139/195
f 59/141/170 58/103/173 81/108/177 88/107/176
s off
f 89/146/201 90/147/202 92/148/203 91/149/204
f 91/149/205 92/150/206 94/151/207 93/152/208
f 93/153/209 94/154/210 96/155/211 95/156/212
f 95/157/213 96/158/214 90/159/215 89/146/216
f 90/147/217 96/155/218 94/154/219 92/148/220
f 95/157/221 89/146/222 91/149/223 93/152/224
f 97/160/225 98/161/226 100/162/227 99/163/228
f 99/163/229 100/164/230 102/165/231 101/166/232
f 101/167/233 102/168/234 104/169/235 103/170/236
f 103/171/237 104/172/238 98/173/239 97/160/240
f 98/161/241 104/169/242 102/168/243 100/162/244
f 103/171/245 97/160/246 99/163/247 101/166/248
f 105/174/249 106/175/250 108/176/251 107/177/252
f 107/177/253 108/178/254 110/179/255 109/180/256
f 109/181/257 110/182/258 112/183/259 111/184/260
f 111/185/261 112/186/262 106/187/263 105/174/264
f 106/175/265 112/183/266 110/182/267 108/176/268
f 111/185/269 105/174/270 107/177/271 109/180/272
s 4
f 113/188/273 115/189/274 131/190/275 133/191/276
f 114/192/277 113/193/273 118/194/278 117/195/279
f 144/196/280 137/197/281 120/198/282 119/199/283
f 116/200/284 118/201/278 134/202/285 136/203/286
f 138/204/287 139/205/288 124/206/289 123/207/290
f 119/208/283 121/209/291 126/210/292 125/211/293
f 121/212/291 120/198/282 123/207/290 122/213/294
f 122/214/294 124/215/289 130/216/295 129/217/296
f 125/218/293 127/219/297 142/220/298 143/221/299
f 127/219/297 126/210/292 129/217/296 128/222/300
f 128/222/300 130/223/295 140/224/301 141/225/302
f 133/191/276 132/226/303 135/227/304 134/202/285
f 137/197/281 138/204/287 123/207/290 120/198/282
f 121/209/291 122/214/294 129/217/296 126/210/292
f 127/219/297 128/222/300 141/225/302 142/220/298
f 133/191/276 134/202/285 118/201/278 113/188/273
f 139/205/288 140/224/301 130/223/295 124/206/289
f 143/228/299 144/196/280 119/199/283 125/229/293
f 113/193/273 114/192/277 115/230/274
f 116/231/284 117/195/279 118/194/278
f 119/199/283 120/198/282 121/212/291
f 122/213/294 123/207/290 124/206/289
f 125/211/293 126/210/292 127/219/297
f 128/222/300 129/217/296 130/216/295
f 131/232/275 132/226/303 133/191/276
f 134/202/285 135/227/304 136/233/286
f 114/192/277 117/195/279 138/204/287 137/197/281
f 117/195/279 116/231/284 139/205/288 138/204/287
f 116/231/284 136/233/286 140/224/301 139/205/288
f 141/225/302 140/224/301 136/233/286 135/227/304
f 142/220/298 141/225/302 135/227/304 132/226/303
f 143/221/299 142/220/298 132/226/303 131/232/275
f 131/234/275 115/230/274 144/196/280 143/228/299
f 115/230/274 114/192/277 137/197/281 144/196/280
s off
f 145/235/305 146/236/306 148/237/307 147/238/308
f 147/238/309 148/239/310 150/240/311 149/241/312
f 149/242/313 150/243/314 152/244/315 151/245/316
f 151/246/317 152/247/318 146/248/319 145/235/320
f 146/236/321 152/244/322 150/243/323 148/237/324
f 151/246/325 145/235/326 147/238/327 149/241/328
f 153/249/329 154/250/330 156/251/331 155/252/332
f 155/253/333 156/254/334 158/255/335 157/256/336
f 157/256/337 158/255/338 160/257/339 159/258/340
f 159/258/341 160/257/342 154/259/343 153/260/344
f 154/250/345 160/257/346 158/255/347 156/251/348
f 159/261/349 153/249/350 155/252/351 157/262/352
f 161/263/353 162/264/354 164/265/355 163/266/356
f 163/266/357 164/267/358 166/268/359 165/269/360
f 165/270/361 166/271/362 168/272/363 167/273/364
f 167/274/365 168/275/366 162/276/367 161/263/368
f 162/264/369 168/272/370 166/271/371 164/265/372
f 167/274/373 161/263/374 163/266/375 165/269/376
f 169/277/377 170/278/378 172/279/379 171/280/380
f 171/280/381 172/281/382 174/282/383 173/283/384
f 173/284/385 174/285/386 176/286/387 175/287/388
f 175/288/389 176/289/390 170/290/391 169/277/392
f 170/278/393 176/286/394 174/285/395 172/279/396
f 175/288/397 169/277/398 171/280/399 173/283/400
s 7
f 177/291/401 179/292/402 195/293/403 197/294/404
f 178/295/405 177/296/401 182/297/406 181/298/407
f 208/299/408 201/300/409 184/301/410 183/302/411
f 180/303/412 182/304/406 198/305/413 200/306/414
f 202/307/415 203/308/416 188/309/417 187/310/418
f 183/311/411 185/312/419 190/313/420 189/314/421
f 185/315/419 184/301/410 187/310/418 186/316/422
f 186/317/422 188/318/417 194/319/423 193/320/424
f 189/321/421 191/322/425 206/323/426 207/324/427
f 191/322/425 190/313/420 193/320/424 192/325/428
f 192/325/428 194/326/423 204/327/429 205/328/430
f 197/294/404 196/329/431 199/330/432 198/305/413
f 201/300/409 202/307/415 187/310/418 184/301/410
f 185/312/419 186/317/422 193/320/424 190/313/420
f 191/322/425 192/325/428 205/328/430 206/323/426
f 197/294/404 198/305/413 182/304/406 177/291/401
f 203/308/416 204/327/429 194/326/423 188/309/417
f 207/331/427 208/299/408 183/302/411 189/332/421
f 177/296/401 178/295/405 179/333/402
f 180/334/412 181/298/407 182/297/406
f 183/302/411 184/301/410 185/315/419
f 186/316/422 187/310/418 188/309/417
f 189/314/421 190/313/420 191/322/425
f 192/325/428 193/320/424 194/319/423
f 195/335/403 196/329/431 197/294/404
f 198/305/413 199/330/432 200/336/414
f 178/295/405 181/298/407 202/307/415 201/300/409
f 181/298/407 180/334/412 203/308/416 202/307/415
f 180/334/412 200/336/414 204/327/429 203/308/416
f 205/328/430 204/327/429 200/336/414 199/330/432
f 206/323/426 205/328/430 199/330/432 196/329/431
f 207/324/427 206/323/426 196/329/431 195/335/403
f 195/337/403 179/333/402 208/299/408 207/331/427
f 179/333/402 178/295/405 201/300/409 208/299/408
s off
f 209/338/433 210/339/434 212/340/435 211/341/436
f 211/341/437 212/342/438 214/343/439 213/344/440
f 213/345/441 214/346/442 216/347/443 215/348/444
f 215/349/445 216/350/446 210/351/447 209/338/448
f 210/339/449 216/347/450 214/346/451 212/340/452
f 215/349/453 209/338/454 211/341/455 213/344/456
s 10
f 217/352/457 219/353/458 235/354/459 237/355/460
f 218/356/461 217/357/457 222/358/462 221/359/463
f 248/360/464 241/361/465 224/362/466 223/363/467
f 220/364/468 222/365/462 238/366/469 240/367/470
f 242/368/471 243/369/472 228/370/473 227/371/474
f 223/372/467 225/373/475 230/374/476 229/375/477
f 225/376/475 224/362/466 227/371/474 226/377/478
f 226/378/478 228/379/473 234/380/479 233/381/480
f 229/382/477 231/383/481 246/384/482 247/385/483
f 231/383/481 230/374/476 233/381/480 232/386/484
f 232/386/484 234/387/479 244/388/485 245/389/486
f 237/355/460 236/390/487 239/391/488 238/366/469
f 241/361/465 242/368/471 227/371/474 224/362/466
f 225/373/475 226/378/478 233/381/480 230/374/476
f 231/383/481 232/386/484 245/389/486 246/384/482
f 237/355/460 238/366/469 222/365/462 217/352/457
f 243/369/472 244/388/485 234/387/479 228/370/473
f 247/392/483 248/360/464 223/363/467 229/393/477
f 217/357/457 218/356/461 219/394/458
f 220/395/468 221/359/463 222/358/462
f 223/363/467 224/362/466 225/376/475
f 226/377/478 227/371/474 228/370/473
f 229/375/477 230/374/476 231/383/481
f 232/386/484 233/381/480 234/380/479
f 235/396/459 236/390/487 237/355/460
f 238/366/469 239/391/488 240/397/470
f 218/356/461 221/359/463 242/368/471 241/361/465
f 221/359/463 220/395/468 243/369/472 242/368/471
f 220/395/468 240/397/470 244/388/485 243/369/472
f 245/389/486 244/388/485 240/397/470 239/391/488
f 246/384/482 245/389/486 239/391/488 236/390/487
f 247/385/483 246/384/482 236/390/487 235/396/459
f 235/398/459 219/394/458 248/360/464 247/392/483
f 219/394/458 218/356/461 241/361/465 248/360/464
s 13
f 249/399/489 251/400/490 267/401/491 269/402/492
f 250/403/493 249/404/489 254/405/494 253/406/495
f 280/407/496 273/408/497 256/409/498 255/410/499
f 252/411/500 254/412/494 270/413/501 272/414/502
f 274/415/503 275/416/504 260/417/505 259/418/506
f 255/419/499 257/420/507 262/421/508 261/422/509
f 257/423/507 256/409/498 259/418/506 258/424/510
f 258/425/510 260/426/505 266/427/511 265/428/512
f 261/429/509 263/430/513 278/431/514 279/432/515
f 263/430/513 262/421/508 265/428/512 264/433/516
f 264/433/516 266/434/511 276/435/517 277/436/518
f 269/402/492 268/437/519 271/438/520 270/413/501
f 273/408/497 274/415/503 259/418/506 256/409/498
f 257/420/507 258/425/510 265/428/512 262/421/508
f 263/430/513 264/433/516 277/436/518 278/431/514
f 269/402/492 270/413/501 254/412/494 249/399/489
f 275/416/504 276/435/517 266/434/511 260/417/505
f 279/439/515 280/407/496 255/410/499 261/440/509
f 249/404/489 250/403/493 251/441/490
f 252/442/500 253/406/495 254/405/494
f 255/410/499 256/409/498 257/423/507
f 258/424/510 259/418/506 260/417/505
f 261/422/509 262/421/508 263/430/513
f 264/433/516 265/428/512 266/427/511
f 267/443/491 268/437/519 269/402/492
f 270/413/501 271/438/520 272/444/502
f 250/403/493 253/406/495 274/415/503 273/408/497
f 253/406/495 252/442/500 275/416/504 274/415/503
f 252/442/500 272/444/502 276/435/517 275/416/504
f 277/436/518 276/435/517 272/444/502 271/438/520
f 278/431/514 277/436/518 271/438/520 268/437/519
f 279/432/515 278/431/514 268/437/519 267/443/491
f 267/445/491 251/441/490 280/407/496 279/439/515
f 251/441/490 250/403/493 273/408/497 280/407/496
s 16
f 281/446/521 283/447/522 299/448/523 301/449/524
f 282/450/525 281/451/521 286/452/526 285/453/527
f 312/454/528 305/455/529 288/456/530 287/457/531
f 284/458/532 286/459/526 302/460/533 304/461/534
f 306/462/535 307/463/536 292/464/537 291/465/538
f 287/466/531 289/467/539 294/468/540 293/469/541
f 289/470/539 288/456/530 291/465/538 290/471/542
f 290/472/542 292/473/537 298/474/543 297/475/544
f 293/476/541 295/477/545 310/478/546 311/479/547
f 295/477/545 294/468/540 297/475/544 296/480/548
f 296/480/548 298/481/543 308/482/549 309/483/550
f 301/449/524 300/484/551 303/485/552 302/460/533
f 305/455/529 306/462/535 291/465/538 288/456/530
f 289/467/539 290/472/542 297/475/544 294/468/540
f 295/477/545 296/480/548 309/483/550 310/478/546
f 301/449/524 302/460/533 286/459/526 281/446/521
f 307/463/536 308/482/549 298/481/543 292/464/537
f 311/486/547 312/454/528 287/457/531 293/487/541
f 281/451/521 282/450/525 283/488/522
f 284/489/532 285/453/527 286/452/526
f 287/457/531 288/456/530 289/470/539
f 290/471/542 291/465/538 292/464/537
f 293/469/541 294/468/540 295/477/545
f 296/480/548 297/475/544 298/474/543
f 299/490/523 300/484/551 301/449/524
f 302/460/533 303/485/552 304/491/534
f 282/450/525 285/453/527 306/462/535 305/455/529
f 285/453/527 284/489/532 307/463/536 306/462/535
f 284/489/532 304/491/534 308/482/549 307/463/536
f 309/483/550 308/482/549 304/491/534 303/485/552
f 310/478/546 309/483/550 303/485/552 300/484/551
f 311/479/547 310/478/546 300/484/551 299/490/523
f 299/492/523 283/488/522 312/454/528 311/486/547
f 283/488/522 282/450/525 305/455/529 312/454/528
s 19
f 313/493/553 315/494/554 331/495/555 333/496/556
f 314/497/557 313/498/553 318/499/558 317/500/559
f 344/501/560 337/502/561 320/503/562 319/504/563
f 316/505/564 318/506/558 334/507/565 336/508/566
f 338/509/567 339/510/568 324/511/569 323/512/570
f 319/513/563 321/514/571 326/515/572 325/516/573
f 321/517/571 320/503/562 323/512/570 322/518/574
f 322/519/574 324/520/569 330/521/575 329/522/576
f 325/523/573 327/524/577 342/525/578 343/526/579
f 327/524/577 326/515/572 329/522/576 328/527/580
f 328/527/580 330/528/575 340/529/581 341/530/582
f 333/496/556 332/531/583 335/532/584 334/507/565
f 337/502/561 338/509/567 323/512/570 320/503/562
f 321/514/571 322/519/574 329/522/576 326/515/572
f 327/524/577 328/527/580 341/530/582 342/525/578
f 333/496/556 334/507/565 318/506/558 313/493/553
f 339/510/568 340/529/581 330/528/575 324/511/569
f 343/533/579 344/501/560 319/504/563 325/534/573
f 313/498/553 314/497/557 315/535/554
f 316/536/564 317/500/559 318/499/558
f 319/504/563 320/503/562 321/517/571
f 322/518/574 323/512/570 324/511/569
f 325/516/573 326/515/572 327/524/577
f 328/527/580 329/522/576 330/521/575
f 331/537/555 332/531/583 333/496/556
f 334/507/565 335/532/584 336/538/566
f 314/497/557 317/500/559 338/509/567 337/502/561
f 317/500/559 316/536/564 339/510/568 338/509/567
f 316/536/564 336/538/566 340/529/581 339/510/568
f 341/530/582 340/529/581 336/538/566 335/532/584
f 342/525/578 341/530/582 335/532/584 332/531/583
f 343/526/579 342/525/578 332/531/583 331/537/555
f 331/539/555 315/535/554 344/501/560 343/533/579
f 315/535/554 314/497/557 337/502/561 344/501/560
s 22
f 345/540/585 347/541/586 363/542/587 365/543/588
f 346/544/589 345/545/585 350/546/590 349/547/591
f 376/548/592 369/549/593 352/550/594 351/551/595
f 348/552/596 350/553/590 366/554/597 368/555/598
f 370/556/599 371/557/600 356/558/601 355/559/602
f 351/560/595 353/561/603 358/562/604 357/563/605
f 353/564/603 352/550/594 355/559/602 354/565/606
f 354/566/606 356/567/601 362/568/607 361/569/608
f 357/570/605 359/571/609 374/572/610 375/573/611
f 359/571/609 358/562/604 361/569/608 360/574/612
f 360/574/612 362/575/607 372/576/613 373/577/614
f 365/543/588 364/578/615 367/579/616 366/554/597
f 369/549/593 370/556/599 355/559/602 352/550/594
f 353/561/603 354/566/606 361/569/608 358/562/604
f 359/571/609 360/574/612 373/577/614 374/572/610
f 365/543/588 366/554/597 350/553/590 345/540/585
f 371/557/600 372/576/613 362/575/607 356/558/601
f 375/580/611 376/548/592 351/551/595 357/581/605
f 345/545/585 346/544/589 347/582/586
f 348/583/596 349/547/591 350/546/590
f 351/551/595 352/550/594 353/564/603
f 354/565/606 355/559/602 356/558/601
f 357/563/605 358/562/604 359/571/609
f 360/574/612 361/569/608 362/568/607
f 363/584/587 364/578/615 365/543/588
f 366/554/597 367/579/616 368/585/598
f 346/544/589 349/547/591 370/556/599 369/549/593
f 349/547/591 348/583/596 371/557/600 370/556/599
f 348/583/596 368/585/598 372/576/613 371/557/600
f 373/577/614 372/576/613 368/585/598 367/579/616
f 374/572/610 373/577/614 367/579/616 364/578/615
f 375/573/611 374/572/610 364/578/615 363/584/587
f 363/586/587 347/582/586 376/548/592 375/580/611
f 347/582/586 346/544/589 369/549/593 376/548/592
s off
f 377/587/617 378/588/618 380/589/619 379/590/620
f 379/590/621 380/591/622 382/592/623 381/593/624
f 381/594/625 382/595/626 384/596/627 383/597/628
f 383/598/629 384/599/630 378/600/631 377/587/632
f 378/588/633 384/596/634 382/595/635 380/589/636
f 383/598/637 377/587/638 379/590/639 381/593/640
f 385/601/641 386/602/642 388/603/643 387/604/644
f 387/604/645 388/605/646 390/606/647 389/607/648
f 389/608/649 390/609/650 392/610/651 391/611/652
f 391/612/653 392/613/654 386/614/655 385/601/656
f 386/602/657 392/610/658 390/609/659 388/603/660
f 391/612/661 385/601/662 387/604/663 389/607/664
s 25
f 393/615/665 395/616/666 411/617/667 413/618/668
f 394/619/669 393/620/665 398/621/670 397/622/671
f 424/623/672 417/624/673 400/625/674 399/626/675
f 396/627/676 398/628/670 414/629/677 416/630/678
f 418/631/679 419/632/680 404/633/681 403/634/682
f 399/635/675 401/636/683 406/637/684 405/638/685
f 401/639/683 400/625/674 403/634/682 402/640/686
f 402/641/686 404/642/681 410/643/687 409/644/688
f 405/645/685 407/646/689 422/647/690 423/648/691
f 407/646/689 406/637/684 409/644/688 408/649/692
f 408/649/692 410/650/687 420/651/693 421/652/694
f 413/618/668 412/653/695 415/654/696 414/629/677
f 417/624/673 418/631/679 403/634/682 400/625/674
f 401/636/683 402/641/686 409/644/688 406/637/684
f 407/646/689 408/649/692 421/652/694 422/647/690
f 413/618/668 414/629/677 398/628/670 393/615/665
f 419/632/680 420/651/693 410/650/687 404/633/681
f 423/655/691 424/623/672 399/626/675 405/656/685
f 393/620/665 394/619/669 395/657/666
f 396/658/676 397/622/671 398/621/670
f 399/626/675 400/625/674 401/639/683
f 402/640/686 403/634/682 404/633/681
f 405/638/685 406/637/684 407/646/689
f 408/649/692 409/644/688 410/643/687
f 411/659/667 412/653/695 413/618/668
f 414/629/677 415/654/696 416/660/678
f 394/619/669 397/622/671 418/631/679 417/624/673
f 397/622/671 396/658/676 419/632/680 418/631/679
f 396/658/676 416/660/678 420/651/693 419/632/680
f 421/652/694 420/651/693 416/660/678 415/654/696
f 422/647/690 421/652/694 415/654/696 412/653/695
f 423/648/691 422/647/690 412/653/695 411/659/667
f 411/661/667 395/657/666 424/623/672 423/655/691
f 395/657/666 394/619/669 417/624/673 424/623/672
s off
f 425/662/697 426/663/698 428/664/699 427/665/700
f 427/666/701 428/667/702 430/668/703 429/669/704
f 429/669/705 430/668/706 432/670/707 431/671/708
f 431/671/709 432/670/710 426/672/711 425/673/712
f 426/663/713 432/670/714 430/668/715 428/664/716
f 431/674/717 425/662/718 427/665/719 429/675/720
f 433/676/721 434/677/722 436/678/723 435/679/724
f 435/679/725 436/680/726 438/681/727 437/682/728
f 437/683/729 438/684/730 440/685/731 439/686/732
f 439/687/733 440/688/734 434/689/735 433/676/736
f 434/677/737 440/685/738 438/684/739 436/678/740
f 439/687/741 433/676/742 435/679/743 437/682/744
f 441/690/745 442/691/746 444/692/747 443/693/748
f 443/693/749 444/694/750 446/695/751 445/696/752
f 445/697/753 446/698/754 448/699/755 447/700/756
f 447/701/757 448/702/758 442/703/759 441/690/760
f 442/691/761 448/699/762 446/698/763 444/692/764
f 447/701/765 441/690/766 443/693/767 445/696/768
s 28
f 449/704/769 451/705/770 467/706/771 469/707/772
f 450/708/773 449/709/769 454/710/774 453/711/775
f 480/712/776 473/713/777 456/714/778 455/715/779
f 452/716/780 454/717/774 470/718/781 472/719/782
f 474/720/783 475/721/784 460/722/785 459/723/786
f 455/724/779 457/725/787 462/726/788 461/727/789
f 457/728/787 456/714/778 459/723/786 458/729/790
f 458/730/790 460/731/785 466/732/791 465/733/792
f 461/734/789 463/735/793 478/736/794 479/737/795
f 463/735/793 462/726/788 465/733/792 464/738/796
f 464/738/796 466/739/791 476/740/797 477/741/798
f 469/707/772 468/742/799 471/743/800 470/718/781
f 473/713/777 474/720/783 459/723/786 456/714/778
f 457/725/787 458/730/790 465/733/792 462/726/788
f 463/735/793 464/738/796 477/741/798 478/736/794
f 469/707/772 470/718/781 454/717/774 449/704/769
f 475/721/784 476/740/797 466/739/791 460/722/785
f 479/744/795 480/712/776 455/715/779 461/745/789
f 449/709/769 450/708/773 451/746/770
f 452/747/780 453/711/775 454/710/774
f 455/715/779 456/714/778 457/728/787
f 458/729/790 459/723/786 460/722/785
f 461/727/789 462/726/788 463/735/793
f 464/738/796 465/733/792 466/732/791
f 467/748/771 468/742/799 469/707/772
f 470/718/781 471/743/800 472/749/782
f 450/708/773 453/711/775 474/720/783 473/713/777
f 453/711/775 452/747/780 475/721/784 474/720/783
f 452/747/780 472/749/782 476/740/797 475/721/784
f 477/741/798 476/740/797 472/749/782 471/743/800
f 478/736/794 477/741/798 471/743/800 468/742/799
f 479/737/795 478/736/794 468/742/799 467/748/771
f 467/750/771 451/746/770 480/712/776 479/744/795
f 451/746/770 450/708/773 473/713/777 480/712/776
s off
f 481/751/801 482/752/802 484/753/803 483/754/804
f 483/755/805 484/756/806 486/757/807 485/758/808
f 485/758/809 486/757/810 488/759/811 487/760/812
f 487/760/813 488/759/814 482/761/815 481/762/816
f 482/752/817 488/759/818 486/757/819 484/753/820
f 487/763/821 481/751/822 483/754/823 485/764/824
s 31
f 489/765/825 491/766/826 507/767/827 509/768/828
f 490/769/829 489/770/825 494/771/830 493/772/831
f 520/773/832 513/774/833 496/775/834 495/776/835
f 492/777/836 494/778/830 510/779/837 512/780/838
f 514/781/839 515/782/840 500/783/841 499/784/842
f 495/785/835 497/786/843 502/787/844 501/788/845
f 497/789/843 496/775/834 499/784/842 498/790/846
f 498/791/846 500/792/841 506/793/847 505/794/848
f 501/795/845 503/796/849 518/797/850 519/798/851
f 503/796/849 502/787/844 505/794/848 504/799/852
f 504/799/852 506/800/847 516/801/853 517/802/854
f 509/768/828 508/803/855 511/804/856 510/779/837
f 513/774/833 514/781/839 499/784/842 496/775/834
f 497/786/843 498/791/846 505/794/848 502/787/844
f 503/796/849 504/799/852 517/802/854 518/797/850
f 509/768/828 510/779/837 494/778/830 489/765/825
f 515/782/840 516/801/853 506/800/847 500/783/841
f 519/805/851 520/773/832 495/776/835 501/806/845
f 489/770/825 490/769/829 491/807/826
f 492/808/836 493/772/831 494/771/830
f 495/776/835 496/775/834 497/789/843
f 498/790/846 499/784/842 500/783/841
f 501/788/845 502/787/844 503/796/849
f 504/799/852 505/794/848 506/793/847
f 507/809/827 508/803/855 509/768/828
f 510/779/837 511/804/856 512/810/838
f 490/769/829 493/772/831 514/781/839 513/774/833
f 493/772/831 492/808/836 515/782/840 514/781/839
f 492/808/836 512/810/838 516/801/853 515/782/840
f 517/802/854 516/801/853 512/810/838 511/804/856
f 518/797/850 517/802/854 511/804/856 508/803/855
f 519/798/851 518/797/850 508/803/855 507/809/827
f 507/811/827 491/807/826 520/773/832 519/805/851
f 491/807/826 490/769/829 513/774/833 520/773/832
s off
f 521/812/857 522/813/858 524/814/859 523/815/860
f 523/815/861 524/816/862 526/817/863 525/818/864
f 525/819/865 526/820/866 528/821/867 527/822/868
f 527/823/869 528/824/870 522/825/871 521/812/872
f 522/813/873 528/821/874 526/820/875 524/814/876
f 527/823/877 521/812/878 523/815/879 525/818/880
s 34
f 529/826/881 531/827/882 547/828/883 549/829/884
f 530/830/885 529/831/881 534/832/886 533/833/887
f 560/834/888 553/835/889 536/836/890 535/837/891
f 532/838/892 534/839/886 550/840/893 552/841/894
f 554/842/895 555/843/896 540/844/897 539/845/898
f 535/846/891 537/847/899 542/848/900 541/849/901
f 537/850/899 536/836/890 539/845/898 538/851/902
f 538/852/902 540/853/897 546/854/903 545/855/904
f 541/856/901 543/857/905 558/858/906 559/859/907
f 543/857/905 542/848/900 545/855/904 544/860/908
f 544/860/908 546/861/903 556/862/909 557/863/910
f 549/829/884 548/864/911 551/865/912 550/840/893
f 553/835/889 554/842/895 539/845/898 536/836/890
f 537/847/899 538/852/902 545/855/904 542/848/900
f 543/857/905 544/860/908 557/863/910 558/858/906
f 549/829/884 550/840/893 534/839/886 529/826/881
f 555/843/896 556/862/909 546/861/903 540/844/897
f 559/866/907 560/834/888 535/837/891 541/867/901
f 529/831/881 530/830/885 531/868/882
f 532/869/892 533/833/887 534/832/886
f 535/837/891 536/836/890 537/850/899
f 538/851/902 539/845/898 540/844/897
f 541/849/901 542/848/900 543/857/905
f 544/860/908 545/855/904 546/854/903
f 547/870/883 548/864/911 549/829/884
f 550/840/893 551/865/912 552/871/894
f 530/830/885 533/833/887 554/842/895 553/835/889
f 533/833/887 532/869/892 555/843/896 554/842/895
f 532/869/892 552/871/894 556/862/909 555/843/896
f 557/863/910 556/862/909 552/871/894 551/865/912
f 558/858/906 557/863/910 551/865/912 548/864/911
f 559/859/907 558/858/906 548/864/911 547/870/883
f 547/872/883 531/868/882 560/834/888 559/866/907
f 531/868/882 530/830/885 553/835/889 560/834/888
s off
f 561/873/913 562/874/914 564/875/915 563/876/916
f 563/876/917 564/877/918 566/878/919 565/879/920
f 565/880/921 566/881/922 568/882/923 567/883/924
f 567/884/925 568/885/926 562/886/927 561/873/928
f 562/874/929 568/882/930 566/881/931 564/875/932
f 567/884/933 561/873/934 563/876/935 565/879/936
