# This file uses centimeters as units for non-parametric coordinates.

mtllib M_Campfire.mtl
g default
v -0.728530 0.300076 0.448013
v -0.651228 -0.017646 0.334286
v -0.466472 0.354641 0.513859
v -0.389170 0.036920 0.400127
v -0.438028 0.543528 0.174755
v -0.332377 0.204080 0.035568
v -0.671738 0.467236 0.083454
v -0.594436 0.149515 -0.030273
v -0.432860 0.543496 0.419327
v -0.278669 0.048090 0.216190
v -0.661129 -0.031545 0.120098
v -0.786973 0.442134 0.297775
v -0.732458 0.062703 0.423710
v -0.819028 0.140981 0.113247
v -0.659201 0.278325 -0.046539
v -0.321170 0.348709 0.038395
v -0.188107 0.308624 0.308334
v -0.394427 0.133087 0.508644
v -0.299575 0.502975 -0.055988
v -0.584181 0.514655 -0.335857
v -0.415749 0.236462 0.072739
v -0.700355 0.248142 -0.207127
v -0.105433 0.011227 -0.160725
v -0.413774 -0.006000 -0.474659
v -0.012994 0.248833 -0.323521
v -0.297600 0.260513 -0.603386
v -0.216520 0.091622 0.085880
v -0.666528 0.066480 -0.372292
v -0.496978 0.455442 -0.560165
v -0.070706 0.451677 -0.136059
v -0.506702 0.595835 -0.211704
v -0.251189 0.543266 -0.491547
v -0.137039 0.268016 -0.556793
v -0.286892 -0.075762 -0.390743
v -0.513470 -0.100454 -0.124863
v -0.656556 0.252057 -0.045654
v -0.119902 0.248253 0.060169
v 0.034527 0.219116 0.098392
v 0.189911 0.942452 -0.662357
v 0.344340 0.913315 -0.624134
v 0.194757 0.833376 -0.765079
v 0.349185 0.804239 -0.726856
v -0.115057 0.139176 -0.042553
v 0.039372 0.110039 -0.004330
v 0.155593 0.894660 -0.722992
v 0.383521 0.851655 -0.666576
v 0.073707 0.157455 0.055950
v -0.154221 0.200460 -0.000465
v -0.046732 0.264812 0.107452
v -0.044214 0.179599 0.026661
v -0.039167 0.094493 -0.052944
v 0.270647 0.788693 -0.775471
v 0.265599 0.873799 -0.695866
v 0.263082 0.959011 -0.615070
v -0.309620 -0.013592 0.434544
v 0.111536 0.057441 0.375282
v -0.282482 0.010593 0.775948
v 0.138675 0.081625 0.716686
v -0.436366 0.468441 0.734993
v 0.025501 0.572591 0.690903
v -0.422793 0.477374 0.408760
v -0.001637 0.548407 0.349499
v -0.474931 0.184129 0.837517
v 0.199141 0.336130 0.773167
v 0.159534 0.300835 0.274906
v -0.473827 0.181950 0.354427
v -0.029049 -0.051746 0.344143
v -0.102882 0.304371 0.148224
v -0.175033 0.581555 0.310886
v -0.140027 0.612751 0.751263
v -0.086110 0.329814 0.996288
v 0.005957 -0.020550 0.784519
v 0.158372 0.135700 -0.330162
v -0.125675 0.254786 -0.253002
v 0.064277 0.005480 -0.525368
v -0.219770 0.124566 -0.448208
v 0.175313 0.271096 -0.736401
v -0.141114 0.407958 -0.675171
v 0.237028 0.419092 -0.557125
v -0.047019 0.538178 -0.479965
v 0.183781 0.056236 -0.672371
v -0.278027 0.255978 -0.583012
v -0.140699 0.446028 -0.298119
v 0.288729 0.264061 -0.403408
v -0.018577 0.187230 -0.212097
v 0.071445 0.470459 -0.276993
v 0.082882 0.552778 -0.504860
v -0.038493 0.384806 -0.756657
v -0.126233 0.120538 -0.755493
v -0.139952 0.019258 -0.463898
v -0.080455 0.324481 0.011158
v -0.095480 0.327880 0.140804
v 0.656435 0.734549 0.085808
v 0.641410 0.737949 0.215454
v 0.714363 0.628728 0.095295
v 0.699337 0.632127 0.224941
v -0.022528 0.218659 0.020645
v -0.037553 0.222059 0.150291
v 0.689075 0.680647 0.059719
v 0.666898 0.685664 0.251064
v -0.069993 0.275596 0.176414
v -0.047816 0.270578 -0.014935
v -0.103968 0.355829 0.071064
v -0.058463 0.272897 0.077423
v -0.013517 0.190592 0.085880
v 0.723373 0.600661 0.160530
v 0.678428 0.682966 0.152073
v 0.632922 0.765897 0.145714
v 0.335836 0.406419 -0.149807
v 0.594666 0.281371 -0.362865
v 0.278375 0.147833 -0.044949
v 0.537205 0.022786 -0.258003
v 0.506489 0.244511 0.271938
v 0.801754 0.092494 0.058865
v 0.600386 0.476128 0.167057
v 0.859216 0.351080 -0.045998
v 0.282161 0.182270 0.173336
v 0.713085 -0.039590 -0.137630
v 0.796946 0.337802 -0.290672
v 0.402457 0.532694 0.020279
v 0.466801 0.359126 -0.353386
v 0.707034 0.535098 -0.183605
v 0.808045 0.449044 0.055344
v 0.733926 0.115492 0.190605
v 0.518407 -0.087328 0.086315
v 0.392681 0.025574 -0.218124
v 0.293246 0.550386 0.688206
v 0.475029 0.549242 0.294788
v 0.005977 0.396972 0.574112
v 0.187760 0.395827 0.180695
v 0.190555 -0.023359 0.737293
v 0.381930 -0.056966 0.300644
v 0.487416 0.097593 0.808159
v 0.669199 0.096448 0.414742
v -0.024577 0.194383 0.746414
v 0.254725 0.145336 0.109150
v 0.673978 0.369237 0.275669
v 0.404268 0.385822 0.869705
v 0.425104 0.648251 0.438641
v 0.725456 0.390078 0.563251
v 0.675566 0.064189 0.593365
v 0.305016 -0.133701 0.446190
v -0.014192 0.035933 0.328789
v 0.054554 0.450360 0.291466
v 0.046576 0.112680 0.077183
v -0.041765 0.058956 0.173920
v -0.511667 0.833366 -0.032368
v -0.600008 0.779642 0.064369
v -0.447229 0.897652 0.062180
v -0.535570 0.843928 0.158916
v 0.111014 0.176966 0.171730
v 0.022674 0.123242 0.268467
v -0.458314 0.878405 -0.007950
v -0.588700 0.799112 0.134827
v -0.030457 0.078425 0.244377
v 0.099929 0.157718 0.101597
v -0.014148 0.068705 0.097328
v 0.037066 0.119513 0.170597
v 0.086470 0.169085 0.244957
v -0.471774 0.889771 0.135410
v -0.521178 0.840199 0.061047
v -0.572392 0.789391 -0.012222
v 0.532390 0.324940 -0.534088
v 0.492937 0.075807 -0.477985
v 0.367104 0.333808 -0.656292
v 0.327651 0.084675 -0.600189
v 0.223164 0.450076 -0.432346
v 0.160383 0.179899 -0.367043
v 0.365122 0.420164 -0.300941
v 0.325670 0.171031 -0.244835
v 0.290220 0.462598 -0.601711
v 0.198595 0.068290 -0.506401
v 0.439822 0.055348 -0.328049
v 0.508119 0.428613 -0.414158
v 0.561946 0.150251 -0.515709
v 0.519526 0.202253 -0.277420
v 0.346187 0.273081 -0.214970
v 0.132983 0.284520 -0.372601
v 0.126950 0.252155 -0.596809
v 0.348742 0.161690 -0.673340
v 0.046576 0.112680 0.077183
v -0.041765 0.058956 0.173920
v -0.511667 0.833366 -0.032368
v -0.600008 0.779642 0.064369
v -0.447229 0.897652 0.062180
v -0.535570 0.843928 0.158916
v 0.111014 0.176966 0.171730
v 0.022674 0.123242 0.268467
v -0.458314 0.878405 -0.007950
v -0.588700 0.799112 0.134827
v -0.030457 0.078425 0.244377
v 0.099929 0.157718 0.101597
v -0.014148 0.068705 0.097328
v 0.037066 0.119513 0.170597
v 0.086470 0.169085 0.244957
v -0.471774 0.889771 0.135410
v -0.521178 0.840199 0.061047
v -0.572392 0.789391 -0.012222
vt 0.509541 0.923198
vt 0.509541 0.877090
vt 0.526654 0.884348
vt 0.526654 0.915941
vt 0.495061 0.884348
vt 0.495061 0.915941
vt 0.513848 0.863613
vt 0.531233 0.879768
vt 0.531233 0.920520
vt 0.512449 0.941498
vt 0.490481 0.920520
vt 0.540325 0.949271
vt 0.557438 0.942013
vt 0.558835 0.986222
vt 0.541722 0.978965
vt 0.571917 0.949271
vt 0.571917 0.980864
vt 0.471829 0.920520
vt 0.471829 0.879768
vt 0.482298 0.884348
vt 0.482298 0.915941
vt 0.453721 0.886247
vt 0.453721 0.917839
vt 0.473453 0.863613
vt 0.489556 0.877090
vt 0.446463 0.878989
vt 0.469681 0.941498
vt 0.443448 0.923198
vt 0.560592 0.925343
vt 0.560592 0.884591
vt 0.571062 0.889170
vt 0.571062 0.920763
vt 0.539469 0.889170
vt 0.542484 0.918864
vt 0.532211 0.881913
vt 0.558445 0.863613
vt 0.562217 0.941498
vt 0.535227 0.926122
vt 0.471829 0.920520
vt 0.471829 0.879768
vt 0.482298 0.884348
vt 0.482298 0.915941
vt 0.531233 0.920520
vt 0.512449 0.941498
vt 0.509541 0.923198
vt 0.526654 0.915941
vt 0.560592 0.925343
vt 0.560592 0.884591
vt 0.571062 0.889170
vt 0.571062 0.920763
vt 0.513848 0.863613
vt 0.531233 0.879768
vt 0.526654 0.884348
vt 0.509541 0.877090
vt 0.540325 0.949271
vt 0.557438 0.942013
vt 0.558835 0.986222
vt 0.541722 0.978965
vt 0.490481 0.920520
vt 0.495061 0.915941
vt 0.495061 0.884348
vt 0.473453 0.863613
vt 0.489556 0.877090
vt 0.571917 0.949271
vt 0.571917 0.980864
vt 0.446463 0.878989
vt 0.453721 0.886247
vt 0.542484 0.918864
vt 0.562217 0.941498
vt 0.535227 0.926122
vt 0.539469 0.889170
vt 0.532211 0.881913
vt 0.558445 0.863613
vt 0.453721 0.917839
vt 0.469681 0.941498
vt 0.443448 0.923198
vt 0.623580 0.796409
vt 0.618655 0.902414
vt 0.609188 0.901975
vt 0.614113 0.795970
vt 0.665881 0.863457
vt 0.661239 0.871389
vt 0.652892 0.866388
vt 0.658522 0.862904
vt 0.582688 0.900743
vt 0.587613 0.794738
vt 0.597080 0.795179
vt 0.592155 0.901183
vt 0.670418 0.851404
vt 0.660902 0.851666
vt 0.664068 0.844707
vt 0.670037 0.841331
vt 0.605573 0.795573
vt 0.600648 0.901578
vt 0.644651 0.903621
vt 0.636158 0.903227
vt 0.641083 0.797223
vt 0.649576 0.797618
vt 0.656385 0.879266
vt 0.652440 0.873029
vt 0.679993 0.850921
vt 0.676294 0.844230
vt 0.627618 0.902831
vt 0.632543 0.796826
vt 0.670797 0.860799
vt 0.676809 0.857420
vt 0.664583 0.857898
vt 0.578650 0.794321
vt 0.573725 0.900327
vt 0.669014 0.876072
vt 0.669445 0.869466
vt 0.663364 0.879591
vt 0.471829 0.920520
vt 0.471829 0.879768
vt 0.482298 0.884348
vt 0.482298 0.915941
vt 0.531233 0.920520
vt 0.512449 0.941498
vt 0.509541 0.923198
vt 0.526654 0.915941
vt 0.560592 0.925343
vt 0.560592 0.884591
vt 0.571062 0.889170
vt 0.571062 0.920763
vt 0.513848 0.863613
vt 0.531233 0.879768
vt 0.526654 0.884348
vt 0.509541 0.877090
vt 0.540325 0.949271
vt 0.557438 0.942013
vt 0.558835 0.986222
vt 0.541722 0.978965
vt 0.490481 0.920520
vt 0.495061 0.915941
vt 0.495061 0.884348
vt 0.473453 0.863613
vt 0.489556 0.877090
vt 0.571917 0.949271
vt 0.571917 0.980864
vt 0.446463 0.878989
vt 0.453721 0.886247
vt 0.542484 0.918864
vt 0.562217 0.941498
vt 0.535227 0.926122
vt 0.539469 0.889170
vt 0.532211 0.881913
vt 0.558445 0.863613
vt 0.453721 0.917839
vt 0.469681 0.941498
vt 0.443448 0.923198
vt 0.471829 0.920520
vt 0.471829 0.879768
vt 0.482298 0.884348
vt 0.482298 0.915941
vt 0.531233 0.920520
vt 0.512449 0.941498
vt 0.509541 0.923198
vt 0.526654 0.915941
vt 0.560592 0.925343
vt 0.560592 0.884591
vt 0.571062 0.889170
vt 0.571062 0.920763
vt 0.513848 0.863613
vt 0.531233 0.879768
vt 0.526654 0.884348
vt 0.509541 0.877090
vt 0.540325 0.949271
vt 0.557438 0.942013
vt 0.558835 0.986222
vt 0.541722 0.978965
vt 0.490481 0.920520
vt 0.495061 0.915941
vt 0.495061 0.884348
vt 0.473453 0.863613
vt 0.489556 0.877090
vt 0.571917 0.949271
vt 0.571917 0.980864
vt 0.446463 0.878989
vt 0.453721 0.886247
vt 0.542484 0.918864
vt 0.562217 0.941498
vt 0.535227 0.926122
vt 0.539469 0.889170
vt 0.532211 0.881913
vt 0.558445 0.863613
vt 0.453721 0.917839
vt 0.469681 0.941498
vt 0.443448 0.923198
vt 0.623580 0.796409
vt 0.618655 0.902414
vt 0.609188 0.901975
vt 0.614112 0.795970
vt 0.665881 0.863457
vt 0.661239 0.871389
vt 0.652892 0.866388
vt 0.658522 0.862905
vt 0.582688 0.900743
vt 0.587613 0.794738
vt 0.597080 0.795179
vt 0.592155 0.901183
vt 0.670418 0.851404
vt 0.660902 0.851666
vt 0.664068 0.844707
vt 0.670037 0.841331
vt 0.605573 0.795573
vt 0.600648 0.901578
vt 0.644651 0.903621
vt 0.636158 0.903227
vt 0.641083 0.797223
vt 0.649576 0.797618
vt 0.656385 0.879266
vt 0.652440 0.873029
vt 0.679992 0.850921
vt 0.676294 0.844230
vt 0.627618 0.902831
vt 0.632543 0.796826
vt 0.670797 0.860799
vt 0.676809 0.857420
vt 0.664583 0.857898
vt 0.578650 0.794321
vt 0.573725 0.900327
vt 0.669014 0.876072
vt 0.669445 0.869466
vt 0.663364 0.879591
vt 0.471829 0.920520
vt 0.471829 0.879768
vt 0.482298 0.884348
vt 0.482298 0.915941
vt 0.531233 0.920520
vt 0.512449 0.941498
vt 0.509541 0.923198
vt 0.526654 0.915941
vt 0.560592 0.925343
vt 0.560592 0.884591
vt 0.571062 0.889170
vt 0.571062 0.920763
vt 0.513848 0.863613
vt 0.531233 0.879768
vt 0.526654 0.884348
vt 0.509541 0.877090
vt 0.540325 0.949271
vt 0.557438 0.942013
vt 0.558835 0.986222
vt 0.541722 0.978965
vt 0.490481 0.920520
vt 0.495061 0.915941
vt 0.495061 0.884348
vt 0.473453 0.863613
vt 0.489556 0.877090
vt 0.571917 0.949271
vt 0.571917 0.980864
vt 0.446463 0.878989
vt 0.453721 0.886247
vt 0.542484 0.918864
vt 0.562217 0.941498
vt 0.535227 0.926122
vt 0.539469 0.889170
vt 0.532211 0.881913
vt 0.558445 0.863613
vt 0.453721 0.917839
vt 0.469681 0.941498
vt 0.443448 0.923198
vt 0.471829 0.920520
vt 0.471829 0.879768
vt 0.482298 0.884348
vt 0.482298 0.915941
vt 0.531233 0.920520
vt 0.512449 0.941498
vt 0.509541 0.923198
vt 0.526654 0.915941
vt 0.560592 0.925343
vt 0.560592 0.884591
vt 0.571062 0.889170
vt 0.571062 0.920763
vt 0.513848 0.863613
vt 0.531233 0.879768
vt 0.526654 0.884348
vt 0.509541 0.877090
vt 0.540325 0.949271
vt 0.557438 0.942013
vt 0.558835 0.986223
vt 0.541722 0.978965
vt 0.490481 0.920520
vt 0.495061 0.915941
vt 0.495061 0.884348
vt 0.473453 0.863613
vt 0.489556 0.877090
vt 0.571917 0.949271
vt 0.571917 0.980864
vt 0.446463 0.878989
vt 0.453721 0.886247
vt 0.542484 0.918865
vt 0.562217 0.941498
vt 0.535227 0.926122
vt 0.539469 0.889170
vt 0.532211 0.881913
vt 0.558445 0.863613
vt 0.453721 0.917839
vt 0.469681 0.941498
vt 0.443448 0.923198
vt 0.623580 0.796409
vt 0.618655 0.902414
vt 0.609188 0.901975
vt 0.614112 0.795970
vt 0.665881 0.863457
vt 0.661239 0.871389
vt 0.652892 0.866388
vt 0.658522 0.862905
vt 0.582688 0.900743
vt 0.587613 0.794738
vt 0.597080 0.795179
vt 0.592155 0.901183
vt 0.670418 0.851404
vt 0.660902 0.851666
vt 0.664068 0.844707
vt 0.670037 0.841331
vt 0.605573 0.795573
vt 0.600648 0.901578
vt 0.644651 0.903621
vt 0.636158 0.903227
vt 0.641083 0.797223
vt 0.649576 0.797618
vt 0.656385 0.879266
vt 0.652440 0.873029
vt 0.679992 0.850921
vt 0.676294 0.844230
vt 0.627618 0.902831
vt 0.632543 0.796826
vt 0.670797 0.860799
vt 0.676809 0.857420
vt 0.664583 0.857898
vt 0.578650 0.794321
vt 0.573725 0.900327
vt 0.669014 0.876072
vt 0.669445 0.869466
vt 0.663364 0.879591
vt 0.471829 0.920520
vt 0.471829 0.879768
vt 0.482298 0.884348
vt 0.482298 0.915941
vt 0.531233 0.920520
vt 0.512449 0.941498
vt 0.509541 0.923198
vt 0.526654 0.915941
vt 0.560592 0.925343
vt 0.560592 0.884591
vt 0.571062 0.889170
vt 0.571062 0.920763
vt 0.513848 0.863613
vt 0.531233 0.879768
vt 0.526654 0.884348
vt 0.509541 0.877090
vt 0.540325 0.949271
vt 0.557438 0.942013
vt 0.558835 0.986222
vt 0.541722 0.978965
vt 0.490481 0.920520
vt 0.495061 0.915941
vt 0.495061 0.884348
vt 0.473453 0.863613
vt 0.489556 0.877090
vt 0.571917 0.949271
vt 0.571917 0.980864
vt 0.446463 0.878989
vt 0.453721 0.886247
vt 0.542484 0.918864
vt 0.562217 0.941498
vt 0.535227 0.926122
vt 0.539469 0.889170
vt 0.532211 0.881913
vt 0.558445 0.863613
vt 0.453721 0.917839
vt 0.469681 0.941498
vt 0.443448 0.923198
vt 0.623580 0.796409
vt 0.618655 0.902414
vt 0.609188 0.901975
vt 0.614112 0.795970
vt 0.665881 0.863457
vt 0.661239 0.871389
vt 0.652892 0.866388
vt 0.658522 0.862905
vt 0.582688 0.900743
vt 0.587613 0.794738
vt 0.597080 0.795179
vt 0.592155 0.901183
vt 0.670418 0.851404
vt 0.660902 0.851666
vt 0.664068 0.844707
vt 0.670037 0.841331
vt 0.605573 0.795573
vt 0.600648 0.901578
vt 0.644651 0.903621
vt 0.636158 0.903227
vt 0.641083 0.797223
vt 0.649576 0.797618
vt 0.656385 0.879266
vt 0.652440 0.873029
vt 0.679992 0.850921
vt 0.676294 0.844230
vt 0.627618 0.902831
vt 0.632543 0.796826
vt 0.670797 0.860799
vt 0.676809 0.857420
vt 0.664583 0.857898
vt 0.578650 0.794321
vt 0.573725 0.900327
vt 0.669014 0.876072
vt 0.669445 0.869466
vt 0.663364 0.879591
vn -0.160755 -0.344203 0.925031
vn -0.155897 -0.360858 0.919499
vn -0.010687 -0.748617 0.662917
vn -0.010687 -0.748617 0.662917
vn 0.879858 0.376650 -0.289802
vn 0.947587 0.250167 0.198736
vn 0.944119 -0.327202 0.039739
vn 0.896045 -0.125230 -0.425935
vn 0.157665 0.391687 -0.906490
vn 0.154979 0.401380 -0.902705
vn 0.243670 0.000059 -0.969858
vn 0.243670 0.000059 -0.969858
vn -0.950508 -0.154193 -0.269740
vn -0.776991 0.086692 -0.623514
vn -0.479095 -0.413416 -0.774309
vn -0.691385 -0.645681 -0.324164
vn 0.277597 -0.886508 -0.370195
vn 0.277596 -0.886510 -0.370191
vn 0.308995 -0.672412 -0.672595
vn 0.308995 -0.672412 -0.672595
vn -0.284073 0.958675 -0.015628
vn -0.358208 0.856258 0.372167
vn -0.362451 0.837748 0.408420
vn -0.284073 0.958675 -0.015628
vn 0.742937 -0.087233 0.663653
vn 0.787080 -0.434526 0.437827
vn 0.190321 -0.980191 0.054811
vn 0.190321 -0.980191 0.054811
vn -0.932138 -0.294544 0.210625
vn -0.718101 -0.694361 0.046839
vn -0.366854 0.535266 0.760860
vn -0.366854 0.535266 0.760860
vn -0.988746 0.136849 -0.060447
vn -0.958832 -0.044681 0.280436
vn -0.823274 0.329460 -0.462251
vn 0.096113 0.589242 -0.802219
vn 0.096113 0.589242 -0.802219
vn 0.771089 0.543860 0.331115
vn 0.716708 0.683325 -0.139273
vn 0.602602 0.223179 0.766200
vn -0.223801 -0.095604 0.969934
vn -0.223801 -0.095604 0.969935
vn -0.558626 0.545351 0.624923
vn -0.572091 0.545300 0.612665
vn -0.851137 0.476940 0.219304
vn -0.851137 0.476940 0.219304
vn 0.013453 -0.999675 0.021654
vn -0.306610 -0.866238 0.394489
vn -0.707797 -0.706124 -0.020310
vn -0.344818 -0.876838 -0.335046
vn 0.591057 -0.553880 -0.586403
vn 0.598613 -0.553804 -0.578761
vn 0.261639 -0.509874 -0.819496
vn 0.261640 -0.509874 -0.819496
vn 0.412311 0.813132 -0.410872
vn 0.662731 0.466676 -0.585662
vn 0.183313 0.335413 -0.924064
vn -0.079551 0.742339 -0.665286
vn -0.696339 -0.042519 -0.716453
vn -0.696338 -0.042519 -0.716453
vn -0.422489 -0.238228 -0.874501
vn -0.422489 -0.238228 -0.874500
vn 0.905439 -0.094562 0.413810
vn 0.707966 0.125129 0.695073
vn 0.681102 0.146471 0.717389
vn 0.905439 -0.094562 0.413810
vn -0.663081 -0.424196 0.616750
vn -0.875435 -0.408280 0.258689
vn -0.895105 0.196981 -0.399983
vn -0.895105 0.196981 -0.399983
vn 0.106712 0.992650 -0.057082
vn -0.248990 0.895908 -0.367904
vn 0.304740 0.364938 0.879746
vn 0.304740 0.364938 0.879746
vn 0.583138 0.806979 -0.093459
vn 0.292775 0.948587 0.120273
vn 0.816885 0.470220 -0.334053
vn 0.737729 -0.538068 -0.407724
vn 0.737729 -0.538068 -0.407724
vn -0.041192 -0.774472 0.631265
vn 0.276257 -0.918815 0.281887
vn -0.389233 -0.379400 0.839377
vn -0.347470 0.526307 0.776058
vn -0.347470 0.526307 0.776058
vn -0.009928 0.775502 0.631267
vn -0.054528 0.675567 0.735280
vn 0.610241 0.341714 0.714729
vn 0.661015 0.455483 0.596317
vn 0.054362 -0.675970 -0.734921
vn 0.295405 0.661914 -0.688917
vn 0.976378 -0.123558 0.177255
vn 0.705913 -0.591416 -0.389760
vn 0.010095 -0.775162 -0.631682
vn 0.655354 -0.704706 -0.271846
vn -0.295405 -0.661909 0.688921
vn 0.926439 -0.235456 0.293718
vn -0.675095 -0.439570 -0.592474
vn -0.975047 0.127701 -0.181592
vn -0.928726 0.231494 -0.289619
vn -0.626522 -0.330734 -0.705752
vn -0.722116 0.583800 0.371115
vn -0.673338 0.693096 0.257358
vn 0.150167 -0.986959 0.057977
vn 0.168084 -0.984161 0.056355
vn 0.612361 -0.790544 0.007323
vn 0.612361 -0.790544 0.007323
vn -0.040676 0.587569 0.808151
vn 0.034312 0.118834 0.992321
vn 0.597456 0.139703 0.789639
vn 0.454568 0.608832 0.650147
vn -0.198265 0.979220 -0.042651
vn -0.208724 0.977098 -0.041398
vn 0.205395 0.974947 -0.085390
vn 0.205395 0.974947 -0.085390
vn -0.116027 -0.031746 -0.992739
vn -0.241197 0.399420 -0.884470
vn 0.342348 0.509221 -0.789615
vn 0.434453 -0.020760 -0.900455
vn 0.969881 0.225108 -0.093043
vn 0.969881 0.225109 -0.093043
vn 0.818649 0.564601 -0.105070
vn 0.818649 0.564601 -0.105070
vn -0.988338 0.151363 -0.016660
vn -0.966883 -0.254924 0.012303
vn -0.955632 -0.294173 0.015156
vn -0.988338 0.151363 -0.016660
vn 0.225711 -0.446219 0.865993
vn 0.596245 -0.299225 0.744954
vn 0.974054 -0.217657 -0.062010
vn 0.974054 -0.217657 -0.062010
vn -0.042330 -0.508903 -0.859783
vn 0.422427 -0.386902 -0.819672
vn -0.719507 -0.693034 0.044878
vn -0.719507 -0.693034 0.044878
vn -0.429611 -0.174080 -0.886076
vn -0.294981 -0.526321 -0.797479
vn -0.505488 0.289397 -0.812854
vn -0.417207 0.908692 -0.014724
vn -0.417207 0.908692 -0.014724
vn -0.314710 0.012794 0.949102
vn -0.400160 0.470882 0.786220
vn -0.123754 -0.511008 0.850621
vn -0.109330 -0.990871 0.078882
vn -0.109330 -0.990871 0.078882
vn -0.142717 -0.790237 0.595951
vn -0.159395 -0.784060 0.599869
vn -0.572464 -0.527423 0.627782
vn -0.572464 -0.527423 0.627782
vn -0.211925 -0.016360 -0.977149
vn -0.329750 -0.483059 -0.811122
vn -0.807522 -0.252977 -0.532833
vn -0.638153 0.176395 -0.749430
vn 0.184221 0.767033 -0.614592
vn 0.193875 0.762861 -0.616811
vn -0.188364 0.856492 -0.480562
vn -0.188364 0.856492 -0.480562
vn 0.406308 0.538539 0.738166
vn 0.485831 0.795290 0.362603
vn -0.101438 0.924425 0.367625
vn -0.146843 0.585410 0.797328
vn -0.902344 0.395628 0.171039
vn -0.902344 0.395628 0.171039
vn -0.760539 0.646091 -0.064397
vn -0.760539 0.646091 -0.064397
vn 0.945745 -0.036232 -0.322884
vn 0.924010 -0.371303 -0.091317
vn 0.913133 -0.402164 -0.066732
vn 0.945745 -0.036232 -0.322884
vn -0.464711 -0.824085 -0.323924
vn -0.785145 -0.574431 -0.231467
vn -0.907535 0.027568 0.419071
vn -0.907535 0.027568 0.419071
vn 0.305086 0.095044 0.947570
vn -0.152739 0.246068 0.957142
vn 0.686101 -0.695777 0.212509
vn 0.686101 -0.695777 0.212509
vn 0.676564 0.310577 0.667684
vn 0.528089 0.002256 0.849186
vn 0.718853 0.621767 0.310896
vn 0.386219 0.658051 -0.646378
vn 0.386219 0.658051 -0.646378
vn 0.018213 -0.600194 -0.799647
vn 0.139890 -0.156186 -0.977771
vn -0.125342 -0.924994 -0.358713
vn 0.098871 -0.849157 0.518803
vn 0.098871 -0.849157 0.518803
vn -0.411617 0.908546 -0.071529
vn -0.543032 0.835415 -0.084841
vn -0.498232 0.604793 0.621281
vn -0.348627 0.688047 0.636436
vn 0.542563 -0.835725 0.084795
vn 0.870408 0.484370 0.088178
vn -0.041096 0.066879 0.996914
vn 0.340010 -0.570422 0.747671
vn 0.412125 -0.908311 0.071582
vn 0.191032 -0.653326 0.732579
vn -0.870408 -0.484370 -0.088177
vn -0.188243 -0.015006 0.982008
vn 0.346623 -0.673823 -0.652545
vn 0.046485 -0.063925 -0.996872
vn 0.182974 0.012028 -0.983044
vn 0.489742 -0.594180 -0.638046
vn -0.326741 0.555850 -0.764376
vn -0.183019 0.635829 -0.749817
vn -0.686771 -0.136877 -0.713870
vn -0.673941 -0.144079 -0.724599
vn -0.258222 -0.313224 -0.913899
vn -0.258222 -0.313224 -0.913899
vn 0.181893 -0.679686 0.710593
vn -0.189525 -0.883574 0.428226
vn 0.208199 -0.978041 -0.009425
vn 0.527769 -0.780438 0.335225
vn 0.648846 0.146606 0.746663
vn 0.640890 0.150535 0.752727
vn 0.888231 -0.011137 0.459262
vn 0.888231 -0.011137 0.459262
vn 0.209737 0.924627 -0.317923
vn 0.435479 0.896273 0.083983
vn 0.822888 0.532715 -0.197660
vn 0.503542 0.577948 -0.642200
vn 0.752249 -0.384218 -0.535255
vn 0.752247 -0.384218 -0.535258
vn 0.929415 -0.295936 -0.220476
vn 0.929415 -0.295936 -0.220476
vn -0.441713 0.494338 0.748679
vn -0.748937 0.453034 0.483584
vn -0.773408 0.444561 0.451892
vn -0.441713 0.494338 0.748679
vn -0.474495 -0.873256 -0.110806
vn -0.114622 -0.944369 -0.308267
vn 0.406674 -0.419480 -0.811574
vn 0.406674 -0.419481 -0.811574
vn -0.153378 0.766076 -0.624181
vn 0.192301 0.508022 -0.839603
vn -0.953009 0.298942 0.049064
vn -0.953009 0.298942 0.049064
vn -0.109813 0.980864 -0.160770
vn -0.329320 0.833407 -0.443826
vn 0.179285 0.959807 0.215936
vn 0.461866 0.227010 0.857406
vn 0.461866 0.227010 0.857406
vn -0.456187 -0.678513 0.575772
vn -0.105300 -0.488354 0.866269
vn -0.718285 -0.691789 0.074121
vn -0.843766 -0.029812 -0.535883
vn -0.843766 -0.029812 -0.535883
vn -0.412143 0.895734 -0.166729
vn -0.405332 0.895540 -0.183616
vn -0.178789 0.780397 -0.599179
vn -0.178789 0.780397 -0.599179
vn -0.488420 -0.857117 -0.163697
vn -0.821830 -0.492428 -0.286549
vn -0.500575 -0.377951 -0.778831
vn -0.222635 -0.767000 -0.601784
vn 0.384065 -0.899284 0.209244
vn 0.379623 -0.898842 0.219019
vn 0.515913 -0.839599 -0.170021
vn 0.515913 -0.839599 -0.170021
vn 0.837798 0.404927 0.366236
vn 0.885552 -0.044250 0.462428
vn 0.984196 -0.125249 -0.125183
vn 0.891177 0.412214 -0.189427
vn 0.402813 -0.075902 -0.912130
vn 0.402813 -0.075903 -0.912130
vn 0.513957 -0.396747 -0.760552
vn 0.513957 -0.396747 -0.760552
vn -0.158926 -0.227858 0.960637
vn -0.342668 0.134978 0.929709
vn -0.358289 0.170897 0.917836
vn -0.158926 -0.227858 0.960637
vn -0.891681 0.092811 -0.443048
vn -0.637666 0.041298 -0.769205
vn 0.198483 0.317858 -0.927131
vn 0.198483 0.317858 -0.927131
vn 0.545999 0.797171 0.257689
vn 0.669789 0.714833 -0.200990
vn -0.488792 0.547434 0.679263
vn -0.488792 0.547434 0.679263
vn 0.611886 0.463295 0.641056
vn 0.423956 0.764353 0.485825
vn 0.715311 0.002971 0.698800
vn 0.279094 -0.866799 0.413238
vn 0.279094 -0.866799 0.413238
vn -0.909000 -0.412283 0.061169
vn -0.601181 -0.776536 0.188608
vn -0.987016 0.124278 -0.101752
vn -0.493763 0.866026 0.078721
vn -0.493763 0.866026 0.078721
vn -0.535490 -0.429179 -0.727362
vn -0.443693 -0.547688 -0.709348
vn -0.731122 -0.681294 -0.036048
vn -0.835624 -0.546383 -0.056556
vn 0.444056 0.547266 0.709446
vn -0.607998 0.784922 -0.119315
vn -0.673068 -0.311723 0.670677
vn -0.127948 0.158736 0.978996
vn 0.535171 0.429639 0.727325
vn -0.023884 0.024390 0.999417
vn 0.608000 -0.784921 0.119314
vn -0.570284 -0.444415 0.690848
vn 0.835767 0.547966 0.035022
vn 0.669656 0.316720 -0.671751
vn 0.574319 0.439801 -0.690459
vn 0.735794 0.677030 0.015403
vn 0.146390 -0.140632 -0.979180
vn 0.045997 -0.011026 -0.998881
vn 0.568348 -0.242300 -0.786302
vn 0.565017 -0.259907 -0.783074
vn 0.409109 -0.684819 -0.603037
vn 0.409109 -0.684819 -0.603037
vn -0.977936 0.192741 -0.080571
vn -0.826070 0.092000 -0.556007
vn -0.773832 -0.485598 -0.406669
vn -0.949052 -0.312599 0.039790
vn -0.567489 0.290796 0.770321
vn -0.565459 0.301060 0.767866
vn -0.594598 -0.113421 0.795983
vn -0.594598 -0.113421 0.795983
vn 0.782901 -0.002424 0.622141
vn 0.443533 0.177611 0.878483
vn 0.212258 -0.376953 0.901583
vn 0.622182 -0.534679 0.571847
vn -0.223771 -0.946136 0.233996
vn -0.223774 -0.946134 0.234000
vn -0.409938 -0.763482 0.499046
vn -0.409938 -0.763482 0.499046
vn 0.066723 0.990151 0.123080
vn 0.303054 0.930875 -0.204034
vn 0.324435 0.916086 -0.235645
vn 0.066723 0.990151 0.123080
vn -0.397194 -0.169190 -0.902004
vn -0.457785 -0.534246 -0.710643
vn 0.037124 -0.991813 -0.122185
vn 0.037124 -0.991813 -0.122185
vn 0.978796 -0.108619 0.173669
vn 0.798947 -0.550842 0.241363
vn 0.522491 0.645531 -0.557040
vn 0.522491 0.645531 -0.557040
vn 0.842541 0.305176 0.443838
vn 0.982016 0.146409 0.119202
vn 0.501118 0.435774 0.747651
vn -0.509485 0.503166 0.698032
vn -0.509485 0.503166 0.698032
vn -0.671907 0.421133 -0.609252
vn -0.831288 0.533562 -0.155791
vn -0.290386 0.167779 -0.942086
vn 0.594985 0.016123 -0.803575
vn 0.594985 0.016123 -0.803575
vn -0.535490 -0.429179 -0.727362
vn -0.443693 -0.547688 -0.709348
vn -0.731122 -0.681294 -0.036048
vn -0.835624 -0.546383 -0.056556
vn 0.444056 0.547266 0.709446
vn -0.607998 0.784922 -0.119315
vn -0.673068 -0.311723 0.670677
vn -0.127948 0.158736 0.978996
vn 0.535171 0.429639 0.727325
vn -0.023884 0.024390 0.999417
vn 0.608000 -0.784921 0.119314
vn -0.570284 -0.444415 0.690848
vn 0.835767 0.547966 0.035022
vn 0.669656 0.316720 -0.671751
vn 0.574319 0.439801 -0.690459
vn 0.735794 0.677030 0.015403
vn 0.146390 -0.140632 -0.979180
vn 0.045997 -0.011026 -0.998881
s 1
g pCube92
usemtl lambert3SG
f 18/18/1 13/19/2 2/20/3 4/21/4
s 2
f 16/9/5 17/10/6 10/1/7 6/4/8
s 3
f 15/29/9 16/30/10 6/31/11 8/32/12
s 4
f 14/7/13 15/8/14 8/3/15 11/2/16
s 5
f 10/1/17 11/2/18 8/3/19 6/4/20
s 6
f 7/12/21 12/13/22 9/14/23 5/15/24
s 2
f 17/10/6 18/11/25 4/6/26 10/1/7
s 5
f 2/5/27 11/2/18 10/1/17 4/6/28
s 4
f 13/19/29 14/24/13 11/25/16 2/20/30
s 6
f 9/14/23 12/13/22 1/16/31 3/17/32
s 4
f 12/26/33 14/24/13 13/19/29 1/22/34
f 7/34/35 15/29/14 14/37/13 12/38/33
s 3
f 5/33/36 16/30/10 15/29/9 7/34/37
s 2
f 9/35/38 17/36/6 16/30/5 5/33/39
f 3/23/40 18/18/25 17/27/6 9/28/38
s 1
f 1/22/41 13/19/2 18/18/1 3/23/42
s 7
f 36/39/43 31/40/44 20/41/45 22/42/46
s 8
f 34/43/47 35/44/48 28/45/49 24/46/50
s 9
f 33/47/51 34/48/52 24/49/53 26/50/54
s 10
f 32/51/55 33/52/56 26/53/57 29/54/58
s 11
f 28/45/59 29/54/60 26/53/61 24/46/62
s 12
f 25/55/63 30/56/64 27/57/65 23/58/66
s 8
f 35/44/48 36/59/67 22/60/68 28/45/49
s 11
f 20/61/69 29/54/60 28/45/59 22/60/70
s 10
f 31/40/71 32/62/55 29/63/58 20/41/72
s 12
f 27/57/65 30/56/64 19/64/73 21/65/74
s 10
f 30/66/75 32/62/55 31/40/71 19/67/76
f 25/68/77 33/47/56 32/69/55 30/70/75
s 9
f 23/71/78 34/48/52 33/47/51 25/68/79
s 8
f 27/72/80 35/73/48 34/48/47 23/71/81
f 21/74/82 36/39/67 35/75/48 27/76/80
s 7
f 19/67/83 31/40/44 36/39/43 21/74/84
s 13
f 54/77/85 49/78/86 38/79/87 40/80/88
f 52/81/89 53/82/90 46/83/91 42/84/92
f 51/85/93 52/86/89 42/87/92 44/88/94
f 50/89/95 51/90/93 44/91/94 47/92/96
f 46/93/91 47/94/96 44/88/94 42/87/92
f 43/95/97 48/96/98 45/97/99 41/98/100
f 53/82/90 54/99/85 40/100/88 46/83/91
f 38/79/87 47/94/96 46/93/91 40/80/88
f 49/101/86 50/89/95 47/92/96 38/102/87
f 45/97/99 48/96/98 37/103/101 39/104/102
f 48/105/98 50/89/95 49/101/86 37/106/101
f 43/107/97 51/90/93 50/89/95 48/105/98
f 41/108/100 52/86/89 51/85/93 43/109/97
f 45/110/99 53/82/90 52/81/89 41/111/100
f 39/112/102 54/99/85 53/82/90 45/110/99
f 37/103/101 49/78/86 54/77/85 39/104/102
s 15
f 72/113/103 67/114/104 56/115/105 58/116/106
s 16
f 70/117/107 71/118/108 64/119/109 60/120/110
s 17
f 69/121/111 70/122/112 60/123/113 62/124/114
s 18
f 68/125/115 69/126/116 62/127/117 65/128/118
s 19
f 64/119/119 65/128/120 62/127/121 60/120/122
s 20
f 61/129/123 66/130/124 63/131/125 59/132/126
s 16
f 71/118/108 72/133/127 58/134/128 64/119/109
s 19
f 56/135/129 65/128/120 64/119/119 58/134/130
s 18
f 67/114/131 68/136/115 65/137/118 56/115/132
s 20
f 63/131/125 66/130/124 55/138/133 57/139/134
s 18
f 66/140/135 68/136/115 67/114/131 55/141/136
f 61/142/137 69/121/116 68/143/115 66/144/135
s 17
f 59/145/138 70/122/112 69/121/111 61/142/139
s 16
f 63/146/140 71/147/108 70/122/107 59/145/141
f 57/148/142 72/113/127 71/149/108 63/150/140
s 15
f 55/141/143 67/114/104 72/113/103 57/148/144
s 21
f 90/151/145 85/152/146 74/153/147 76/154/148
s 22
f 88/155/149 89/156/150 82/157/151 78/158/152
s 23
f 87/159/153 88/160/154 78/161/155 80/162/156
s 24
f 86/163/157 87/164/158 80/165/159 83/166/160
s 25
f 82/157/161 83/166/162 80/165/163 78/158/164
s 26
f 79/167/165 84/168/166 81/169/167 77/170/168
s 22
f 89/156/150 90/171/169 76/172/170 82/157/151
s 25
f 74/173/171 83/166/162 82/157/161 76/172/172
s 24
f 85/152/173 86/174/157 83/175/160 74/153/174
s 26
f 81/169/167 84/168/166 73/176/175 75/177/176
s 24
f 84/178/177 86/174/157 85/152/173 73/179/178
f 79/180/179 87/159/158 86/181/157 84/182/177
s 23
f 77/183/180 88/160/154 87/159/153 79/180/181
s 22
f 81/184/182 89/185/150 88/160/149 77/183/183
f 75/186/184 90/151/169 89/187/150 81/188/182
s 21
f 73/179/185 85/152/146 90/151/145 75/186/186
s 27
f 108/189/187 103/190/188 92/191/189 94/192/190
f 106/193/191 107/194/192 100/195/193 96/196/194
f 105/197/195 106/198/191 96/199/194 98/200/196
f 104/201/197 105/202/195 98/203/196 101/204/198
f 100/205/193 101/206/198 98/200/196 96/199/194
f 97/207/199 102/208/200 99/209/201 95/210/202
f 107/194/192 108/211/187 94/212/190 100/195/193
f 92/191/189 101/206/198 100/205/193 94/192/190
f 103/213/188 104/201/197 101/204/198 92/214/189
f 99/209/201 102/208/200 91/215/203 93/216/204
f 102/217/200 104/201/197 103/213/188 91/218/203
f 97/219/199 105/202/195 104/201/197 102/217/200
f 95/220/202 106/198/191 105/197/195 97/221/199
f 99/222/201 107/194/192 106/193/191 95/223/202
f 93/224/204 108/211/187 107/194/192 99/222/201
f 91/215/203 103/190/188 108/189/187 93/216/204
s 29
f 126/225/205 121/226/206 110/227/207 112/228/208
s 30
f 124/229/209 125/230/210 118/231/211 114/232/212
s 31
f 123/233/213 124/234/214 114/235/215 116/236/216
s 32
f 122/237/217 123/238/218 116/239/219 119/240/220
s 33
f 118/231/221 119/240/222 116/239/223 114/232/224
s 34
f 115/241/225 120/242/226 117/243/227 113/244/228
s 30
f 125/230/210 126/245/229 112/246/230 118/231/211
s 33
f 110/247/231 119/240/222 118/231/221 112/246/232
s 32
f 121/226/233 122/248/217 119/249/220 110/227/234
s 34
f 117/243/227 120/242/226 109/250/235 111/251/236
s 32
f 120/252/237 122/248/217 121/226/233 109/253/238
f 115/254/239 123/233/218 122/255/217 120/256/237
s 31
f 113/257/240 124/234/214 123/233/213 115/254/241
s 30
f 117/258/242 125/259/210 124/234/209 113/257/243
f 111/260/244 126/225/229 125/261/210 117/262/242
s 29
f 109/253/245 121/226/206 126/225/205 111/260/246
s 35
f 144/263/247 139/264/248 128/265/249 130/266/250
s 36
f 142/267/251 143/268/252 136/269/253 132/270/254
s 37
f 141/271/255 142/272/256 132/273/257 134/274/258
s 38
f 140/275/259 141/276/260 134/277/261 137/278/262
s 39
f 136/269/263 137/278/264 134/277/265 132/270/266
s 40
f 133/279/267 138/280/268 135/281/269 131/282/270
s 36
f 143/268/252 144/283/271 130/284/272 136/269/253
s 39
f 128/285/273 137/278/264 136/269/263 130/284/274
s 38
f 139/264/275 140/286/259 137/287/262 128/265/276
s 40
f 135/281/269 138/280/268 127/288/277 129/289/278
s 38
f 138/290/279 140/286/259 139/264/275 127/291/280
f 133/292/281 141/271/260 140/293/259 138/294/279
s 37
f 131/295/282 142/272/256 141/271/255 133/292/283
s 36
f 135/296/284 143/297/252 142/272/251 131/295/285
f 129/298/286 144/263/271 143/299/252 135/300/284
s 35
f 127/291/287 139/264/248 144/263/247 129/298/288
s 41
f 162/301/289 157/302/290 146/303/291 148/304/292
f 160/305/293 161/306/294 154/307/295 150/308/296
f 159/309/297 160/310/293 150/311/296 152/312/298
f 158/313/299 159/314/297 152/315/298 155/316/300
f 154/317/295 155/318/300 152/312/298 150/311/296
f 151/319/301 156/320/302 153/321/303 149/322/304
f 161/306/294 162/323/289 148/324/292 154/307/295
f 146/303/291 155/318/300 154/317/295 148/304/292
f 157/325/290 158/313/299 155/316/300 146/326/291
f 153/321/303 156/320/302 145/327/305 147/328/306
f 156/329/302 158/313/299 157/325/290 145/330/305
f 151/331/301 159/314/297 158/313/299 156/329/302
f 149/332/304 160/310/293 159/309/297 151/333/301
f 153/334/303 161/306/294 160/305/293 149/335/304
f 147/336/306 162/323/289 161/306/294 153/334/303
f 145/327/305 157/302/290 162/301/289 147/328/306
s 43
f 180/337/307 175/338/308 164/339/309 166/340/310
s 44
f 178/341/311 179/342/312 172/343/313 168/344/314
s 45
f 177/345/315 178/346/316 168/347/317 170/348/318
s 46
f 176/349/319 177/350/320 170/351/321 173/352/322
s 47
f 172/343/323 173/352/324 170/351/325 168/344/326
s 48
f 169/353/327 174/354/328 171/355/329 167/356/330
s 44
f 179/342/312 180/357/331 166/358/332 172/343/313
s 47
f 164/359/333 173/352/324 172/343/323 166/358/334
s 46
f 175/338/335 176/360/319 173/361/322 164/339/336
s 48
f 171/355/329 174/354/328 163/362/337 165/363/338
s 46
f 174/364/339 176/360/319 175/338/335 163/365/340
f 169/366/341 177/345/320 176/367/319 174/368/339
s 45
f 167/369/342 178/346/316 177/345/315 169/366/343
s 44
f 171/370/344 179/371/312 178/346/311 167/369/345
f 165/372/346 180/337/331 179/373/312 171/374/344
s 43
f 163/365/347 175/338/308 180/337/307 165/372/348
s 49
f 198/375/349 193/376/350 182/377/351 184/378/352
f 196/379/353 197/380/354 190/381/355 186/382/356
f 195/383/357 196/384/353 186/385/356 188/386/358
f 194/387/359 195/388/357 188/389/358 191/390/360
f 190/391/355 191/392/360 188/386/358 186/385/356
f 187/393/361 192/394/362 189/395/363 185/396/364
f 197/380/354 198/397/349 184/398/352 190/381/355
f 182/377/351 191/392/360 190/391/355 184/378/352
f 193/399/350 194/387/359 191/390/360 182/400/351
f 189/395/363 192/394/362 181/401/365 183/402/366
f 192/403/362 194/387/359 193/399/350 181/404/365
f 187/405/361 195/388/357 194/387/359 192/403/362
f 185/406/364 196/384/353 195/383/357 187/407/361
f 189/408/363 197/380/354 196/379/353 185/409/364
f 183/410/366 198/397/349 197/380/354 189/408/363
f 181/401/365 193/376/350 198/375/349 183/402/366
