# This file uses centimeters as units for non-parametric coordinates.

mtllib M_CliffRock2.mtl
g default
v -1.398190 15.811603 1.264135
v 1.656121 15.963832 0.926300
v -1.386025 15.833274 -1.423285
v 1.746103 15.986316 -1.378721
v -0.481996 15.878856 -1.590194
v -0.470157 15.853645 1.698457
v 1.268689 15.941762 1.321133
v 1.256928 15.966806 -1.945653
v 0.566075 15.932954 -1.943426
v 0.579174 15.905061 1.695074
v -1.963806 15.802833 -1.149840
v 2.021064 15.995515 -0.834703
v -2.069202 15.789382 -0.092879
v 1.980007 15.987789 -0.105936
v -1.902318 15.790842 0.763151
v 1.872357 15.979141 0.324597
v -2.277336 7.709153 -2.844107
v -0.430766 6.604166 -3.118501
v 1.524988 8.273109 -3.665867
v 3.361732 7.852605 -3.328557
v 3.813497 8.748178 -2.771645
v 4.214615 9.059923 -1.982500
v 4.245122 7.488487 -0.758018
v 4.034462 8.360725 0.833053
v 3.653348 9.155508 2.052737
v 2.626396 8.277345 2.671961
v 1.549934 8.219991 3.263086
v -3.045207 6.625365 0.156171
v -3.357952 7.640977 -0.899075
v -3.207957 8.029411 -2.147418
v -1.962930 10.979267 -2.353550
v -0.471052 11.054262 -2.599966
v 1.240446 11.142166 -3.120908
v 2.326393 11.195376 -3.124410
v 3.175587 11.230417 -2.289585
v 3.581097 11.243077 -1.371517
v 3.521047 11.230763 -0.176371
v 3.363061 11.216720 0.627717
v 3.044909 11.193270 1.631000
v 2.326187 11.153507 2.213169
v 0.547283 10.046596 2.402360
v -0.696334 11.003947 2.409040
v -1.849916 10.603859 1.847703
v -2.352458 9.862545 1.266122
v -2.970335 10.916533 -0.645215
v -2.813733 10.933526 -1.834105
v 0.229654 17.342176 -1.200759
v 0.644947 17.362524 -1.202098
v -1.291135 17.263956 -0.723711
v -0.400374 17.309656 -0.988421
v -0.943814 17.282255 -0.888088
v 1.104293 17.379783 -0.534272
v 0.939005 17.374252 -0.861299
v -1.354492 17.255870 -0.088339
v 1.079611 17.375139 -0.096188
v -1.254173 17.256748 0.426246
v 1.014900 17.369939 0.162618
v -0.951126 17.269228 0.727403
v -0.393257 17.294500 0.988487
v 0.237528 17.325408 0.986453
v 0.652017 17.347469 0.761667
v 0.884914 17.360736 0.524320
v 0.010016 17.651620 -0.568127
v 0.186288 17.660259 -0.568696
v -0.635485 17.618421 -0.365644
v -0.257400 17.637817 -0.478001
v -0.488064 17.626188 -0.435414
v 0.381258 17.667583 -0.285236
v 0.311101 17.665237 -0.424043
v -0.662378 17.614988 -0.095959
v 0.370782 17.665613 -0.099291
v -0.619797 17.615362 0.122457
v 0.343315 17.663406 0.010560
v -0.491168 17.620658 0.250284
v -0.254379 17.631385 0.361101
v 0.013358 17.644504 0.360238
v 0.189289 17.653869 0.264827
v 0.288142 17.659500 0.164085
v -0.115832 17.767942 -0.100138
v 1.695832 6.506560 3.478582
v 2.899088 7.562953 2.884218
v 3.924784 8.229691 2.252324
v 4.301355 7.646890 0.938114
v 4.521281 6.674240 -0.258458
v 2.993455 6.350456 -3.915050
v 1.669236 6.563190 -3.908653
v -0.429574 4.887156 -3.350999
v 1.907917 1.896627 4.516373
v 4.270903 1.970134 4.887468
v 2.101198 -1.347643 4.648762
v 4.446231 -1.235877 5.041368
v 6.366957 2.117267 2.964114
v 6.509771 -1.118776 2.995790
v 7.310372 -1.065816 1.242216
v 6.854224 2.114133 1.576641
v 6.274729 2.310962 -0.557784
v 6.612741 -1.085379 -0.619876
v 1.808288 3.357872 4.384290
v 3.769022 3.889251 4.536129
v 5.567825 4.694964 2.530792
v 6.163708 4.713684 1.376477
v 5.751708 4.803037 -0.838769
v -3.055372 3.890772 5.067591
v -1.093891 3.931461 6.230677
v -1.133472 5.379061 6.090724
v -2.976162 5.342872 4.948550
v 0.432233 5.431341 5.713544
v 0.541045 3.989564 5.849541
v -3.914565 5.354550 3.955995
v -4.168469 3.931425 3.991894
v -3.121432 -1.608629 5.313609
v -0.934119 -1.511303 6.562541
v -1.042851 1.655432 6.445962
v -3.174410 1.597285 5.256104
v 0.711587 1.725422 6.058621
v 0.907704 -1.418210 6.193829
v -4.324406 1.885497 4.059355
v -4.317436 -1.657705 4.102716
v -0.167298 6.779317 5.398233
v -1.148289 7.773211 5.345290
v -2.739187 7.392176 4.626362
v -3.193997 6.670862 3.833601
v 1.167366 6.805197 5.058850
v 0.500085 8.694800 4.604626
v -0.823934 9.661708 4.580223
v -2.555696 9.257248 3.820820
v -3.068287 8.527236 2.900293
v -3.836105 6.641331 3.167446
v 1.308862 5.049926 5.253736
v 0.774312 0.615974 6.089990
v -0.995596 0.370265 6.476777
v -1.675225 13.159865 -1.895748
v -0.471889 13.220436 -2.104739
v 0.914968 13.291821 -2.546781
v 1.809972 13.335676 -2.549667
v 2.480140 13.362937 -1.840777
v 2.824233 13.374037 -1.107429
v 2.773080 13.363951 -0.140788
v 2.638716 13.352543 0.474780
v 2.368454 13.332990 1.280381
v 1.816722 13.302095 1.774425
v 0.731711 13.245279 2.242841
v -0.456223 13.187077 2.246672
v -1.689582 13.130928 1.703688
v -2.176203 13.112429 1.023593
v -2.529304 13.104140 -0.123690
v -2.397681 13.121386 -1.500812
v -4.156292 3.154934 -4.426762
v -5.630461 3.456694 -3.102964
v -4.990652 4.558297 -2.973546
v -4.027061 4.242150 -4.234228
v -2.397185 3.107736 -4.603071
v -2.388516 2.014875 -4.752215
v -5.173744 4.143676 -0.894756
v -5.685044 3.023464 -0.549696
v -2.366471 0.239607 -4.993096
v -4.342702 1.360753 -4.637675
v -2.336754 -1.487832 -5.189424
v -4.346412 -1.589766 -4.741391
v -5.724717 -1.669107 -3.231550
v -5.813614 1.647045 -3.190611
v -5.841259 1.225262 -0.583722
v -5.837649 -1.695025 -0.631897
v -4.799484 5.378429 -0.944609
v -4.507595 5.786526 -2.588945
v -3.344201 5.479003 -3.586550
v -1.644575 4.573898 -4.410845
v -0.995397 3.086115 -4.046862
v -0.932663 1.041262 -4.336619
v -0.839353 -1.419292 -4.578249
v -3.360862 5.068442 0.529510
v -3.720082 3.572796 1.234224
v -4.053718 2.478882 1.777650
v -4.197277 0.682317 1.839217
v -4.216010 -1.635626 1.920748
v 1.288439 2.584071 5.177943
v 1.373240 1.292593 5.258587
v 1.529807 -1.381428 5.388470
v 5.941790 4.926573 -3.830856
v 6.468685 4.922730 -2.864891
v 7.182279 3.904523 -3.148549
v 6.656356 3.914569 -4.210383
v 5.201197 3.844288 -5.070134
v 4.875992 4.881945 -4.343278
v 6.496914 4.900096 -2.165097
v 7.181027 3.873212 -2.003857
v 7.683328 2.173127 -1.512851
v 7.504122 2.193700 -3.262587
v 8.001553 -1.009959 -1.563916
v 7.800590 -1.005617 -3.372666
v 6.957996 2.198854 -4.450341
v 7.210897 -1.024769 -4.612941
v 5.351728 2.123980 -5.355619
v 6.002091 -1.076462 -5.570289
v 1.876282 -1.270016 -6.654048
v 1.621195 2.515255 -6.448349
v 4.387449 2.097383 -5.112033
v 4.792815 -1.136850 -5.421598
v 1.451143 4.400976 -6.166807
v 4.017875 3.648008 -4.772463
v 3.660044 5.560761 -4.689765
v 3.932603 7.035718 -3.402018
v 4.727394 7.071620 -3.248496
v 5.236331 7.077621 -2.276481
v 4.725055 7.036146 -1.390424
v 5.370764 5.554258 -0.732999
v -0.816127 3.985086 -3.670932
v 1.575499 5.775368 -5.330026
v 2.771026 -1.315138 4.686886
v 2.813567 1.923044 4.557824
v 2.727607 3.651306 4.312337
v 3.474974 6.134898 3.716472
v 4.815423 6.584645 2.479763
v 5.288192 6.469343 1.446664
v 4.293500 5.750186 -3.983745
v 5.552583 5.806169 -3.621989
v 6.072159 5.806336 -2.653558
v 5.880764 5.775503 -1.809772
v -4.566641 3.467445 0.190313
v -5.169874 2.421653 0.376070
v -5.228277 0.593468 0.516887
v -5.152786 -1.671847 0.688948
v -3.232858 5.699803 0.378114
v -4.214915 6.295935 -0.926144
v -3.980567 6.696060 -2.409897
v -2.911567 6.383372 -3.285476
v -1.238789 5.266058 -3.862752
v 0.215418 -1.357481 -5.873077
v 0.052631 1.671990 -5.646879
v -0.056192 3.648502 -5.360649
v 0.209878 4.756309 -4.691623
v 0.471787 5.606950 -3.590491
v 0.409158 7.320915 -3.353575
v 0.263973 11.092013 -2.823691
v 0.123715 13.251093 -2.294580
v -0.031889 15.902090 -1.741894
v -0.129800 17.323621 -1.079613
v -0.142555 17.643745 -0.516707
v 2.213459 8.306844 -3.668087
v 2.397197 6.446245 -3.912169
v 2.580543 5.673625 -5.257871
v 2.819283 4.054453 -5.951592
v 3.003469 2.338065 -6.266418
v 3.323450 -1.200204 -6.518787
vt 0.124300 0.187804
vt 0.058144 0.200999
vt 0.054026 0.165941
vt 0.135281 0.152154
vt 0.122714 0.227099
vt 0.070384 0.240086
vt 0.011897 0.156338
vt 0.018024 0.190938
vt 0.051236 0.108351
vt 0.134198 0.094928
vt 0.164743 0.133002
vt 0.158831 0.166283
vt 0.123301 0.256298
vt 0.076082 0.269031
vt 0.038636 0.230300
vt 0.005185 0.099240
vt 0.049934 0.002817
vt 0.132665 0.001992
vt 0.169224 0.074821
vt 0.209347 0.134823
vt 0.192053 0.169636
vt 0.124163 0.299103
vt 0.084435 0.311464
vt 0.164808 0.237326
vt 0.169626 0.217234
vt 0.001884 0.005342
vt 0.174700 0.002730
vt 0.211306 0.077649
vt 0.278671 0.226339
vt 0.279814 0.181049
vt 0.132241 0.403344
vt 0.094406 0.403885
vt 0.157745 0.266782
vt 0.253576 0.267290
vt 0.213901 0.003882
vt 0.281961 0.115939
vt 0.310258 0.225967
vt 0.314047 0.179755
vt 0.148839 0.472963
vt 0.105013 0.473512
vt 0.062264 0.301272
vt 0.077875 0.405341
vt 0.193068 0.369802
vt 0.245074 0.327307
vt 0.274776 0.268229
vt 0.283340 0.003180
vt 0.320046 0.106767
vt 0.300005 0.291185
vt 0.351061 0.181050
vt 0.346607 0.227119
vt 0.116182 0.558847
vt 0.149819 0.558419
vt 0.185350 0.473227
vt 0.211577 0.393394
vt 0.274369 0.350539
vt 0.321876 0.004742
vt 0.177062 0.558465
vt 0.149964 0.605089
vt 0.129743 0.605346
vt 0.206993 0.473816
vt 0.193005 0.559126
vt 0.166340 0.605116
vt 0.175924 0.605514
vt 0.787043 0.683226
vt 0.736408 0.710984
vt 0.733065 0.688267
vt 0.771145 0.657313
vt 0.768532 0.802320
vt 0.742943 0.801874
vt 0.691241 0.706814
vt 0.697593 0.736277
vt 0.716881 0.650792
vt 0.786247 0.621670
vt 0.807169 0.668830
vt 0.767400 0.870207
vt 0.747810 0.869844
vt 0.711014 0.801127
vt 0.806567 0.802712
vt 0.826011 0.733235
vt 0.684003 0.654462
vt 0.719114 0.594920
vt 0.789613 0.597763
vt 0.820514 0.628711
vt 0.835367 0.670150
vt 0.752590 0.953434
vt 0.766291 0.953709
vt 0.722172 0.869222
vt 0.798163 0.870528
vt 0.835784 0.802309
vt 0.851125 0.723314
vt 0.682379 0.594324
vt 0.712744 0.512191
vt 0.780671 0.518455
vt 0.826691 0.568173
vt 0.831822 0.600852
vt 0.847367 0.629693
vt 0.866300 0.669959
vt 0.733441 0.952946
vt 0.789483 0.953955
vt 0.765981 0.997860
vt 0.757744 0.997695
vt 0.706450 0.868239
vt 0.692487 0.799862
vt 0.821501 0.870175
vt 0.868848 0.694813
vt 0.862351 0.801194
vt 0.644646 0.640149
vt 0.618561 0.568683
vt 0.668589 0.512291
vt 0.723387 0.410992
vt 0.782647 0.410369
vt 0.811065 0.514069
vt 0.854092 0.601573
vt 0.863120 0.569169
vt 0.878186 0.629687
vt 0.746233 0.997402
vt 0.720876 0.952244
vt 0.806796 0.953662
vt 0.779922 0.998008
vt 0.844061 0.869307
vt 0.607380 0.507609
vt 0.667581 0.409307
vt 0.812690 0.412770
vt 0.866749 0.514723
vt 0.884833 0.601695
vt 0.896912 0.569489
vt 0.738680 0.996980
vt 0.824838 0.953041
vt 0.790330 0.997832
vt 0.602482 0.405580
vt 0.870252 0.412908
vt 0.904548 0.514888
vt 0.801175 0.997459
vt 0.909723 0.412298
vt 0.940189 0.410653
vt 0.933358 0.512505
vt 0.732190 0.219649
vt 0.734603 0.141175
vt 0.759860 0.165801
vt 0.788683 0.266005
vt 0.713230 0.185904
vt 0.706576 0.113849
vt 0.732036 0.100075
vt 0.755656 0.119298
vt 0.795541 0.320533
vt 0.738393 0.275509
vt 0.717557 0.231787
vt 0.705577 0.078542
vt 0.751443 0.016051
vt 0.727903 0.014976
vt 0.822933 0.378664
vt 0.752848 0.335644
vt 0.702273 0.013806
vt 0.822721 0.409131
vt 0.753625 0.366415
vt 0.081313 0.423511
vt 0.048831 0.448055
vt 0.027539 0.412800
vt 0.069350 0.394902
vt 0.091495 0.452219
vt 0.083873 0.475126
vt 0.028514 0.480486
vt 0.001884 0.436747
vt 0.018430 0.349899
vt 0.060128 0.329827
vt 0.073748 0.505557
vt 0.052439 0.251522
vt 0.011232 0.253489
vt 0.572405 0.070252
vt 0.572363 0.083469
vt 0.552230 0.090458
vt 0.552248 0.084849
vt 0.568507 0.094908
vt 0.550593 0.095314
vt 0.537336 0.094463
vt 0.561559 0.060894
vt 0.547644 0.080877
vt 0.565605 0.103519
vt 0.549361 0.098969
vt 0.551152 0.055634
vt 0.543227 0.078644
vt 0.562412 0.120813
vt 0.548006 0.106309
vt 0.537211 0.056419
vt 0.537309 0.078977
vt 0.557181 0.131866
vt 0.545786 0.111001
vt 0.528974 0.058479
vt 0.533813 0.079851
vt 0.536961 0.133883
vt 0.537203 0.111857
vt 0.517463 0.062616
vt 0.528928 0.081607
vt 0.520584 0.130690
vt 0.530252 0.110502
vt 0.509910 0.070027
vt 0.525721 0.084753
vt 0.511000 0.121046
vt 0.526184 0.106408
vt 0.502756 0.083218
vt 0.522685 0.090352
vt 0.502692 0.103292
vt 0.522658 0.098873
vt 0.574800 0.202345
vt 0.538088 0.220210
vt 0.515627 0.157417
vt 0.570739 0.133249
vt 0.255040 0.452518
vt 0.255152 0.429352
vt 0.297978 0.423517
vt 0.300274 0.455502
vt 0.255244 0.410376
vt 0.279898 0.389163
vt 0.236579 0.398656
vt 0.238917 0.380489
vt 0.610034 0.308299
vt 0.575777 0.306474
vt 0.580420 0.251946
vt 0.618713 0.285564
vt 0.600481 0.399831
vt 0.543868 0.364604
vt 0.637040 0.240118
vt 0.642716 0.336246
vt 0.651355 0.306783
vt 0.584267 0.468208
vt 0.549738 0.466400
vt 0.623353 0.401096
vt 0.583999 0.151741
vt 0.613255 0.161079
vt 0.679698 0.254431
vt 0.544883 0.551045
vt 0.566827 0.552213
vt 0.511933 0.464547
vt 0.504291 0.395071
vt 0.615991 0.106079
vt 0.587169 0.105238
vt 0.646398 0.168652
vt 0.511489 0.549409
vt 0.547202 0.596949
vt 0.534011 0.596246
vt 0.467580 0.382339
vt 0.472682 0.462761
vt 0.662369 0.107578
vt 0.614637 0.003027
vt 0.593321 0.001992
vt 0.481955 0.548071
vt 0.513937 0.595263
vt 0.667949 0.005549
vt 0.496183 0.594459
vt 0.515151 0.290182
vt 0.520998 0.349394
vt 0.497832 0.345672
vt 0.493241 0.291255
vt 0.539974 0.352442
vt 0.551694 0.304637
vt 0.459724 0.376103
vt 0.457731 0.321558
vt 0.484186 0.199950
vt 0.518745 0.198256
vt 0.431039 0.399010
vt 0.431001 0.344368
vt 0.453110 0.201546
vt 0.473828 0.131539
vt 0.502310 0.130143
vt 0.418737 0.427718
vt 0.405286 0.386952
vt 0.429719 0.202747
vt 0.448647 0.132835
vt 0.462724 0.047487
vt 0.484710 0.046410
vt 0.413032 0.456327
vt 0.392372 0.408979
vt 0.372235 0.309202
vt 0.352051 0.351395
vt 0.382241 0.205134
vt 0.429692 0.133811
vt 0.443695 0.048469
vt 0.452018 0.002640
vt 0.465234 0.001992
vt 0.368697 0.490418
vt 0.368421 0.455639
vt 0.338283 0.380175
vt 0.342619 0.299011
vt 0.318031 0.341443
vt 0.391397 0.135738
vt 0.429370 0.049209
vt 0.440579 0.003230
vt 0.415028 0.521403
vt 0.369399 0.546915
vt 0.316552 0.419537
vt 0.312439 0.454137
vt 0.301259 0.370389
vt 0.400600 0.050659
vt 0.355165 0.206590
vt 0.368405 0.136963
vt 0.431968 0.003675
vt 0.417998 0.599708
vt 0.370344 0.601889
vt 0.306507 0.511235
vt 0.414673 0.004547
vt 0.382213 0.051628
vt 0.306389 0.605133
vt 0.403620 0.005129
vt 0.920538 0.246031
vt 0.870711 0.244367
vt 0.871970 0.198298
vt 0.924001 0.200147
vt 0.901458 0.288929
vt 0.870239 0.320559
vt 0.873595 0.125866
vt 0.929428 0.128093
vt 0.922697 0.349888
vt 0.880561 0.380659
vt 0.812069 0.243215
vt 0.819610 0.308433
vt 0.943933 0.289753
vt 0.805760 0.124015
vt 0.809548 0.197004
vt 0.875099 0.084966
vt 0.931424 0.092786
vt 0.825450 0.367787
vt 0.877055 0.025087
vt 0.935669 0.028050
vt 0.807446 0.021990
vt 0.377542 0.832757
vt 0.369424 0.712294
vt 0.413414 0.717933
vt 0.423597 0.830535
vt 0.324687 0.835540
vt 0.319506 0.739130
vt 0.407553 0.663310
vt 0.364013 0.652282
vt 0.457458 0.725592
vt 0.470359 0.828519
vt 0.316043 0.676229
vt 0.445697 0.676245
vt 0.367970 0.608544
vt 0.399955 0.611781
vt 0.488146 0.724746
vt 0.508843 0.826597
vt 0.434309 0.615373
vt 0.483355 0.669999
vt 0.442983 0.568434
vt 0.454468 0.609345
vt 0.473006 0.636976
vt 0.539264 0.722363
vt 0.529664 0.667762
vt 0.468277 0.567291
vt 0.494538 0.607563
vt 0.506924 0.635556
vt 0.424816 0.542437
vt 0.439193 0.513936
vn 0.271534 0.280817 0.920549
vn 0.581490 0.388742 0.714667
vn 0.627286 0.236609 0.741976
vn 0.331862 0.390070 0.858902
vn 0.140258 0.177029 -0.974160
vn 0.190220 0.553145 -0.811078
vn -0.334020 0.466106 -0.819254
vn -0.253330 0.135254 -0.957878
vn 0.540725 0.562183 -0.625753
vn 0.805374 0.554767 -0.208822
vn 0.906366 0.355870 -0.227724
vn 0.648775 0.360272 -0.670295
vn -0.425374 0.179963 -0.886944
vn -0.913039 0.247901 -0.323891
vn -0.818887 0.453457 -0.351854
vn -0.360146 0.372922 -0.855117
vn 0.071417 0.175597 -0.981868
vn 0.118228 0.127431 -0.984776
vn -0.586884 0.089953 0.804659
vn -0.212546 0.098152 0.972209
vn -0.234351 0.189577 0.953488
vn -0.597837 0.181933 0.780699
vn 0.770152 0.297877 0.564035
vn 0.655675 0.486228 0.577644
vn 0.199767 0.325736 -0.924115
vn 0.114246 0.495741 -0.860923
vn -0.574127 0.445972 -0.686650
vn -0.335625 0.115917 -0.934837
vn 0.317130 0.193234 0.928488
vn 0.419138 0.087078 0.903737
vn 0.813716 0.504902 0.287994
vn 0.842052 0.343812 0.415621
vn -0.889220 0.421805 0.177112
vn -0.945602 0.246937 0.211799
vn 0.939070 0.289756 0.184901
vn 0.963825 0.250107 0.092128
vn 0.869049 0.493229 -0.038446
vn 0.837600 0.539346 -0.086790
vn -0.977063 0.162737 0.137347
vn -0.960946 0.251749 0.114915
vn -0.978811 0.164921 0.121364
vn -0.963887 0.139574 0.226808
vn -0.603403 0.009131 0.797384
vn -0.254808 0.031198 0.966488
vn -0.236842 0.028433 0.971132
vn -0.604243 0.040944 0.795748
vn 0.473461 0.064746 0.878432
vn 0.455285 0.069818 0.887604
vn -0.158726 0.038760 0.986562
vn -0.157367 0.066188 0.985320
vn 0.384923 0.086307 0.918905
vn 0.430945 0.064220 0.900090
vn 0.776155 0.163989 0.608845
vn 0.437503 0.143645 0.887670
vn 0.405379 0.054755 0.912508
vn 0.789601 0.060965 0.610584
vn 0.993465 0.112341 -0.020171
vn 0.985105 0.169789 0.027185
vn 0.959524 0.195695 0.202528
vn 0.959223 0.113512 0.258855
vn 0.961070 0.136758 -0.240087
vn 0.880355 0.150092 0.449941
vn 0.911592 0.082464 0.402741
vn 0.964309 0.098005 -0.245975
vn 0.712288 0.147443 -0.686226
vn 0.726625 0.116322 -0.677115
vn 0.304351 0.105350 -0.946717
vn 0.238156 0.129884 -0.962503
vn -0.195640 0.050620 -0.979368
vn -0.207901 0.086409 -0.974326
vn 0.413855 0.144902 -0.898737
vn 0.406444 0.107768 -0.907298
vn -0.602136 0.024193 -0.798027
vn -0.621260 0.040922 -0.782535
vn -0.488586 0.072884 -0.869466
vn 0.064666 0.098850 -0.992999
vn 0.040457 0.083347 -0.995699
vn -0.520459 0.030834 -0.853330
vn -0.938891 -0.005711 -0.344167
vn -0.936905 0.044450 -0.346746
vn -0.991223 0.024842 0.129849
vn -0.992156 -0.011078 0.124514
vn -0.948474 0.044744 0.313682
vn -0.978772 0.033639 0.202173
vn -0.980797 0.009645 0.194791
vn -0.945743 0.002593 0.324906
vn -0.274005 0.174075 -0.945843
vn -0.197675 0.155628 -0.967835
vn -0.127772 0.204306 -0.970533
vn -0.209162 0.236541 -0.948841
vn -0.320825 0.150059 -0.935176
vn -0.134110 0.185355 -0.973477
vn 0.300832 0.281375 -0.911223
vn 0.375579 0.261767 -0.889055
vn 0.673369 0.349996 -0.651212
vn 0.736269 0.324103 -0.594025
vn 0.953856 0.287114 -0.087887
vn 0.947688 0.309405 -0.078461
vn 0.964345 0.242005 0.107112
vn 0.948021 0.266116 0.174467
vn 0.786407 0.299401 0.540299
vn 0.305279 0.221433 0.926160
vn 0.356291 0.431031 0.829017
vn 0.230538 0.306419 0.923558
vn -0.212922 0.332397 0.918791
vn -0.634864 0.293362 0.714763
vn -0.800242 0.315083 0.510231
vn -0.959067 0.226396 0.170102
vn -0.979866 0.124476 0.156103
vn -0.951890 0.198878 0.233136
vn -0.962303 0.243823 0.120509
vn -0.858365 0.195112 -0.474491
vn -0.829876 0.293664 -0.474413
vn -0.301286 0.211921 -0.929686
vn -0.221577 0.201994 -0.953993
vn -0.306891 0.192032 -0.932170
vn -0.157482 0.217939 -0.963173
vn 0.377489 0.308844 -0.872994
vn 0.767043 0.333168 -0.548310
vn 0.930461 0.329796 -0.159616
vn 0.944320 0.308302 0.114931
vn 0.913704 0.306827 0.266463
vn 0.798482 0.307318 0.517670
vn 0.403163 0.208374 0.891089
vn 0.144610 0.145704 0.978702
vn -0.199191 0.135129 0.970599
vn -0.128893 0.492901 0.860485
vn -0.694119 0.468640 0.546421
vn -0.586900 0.135986 0.798158
vn -0.899758 0.115698 0.420773
vn -0.980158 0.144333 0.135863
vn -0.869575 0.223051 -0.440554
vn 0.380014 0.358334 -0.852752
vn -0.162461 0.266457 -0.950056
vn -0.172759 0.516914 -0.838423
vn 0.300052 0.622374 -0.722924
vn -0.228750 0.244844 -0.942191
vn -0.291596 0.252241 -0.922684
vn -0.262712 0.490500 -0.830898
vn -0.223135 0.488092 -0.843787
vn -0.864384 0.272139 -0.422825
vn -0.746268 0.551014 -0.373453
vn 0.910900 0.379645 -0.161651
vn 0.753430 0.385733 -0.532498
vn 0.614741 0.654876 -0.439580
vn 0.752746 0.644649 -0.133422
vn -0.315018 0.236670 -0.919103
vn -0.302117 0.481649 -0.822642
vn -0.969346 0.239291 0.055751
vn -0.843381 0.536397 0.031424
vn 0.924613 0.361603 0.119724
vn 0.768419 0.630447 0.109863
vn -0.879384 0.234118 0.414575
vn -0.760836 0.533524 0.369434
vn 0.892664 0.355646 0.276887
vn 0.745398 0.618381 0.248973
vn -0.548883 0.252671 0.796797
vn -0.218984 0.267372 0.938381
vn -0.205475 0.528780 0.823512
vn -0.479252 0.521865 0.705673
vn 0.191847 0.287316 0.938427
vn 0.144870 0.554002 0.819813
vn 0.509357 0.312508 0.801807
vn 0.447240 0.584927 0.676637
vn 0.790897 0.352068 0.500530
vn 0.667598 0.608644 0.428795
vn -0.129826 0.887132 -0.442880
vn 0.105528 0.935182 -0.338082
vn -0.166654 0.876813 -0.451027
vn -0.153944 0.872626 -0.463492
vn -0.373082 0.911797 -0.171568
vn 0.261790 0.943334 -0.203927
vn 0.331359 0.941800 -0.056698
vn -0.197204 0.870009 -0.451879
vn -0.431987 0.901652 0.020286
vn 0.352544 0.933826 0.060677
vn -0.390742 0.902550 0.180899
vn 0.345268 0.929386 0.130508
vn -0.133321 0.897755 0.419835
vn -0.266547 0.895375 0.356729
vn 0.041313 0.907670 0.417646
vn 0.193846 0.918104 0.345701
vn 0.302305 0.927889 0.218251
vn -0.064616 0.997479 0.029314
vn -0.174452 0.075930 0.981734
vn 0.414950 0.076098 0.906656
vn -0.111353 0.214239 0.970413
vn 0.575936 0.164905 0.800690
vn 0.729643 0.322027 0.603257
vn 0.447083 0.301484 0.842155
vn 0.948561 0.314648 0.035054
vn 0.924273 0.362766 0.118829
vn 0.449716 0.277925 -0.848831
vn -0.274785 0.326739 -0.904287
vn -0.682572 0.212793 -0.699153
vn 0.350154 0.355400 0.866651
vn 0.681637 0.428771 0.592896
vn 0.856133 0.515505 0.035935
vn 0.861111 0.506985 0.038129
vn 0.832790 0.092575 0.545794
vn 0.722578 0.280473 0.631836
vn 0.783739 0.078068 0.616164
vn 0.783044 0.076151 0.617287
vn 0.562748 0.518775 0.643575
vn -0.003738 0.701803 0.712362
vn -0.649830 0.570339 0.502429
vn -0.938113 0.341627 -0.056872
vn -0.969546 0.240519 -0.046167
vn 0.794469 0.067155 0.603580
vn -0.793602 0.491958 -0.358014
vn -0.289249 0.466795 -0.835725
vn 0.136228 0.317015 -0.938586
vn -0.353226 0.165825 -0.920724
vn -0.866474 0.404497 0.292583
vn -0.958495 0.225822 0.174044
vn -0.377908 0.086074 -0.921834
vn -0.380861 0.066788 -0.922217
vn -0.955897 0.259196 0.138124
vn -0.814947 0.473655 0.333935
vn -0.747874 0.539021 -0.387481
vn -0.191466 0.449787 -0.872372
vn 0.208210 0.347899 -0.914120
vn -0.215347 0.480454 -0.850170
vn -0.671439 0.421343 0.609623
vn -0.785674 0.207377 0.582847
vn -0.833345 0.032079 0.551821
vn -0.837161 0.011716 0.546832
vn 0.546392 0.517598 -0.658444
vn 0.826621 0.545787 -0.137167
vn 0.400219 0.293258 -0.868231
vn 0.415263 0.384717 -0.824348
vn 0.785402 0.483902 0.385982
vn 0.344915 0.109438 -0.932232
vn 0.361961 0.150608 -0.919946
vn -0.328859 0.680328 -0.654985
vn 0.371978 0.549049 -0.748450
vn -0.684320 0.540633 -0.489308
vn 0.207176 0.552423 -0.807407
vn 0.223328 0.429997 -0.874772
vn 0.567224 0.395488 -0.722390
vn 0.541386 0.505881 -0.671555
vn 0.844484 0.534140 -0.039259
vn 0.817648 0.414940 0.399095
vn -0.162684 0.404343 -0.900023
s 1
g pCube2
usemtl lambert3SG
f 26/216/1 27/217/2 80/218/3 81/219/4
f 239/250/5 240/251/6 86/252/7 19/253/8
f 179/125/9 180/113/10 181/114/11 182/126/12
f 148/7/13 149/3/14 150/2/15 151/8/16
f 151/290/16 152/281/17 153/280/18 148/291/13
f 103/38/19 104/49/20 105/50/21 106/37/22
f 25/223/23 26/216/1 81/219/4 82/224/24
f 182/347/12 183/342/25 184/345/26 179/350/9
f 86/252/7 232/256/27 233/257/28 19/253/8
f 107/304/29 105/305/21 104/306/20 108/307/30
f 180/113/10 185/95/31 186/94/32 181/114/11
f 154/1/33 150/2/15 149/3/14 155/4/34
f 23/64/35 24/65/36 83/66/37 84/67/38
f 109/29/39 172/21/40 173/20/41 110/30/42
f 82/70/24 83/66/37 24/65/36 25/71/23
f 106/37/22 109/29/39 110/30/42 103/38/19
f 111/324/43 112/322/44 131/319/45 114/317/46
f 130/320/47 131/319/45 112/322/44 116/323/48
f 209/244/49 210/235/50 88/236/51 90/245/52
f 92/109/53 89/121/54 91/130/55 93/122/56
f 93/122/56 94/110/57 95/92/58 92/109/53
f 96/93/59 95/92/58 94/110/57 97/111/60
f 188/124/61 187/112/62 189/123/63 190/131/64
f 191/132/65 188/124/61 190/131/64 192/134/66
f 194/135/67 193/136/68 191/132/65 192/134/66
f 195/325/69 196/326/70 243/327/71 244/328/72
f 228/329/73 229/330/74 196/326/70 195/325/69
f 157/299/75 156/289/76 158/298/77 159/302/78
f 159/26/78 160/17/79 161/9/80 157/16/75
f 162/10/81 161/9/80 160/17/79 163/18/82
f 117/36/83 174/28/84 175/35/85 118/46/86
f 114/47/46 117/36/83 118/46/86 111/56/43
f 31/275/87 32/267/88 18/261/89 17/273/90
f 19/253/8 233/257/28 234/262/91 33/258/92
f 20/255/93 239/250/5 33/258/92 34/259/94
f 21/90/95 20/105/93 34/106/94 35/89/96
f 35/89/96 36/78/97 22/79/98 21/90/95
f 36/78/97 37/68/99 23/64/35 22/79/98
f 37/68/99 38/69/100 24/65/36 23/64/35
f 25/71/23 24/65/36 38/69/100 39/77/101
f 39/227/101 40/220/102 26/216/1 25/223/23
f 40/220/102 41/221/103 27/217/2 26/216/1
f 119/308/104 120/309/105 105/305/21 107/304/29
f 106/314/22 105/305/21 120/309/105 121/315/106
f 121/48/106 122/45/107 109/29/39 106/37/22
f 44/43/108 45/31/109 29/22/110 28/33/111
f 45/31/109 46/32/112 30/23/113 29/22/110
f 17/41/90 30/23/113 46/32/112 31/42/87
f 132/285/114 133/276/115 32/267/88 31/275/87
f 33/258/92 234/262/91 235/268/116 134/263/117
f 34/259/94 33/258/92 134/263/117 135/264/118
f 35/89/96 34/106/94 135/120/118 136/104/119
f 136/104/119 137/88/120 36/78/97 35/89/96
f 137/88/120 138/75/121 37/68/99 36/78/97
f 138/75/121 139/76/122 38/69/100 37/68/99
f 39/77/101 38/69/100 139/76/122 140/87/123
f 140/87/123 141/102/124 40/103/102 39/77/101
f 141/225/124 142/226/125 41/221/103 40/220/102
f 142/226/125 143/233/126 42/234/127 41/221/103
f 43/241/128 42/234/127 143/233/126 144/242/129
f 144/60/129 145/53/130 44/43/108 43/54/128
f 145/53/130 146/39/131 45/31/109 44/43/108
f 146/39/131 147/40/132 46/32/112 45/31/109
f 31/275/87 46/294/112 147/295/132 132/285/114
f 8/270/133 9/269/134 47/278/135 48/279/136
f 5/286/137 3/293/138 51/300/139 50/296/140
f 3/293/138 11/301/141 49/303/142 51/300/139
f 12/99/143 4/118/144 53/129/145 52/119/146
f 4/118/144 8/128/133 48/133/136 53/129/145
f 9/269/134 236/277/147 237/287/148 47/278/135
f 11/51/141 13/52/149 54/58/150 49/59/142
f 14/86/151 12/99/143 52/119/146 55/100/152
f 13/52/149 15/57/153 56/62/154 54/58/150
f 16/85/155 14/86/151 55/100/152 57/101/156
f 1/246/157 6/238/158 59/247/159 58/249/160
f 15/57/153 1/61/157 58/63/160 56/62/154
f 6/238/158 10/231/161 60/240/162 59/247/159
f 10/231/161 7/232/163 61/239/164 60/240/162
f 7/117/163 2/98/165 62/116/166 61/127/164
f 2/98/165 16/85/155 57/101/156 62/116/166
f 48/169/136 47/170/135 63/171/167 64/172/168
f 50/178/140 51/182/139 67/183/169 66/179/170
f 51/182/139 49/186/142 65/187/171 67/183/169
f 52/180/146 53/176/145 69/177/172 68/181/173
f 53/176/145 48/169/136 64/172/168 69/177/172
f 47/170/135 237/173/148 238/174/174 63/171/167
f 49/186/142 54/190/150 70/191/175 65/187/171
f 55/184/152 52/180/146 68/181/173 71/185/176
f 54/190/150 56/194/154 72/195/177 70/191/175
f 57/188/156 55/184/152 71/185/176 73/189/178
f 58/198/160 59/202/159 75/203/179 74/199/180
f 56/194/154 58/198/160 74/199/180 72/195/177
f 59/202/159 60/200/162 76/201/181 75/203/179
f 60/200/162 61/196/164 77/197/182 76/201/181
f 61/196/164 62/192/166 78/193/183 77/197/182
f 62/192/166 57/188/156 73/189/178 78/193/183
f 64/172/168 63/171/167 79/175/184
f 66/179/170 67/183/169 79/175/184
f 67/183/169 65/187/171 79/175/184
f 68/181/173 69/177/172 79/175/184
f 69/177/172 64/172/168 79/175/184
f 63/171/167 238/174/174 79/175/184
f 65/187/171 70/191/175 79/175/184
f 71/185/176 68/181/173 79/175/184
f 70/191/175 72/195/177 79/175/184
f 73/189/178 71/185/176 79/175/184
f 74/199/180 75/203/179 79/175/184
f 72/195/177 74/199/180 79/175/184
f 75/203/179 76/201/181 79/175/184
f 76/201/181 77/197/182 79/175/184
f 77/197/182 78/193/183 79/175/184
f 78/193/183 73/189/178 79/175/184
f 114/317/46 113/310/185 104/306/20 103/318/19
f 108/307/30 104/306/20 113/310/185 115/311/186
f 210/235/50 211/229/187 98/228/188 88/236/51
f 100/91/189 99/108/190 89/121/54 92/109/53
f 92/109/53 95/92/58 101/81/191 100/91/189
f 102/82/192 101/81/191 95/92/58 96/93/59
f 181/114/11 186/94/32 187/112/62 188/124/61
f 182/126/12 181/114/11 188/124/61 191/132/65
f 191/346/65 193/339/68 183/342/25 182/347/12
f 242/331/193 243/327/71 196/326/70 199/332/194
f 196/326/70 229/330/74 230/335/195 199/332/194
f 148/291/13 153/280/18 156/289/76 157/299/75
f 157/16/75 161/9/80 149/3/14 148/7/13
f 155/4/34 149/3/14 161/9/80 162/10/81
f 174/28/84 117/36/83 110/30/42 173/20/41
f 103/38/19 110/30/42 117/36/83 114/47/46
f 212/222/196 80/218/3 98/228/188 211/229/187
f 82/224/24 81/219/4 212/222/196 213/230/197
f 83/66/37 82/70/24 213/80/197 214/72/198
f 84/67/38 83/66/37 214/72/198 206/73/199
f 129/137/200 123/146/201 107/147/29 108/141/30
f 90/149/52 88/144/51 177/143/202 178/150/203
f 124/312/204 125/313/205 120/309/105 119/308/104
f 123/316/201 124/312/204 119/308/104 107/304/29
f 125/313/205 126/321/206 121/315/106 120/309/105
f 126/55/206 127/44/207 122/45/107 121/48/106
f 127/44/207 128/34/208 109/29/39 122/45/107
f 129/137/200 176/138/209 98/139/188 80/140/3
f 27/145/2 41/151/103 124/152/204 123/146/201
f 41/151/103 42/154/127 125/155/205 124/152/204
f 42/204/127 43/205/128 126/206/206 125/207/205
f 43/54/128 44/43/108 127/44/207 126/55/206
f 44/43/108 28/33/111 128/34/208 127/44/207
f 80/140/3 27/145/2 123/146/201 129/137/200
f 176/138/209 177/143/202 88/144/51 98/139/188
f 115/311/186 113/310/185 131/319/45 130/320/47
f 114/317/46 131/319/45 113/310/185
f 3/293/138 5/286/137 133/276/115 132/285/114
f 134/263/117 235/268/116 236/277/147 9/269/134
f 135/264/118 134/263/117 9/269/134 8/270/133
f 136/104/119 135/120/118 8/128/133 4/118/144
f 12/99/143 137/88/120 136/104/119 4/118/144
f 14/86/151 138/75/121 137/88/120 12/99/143
f 16/85/155 139/76/122 138/75/121 14/86/151
f 140/87/123 139/76/122 16/85/155 2/98/165
f 7/117/163 141/102/124 140/87/123 2/98/165
f 10/231/161 142/226/125 141/225/124 7/232/163
f 6/238/158 143/233/126 142/226/125 10/231/161
f 144/242/129 143/233/126 6/238/158 1/246/157
f 15/57/153 145/53/130 144/60/129 1/61/157
f 13/52/149 146/39/131 145/53/130 15/57/153
f 11/51/141 147/40/132 146/39/131 13/52/149
f 132/285/114 147/295/132 11/301/141 3/293/138
f 165/6/210 166/15/211 151/8/16 150/2/15
f 166/282/211 167/272/212 152/281/17 151/290/16
f 167/272/212 168/271/213 153/280/18 152/281/17
f 164/5/214 165/6/210 150/2/15 154/1/33
f 128/34/208 171/25/215 172/21/40 109/29/39
f 169/288/216 170/297/217 158/298/77 156/289/76
f 168/271/213 169/288/216 156/289/76 153/280/18
f 28/33/111 223/24/218 171/25/215 128/34/208
f 224/13/219 225/14/220 165/6/210 164/5/214
f 225/284/220 226/274/221 166/282/211 165/292/210
f 226/274/221 227/266/222 167/272/212 166/282/211
f 227/266/222 207/265/223 168/271/213 167/272/212
f 223/24/218 224/13/219 164/5/214 171/25/215
f 172/21/40 171/25/215 164/5/214 219/12/224
f 173/20/41 172/21/40 219/12/224 220/11/225
f 175/35/85 174/28/84 221/19/226 222/27/227
f 174/28/84 173/20/41 220/11/225 221/19/226
f 129/137/200 108/141/30 115/142/186 176/138/209
f 130/148/47 177/143/202 176/138/209 115/142/186
f 178/150/203 177/143/202 130/148/47 116/153/48
f 216/115/228 217/96/229 180/113/10 179/125/9
f 200/336/230 215/344/231 184/345/26 183/342/25
f 215/344/231 216/349/228 179/350/9 184/345/26
f 217/96/229 218/83/232 185/95/31 180/113/10
f 218/83/232 102/82/192 186/94/32 185/95/31
f 96/93/59 97/111/60 189/123/63 187/112/62
f 198/334/233 197/333/234 193/339/68 194/340/67
f 102/82/192 96/93/59 187/112/62 186/94/32
f 197/333/234 200/336/230 183/342/25 193/339/68
f 208/337/235 241/338/236 242/331/193 199/332/194
f 230/158/195 231/157/237 208/162/235 199/163/194
f 85/212/238 20/214/93 202/215/239 201/213/240
f 20/351/93 21/352/95 203/348/241 202/343/239
f 21/90/95 22/79/98 204/84/242 203/97/241
f 22/79/98 23/64/35 205/74/243 204/84/242
f 23/64/35 84/67/38 206/73/199 205/74/243
f 231/157/237 232/161/27 86/166/7 208/162/235
f 86/208/7 240/209/6 241/210/236 208/211/235
f 89/243/54 210/235/50 209/244/49 91/248/55
f 99/237/190 211/229/187 210/235/50 89/243/54
f 212/222/196 211/229/187 99/237/190
f 213/80/197 212/107/196 99/108/190 100/91/189
f 214/72/198 213/80/197 100/91/189 101/81/191
f 206/73/199 214/72/198 101/81/191 102/82/192
f 81/219/4 80/218/3 212/222/196
f 201/341/240 202/343/239 215/344/231 200/336/230
f 202/343/239 203/348/241 216/349/228 215/344/231
f 203/97/241 204/84/242 217/96/229 216/115/228
f 204/84/242 205/74/243 218/83/232 217/96/229
f 205/74/243 206/73/199 102/82/192 218/83/232
f 219/12/224 164/5/214 154/1/33
f 220/11/225 219/12/224 154/1/33 155/4/34
f 221/19/226 220/11/225 155/4/34 162/10/81
f 222/27/227 221/19/226 162/10/81 163/18/82
f 28/33/111 29/22/110 224/13/219 223/24/218
f 29/22/110 30/23/113 225/14/220 224/13/219
f 30/283/113 17/273/90 226/274/221 225/284/220
f 17/273/90 18/261/89 227/266/222 226/274/221
f 18/261/89 87/260/244 207/265/223 227/266/222
f 170/167/217 169/165/216 229/164/74 228/168/73
f 230/158/195 229/164/74 169/165/216 168/159/213
f 207/156/223 231/157/237 230/158/195 168/159/213
f 87/160/244 232/161/27 231/157/237 207/156/223
f 233/257/28 232/256/27 87/260/244 18/261/89
f 234/262/91 233/257/28 18/261/89 32/267/88
f 235/268/116 234/262/91 32/267/88 133/276/115
f 236/277/147 235/268/116 133/276/115 5/286/137
f 237/287/148 236/277/147 5/286/137 50/296/140
f 238/174/174 237/173/148 50/178/140 66/179/170
f 79/175/184 238/174/174 66/179/170
f 85/254/238 240/251/6 239/250/5 20/255/93
f 241/210/236 240/209/6 85/212/238 201/213/240
f 242/331/193 241/338/236 201/341/240 200/336/230
f 197/333/234 243/327/71 242/331/193 200/336/230
f 244/328/72 243/327/71 197/333/234 198/334/233
f 33/258/92 239/250/5 19/253/8
