# This file uses centimeters as units for non-parametric coordinates.

mtllib M_Coconut.mtl
g default
v 0.359605 -1.257599 -0.359605
v 0.000000 -1.257599 -0.508558
v -0.359605 -1.257599 -0.359605
v -0.508558 -1.257599 0.000000
v -0.359605 -1.257599 0.359605
v 0.000000 -1.257599 0.508558
v 0.359605 -1.257599 0.359605
v 0.508558 -1.257599 0.000000
v 0.664463 -0.969524 -0.664463
v 0.000000 -0.969524 -0.939692
v -0.664463 -0.969524 -0.664463
v -0.939692 -0.969524 0.000000
v -0.664463 -0.969524 0.664463
v 0.000000 -0.969524 0.939692
v 0.664463 -0.969524 0.664463
v 0.939692 -0.969524 0.000000
v 0.868162 -0.538389 -0.868162
v 0.000000 -0.538389 -1.227767
v -0.868162 -0.538389 -0.868162
v -1.227767 -0.538389 0.000000
v -0.868162 -0.538389 0.868162
v 0.000000 -0.538389 1.227767
v 0.868162 -0.538389 0.868162
v 1.227767 -0.538389 0.000000
v 0.939692 -0.029831 -0.939692
v 0.000000 -0.029831 -1.328925
v -0.939692 -0.029831 -0.939692
v -1.328925 -0.029831 0.000000
v -0.939692 -0.029831 0.939692
v 0.000000 -0.029831 1.328925
v 0.939692 -0.029831 0.939692
v 1.328925 -0.029831 0.000000
v 0.868162 0.478726 -0.868162
v 0.000000 0.478726 -1.227767
v -0.868162 0.478726 -0.868162
v -1.227767 0.478726 0.000000
v -0.868162 0.478726 0.868162
v 0.000000 0.478726 1.227767
v 0.868162 0.478726 0.868162
v 1.227767 0.478726 0.000000
v 0.664463 0.909861 -0.664463
v 0.000000 0.909861 -0.939692
v -0.664463 0.909861 -0.664463
v -0.939692 0.909861 0.000000
v -0.664463 0.909861 0.664463
v 0.000000 0.909861 0.939692
v 0.664463 0.909861 0.664463
v 0.939692 0.909861 0.000000
v 0.359605 1.197935 -0.359605
v 0.000000 1.197935 -0.508558
v -0.359605 1.197935 -0.359605
v -0.508558 1.197935 0.000000
v -0.359605 1.197935 0.359605
v 0.000000 1.197935 0.508558
v 0.359605 1.197935 0.359605
v 0.508558 1.197935 0.000000
v 0.000000 -1.358757 0.000000
v 0.000000 1.299094 0.000000
vt 0.791187 0.763342
vt 0.837183 0.772015
vt 0.834706 0.793929
vt 0.786873 0.790185
vt 0.804042 0.738313
vt 0.839053 0.748874
vt 0.880501 0.772207
vt 0.880767 0.798361
vt 0.832637 0.815685
vt 0.788660 0.816637
vt 0.821722 0.716120
vt 0.841740 0.723403
vt 0.874112 0.746156
vt 0.875071 0.823686
vt 0.830704 0.838163
vt 0.796219 0.842069
vt 0.862397 0.721061
vt 0.863827 0.847377
vt 0.828733 0.862772
vt 0.808735 0.865969
vt 0.847894 0.868956
vt 0.886772 0.760317
vt 0.932850 0.768541
vt 0.930587 0.790478
vt 0.882719 0.787201
vt 0.899382 0.735164
vt 0.934495 0.745383
vt 0.976168 0.768310
vt 0.976689 0.794460
vt 0.928730 0.812253
vt 0.884765 0.813634
vt 0.916845 0.712799
vt 0.936933 0.719886
vt 0.969526 0.742323
vt 0.971240 0.819840
vt 0.927016 0.834749
vt 0.892571 0.838991
vt 0.957566 0.717343
vt 0.960228 0.843639
vt 0.925285 0.859376
vt 0.905319 0.862768
vt 0.944506 0.865373
vt 0.703858 0.791800
vt 0.723246 0.799831
vt 0.703858 0.819219
vt 0.740562 0.758806
vt 0.778689 0.764453
vt 0.731277 0.819219
vt 0.684471 0.799831
vt 0.704738 0.773645
vt 0.737147 0.731188
vt 0.788186 0.737697
vt 0.723246 0.838606
vt 0.676440 0.819219
vt 0.689010 0.749883
vt 0.703858 0.846637
vt 0.684471 0.838606
vt 0.772945 0.799414
vt 0.755598 0.811118
vt 0.783927 0.810397
vt 0.760359 0.825391
vt 0.734809 0.812177
vt 0.732613 0.827368
vt 0.852856 0.916650
vt 0.833468 0.924681
vt 0.833468 0.897262
vt 0.879737 0.937380
vt 0.847513 0.958948
vt 0.814081 0.916650
vt 0.860887 0.897262
vt 0.899814 0.957602
vt 0.856270 0.985363
vt 0.809018 0.960877
vt 0.806050 0.897262
vt 0.852856 0.877874
vt 0.804944 0.988975
vt 0.814081 0.877874
vt 0.833468 0.869844
vt 0.908521 0.895822
vt 0.944346 0.910661
vt 0.870394 0.901469
vt 0.911936 0.868204
vt 0.960073 0.886900
vt 0.860897 0.874713
vt 0.804774 0.863191
vt 0.804774 0.909998
vt 0.779132 0.910011
vt 0.779231 0.860783
vt 0.805109 0.958665
vt 0.778358 0.960784
vt 0.753642 0.909704
vt 0.753501 0.862836
vt 0.751713 0.957977
vt 0.696155 0.950956
vt 0.696155 0.904149
vt 0.721797 0.904136
vt 0.721698 0.953364
vt 0.695820 0.855482
vt 0.722570 0.853363
vt 0.747287 0.904443
vt 0.747428 0.951311
vt 0.749216 0.856170
vt 0.905117 0.923445
vt 0.924992 0.932097
vt 0.883806 0.926911
vt 0.838764 0.932528
vt 0.817187 0.933301
vt 0.856561 0.920150
vt 0.750856 0.796848
vt 0.760426 0.790158
vt 0.739199 0.797287
vt 0.743967 0.786429
vt 0.724090 0.795081
vt 0.765277 0.789896
vn 0.350881 -0.868197 -0.350881
vn 0.000000 -0.868197 -0.496220
vn 0.000000 -0.654266 -0.756265
vn 0.534760 -0.654266 -0.534760
vn -0.350881 -0.868197 -0.350881
vn -0.534760 -0.654266 -0.534760
vn -0.496220 -0.868197 -0.000000
vn -0.756265 -0.654266 -0.000000
vn -0.350881 -0.868197 0.350881
vn -0.534760 -0.654266 0.534760
vn -0.000000 -0.868197 0.496220
vn -0.000000 -0.654266 0.756265
vn 0.350881 -0.868197 0.350881
vn 0.534760 -0.654266 0.534760
vn 0.496220 -0.868197 0.000000
vn 0.756265 -0.654266 -0.000000
vn 0.000000 -0.349894 -0.936789
vn 0.662410 -0.349894 -0.662410
vn -0.662410 -0.349894 -0.662410
vn -0.936789 -0.349894 0.000000
vn -0.662410 -0.349894 0.662410
vn -0.000000 -0.349894 0.936789
vn 0.662410 -0.349894 0.662410
vn 0.936789 -0.349894 -0.000000
vn -0.000000 -0.000000 -1.000000
vn 0.707107 0.000000 -0.707107
vn -0.707107 -0.000000 -0.707107
vn -1.000000 0.000000 0.000000
vn -0.707107 0.000000 0.707107
vn -0.000000 -0.000000 1.000000
vn 0.707107 0.000000 0.707107
vn 1.000000 0.000000 -0.000000
vn -0.000000 0.349894 -0.936789
vn 0.662410 0.349894 -0.662410
vn -0.662410 0.349894 -0.662410
vn -0.936789 0.349894 0.000000
vn -0.662410 0.349894 0.662410
vn 0.000000 0.349894 0.936789
vn 0.662410 0.349894 0.662410
vn 0.936789 0.349894 -0.000000
vn 0.000000 0.654266 -0.756265
vn 0.534760 0.654266 -0.534760
vn -0.534760 0.654266 -0.534760
vn -0.756265 0.654266 0.000000
vn -0.534760 0.654266 0.534760
vn -0.000000 0.654266 0.756265
vn 0.534760 0.654266 0.534760
vn 0.756265 0.654266 -0.000000
vn 0.000000 0.868197 -0.496220
vn 0.350881 0.868197 -0.350881
vn -0.350881 0.868197 -0.350881
vn -0.496220 0.868197 0.000000
vn -0.350881 0.868197 0.350881
vn -0.000000 0.868197 0.496220
vn 0.350881 0.868197 0.350881
vn 0.496220 0.868197 -0.000000
vn 0.000000 -1.000000 0.000000
vn 0.000000 1.000000 -0.000000
s 1
g pSphere1
usemtl initialShadingGroup
f 1/114/1 2/112/2 10/46/3 9/47/4
f 2/112/2 3/113/5 11/50/6 10/46/3
f 3/11/5 4/12/7 12/6/8 11/5/6
f 4/12/7 5/17/9 13/13/10 12/6/8
f 5/111/9 6/109/11 14/59/12 13/62/10
f 6/109/11 7/110/13 15/58/14 14/59/12
f 7/32/13 8/33/15 16/27/16 15/26/14
f 8/33/15 1/38/1 9/34/4 16/27/16
f 9/47/4 10/46/3 18/51/17 17/52/18
f 10/46/3 11/50/6 19/55/19 18/51/17
f 11/5/6 12/6/8 20/2/20 19/1/19
f 12/6/8 13/13/10 21/7/21 20/2/20
f 13/62/10 14/59/12 22/61/22 21/63/21
f 14/59/12 15/58/14 23/60/23 22/61/22
f 15/26/14 16/27/16 24/23/24 23/22/23
f 16/27/16 9/34/4 17/28/18 24/23/24
f 17/85/18 18/86/17 26/87/25 25/88/26
f 18/86/17 19/89/19 27/90/27 26/87/25
f 19/1/19 20/2/20 28/3/28 27/4/27
f 20/2/20 21/7/21 29/8/29 28/3/28
f 21/94/21 22/95/22 30/96/30 29/97/29
f 22/95/22 23/98/23 31/99/31 30/96/30
f 23/22/23 24/23/24 32/24/32 31/25/31
f 24/23/24 17/28/18 25/29/26 32/24/32
f 25/88/26 26/87/25 34/91/33 33/92/34
f 26/87/25 27/90/27 35/93/35 34/91/33
f 27/4/27 28/3/28 36/9/36 35/10/35
f 28/3/28 29/8/29 37/14/37 36/9/36
f 29/97/29 30/96/30 38/100/38 37/101/37
f 30/96/30 31/99/31 39/102/39 38/100/38
f 31/25/31 32/24/32 40/30/40 39/31/39
f 32/24/32 25/29/26 33/35/34 40/30/40
f 33/71/34 34/72/33 42/68/41 41/67/42
f 34/72/33 35/76/35 43/73/43 42/68/41
f 35/10/35 36/9/36 44/15/44 43/16/43
f 36/9/36 37/14/37 45/18/45 44/15/44
f 37/84/37 38/82/38 46/79/46 45/81/45
f 38/82/38 39/83/39 47/80/47 46/79/46
f 39/31/39 40/30/40 48/36/48 47/37/47
f 40/30/40 33/35/34 41/39/42 48/36/48
f 41/67/42 42/68/41 50/106/49 49/108/50
f 42/68/41 43/73/43 51/107/51 50/106/49
f 43/16/43 44/15/44 52/19/52 51/20/51
f 44/15/44 45/18/45 53/21/53 52/19/52
f 45/81/45 46/79/46 54/103/54 53/105/53
f 46/79/46 47/80/47 55/104/55 54/103/54
f 47/37/47 48/36/48 56/40/56 55/41/55
f 48/36/48 41/39/42 49/42/50 56/40/56
f 2/43/2 1/44/1 57/45/57
f 3/49/5 2/43/2 57/45/57
f 4/54/7 3/49/5 57/45/57
f 5/57/9 4/54/7 57/45/57
f 6/56/11 5/57/9 57/45/57
f 7/53/13 6/56/11 57/45/57
f 8/48/15 7/53/13 57/45/57
f 1/44/1 8/48/15 57/45/57
f 49/64/50 50/65/49 58/66/58
f 50/65/49 51/69/51 58/66/58
f 51/69/51 52/74/52 58/66/58
f 52/74/52 53/77/53 58/66/58
f 53/77/53 54/78/54 58/66/58
f 54/78/54 55/75/55 58/66/58
f 55/75/55 56/70/56 58/66/58
f 56/70/56 49/64/50 58/66/58
