# This file uses centimeters as units for non-parametric coordinates.

mtllib M_CookingPot.mtl
g default
v 0.214205 0.017779 -0.134428
v 0.032529 0.017779 -0.266424
v -0.192035 0.017779 -0.266424
v -0.373711 0.017779 -0.134428
v -0.443105 0.017779 0.079145
v -0.373711 0.017779 0.292717
v -0.192035 0.017779 0.424713
v 0.032529 0.017779 0.424713
v 0.214205 0.017779 0.292717
v 0.283599 0.017779 0.079145
v 0.260768 0.335621 -0.168258
v 0.050315 0.335621 -0.321161
v -0.209820 0.335621 -0.321161
v -0.420274 0.335621 -0.168258
v -0.500661 0.335621 0.079145
v -0.420274 0.335621 0.326548
v -0.209820 0.335621 0.479452
v 0.050315 0.335621 0.479452
v 0.260768 0.335621 0.326548
v 0.341155 0.335621 0.079145
v 0.148322 -0.071708 -0.086561
v 0.007364 -0.071708 -0.188973
v -0.079753 -0.071708 0.079145
v -0.166870 -0.071708 -0.188973
v -0.307828 -0.071708 -0.086561
v -0.361669 -0.071708 0.079145
v -0.307828 -0.071708 0.244850
v -0.166870 -0.071708 0.347262
v 0.007364 -0.071708 0.347262
v 0.148322 -0.071708 0.244850
v 0.202163 -0.071708 0.079145
v 0.121900 0.628790 -0.067364
v -0.002729 0.628790 -0.157913
v -0.156777 0.628790 -0.157913
v -0.281406 0.628790 -0.067364
v -0.329010 0.628790 0.079145
v -0.281406 0.628790 0.225655
v -0.156777 0.628790 0.316203
v -0.002729 0.628790 0.316203
v 0.121900 0.628790 0.225655
v 0.169504 0.628790 0.079145
v 0.184017 0.718561 -0.112495
v 0.020998 0.718561 -0.230936
v -0.180504 0.718561 -0.230936
v -0.343523 0.718561 -0.112495
v -0.405791 0.718561 0.079145
v -0.343523 0.718561 0.270786
v -0.180504 0.718561 0.389226
v 0.020998 0.718561 0.389226
v 0.184017 0.718561 0.270786
v 0.246285 0.718561 0.079145
v 0.127361 0.749905 -0.071332
v -0.000642 0.749905 -0.164333
v -0.158864 0.749905 -0.164333
v -0.286868 0.749905 -0.071332
v -0.335761 0.749905 0.079145
v -0.286868 0.749905 0.229623
v -0.158864 0.749905 0.322623
v -0.000642 0.749905 0.322623
v 0.127361 0.749905 0.229623
v 0.176254 0.749905 0.079145
v 0.065048 0.749905 -0.026059
v -0.024444 0.749905 -0.091079
v -0.135062 0.749905 -0.091079
v -0.224555 0.749905 -0.026059
v -0.258737 0.749905 0.079145
v -0.224555 0.749905 0.184350
v -0.135062 0.749905 0.249370
v -0.024444 0.749905 0.249370
v 0.065048 0.749905 0.184350
v 0.099231 0.749905 0.079145
v 0.065048 0.622535 -0.026059
v -0.024444 0.622535 -0.091079
v -0.079753 0.622535 0.079145
v -0.135062 0.622535 -0.091079
v -0.224555 0.622535 -0.026059
v -0.258737 0.622535 0.079145
v -0.224555 0.622535 0.184350
v -0.135062 0.622535 0.249370
v -0.024444 0.622535 0.249370
v 0.065048 0.622535 0.184350
v 0.099231 0.622535 0.079145
vt 0.703016 0.143213
vt 0.717280 0.143213
vt 0.723195 0.178685
vt 0.706672 0.178685
vt 0.838982 0.229887
vt 0.814714 0.229887
vt 0.812792 0.187785
vt 0.840904 0.187785
vt 0.730673 0.143213
vt 0.744937 0.143213
vt 0.741281 0.178685
vt 0.724758 0.178685
vt 0.768017 0.143213
vt 0.768017 0.178685
vt 0.791096 0.143213
vt 0.794752 0.178685
vt 0.805360 0.143213
vt 0.811275 0.178685
vt 0.843599 0.254344
vt 0.867866 0.254344
vt 0.869788 0.296445
vt 0.841677 0.296445
vt 0.642593 0.143213
vt 0.656857 0.143213
vt 0.653201 0.178685
vt 0.636678 0.178685
vt 0.679936 0.143213
vt 0.679936 0.178685
vt 0.723849 0.268802
vt 0.734917 0.253569
vt 0.752823 0.278216
vt 0.723849 0.287630
vt 0.734917 0.302862
vt 0.752823 0.308681
vt 0.770730 0.302862
vt 0.781797 0.287630
vt 0.781797 0.268802
vt 0.770730 0.253569
vt 0.752823 0.247751
vt 0.715387 0.251445
vt 0.722414 0.261116
vt 0.704019 0.267093
vt 0.722414 0.273070
vt 0.715387 0.282740
vt 0.704019 0.286434
vt 0.692650 0.282740
vt 0.685624 0.273070
vt 0.685624 0.261116
vt 0.692650 0.251445
vt 0.704019 0.247751
vt 0.697843 0.133226
vt 0.708910 0.133226
vt 0.836262 0.241740
vt 0.817434 0.241740
vt 0.739043 0.133226
vt 0.750110 0.133226
vt 0.768017 0.133226
vt 0.785923 0.133226
vt 0.796990 0.133226
vt 0.846318 0.242490
vt 0.865146 0.242490
vt 0.650963 0.133226
vt 0.662030 0.133226
vt 0.679936 0.133226
vt 0.705554 0.211403
vt 0.695769 0.211403
vt 0.818524 0.148953
vt 0.835172 0.148953
vt 0.752184 0.211403
vt 0.742399 0.211403
vt 0.768017 0.211403
vt 0.783849 0.211403
vt 0.793634 0.211403
vt 0.864056 0.335278
vt 0.847409 0.335278
vt 0.664104 0.211403
vt 0.654319 0.211403
vt 0.679936 0.211403
vt 0.713445 0.221422
vt 0.700646 0.221422
vt 0.815960 0.137062
vt 0.837736 0.137062
vt 0.747307 0.221422
vt 0.734508 0.221422
vt 0.768017 0.221422
vt 0.788726 0.221422
vt 0.801525 0.221422
vt 0.866620 0.347169
vt 0.844845 0.347169
vt 0.659227 0.221422
vt 0.646428 0.221422
vt 0.679936 0.221422
vt 0.840241 0.301969
vt 0.822624 0.314768
vt 0.820286 0.307571
vt 0.834118 0.297521
vt 0.800849 0.314768
vt 0.803188 0.307571
vt 0.783233 0.301969
vt 0.789355 0.297521
vt 0.768017 0.224920
vt 0.751755 0.224920
vt 0.784278 0.224920
vt 0.783233 0.260550
vt 0.800849 0.247751
vt 0.803188 0.254948
vt 0.789355 0.264998
vt 0.822624 0.247751
vt 0.820286 0.254948
vt 0.840241 0.260550
vt 0.834118 0.264998
vt 0.679936 0.224920
vt 0.663675 0.224920
vt 0.696197 0.224920
vt 0.817714 0.299655
vt 0.827385 0.292628
vt 0.805760 0.299655
vt 0.796089 0.292628
vt 0.784072 0.281259
vt 0.792395 0.281259
vt 0.796089 0.269891
vt 0.805760 0.262864
vt 0.817714 0.262864
vt 0.827385 0.269891
vt 0.839402 0.281259
vt 0.831078 0.281259
vt 0.684188 0.277515
vt 0.684188 0.284541
vt 0.663184 0.284541
vt 0.663184 0.277515
vt 0.648632 0.306479
vt 0.636678 0.306479
vt 0.636678 0.285475
vt 0.648632 0.285475
vt 0.661748 0.247751
vt 0.661748 0.254777
vt 0.640744 0.254777
vt 0.640744 0.247751
vt 0.661748 0.266146
vt 0.640744 0.266146
vt 0.661748 0.277515
vt 0.640744 0.277515
vt 0.661748 0.284541
vt 0.640744 0.284541
vt 0.650407 0.285475
vt 0.662361 0.285475
vt 0.662361 0.306479
vt 0.650407 0.306479
vt 0.684188 0.247751
vt 0.684188 0.254777
vt 0.663184 0.254777
vt 0.663184 0.247751
vt 0.684188 0.266146
vt 0.663184 0.266146
vn 0.775007 -0.286902 -0.563074
vn 0.296027 -0.286902 -0.911074
vn 0.305875 0.142282 -0.941380
vn 0.800787 0.142282 -0.581804
vn -0.296027 -0.286902 -0.911074
vn -0.305875 0.142282 -0.941380
vn -0.775006 -0.286902 -0.563074
vn -0.800786 0.142282 -0.581805
vn -0.957960 -0.286903 -0.000000
vn -0.989826 0.142281 -0.000000
vn -0.775004 -0.286904 0.563076
vn -0.800786 0.142281 0.581806
vn -0.296026 -0.286904 0.911073
vn -0.305873 0.142280 0.941381
vn 0.296026 -0.286904 0.911073
vn 0.305874 0.142280 0.941381
vn 0.775005 -0.286902 0.563075
vn 0.800786 0.142282 0.581805
vn 0.957960 -0.286902 0.000000
vn 0.989826 0.142282 0.000000
vn 0.145026 -0.883033 -0.446341
vn 0.379682 -0.883033 -0.275854
vn 0.000000 -1.000000 -0.000000
vn -0.145026 -0.883033 -0.446340
vn -0.379681 -0.883033 -0.275854
vn -0.469312 -0.883032 -0.000000
vn -0.379681 -0.883032 0.275855
vn -0.145026 -0.883032 0.446343
vn 0.145025 -0.883032 0.446343
vn 0.379681 -0.883032 0.275856
vn 0.469312 -0.883033 0.000000
vn 0.000000 1.000000 0.000000
vn 0.000000 1.000000 0.000000
vn 0.000000 1.000000 0.000000
vn 0.000000 1.000000 -0.000000
vn 0.000000 1.000000 0.000000
vn 0.000000 1.000000 0.000000
vn 0.000000 1.000000 -0.000000
vn 0.000000 1.000000 0.000000
vn 0.000000 1.000000 0.000000
vn 0.000000 1.000000 -0.000000
vn 0.000000 1.000000 0.000000
vn 0.297622 0.269079 -0.915979
vn 0.779180 0.269080 -0.566105
vn -0.297622 0.269079 -0.915979
vn -0.779179 0.269081 -0.566106
vn -0.963118 0.269081 -0.000000
vn -0.779179 0.269079 0.566107
vn -0.297620 0.269080 0.915979
vn 0.297620 0.269081 0.915979
vn 0.779179 0.269081 0.566106
vn 0.963118 0.269081 0.000000
vn 0.307887 -0.085531 -0.947571
vn 0.806054 -0.085531 -0.585629
vn -0.307887 -0.085532 -0.947571
vn -0.806053 -0.085533 -0.585630
vn -0.996335 -0.085535 0.000000
vn -0.806052 -0.085534 0.585631
vn -0.307884 -0.085530 0.947572
vn 0.307884 -0.085531 0.947572
vn 0.806053 -0.085532 0.585630
vn 0.996335 -0.085532 0.000000
vn 0.085407 0.961048 -0.262855
vn 0.223598 0.961048 -0.162453
vn -0.085407 0.961048 -0.262854
vn -0.223598 0.961048 -0.162453
vn -0.276383 0.961048 -0.000000
vn -0.223598 0.961048 0.162453
vn -0.085407 0.961048 0.262855
vn 0.085406 0.961048 0.262855
vn 0.223597 0.961048 0.162452
vn 0.276382 0.961048 0.000000
vn 0.000000 1.000000 -0.000000
vn 0.000000 1.000000 -0.000000
vn 0.000000 1.000000 0.000000
vn 0.000000 1.000000 0.000000
vn 0.000000 1.000000 0.000000
vn 0.000000 1.000000 0.000000
vn 0.000000 1.000000 -0.000000
vn 0.000000 1.000000 -0.000000
vn 0.000000 1.000000 0.000000
vn 0.000000 1.000000 0.000000
vn -0.809018 0.000000 0.587783
vn -0.309018 0.000000 0.951056
vn -0.309018 0.000000 0.951056
vn -0.809018 0.000000 0.587783
vn 0.309018 0.000000 0.951056
vn 0.309018 0.000000 0.951056
vn 0.809018 0.000000 0.587784
vn 0.809018 0.000000 0.587784
vn 1.000000 0.000000 0.000000
vn 1.000000 0.000000 0.000000
vn 0.809018 0.000000 -0.587785
vn 0.809018 0.000000 -0.587785
vn 0.309018 0.000000 -0.951056
vn 0.309018 0.000000 -0.951056
vn -0.309018 0.000000 -0.951056
vn -0.309018 0.000000 -0.951056
vn -0.809018 0.000000 -0.587784
vn -0.809018 0.000000 -0.587784
vn -1.000000 0.000000 0.000000
vn -1.000000 0.000000 0.000000
s 1
g polySurface11 polySurface9
usemtl lambert3SG
f 1/1/1 2/2/2 12/3/3 11/4/4
f 2/5/2 3/6/5 13/7/6 12/8/3
f 3/9/5 4/10/7 14/11/8 13/12/6
f 4/10/7 5/13/9 15/14/10 14/11/8
f 5/13/9 6/15/11 16/16/12 15/14/10
f 6/15/11 7/17/13 17/18/14 16/16/12
f 7/19/13 8/20/15 18/21/16 17/22/14
f 8/23/15 9/24/17 19/25/18 18/26/16
f 9/24/17 10/27/19 20/28/20 19/25/18
f 10/27/19 1/1/1 11/4/4 20/28/20
f 22/29/21 21/30/22 23/31/23
f 24/32/24 22/29/21 23/31/23
f 25/33/25 24/32/24 23/31/23
f 26/34/26 25/33/25 23/31/23
f 27/35/27 26/34/26 23/31/23
f 28/36/28 27/35/27 23/31/23
f 29/37/29 28/36/28 23/31/23
f 30/38/30 29/37/29 23/31/23
f 31/39/31 30/38/30 23/31/23
f 21/30/22 31/39/31 23/31/23
s 2
f 72/40/32 73/41/33 74/42/34
f 73/41/33 75/43/35 74/42/34
f 75/43/35 76/44/36 74/42/34
f 76/44/36 77/45/37 74/42/34
f 77/45/37 78/46/38 74/42/34
f 78/46/38 79/47/39 74/42/34
f 79/47/39 80/48/40 74/42/34
f 80/48/40 81/49/41 74/42/34
f 81/49/41 82/50/42 74/42/34
f 82/50/42 72/40/32 74/42/34
s 1
f 2/2/2 1/1/1 21/51/22 22/52/21
f 3/6/5 2/5/2 22/53/21 24/54/24
f 4/10/7 3/9/5 24/55/24 25/56/25
f 5/13/9 4/10/7 25/56/25 26/57/26
f 6/15/11 5/13/9 26/57/26 27/58/27
f 7/17/13 6/15/11 27/58/27 28/59/28
f 8/20/15 7/19/13 28/60/28 29/61/29
f 9/24/17 8/23/15 29/62/29 30/63/30
f 10/27/19 9/24/17 30/63/30 31/64/31
f 1/1/1 10/27/19 31/64/31 21/51/22
f 11/4/4 12/3/3 33/65/43 32/66/44
f 12/8/3 13/7/6 34/67/45 33/68/43
f 13/12/6 14/11/8 35/69/46 34/70/45
f 14/11/8 15/14/10 36/71/47 35/69/46
f 15/14/10 16/16/12 37/72/48 36/71/47
f 16/16/12 17/18/14 38/73/49 37/72/48
f 17/22/14 18/21/16 39/74/50 38/75/49
f 18/26/16 19/25/18 40/76/51 39/77/50
f 19/25/18 20/28/20 41/78/52 40/76/51
f 20/28/20 11/4/4 32/66/44 41/78/52
f 32/66/44 33/65/43 43/79/53 42/80/54
f 33/68/43 34/67/45 44/81/55 43/82/53
f 34/70/45 35/69/46 45/83/56 44/84/55
f 35/69/46 36/71/47 46/85/57 45/83/56
f 36/71/47 37/72/48 47/86/58 46/85/57
f 37/72/48 38/73/49 48/87/59 47/86/58
f 38/75/49 39/74/50 49/88/60 48/89/59
f 39/77/50 40/76/51 50/90/61 49/91/60
f 40/76/51 41/78/52 51/92/62 50/90/61
f 41/78/52 32/66/44 42/80/54 51/92/62
f 42/93/54 43/94/53 53/95/63 52/96/64
f 43/94/53 44/97/55 54/98/65 53/95/63
f 44/97/55 45/99/56 55/100/66 54/98/65
f 45/83/56 46/85/57 56/101/67 55/102/66
f 46/85/57 47/86/58 57/103/68 56/101/67
f 47/104/58 48/105/59 58/106/69 57/107/68
f 48/105/59 49/108/60 59/109/70 58/106/69
f 49/108/60 50/110/61 60/111/71 59/109/70
f 50/90/61 51/92/62 61/112/72 60/113/71
f 51/92/62 42/80/54 52/114/64 61/112/72
f 52/96/64 53/95/63 63/115/73 62/116/74
f 53/95/63 54/98/65 64/117/75 63/115/73
f 54/98/65 55/100/66 65/118/76 64/117/75
f 55/100/66 56/119/67 66/120/77 65/118/76
f 56/119/67 57/107/68 67/121/78 66/120/77
f 57/107/68 58/106/69 68/122/79 67/121/78
f 58/106/69 59/109/70 69/123/80 68/122/79
f 59/109/70 60/111/71 70/124/81 69/123/80
f 60/111/71 61/125/72 71/126/82 70/124/81
f 61/125/72 52/96/64 62/116/74 71/126/82
s 3
f 62/127/83 63/128/84 73/129/85 72/130/86
f 63/131/84 64/132/87 75/133/88 73/134/85
f 64/135/87 65/136/89 76/137/90 75/138/88
f 65/136/89 66/139/91 77/140/92 76/137/90
f 66/139/91 67/141/93 78/142/94 77/140/92
f 67/141/93 68/143/95 79/144/96 78/142/94
f 68/145/95 69/146/97 80/147/98 79/148/96
f 69/149/97 70/150/99 81/151/100 80/152/98
f 70/150/99 71/153/101 82/154/102 81/151/100
f 71/153/101 62/127/83 72/130/86 82/154/102
