# This file uses centimeters as units for non-parametric coordinates.

mtllib M_Fence1.mtl
g default
v 0.340324 -8.492737 6.915790
v -0.129192 -8.450929 6.576280
v -0.709580 -8.426269 6.577816
v -1.179150 -8.428177 6.919810
v -1.358543 -8.455923 7.471633
v -1.179237 -8.498911 8.022506
v -0.709721 -8.540719 8.362015
v -0.129334 -8.565379 8.360479
v 0.340236 -8.563471 8.018485
v 0.519630 -8.535725 7.466663
v 0.419527 11.171634 8.730806
v 0.825607 2.883266 7.645555
v 0.356091 2.925074 7.306046
v -0.224297 2.949734 7.307582
v -0.693867 2.947826 7.649576
v -0.873260 2.920080 8.201399
v -0.693954 2.877092 8.752272
v -0.224438 2.835285 9.091781
v 0.355949 2.810625 9.090245
v 0.825519 2.812532 8.748251
v 1.004913 2.840278 8.196428
v 0.819488 9.810735 8.309751
v 0.927596 9.784818 8.641888
v 0.819435 9.768091 8.974598
v 0.536318 9.766939 9.180796
v 0.186386 9.781809 9.181722
v -0.096699 9.807016 8.977022
v -0.204808 9.832933 8.644884
v -0.096647 9.849661 8.312175
v 0.186471 9.850815 8.105977
v 0.536403 9.835945 8.105051
v -0.345340 -0.579444 4.570091
v -0.323551 -0.130025 4.801970
v 0.423611 -0.653396 4.612415
v 0.457825 -0.205145 4.845117
v 0.381357 -0.891821 5.054043
v 0.415571 -0.443572 5.286737
v -0.403510 -0.816370 5.010667
v -0.381716 -0.366953 5.242543
v 1.000493 -0.677515 4.822155
v 0.789072 -0.216772 4.978178
v 0.432119 -0.439188 5.321567
v 0.643540 -0.899930 5.165548
v 1.252590 -0.572904 5.567382
v 0.899316 -0.142246 5.467398
v 0.360642 -0.403217 5.482818
v 0.713911 -0.833869 5.582798
v 1.170918 0.012548 8.841187
v 0.817645 0.443201 8.741199
v 0.278972 0.182239 8.756615
v 0.632240 -0.248418 8.856599
v 0.797980 0.159358 9.450363
v 0.510757 0.557129 9.203423
v 0.056711 0.254037 9.030573
v 0.343928 -0.143738 9.277506
v -0.089138 0.288795 9.651941
v -0.089612 0.634238 9.280324
v -0.176299 0.264115 8.947760
v -0.175830 -0.081332 9.319366
v -0.763171 0.351790 9.604490
v -0.575828 0.681700 9.257524
v -0.421911 0.291663 8.956528
v -0.609249 -0.038246 9.303493
v -1.354571 0.336954 9.164915
v -1.009365 0.666255 8.909351
v -0.653202 0.275437 8.725452
v -0.998408 -0.053864 8.981012
v -1.435219 0.262409 8.693357
v -1.011885 0.603862 8.553723
v -0.555628 0.228616 8.518333
v -0.978957 -0.112837 8.657971
v -1.371618 -0.323681 5.405085
v -0.934528 0.033302 5.361838
v -0.460649 -0.322056 5.449930
v -0.897733 -0.679037 5.493182
v -1.247339 -0.421755 4.923103
v -0.879181 -0.030378 5.033659
v -0.493610 -0.341669 5.318797
v -0.861763 -0.733045 5.208245
v 0.115061 -8.809670 0.907373
v -0.362038 -8.818544 0.594351
v -0.931976 -8.829176 0.621591
v -1.377057 -8.837506 0.978688
v -1.527274 -8.840352 1.529243
v -1.325251 -8.836627 2.062963
v -0.848152 -8.827754 2.375985
v -0.278214 -8.817121 2.348746
v 0.166866 -8.808791 1.991649
v 0.317084 -8.805945 1.441093
v -0.966471 10.552007 1.486726
v -0.093965 2.397261 0.908274
v -0.571064 2.388387 0.595252
v -1.141002 2.377756 0.622492
v -1.586083 2.369426 0.979589
v -1.736301 2.366580 1.530144
v -1.534277 2.370304 2.063864
v -1.057178 2.379179 2.376886
v -0.487240 2.389810 2.349647
v -0.042160 2.398140 1.992549
v 0.108058 2.400986 1.441994
v -0.507228 9.217630 1.138248
v -0.385423 9.219875 1.460044
v -0.475993 9.218162 1.791989
v -0.744345 9.213136 2.007293
v -1.087977 9.206728 2.023717
v -1.375634 9.201378 1.834987
v -1.497439 9.199131 1.513192
v -1.406869 9.200845 1.181246
v -1.138517 9.205871 0.965942
v -0.794885 9.212280 0.949519
v -0.424108 3.831385 -3.771804
v -0.411279 4.166514 -3.553904
v 0.242597 3.766175 -3.735885
v 0.266199 4.100259 -3.517294
v 0.206602 3.543748 -3.407906
v 0.230204 3.877830 -3.189321
v -0.473902 3.610296 -3.444708
v -0.461069 3.945425 -3.226811
v 0.741607 3.727812 -3.566539
v 0.552648 4.078978 -3.409952
v 0.244329 3.878439 -3.161411
v 0.433287 3.527272 -3.317995
v 0.955387 3.749819 -2.969645
v 0.645065 4.098292 -3.018256
v 0.181274 3.894295 -3.032593
v 0.491591 3.545825 -2.983985
v 0.863081 3.951222 -0.350652
v 0.552759 4.299693 -0.399266
v 0.088968 4.095702 -0.413607
v 0.399285 3.747227 -0.364996
v 0.535602 4.020202 0.135722
v 0.283536 4.354139 -0.030285
v -0.105616 4.131528 -0.195021
v 0.146445 3.797586 -0.029020
v -0.235200 4.110291 0.294622
v -0.237725 4.411576 0.029634
v -0.307185 4.147135 -0.261899
v -0.304664 3.845848 0.003080
v -0.819542 4.166837 0.254856
v -0.659316 4.453048 0.010093
v -0.520285 4.169287 -0.255541
v -0.680505 3.883076 -0.010778
v -1.329636 4.192844 -0.098409
v -1.033080 4.470575 -0.269624
v -0.719390 4.175950 -0.441032
v -1.015946 3.898219 -0.269821
v -1.396498 4.171973 -0.475896
v -1.032935 4.449698 -0.554151
v -0.633397 4.155070 -0.606477
v -0.996956 3.877343 -0.528218
v -1.319770 3.971301 -3.106512
v -0.944908 4.253536 -3.107615
v -0.530894 3.964679 -3.061102
v -0.905752 3.682444 -3.059995
v -1.208812 3.931764 -3.491789
v -0.894748 4.229194 -3.370027
v -0.558625 3.959803 -3.166103
v -0.872683 3.662375 -3.287862
v 0.186095 -8.995332 -6.096871
v -0.331941 -9.000613 -6.436673
v -0.950687 -9.012156 -6.407100
v -1.433803 -9.025552 -6.019449
v -1.596756 -9.035683 -5.421788
v -1.377302 -9.038680 -4.842404
v -0.859266 -9.033399 -4.502602
v -0.240520 -9.021856 -4.532174
v 0.242596 -9.008460 -4.919826
v 0.405549 -8.998329 -5.517487
v -0.975898 12.016092 -5.216783
v -0.033874 3.170583 -5.950615
v -0.551910 3.165302 -6.290417
v -1.170656 3.153759 -6.260845
v -1.653772 3.140363 -5.873193
v -1.816725 3.130232 -5.275532
v -1.597271 3.127234 -4.696148
v -1.079235 3.132516 -4.356346
v -0.460489 3.144059 -4.385919
v 0.022627 3.157454 -4.773570
v 0.185580 3.167585 -5.371231
v -0.478239 10.571777 -5.612480
v -0.345924 10.569969 -5.263153
v -0.444173 10.563864 -4.902806
v -0.735458 10.555786 -4.669080
v -1.108517 10.548828 -4.651249
v -1.420856 10.545645 -4.856126
v -1.553171 10.547447 -5.205453
v -1.454922 10.553558 -5.565800
v -1.163638 10.561636 -5.799526
v -0.790578 10.568594 -5.817356
v 0.769157 -8.804336 -4.031009
v 0.252195 -8.792638 -4.369305
v -0.364914 -8.804329 -4.339809
v -0.846456 -8.834942 -3.953791
v -1.008497 -8.872785 -3.358693
v -0.789144 -8.903402 -2.781825
v -0.272183 -8.915100 -2.443530
v 0.344926 -8.903409 -2.473025
v 0.826468 -8.872796 -2.859043
v 0.988510 -8.834953 -3.454140
v -0.347481 12.089247 -2.166524
v 0.573948 3.309531 -3.313833
v 0.056986 3.321229 -3.652129
v -0.560123 3.309539 -3.622634
v -1.041664 3.278924 -3.236615
v -1.203706 3.241082 -2.641518
v -0.984353 3.210463 -2.064649
v -0.467391 3.198767 -1.726354
v 0.149718 3.210458 -1.755849
v 0.631259 3.241071 -2.141868
v 0.793301 3.278914 -2.736965
v 0.145675 10.667963 -2.629021
v 0.277929 10.649500 -2.281210
v 0.180230 10.626688 -1.922409
v -0.110105 10.608228 -1.689667
v -0.482178 10.601179 -1.671884
v -0.793869 10.608236 -1.875852
v -0.926123 10.626692 -2.223662
v -0.828424 10.649511 -2.582464
v -0.538088 10.667970 -2.815205
v -0.166016 10.675020 -2.832989
v 0.144809 -8.800811 -7.873719
v -0.340820 -8.819325 -8.192328
v -0.921168 -8.830151 -8.164591
v -1.374561 -8.829155 -7.801102
v -1.527819 -8.816718 -7.240703
v -1.322402 -8.797588 -6.697446
v -0.836772 -8.779075 -6.378837
v -0.256424 -8.768248 -6.406574
v 0.196969 -8.769244 -6.770063
v 0.350226 -8.781682 -7.330462
v -0.982767 10.921793 -7.831027
v -0.083071 2.606158 -8.189214
v -0.568700 2.587644 -8.507822
v -1.149048 2.576818 -8.480085
v -1.602441 2.577813 -8.116596
v -1.755699 2.590251 -7.556197
v -1.550281 2.609380 -7.012940
v -1.064652 2.627894 -6.694331
v -0.484304 2.638720 -6.722069
v -0.030911 2.637726 -7.085557
v 0.122346 2.625287 -7.645957
v -0.513157 9.554353 -8.147838
v -0.389305 9.565887 -7.820292
v -0.481709 9.573387 -7.482411
v -0.755072 9.573986 -7.263254
v -1.104981 9.567459 -7.246530
v -1.397781 9.556297 -7.438628
v -1.521633 9.544761 -7.766173
v -1.429229 9.537264 -8.104054
v -1.155866 9.536665 -8.323212
v -0.805957 9.543192 -8.339935
v 0.746911 -8.541841 -0.835997
v 0.271760 -8.568764 -1.147501
v -0.296284 -8.579525 -1.120351
v -0.740249 -8.570014 -0.764918
v -0.890554 -8.543864 -0.216966
v -0.689789 -8.511063 0.314207
v -0.214638 -8.484140 0.625711
v 0.353406 -8.473379 0.598561
v 0.797371 -8.482890 0.243128
v 0.947676 -8.509040 -0.304824
v -0.386139 10.755636 -1.294855
v 0.507041 2.611259 -1.434058
v 0.031890 2.584335 -1.745562
v -0.536154 2.573574 -1.718412
v -0.980119 2.583086 -1.362979
v -1.130424 2.609236 -0.815027
v -0.929658 2.642036 -0.283854
v -0.454508 2.668958 0.027650
v 0.113537 2.679720 0.000500
v 0.557501 2.670210 -0.354933
v 0.707806 2.644060 -0.902885
v 0.075709 9.410301 -1.569958
v 0.196757 9.430076 -1.249698
v 0.106133 9.445844 -0.919322
v -0.161546 9.451580 -0.705022
v -0.504036 9.445091 -0.688652
v -0.790518 9.428858 -0.876467
v -0.911565 9.409080 -1.196726
v -0.820942 9.393314 -1.527102
v -0.553263 9.387581 -1.741403
v -0.210773 9.394069 -1.757772
v 0.656846 -8.720677 2.643689
v 0.200418 -8.709482 2.345068
v -0.344415 -8.719803 2.371108
v -0.769544 -8.747698 2.711864
v -0.912584 -8.782513 3.237177
v -0.718900 -8.810948 3.746397
v -0.262471 -8.822143 4.045019
v 0.282361 -8.811821 4.018978
v 0.707490 -8.783926 3.678223
v 0.850530 -8.749112 3.152909
v -0.326538 9.721430 4.339781
v 0.485917 1.972668 3.305826
v 0.029489 1.983863 3.007204
v -0.515344 1.973542 3.033245
v -0.940473 1.945647 3.374000
v -1.083513 1.910832 3.899314
v -0.889829 1.882396 4.408534
v -0.433400 1.871202 4.707155
v 0.111432 1.881523 4.681115
v 0.536561 1.909419 4.340359
v 0.679602 1.944234 3.815046
v 0.108676 8.467660 3.928035
v 0.225454 8.450515 4.235058
v 0.139211 8.429528 4.551785
v -0.117112 8.412705 4.757236
v -0.445607 8.406483 4.772936
v -0.720800 8.413235 4.592889
v -0.837578 8.430377 4.285866
v -0.751335 8.451367 3.969139
v -0.495013 8.468188 3.763688
v -0.166518 8.474410 3.747988
v 1.138376 -8.407147 5.391183
v 0.604167 -8.434576 5.026515
v -0.042301 -8.463185 5.045883
v -0.554099 -8.482045 5.441890
v -0.735738 -8.483953 6.063273
v -0.517837 -8.468180 6.672687
v 0.016371 -8.440750 7.037355
v 0.662839 -8.412142 7.017986
v 1.174637 -8.393282 6.621980
v 1.356276 -8.391374 6.000597
v -0.668094 13.522535 5.813375
v 0.572473 4.295018 5.264764
v 0.038265 4.267588 4.900096
v -0.608203 4.238980 4.919464
v -1.120001 4.220120 5.315471
v -1.301640 4.218212 5.936854
v -1.083740 4.233985 6.546268
v -0.549531 4.261414 6.910936
v 0.096936 4.290023 6.891568
v 0.608734 4.308882 6.495561
v 0.790373 4.310791 5.874177
v -0.101014 12.019312 5.442191
v 0.030364 12.028822 5.809624
v -0.079151 12.027673 6.184274
v -0.387729 12.016302 6.423038
v -0.777503 11.999052 6.434715
v -1.099592 11.982515 6.214847
v -1.230971 11.973005 5.847414
v -1.121455 11.974153 5.472764
v -0.812878 11.985527 5.234000
v -0.423104 12.002777 5.222322
vt 0.339626 0.682178
vt 0.346444 0.682224
vt 0.353258 0.682277
vt 0.360073 0.682337
vt 0.366888 0.682400
vt 0.305572 0.682599
vt 0.312380 0.682504
vt 0.319187 0.682414
vt 0.325994 0.682329
vt 0.332806 0.682249
vt 0.333177 0.994344
vt 0.339626 0.866958
vt 0.346174 0.867133
vt 0.352746 0.867458
vt 0.359354 0.867934
vt 0.300187 0.868645
vt 0.306837 0.867994
vt 0.313439 0.867486
vt 0.320007 0.867128
vt 0.326553 0.866919
vt 0.333089 0.866863
vt 0.336687 0.971942
vt 0.333161 0.971770
vt 0.329633 0.971957
vt 0.326088 0.972502
vt 0.322504 0.973416
vt 0.318865 0.974711
vt 0.351188 0.976371
vt 0.347466 0.974681
vt 0.343821 0.973387
vt 0.340234 0.972479
vt 0.315153 0.976406
vt 0.366010 0.868555
vt 0.298764 0.682697
vt 0.174410 1.101875
vt 0.191276 1.098963
vt 0.193174 1.109266
vt 0.176275 1.112014
vt 0.353610 1.038018
vt 0.345309 1.052992
vt 0.336073 1.047611
vt 0.344516 1.032723
vt 0.172382 1.027250
vt 0.175338 1.044105
vt 0.164837 1.046109
vt 0.162089 1.029209
vt 0.194661 1.022814
vt 0.182330 1.035405
vt 0.174923 1.024949
vt 0.188382 1.014368
vt 0.365799 1.099600
vt 0.357325 1.114477
vt 0.353221 1.115076
vt 0.359410 1.100533
vt 0.164757 1.047071
vt 0.158193 1.033155
vt 0.209271 1.094091
vt 0.197054 1.082096
vt 0.200522 1.081636
vt 0.210448 1.093935
vt 0.174108 1.015678
vt 0.188358 1.009875
vt 0.336529 1.117514
vt 0.334105 1.104229
vt 0.201386 1.105763
vt 0.216117 1.093184
vt 0.218109 1.103547
vt 0.214819 1.079741
vt 0.347461 1.091632
vt 0.333190 1.093716
vt 0.223641 1.133999
vt 0.221217 1.120714
vt 0.329214 1.078197
vt 0.331206 1.088560
vt 0.327916 1.064755
vt 0.220302 1.110201
vt 0.207275 1.136389
vt 0.199692 1.123857
vt 0.338991 1.076902
vt 0.347603 1.086387
vt 0.342860 1.062775
vt 0.205385 1.112379
vt 0.369970 1.027719
vt 0.358937 1.035580
vt 0.354019 1.028663
vt 0.364122 1.015546
vt 0.193682 1.126019
vt 0.180139 1.122429
vt 0.178090 1.119574
vt 0.194556 1.117761
vt 0.177819 1.061895
vt 0.165910 1.068353
vt 0.163070 1.061780
vt 0.179292 1.058468
vt 0.184421 1.067194
vt 0.196712 1.078154
vt 0.176391 1.086643
vt 0.172208 1.070562
vt 0.348663 1.024951
vt 0.357080 1.011857
vt 0.177967 1.116266
vt 0.193460 1.111338
vt 0.162074 1.056059
vt 0.178247 1.055310
vt 0.160142 1.088870
vt 0.161819 1.072303
vt 0.338532 1.029118
vt 0.343354 1.015182
vt 0.197139 1.078753
vt 0.208109 1.066486
vt 0.215732 1.065362
vt 0.208502 1.077077
vt 0.169512 1.049463
vt 0.183733 1.051203
vt 0.343724 1.004302
vt 0.333172 1.005794
vt 0.326209 1.031049
vt 0.327286 1.017266
vt 0.223007 1.064289
vt 0.220746 1.075271
vt 0.206919 1.053019
vt 0.218073 1.051374
vt 0.322009 1.007373
vt 0.216077 1.046624
vt 0.213852 1.033309
vt 0.328817 1.048681
vt 0.330783 1.059040
vt 0.327182 1.035280
vt 0.212806 1.022817
vt 0.204685 1.048236
vt 0.196980 1.035837
vt 0.328381 1.049166
vt 0.337261 1.058505
vt 0.337047 1.033825
vt 0.203011 1.024060
vt 0.195894 1.049479
vt 0.177666 1.036943
vt 0.174044 1.050026
vt 0.339626 0.866958
vt 0.346174 0.867133
vt 0.340234 0.972479
vt 0.336687 0.971942
vt 0.352746 0.867458
vt 0.343821 0.973387
vt 0.359354 0.867934
vt 0.347466 0.974681
vt 0.366010 0.868555
vt 0.351188 0.976371
vt 0.300187 0.868645
vt 0.306837 0.867994
vt 0.318865 0.974711
vt 0.315153 0.976406
vt 0.313439 0.867486
vt 0.322504 0.973416
vt 0.320007 0.867128
vt 0.326088 0.972502
vt 0.326553 0.866919
vt 0.329633 0.971957
vt 0.333089 0.866863
vt 0.333161 0.971770
vt 0.339626 0.682178
vt 0.346444 0.682224
vt 0.353258 0.682277
vt 0.360073 0.682337
vt 0.366888 0.682400
vt 0.298764 0.682697
vt 0.305572 0.682599
vt 0.312380 0.682504
vt 0.319187 0.682414
vt 0.325994 0.682329
vt 0.332806 0.682249
vt 0.333177 0.994344
vt 0.174410 1.101875
vt 0.191276 1.098963
vt 0.193174 1.109266
vt 0.176275 1.112014
vt 0.353610 1.038018
vt 0.345309 1.052992
vt 0.336073 1.047611
vt 0.344516 1.032723
vt 0.172382 1.027250
vt 0.175338 1.044105
vt 0.164837 1.046109
vt 0.162089 1.029209
vt 0.194661 1.022814
vt 0.182330 1.035405
vt 0.174923 1.024949
vt 0.188382 1.014368
vt 0.365799 1.099600
vt 0.357325 1.114477
vt 0.353221 1.115076
vt 0.359410 1.100533
vt 0.164757 1.047071
vt 0.158193 1.033155
vt 0.209271 1.094091
vt 0.197054 1.082096
vt 0.200522 1.081636
vt 0.210448 1.093935
vt 0.174108 1.015678
vt 0.188358 1.009875
vt 0.336529 1.117514
vt 0.334105 1.104229
vt 0.201386 1.105763
vt 0.216117 1.093184
vt 0.218109 1.103547
vt 0.214819 1.079741
vt 0.347461 1.091632
vt 0.333190 1.093716
vt 0.223641 1.133999
vt 0.221217 1.120714
vt 0.329214 1.078197
vt 0.331206 1.088560
vt 0.327916 1.064755
vt 0.220302 1.110201
vt 0.207275 1.136389
vt 0.199692 1.123857
vt 0.338991 1.076902
vt 0.347603 1.086387
vt 0.342860 1.062775
vt 0.205385 1.112379
vt 0.369970 1.027719
vt 0.358937 1.035580
vt 0.354019 1.028663
vt 0.364122 1.015546
vt 0.193682 1.126019
vt 0.180139 1.122429
vt 0.178090 1.119574
vt 0.194556 1.117761
vt 0.177819 1.061895
vt 0.165910 1.068353
vt 0.163070 1.061780
vt 0.179292 1.058468
vt 0.184421 1.067194
vt 0.196712 1.078154
vt 0.176391 1.086643
vt 0.172208 1.070562
vt 0.348663 1.024951
vt 0.357080 1.011857
vt 0.177967 1.116266
vt 0.193460 1.111338
vt 0.162074 1.056059
vt 0.178247 1.055310
vt 0.160142 1.088870
vt 0.161819 1.072303
vt 0.338532 1.029118
vt 0.343354 1.015182
vt 0.197139 1.078753
vt 0.208109 1.066486
vt 0.215732 1.065362
vt 0.208502 1.077077
vt 0.169512 1.049463
vt 0.183733 1.051203
vt 0.343724 1.004302
vt 0.333172 1.005794
vt 0.326209 1.031049
vt 0.327286 1.017266
vt 0.223007 1.064289
vt 0.220746 1.075271
vt 0.206919 1.053019
vt 0.218073 1.051374
vt 0.322009 1.007373
vt 0.216077 1.046624
vt 0.213852 1.033309
vt 0.328817 1.048681
vt 0.330783 1.059040
vt 0.327182 1.035280
vt 0.212806 1.022817
vt 0.204685 1.048236
vt 0.196980 1.035837
vt 0.328381 1.049166
vt 0.337261 1.058505
vt 0.337047 1.033825
vt 0.203011 1.024060
vt 0.195894 1.049479
vt 0.177666 1.036943
vt 0.174044 1.050026
vt 0.339626 0.866958
vt 0.346174 0.867133
vt 0.340234 0.972479
vt 0.336687 0.971942
vt 0.352746 0.867458
vt 0.343821 0.973387
vt 0.359354 0.867934
vt 0.347466 0.974681
vt 0.366010 0.868555
vt 0.351188 0.976371
vt 0.300187 0.868645
vt 0.306837 0.867994
vt 0.318865 0.974711
vt 0.315153 0.976406
vt 0.313439 0.867486
vt 0.322504 0.973416
vt 0.320007 0.867128
vt 0.326088 0.972502
vt 0.326553 0.866919
vt 0.329633 0.971957
vt 0.333089 0.866863
vt 0.333161 0.971770
vt 0.339626 0.682178
vt 0.346444 0.682224
vt 0.353258 0.682277
vt 0.360073 0.682337
vt 0.366888 0.682400
vt 0.298764 0.682697
vt 0.305572 0.682599
vt 0.312380 0.682504
vt 0.319187 0.682414
vt 0.325994 0.682329
vt 0.332806 0.682249
vt 0.333177 0.994344
vt 0.339626 0.866958
vt 0.346174 0.867133
vt 0.340234 0.972479
vt 0.336687 0.971942
vt 0.352746 0.867458
vt 0.343821 0.973387
vt 0.359354 0.867934
vt 0.347466 0.974681
vt 0.366010 0.868555
vt 0.351188 0.976371
vt 0.300187 0.868645
vt 0.306837 0.867994
vt 0.318865 0.974711
vt 0.315153 0.976406
vt 0.313439 0.867486
vt 0.322504 0.973416
vt 0.320007 0.867128
vt 0.326088 0.972502
vt 0.326553 0.866919
vt 0.329633 0.971957
vt 0.333089 0.866863
vt 0.333161 0.971770
vt 0.339626 0.682178
vt 0.346444 0.682224
vt 0.353258 0.682277
vt 0.360073 0.682337
vt 0.366888 0.682400
vt 0.298764 0.682697
vt 0.305572 0.682599
vt 0.312380 0.682504
vt 0.319187 0.682414
vt 0.325994 0.682329
vt 0.332806 0.682249
vt 0.333177 0.994344
vt 0.339626 0.866958
vt 0.346174 0.867133
vt 0.340234 0.972479
vt 0.336687 0.971942
vt 0.352746 0.867458
vt 0.343821 0.973387
vt 0.359354 0.867934
vt 0.347466 0.974681
vt 0.366010 0.868555
vt 0.351188 0.976371
vt 0.300187 0.868645
vt 0.306837 0.867994
vt 0.318865 0.974711
vt 0.315153 0.976406
vt 0.313439 0.867486
vt 0.322504 0.973416
vt 0.320007 0.867128
vt 0.326088 0.972502
vt 0.326553 0.866919
vt 0.329633 0.971957
vt 0.333089 0.866863
vt 0.333161 0.971770
vt 0.339626 0.682178
vt 0.346444 0.682224
vt 0.353258 0.682277
vt 0.360073 0.682337
vt 0.366888 0.682400
vt 0.298764 0.682697
vt 0.305572 0.682599
vt 0.312380 0.682504
vt 0.319187 0.682414
vt 0.325994 0.682329
vt 0.332806 0.682249
vt 0.333177 0.994344
vt 0.339626 0.866958
vt 0.346174 0.867133
vt 0.340234 0.972479
vt 0.336687 0.971942
vt 0.352746 0.867458
vt 0.343821 0.973387
vt 0.359354 0.867934
vt 0.347466 0.974681
vt 0.366010 0.868555
vt 0.351188 0.976371
vt 0.300187 0.868645
vt 0.306837 0.867994
vt 0.318865 0.974711
vt 0.315153 0.976406
vt 0.313439 0.867486
vt 0.322504 0.973416
vt 0.320007 0.867128
vt 0.326088 0.972502
vt 0.326553 0.866919
vt 0.329633 0.971957
vt 0.333089 0.866863
vt 0.333161 0.971770
vt 0.339626 0.682178
vt 0.346444 0.682224
vt 0.353258 0.682277
vt 0.360073 0.682337
vt 0.366888 0.682400
vt 0.298764 0.682697
vt 0.305572 0.682599
vt 0.312380 0.682504
vt 0.319187 0.682414
vt 0.325994 0.682329
vt 0.332806 0.682249
vt 0.333177 0.994344
vt 0.339626 0.866958
vt 0.346174 0.867133
vt 0.340234 0.972479
vt 0.336687 0.971942
vt 0.352746 0.867458
vt 0.343821 0.973387
vt 0.359354 0.867934
vt 0.347466 0.974681
vt 0.366010 0.868555
vt 0.351188 0.976371
vt 0.300187 0.868645
vt 0.306837 0.867994
vt 0.318865 0.974711
vt 0.315153 0.976406
vt 0.313439 0.867486
vt 0.322504 0.973416
vt 0.320007 0.867128
vt 0.326088 0.972502
vt 0.326553 0.866919
vt 0.329633 0.971957
vt 0.333089 0.866863
vt 0.333161 0.971770
vt 0.339626 0.682178
vt 0.346444 0.682224
vt 0.353258 0.682277
vt 0.360073 0.682337
vt 0.366888 0.682400
vt 0.298764 0.682697
vt 0.305572 0.682599
vt 0.312380 0.682504
vt 0.319187 0.682414
vt 0.325994 0.682329
vt 0.332806 0.682249
vt 0.333177 0.994344
vt 0.339626 0.866958
vt 0.346174 0.867133
vt 0.340234 0.972479
vt 0.336687 0.971942
vt 0.352746 0.867458
vt 0.343821 0.973387
vt 0.359354 0.867934
vt 0.347466 0.974681
vt 0.366010 0.868555
vt 0.351188 0.976371
vt 0.300187 0.868645
vt 0.306837 0.867994
vt 0.318865 0.974711
vt 0.315153 0.976406
vt 0.313439 0.867486
vt 0.322504 0.973416
vt 0.320007 0.867128
vt 0.326088 0.972502
vt 0.326553 0.866919
vt 0.329633 0.971957
vt 0.333089 0.866863
vt 0.333161 0.971770
vt 0.339626 0.682178
vt 0.346444 0.682224
vt 0.353258 0.682277
vt 0.360073 0.682337
vt 0.366888 0.682400
vt 0.298764 0.682697
vt 0.305572 0.682599
vt 0.312380 0.682504
vt 0.319187 0.682414
vt 0.325994 0.682329
vt 0.332806 0.682249
vt 0.333177 0.994344
vn 0.808952 0.020721 -0.587510
vn 0.309509 0.065194 -0.948659
vn 0.311157 0.123761 -0.942266
vn 0.809219 0.079411 -0.582116
vn -0.307872 0.091425 -0.947025
vn -0.304513 0.149920 -0.940636
vn -0.807371 0.089396 -0.583232
vn -0.802630 0.147896 -0.577851
vn -0.998198 0.059881 0.003762
vn -0.992930 0.118463 0.007521
vn -0.807464 0.014154 0.589747
vn -0.802723 0.072862 0.591884
vn -0.308022 -0.030319 0.950896
vn -0.304664 0.028512 0.952033
vn 0.309359 -0.056551 0.949263
vn 0.311008 0.002353 0.950404
vn 0.808859 -0.054521 0.585470
vn 0.809127 0.004377 0.587618
vn 0.999686 -0.025006 -0.001525
vn 0.999426 0.033810 0.002249
vn 0.808331 0.003284 -0.588718
vn 0.308813 0.047764 -0.949923
vn -0.308663 0.073999 -0.948289
vn -0.808239 0.071970 -0.584440
vn -0.999095 0.042450 0.002644
vn -0.808331 -0.003284 0.588719
vn -0.308814 -0.047764 0.949923
vn 0.308662 -0.073999 0.948289
vn 0.808239 -0.071970 0.584441
vn 0.999095 -0.042450 -0.002644
vn 0.042532 0.997046 0.063958
vn -0.156762 -0.243261 -0.957209
vn -0.018549 0.860860 -0.508504
vn 0.173061 0.878784 -0.444735
vn 0.127300 -0.283562 -0.950467
vn -0.061355 -0.990239 0.125152
vn -0.118729 0.335350 0.934582
vn 0.157078 0.308817 0.938061
vn -0.181397 -0.981867 0.055074
vn -0.018549 0.860860 -0.508504
vn 0.157078 0.308817 0.938061
vn -0.118729 0.335350 0.934582
vn 0.173061 0.878784 -0.444735
vn -0.181397 -0.981867 0.055074
vn -0.156762 -0.243261 -0.957209
vn 0.127300 -0.283562 -0.950467
vn -0.061355 -0.990239 0.125152
vn 0.127300 -0.283562 -0.950467
vn 0.173061 0.878784 -0.444735
vn 0.508655 0.724975 -0.464416
vn 0.731571 -0.249997 -0.634276
vn 0.173061 0.878784 -0.444735
vn -0.118729 0.335350 0.934582
vn -0.905972 0.384803 0.176469
vn 0.508655 0.724975 -0.464416
vn -0.118729 0.335350 0.934582
vn -0.061355 -0.990239 0.125152
vn 0.173469 -0.983397 -0.053281
vn -0.905972 0.384803 0.176469
vn -0.061355 -0.990239 0.125152
vn 0.127300 -0.283562 -0.950467
vn 0.731571 -0.249997 -0.634276
vn 0.173469 -0.983397 -0.053281
vn 0.731571 -0.249997 -0.634276
vn 0.508655 0.724975 -0.464416
vn 0.225593 0.955807 -0.188524
vn 0.968379 -0.248089 0.026350
vn 0.508655 0.724975 -0.464416
vn -0.905972 0.384803 0.176469
vn -0.966758 0.247467 -0.064336
vn 0.225593 0.955807 -0.188524
vn -0.905972 0.384803 0.176469
vn 0.173469 -0.983397 -0.053281
vn -0.177615 -0.972277 0.152086
vn -0.966758 0.247467 -0.064336
vn 0.173469 -0.983397 -0.053281
vn 0.731571 -0.249997 -0.634276
vn 0.968379 -0.248089 0.026350
vn -0.177615 -0.972277 0.152086
vn 0.968379 -0.248089 0.026350
vn 0.225593 0.955807 -0.188524
vn 0.244469 0.959305 -0.141313
vn 0.964204 -0.225456 0.139573
vn 0.225593 0.955807 -0.188524
vn -0.966758 0.247467 -0.064336
vn -0.958686 0.244708 -0.145048
vn 0.244469 0.959305 -0.141313
vn -0.966758 0.247467 -0.064336
vn -0.177615 -0.972277 0.152086
vn -0.152310 -0.971945 0.179233
vn -0.958686 0.244708 -0.145048
vn -0.177615 -0.972277 0.152086
vn 0.968379 -0.248089 0.026350
vn 0.964204 -0.225456 0.139573
vn -0.152310 -0.971945 0.179233
vn 0.964204 -0.225456 0.139573
vn 0.244469 0.959305 -0.141313
vn 0.322713 0.912498 0.251403
vn 0.560654 0.007832 0.828013
vn 0.244469 0.959305 -0.141313
vn -0.958686 0.244708 -0.145048
vn -0.373698 0.082183 -0.923903
vn 0.322713 0.912498 0.251403
vn -0.958686 0.244708 -0.145048
vn -0.152310 -0.971945 0.179233
vn 0.021688 -0.916491 0.399466
vn -0.373698 0.082183 -0.923903
vn -0.152310 -0.971945 0.179233
vn 0.964204 -0.225456 0.139573
vn 0.560654 0.007832 0.828013
vn 0.021688 -0.916491 0.399466
vn 0.560654 0.007832 0.828013
vn 0.322713 0.912498 0.251403
vn 0.164998 0.942841 0.289530
vn 0.083369 0.090917 0.992363
vn 0.322713 0.912498 0.251403
vn -0.373698 0.082183 -0.923903
vn 0.019035 -0.040981 -0.998979
vn 0.164998 0.942841 0.289530
vn -0.373698 0.082183 -0.923903
vn 0.021688 -0.916491 0.399466
vn -0.040956 -0.931230 0.362125
vn 0.019035 -0.040981 -0.998979
vn 0.021688 -0.916491 0.399466
vn 0.560654 0.007832 0.828013
vn 0.083369 0.090917 0.992363
vn -0.040956 -0.931230 0.362125
vn 0.083369 0.090917 0.992363
vn 0.164998 0.942841 0.289530
vn -0.068537 0.964040 0.256767
vn -0.348858 0.120386 0.929411
vn 0.164998 0.942841 0.289530
vn 0.019035 -0.040981 -0.998979
vn 0.401910 -0.009851 -0.915626
vn -0.068537 0.964040 0.256767
vn 0.019035 -0.040981 -0.998979
vn -0.040956 -0.931230 0.362125
vn -0.184165 -0.905075 0.383305
vn 0.401910 -0.009851 -0.915626
vn -0.040956 -0.931230 0.362125
vn 0.083369 0.090917 0.992363
vn -0.348858 0.120386 0.929411
vn -0.184165 -0.905075 0.383305
vn -0.348858 0.120386 0.929411
vn -0.068537 0.964040 0.256767
vn -0.210549 0.977418 0.017987
vn -0.796450 0.091979 0.597669
vn -0.068537 0.964040 0.256767
vn 0.401910 -0.009851 -0.915626
vn 0.939390 0.048183 -0.339449
vn -0.210549 0.977418 0.017987
vn 0.401910 -0.009851 -0.915626
vn -0.184165 -0.905075 0.383305
vn -0.240619 -0.938648 0.247066
vn 0.939390 0.048183 -0.339449
vn -0.184165 -0.905075 0.383305
vn -0.348858 0.120386 0.929411
vn -0.796450 0.091979 0.597669
vn -0.240619 -0.938648 0.247066
vn -0.796450 0.091979 0.597669
vn -0.210549 0.977418 0.017987
vn -0.112803 0.979827 -0.164968
vn -0.999774 -0.021020 -0.003302
vn -0.210549 0.977418 0.017987
vn 0.939390 0.048183 -0.339449
vn 0.997105 0.072084 0.024205
vn -0.112803 0.979827 -0.164968
vn 0.939390 0.048183 -0.339449
vn -0.240619 -0.938648 0.247066
vn -0.115189 -0.976046 0.184567
vn 0.997105 0.072084 0.024205
vn -0.240619 -0.938648 0.247066
vn -0.796450 0.091979 0.597669
vn -0.999774 -0.021020 -0.003302
vn -0.115189 -0.976046 0.184567
vn -0.999774 -0.021020 -0.003302
vn -0.112803 0.979827 -0.164968
vn -0.042037 0.981925 -0.184541
vn -0.998417 -0.044461 -0.034450
vn -0.112803 0.979827 -0.164968
vn 0.997105 0.072084 0.024205
vn 0.998128 0.058664 0.017276
vn -0.042037 0.981925 -0.184541
vn 0.997105 0.072084 0.024205
vn -0.115189 -0.976046 0.184567
vn -0.050130 -0.984309 0.169181
vn 0.998128 0.058664 0.017276
vn -0.115189 -0.976046 0.184567
vn -0.999774 -0.021020 -0.003302
vn -0.998417 -0.044461 -0.034450
vn -0.050130 -0.984309 0.169181
vn -0.998417 -0.044461 -0.034450
vn -0.042037 0.981925 -0.184541
vn -0.235630 0.809377 -0.537948
vn -0.659106 -0.130661 -0.740613
vn -0.042037 0.981925 -0.184541
vn 0.998128 0.058664 0.017276
vn 0.801712 0.259686 0.538351
vn -0.235630 0.809377 -0.537948
vn 0.998128 0.058664 0.017276
vn -0.050130 -0.984309 0.169181
vn -0.292428 -0.952599 -0.083906
vn 0.801712 0.259686 0.538351
vn -0.050130 -0.984309 0.169181
vn -0.998417 -0.044461 -0.034450
vn -0.659106 -0.130661 -0.740613
vn -0.292428 -0.952599 -0.083906
vn -0.659106 -0.130661 -0.740613
vn -0.235630 0.809377 -0.537948
vn -0.018549 0.860860 -0.508504
vn -0.156762 -0.243261 -0.957209
vn -0.235630 0.809377 -0.537948
vn 0.801712 0.259686 0.538351
vn 0.157078 0.308817 0.938061
vn -0.018549 0.860860 -0.508504
vn 0.801712 0.259686 0.538351
vn -0.292428 -0.952599 -0.083906
vn -0.181397 -0.981867 0.055074
vn 0.157078 0.308817 0.938061
vn -0.292428 -0.952599 -0.083906
vn -0.659106 -0.130661 -0.740613
vn -0.156762 -0.243261 -0.957209
vn -0.181397 -0.981867 0.055074
vn 0.779457 0.032080 -0.625634
vn 0.262856 0.022472 -0.964573
vn 0.261029 0.081321 -0.961900
vn 0.776201 0.090903 -0.623898
vn -0.354272 0.010960 -0.935078
vn -0.354390 0.069841 -0.932486
vn -0.836205 0.001940 -0.548414
vn -0.834989 0.060845 -0.546893
vn -0.998860 -0.001142 0.047726
vn -0.997195 0.057772 0.047599
vn -0.780109 0.002892 0.625637
vn -0.779049 0.061795 0.623910
vn -0.263508 0.012500 0.964576
vn -0.263878 0.071376 0.961911
vn 0.353620 0.024012 0.935081
vn 0.351543 0.082857 0.932498
vn 0.835552 0.033032 0.548417
vn 0.832141 0.091852 0.546904
vn 0.998208 0.036114 -0.047723
vn 0.994347 0.094925 -0.047586
vn 0.779903 0.014597 -0.625731
vn 0.263222 0.004987 -0.964722
vn -0.354000 -0.006527 -0.935223
vn -0.836006 -0.015549 -0.548500
vn -0.998686 -0.018631 0.047732
vn -0.779902 -0.014597 0.625731
vn -0.263222 -0.004987 0.964722
vn 0.354000 0.006527 0.935223
vn 0.836006 0.015549 0.548500
vn 0.998686 0.018631 -0.047731
vn -0.018647 0.999826 0.000082
vn -0.131700 -0.148713 -0.980071
vn -0.006608 0.907421 -0.420170
vn 0.167462 0.920410 -0.353273
vn 0.127597 -0.185840 -0.974260
vn -0.061775 -0.997783 0.024770
vn -0.119337 0.239060 0.963644
vn 0.132491 0.215919 0.967380
vn -0.170390 -0.984352 -0.044922
vn -0.006608 0.907421 -0.420170
vn 0.132491 0.215919 0.967380
vn -0.119337 0.239060 0.963644
vn 0.167462 0.920410 -0.353273
vn -0.170390 -0.984352 -0.044922
vn -0.131700 -0.148713 -0.980071
vn 0.127597 -0.185840 -0.974260
vn -0.061775 -0.997783 0.024770
vn 0.127597 -0.185840 -0.974260
vn 0.167462 0.920410 -0.353273
vn 0.480208 0.784819 -0.391739
vn 0.707022 -0.184899 -0.682592
vn 0.167462 0.920410 -0.353273
vn -0.119337 0.239060 0.963644
vn -0.895676 0.383304 0.225482
vn 0.480208 0.784819 -0.391739
vn -0.119337 0.239060 0.963644
vn -0.061775 -0.997783 0.024770
vn 0.155737 -0.976123 -0.151429
vn -0.895676 0.383304 0.225482
vn -0.061775 -0.997783 0.024770
vn 0.127597 -0.185840 -0.974260
vn 0.707022 -0.184899 -0.682592
vn 0.155737 -0.976123 -0.151429
vn 0.707022 -0.184899 -0.682592
vn 0.480208 0.784819 -0.391739
vn 0.212526 0.972974 -0.090300
vn 0.965569 -0.260011 0.008421
vn 0.480208 0.784819 -0.391739
vn -0.895676 0.383304 0.225482
vn -0.963373 0.263492 -0.049852
vn 0.212526 0.972974 -0.090300
vn -0.895676 0.383304 0.225482
vn 0.155737 -0.976123 -0.151429
vn -0.168163 -0.984354 0.052623
vn -0.963373 0.263492 -0.049852
vn 0.155737 -0.976123 -0.151429
vn 0.707022 -0.184899 -0.682592
vn 0.965569 -0.260011 0.008421
vn -0.168163 -0.984354 0.052623
vn 0.965569 -0.260011 0.008421
vn 0.212526 0.972974 -0.090300
vn 0.229261 0.972423 -0.042818
vn 0.959506 -0.247691 0.134155
vn 0.212526 0.972974 -0.090300
vn -0.963373 0.263492 -0.049852
vn -0.953185 0.269129 -0.137870
vn 0.229261 0.972423 -0.042818
vn -0.963373 0.263492 -0.049852
vn -0.168163 -0.984354 0.052623
vn -0.145389 -0.986149 0.079820
vn -0.953185 0.269129 -0.137870
vn -0.168163 -0.984354 0.052623
vn 0.965569 -0.260011 0.008421
vn 0.959506 -0.247691 0.134155
vn -0.145389 -0.986149 0.079820
vn 0.959506 -0.247691 0.134155
vn 0.229261 0.972423 -0.042818
vn 0.296318 0.890423 0.345461
vn 0.515931 -0.070001 0.853766
vn 0.229261 0.972423 -0.042818
vn -0.953185 0.269129 -0.137870
vn -0.333251 0.171770 -0.927059
vn 0.296318 0.890423 0.345461
vn -0.953185 0.269129 -0.137870
vn -0.145389 -0.986149 0.079820
vn 0.010681 -0.951965 0.306020
vn -0.333251 0.171770 -0.927059
vn -0.145389 -0.986149 0.079820
vn 0.959506 -0.247691 0.134155
vn 0.515931 -0.070001 0.853766
vn 0.010681 -0.951965 0.306020
vn 0.515931 -0.070001 0.853766
vn 0.296318 0.890423 0.345461
vn 0.150716 0.910987 0.383909
vn 0.063403 -0.007506 0.997960
vn 0.296318 0.890423 0.345461
vn -0.333251 0.171770 -0.927059
vn 0.030363 0.059049 -0.997793
vn 0.150716 0.910987 0.383909
vn -0.333251 0.171770 -0.927059
vn 0.010681 -0.951965 0.306020
vn -0.046055 -0.962691 0.266656
vn 0.030363 0.059049 -0.997793
vn 0.010681 -0.951965 0.306020
vn 0.515931 -0.070001 0.853766
vn 0.063403 -0.007506 0.997960
vn -0.046055 -0.962691 0.266656
vn 0.063403 -0.007506 0.997960
vn 0.150716 0.910987 0.383909
vn -0.061973 0.933802 0.352383
vn -0.332873 0.023010 0.942691
vn 0.150716 0.910987 0.383909
vn 0.030363 0.059049 -0.997793
vn 0.382942 0.087340 -0.919634
vn -0.061973 0.933802 0.352383
vn 0.030363 0.059049 -0.997793
vn -0.046055 -0.962691 0.266656
vn -0.176918 -0.940696 0.289467
vn 0.382942 0.087340 -0.919634
vn -0.046055 -0.962691 0.266656
vn 0.063403 -0.007506 0.997960
vn -0.332873 0.023010 0.942691
vn -0.176918 -0.940696 0.289467
vn -0.332873 0.023010 0.942691
vn -0.061973 0.933802 0.352383
vn -0.189671 0.975034 0.115469
vn -0.774737 0.023411 0.631850
vn -0.061973 0.933802 0.352383
vn 0.382942 0.087340 -0.919634
vn 0.930283 0.100611 -0.352775
vn -0.189671 0.975034 0.115469
vn 0.382942 0.087340 -0.919634
vn -0.176918 -0.940696 0.289467
vn -0.227021 -0.962225 0.150284
vn 0.930283 0.100611 -0.352775
vn -0.176918 -0.940696 0.289467
vn -0.332873 0.023010 0.942691
vn -0.774737 0.023411 0.631850
vn -0.227021 -0.962225 0.150284
vn -0.774737 0.023411 0.631850
vn -0.189671 0.975034 0.115469
vn -0.096978 0.993041 -0.066827
vn -0.999270 -0.035881 -0.013109
vn -0.189671 0.975034 0.115469
vn 0.930283 0.100611 -0.352775
vn 0.995164 0.089066 0.041433
vn -0.096978 0.993041 -0.066827
vn 0.930283 0.100611 -0.352775
vn -0.227021 -0.962225 0.150284
vn -0.111591 -0.990117 0.084943
vn 0.995164 0.089066 0.041433
vn -0.227021 -0.962225 0.150284
vn -0.774737 0.023411 0.631850
vn -0.999270 -0.035881 -0.013109
vn -0.111591 -0.990117 0.084943
vn -0.999270 -0.035881 -0.013109
vn -0.096978 0.993041 -0.066827
vn -0.031843 0.995828 -0.085514
vn -0.997085 -0.057969 -0.049607
vn -0.096978 0.993041 -0.066827
vn 0.995164 0.089066 0.041433
vn 0.996636 0.075268 0.032437
vn -0.031843 0.995828 -0.085514
vn 0.995164 0.089066 0.041433
vn -0.111591 -0.990117 0.084943
vn -0.052096 -0.996238 0.069252
vn 0.996636 0.075268 0.032437
vn -0.111591 -0.990117 0.084943
vn -0.999270 -0.035881 -0.013109
vn -0.997085 -0.057969 -0.049607
vn -0.052096 -0.996238 0.069252
vn -0.997085 -0.057969 -0.049607
vn -0.031843 0.995828 -0.085514
vn -0.206398 0.863640 -0.459919
vn -0.616023 -0.066722 -0.784897
vn -0.031843 0.995828 -0.085514
vn 0.996636 0.075268 0.032437
vn 0.767348 0.226725 0.599811
vn -0.206398 0.863640 -0.459919
vn 0.996636 0.075268 0.032437
vn -0.052096 -0.996238 0.069252
vn -0.270531 -0.945434 -0.181568
vn 0.767348 0.226725 0.599811
vn -0.052096 -0.996238 0.069252
vn -0.997085 -0.057969 -0.049607
vn -0.616023 -0.066722 -0.784897
vn -0.270531 -0.945434 -0.181568
vn -0.616023 -0.066722 -0.784897
vn -0.206398 0.863640 -0.459919
vn -0.006608 0.907421 -0.420170
vn -0.131700 -0.148713 -0.980071
vn -0.206398 0.863640 -0.459919
vn 0.767348 0.226725 0.599811
vn 0.132491 0.215919 0.967380
vn -0.006608 0.907421 -0.420170
vn 0.767348 0.226725 0.599811
vn -0.270531 -0.945434 -0.181568
vn -0.170390 -0.984352 -0.044922
vn 0.132491 0.215919 0.967380
vn -0.270531 -0.945434 -0.181568
vn -0.616023 -0.066722 -0.784897
vn -0.131700 -0.148713 -0.980071
vn -0.170390 -0.984352 -0.044922
vn 0.779338 0.039102 -0.625383
vn 0.262657 0.033835 -0.964296
vn 0.260865 0.092649 -0.960919
vn 0.776116 0.097902 -0.622945
vn -0.354471 0.022322 -0.934801
vn -0.354555 0.081168 -0.931506
vn -0.836323 0.008962 -0.548163
vn -0.835074 0.067844 -0.545939
vn -0.998850 -0.001143 0.047934
vn -0.997151 0.057767 0.048510
vn -0.779970 -0.004133 0.625803
vn -0.778877 0.054787 0.624780
vn -0.263289 0.001135 0.964716
vn -0.263626 0.060039 0.962755
vn 0.353839 0.012648 0.935221
vn 0.351795 0.071520 0.933341
vn 0.835691 0.026008 0.548583
vn 0.832314 0.084844 0.547774
vn 0.998218 0.036113 -0.047514
vn 0.994390 0.094920 -0.046674
vn 0.779774 0.021621 -0.625688
vn 0.263013 0.016352 -0.964654
vn -0.354210 0.004838 -0.935154
vn -0.836135 -0.008525 -0.548457
vn -0.998687 -0.018631 0.047731
vn -0.779773 -0.021621 0.625688
vn -0.263013 -0.016352 0.964654
vn 0.354209 -0.004838 0.935154
vn 0.836135 0.008525 0.548457
vn 0.998686 0.018631 -0.047731
vn -0.018076 0.999764 0.012017
vn 0.778889 0.066991 -0.623574
vn 0.261914 0.078688 -0.961878
vn 0.260241 0.137282 -0.955735
vn 0.775785 0.125616 -0.618368
vn -0.355210 0.066998 -0.932382
vn -0.355175 0.125623 -0.926321
vn -0.836764 0.036384 -0.546354
vn -0.835396 0.095094 -0.541361
vn -0.998810 -0.001460 0.048758
vn -0.996993 0.057354 0.052106
vn -0.779451 -0.032078 0.625641
vn -0.778242 0.026822 0.627392
vn -0.262477 -0.043776 0.963945
vn -0.262699 0.015156 0.964759
vn 0.354648 -0.032085 0.934449
vn 0.352719 0.026814 0.935345
vn 0.836201 -0.001471 0.548421
vn 0.832939 0.057344 0.550385
vn 0.998247 0.036372 -0.046691
vn 0.994537 0.095082 -0.043080
vn 0.779289 0.049542 -0.624703
vn 0.262236 0.061242 -0.963059
vn -0.354983 0.049549 -0.933559
vn -0.836611 0.018930 -0.547471
vn -0.998681 -0.018919 0.047732
vn -0.779289 -0.049542 0.624703
vn -0.262236 -0.061242 0.963059
vn 0.354983 -0.049549 0.933559
vn 0.836610 -0.018930 0.547471
vn 0.998681 0.018919 -0.047732
vn -0.016083 0.998123 0.059094
vn 0.779749 0.015765 -0.625894
vn 0.263342 -0.003922 -0.964694
vn 0.261437 0.054976 -0.963654
vn 0.776415 0.074609 -0.625791
vn -0.353786 -0.015434 -0.935199
vn -0.353983 0.043496 -0.934240
vn -0.835912 -0.014375 -0.548675
vn -0.834775 0.044552 -0.548786
vn -0.998883 -0.001149 0.047241
vn -0.997295 0.057741 0.045482
vn -0.780447 0.019192 0.624927
vn -0.779464 0.078026 0.621569
vn -0.264041 0.038879 0.963728
vn -0.264487 0.097659 0.959432
vn 0.353087 0.050392 0.934232
vn 0.350934 0.109140 0.930018
vn 0.835214 0.049333 0.547707
vn 0.831727 0.108084 0.544563
vn 0.998185 0.036107 -0.048208
vn 0.994246 0.094894 -0.049703
vn 0.780217 -0.001714 -0.625506
vn 0.263732 -0.021404 -0.964359
vn -0.353490 -0.032918 -0.934859
vn -0.835691 -0.031859 -0.548275
vn -0.998686 -0.018631 0.047732
vn -0.780217 0.001714 0.625506
vn -0.263732 0.021404 0.964359
vn 0.353490 0.032918 0.934859
vn 0.835691 0.031859 0.548275
vn 0.998686 0.018631 -0.047732
vn -0.019963 0.999419 -0.027642
vn 0.780041 0.000741 -0.625728
vn 0.263836 -0.028508 -0.964146
vn 0.261841 0.030394 -0.964632
vn 0.776617 0.059562 -0.627151
vn -0.353288 -0.040199 -0.934651
vn -0.353575 0.018736 -0.935218
vn -0.835612 -0.029866 -0.548508
vn -0.834564 0.029040 -0.550144
vn -0.998904 -0.001456 0.046789
vn -0.997405 0.057371 0.043505
vn -0.780792 0.034179 0.623856
vn -0.779896 0.092907 0.618975
vn -0.264587 0.063428 0.962274
vn -0.265120 0.122075 0.956457
vn 0.352537 0.075118 0.932778
vn 0.350296 0.133734 0.927043
vn 0.834861 0.064786 0.546635
vn 0.831285 0.123430 0.541969
vn 0.998153 0.036376 -0.048661
vn 0.994125 0.095099 -0.051681
vn 0.780536 -0.016721 -0.624887
vn 0.264252 -0.045975 -0.963357
vn -0.352967 -0.057667 -0.933857
vn -0.835364 -0.047333 -0.547655
vn -0.998681 -0.018919 0.047732
vn -0.780536 0.016721 0.624888
vn -0.264252 0.045975 0.963357
vn 0.352966 0.057667 0.933857
vn 0.835364 0.047333 0.547655
vn 0.998681 0.018919 -0.047732
vn -0.021472 0.998335 -0.053534
vn 0.778866 0.068578 -0.623430
vn 0.261875 0.081258 -0.961675
vn 0.260210 0.139834 -0.955373
vn 0.775770 0.127189 -0.618065
vn -0.355249 0.069567 -0.932179
vn -0.355206 0.128176 -0.925959
vn -0.836787 0.037971 -0.546210
vn -0.835411 0.096667 -0.541058
vn -0.998807 -0.001463 0.048805
vn -0.996983 0.057342 0.052312
vn -0.779423 -0.033671 0.625592
vn -0.778206 0.025224 0.627502
vn -0.262433 -0.046351 0.963836
vn -0.262648 0.012578 0.964810
vn 0.354692 -0.034660 0.934341
vn 0.352771 0.024237 0.935396
vn 0.836229 -0.003064 0.548372
vn 0.832975 0.055746 0.550495
vn 0.998249 0.036370 -0.046644
vn 0.994547 0.095070 -0.042873
vn 0.779264 0.051132 -0.624607
vn 0.262194 0.063814 -0.962903
vn -0.355025 0.052122 -0.933403
vn -0.836636 0.020520 -0.547375
vn -0.998681 -0.018919 0.047732
vn -0.779264 -0.051132 0.624607
vn -0.262194 -0.063814 0.962903
vn 0.355025 -0.052122 0.933403
vn 0.836636 -0.020520 0.547375
vn 0.998681 0.018919 -0.047732
vn -0.015951 0.997961 0.061794
vn 0.789657 0.046599 -0.611777
vn 0.279750 0.020418 -0.959856
vn 0.276352 0.079221 -0.957786
vn 0.784849 0.105330 -0.610670
vn -0.337309 -0.006889 -0.941369
vn -0.338998 0.051990 -0.939350
vn -0.825825 -0.024892 -0.563377
vn -0.826162 0.034037 -0.562404
vn -0.999201 -0.026713 0.029739
vn -0.999058 0.032221 0.029071
vn -0.791213 -0.011657 0.611429
vn -0.791646 0.047235 0.609151
vn -0.281306 0.014524 0.959508
vn -0.283151 0.073344 0.956267
vn 0.335753 0.041831 0.941021
vn 0.332202 0.100575 0.937831
vn 0.824268 0.059833 0.563029
vn 0.819365 0.118528 0.560886
vn 0.997644 0.061654 -0.030087
vn 0.992261 0.120344 -0.030589
vn 0.790556 0.029133 -0.611697
vn 0.280571 0.002947 -0.959829
vn -0.336582 -0.024364 -0.941339
vn -0.825173 -0.042369 -0.563290
vn -0.998575 -0.044190 0.029918
vn -0.790556 -0.029133 0.611697
vn -0.280570 -0.002947 0.959829
vn 0.336582 0.024364 0.941339
vn 0.825173 0.042369 0.563289
vn 0.998575 0.044190 -0.029917
vn -0.044506 0.998960 -0.009942
s 1
g pCylinder14
usemtl M_WoodSmall:lambert6SG
f 12/12/1 13/13/2 31/31/3 22/22/4
f 13/13/2 14/14/5 30/30/6 31/31/3
f 14/14/5 15/15/7 29/29/8 30/30/6
f 15/15/7 16/33/9 28/28/10 29/29/8
f 16/16/9 17/17/11 27/27/12 28/32/10
f 17/17/11 18/18/13 26/26/14 27/27/12
f 18/18/13 19/19/15 25/25/16 26/26/14
f 19/19/15 20/20/17 24/24/18 25/25/16
f 20/20/17 21/21/19 23/23/20 24/24/18
f 21/21/19 12/12/1 22/22/4 23/23/20
f 1/1/21 2/2/22 13/13/2 12/12/1
f 2/2/22 3/3/23 14/14/5 13/13/2
f 3/3/23 4/4/24 15/15/7 14/14/5
f 4/4/24 5/5/25 16/33/9 15/15/7
f 5/34/25 6/6/26 17/17/11 16/16/9
f 6/6/26 7/7/27 18/18/13 17/17/11
f 7/7/27 8/8/28 19/19/15 18/18/13
f 8/8/28 9/9/29 20/20/17 19/19/15
f 9/9/29 10/10/30 21/21/19 20/20/17
f 10/10/30 1/1/21 12/12/1 21/21/19
f 23/23/20 22/22/4 11/11/31
f 24/24/18 23/23/20 11/11/31
f 25/25/16 24/24/18 11/11/31
f 26/26/14 25/25/16 11/11/31
f 27/27/12 26/26/14 11/11/31
f 28/32/10 27/27/12 11/11/31
f 29/29/8 28/28/10 11/11/31
f 30/30/6 29/29/8 11/11/31
f 31/31/3 30/30/6 11/11/31
f 22/22/4 31/31/3 11/11/31
s off
f 32/35/32 33/36/33 35/37/34 34/38/35
f 36/39/36 37/40/37 39/41/38 38/42/39
f 33/43/40 39/44/41 37/45/42 35/46/43
f 38/47/44 32/48/45 34/49/46 36/50/47
f 34/51/48 35/52/49 41/53/50 40/54/51
f 35/46/52 37/45/53 42/55/54 41/56/55
f 37/57/56 36/58/57 43/59/58 42/60/59
f 36/50/60 34/49/61 40/61/62 43/62/63
f 40/54/64 41/53/65 45/63/66 44/64/67
f 41/65/68 42/60/69 46/66/70 45/67/71
f 42/60/72 43/59/73 47/68/74 46/66/75
f 43/69/76 40/54/77 44/64/78 47/70/79
f 44/64/80 45/63/81 49/71/82 48/72/83
f 45/67/84 46/66/85 50/73/86 49/74/87
f 46/66/88 47/68/89 51/75/90 50/73/91
f 47/70/92 44/64/93 48/72/94 51/76/95
f 48/72/96 49/71/97 53/77/98 52/78/99
f 49/74/100 50/73/101 54/79/102 53/80/103
f 50/73/104 51/75/105 55/81/106 54/79/107
f 51/76/108 48/72/109 52/78/110 55/82/111
f 52/83/112 53/84/113 57/85/114 56/86/115
f 53/87/116 54/88/117 58/89/118 57/90/119
f 54/91/120 55/92/121 59/93/122 58/94/123
f 55/95/124 52/96/125 56/97/126 59/98/127
f 56/86/128 57/85/129 61/99/130 60/100/131
f 57/90/132 58/89/133 62/101/134 61/102/135
f 58/94/136 59/93/137 63/103/138 62/104/139
f 59/98/140 56/97/141 60/105/142 63/106/143
f 60/100/144 61/99/145 65/107/146 64/108/147
f 61/109/148 62/110/149 66/111/150 65/112/151
f 62/104/152 63/103/153 67/113/154 66/114/155
f 63/115/156 60/100/157 64/108/158 67/116/159
f 64/108/160 65/107/161 69/117/162 68/118/163
f 65/112/164 66/111/165 70/119/166 69/120/167
f 66/111/168 67/121/169 71/122/170 70/119/171
f 67/116/172 64/108/173 68/118/174 71/123/175
f 68/118/176 69/117/177 73/124/178 72/125/179
f 69/120/180 70/119/181 74/126/182 73/127/183
f 70/119/184 71/122/185 75/128/186 74/126/187
f 71/123/188 68/118/189 72/125/190 75/129/191
f 72/125/192 73/124/193 77/130/194 76/131/195
f 73/127/196 74/126/197 78/132/198 77/133/199
f 74/126/200 75/128/201 79/134/202 78/132/203
f 75/129/204 72/125/205 76/131/206 79/135/207
f 76/131/208 77/130/209 33/136/210 32/48/211
f 77/137/212 78/138/213 39/44/214 33/43/215
f 78/132/216 79/134/217 38/42/218 39/41/219
f 79/135/220 76/131/221 32/48/222 38/47/223
s 2
f 91/139/224 92/140/225 110/141/226 101/142/227
f 92/140/225 93/143/228 109/144/229 110/141/226
f 93/143/228 94/145/230 108/146/231 109/144/229
f 94/145/230 95/147/232 107/148/233 108/146/231
f 95/149/232 96/150/234 106/151/235 107/152/233
f 96/150/234 97/153/236 105/154/237 106/151/235
f 97/153/236 98/155/238 104/156/239 105/154/237
f 98/155/238 99/157/240 103/158/241 104/156/239
f 99/157/240 100/159/242 102/160/243 103/158/241
f 100/159/242 91/139/224 101/142/227 102/160/243
f 80/161/244 81/162/245 92/140/225 91/139/224
f 81/162/245 82/163/246 93/143/228 92/140/225
f 82/163/246 83/164/247 94/145/230 93/143/228
f 83/164/247 84/165/248 95/147/232 94/145/230
f 84/166/248 85/167/249 96/150/234 95/149/232
f 85/167/249 86/168/250 97/153/236 96/150/234
f 86/168/250 87/169/251 98/155/238 97/153/236
f 87/169/251 88/170/252 99/157/240 98/155/238
f 88/170/252 89/171/253 100/159/242 99/157/240
f 89/171/253 80/161/244 91/139/224 100/159/242
f 102/160/243 101/142/227 90/172/254
f 103/158/241 102/160/243 90/172/254
f 104/156/239 103/158/241 90/172/254
f 105/154/237 104/156/239 90/172/254
f 106/151/235 105/154/237 90/172/254
f 107/152/233 106/151/235 90/172/254
f 108/146/231 107/148/233 90/172/254
f 109/144/229 108/146/231 90/172/254
f 110/141/226 109/144/229 90/172/254
f 101/142/227 110/141/226 90/172/254
s off
f 111/173/255 112/174/256 114/175/257 113/176/258
f 115/177/259 116/178/260 118/179/261 117/180/262
f 112/181/263 118/182/264 116/183/265 114/184/266
f 117/185/267 111/186/268 113/187/269 115/188/270
f 113/189/271 114/190/272 120/191/273 119/192/274
f 114/184/275 116/183/276 121/193/277 120/194/278
f 116/195/279 115/196/280 122/197/281 121/198/282
f 115/188/283 113/187/284 119/199/285 122/200/286
f 119/192/287 120/191/288 124/201/289 123/202/290
f 120/203/291 121/198/292 125/204/293 124/205/294
f 121/198/295 122/197/296 126/206/297 125/204/298
f 122/207/299 119/192/300 123/202/301 126/208/302
f 123/202/303 124/201/304 128/209/305 127/210/306
f 124/205/307 125/204/308 129/211/309 128/212/310
f 125/204/311 126/206/312 130/213/313 129/211/314
f 126/208/315 123/202/316 127/210/317 130/214/318
f 127/210/319 128/209/320 132/215/321 131/216/322
f 128/212/323 129/211/324 133/217/325 132/218/326
f 129/211/327 130/213/328 134/219/329 133/217/330
f 130/214/331 127/210/332 131/216/333 134/220/334
f 131/221/335 132/222/336 136/223/337 135/224/338
f 132/225/339 133/226/340 137/227/341 136/228/342
f 133/229/343 134/230/344 138/231/345 137/232/346
f 134/233/347 131/234/348 135/235/349 138/236/350
f 135/224/351 136/223/352 140/237/353 139/238/354
f 136/228/355 137/227/356 141/239/357 140/240/358
f 137/232/359 138/231/360 142/241/361 141/242/362
f 138/236/363 135/235/364 139/243/365 142/244/366
f 139/238/367 140/237/368 144/245/369 143/246/370
f 140/247/371 141/248/372 145/249/373 144/250/374
f 141/242/375 142/241/376 146/251/377 145/252/378
f 142/253/379 139/238/380 143/246/381 146/254/382
f 143/246/383 144/245/384 148/255/385 147/256/386
f 144/250/387 145/249/388 149/257/389 148/258/390
f 145/249/391 146/259/392 150/260/393 149/257/394
f 146/254/395 143/246/396 147/256/397 150/261/398
f 147/256/399 148/255/400 152/262/401 151/263/402
f 148/258/403 149/257/404 153/264/405 152/265/406
f 149/257/407 150/260/408 154/266/409 153/264/410
f 150/261/411 147/256/412 151/263/413 154/267/414
f 151/263/415 152/262/416 156/268/417 155/269/418
f 152/265/419 153/264/420 157/270/421 156/271/422
f 153/264/423 154/266/424 158/272/425 157/270/426
f 154/267/427 151/263/428 155/269/429 158/273/430
f 155/269/431 156/268/432 112/274/433 111/186/434
f 156/275/435 157/276/436 118/182/437 112/181/438
f 157/270/439 158/272/440 117/180/441 118/179/442
f 158/273/443 155/269/444 111/186/445 117/185/446
s 3
f 170/277/447 171/278/448 189/279/449 180/280/450
f 171/278/448 172/281/451 188/282/452 189/279/449
f 172/281/451 173/283/453 187/284/454 188/282/452
f 173/283/453 174/285/455 186/286/456 187/284/454
f 174/287/455 175/288/457 185/289/458 186/290/456
f 175/288/457 176/291/459 184/292/460 185/289/458
f 176/291/459 177/293/461 183/294/462 184/292/460
f 177/293/461 178/295/463 182/296/464 183/294/462
f 178/295/463 179/297/465 181/298/466 182/296/464
f 179/297/465 170/277/447 180/280/450 181/298/466
f 159/299/467 160/300/468 171/278/448 170/277/447
f 160/300/468 161/301/469 172/281/451 171/278/448
f 161/301/469 162/302/470 173/283/453 172/281/451
f 162/302/470 163/303/471 174/285/455 173/283/453
f 163/304/471 164/305/472 175/288/457 174/287/455
f 164/305/472 165/306/473 176/291/459 175/288/457
f 165/306/473 166/307/474 177/293/461 176/291/459
f 166/307/474 167/308/475 178/295/463 177/293/461
f 167/308/475 168/309/476 179/297/465 178/295/463
f 168/309/476 159/299/467 170/277/447 179/297/465
f 181/298/466 180/280/450 169/310/477
f 182/296/464 181/298/466 169/310/477
f 183/294/462 182/296/464 169/310/477
f 184/292/460 183/294/462 169/310/477
f 185/289/458 184/292/460 169/310/477
f 186/290/456 185/289/458 169/310/477
f 187/284/454 186/286/456 169/310/477
f 188/282/452 187/284/454 169/310/477
f 189/279/449 188/282/452 169/310/477
f 180/280/450 189/279/449 169/310/477
s 4
f 201/311/478 202/312/479 220/313/480 211/314/481
f 202/312/479 203/315/482 219/316/483 220/313/480
f 203/315/482 204/317/484 218/318/485 219/316/483
f 204/317/484 205/319/486 217/320/487 218/318/485
f 205/321/486 206/322/488 216/323/489 217/324/487
f 206/322/488 207/325/490 215/326/491 216/323/489
f 207/325/490 208/327/492 214/328/493 215/326/491
f 208/327/492 209/329/494 213/330/495 214/328/493
f 209/329/494 210/331/496 212/332/497 213/330/495
f 210/331/496 201/311/478 211/314/481 212/332/497
f 190/333/498 191/334/499 202/312/479 201/311/478
f 191/334/499 192/335/500 203/315/482 202/312/479
f 192/335/500 193/336/501 204/317/484 203/315/482
f 193/336/501 194/337/502 205/319/486 204/317/484
f 194/338/502 195/339/503 206/322/488 205/321/486
f 195/339/503 196/340/504 207/325/490 206/322/488
f 196/340/504 197/341/505 208/327/492 207/325/490
f 197/341/505 198/342/506 209/329/494 208/327/492
f 198/342/506 199/343/507 210/331/496 209/329/494
f 199/343/507 190/333/498 201/311/478 210/331/496
f 212/332/497 211/314/481 200/344/508
f 213/330/495 212/332/497 200/344/508
f 214/328/493 213/330/495 200/344/508
f 215/326/491 214/328/493 200/344/508
f 216/323/489 215/326/491 200/344/508
f 217/324/487 216/323/489 200/344/508
f 218/318/485 217/320/487 200/344/508
f 219/316/483 218/318/485 200/344/508
f 220/313/480 219/316/483 200/344/508
f 211/314/481 220/313/480 200/344/508
s 5
f 232/345/509 233/346/510 251/347/511 242/348/512
f 233/346/510 234/349/513 250/350/514 251/347/511
f 234/349/513 235/351/515 249/352/516 250/350/514
f 235/351/515 236/353/517 248/354/518 249/352/516
f 236/355/517 237/356/519 247/357/520 248/358/518
f 237/356/519 238/359/521 246/360/522 247/357/520
f 238/359/521 239/361/523 245/362/524 246/360/522
f 239/361/523 240/363/525 244/364/526 245/362/524
f 240/363/525 241/365/527 243/366/528 244/364/526
f 241/365/527 232/345/509 242/348/512 243/366/528
f 221/367/529 222/368/530 233/346/510 232/345/509
f 222/368/530 223/369/531 234/349/513 233/346/510
f 223/369/531 224/370/532 235/351/515 234/349/513
f 224/370/532 225/371/533 236/353/517 235/351/515
f 225/372/533 226/373/534 237/356/519 236/355/517
f 226/373/534 227/374/535 238/359/521 237/356/519
f 227/374/535 228/375/536 239/361/523 238/359/521
f 228/375/536 229/376/537 240/363/525 239/361/523
f 229/376/537 230/377/538 241/365/527 240/363/525
f 230/377/538 221/367/529 232/345/509 241/365/527
f 243/366/528 242/348/512 231/378/539
f 244/364/526 243/366/528 231/378/539
f 245/362/524 244/364/526 231/378/539
f 246/360/522 245/362/524 231/378/539
f 247/357/520 246/360/522 231/378/539
f 248/358/518 247/357/520 231/378/539
f 249/352/516 248/354/518 231/378/539
f 250/350/514 249/352/516 231/378/539
f 251/347/511 250/350/514 231/378/539
f 242/348/512 251/347/511 231/378/539
s 6
f 263/379/540 264/380/541 282/381/542 273/382/543
f 264/380/541 265/383/544 281/384/545 282/381/542
f 265/383/544 266/385/546 280/386/547 281/384/545
f 266/385/546 267/387/548 279/388/549 280/386/547
f 267/389/548 268/390/550 278/391/551 279/392/549
f 268/390/550 269/393/552 277/394/553 278/391/551
f 269/393/552 270/395/554 276/396/555 277/394/553
f 270/395/554 271/397/556 275/398/557 276/396/555
f 271/397/556 272/399/558 274/400/559 275/398/557
f 272/399/558 263/379/540 273/382/543 274/400/559
f 252/401/560 253/402/561 264/380/541 263/379/540
f 253/402/561 254/403/562 265/383/544 264/380/541
f 254/403/562 255/404/563 266/385/546 265/383/544
f 255/404/563 256/405/564 267/387/548 266/385/546
f 256/406/564 257/407/565 268/390/550 267/389/548
f 257/407/565 258/408/566 269/393/552 268/390/550
f 258/408/566 259/409/567 270/395/554 269/393/552
f 259/409/567 260/410/568 271/397/556 270/395/554
f 260/410/568 261/411/569 272/399/558 271/397/556
f 261/411/569 252/401/560 263/379/540 272/399/558
f 274/400/559 273/382/543 262/412/570
f 275/398/557 274/400/559 262/412/570
f 276/396/555 275/398/557 262/412/570
f 277/394/553 276/396/555 262/412/570
f 278/391/551 277/394/553 262/412/570
f 279/392/549 278/391/551 262/412/570
f 280/386/547 279/388/549 262/412/570
f 281/384/545 280/386/547 262/412/570
f 282/381/542 281/384/545 262/412/570
f 273/382/543 282/381/542 262/412/570
s 7
f 294/413/571 295/414/572 313/415/573 304/416/574
f 295/414/572 296/417/575 312/418/576 313/415/573
f 296/417/575 297/419/577 311/420/578 312/418/576
f 297/419/577 298/421/579 310/422/580 311/420/578
f 298/423/579 299/424/581 309/425/582 310/426/580
f 299/424/581 300/427/583 308/428/584 309/425/582
f 300/427/583 301/429/585 307/430/586 308/428/584
f 301/429/585 302/431/587 306/432/588 307/430/586
f 302/431/587 303/433/589 305/434/590 306/432/588
f 303/433/589 294/413/571 304/416/574 305/434/590
f 283/435/591 284/436/592 295/414/572 294/413/571
f 284/436/592 285/437/593 296/417/575 295/414/572
f 285/437/593 286/438/594 297/419/577 296/417/575
f 286/438/594 287/439/595 298/421/579 297/419/577
f 287/440/595 288/441/596 299/424/581 298/423/579
f 288/441/596 289/442/597 300/427/583 299/424/581
f 289/442/597 290/443/598 301/429/585 300/427/583
f 290/443/598 291/444/599 302/431/587 301/429/585
f 291/444/599 292/445/600 303/433/589 302/431/587
f 292/445/600 283/435/591 294/413/571 303/433/589
f 305/434/590 304/416/574 293/446/601
f 306/432/588 305/434/590 293/446/601
f 307/430/586 306/432/588 293/446/601
f 308/428/584 307/430/586 293/446/601
f 309/425/582 308/428/584 293/446/601
f 310/426/580 309/425/582 293/446/601
f 311/420/578 310/422/580 293/446/601
f 312/418/576 311/420/578 293/446/601
f 313/415/573 312/418/576 293/446/601
f 304/416/574 313/415/573 293/446/601
s 8
f 325/447/602 326/448/603 344/449/604 335/450/605
f 326/448/603 327/451/606 343/452/607 344/449/604
f 327/451/606 328/453/608 342/454/609 343/452/607
f 328/453/608 329/455/610 341/456/611 342/454/609
f 329/457/610 330/458/612 340/459/613 341/460/611
f 330/458/612 331/461/614 339/462/615 340/459/613
f 331/461/614 332/463/616 338/464/617 339/462/615
f 332/463/616 333/465/618 337/466/619 338/464/617
f 333/465/618 334/467/620 336/468/621 337/466/619
f 334/467/620 325/447/602 335/450/605 336/468/621
f 314/469/622 315/470/623 326/448/603 325/447/602
f 315/470/623 316/471/624 327/451/606 326/448/603
f 316/471/624 317/472/625 328/453/608 327/451/606
f 317/472/625 318/473/626 329/455/610 328/453/608
f 318/474/626 319/475/627 330/458/612 329/457/610
f 319/475/627 320/476/628 331/461/614 330/458/612
f 320/476/628 321/477/629 332/463/616 331/461/614
f 321/477/629 322/478/630 333/465/618 332/463/616
f 322/478/630 323/479/631 334/467/620 333/465/618
f 323/479/631 314/469/622 325/447/602 334/467/620
f 336/468/621 335/450/605 324/480/632
f 337/466/619 336/468/621 324/480/632
f 338/464/617 337/466/619 324/480/632
f 339/462/615 338/464/617 324/480/632
f 340/459/613 339/462/615 324/480/632
f 341/460/611 340/459/613 324/480/632
f 342/454/609 341/456/611 324/480/632
f 343/452/607 342/454/609 324/480/632
f 344/449/604 343/452/607 324/480/632
f 335/450/605 344/449/604 324/480/632
