# This file uses centimeters as units for non-parametric coordinates.

mtllib M_Fence2.mtl
g default
v -1.633873 -9.028182 5.916970
v -2.017872 -9.065641 6.351254
v -2.072541 -9.101209 6.928493
v -1.776999 -9.121298 7.428205
v -1.244132 -9.118237 7.659514
v -0.677479 -9.093193 7.534070
v -0.293481 -9.055735 7.099786
v -0.238811 -9.020166 6.522546
v -0.534353 -9.000077 6.022835
v -1.067220 -9.003140 5.791525
v -1.769945 10.621646 7.880073
v -1.989178 2.356425 6.584785
v -2.373175 2.318965 7.019068
v -2.427845 2.283399 7.596308
v -2.132301 2.263309 8.096020
v -1.599435 2.266371 8.327330
v -1.032782 2.291414 8.201884
v -0.648785 2.328874 7.767600
v -0.594115 2.364440 7.190360
v -0.889657 2.384530 6.690650
v -1.422523 2.381467 6.459340
v -2.015701 9.277453 7.312576
v -1.674051 9.292554 7.236942
v -1.352770 9.294402 7.376406
v -1.174578 9.282289 7.677698
v -1.207541 9.260844 8.025730
v -1.439062 9.238261 8.287573
v -1.780715 9.223160 8.363207
v -2.101995 9.221312 8.223742
v -2.280187 9.233428 7.922455
v -2.247224 9.254870 7.574419
v -3.234267 -9.600303 -6.061770
v -3.474479 -9.574061 -5.491276
v -3.333315 -9.558339 -4.888216
v -2.864694 -9.559143 -4.482940
v -2.247614 -9.576166 -4.430249
v -1.717777 -9.602905 -4.750268
v -1.477564 -9.629148 -5.320762
v -1.618727 -9.644870 -5.923822
v -2.087349 -9.644065 -6.329098
v -2.704429 -9.627043 -6.381789
v -1.836686 11.415162 -6.103579
v -2.864463 2.556166 -6.465250
v -3.104676 2.582408 -5.894756
v -2.963513 2.598130 -5.291699
v -2.494891 2.597325 -4.886423
v -1.877811 2.580302 -4.833729
v -1.347974 2.553563 -5.153751
v -1.107762 2.527320 -5.724245
v -1.248925 2.511599 -6.327306
v -1.717546 2.512403 -6.732581
v -2.334627 2.529425 -6.785272
v -2.338154 9.959695 -6.450618
v -2.018699 9.943573 -6.643565
v -1.646644 9.933311 -6.611797
v -1.364099 9.932825 -6.367443
v -1.278988 9.942307 -6.003843
v -1.423818 9.958129 -5.659875
v -1.743273 9.974247 -5.466928
v -2.115328 9.984512 -5.498695
v -2.397873 9.985000 -5.743046
v -2.482985 9.975519 -6.106649
v -0.748726 -9.399435 -4.457897
v -1.265690 -9.387737 -4.796193
v -1.882797 -9.399428 -4.766698
v -2.364338 -9.430041 -4.380679
v -2.526382 -9.467884 -3.785582
v -2.307026 -9.498502 -3.208714
v -1.790066 -9.510199 -2.870419
v -1.172958 -9.498508 -2.899913
v -0.691414 -9.467896 -3.285932
v -0.529373 -9.430053 -3.881029
v -1.865364 11.494147 -2.593412
v -0.943935 2.714432 -3.740722
v -1.460896 2.726130 -4.079018
v -2.078007 2.714439 -4.049522
v -2.559547 2.683825 -3.663504
v -2.721588 2.645983 -3.068406
v -2.502235 2.615364 -2.491538
v -1.985275 2.603668 -2.153242
v -1.368164 2.615358 -2.182737
v -0.886623 2.645971 -2.568756
v -0.724583 2.683815 -3.163853
v -1.372208 10.072864 -3.055909
v -1.239952 10.054400 -2.708099
v -1.337654 10.031589 -2.349298
v -1.627987 10.013129 -2.116556
v -2.000061 10.006080 -2.098773
v -2.311752 10.013137 -2.302740
v -2.444008 10.031592 -2.650551
v -2.346306 10.054412 -3.009352
v -2.055973 10.072871 -3.242094
v -1.683899 10.079921 -3.259877
v -2.219111 -9.415506 -8.589426
v -2.771153 -9.419477 -8.407975
v -3.111206 -9.413617 -7.936784
v -3.109379 -9.400167 -7.355832
v -2.766373 -9.384265 -6.887020
v -2.213201 -9.371984 -6.709422
v -1.661159 -9.368014 -6.890872
v -1.321106 -9.373873 -7.362064
v -1.322933 -9.387322 -7.943016
v -1.665939 -9.403226 -8.411827
v -2.507780 10.331304 -8.105156
v -2.387790 1.993808 -8.853031
v -2.939833 1.989839 -8.671580
v -3.279885 1.995698 -8.200389
v -3.278057 2.009146 -7.619437
v -2.935051 2.025049 -7.150625
v -2.381880 2.037332 -6.973027
v -1.829837 2.041301 -7.154477
v -1.489785 2.035441 -7.625669
v -1.491612 2.021993 -8.206621
v -1.834621 2.006090 -8.675430
v -2.489354 8.951433 -8.640333
v -2.155832 8.958838 -8.533255
v -1.949022 8.968428 -8.250595
v -1.947922 8.976536 -7.900321
v -2.152948 8.980068 -7.616228
v -2.485791 8.977675 -7.506825
v -2.819313 8.970268 -7.613905
v -3.026122 8.960683 -7.896564
v -3.027223 8.952574 -8.246838
v -2.822196 8.949041 -8.530931
v -1.293466 -9.380046 0.271731
v -1.832327 -9.433810 0.451791
v -2.163241 -9.464020 0.915762
v -2.159809 -9.459133 1.486418
v -1.823344 -9.421017 1.945791
v -1.282362 -9.364231 2.118414
v -0.743500 -9.310466 1.938350
v -0.412586 -9.280257 1.474379
v -0.416018 -9.285144 0.903724
v -0.752483 -9.323260 0.444351
v -3.262505 9.904916 1.041852
v -2.435602 1.770142 0.183102
v -2.974464 1.716376 0.363167
v -3.305378 1.686168 0.827137
v -3.301947 1.691055 1.397792
v -2.965482 1.729172 1.857165
v -2.424500 1.785957 2.029789
v -1.885638 1.839724 1.849725
v -1.554724 1.869931 1.385755
v -1.558156 1.865043 0.815098
v -1.894621 1.826928 0.355726
v -3.129032 8.564441 0.495758
v -2.802857 8.598679 0.599837
v -2.599994 8.621662 0.876806
v -2.597926 8.624605 1.220872
v -2.797443 8.606394 1.500612
v -3.122337 8.573977 1.609176
v -3.448511 8.539738 1.505098
v -3.651374 8.516756 1.228129
v -3.653443 8.513813 0.884063
v -3.453926 8.532024 0.604322
v -0.516461 -9.391682 -0.707675
v -0.621111 -9.413919 -1.266317
v -1.034383 -9.432480 -1.656686
v -1.598422 -9.440273 -1.729678
v -2.097781 -9.434324 -1.457406
v -2.341727 -9.416904 -0.943876
v -2.237076 -9.394667 -0.385233
v -1.823806 -9.376107 0.005137
v -1.259766 -9.368314 0.078127
v -0.760405 -9.374263 -0.194141
v -1.600518 9.895155 -1.561876
v -0.615615 1.771460 -1.133447
v -0.720265 1.749222 -1.692090
v -1.133539 1.730662 -2.082462
v -1.697575 1.722869 -2.155450
v -2.196937 1.728817 -1.883182
v -2.440880 1.746237 -1.369648
v -2.336230 1.768474 -0.811006
v -1.922959 1.787033 -0.420637
v -1.358920 1.794828 -0.347645
v -0.859561 1.788880 -0.619916
v -1.038386 8.565500 -1.439664
v -1.185468 8.576001 -1.130040
v -1.486548 8.579590 -0.965883
v -1.826621 8.574891 -1.009890
v -2.075796 8.563701 -1.245256
v -2.138893 8.550292 -1.582079
v -1.991810 8.539788 -1.891700
v -1.690732 8.536203 -2.055860
v -1.350659 8.540903 -2.011853
v -1.101484 8.552094 -1.776488
v -0.379509 -9.002246 4.964294
v -0.913715 -9.029675 4.599627
v -1.560184 -9.058284 4.618994
v -2.071983 -9.077144 5.015001
v -2.253620 -9.079052 5.636385
v -2.035721 -9.063279 6.245798
v -1.501511 -9.035850 6.610466
v -0.855045 -9.007241 6.591097
v -0.343246 -8.988381 6.195091
v -0.161606 -8.986473 5.573708
v -2.185978 12.927436 5.386486
v -0.945412 3.699919 4.837875
v -1.479618 3.672489 4.473207
v -2.126087 3.643881 4.492575
v -2.637886 3.625021 4.888582
v -2.819523 3.623113 5.509966
v -2.601624 3.638885 6.119379
v -2.067413 3.666315 6.484047
v -1.420948 3.694923 6.464680
v -0.909149 3.713783 6.068672
v -0.727509 3.715692 5.447289
v -1.618896 11.424212 5.015303
v -1.487518 11.433722 5.382736
v -1.597034 11.432574 5.757385
v -1.905613 11.421203 5.996149
v -2.295387 11.403953 6.007826
v -2.617477 11.387416 5.787958
v -2.748856 11.377906 5.420527
v -2.639339 11.379054 5.045876
v -2.330761 11.390428 4.807112
v -1.940987 11.407678 4.795435
v -0.707021 -9.346038 2.990957
v -0.618800 -9.309091 2.453855
v -0.863629 -9.288198 1.966775
v -1.347994 -9.291337 1.715762
v -1.886884 -9.317311 1.796699
v -2.274461 -9.356198 2.178666
v -2.362681 -9.393146 2.715768
v -2.117851 -9.414039 3.202847
v -1.633488 -9.410898 3.453861
v -1.094598 -9.384925 3.372924
v -2.208055 9.124048 3.737873
v -1.121928 1.340323 3.657908
v -1.033707 1.377269 3.120806
v -1.278535 1.398163 2.633726
v -1.762901 1.395023 2.382713
v -2.301790 1.369048 2.463649
v -2.689367 1.330161 2.845617
v -2.777588 1.293215 3.382719
v -2.532759 1.272321 3.869799
v -2.048392 1.275461 4.120811
v -1.509504 1.301436 4.039875
v -1.685824 7.846964 3.902855
v -1.919505 7.823517 4.133152
v -2.244416 7.807861 4.181951
v -2.536454 7.805964 4.030610
v -2.684070 7.818563 3.736935
v -2.630879 7.840841 3.413098
v -2.397197 7.864284 3.182800
v -2.072285 7.879945 3.134001
v -1.780249 7.881839 3.285343
v -1.632633 7.869241 3.579018
vt 0.339626 0.866958
vt 0.346174 0.867133
vt 0.340234 0.972479
vt 0.336687 0.971942
vt 0.352746 0.867458
vt 0.343821 0.973387
vt 0.359354 0.867934
vt 0.347466 0.974681
vt 0.366010 0.868555
vt 0.351188 0.976371
vt 0.300187 0.868645
vt 0.306837 0.867994
vt 0.318865 0.974711
vt 0.315153 0.976406
vt 0.313439 0.867486
vt 0.322504 0.973416
vt 0.320007 0.867128
vt 0.326088 0.972502
vt 0.326553 0.866919
vt 0.329633 0.971957
vt 0.333089 0.866863
vt 0.333161 0.971770
vt 0.339626 0.682178
vt 0.346444 0.682224
vt 0.353258 0.682277
vt 0.360073 0.682337
vt 0.366888 0.682400
vt 0.298764 0.682697
vt 0.305572 0.682599
vt 0.312380 0.682504
vt 0.319187 0.682414
vt 0.325994 0.682329
vt 0.332806 0.682249
vt 0.333177 0.994344
vt 0.339626 0.866958
vt 0.346174 0.867133
vt 0.340234 0.972479
vt 0.336687 0.971942
vt 0.352746 0.867458
vt 0.343821 0.973387
vt 0.359354 0.867934
vt 0.347466 0.974681
vt 0.366010 0.868555
vt 0.351188 0.976371
vt 0.300187 0.868645
vt 0.306837 0.867994
vt 0.318865 0.974711
vt 0.315153 0.976406
vt 0.313439 0.867486
vt 0.322504 0.973416
vt 0.320007 0.867128
vt 0.326088 0.972502
vt 0.326553 0.866919
vt 0.329633 0.971957
vt 0.333089 0.866863
vt 0.333161 0.971770
vt 0.339626 0.682178
vt 0.346444 0.682224
vt 0.353258 0.682277
vt 0.360073 0.682337
vt 0.366888 0.682400
vt 0.298764 0.682697
vt 0.305572 0.682599
vt 0.312380 0.682504
vt 0.319187 0.682414
vt 0.325994 0.682329
vt 0.332806 0.682249
vt 0.333177 0.994344
vt 0.339626 0.866958
vt 0.346174 0.867133
vt 0.340234 0.972479
vt 0.336687 0.971942
vt 0.352746 0.867458
vt 0.343821 0.973387
vt 0.359354 0.867934
vt 0.347466 0.974681
vt 0.366010 0.868555
vt 0.351188 0.976371
vt 0.300187 0.868645
vt 0.306837 0.867994
vt 0.318865 0.974711
vt 0.315153 0.976406
vt 0.313439 0.867486
vt 0.322504 0.973416
vt 0.320007 0.867128
vt 0.326088 0.972502
vt 0.326553 0.866919
vt 0.329633 0.971957
vt 0.333089 0.866863
vt 0.333161 0.971770
vt 0.339626 0.682178
vt 0.346444 0.682224
vt 0.353258 0.682277
vt 0.360073 0.682337
vt 0.366888 0.682400
vt 0.298764 0.682697
vt 0.305572 0.682599
vt 0.312380 0.682504
vt 0.319187 0.682414
vt 0.325994 0.682329
vt 0.332806 0.682249
vt 0.333177 0.994344
vt 0.339626 0.866958
vt 0.346174 0.867133
vt 0.340234 0.972479
vt 0.336687 0.971942
vt 0.352746 0.867458
vt 0.343821 0.973387
vt 0.359354 0.867934
vt 0.347466 0.974681
vt 0.366010 0.868555
vt 0.351188 0.976371
vt 0.300187 0.868645
vt 0.306837 0.867994
vt 0.318865 0.974711
vt 0.315153 0.976406
vt 0.313439 0.867486
vt 0.322504 0.973416
vt 0.320007 0.867128
vt 0.326088 0.972502
vt 0.326553 0.866919
vt 0.329633 0.971957
vt 0.333089 0.866863
vt 0.333161 0.971770
vt 0.339626 0.682178
vt 0.346444 0.682224
vt 0.353258 0.682277
vt 0.360073 0.682337
vt 0.366888 0.682400
vt 0.298764 0.682697
vt 0.305572 0.682599
vt 0.312380 0.682504
vt 0.319187 0.682414
vt 0.325994 0.682329
vt 0.332806 0.682249
vt 0.333177 0.994344
vt 0.339626 0.866958
vt 0.346174 0.867133
vt 0.340234 0.972479
vt 0.336687 0.971942
vt 0.352746 0.867458
vt 0.343821 0.973387
vt 0.359354 0.867934
vt 0.347466 0.974681
vt 0.366010 0.868555
vt 0.351188 0.976371
vt 0.300187 0.868645
vt 0.306837 0.867994
vt 0.318865 0.974711
vt 0.315153 0.976406
vt 0.313439 0.867486
vt 0.322504 0.973416
vt 0.320007 0.867128
vt 0.326088 0.972502
vt 0.326553 0.866919
vt 0.329633 0.971957
vt 0.333089 0.866863
vt 0.333161 0.971770
vt 0.339626 0.682178
vt 0.346444 0.682224
vt 0.353258 0.682277
vt 0.360073 0.682337
vt 0.366888 0.682400
vt 0.298764 0.682697
vt 0.305572 0.682599
vt 0.312380 0.682504
vt 0.319187 0.682414
vt 0.325994 0.682329
vt 0.332806 0.682249
vt 0.333177 0.994344
vt 0.339626 0.866958
vt 0.346174 0.867133
vt 0.340234 0.972479
vt 0.336687 0.971942
vt 0.352746 0.867458
vt 0.343821 0.973387
vt 0.359354 0.867934
vt 0.347466 0.974681
vt 0.366010 0.868555
vt 0.351188 0.976371
vt 0.300187 0.868645
vt 0.306837 0.867994
vt 0.318865 0.974711
vt 0.315153 0.976406
vt 0.313439 0.867486
vt 0.322504 0.973416
vt 0.320007 0.867128
vt 0.326088 0.972502
vt 0.326553 0.866919
vt 0.329633 0.971957
vt 0.333089 0.866863
vt 0.333161 0.971770
vt 0.339626 0.682178
vt 0.346444 0.682224
vt 0.353258 0.682277
vt 0.360073 0.682337
vt 0.366888 0.682400
vt 0.298764 0.682697
vt 0.305572 0.682599
vt 0.312380 0.682504
vt 0.319187 0.682414
vt 0.325994 0.682329
vt 0.332806 0.682249
vt 0.333177 0.994344
vt 0.339626 0.866958
vt 0.346174 0.867133
vt 0.340234 0.972479
vt 0.336687 0.971942
vt 0.352746 0.867458
vt 0.343821 0.973387
vt 0.359354 0.867934
vt 0.347466 0.974681
vt 0.366010 0.868555
vt 0.351188 0.976371
vt 0.300187 0.868645
vt 0.306837 0.867994
vt 0.318865 0.974711
vt 0.315153 0.976406
vt 0.313439 0.867486
vt 0.322504 0.973416
vt 0.320007 0.867128
vt 0.326088 0.972502
vt 0.326553 0.866919
vt 0.329633 0.971957
vt 0.333089 0.866863
vt 0.333161 0.971770
vt 0.339626 0.682178
vt 0.346444 0.682224
vt 0.353258 0.682277
vt 0.360073 0.682337
vt 0.366888 0.682400
vt 0.298764 0.682697
vt 0.305572 0.682599
vt 0.312380 0.682504
vt 0.319187 0.682414
vt 0.325994 0.682329
vt 0.332806 0.682249
vt 0.333177 0.994344
vt 0.339626 0.866958
vt 0.346174 0.867133
vt 0.340234 0.972479
vt 0.336687 0.971942
vt 0.352746 0.867458
vt 0.343821 0.973387
vt 0.359354 0.867934
vt 0.347466 0.974681
vt 0.366010 0.868555
vt 0.351188 0.976371
vt 0.300187 0.868645
vt 0.306837 0.867994
vt 0.318865 0.974711
vt 0.315153 0.976406
vt 0.313439 0.867486
vt 0.322504 0.973416
vt 0.320007 0.867128
vt 0.326088 0.972502
vt 0.326553 0.866919
vt 0.329633 0.971957
vt 0.333089 0.866863
vt 0.333161 0.971770
vt 0.339626 0.682178
vt 0.346444 0.682224
vt 0.353258 0.682277
vt 0.360073 0.682337
vt 0.366888 0.682400
vt 0.298764 0.682697
vt 0.305572 0.682599
vt 0.312380 0.682504
vt 0.319187 0.682414
vt 0.325994 0.682329
vt 0.332806 0.682249
vt 0.333177 0.994344
vn -0.509222 0.052027 -0.859061
vn -0.917696 0.012181 -0.397098
vn -0.916992 0.070938 -0.392549
vn -0.509649 0.110675 -0.853235
vn -0.975849 -0.025653 0.216935
vn -0.974984 0.033210 0.219782
vn -0.661469 -0.047023 0.748497
vn -0.661474 0.011899 0.749874
vn -0.094639 -0.043766 0.994549
vn -0.096211 0.015147 0.995246
vn 0.508134 -0.017126 0.861108
vn 0.504893 0.041713 0.862173
vn 0.916606 0.022720 0.399145
vn 0.912235 0.081449 0.401489
vn 0.974760 0.060554 -0.214887
vn 0.970227 0.119178 -0.210844
vn 0.660381 0.081924 -0.746449
vn 0.656719 0.140489 -0.740934
vn 0.093550 0.078667 -0.992502
vn 0.091457 0.137241 -0.986307
vn -0.508755 0.034582 -0.860217
vn -0.917291 -0.005271 -0.398183
vn -0.975453 -0.043110 0.215945
vn -0.661025 -0.064483 0.747588
vn -0.094109 -0.061226 0.993677
vn 0.508756 -0.034582 0.860216
vn 0.917291 0.005271 0.398182
vn 0.975454 0.043110 -0.215943
vn 0.661026 0.064483 -0.747587
vn 0.094109 0.061226 -0.993678
vn -0.031142 0.997800 0.058531
vn -0.755730 0.018769 -0.654615
vn -0.995314 0.044943 -0.085613
vn -0.990769 0.103680 -0.087329
vn -0.751848 0.077579 -0.654757
vn -0.854519 0.060623 0.515869
vn -0.850364 0.119318 0.512488
vn -0.387125 0.059821 0.920084
vn -0.384263 0.118517 0.915585
vn 0.228340 0.042843 0.972638
vn 0.229500 0.101586 0.967993
vn 0.756793 0.016174 0.653455
vn 0.756490 0.074991 0.649692
vn 0.996377 -0.010000 0.084453
vn 0.995411 0.048889 0.082265
vn 0.855583 -0.025681 -0.517028
vn 0.855006 0.033252 -0.517551
vn 0.388188 -0.024879 -0.921244
vn 0.388904 0.034052 -0.920649
vn -0.227278 -0.007900 -0.973798
vn -0.224859 0.050983 -0.973057
vn -0.756377 0.001298 -0.654135
vn -0.995998 0.027476 -0.085046
vn -0.855182 0.043159 0.516528
vn -0.387717 0.042357 0.920805
vn 0.227844 0.025376 0.973367
vn 0.756377 -0.001298 0.654135
vn 0.995998 -0.027476 0.085046
vn 0.855182 -0.043159 -0.516527
vn 0.387716 -0.042357 -0.920806
vn -0.227844 -0.025376 -0.973367
vn 0.030388 0.998988 -0.033159
vn 0.778889 0.066991 -0.623574
vn 0.261914 0.078688 -0.961878
vn 0.260241 0.137282 -0.955735
vn 0.775785 0.125616 -0.618368
vn -0.355211 0.066998 -0.932382
vn -0.355175 0.125623 -0.926321
vn -0.836764 0.036384 -0.546354
vn -0.835396 0.095094 -0.541360
vn -0.998810 -0.001460 0.048759
vn -0.996993 0.057354 0.052105
vn -0.779451 -0.032078 0.625641
vn -0.778242 0.026821 0.627392
vn -0.262477 -0.043776 0.963945
vn -0.262698 0.015156 0.964759
vn 0.354647 -0.032085 0.934450
vn 0.352719 0.026814 0.935345
vn 0.836201 -0.001471 0.548420
vn 0.832940 0.057344 0.550385
vn 0.998247 0.036372 -0.046692
vn 0.994537 0.095082 -0.043080
vn 0.779289 0.049542 -0.624703
vn 0.262235 0.061242 -0.963059
vn -0.354984 0.049549 -0.933559
vn -0.836611 0.018930 -0.547471
vn -0.998681 -0.018919 0.047733
vn -0.779289 -0.049542 0.624703
vn -0.262236 -0.061242 0.963059
vn 0.354983 -0.049549 0.933559
vn 0.836611 -0.018930 0.547471
vn 0.998681 0.018919 -0.047733
vn -0.016084 0.998123 0.059093
vn -0.003401 -0.005658 -0.999978
vn -0.590430 -0.009879 -0.807029
vn -0.589666 0.049047 -0.806156
vn -0.004263 0.053257 -0.998572
vn -0.952032 -0.003649 -0.305976
vn -0.950268 0.055260 -0.306490
vn -0.950090 0.010653 0.311794
vn -0.948332 0.069522 0.309570
vn -0.585345 0.027563 0.810316
vn -0.584595 0.086386 0.806713
vn 0.002885 0.040623 0.999170
vn 0.002007 0.099410 0.995045
vn 0.589913 0.044844 0.806221
vn 0.587409 0.103619 0.802629
vn 0.951515 0.038614 0.305168
vn 0.948011 0.097406 0.302963
vn 0.949573 0.024312 -0.312603
vn 0.946074 0.083144 -0.313099
vn 0.584828 0.007401 -0.811124
vn 0.582338 0.066280 -0.810240
vn -0.003143 -0.023144 -0.999727
vn -0.590262 -0.027366 -0.806748
vn -0.951919 -0.021135 -0.305619
vn -0.949977 -0.006830 0.312246
vn -0.585176 0.010083 0.810843
vn 0.003144 0.023145 0.999727
vn 0.590261 0.027366 0.806748
vn 0.951919 0.021135 0.305619
vn 0.949976 0.006831 -0.312247
vn 0.585176 -0.010082 -0.810844
vn -0.014779 0.999624 -0.023095
vn -0.007794 0.008835 -0.999931
vn -0.591272 -0.049382 -0.804959
vn -0.595640 0.009367 -0.803197
vn -0.013776 0.067423 -0.997629
vn -0.949584 -0.082092 -0.302573
vn -0.952960 -0.023252 -0.302202
vn -0.945869 -0.076800 0.315331
vn -0.949256 -0.017975 0.313991
vn -0.581546 -0.035528 0.812737
vn -0.585940 0.023183 0.810023
vn 0.004230 0.025960 0.999654
vn -0.001785 0.084501 0.996422
vn 0.587708 0.084177 0.804682
vn 0.580077 0.142557 0.801990
vn 0.946020 0.116887 0.302297
vn 0.937399 0.175176 0.300994
vn 0.942305 0.111595 -0.315608
vn 0.933694 0.169899 -0.315200
vn 0.577981 0.070323 -0.813015
vn 0.570378 0.128741 -0.811230
vn -0.006013 -0.008564 -0.999945
vn -0.589580 -0.066790 -0.804944
vn -0.947947 -0.099504 -0.302481
vn -0.944231 -0.094212 0.315518
vn -0.579853 -0.052934 0.813000
vn 0.006014 0.008564 0.999945
vn 0.589580 0.066790 0.804944
vn 0.947947 0.099504 0.302482
vn 0.944231 0.094212 -0.315518
vn 0.579851 0.052933 -0.813001
vn -0.101896 0.994764 -0.007907
vn 0.991331 0.031176 0.127639
vn 0.877638 0.007018 -0.479272
vn 0.874686 0.065875 -0.480192
vn 0.988064 0.089966 0.125039
vn 0.428659 -0.013146 -0.903371
vn 0.426950 0.045767 -0.903117
vn -0.184114 -0.021613 -0.982667
vn -0.184128 0.037323 -0.982193
vn -0.726619 -0.015150 -0.686873
vn -0.725131 0.043768 -0.687219
vn -0.991641 0.003775 -0.128971
vn -0.989420 0.062641 -0.130859
vn -0.877949 0.027933 0.477938
vn -0.876042 0.086732 0.474371
vn -0.428969 0.048097 0.902038
vn -0.428305 0.106840 0.897296
vn 0.183802 0.056564 0.981335
vn 0.182770 0.115284 0.976373
vn 0.726309 0.050101 0.685540
vn 0.723775 0.108838 0.681398
vn 0.991638 0.013702 0.128325
vn 0.877928 -0.010459 -0.478679
vn 0.428880 -0.030626 -0.902842
vn -0.183987 -0.039095 -0.982151
vn -0.726576 -0.032630 -0.686311
vn -0.991638 -0.013702 -0.128324
vn -0.877928 0.010459 0.478678
vn -0.428880 0.030626 0.902842
vn 0.183985 0.039094 0.982151
vn 0.726575 0.032630 0.686312
vn -0.008875 0.999234 -0.038110
vn 0.789656 0.046599 -0.611778
vn 0.279751 0.020418 -0.959856
vn 0.276353 0.079221 -0.957785
vn 0.784848 0.105330 -0.610671
vn -0.337309 -0.006889 -0.941369
vn -0.338997 0.051990 -0.939350
vn -0.825825 -0.024892 -0.563376
vn -0.826162 0.034037 -0.562404
vn -0.999201 -0.026713 0.029740
vn -0.999058 0.032221 0.029071
vn -0.791213 -0.011657 0.611430
vn -0.791645 0.047235 0.609152
vn -0.281307 0.014524 0.959508
vn -0.283150 0.073344 0.956267
vn 0.335753 0.041831 0.941021
vn 0.332201 0.100575 0.937831
vn 0.824267 0.059833 0.563031
vn 0.819364 0.118528 0.560887
vn 0.997644 0.061654 -0.030088
vn 0.992261 0.120344 -0.030589
vn 0.790555 0.029133 -0.611697
vn 0.280572 0.002947 -0.959828
vn -0.336582 -0.024364 -0.941339
vn -0.825173 -0.042369 -0.563288
vn -0.998575 -0.044190 0.029918
vn -0.790555 -0.029133 0.611697
vn -0.280571 -0.002947 0.959829
vn 0.336583 0.024364 0.941339
vn 0.825172 0.042369 0.563291
vn 0.998575 0.044190 -0.029918
vn -0.044505 0.998960 -0.009944
vn 0.887032 0.023196 0.461126
vn 0.986959 0.065045 -0.147243
vn 0.981947 0.123628 -0.143169
vn 0.882296 0.081895 0.463517
vn 0.709643 0.088711 -0.698954
vn 0.705398 0.147229 -0.693352
vn 0.161008 0.085155 -0.983273
vn 0.158281 0.143682 -0.976884
vn -0.449384 0.055734 -0.891599
vn -0.450422 0.114343 -0.885464
vn -0.888386 0.011687 -0.458948
vn -0.888209 0.070418 -0.454011
vn -0.988314 -0.030161 0.149421
vn -0.987860 0.028685 0.152674
vn -0.710997 -0.053827 0.701132
vn -0.711309 0.005084 0.702861
vn -0.162362 -0.050271 0.985450
vn -0.164193 0.008631 0.986391
vn 0.448029 -0.020851 0.893776
vn 0.444507 0.037970 0.894970
vn 0.887844 0.005755 0.460108
vn 0.987788 0.047611 -0.148354
vn 0.710429 0.071280 -0.700150
vn 0.161710 0.067723 -0.984512
vn -0.448776 0.038298 -0.892823
vn -0.887845 -0.005755 -0.460107
vn -0.987787 -0.047611 0.148355
vn -0.710429 -0.071280 0.700150
vn -0.161710 -0.067723 0.984512
vn 0.448776 -0.038298 0.892824
vn -0.038722 0.997310 0.062243
s 1
g polySurface1018
usemtl M_WoodSmall:lambert6SG
f 12/1/1 13/2/2 31/3/3 22/4/4
f 13/2/2 14/5/5 30/6/6 31/3/3
f 14/5/5 15/7/7 29/8/8 30/6/6
f 15/7/7 16/9/9 28/10/10 29/8/8
f 16/11/9 17/12/11 27/13/12 28/14/10
f 17/12/11 18/15/13 26/16/14 27/13/12
f 18/15/13 19/17/15 25/18/16 26/16/14
f 19/17/15 20/19/17 24/20/18 25/18/16
f 20/19/17 21/21/19 23/22/20 24/20/18
f 21/21/19 12/1/1 22/4/4 23/22/20
f 1/23/21 2/24/22 13/2/2 12/1/1
f 2/24/22 3/25/23 14/5/5 13/2/2
f 3/25/23 4/26/24 15/7/7 14/5/5
f 4/26/24 5/27/25 16/9/9 15/7/7
f 5/28/25 6/29/26 17/12/11 16/11/9
f 6/29/26 7/30/27 18/15/13 17/12/11
f 7/30/27 8/31/28 19/17/15 18/15/13
f 8/31/28 9/32/29 20/19/17 19/17/15
f 9/32/29 10/33/30 21/21/19 20/19/17
f 10/33/30 1/23/21 12/1/1 21/21/19
f 23/22/20 22/4/4 11/34/31
f 24/20/18 23/22/20 11/34/31
f 25/18/16 24/20/18 11/34/31
f 26/16/14 25/18/16 11/34/31
f 27/13/12 26/16/14 11/34/31
f 28/14/10 27/13/12 11/34/31
f 29/8/8 28/10/10 11/34/31
f 30/6/6 29/8/8 11/34/31
f 31/3/3 30/6/6 11/34/31
f 22/4/4 31/3/3 11/34/31
s 2
f 43/35/32 44/36/33 62/37/34 53/38/35
f 44/36/33 45/39/36 61/40/37 62/37/34
f 45/39/36 46/41/38 60/42/39 61/40/37
f 46/41/38 47/43/40 59/44/41 60/42/39
f 47/45/40 48/46/42 58/47/43 59/48/41
f 48/46/42 49/49/44 57/50/45 58/47/43
f 49/49/44 50/51/46 56/52/47 57/50/45
f 50/51/46 51/53/48 55/54/49 56/52/47
f 51/53/48 52/55/50 54/56/51 55/54/49
f 52/55/50 43/35/32 53/38/35 54/56/51
f 32/57/52 33/58/53 44/36/33 43/35/32
f 33/58/53 34/59/54 45/39/36 44/36/33
f 34/59/54 35/60/55 46/41/38 45/39/36
f 35/60/55 36/61/56 47/43/40 46/41/38
f 36/62/56 37/63/57 48/46/42 47/45/40
f 37/63/57 38/64/58 49/49/44 48/46/42
f 38/64/58 39/65/59 50/51/46 49/49/44
f 39/65/59 40/66/60 51/53/48 50/51/46
f 40/66/60 41/67/61 52/55/50 51/53/48
f 41/67/61 32/57/52 43/35/32 52/55/50
f 54/56/51 53/38/35 42/68/62
f 55/54/49 54/56/51 42/68/62
f 56/52/47 55/54/49 42/68/62
f 57/50/45 56/52/47 42/68/62
f 58/47/43 57/50/45 42/68/62
f 59/48/41 58/47/43 42/68/62
f 60/42/39 59/44/41 42/68/62
f 61/40/37 60/42/39 42/68/62
f 62/37/34 61/40/37 42/68/62
f 53/38/35 62/37/34 42/68/62
s 3
f 74/69/63 75/70/64 93/71/65 84/72/66
f 75/70/64 76/73/67 92/74/68 93/71/65
f 76/73/67 77/75/69 91/76/70 92/74/68
f 77/75/69 78/77/71 90/78/72 91/76/70
f 78/79/71 79/80/73 89/81/74 90/82/72
f 79/80/73 80/83/75 88/84/76 89/81/74
f 80/83/75 81/85/77 87/86/78 88/84/76
f 81/85/77 82/87/79 86/88/80 87/86/78
f 82/87/79 83/89/81 85/90/82 86/88/80
f 83/89/81 74/69/63 84/72/66 85/90/82
f 63/91/83 64/92/84 75/70/64 74/69/63
f 64/92/84 65/93/85 76/73/67 75/70/64
f 65/93/85 66/94/86 77/75/69 76/73/67
f 66/94/86 67/95/87 78/77/71 77/75/69
f 67/96/87 68/97/88 79/80/73 78/79/71
f 68/97/88 69/98/89 80/83/75 79/80/73
f 69/98/89 70/99/90 81/85/77 80/83/75
f 70/99/90 71/100/91 82/87/79 81/85/77
f 71/100/91 72/101/92 83/89/81 82/87/79
f 72/101/92 63/91/83 74/69/63 83/89/81
f 85/90/82 84/72/66 73/102/93
f 86/88/80 85/90/82 73/102/93
f 87/86/78 86/88/80 73/102/93
f 88/84/76 87/86/78 73/102/93
f 89/81/74 88/84/76 73/102/93
f 90/82/72 89/81/74 73/102/93
f 91/76/70 90/78/72 73/102/93
f 92/74/68 91/76/70 73/102/93
f 93/71/65 92/74/68 73/102/93
f 84/72/66 93/71/65 73/102/93
s 4
f 105/103/94 106/104/95 124/105/96 115/106/97
f 106/104/95 107/107/98 123/108/99 124/105/96
f 107/107/98 108/109/100 122/110/101 123/108/99
f 108/109/100 109/111/102 121/112/103 122/110/101
f 109/113/102 110/114/104 120/115/105 121/116/103
f 110/114/104 111/117/106 119/118/107 120/115/105
f 111/117/106 112/119/108 118/120/109 119/118/107
f 112/119/108 113/121/110 117/122/111 118/120/109
f 113/121/110 114/123/112 116/124/113 117/122/111
f 114/123/112 105/103/94 115/106/97 116/124/113
f 94/125/114 95/126/115 106/104/95 105/103/94
f 95/126/115 96/127/116 107/107/98 106/104/95
f 96/127/116 97/128/117 108/109/100 107/107/98
f 97/128/117 98/129/118 109/111/102 108/109/100
f 98/130/118 99/131/119 110/114/104 109/113/102
f 99/131/119 100/132/120 111/117/106 110/114/104
f 100/132/120 101/133/121 112/119/108 111/117/106
f 101/133/121 102/134/122 113/121/110 112/119/108
f 102/134/122 103/135/123 114/123/112 113/121/110
f 103/135/123 94/125/114 105/103/94 114/123/112
f 116/124/113 115/106/97 104/136/124
f 117/122/111 116/124/113 104/136/124
f 118/120/109 117/122/111 104/136/124
f 119/118/107 118/120/109 104/136/124
f 120/115/105 119/118/107 104/136/124
f 121/116/103 120/115/105 104/136/124
f 122/110/101 121/112/103 104/136/124
f 123/108/99 122/110/101 104/136/124
f 124/105/96 123/108/99 104/136/124
f 115/106/97 124/105/96 104/136/124
s 5
f 136/137/125 137/138/126 155/139/127 146/140/128
f 137/138/126 138/141/129 154/142/130 155/139/127
f 138/141/129 139/143/131 153/144/132 154/142/130
f 139/143/131 140/145/133 152/146/134 153/144/132
f 140/147/133 141/148/135 151/149/136 152/150/134
f 141/148/135 142/151/137 150/152/138 151/149/136
f 142/151/137 143/153/139 149/154/140 150/152/138
f 143/153/139 144/155/141 148/156/142 149/154/140
f 144/155/141 145/157/143 147/158/144 148/156/142
f 145/157/143 136/137/125 146/140/128 147/158/144
f 125/159/145 126/160/146 137/138/126 136/137/125
f 126/160/146 127/161/147 138/141/129 137/138/126
f 127/161/147 128/162/148 139/143/131 138/141/129
f 128/162/148 129/163/149 140/145/133 139/143/131
f 129/164/149 130/165/150 141/148/135 140/147/133
f 130/165/150 131/166/151 142/151/137 141/148/135
f 131/166/151 132/167/152 143/153/139 142/151/137
f 132/167/152 133/168/153 144/155/141 143/153/139
f 133/168/153 134/169/154 145/157/143 144/155/141
f 134/169/154 125/159/145 136/137/125 145/157/143
f 147/158/144 146/140/128 135/170/155
f 148/156/142 147/158/144 135/170/155
f 149/154/140 148/156/142 135/170/155
f 150/152/138 149/154/140 135/170/155
f 151/149/136 150/152/138 135/170/155
f 152/150/134 151/149/136 135/170/155
f 153/144/132 152/146/134 135/170/155
f 154/142/130 153/144/132 135/170/155
f 155/139/127 154/142/130 135/170/155
f 146/140/128 155/139/127 135/170/155
s 6
f 167/171/156 168/172/157 186/173/158 177/174/159
f 168/172/157 169/175/160 185/176/161 186/173/158
f 169/175/160 170/177/162 184/178/163 185/176/161
f 170/177/162 171/179/164 183/180/165 184/178/163
f 171/181/164 172/182/166 182/183/167 183/184/165
f 172/182/166 173/185/168 181/186/169 182/183/167
f 173/185/168 174/187/170 180/188/171 181/186/169
f 174/187/170 175/189/172 179/190/173 180/188/171
f 175/189/172 176/191/174 178/192/175 179/190/173
f 176/191/174 167/171/156 177/174/159 178/192/175
f 156/193/176 157/194/177 168/172/157 167/171/156
f 157/194/177 158/195/178 169/175/160 168/172/157
f 158/195/178 159/196/179 170/177/162 169/175/160
f 159/196/179 160/197/180 171/179/164 170/177/162
f 160/198/180 161/199/181 172/182/166 171/181/164
f 161/199/181 162/200/182 173/185/168 172/182/166
f 162/200/182 163/201/183 174/187/170 173/185/168
f 163/201/183 164/202/184 175/189/172 174/187/170
f 164/202/184 165/203/185 176/191/174 175/189/172
f 165/203/185 156/193/176 167/171/156 176/191/174
f 178/192/175 177/174/159 166/204/186
f 179/190/173 178/192/175 166/204/186
f 180/188/171 179/190/173 166/204/186
f 181/186/169 180/188/171 166/204/186
f 182/183/167 181/186/169 166/204/186
f 183/184/165 182/183/167 166/204/186
f 184/178/163 183/180/165 166/204/186
f 185/176/161 184/178/163 166/204/186
f 186/173/158 185/176/161 166/204/186
f 177/174/159 186/173/158 166/204/186
s 7
f 198/205/187 199/206/188 217/207/189 208/208/190
f 199/206/188 200/209/191 216/210/192 217/207/189
f 200/209/191 201/211/193 215/212/194 216/210/192
f 201/211/193 202/213/195 214/214/196 215/212/194
f 202/215/195 203/216/197 213/217/198 214/218/196
f 203/216/197 204/219/199 212/220/200 213/217/198
f 204/219/199 205/221/201 211/222/202 212/220/200
f 205/221/201 206/223/203 210/224/204 211/222/202
f 206/223/203 207/225/205 209/226/206 210/224/204
f 207/225/205 198/205/187 208/208/190 209/226/206
f 187/227/207 188/228/208 199/206/188 198/205/187
f 188/228/208 189/229/209 200/209/191 199/206/188
f 189/229/209 190/230/210 201/211/193 200/209/191
f 190/230/210 191/231/211 202/213/195 201/211/193
f 191/232/211 192/233/212 203/216/197 202/215/195
f 192/233/212 193/234/213 204/219/199 203/216/197
f 193/234/213 194/235/214 205/221/201 204/219/199
f 194/235/214 195/236/215 206/223/203 205/221/201
f 195/236/215 196/237/216 207/225/205 206/223/203
f 196/237/216 187/227/207 198/205/187 207/225/205
f 209/226/206 208/208/190 197/238/217
f 210/224/204 209/226/206 197/238/217
f 211/222/202 210/224/204 197/238/217
f 212/220/200 211/222/202 197/238/217
f 213/217/198 212/220/200 197/238/217
f 214/218/196 213/217/198 197/238/217
f 215/212/194 214/214/196 197/238/217
f 216/210/192 215/212/194 197/238/217
f 217/207/189 216/210/192 197/238/217
f 208/208/190 217/207/189 197/238/217
s 8
f 229/239/218 230/240/219 248/241/220 239/242/221
f 230/240/219 231/243/222 247/244/223 248/241/220
f 231/243/222 232/245/224 246/246/225 247/244/223
f 232/245/224 233/247/226 245/248/227 246/246/225
f 233/249/226 234/250/228 244/251/229 245/252/227
f 234/250/228 235/253/230 243/254/231 244/251/229
f 235/253/230 236/255/232 242/256/233 243/254/231
f 236/255/232 237/257/234 241/258/235 242/256/233
f 237/257/234 238/259/236 240/260/237 241/258/235
f 238/259/236 229/239/218 239/242/221 240/260/237
f 218/261/238 219/262/239 230/240/219 229/239/218
f 219/262/239 220/263/240 231/243/222 230/240/219
f 220/263/240 221/264/241 232/245/224 231/243/222
f 221/264/241 222/265/242 233/247/226 232/245/224
f 222/266/242 223/267/243 234/250/228 233/249/226
f 223/267/243 224/268/244 235/253/230 234/250/228
f 224/268/244 225/269/245 236/255/232 235/253/230
f 225/269/245 226/270/246 237/257/234 236/255/232
f 226/270/246 227/271/247 238/259/236 237/257/234
f 227/271/247 218/261/238 229/239/218 238/259/236
f 240/260/237 239/242/221 228/272/248
f 241/258/235 240/260/237 228/272/248
f 242/256/233 241/258/235 228/272/248
f 243/254/231 242/256/233 228/272/248
f 244/251/229 243/254/231 228/272/248
f 245/252/227 244/251/229 228/272/248
f 246/246/225 245/248/227 228/272/248
f 247/244/223 246/246/225 228/272/248
f 248/241/220 247/244/223 228/272/248
f 239/242/221 248/241/220 228/272/248
