# This file uses centimeters as units for non-parametric coordinates.

mtllib M_FencePart.mtl
g default
v 0.760425 -7.855270 -0.534494
v 0.290456 -7.854635 -0.875946
v -0.290457 -7.854635 -0.875946
v -0.760425 -7.855270 -0.534494
v -0.939937 -7.856298 0.017986
v -0.760425 -7.857326 0.570466
v -0.290456 -7.857961 0.911917
v 0.290456 -7.857961 0.911917
v 0.760425 -7.857326 0.570466
v 0.939937 -7.856298 0.017986
v -0.000000 11.869401 0.054686
v 0.760425 3.554421 -0.513266
v 0.290456 3.555057 -0.854718
v -0.290457 3.555057 -0.854718
v -0.760425 3.554421 -0.513266
v -0.939937 3.553393 0.039214
v -0.760425 3.552365 0.591694
v -0.290456 3.551730 0.933145
v 0.290456 3.551730 0.933145
v 0.760425 3.552365 0.591694
v 0.939937 3.553393 0.039214
v 0.458482 10.503226 -0.280963
v 0.566715 10.502606 0.052143
v 0.458482 10.501988 0.385249
v 0.175124 10.501605 0.591120
v -0.175124 10.501605 0.591120
v -0.458482 10.501988 0.385249
v -0.566715 10.502606 0.052143
v -0.458482 10.503226 -0.280963
v -0.175125 10.503612 -0.486834
v 0.175124 10.503612 -0.486834
vt 0.339626 0.682178
vt 0.346444 0.682224
vt 0.353258 0.682277
vt 0.360073 0.682337
vt 0.366888 0.682400
vt 0.305572 0.682599
vt 0.312380 0.682504
vt 0.319187 0.682414
vt 0.325994 0.682329
vt 0.332806 0.682249
vt 0.333177 0.994344
vt 0.339626 0.866958
vt 0.346174 0.867133
vt 0.352746 0.867458
vt 0.359354 0.867934
vt 0.300187 0.868645
vt 0.306837 0.867994
vt 0.313439 0.867486
vt 0.320007 0.867128
vt 0.326553 0.866919
vt 0.333089 0.866863
vt 0.336687 0.971942
vt 0.333161 0.971770
vt 0.329633 0.971957
vt 0.326088 0.972502
vt 0.322504 0.973416
vt 0.318865 0.974711
vt 0.351188 0.976371
vt 0.347466 0.974681
vt 0.343821 0.973387
vt 0.340234 0.972479
vt 0.315153 0.976406
vt 0.366010 0.868555
vt 0.298764 0.682697
vn 0.808893 0.018582 -0.587662
vn 0.308970 0.019258 -0.950877
vn 0.308114 0.078126 -0.948136
vn 0.806655 0.077452 -0.585926
vn -0.308970 0.019258 -0.950877
vn -0.308114 0.078126 -0.948136
vn -0.808893 0.018582 -0.587662
vn -0.806655 0.077452 -0.585926
vn -0.999847 0.017489 0.000033
vn -0.997080 0.076362 0.000143
vn -0.808893 0.016396 0.587727
vn -0.806655 0.075272 0.586210
vn -0.308970 0.015720 0.950942
vn -0.308115 0.074598 0.948420
vn 0.308970 0.015720 0.950942
vn 0.308115 0.074598 0.948420
vn 0.808893 0.016396 0.587727
vn 0.806655 0.075272 0.586210
vn 0.999847 0.017489 0.000033
vn 0.997080 0.076362 0.000142
vn 0.809017 0.001094 -0.587784
vn 0.309017 0.001769 -0.951055
vn -0.309017 0.001769 -0.951055
vn -0.809017 0.001094 -0.587784
vn -1.000000 -0.000000 0.000000
vn -0.809017 -0.001094 0.587784
vn -0.309017 -0.001769 0.951055
vn 0.309017 -0.001769 0.951055
vn 0.809017 -0.001094 0.587784
vn 1.000000 0.000000 0.000000
vn 0.000000 0.999998 0.001863
s 1
g pCylinder6
usemtl M_WoodSmall:lambert6SG
f 12/12/1 13/13/2 31/31/3 22/22/4
f 13/13/2 14/14/5 30/30/6 31/31/3
f 14/14/5 15/15/7 29/29/8 30/30/6
f 15/15/7 16/33/9 28/28/10 29/29/8
f 16/16/9 17/17/11 27/27/12 28/32/10
f 17/17/11 18/18/13 26/26/14 27/27/12
f 18/18/13 19/19/15 25/25/16 26/26/14
f 19/19/15 20/20/17 24/24/18 25/25/16
f 20/20/17 21/21/19 23/23/20 24/24/18
f 21/21/19 12/12/1 22/22/4 23/23/20
f 1/1/21 2/2/22 13/13/2 12/12/1
f 2/2/22 3/3/23 14/14/5 13/13/2
f 3/3/23 4/4/24 15/15/7 14/14/5
f 4/4/24 5/5/25 16/33/9 15/15/7
f 5/34/25 6/6/26 17/17/11 16/16/9
f 6/6/26 7/7/27 18/18/13 17/17/11
f 7/7/27 8/8/28 19/19/15 18/18/13
f 8/8/28 9/9/29 20/20/17 19/19/15
f 9/9/29 10/10/30 21/21/19 20/20/17
f 10/10/30 1/1/21 12/12/1 21/21/19
f 23/23/20 22/22/4 11/11/31
f 24/24/18 23/23/20 11/11/31
f 25/25/16 24/24/18 11/11/31
f 26/26/14 25/25/16 11/11/31
f 27/27/12 26/26/14 11/11/31
f 28/32/10 27/27/12 11/11/31
f 29/29/8 28/28/10 11/11/31
f 30/30/6 29/29/8 11/11/31
f 31/31/3 30/30/6 11/11/31
f 22/22/4 31/31/3 11/11/31
