# This file uses centimeters as units for non-parametric coordinates.

mtllib M_Gate.mtl
g default
v 2.021231 1.816993 -11.009096
v 2.021231 -1.181029 -9.481527
v 2.021231 -1.181027 7.919666
v 2.021231 1.816993 9.447235
v -3.490638 1.816993 -11.009096
v -3.490638 -1.181029 -9.481527
v -3.490638 -1.181027 7.919666
v -3.490638 1.816993 9.447235
v 2.021231 -7.779171 -11.009096
v -3.490638 -7.779171 -11.009096
v 2.021231 -7.779202 -9.481527
v -3.490638 -7.779202 -9.481527
v 2.021231 -7.779202 7.919666
v -3.490638 -7.779202 7.919666
v 2.021231 -7.779171 9.447235
v -3.490638 -7.779171 9.447235
v 1.224204 13.334695 -3.437885
v 1.224204 12.110875 -5.834760
v 1.224203 10.204728 -7.736932
v 1.224203 7.802841 -8.958210
v 1.224203 5.140327 -9.379020
v 1.224203 2.477814 -8.958210
v 1.224202 0.075929 -7.736930
v 1.214133 -1.830218 -5.834758
v 1.212553 -1.830219 4.272901
v 1.224203 0.075930 6.175069
v 1.224203 2.477816 7.396338
v 1.224203 5.140327 7.817160
v 1.224203 7.802839 7.396338
v 1.224203 10.204719 6.175069
v 1.224203 12.110869 4.272901
v 1.224204 13.334691 1.876027
v 1.224204 13.756392 -0.780929
v -2.693610 13.334696 -3.437885
v -2.693610 12.110876 -5.834760
v -2.693610 10.204729 -7.736932
v -2.693610 7.802841 -8.958210
v -2.693610 5.140327 -9.379020
v -2.693610 2.477814 -8.958210
v -2.693610 0.075929 -7.736930
v -2.682153 -1.830218 -5.834758
v -2.690989 -1.830219 4.272901
v -2.693610 0.075930 6.175069
v -2.693610 2.477815 7.396338
v -2.693610 5.140327 7.817160
v -2.693610 7.802838 7.396338
v -2.693610 10.204720 6.175069
v -2.693610 12.110870 4.272901
v -2.693610 13.334692 1.876027
v -2.693610 13.756392 -0.780929
v -2.567663 -7.779227 4.323461
v -2.612094 -3.560270 4.323461
v 1.184414 -7.779227 4.323461
v 1.224929 -3.560270 4.323461
v -2.602658 -3.560272 -5.869130
v -2.503009 -7.779227 -5.869130
v 1.245686 -3.560272 -5.869130
v 1.360960 -7.779227 -5.869130
v 1.779998 15.368493 -4.104262
v 2.021231 15.115097 -4.021929
v 1.779998 13.840928 -7.102284
v 2.021231 13.625378 -6.945677
v 1.779998 11.461682 -9.481529
v 2.021231 11.305075 -9.265977
v 1.779998 8.463658 -11.009096
v 2.021231 8.381327 -10.755700
v 1.779998 5.140327 -11.535462
v 2.021231 5.119614 -11.272307
v 1.779998 5.140327 9.973598
v 2.021231 5.119614 9.710443
v 1.779998 8.463658 9.447234
v 2.021231 8.381327 9.193839
v 1.779998 11.461679 7.919666
v 2.021231 11.305071 7.704116
v 1.779998 13.840920 5.540424
v 2.021231 13.625370 5.383817
v 1.779998 15.368491 2.542402
v 2.021231 15.115095 2.460069
v 1.779998 15.894854 -0.780928
v 2.021231 15.628416 -0.780929
v -3.249405 15.368492 -4.104262
v -3.490638 15.115098 -4.021929
v -3.249405 13.840927 -7.102284
v -3.490638 13.625379 -6.945677
v -3.249404 11.461681 -9.481529
v -3.490638 11.305076 -9.265977
v -3.249404 8.463659 -11.009096
v -3.490638 8.381327 -10.755700
v -3.249405 5.140327 -11.535462
v -3.490638 5.119615 -11.272307
v -3.249405 5.140327 9.973598
v -3.490638 5.119615 9.710443
v -3.249404 8.463659 9.447234
v -3.490638 8.381327 9.193839
v -3.249405 11.461678 7.919666
v -3.490638 11.305072 7.704116
v -3.249405 13.840919 5.540424
v -3.490638 13.625371 5.383817
v -3.249405 15.368490 2.542402
v -3.490638 15.115096 2.460069
v -3.249404 15.894852 -0.780928
v -3.490638 15.628417 -0.780929
v 1.779998 -7.779138 -11.535462
v 2.021231 -7.779154 -11.272307
v -3.490638 -7.779154 -11.272307
v -3.249404 -7.779137 -11.535462
v 2.021231 -3.557658 -6.132286
v 1.779998 -3.560272 -5.869130
v 2.021231 -7.779225 -6.132286
v 1.779998 -7.779226 -5.869130
v -3.490638 -3.557657 -6.132286
v -3.249405 -3.560272 -5.869130
v -3.249404 -7.779226 -5.869130
v -3.490638 -7.779224 -6.132286
v 2.021231 -3.556426 4.586616
v 1.779998 -3.560270 4.323461
v 1.779998 -7.779226 4.323461
v 2.021231 -7.779225 4.586616
v -3.490638 -3.556426 4.586616
v -3.249404 -3.560271 4.323461
v -3.490638 -7.779224 4.586616
v -3.249405 -7.779227 4.323461
v 2.021231 -7.779155 9.710443
v 1.779998 -7.779138 9.973598
v -3.249405 -7.779137 9.973598
v -3.490638 -7.779155 9.710443
v 2.021231 13.588051 -3.520370
v 1.779998 13.334695 -3.437885
v 2.021231 12.326281 -5.991573
v 1.779998 12.110875 -5.834760
v 2.021231 10.361130 -7.952627
v 1.779998 10.204728 -7.736932
v 2.021231 7.885022 -9.211643
v 1.779998 7.802840 -8.958210
v 2.021231 5.140327 -9.645442
v 1.779998 5.140327 -9.379020
v 2.021231 2.395631 -9.211643
v 1.779998 2.477813 -8.958210
v 2.021231 -0.080472 -7.952625
v 1.779998 0.075928 -7.736930
v 2.021231 -1.936884 -6.100086
v 1.779998 -1.830219 -5.834758
v 2.021231 -1.935854 4.539256
v 1.779998 -1.830219 4.272901
v 2.021231 -0.080471 6.390764
v 1.779998 0.075930 6.175069
v 2.021231 2.395633 7.649770
v 1.779998 2.477814 7.396338
v 2.021231 5.140327 8.083581
v 1.779998 5.140327 7.817160
v 2.021231 7.885018 7.649770
v 1.779998 7.802838 7.396338
v 2.021231 10.361120 6.390764
v 1.779998 10.204719 6.175069
v 2.021231 12.326273 4.429713
v 1.779998 12.110869 4.272901
v 2.021231 13.588049 1.958511
v 1.779998 13.334693 1.876027
v 2.021231 14.022839 -0.780929
v 1.779998 13.756392 -0.780929
v -3.490638 13.588052 -3.520370
v -3.249404 13.334696 -3.437885
v -3.490638 12.326282 -5.991573
v -3.249405 12.110874 -5.834760
v -3.490638 10.361131 -7.952627
v -3.249405 10.204727 -7.736932
v -3.490638 7.885022 -9.211643
v -3.249405 7.802841 -8.958210
v -3.490638 5.140327 -9.645442
v -3.249405 5.140327 -9.379020
v -3.490638 2.395632 -9.211643
v -3.249405 2.477813 -8.958210
v -3.490638 -0.080473 -7.952625
v -3.249405 0.075928 -7.736930
v -3.490638 -1.936884 -6.100086
v -3.249405 -1.830219 -5.834758
v -3.490638 -1.935854 4.539256
v -3.249405 -1.830218 4.272901
v -3.490638 -0.080470 6.390764
v -3.249405 0.075931 6.175069
v -3.490638 2.395633 7.649770
v -3.249405 2.477815 7.396338
v -3.490638 5.140328 8.083581
v -3.249404 5.140328 7.817160
v -3.490638 7.885019 7.649770
v -3.249404 7.802839 7.396338
v -3.490638 10.361121 6.390764
v -3.249404 10.204718 6.175069
v -3.490638 12.326276 4.429713
v -3.249404 12.110870 4.272901
v -3.490638 13.588050 1.958511
v -3.249404 13.334692 1.876027
v -3.490638 14.022840 -0.780929
v -3.249405 13.756392 -0.780929
v 1.224204 12.698653 -3.261824
v 0.982973 12.444748 -3.182233
v 1.224204 11.620086 -5.481669
v 0.982973 11.403286 -5.325710
v 1.224203 9.834989 -7.232996
v 0.982970 9.677765 -7.018591
v 1.224203 7.598394 -8.423380
v 0.983994 7.515432 -8.168831
v 1.224203 5.140327 -8.815422
v 0.985955 5.140328 -8.545652
v 1.224203 2.682559 -8.422490
v 0.985375 2.764834 -8.165562
v 1.224202 0.454196 -7.238248
v 0.982396 0.601846 -7.019350
v 1.221797 -0.881312 -6.112356
v 0.982273 -0.702054 -5.917120
v 0.981251 -0.519656 4.377018
v 1.221952 -0.702466 4.567146
v 1.224203 0.470328 5.720289
v 0.983924 0.621929 5.500685
v 1.224203 2.684156 6.861524
v 0.984448 2.766447 6.606577
v 1.224203 5.140327 7.255104
v 0.984505 5.139684 6.987008
v 1.224203 7.596288 6.860883
v 0.985389 7.515817 6.603700
v 1.224203 9.812459 5.720292
v 0.983905 9.658722 5.500684
v 1.224203 11.607028 3.904087
v 0.982240 11.394010 3.745498
v 1.224204 12.753451 1.694413
v 0.982973 12.498753 1.613865
v 1.224204 13.086511 -0.783810
v 0.982973 12.820601 -0.780929
v -2.693610 12.698652 -3.261824
v -2.452377 12.444750 -3.182233
v -2.693610 11.620085 -5.481669
v -2.452377 11.403288 -5.325710
v -2.693610 9.833817 -7.234146
v -2.452377 9.677765 -7.018591
v -2.693610 7.620829 -8.379994
v -2.451349 7.538638 -8.127266
v -2.693610 5.137423 -8.714869
v -2.449417 5.140327 -8.452276
v -2.693610 2.653655 -8.327300
v -2.449978 2.735919 -8.076752
v -2.693610 0.439332 -7.251679
v -2.452899 0.586968 -7.030146
v -2.450576 -0.658823 -5.937132
v -2.690993 -0.834789 -6.134171
v -2.692973 -0.846805 4.363828
v -2.402970 -0.530182 4.391763
v -2.693599 0.409274 5.637287
v -2.451453 0.566923 5.425127
v -2.693610 2.676479 6.810459
v -2.451117 2.760738 6.559330
v -2.693610 5.131983 7.205504
v -2.450946 5.130484 6.940318
v -2.693610 7.631418 6.763841
v -2.450007 7.544734 6.514889
v -2.693610 9.873571 5.637712
v -2.451477 9.713732 5.425127
v -2.693610 11.655525 3.880697
v -2.453122 11.437273 3.725473
v -2.693610 12.753700 1.692522
v -2.452377 12.498751 1.613865
v -2.693610 13.086512 -0.783810
v -2.452377 12.820601 -0.780929
v 0.971806 -1.666891 -5.177389
v 1.220663 -1.575211 -5.435570
v 0.974286 -1.316226 -5.332430
v 1.219114 -2.596653 -5.370623
v 0.975045 -2.592013 -5.109594
v -2.445330 -1.620271 -5.194307
v -2.442453 -1.273631 -5.351935
v -2.689678 -1.527533 -5.456784
v -2.391538 -2.592013 -5.109594
v -2.682153 -2.362580 -5.327994
v 1.245600 -3.555570 -5.407097
v 1.004603 -3.568863 -5.143966
v -2.361969 -3.545165 -5.143430
v -2.602658 -3.560272 -5.406875
v 1.360960 -7.779226 -5.407121
v 1.119619 -7.779226 -5.143966
v -2.261696 -7.779225 -5.143966
v -2.503009 -7.779226 -5.407121
v 0.973008 -1.162259 3.775429
v 1.220619 -1.417604 3.880512
v 0.971786 -1.513391 3.621091
v 0.972219 -2.670067 3.532207
v 1.214633 -2.672536 3.794926
v -2.444921 -1.523343 3.633258
v -2.692790 -1.430366 3.894074
v -2.445305 -1.173446 3.789801
v -2.690989 -2.429704 3.744192
v -2.397647 -2.670067 3.532207
v 0.943168 -7.779226 3.582767
v 1.184415 -7.779226 3.845923
v 1.224875 -3.552793 3.846015
v 0.983598 -3.560270 3.582767
v -2.567663 -7.779226 3.845923
v -2.326415 -7.779225 3.582767
v -2.370811 -3.560269 3.582767
v -2.612094 -3.560270 3.846074
vt 0.334437 0.633591
vt 0.332296 0.628448
vt 0.408312 0.628448
vt 0.412384 0.633591
vt 0.248033 0.633591
vt 0.248033 0.628448
vt 0.468638 0.628448
vt 0.474243 0.633591
vt 0.412384 0.740817
vt 0.334437 0.740817
vt 0.248033 0.740817
vt 0.161629 0.633591
vt 0.163770 0.628448
vt 0.474243 0.740817
vt 0.332296 0.745960
vt 0.408312 0.745960
vt 0.248033 0.745960
vt 0.161629 0.740817
vt 0.083682 0.633591
vt 0.087754 0.628448
vt 0.468638 0.745960
vt 0.163770 0.745960
vt 0.083682 0.740817
vt 0.021824 0.633591
vt 0.027429 0.628448
vt 0.087754 0.745960
vt 0.021824 0.740817
vt 0.027429 0.745960
vt 0.673988 0.360923
vt 0.684432 0.358559
vt 0.684432 0.427249
vt 0.673988 0.431743
vt 0.673988 0.282415
vt 0.684432 0.282415
vt 0.708496 0.358559
vt 0.708496 0.427249
vt 0.684432 0.481762
vt 0.673988 0.487944
vt 0.673988 0.203908
vt 0.684432 0.206271
vt 0.708496 0.282415
vt 0.708496 0.481762
vt 0.673988 0.133087
vt 0.684432 0.137581
vt 0.708496 0.206271
vt 0.673988 0.076886
vt 0.684432 0.083068
vt 0.708496 0.137581
vt 0.708496 0.083068
vt 0.669095 0.360923
vt 0.658651 0.358559
vt 0.658651 0.282415
vt 0.669095 0.282415
vt 0.669095 0.431744
vt 0.658651 0.427250
vt 0.634587 0.358559
vt 0.634587 0.282415
vt 0.658651 0.206272
vt 0.669095 0.203908
vt 0.669095 0.487945
vt 0.658651 0.481763
vt 0.634587 0.427250
vt 0.634587 0.206272
vt 0.658651 0.137581
vt 0.669095 0.133087
vt 0.634587 0.481763
vt 0.634587 0.137581
vt 0.658651 0.083068
vt 0.669095 0.076887
vt 0.634587 0.083068
vt 0.144728 0.768414
vt 0.146744 0.773930
vt 0.092524 0.773719
vt 0.088576 0.768196
vt 0.207410 0.768659
vt 0.207486 0.774167
vt 0.146794 0.852362
vt 0.092574 0.852151
vt 0.049702 0.773552
vt 0.044275 0.768023
vt 0.270098 0.768903
vt 0.268064 0.774402
vt 0.207537 0.852599
vt 0.144785 0.857862
vt 0.088633 0.857643
vt 0.049752 0.851984
vt 0.325993 0.769120
vt 0.321984 0.774629
vt 0.268114 0.852834
vt 0.207467 0.858106
vt 0.044303 0.857470
vt 0.368797 0.769287
vt 0.367950 0.774770
vt 0.321528 0.853060
vt 0.270107 0.858350
vt 0.366099 0.853196
vt 0.325458 0.858565
vt 0.366752 0.858726
vt 0.019446 0.284474
vt 0.050454 0.345330
vt 0.050454 0.479266
vt 0.019446 0.479265
vt 0.055933 0.272728
vt 0.081489 0.322990
vt 0.118440 0.393573
vt 0.118440 0.479267
vt 0.014103 0.217434
vt 0.014103 0.479265
vt 0.047127 0.217013
vt 0.119094 0.360673
vt 0.024590 0.151225
vt 0.055933 0.161299
vt 0.054830 0.091876
vt 0.081489 0.111037
vt 0.101929 0.044776
vt 0.121297 0.071146
vt 0.161278 0.014536
vt 0.171459 0.045534
vt 0.227067 0.004117
vt 0.227067 0.036708
vt 0.292856 0.014536
vt 0.282675 0.045534
vt 0.352205 0.044776
vt 0.332837 0.071147
vt 0.399304 0.091876
vt 0.372644 0.111037
vt 0.429544 0.151225
vt 0.398201 0.161299
vt 0.440030 0.217434
vt 0.407007 0.217013
vt 0.434688 0.284474
vt 0.398201 0.272728
vt 0.440030 0.479265
vt 0.434688 0.479265
vt 0.403679 0.345330
vt 0.372644 0.322990
vt 0.403679 0.479266
vt 0.336022 0.393548
vt 0.335061 0.360652
vt 0.336022 0.479267
vt 0.838993 0.345331
vt 0.870001 0.284474
vt 0.870001 0.479266
vt 0.838993 0.479266
vt 0.807958 0.322991
vt 0.833515 0.272728
vt 0.875344 0.217435
vt 0.875344 0.479265
vt 0.771007 0.393574
vt 0.771007 0.479267
vt 0.770353 0.360673
vt 0.842320 0.217014
vt 0.864857 0.151225
vt 0.833515 0.161300
vt 0.834618 0.091876
vt 0.807958 0.111038
vt 0.787518 0.044777
vt 0.768151 0.071147
vt 0.728169 0.014537
vt 0.717988 0.045534
vt 0.662380 0.004117
vt 0.662380 0.036708
vt 0.596591 0.014537
vt 0.606772 0.045534
vt 0.537242 0.044777
vt 0.556610 0.071147
vt 0.490143 0.091876
vt 0.516803 0.111038
vt 0.459904 0.151225
vt 0.491246 0.161300
vt 0.449417 0.217435
vt 0.482440 0.217014
vt 0.454760 0.284474
vt 0.491246 0.272728
vt 0.454760 0.479266
vt 0.449417 0.479265
vt 0.485768 0.345331
vt 0.516803 0.322991
vt 0.485768 0.479266
vt 0.553425 0.393549
vt 0.554386 0.360653
vt 0.553425 0.479267
vt 0.128553 0.081493
vt 0.175526 0.057509
vt 0.178976 0.069974
vt 0.135473 0.091111
vt 0.227596 0.049245
vt 0.227539 0.062373
vt 0.091275 0.118848
vt 0.101151 0.126094
vt 0.279666 0.057509
vt 0.276107 0.068900
vt 0.067341 0.165920
vt 0.077822 0.169926
vt 0.326639 0.081493
vt 0.319411 0.091367
vt 0.059094 0.218099
vt 0.070139 0.218099
vt 0.363917 0.118849
vt 0.355004 0.126536
vt 0.067341 0.270277
vt 0.077840 0.266265
vt 0.387850 0.165920
vt 0.377357 0.169968
vt 0.091275 0.317349
vt 0.101048 0.309936
vt 0.396097 0.218099
vt 0.385083 0.218099
vt 0.128553 0.354704
vt 0.123113 0.336108
vt 0.387850 0.270277
vt 0.377369 0.266234
vt 0.136376 0.349707
vt 0.137649 0.369725
vt 0.363917 0.317348
vt 0.355004 0.309619
vt 0.127879 0.388609
vt 0.136934 0.388517
vt 0.326639 0.354704
vt 0.332405 0.332603
vt 0.127879 0.471291
vt 0.136934 0.471291
vt 0.317272 0.371212
vt 0.318949 0.346618
vt 0.327630 0.388609
vt 0.318273 0.388463
vt 0.327630 0.471291
vt 0.318271 0.471291
vt 0.715405 0.063586
vt 0.761504 0.087124
vt 0.754713 0.096563
vt 0.712019 0.075819
vt 0.798088 0.123785
vt 0.788418 0.130918
vt 0.664304 0.055476
vt 0.664360 0.068360
vt 0.821577 0.169980
vt 0.810456 0.173481
vt 0.613203 0.063586
vt 0.616733 0.074761
vt 0.829670 0.221188
vt 0.816897 0.221244
vt 0.567105 0.087124
vt 0.574648 0.095882
vt 0.821577 0.272396
vt 0.809443 0.269014
vt 0.530520 0.123785
vt 0.540855 0.130154
vt 0.798088 0.318591
vt 0.788755 0.311601
vt 0.507032 0.169980
vt 0.519197 0.173277
vt 0.761504 0.355252
vt 0.767263 0.336107
vt 0.498938 0.221188
vt 0.510702 0.221348
vt 0.751757 0.365490
vt 0.754235 0.349430
vt 0.507032 0.272396
vt 0.518300 0.268575
vt 0.762165 0.388525
vt 0.753274 0.388525
vt 0.530520 0.318591
vt 0.540863 0.312180
vt 0.762165 0.469668
vt 0.753279 0.469668
vt 0.567105 0.355252
vt 0.565356 0.336338
vt 0.574391 0.347562
vt 0.577273 0.366782
vt 0.566132 0.388525
vt 0.575313 0.388525
vt 0.566132 0.469668
vt 0.575316 0.469668
vt 0.452563 0.611818
vt 0.448992 0.616961
vt 0.382328 0.616961
vt 0.384205 0.611818
vt 0.307958 0.616961
vt 0.308430 0.611818
vt 0.384205 0.504592
vt 0.452563 0.504592
vt 0.013854 0.616961
vt 0.013854 0.611818
vt 0.308430 0.504592
vt 0.448992 0.499449
vt 0.382328 0.499449
vt 0.013854 0.504592
vt 0.307958 0.499449
vt 0.013854 0.499449
vt 0.752406 0.642785
vt 0.751997 0.637642
vt 0.816337 0.637642
vt 0.817961 0.642785
vt 0.497561 0.642785
vt 0.497560 0.637642
vt 0.874010 0.637642
vt 0.877099 0.642785
vt 0.817961 0.750012
vt 0.752406 0.750012
vt 0.497561 0.750012
vt 0.877099 0.750012
vt 0.751997 0.755155
vt 0.816337 0.755155
vt 0.497560 0.755155
vt 0.874010 0.755155
vt 0.160243 0.380542
vt 0.171324 0.380597
vt 0.171324 0.468940
vt 0.160243 0.468940
vt 0.160243 0.346604
vt 0.171324 0.344371
vt 0.195866 0.380597
vt 0.190572 0.468940
vt 0.160243 0.307732
vt 0.171324 0.304457
vt 0.197316 0.344371
vt 0.160243 0.255883
vt 0.171324 0.254163
vt 0.196853 0.304457
vt 0.160243 0.198411
vt 0.171324 0.198411
vt 0.196853 0.254163
vt 0.160243 0.140938
vt 0.171324 0.142659
vt 0.196853 0.198411
vt 0.160243 0.089090
vt 0.171324 0.092365
vt 0.196853 0.142659
vt 0.196853 0.092365
vt 0.248476 0.380542
vt 0.237395 0.380597
vt 0.237395 0.344371
vt 0.248476 0.346604
vt 0.248476 0.468940
vt 0.237395 0.468940
vt 0.207688 0.380597
vt 0.211340 0.344371
vt 0.237395 0.304457
vt 0.248476 0.307732
vt 0.203111 0.468940
vt 0.211866 0.304457
vt 0.237395 0.254163
vt 0.248476 0.255884
vt 0.211866 0.254163
vt 0.237395 0.198411
vt 0.248476 0.198411
vt 0.211866 0.198411
vt 0.237395 0.142660
vt 0.248476 0.140939
vt 0.211866 0.142660
vt 0.237395 0.092365
vt 0.248476 0.089090
vt 0.211866 0.092365
vt 0.292660 0.380517
vt 0.281580 0.380598
vt 0.281580 0.344372
vt 0.292660 0.346583
vt 0.292660 0.468941
vt 0.281580 0.468941
vt 0.256083 0.380598
vt 0.255515 0.344372
vt 0.281580 0.304457
vt 0.292660 0.307733
vt 0.254222 0.468941
vt 0.256050 0.304457
vt 0.281580 0.254164
vt 0.292660 0.255885
vt 0.256050 0.254164
vt 0.281580 0.198412
vt 0.292660 0.198412
vt 0.256050 0.198412
vt 0.281580 0.142660
vt 0.292660 0.140940
vt 0.256050 0.142660
vt 0.281580 0.092366
vt 0.292660 0.089091
vt 0.256050 0.092366
vt 0.585803 0.369897
vt 0.596248 0.369974
vt 0.596248 0.453244
vt 0.585803 0.453244
vt 0.585803 0.337911
vt 0.596248 0.335826
vt 0.623841 0.369974
vt 0.625765 0.453244
vt 0.585803 0.301291
vt 0.596248 0.298204
vt 0.620425 0.335826
vt 0.585803 0.252420
vt 0.596248 0.250797
vt 0.620311 0.298204
vt 0.585803 0.198247
vt 0.596248 0.198247
vt 0.620311 0.250797
vt 0.585803 0.144073
vt 0.596248 0.145696
vt 0.620311 0.198247
vt 0.585803 0.095203
vt 0.596248 0.098289
vt 0.620311 0.145696
vt 0.620311 0.098289
vt 0.494363 0.594901
vt 0.497439 0.589724
vt 0.540505 0.589278
vt 0.538908 0.594417
vt 0.496643 0.516487
vt 0.539247 0.516047
vt 0.587808 0.588806
vt 0.587863 0.593886
vt 0.493480 0.511378
vt 0.537554 0.510900
vt 0.587013 0.515569
vt 0.635119 0.588280
vt 0.636813 0.593354
vt 0.587014 0.510363
vt 0.634899 0.515037
vt 0.678197 0.587749
vt 0.681194 0.592872
vt 0.636481 0.509826
vt 0.677698 0.514510
vt 0.704165 0.587464
vt 0.707791 0.592532
vt 0.680582 0.509347
vt 0.702510 0.514290
vt 0.716396 0.587161
vt 0.721611 0.592358
vt 0.705959 0.509127
vt 0.714756 0.514331
vt 0.723379 0.587033
vt 0.719756 0.509005
vt 0.721659 0.514194
vt 0.741804 0.586902
vt 0.741953 0.592104
vt 0.741025 0.515131
vt 0.761266 0.587320
vt 0.761057 0.592461
vt 0.736389 0.508985
vt 0.760015 0.515555
vt 0.845148 0.588862
vt 0.845203 0.594007
vt 0.760260 0.510421
vt 0.844365 0.516777
vt 0.844309 0.511632
vt 0.601973 0.770275
vt 0.598107 0.775744
vt 0.543860 0.775503
vt 0.545973 0.770038
vt 0.631639 0.770452
vt 0.626983 0.775928
vt 0.599050 0.854181
vt 0.543556 0.853938
vt 0.483828 0.775247
vt 0.483843 0.769775
vt 0.649729 0.770559
vt 0.643237 0.776185
vt 0.626808 0.853192
vt 0.603006 0.859726
vt 0.545656 0.859484
vt 0.483612 0.853681
vt 0.423722 0.774973
vt 0.421718 0.769512
vt 0.652120 0.776250
vt 0.643074 0.854227
vt 0.634779 0.859846
vt 0.483544 0.859221
vt 0.422543 0.853401
vt 0.681472 0.770830
vt 0.681378 0.776364
vt 0.651924 0.854256
vt 0.649541 0.859905
vt 0.420318 0.858953
vt 0.703739 0.770691
vt 0.703898 0.776200
vt 0.680939 0.853299
vt 0.810644 0.772067
vt 0.810612 0.777575
vt 0.703461 0.852782
vt 0.674820 0.859970
vt 0.810186 0.852220
vt 0.703429 0.858290
vt 0.810154 0.857728
vn 1.000000 0.000000 -0.000000
vn 1.000000 -0.000000 0.000000
vn 1.000000 0.000000 0.000000
vn 1.000000 0.000000 -0.000000
vn -1.000000 0.000000 0.000000
vn -1.000000 0.000000 0.000000
vn -1.000000 0.000000 0.000000
vn -1.000000 0.000000 0.000000
vn 1.000000 0.000000 0.000000
vn 1.000000 0.000000 0.000000
vn 1.000000 0.000000 0.000000
vn 1.000000 0.000000 0.000000
vn -1.000000 0.000000 0.000000
vn -1.000000 -0.000000 0.000000
vn -1.000000 0.000000 0.000000
vn -1.000000 0.000000 0.000000
vn 0.741298 0.638327 -0.207404
vn 0.741298 0.638327 -0.207404
vn 0.741297 0.542994 -0.394508
vn 0.741297 0.542994 -0.394508
vn 0.741298 0.671176 0.000000
vn 0.741298 0.671176 0.000000
vn 0.741297 0.394508 -0.542994
vn 0.741297 0.394508 -0.542994
vn 0.741298 0.207246 -0.638378
vn 0.741298 0.207245 -0.638378
vn 0.737820 0.021715 -0.674648
vn 0.737820 0.021715 -0.674648
vn 0.737143 0.000000 -0.675737
vn 0.737143 0.000000 -0.675737
vn 0.737821 0.021715 0.674647
vn 0.737821 0.021715 0.674647
vn 0.741297 0.207246 0.638379
vn 0.741297 0.207246 0.638379
vn 0.737144 0.000000 0.675736
vn 0.737144 0.000000 0.675736
vn 0.741297 0.394508 0.542994
vn 0.741297 0.394509 0.542994
vn 0.741297 0.542994 0.394508
vn 0.741297 0.542994 0.394508
vn 0.741298 0.638326 0.207405
vn 0.741298 0.638326 0.207405
vn -0.741296 0.638329 -0.207405
vn -0.741296 0.638329 -0.207405
vn -0.741296 0.671179 0.000000
vn -0.741296 0.671179 0.000000
vn -0.741296 0.542995 -0.394509
vn -0.741296 0.542995 -0.394509
vn -0.741297 0.394508 -0.542994
vn -0.741297 0.394508 -0.542994
vn -0.741299 0.207245 -0.638377
vn -0.741299 0.207246 -0.638377
vn -0.737820 0.021715 -0.674648
vn -0.737820 0.021715 -0.674648
vn -0.737143 -0.000000 -0.675737
vn -0.737143 -0.000000 -0.675737
vn -0.737821 0.021715 0.674647
vn -0.737821 0.021715 0.674647
vn -0.737144 0.000000 0.675736
vn -0.737144 0.000000 0.675736
vn -0.741296 0.207246 0.638380
vn -0.741296 0.207246 0.638380
vn -0.741295 0.394509 0.542996
vn -0.741295 0.394510 0.542996
vn -0.741295 0.542995 0.394510
vn -0.741295 0.542995 0.394509
vn -0.741296 0.638329 0.207406
vn -0.741296 0.638329 0.207406
vn 0.737158 -0.003815 0.675710
vn 0.737158 -0.003815 0.675710
vn 0.737144 0.000000 0.675735
vn 0.737144 0.000000 0.675735
vn 0.737145 -0.013422 0.675602
vn 0.737145 -0.013422 0.675602
vn -0.737158 -0.003815 0.675709
vn -0.737158 -0.003815 0.675709
vn -0.737145 -0.013422 0.675602
vn -0.737145 -0.013422 0.675602
vn -0.737145 -0.000000 0.675735
vn -0.737145 -0.000000 0.675735
vn 0.737173 -0.005611 -0.675681
vn 0.737173 -0.005611 -0.675681
vn 0.737144 -0.019740 -0.675448
vn 0.737144 -0.019740 -0.675448
vn 0.737143 -0.000000 -0.675737
vn 0.737143 -0.000000 -0.675737
vn -0.737173 -0.005611 -0.675680
vn -0.737173 -0.005611 -0.675680
vn -0.737144 0.000000 -0.675735
vn -0.737144 0.000000 -0.675735
vn -0.737144 -0.019740 -0.675448
vn -0.737144 -0.019740 -0.675448
vn 0.741308 -0.638188 0.207792
vn 0.741309 -0.638188 0.207792
vn 0.741302 -0.542598 0.395043
vn 0.741302 -0.542598 0.395043
vn 0.741311 -0.671162 -0.000000
vn 0.741311 -0.671162 -0.000000
vn 0.741292 -0.393974 0.543388
vn 0.741292 -0.393974 0.543388
vn 0.741284 -0.207019 0.638468
vn 0.741284 -0.207019 0.638468
vn 0.741280 -0.000000 0.671195
vn 0.741281 0.000000 0.671195
vn 0.741284 0.207019 0.638468
vn 0.741284 0.207019 0.638468
vn 0.741291 0.392749 0.544275
vn 0.741291 0.392748 0.544276
vn 0.737145 0.477318 0.478315
vn 0.737145 0.477318 0.478315
vn 0.737144 0.477318 -0.478317
vn 0.737144 0.477318 -0.478317
vn 0.741291 0.392736 -0.544286
vn 0.741291 0.392736 -0.544285
vn 0.741283 0.207019 -0.638469
vn 0.741283 0.207019 -0.638469
vn 0.741280 -0.000000 -0.671196
vn 0.741280 0.000000 -0.671196
vn 0.741283 -0.207020 -0.638469
vn 0.741283 -0.207019 -0.638469
vn 0.741291 -0.393974 -0.543390
vn 0.741291 -0.393974 -0.543390
vn 0.741300 -0.542599 -0.395044
vn 0.741300 -0.542599 -0.395045
vn 0.741308 -0.638188 -0.207793
vn 0.741308 -0.638188 -0.207793
vn -0.741309 -0.638187 0.207792
vn -0.741309 -0.638187 0.207791
vn -0.741313 -0.671160 -0.000000
vn -0.741313 -0.671160 -0.000000
vn -0.741303 -0.542597 0.395042
vn -0.741303 -0.542597 0.395042
vn -0.741293 -0.393973 0.543387
vn -0.741293 -0.393973 0.543387
vn -0.741284 -0.207018 0.638468
vn -0.741284 -0.207019 0.638468
vn -0.741281 -0.000000 0.671195
vn -0.741281 0.000000 0.671195
vn -0.741284 0.207019 0.638468
vn -0.741284 0.207019 0.638468
vn -0.741291 0.392749 0.544276
vn -0.741291 0.392749 0.544276
vn -0.737144 0.477318 0.478316
vn -0.737144 0.477318 0.478316
vn -0.737144 0.477317 -0.478316
vn -0.737144 0.477317 -0.478316
vn -0.741291 0.392736 -0.544285
vn -0.741291 0.392735 -0.544285
vn -0.741283 0.207019 -0.638469
vn -0.741283 0.207019 -0.638469
vn -0.741279 -0.000000 -0.671197
vn -0.741279 0.000000 -0.671197
vn -0.741284 -0.207019 -0.638468
vn -0.741284 -0.207020 -0.638468
vn -0.741293 -0.393973 -0.543388
vn -0.741293 -0.393972 -0.543389
vn -0.741302 -0.542597 -0.395043
vn -0.741302 -0.542597 -0.395043
vn -0.741310 -0.638186 -0.207792
vn -0.741310 -0.638186 -0.207792
vn 0.740861 -0.641175 0.200049
vn 0.740861 -0.641175 0.200049
vn 0.742089 -0.543668 0.392084
vn 0.742089 -0.543669 0.392083
vn 0.740660 -0.671839 0.007495
vn 0.740660 -0.671839 0.007495
vn 0.741133 -0.396342 0.541881
vn 0.741133 -0.396358 0.541869
vn 0.745065 -0.213415 0.631928
vn 0.745084 -0.212548 0.632197
vn 0.748129 0.000255 0.663553
vn 0.748129 0.000226 0.663554
vn 0.746837 0.212819 0.630034
vn 0.746874 0.211444 0.630453
vn 0.741008 0.364997 0.563635
vn 0.741007 0.364904 0.563696
vn 0.735677 0.447433 0.508511
vn 0.735655 0.447530 0.508458
vn 0.722608 0.458788 0.517060
vn 0.737330 0.262798 0.622320
vn 0.733828 0.471674 -0.488896
vn 0.733858 0.471677 -0.488849
vn 0.736920 0.244646 -0.630157
vn 0.718973 0.457855 -0.522921
vn 0.743302 0.375889 -0.553362
vn 0.743292 0.374142 -0.554558
vn 0.745059 0.208610 -0.633536
vn 0.745061 0.208099 -0.633702
vn 0.746417 -0.000111 -0.665479
vn 0.746419 -0.000332 -0.665477
vn 0.746986 -0.208267 -0.631377
vn 0.746990 -0.206904 -0.631820
vn 0.744158 -0.397309 -0.537004
vn 0.744215 -0.395421 -0.538318
vn 0.740603 -0.542877 -0.395969
vn 0.740610 -0.542242 -0.396824
vn 0.741572 -0.639801 -0.201805
vn 0.741572 -0.639793 -0.201830
vn -0.740858 -0.641178 0.200050
vn -0.740858 -0.641178 0.200050
vn -0.740657 -0.671841 0.007514
vn -0.740657 -0.671841 0.007514
vn -0.742086 -0.543659 0.392101
vn -0.742086 -0.543659 0.392101
vn -0.740225 -0.394554 0.544421
vn -0.740225 -0.394569 0.544410
vn -0.738486 -0.203298 0.642891
vn -0.738467 -0.202409 0.643193
vn -0.733838 0.007248 0.679286
vn -0.733839 0.007185 0.679286
vn -0.736007 0.202126 0.646095
vn -0.735970 0.200885 0.646524
vn -0.739618 0.358168 0.569808
vn -0.739615 0.358097 0.569856
vn -0.734848 0.454250 0.503642
vn -0.734749 0.454494 0.503566
vn -0.703065 0.293159 0.647887
vn -0.719720 0.462211 0.518038
vn -0.644912 0.521114 -0.559043
vn -0.651534 0.521856 -0.550609
vn -0.636939 0.500152 -0.586648
vn -0.649476 0.277377 -0.707986
vn -0.706686 0.397951 -0.585003
vn -0.706883 0.397393 -0.585146
vn -0.737452 0.213083 -0.640906
vn -0.737452 0.212566 -0.641077
vn -0.737002 -0.006250 -0.675862
vn -0.737000 -0.006470 -0.675862
vn -0.735739 -0.213286 -0.642805
vn -0.735729 -0.211965 -0.643253
vn -0.739417 -0.393036 -0.546612
vn -0.739364 -0.391198 -0.548001
vn -0.742647 -0.541127 -0.394534
vn -0.742641 -0.540467 -0.395448
vn -0.742516 -0.640366 -0.196473
vn -0.742516 -0.640360 -0.196493
vn -0.001263 0.175875 0.984412
vn 0.003260 0.609643 0.792670
vn 0.003281 0.611086 0.791557
vn -0.001230 0.180443 0.983585
vn 0.714358 0.071331 0.696136
vn 0.727392 0.022324 0.685859
vn 0.727492 0.021944 0.685765
vn 0.736320 0.015715 0.676451
vn 0.736315 0.015672 0.676457
vn -0.644735 0.092645 0.758771
vn -0.660712 0.017837 0.750428
vn -0.676702 -0.036813 0.735337
vn -0.727666 -0.028367 0.685345
vn -0.726915 -0.029204 0.686106
vn 0.736816 0.020124 0.675793
vn 0.736816 0.020124 0.675793
vn -0.737290 -0.017500 0.675350
vn -0.737290 -0.017500 0.675350
vn -0.005215 0.606487 -0.795076
vn -0.002663 0.165100 -0.986273
vn -0.002674 0.166378 -0.986058
vn -0.005212 0.604241 -0.796785
vn 0.718071 0.067284 -0.692710
vn 0.729154 0.014963 -0.684186
vn 0.729115 0.015194 -0.684222
vn 0.736996 -0.011005 -0.675808
vn 0.736995 -0.011014 -0.675809
vn -0.630433 0.095916 -0.770295
vn -0.669973 -0.040805 -0.741263
vn -0.647929 0.025869 -0.761261
vn -0.727445 -0.023985 -0.685747
vn -0.727578 -0.023767 -0.685613
vn 0.737195 -0.007054 -0.675643
vn 0.737195 -0.007054 -0.675643
vn -0.737173 -0.007748 -0.675660
vn -0.737173 -0.007748 -0.675660
vn -0.000000 0.951057 -0.309016
vn -0.000000 0.809017 -0.587785
vn -0.000000 0.809017 -0.587785
vn -0.000000 0.951057 -0.309016
vn -0.000000 0.587785 -0.809017
vn -0.000000 0.587785 -0.809017
vn 0.000000 0.309017 -0.951057
vn 0.000000 0.309017 -0.951057
vn 0.000000 0.032389 -0.999475
vn 0.000000 0.032389 -0.999475
vn -0.000000 0.032389 0.999475
vn 0.000000 0.309017 0.951056
vn 0.000000 0.309017 0.951057
vn -0.000000 0.032389 0.999475
vn -0.000000 0.587785 0.809017
vn -0.000000 0.587785 0.809017
vn -0.000000 0.809017 0.587785
vn -0.000000 0.809017 0.587785
vn -0.000000 0.951057 0.309017
vn -0.000000 0.951057 0.309017
vn -0.000000 1.000000 0.000000
vn -0.000000 1.000000 0.000000
vn 1.000000 0.000000 0.000000
vn 1.000000 0.000000 -0.000001
vn -1.000000 0.000000 0.000000
vn -1.000000 0.000000 0.000000
vn 0.000000 0.000000 -1.000000
vn 0.000000 0.000000 -1.000000
vn 1.000000 -0.000000 0.000000
vn 1.000000 0.000000 0.000000
vn -1.000000 -0.000000 0.000000
vn -1.000000 0.000000 0.000000
vn 1.000000 0.000000 0.000000
vn 1.000000 0.000000 0.000000
vn -1.000000 -0.000000 0.000000
vn -1.000000 0.000000 0.000000
vn 1.000000 -0.000000 0.000000
vn 1.000000 0.000000 0.000000
vn -0.000000 0.000000 1.000000
vn -0.000000 0.000000 1.000000
vn -1.000000 0.000000 0.000000
vn -1.000000 0.000000 0.000000
vn 1.000000 0.000000 0.000000
vn 1.000000 -0.000000 0.000000
vn 1.000000 -0.000000 0.000000
vn 1.000000 0.000000 0.000000
vn 1.000000 0.000000 0.000000
vn 1.000000 0.000000 0.000000
vn 1.000000 -0.000000 0.000000
vn 1.000000 -0.000000 0.000000
vn 1.000000 0.000000 0.000000
vn 1.000000 0.000000 0.000000
vn 1.000000 -0.000000 0.000000
vn 1.000000 -0.000000 0.000000
vn 1.000000 0.000000 0.000000
vn 1.000000 0.000000 0.000000
vn 1.000000 0.000000 0.000000
vn 1.000000 -0.000000 0.000000
vn 1.000000 -0.000000 -0.000000
vn 1.000000 -0.000000 -0.000000
vn 1.000000 0.000000 -0.000000
vn 1.000000 0.000000 -0.000000
vn 1.000000 0.000000 0.000000
vn 1.000000 -0.000000 0.000000
vn 1.000000 0.000000 0.000000
vn 1.000000 0.000000 0.000000
vn 1.000000 0.000000 0.000000
vn 1.000000 0.000000 0.000000
vn -1.000000 0.000000 0.000000
vn -1.000000 -0.000000 -0.000000
vn -1.000000 -0.000000 -0.000000
vn -1.000000 0.000000 0.000000
vn -1.000000 -0.000000 -0.000000
vn -1.000000 -0.000000 -0.000000
vn -1.000000 -0.000000 -0.000000
vn -1.000000 -0.000000 -0.000000
vn -1.000000 0.000000 0.000000
vn -1.000000 0.000000 0.000000
vn -1.000000 -0.000000 0.000000
vn -1.000000 -0.000000 0.000000
vn -1.000000 -0.000000 0.000000
vn -1.000000 -0.000000 0.000000
vn -1.000000 0.000000 0.000000
vn -1.000000 0.000000 0.000000
vn -1.000000 -0.000000 -0.000000
vn -1.000000 -0.000000 -0.000000
vn -1.000000 -0.000000 -0.000000
vn -1.000000 0.000000 -0.000000
vn -1.000000 0.000000 -0.000000
vn -1.000000 0.000000 -0.000000
vn -1.000000 0.000000 0.000000
vn -1.000000 0.000000 0.000000
vn -1.000000 0.000000 0.000000
vn -1.000000 0.000000 0.000000
vn 0.000000 -0.808433 0.588588
vn 0.000000 -0.950867 0.309600
vn 0.000000 -0.950867 0.309600
vn 0.000000 -0.808433 0.588588
vn -0.000000 -0.586983 0.809599
vn -0.000000 -0.586983 0.809599
vn 0.000000 -0.308433 0.951246
vn 0.000000 -0.308433 0.951246
vn 0.000000 -0.000000 1.000000
vn 0.000000 0.000000 1.000000
vn -0.000000 0.308434 0.951246
vn -0.000000 0.308434 0.951246
vn 0.000001 0.587561 0.809180
vn 0.000001 0.587713 0.809069
vn 0.000001 0.706368 0.707845
vn 0.000001 0.706368 0.707845
vn -0.000000 0.587649 -0.809116
vn 0.000000 0.706367 -0.707846
vn 0.000000 0.706367 -0.707846
vn -0.000000 0.587826 -0.808988
vn -0.000000 0.308434 -0.951246
vn -0.000000 0.308434 -0.951246
vn -0.000000 -0.000000 -1.000000
vn -0.000000 -0.000000 -1.000000
vn -0.000000 -0.308434 -0.951246
vn -0.000000 -0.308434 -0.951246
vn 0.000000 -0.586982 -0.809600
vn 0.000000 -0.586982 -0.809600
vn 0.000001 -0.808432 -0.588590
vn 0.000001 -0.808432 -0.588590
vn 0.000002 -0.950867 -0.309601
vn 0.000002 -0.950866 -0.309602
vn 0.000001 -1.000000 -0.000000
vn 0.000001 -1.000000 -0.000000
vn 0.000001 -0.950867 0.309600
vn 0.000002 -0.808433 0.588588
vn 0.000002 -0.808433 0.588588
vn 0.000001 -0.950867 0.309600
vn 0.000001 -0.586983 0.809600
vn 0.000001 -0.586983 0.809599
vn 0.000000 -0.308433 0.951246
vn 0.000000 -0.308433 0.951246
vn -0.000000 0.000000 1.000000
vn -0.000000 -0.000000 1.000000
vn -0.000000 0.308434 0.951246
vn -0.000000 0.308434 0.951246
vn -0.000001 0.587640 0.809122
vn -0.000001 0.587813 0.808997
vn -0.000001 0.706368 0.707845
vn -0.000001 0.706368 0.707845
vn 0.000001 0.706367 -0.707846
vn 0.000001 0.587132 -0.809491
vn 0.000001 0.587172 -0.809462
vn 0.000001 0.706367 -0.707846
vn 0.000001 0.308434 -0.951246
vn 0.000001 0.308434 -0.951246
vn 0.000000 -0.000000 -1.000000
vn 0.000000 0.000000 -1.000000
vn 0.000000 -0.308434 -0.951246
vn 0.000000 -0.308434 -0.951246
vn 0.000001 -0.586981 -0.809601
vn 0.000001 -0.586982 -0.809600
vn 0.000000 -0.808432 -0.588589
vn 0.000000 -0.808432 -0.588589
vn 0.000000 -0.950867 -0.309601
vn 0.000000 -0.950867 -0.309601
vn 0.000000 -1.000000 -0.000001
vn 0.000000 -1.000000 -0.000001
vn 1.000000 0.000000 -0.000000
vn 1.000000 0.000000 -0.000000
vn 1.000000 0.000000 -0.000000
vn 1.000000 0.000000 -0.000000
vn 1.000000 0.000000 -0.000000
vn 1.000000 0.000000 -0.000000
vn 1.000000 0.000000 -0.000000
vn 1.000000 0.000000 -0.000000
vn 1.000000 -0.000000 -0.000000
vn 1.000000 -0.000000 -0.000000
vn 1.000000 -0.000000 -0.000000
vn 1.000000 -0.000000 -0.000000
vn 0.999997 -0.002418 -0.000772
vn 0.999997 -0.002289 -0.000731
vn 0.999984 -0.001869 -0.005343
vn 0.999982 -0.005563 -0.002389
vn 0.999995 -0.002965 0.000745
vn 0.999962 -0.005462 0.006801
vn 0.999978 -0.006192 0.002296
vn 0.999996 -0.002628 0.000661
vn 1.000000 -0.000000 0.000000
vn 1.000000 -0.000000 0.000000
vn 1.000000 0.000000 0.000000
vn 1.000000 0.000000 0.000000
vn 1.000000 0.000000 0.000000
vn 1.000000 0.000000 0.000000
vn 1.000000 0.000000 0.000000
vn 1.000000 0.000000 0.000000
vn 1.000000 0.000000 0.000000
vn 1.000000 0.000000 0.000000
vn 1.000000 0.000000 0.000000
vn 1.000000 0.000000 0.000000
vn 1.000000 0.000000 -0.000000
vn 1.000000 0.000000 -0.000000
vn -1.000000 -0.000000 0.000000
vn -1.000000 -0.000000 -0.000000
vn -1.000000 -0.000000 -0.000000
vn -1.000000 -0.000000 0.000000
vn -1.000000 0.000000 -0.000000
vn -1.000000 0.000000 -0.000000
vn -1.000000 0.000000 -0.000000
vn -1.000000 0.000000 -0.000000
vn -1.000000 0.000000 -0.000000
vn -1.000000 0.000000 -0.000000
vn -1.000000 0.000000 -0.000000
vn -1.000000 0.000000 -0.000000
vn -0.999996 -0.002677 -0.000821
vn -0.999996 -0.002543 -0.000780
vn -0.999701 -0.020642 -0.013127
vn -0.999976 -0.006548 -0.002431
vn -0.999884 -0.012954 0.008000
vn -1.000000 -0.000600 0.000148
vn -1.000000 -0.000667 0.000165
vn -0.999999 -0.001435 0.000492
vn -1.000000 0.000001 -0.000005
vn -1.000000 0.000001 -0.000005
vn -1.000000 0.000000 0.000000
vn -1.000000 0.000000 0.000000
vn -1.000000 -0.000000 0.000000
vn -1.000000 -0.000000 0.000000
vn -1.000000 -0.000000 0.000000
vn -1.000000 -0.000000 0.000000
vn -1.000000 0.000000 0.000000
vn -1.000000 0.000000 0.000000
vn -1.000000 -0.000000 0.000000
vn -1.000000 -0.000000 0.000000
vn -1.000000 -0.000000 0.000000
vn -1.000000 -0.000000 -0.000000
vn 0.001036 0.665128 0.746729
vn 0.004010 0.538579 0.842566
vn 0.004000 0.538843 0.842397
vn 0.000996 0.664840 0.746985
vn 0.016685 0.306824 0.951620
vn 0.016490 0.309986 0.950598
vn 0.022494 0.005659 0.999731
vn 0.022493 0.005632 0.999731
vn 0.011552 -0.309031 0.950982
vn 0.011447 -0.311226 0.950267
vn 0.001918 -0.588597 0.808424
vn 0.001918 -0.588629 0.808401
vn -0.000000 -0.811052 0.584974
vn -0.000000 -0.811052 0.584974
vn -0.000000 -0.954655 0.297714
vn -0.000000 -0.954655 0.297714
vn -0.000000 -0.999937 0.011259
vn -0.000000 -0.999937 0.011259
vn -0.002157 -0.954868 -0.297023
vn -0.002157 -0.954858 -0.297055
vn -0.002260 -0.806690 -0.590971
vn -0.002292 -0.808135 -0.588993
vn 0.007951 -0.585743 -0.810458
vn 0.007680 -0.590020 -0.807352
vn 0.017596 -0.311635 -0.950039
vn 0.017563 -0.314595 -0.949064
vn 0.016297 -0.005262 -0.999853
vn 0.016287 -0.004675 -0.999856
vn 0.012646 0.313218 -0.949597
vn 0.012641 0.314362 -0.949219
vn 0.007320 0.553410 -0.832877
vn 0.007188 0.556056 -0.831114
vn -0.002066 0.690128 -0.723684
vn -0.002083 0.690092 -0.723718
vn 0.000001 0.000000 1.000000
vn 0.000001 -0.006382 0.999980
vn 0.000001 -0.006508 0.999979
vn 0.000001 0.000000 1.000000
vn 0.000000 -0.019863 0.999803
vn 0.000000 -0.019863 0.999803
vn -0.000978 0.021592 0.999766
vn -0.001014 0.023779 0.999717
vn -0.000000 -0.029212 -0.999573
vn 0.000000 -0.008350 -0.999965
vn 0.000000 -0.008341 -0.999965
vn -0.000000 -0.029212 -0.999573
vn 0.000000 0.000000 -1.000000
vn 0.000000 0.000000 -1.000000
vn -0.001080 0.021752 -0.999763
vn -0.001105 0.023574 -0.999722
vn -0.000000 -0.007713 -0.999970
vn -0.000000 0.000000 -1.000000
vn -0.000000 0.000000 -1.000000
vn -0.000000 -0.007919 -0.999969
vn -0.000000 -0.029212 -0.999573
vn -0.000000 -0.029212 -0.999573
vn -0.000000 -0.010002 -0.999950
vn -0.000000 -0.000000 -1.000000
vn -0.000000 -0.000000 -1.000000
vn -0.000000 -0.010233 -0.999948
vn -0.000001 -0.005060 0.999987
vn -0.000000 -0.019863 0.999803
vn -0.000000 -0.019863 0.999803
vn -0.000001 -0.005230 0.999986
vn -0.000001 0.000000 1.000000
vn -0.000001 0.000000 1.000000
vn 0.000057 -0.006373 0.999980
vn 0.000055 -0.006849 0.999977
vn 0.000079 -0.000061 1.000000
vn 0.000079 -0.000061 1.000000
vn 0.999905 -0.006768 -0.012033
vn 0.999793 0.018053 0.009428
vn -0.998503 -0.047692 -0.026777
vn -0.999877 -0.011451 -0.010736
vn 0.999662 0.025849 0.002907
vn 0.999663 0.025778 0.003049
vn -0.999472 -0.031534 -0.007836
vn -0.999460 -0.031849 -0.008147
vn 0.999627 0.027308 -0.000046
vn 0.999627 0.027308 -0.000046
vn -0.999721 -0.023613 0.000000
vn -0.999721 -0.023613 0.000000
vn 0.999975 0.006297 -0.003075
vn 0.999896 -0.008336 0.011789
vn -0.999995 -0.002204 0.002428
vn -0.998494 -0.047065 0.028181
vn 0.999985 -0.005343 -0.001340
vn 0.999954 -0.009588 -0.000132
vn 0.999954 -0.009588 -0.000132
vn 0.999986 -0.005028 -0.001430
vn -0.999945 -0.010531 0.000000
vn -0.999724 -0.021928 0.008459
vn -0.999706 -0.022560 0.008928
vn -0.999945 -0.010531 0.000000
s 1
g pCylinder2
usemtl lambert7SG
f 1/99/1 2/100/2 11/101/3 9/102/4
s 2
f 6/141/5 5/142/6 10/143/7 12/144/8
s 1
f 3/135/9 4/131/10 15/134/11 13/137/12
s 2
f 8/173/13 7/177/14 14/179/15 16/175/16
s 5
f 59/1/17 60/2/18 62/3/19 61/4/20
f 60/2/18 59/1/17 79/5/21 80/6/22
f 61/4/20 62/3/19 64/7/23 63/8/24
f 63/275/24 64/276/23 66/277/25 65/278/26
f 65/278/26 66/277/25 68/279/27 67/280/28
f 67/280/28 68/279/27 104/283/29 103/284/30
f 69/291/31 70/292/32 72/293/33 71/294/34
f 70/292/32 69/291/31 124/295/35 123/296/36
f 71/294/34 72/293/33 74/297/37 73/298/38
f 73/24/38 74/25/37 76/20/39 75/19/40
f 75/19/40 76/20/39 78/13/41 77/12/42
f 77/12/42 78/13/41 80/6/22 79/5/21
s 7
f 81/10/43 82/15/44 102/17/45 101/11/46
f 82/15/44 81/10/43 83/9/47 84/16/48
f 84/16/48 83/9/47 85/14/49 86/21/50
f 86/286/50 85/282/49 87/281/51 88/287/52
f 88/287/52 87/281/51 89/285/53 90/289/54
f 90/289/54 89/285/53 106/288/55 105/290/56
f 91/300/57 92/303/58 126/305/59 125/301/60
f 92/303/58 91/300/57 93/299/61 94/304/62
f 94/304/62 93/299/61 95/302/63 96/306/64
f 96/28/64 95/27/63 97/23/65 98/26/66
f 98/26/66 97/23/65 99/18/67 100/22/68
f 100/22/68 99/18/67 101/11/46 102/17/45
s 9
f 107/307/69 108/308/70 110/309/71 109/310/72
f 108/308/70 107/307/69 141/311/73 142/312/74
s 10
f 111/331/75 112/332/76 176/333/77 175/334/78
f 112/332/76 111/331/75 114/335/79 113/336/80
s 11
f 115/355/81 116/356/82 144/357/83 143/358/84
f 116/356/82 115/355/81 118/359/85 117/360/86
s 12
f 119/379/87 120/380/88 122/381/89 121/382/90
f 120/380/88 119/379/87 177/383/91 178/384/92
s 13
f 127/29/93 128/30/94 130/31/95 129/32/96
f 128/30/94 127/29/93 159/33/97 160/34/98
f 129/32/96 130/31/95 132/37/99 131/38/100
f 131/327/100 132/328/99 134/325/101 133/324/102
f 133/324/102 134/325/101 136/322/103 135/321/104
f 135/321/104 136/322/103 138/319/105 137/318/106
f 137/318/106 138/319/105 140/316/107 139/315/108
f 139/315/108 140/316/107 142/312/109 141/311/110
f 143/358/111 144/357/112 146/363/113 145/364/114
f 145/364/114 146/363/113 148/367/115 147/368/116
f 147/368/116 148/367/115 150/370/117 149/371/118
f 149/371/118 150/370/117 152/373/119 151/374/120
f 151/374/120 152/373/119 154/376/121 153/377/122
f 153/46/122 154/47/121 156/44/123 155/43/124
f 155/43/124 156/44/123 158/40/125 157/39/126
f 157/39/126 158/40/125 160/34/98 159/33/97
s 15
f 161/50/127 162/51/128 194/52/129 193/53/130
f 162/51/128 161/50/127 163/54/131 164/55/132
f 164/55/132 163/54/131 165/60/133 166/61/134
f 166/352/134 165/353/133 167/350/135 168/349/136
f 168/349/136 167/350/135 169/347/137 170/346/138
f 170/346/138 169/347/137 171/344/139 172/343/140
f 172/343/140 171/344/139 173/340/141 174/339/142
f 174/339/142 173/340/141 175/334/143 176/333/144
f 178/384/145 177/383/146 179/387/147 180/388/148
f 180/388/148 179/387/147 181/390/149 182/391/150
f 182/391/150 181/390/149 183/393/151 184/394/152
f 184/394/152 183/393/151 185/396/153 186/397/154
f 186/397/154 185/396/153 187/399/155 188/400/156
f 188/68/156 187/69/155 189/65/157 190/64/158
f 190/64/158 189/65/157 191/59/159 192/58/160
f 192/58/160 191/59/159 193/53/130 194/52/129
s 17
f 195/71/161 196/72/162 198/73/163 197/74/164
f 196/72/162 195/71/161 227/75/165 228/76/166
f 197/74/164 198/73/163 200/79/167 199/80/168
f 199/403/168 200/404/167 202/405/169 201/406/170
f 201/406/170 202/405/169 204/409/171 203/410/172
f 203/410/172 204/409/171 206/414/173 205/415/174
f 205/415/174 206/414/173 208/418/175 207/419/176
f 207/419/176 208/418/175 210/422/177 209/423/178
f 209/423/178 210/422/177 265/426/179 264/427/180
f 211/450/181 212/449/182 282/455/183 281/456/184
f 212/449/182 211/450/181 214/446/185 213/445/186
f 213/445/186 214/446/185 216/447/187 215/448/188
f 215/448/188 216/447/187 218/453/189 217/454/190
f 217/454/190 218/453/189 220/461/191 219/462/192
f 219/462/192 220/461/191 222/93/193 221/92/194
f 221/92/194 222/93/193 224/88/195 223/87/196
f 223/87/196 224/88/195 226/82/197 225/81/198
f 225/81/198 226/82/197 228/76/166 227/75/165
s 19
f 229/84/199 230/77/200 262/83/201 261/90/202
f 230/77/200 229/84/199 231/85/203 232/78/204
f 232/78/204 231/85/203 233/91/205 234/86/206
f 234/407/206 233/411/205 235/412/207 236/408/208
f 236/408/208 235/412/207 237/416/209 238/413/210
f 238/413/210 237/416/209 239/420/211 240/417/212
f 240/417/212 239/420/211 241/424/213 242/421/214
f 242/421/214 241/424/213 244/428/215 243/425/216
f 243/425/216 244/428/215 270/431/217 269/429/218
f 245/465/219 246/457/220 288/464/221 287/471/222
f 246/457/220 245/465/219 247/458/223 248/451/224
f 248/451/224 247/458/223 249/459/225 250/452/226
f 250/452/226 249/459/225 251/466/227 252/460/228
f 252/460/228 251/466/227 253/472/229 254/467/230
f 254/467/230 253/472/229 255/98/231 256/96/232
f 256/96/232 255/98/231 257/97/233 258/94/234
f 258/94/234 257/97/233 259/95/235 260/89/236
f 260/89/236 259/95/235 261/90/202 262/83/201
s 21
f 263/430/237 265/426/238 269/429/239 268/432/240
s 17
f 264/427/180 263/430/241 267/433/242 266/434/243
f 266/434/243 267/433/242 274/436/244 273/437/245
s 19
f 268/432/246 270/431/217 272/438/247 271/435/248
f 271/435/248 272/438/247 276/442/249 275/439/250
s 17
f 273/437/245 274/436/244 278/440/251 277/441/252
s 19
f 275/439/250 276/442/249 280/444/253 279/443/254
s 21
f 281/456/255 283/463/256 286/470/257 288/464/258
s 17
f 283/463/259 282/455/183 285/468/260 284/469/261
f 284/469/261 285/468/260 293/473/262 294/474/263
s 19
f 287/471/222 286/470/264 290/475/265 289/479/266
f 289/479/266 290/475/265 297/478/267 298/481/268
s 17
f 292/476/269 291/477/270 294/474/263 293/473/262
s 19
f 296/480/271 295/482/272 298/481/268 297/478/267
s 23
f 59/1/273 61/4/274 83/9/275 81/10/276
f 61/4/274 63/8/277 85/14/278 83/9/275
f 63/275/277 65/278/279 87/281/280 85/282/278
f 65/278/279 67/280/281 89/285/282 87/281/280
f 69/291/283 71/294/284 93/299/285 91/300/286
f 71/294/284 73/298/287 95/302/288 93/299/285
f 73/24/287 75/19/289 97/23/290 95/27/288
f 75/19/289 77/12/291 99/18/292 97/23/290
f 77/12/291 79/5/293 101/11/294 99/18/292
f 79/5/293 59/1/273 81/10/276 101/11/294
s 1
f 68/107/295 1/99/1 9/102/4 104/108/296
s 2
f 5/142/6 90/147/297 105/148/298 10/143/7
s 23
f 89/285/282 67/280/281 103/284/299 106/288/300
s 1
f 2/100/2 107/105/301 109/106/302 11/101/3
s 2
f 111/149/303 6/141/5 12/144/8 114/150/304
s 1
f 115/138/305 3/135/9 13/137/12 118/140/306
s 2
f 7/177/14 119/180/307 121/182/308 14/179/15
s 1
f 4/131/10 70/129/309 123/133/310 15/134/11
s 23
f 69/291/283 91/300/286 125/301/311 124/295/312
s 2
f 92/171/313 8/173/13 16/175/16 126/176/314
s 1
f 62/115/315 60/117/316 127/118/317 129/116/318
f 64/113/319 62/115/315 129/116/318 131/114/320
f 66/111/321 64/113/319 131/114/320 133/112/322
f 68/107/295 66/111/321 133/112/322 135/109/323
f 1/99/1 68/107/295 135/109/323 137/103/324
f 2/100/2 1/99/1 137/103/324 139/104/325
f 107/105/301 2/100/2 139/104/325 141/110/326
f 3/135/9 115/138/305 143/139/327 145/136/328
f 4/131/10 3/135/9 145/136/328 147/132/329
f 70/129/309 4/131/10 147/132/329 149/130/330
f 72/127/331 70/129/309 149/130/330 151/128/332
f 74/125/333 72/127/331 151/128/332 153/126/334
f 76/123/335 74/125/333 153/126/334 155/124/336
f 78/121/337 76/123/335 155/124/336 157/122/338
f 80/119/339 78/121/337 157/122/338 159/120/340
f 60/117/316 80/119/339 159/120/340 127/118/317
s 2
f 82/159/341 84/157/342 163/158/343 161/160/344
f 84/157/342 86/155/345 165/156/346 163/158/343
f 86/155/345 88/153/347 167/154/348 165/156/346
f 88/153/347 90/147/297 169/152/349 167/154/348
f 90/147/297 5/142/6 171/146/350 169/152/349
f 5/142/6 6/141/5 173/145/351 171/146/350
f 6/141/5 111/149/303 175/151/352 173/145/351
f 119/180/307 7/177/14 179/178/353 177/181/354
f 7/177/14 8/173/13 181/174/355 179/178/353
f 8/173/13 92/171/313 183/172/356 181/174/355
f 92/171/313 94/169/357 185/170/358 183/172/356
f 94/169/357 96/167/359 187/168/360 185/170/358
f 96/167/359 98/165/361 189/166/362 187/168/360
f 98/165/361 100/163/363 191/164/364 189/166/362
f 100/163/363 102/161/365 193/162/366 191/164/364
f 102/161/365 82/159/341 161/160/344 193/162/366
s 27
f 130/31/367 128/30/368 17/35/369 18/36/370
f 132/37/371 130/31/367 18/36/370 19/42/372
f 134/325/373 132/328/371 19/330/372 20/329/374
f 136/322/375 134/325/373 20/329/374 21/326/376
f 138/319/377 136/322/375 21/326/376 22/323/378
f 140/316/379 138/319/377 22/323/378 23/320/380
f 142/312/381 140/316/379 23/320/380 24/317/382
f 146/363/383 144/357/384 25/362/385 26/366/386
f 148/367/387 146/363/383 26/366/386 27/369/388
f 150/370/389 148/367/387 27/369/388 28/372/390
f 152/373/391 150/370/389 28/372/390 29/375/392
f 154/376/393 152/373/391 29/375/392 30/378/394
f 156/44/395 154/47/393 30/49/394 31/48/396
f 158/40/397 156/44/395 31/48/396 32/45/398
f 160/34/399 158/40/397 32/45/398 33/41/400
f 128/30/368 160/34/399 33/41/400 17/35/369
s 29
f 162/51/401 164/55/402 35/62/403 34/56/404
f 164/55/402 166/61/405 36/66/406 35/62/403
f 166/352/405 168/349/407 37/351/408 36/354/406
f 168/349/407 170/346/409 38/348/410 37/351/408
f 170/346/409 172/343/411 39/345/412 38/348/410
f 172/343/411 174/339/413 40/342/414 39/345/412
f 174/339/413 176/333/415 41/338/416 40/342/414
f 178/384/417 180/388/418 43/392/419 42/389/420
f 180/388/418 182/391/421 44/395/422 43/392/419
f 182/391/421 184/394/423 45/398/424 44/395/422
f 184/394/423 186/397/425 46/401/426 45/398/424
f 186/397/425 188/400/427 47/402/428 46/401/426
f 188/68/427 190/64/429 48/67/430 47/70/428
f 190/64/429 192/58/431 49/63/432 48/67/430
f 192/58/431 194/52/433 50/57/434 49/63/432
f 194/52/433 162/51/401 34/56/404 50/57/434
s 31
f 18/183/435 17/184/436 195/185/437 197/186/438
f 19/189/439 18/183/435 197/186/438 199/190/440
f 20/193/441 19/189/439 199/190/440 201/194/442
f 21/197/443 20/193/441 201/194/442 203/198/444
f 22/201/445 21/197/443 203/198/444 205/202/446
f 23/205/447 22/201/445 205/202/446 207/206/448
f 24/209/449 23/205/447 207/206/448 209/210/450
f 26/215/451 25/219/452 212/220/453 213/216/454
f 27/211/455 26/215/451 213/216/454 215/212/456
f 28/207/457 27/211/455 215/212/456 217/208/458
f 29/203/459 28/207/457 217/208/458 219/204/460
f 30/199/461 29/203/459 219/204/460 221/200/462
f 31/195/463 30/199/461 221/200/462 223/196/464
f 32/191/465 31/195/463 223/196/464 225/192/466
f 33/187/467 32/191/465 225/192/466 227/188/468
f 17/184/436 33/187/467 227/188/468 195/185/437
s 33
f 34/229/469 35/230/470 231/231/471 229/232/472
f 35/230/470 36/233/473 233/234/474 231/231/471
f 36/233/473 37/237/475 235/238/476 233/234/474
f 37/237/475 38/241/477 237/242/478 235/238/476
f 38/241/477 39/245/479 239/246/480 237/242/478
f 39/245/479 40/249/481 241/250/482 239/246/480
f 40/249/481 41/253/483 244/254/484 241/250/482
f 42/267/485 43/263/486 247/264/487 245/268/488
f 43/263/486 44/259/489 249/260/490 247/264/487
f 44/259/489 45/255/491 251/256/492 249/260/490
f 45/255/491 46/251/493 253/252/494 251/256/492
f 46/251/493 47/247/495 255/248/496 253/252/494
f 47/247/495 48/243/497 257/244/498 255/248/496
f 48/243/497 49/239/499 259/240/500 257/244/498
f 49/239/499 50/235/501 261/236/502 259/240/500
f 50/235/501 34/229/469 229/232/472 261/236/502
s 21
f 210/422/503 208/418/504 242/421/505 243/425/506
f 208/418/504 206/414/507 240/417/508 242/421/505
f 206/414/507 204/409/509 238/413/510 240/417/508
f 204/409/509 202/405/511 236/408/512 238/413/510
f 202/405/511 200/404/513 234/407/514 236/408/512
f 200/79/513 198/73/515 232/78/516 234/86/514
f 198/73/515 196/72/517 230/77/518 232/78/516
f 196/72/517 228/76/519 262/83/520 230/77/518
f 228/76/519 226/82/521 260/89/522 262/83/520
f 226/82/521 224/88/523 258/94/524 260/89/522
f 224/88/523 222/93/525 256/96/526 258/94/524
f 222/93/525 220/461/527 254/467/528 256/96/526
f 220/461/527 218/453/529 252/460/530 254/467/528
f 218/453/529 216/447/531 250/452/532 252/460/530
f 216/447/531 214/446/533 248/451/534 250/452/532
f 214/446/533 211/450/535 246/457/536 248/451/534
s 36
f 110/309/537 108/308/538 57/313/539 58/314/540
f 108/308/538 142/312/541 24/317/542 57/313/539
s 21
f 267/433/543 263/430/237 268/432/240 271/435/544
s 37
f 144/357/545 116/356/546 54/361/547 25/362/548
f 116/356/546 117/360/549 53/365/550 54/361/547
s 21
f 283/463/256 284/469/551 290/475/552 286/470/257
s 38
f 52/385/553 51/386/554 122/381/555 120/380/556
f 42/389/557 52/385/553 120/380/556 178/384/558
s 21
f 294/474/559 291/477/560 296/480/561 297/478/562
f 284/469/551 294/474/559 297/478/562 290/475/552
s 39
f 55/337/563 41/338/564 176/333/565 112/332/566
f 56/341/567 55/337/563 112/332/566 113/336/568
s 21
f 274/436/569 267/433/543 271/435/544 275/439/570
f 278/440/571 274/436/569 275/439/570 279/443/572
s 31
f 24/209/449 209/210/450 264/213/573 266/214/574
s 21
f 210/422/503 243/425/506 269/429/239 265/426/238
s 33
f 244/254/484 41/253/483 272/257/575 270/258/576
s 31
f 57/217/577 24/209/449 266/214/574 273/218/578
s 33
f 41/253/483 55/261/579 276/262/580 272/257/575
s 31
f 58/221/581 57/217/577 273/218/578 277/222/582
s 33
f 55/261/579 56/265/583 280/266/584 276/262/580
s 31
f 212/220/453 25/219/452 285/223/585 282/224/586
s 33
f 42/267/485 245/268/488 287/269/587 289/270/588
s 21
f 246/457/536 211/450/535 281/456/255 288/464/258
s 31
f 54/225/589 53/227/590 292/228/591 293/226/592
s 33
f 51/273/593 52/271/594 298/272/595 295/274/596
s 31
f 25/219/452 54/225/589 293/226/592 285/223/585
s 33
f 52/271/594 42/267/485 289/270/588 298/272/595
s 17
f 263/430/241 264/427/180 265/426/179
s 19
f 268/432/246 269/429/218 270/431/217
s 17
f 281/456/184 282/455/183 283/463/259
s 19
f 286/470/264 287/471/222 288/464/221
