# This file uses centimeters as units for non-parametric coordinates.

mtllib M_Godray.mtl
g default
v -0.060580 -0.611770 0.500000
v -0.041992 -0.611770 0.500000
v -0.060580 0.611770 0.500000
v -0.041992 0.611770 0.500000
v -0.060580 0.611770 -0.500000
v -0.041992 0.611770 -0.500000
v -0.060580 -0.611770 -0.500000
v -0.041992 -0.611770 -0.500000
vt 0.009238 0.986699
vt 0.987984 0.015189
vt 0.012447 0.982065
vt 0.016778 0.010859
vt 0.982044 0.991037
vt 0.986381 0.018233
vt 0.983653 0.986395
vt 0.013576 0.013895
vn 1.000000 0.000000 0.000000
vn 1.000000 0.000000 0.000000
vn 1.000000 0.000000 0.000000
vn 1.000000 0.000000 0.000000
vn -1.000000 0.000000 0.000000
vn -1.000000 0.000000 0.000000
vn -1.000000 0.000000 0.000000
vn -1.000000 0.000000 0.000000
s off
g pCube1
usemtl lambert2SG
f 2/7/1 8/3/2 6/4/3 4/2/4
f 7/5/5 1/1/6 3/8/7 5/6/8
