# This file uses centimeters as units for non-parametric coordinates.

mtllib M_Ivy2.mtl
g default
v -0.346175 1.409377 -0.070495
v 0.486632 1.179770 0.014497
v -0.543661 0.601284 -0.318479
v 0.289148 0.371677 -0.233487
v -0.470228 -0.465504 0.066086
v 0.508144 -0.455848 0.171169
v -0.436637 -1.422947 -0.158683
v 0.541736 -1.413292 -0.053600
v -0.786449 1.948942 -0.094409
v 0.077737 1.767857 -0.136884
v -0.969293 1.084836 -0.130495
v -0.105106 0.903749 -0.172970
v -0.230613 1.832860 -0.161931
v 0.370238 1.969135 -0.083721
v -0.076760 1.259836 -0.345462
v 0.524091 1.396111 -0.267252
v -0.170837 1.718987 -0.108412
v 0.672351 1.984402 -0.110142
v 0.093234 0.880685 -0.013910
v 0.936423 1.146100 -0.015640
v -0.225837 -0.199696 -0.128068
v 0.454295 0.148291 -0.062720
v 0.128072 -0.872091 -0.230911
v 0.808204 -0.524104 -0.165563
v -0.876207 0.947906 0.008597
v 0.189507 0.790970 -0.040468
v -1.035277 -0.117581 -0.038467
v 0.030437 -0.274519 -0.087531
v 0.243172 1.646953 0.000193
v 1.158544 1.568992 -0.032108
v 0.159468 0.763429 -0.239404
v 1.074840 0.685468 -0.271705
v -0.402294 0.623160 -0.035478
v 0.671582 0.919198 0.034633
v -0.100832 -0.377716 -0.426798
v 0.973045 -0.081677 -0.356687
v -1.095778 1.209383 -0.057048
v -0.181932 1.306072 -0.080786
v -1.001158 0.297748 -0.127724
v -0.087311 0.394437 -0.151462
v -0.112877 1.366684 -0.050384
v 0.890254 1.562778 -0.079395
v 0.081380 0.364428 -0.107957
v 1.084513 0.560522 -0.136968
v -0.568961 -0.062141 0.084182
v 0.340714 -0.257795 0.039220
v -0.766467 -0.971743 0.046391
v 0.143209 -1.167397 0.001429
v -0.372176 0.294156 -0.053686
v 0.680646 0.526417 -0.073769
v -0.139049 -0.754752 0.037014
v 0.913773 -0.522491 0.016930
v -0.794441 0.251973 0.067227
v 0.321925 0.219364 -0.024806
v -0.853338 -0.815403 -0.268998
v 0.263028 -0.848012 -0.361031
vt 0.052023 0.414900
vt 0.173589 0.414900
vt 0.173589 0.536467
vt 0.052023 0.536467
vt 0.052023 0.414900
vt 0.173589 0.414900
vt 0.173589 0.536467
vt 0.052023 0.536467
vt 0.196051 0.414900
vt 0.317618 0.414900
vt 0.317618 0.536467
vt 0.196051 0.536467
vt 0.052023 0.414900
vt 0.173589 0.414900
vt 0.173589 0.536467
vt 0.052023 0.536467
vt 0.196051 0.414900
vt 0.317618 0.414900
vt 0.317618 0.536467
vt 0.196051 0.536467
vt 0.052023 0.414900
vt 0.173589 0.414900
vt 0.173589 0.536467
vt 0.052023 0.536467
vt 0.196051 0.414900
vt 0.317618 0.414900
vt 0.317618 0.536467
vt 0.196051 0.536467
vt 0.052023 0.414900
vt 0.173589 0.414900
vt 0.173589 0.536467
vt 0.052023 0.536467
vt 0.052023 0.414900
vt 0.173589 0.414900
vt 0.173589 0.536467
vt 0.052023 0.536467
vt 0.052023 0.414900
vt 0.173589 0.414900
vt 0.173589 0.536467
vt 0.052023 0.536467
vt 0.196051 0.414900
vt 0.317618 0.414900
vt 0.317618 0.536467
vt 0.196051 0.536467
vt 0.196051 0.414900
vt 0.317618 0.414900
vt 0.317618 0.536467
vt 0.196051 0.536467
vt 0.196051 0.414900
vt 0.317618 0.414900
vt 0.317618 0.536467
vt 0.196051 0.536467
vt 0.052023 0.414900
vt 0.173589 0.414900
vt 0.173589 0.536467
vt 0.052023 0.536467
vn 0.166713 0.251806 -0.953310
vn 0.166713 0.251806 -0.953310
vn 0.166713 0.251806 -0.953310
vn 0.166713 0.251806 -0.953310
vn 0.101659 0.230741 -0.967690
vn 0.101659 0.230741 -0.967690
vn 0.101659 0.230741 -0.967690
vn 0.101659 0.230741 -0.967690
vn -0.038607 0.049847 -0.998011
vn -0.038607 0.049847 -0.998011
vn -0.038607 0.049847 -0.998011
vn -0.038607 0.049847 -0.998011
vn 0.051349 0.317096 -0.947002
vn 0.051349 0.317096 -0.947002
vn 0.051349 0.317096 -0.947002
vn 0.051349 0.317096 -0.947002
vn 0.030243 -0.102557 -0.994267
vn 0.030243 -0.102557 -0.994267
vn 0.030243 -0.102557 -0.994267
vn 0.030243 -0.102557 -0.994267
vn 0.013865 0.158305 -0.987293
vn 0.013865 0.158305 -0.987293
vn 0.013865 0.158305 -0.987293
vn 0.013865 0.158305 -0.987293
vn -0.038607 0.049847 -0.998011
vn -0.038607 0.049847 -0.998010
vn -0.038607 0.049847 -0.998010
vn -0.038607 0.049847 -0.998011
vn -0.011668 0.262742 -0.964796
vn -0.011668 0.262742 -0.964796
vn -0.011668 0.262742 -0.964796
vn -0.011668 0.262742 -0.964796
vn -0.036662 0.354293 -0.934416
vn -0.036662 0.354293 -0.934416
vn -0.036662 0.354293 -0.934416
vn -0.036662 0.354293 -0.934416
vn -0.033695 0.073774 -0.996706
vn -0.033695 0.073774 -0.996706
vn -0.033695 0.073774 -0.996706
vn -0.033695 0.073774 -0.996706
vn -0.038607 0.049847 -0.998010
vn -0.038607 0.049847 -0.998011
vn -0.038607 0.049847 -0.998011
vn -0.038607 0.049847 -0.998011
vn -0.038607 0.049847 -0.998011
vn -0.038607 0.049847 -0.998011
vn -0.038607 0.049847 -0.998010
vn -0.038607 0.049847 -0.998011
vn -0.000000 -0.086148 -0.996282
vn -0.000000 -0.086148 -0.996282
vn -0.000000 -0.086148 -0.996282
vn -0.000000 -0.086148 -0.996282
vn -0.069493 0.303208 -0.950387
vn -0.069493 0.303208 -0.950387
vn -0.069493 0.303208 -0.950387
vn -0.069493 0.303208 -0.950387
s off
g polySurface67
usemtl lambert4SG
f 1/1/1 2/2/2 4/3/3 3/4/4
f 5/5/5 6/6/6 8/7/7 7/8/8
f 9/9/9 10/10/10 12/11/11 11/12/12
f 13/13/13 14/14/14 16/15/15 15/16/16
f 17/17/17 18/18/18 20/19/19 19/20/20
f 21/21/21 22/22/22 24/23/23 23/24/24
f 25/25/25 26/26/26 28/27/27 27/28/28
f 29/29/29 30/30/30 32/31/31 31/32/32
f 33/33/33 34/34/34 36/35/35 35/36/36
f 37/37/37 38/38/38 40/39/39 39/40/40
f 41/41/41 42/42/42 44/43/43 43/44/44
f 45/45/45 46/46/46 48/47/47 47/48/48
f 49/49/49 50/50/50 52/51/51 51/52/52
f 53/53/53 54/54/54 56/55/55 55/56/56
