# This file uses centimeters as units for non-parametric coordinates.

mtllib M_Ivy1.mtl
g default
v -0.388219 1.237821 -0.087819
v 0.444589 1.012732 0.008501
v -0.585704 0.418382 -0.295256
v 0.247104 0.193292 -0.198937
v -1.473357 1.578205 -0.182009
v -0.566290 1.696149 -0.090650
v -1.342085 0.679754 -0.325463
v -0.435019 0.797697 -0.234105
v 0.436219 0.039826 -0.031107
v 1.007550 0.458256 -0.003666
v 0.855514 -0.529653 -0.077371
v 1.426845 -0.111224 -0.049929
v -0.479780 -0.666327 0.140698
v 0.435768 -0.652406 0.238462
v -0.448346 -1.571652 -0.024762
v 0.467201 -1.557731 0.073002
v 0.523082 1.728466 -0.192630
v 1.386127 1.741590 -0.100473
v 0.552713 0.875058 -0.348602
v 1.415758 0.888181 -0.256445
v -0.828493 1.775526 -0.138571
v 0.035694 1.592550 -0.171977
v -1.011336 0.910695 -0.131584
v -0.147149 0.727718 -0.164989
v -0.272657 1.656225 -0.200229
v 0.328195 1.796225 -0.128902
v -0.118804 1.074773 -0.354998
v 0.482048 1.214774 -0.283671
v -0.212880 1.545158 -0.141106
v 0.630308 1.810157 -0.156050
v 0.051191 0.712602 -0.004978
v 0.894380 0.977601 -0.019922
v 0.928166 1.381953 -0.096228
v 1.672842 1.220154 -0.125014
v 0.766485 0.636722 -0.090048
v 1.511161 0.474922 -0.118834
v -0.092405 -0.372123 -0.065197
v 0.587728 -0.021314 -0.017258
v 0.261504 -1.048805 -0.134431
v 0.941637 -0.697997 -0.086492
v 1.147527 1.627015 -0.151766
v 1.895808 1.491786 -0.077939
v 1.033832 0.895296 -0.339705
v 1.782113 0.760066 -0.265878
v -0.918251 0.780860 0.014153
v 0.147463 0.621675 -0.027036
v -1.077321 -0.285649 0.020204
v -0.011607 -0.444835 -0.020985
v -1.811256 1.662145 -0.134591
v -1.066580 1.500345 -0.163377
v -1.972937 0.916913 -0.128411
v -1.228261 0.755113 -0.157197
v 0.444858 1.116341 0.020553
v 1.360230 1.036869 -0.007826
v 0.361154 0.221983 -0.174752
v 1.276526 0.142510 -0.203130
v -0.285812 0.454323 -0.013696
v 0.788064 0.753485 0.041587
v 0.015650 -0.564797 -0.354692
v 1.089527 -0.265635 -0.299409
v -1.179208 0.671972 0.038961
v -0.397434 0.373966 -0.341892
v -1.510942 -0.185277 0.028787
v -0.729167 -0.483284 -0.352066
v -1.137822 1.038744 -0.064431
v -0.223976 1.134132 -0.092953
v -1.043201 0.124721 -0.089624
v -0.129355 0.220108 -0.118147
v -0.154921 1.196182 -0.065607
v 0.848211 1.390588 -0.104347
v 0.039337 0.192303 -0.073202
v 1.042469 0.386709 -0.111942
v -1.385778 1.345447 -0.074967
v -0.476103 1.147798 -0.110131
v -1.583284 0.435092 -0.067417
v -0.673608 0.237443 -0.102581
v -0.611005 -0.224170 0.139940
v 0.298671 -0.421820 0.104776
v -0.808510 -1.134525 0.147490
v 0.101166 -1.332175 0.112326
v -0.186877 -0.013131 0.003390
v 0.865946 0.217841 -0.028234
v 0.046250 -1.056221 0.146207
v 1.099073 -0.825249 0.114582
v -0.998310 0.147929 0.127085
v 0.236115 0.106848 0.027242
v -1.063435 -1.049372 -0.185465
v 0.170990 -1.090454 -0.285308
vt 0.052023 0.414900
vt 0.173589 0.414900
vt 0.173589 0.536467
vt 0.052023 0.536467
vt 0.052023 0.414900
vt 0.173589 0.414900
vt 0.173589 0.536467
vt 0.052023 0.536467
vt 0.052023 0.414900
vt 0.173589 0.414900
vt 0.173589 0.536467
vt 0.052023 0.536467
vt 0.052023 0.414900
vt 0.173589 0.414900
vt 0.173589 0.536467
vt 0.052023 0.536467
vt 0.052023 0.414900
vt 0.173589 0.414900
vt 0.173589 0.536467
vt 0.052023 0.536467
vt 0.196051 0.414900
vt 0.317618 0.414900
vt 0.317618 0.536467
vt 0.196051 0.536467
vt 0.052023 0.414900
vt 0.173589 0.414900
vt 0.173589 0.536467
vt 0.052023 0.536467
vt 0.196051 0.414900
vt 0.317618 0.414900
vt 0.317618 0.536467
vt 0.196051 0.536467
vt 0.196051 0.414900
vt 0.317618 0.414900
vt 0.317618 0.536467
vt 0.196051 0.536467
vt 0.052023 0.414900
vt 0.173589 0.414900
vt 0.173589 0.536467
vt 0.052023 0.536467
vt 0.052023 0.414900
vt 0.173589 0.414900
vt 0.173589 0.536467
vt 0.052023 0.536467
vt 0.196051 0.414900
vt 0.317618 0.414900
vt 0.317618 0.536467
vt 0.196051 0.536467
vt 0.196051 0.414900
vt 0.317618 0.414900
vt 0.317618 0.536467
vt 0.196051 0.536467
vt 0.052023 0.414900
vt 0.173589 0.414900
vt 0.173589 0.536467
vt 0.052023 0.536467
vt 0.052023 0.414900
vt 0.173589 0.414900
vt 0.173589 0.536467
vt 0.052023 0.536467
vt 0.052023 0.414900
vt 0.173589 0.414900
vt 0.173589 0.536467
vt 0.052023 0.536467
vt 0.052023 0.414900
vt 0.173589 0.414900
vt 0.173589 0.536467
vt 0.052023 0.536467
vt 0.196051 0.414900
vt 0.317618 0.414900
vt 0.317618 0.536467
vt 0.196051 0.536467
vt 0.196051 0.414900
vt 0.317618 0.414900
vt 0.317618 0.536467
vt 0.196051 0.536467
vt 0.196051 0.414900
vt 0.317618 0.414900
vt 0.317618 0.536467
vt 0.196051 0.536467
vt 0.196051 0.414900
vt 0.317618 0.414900
vt 0.317618 0.536467
vt 0.196051 0.536467
vt 0.052023 0.414900
vt 0.173589 0.414900
vt 0.173589 0.536467
vt 0.052023 0.536467
vn 0.166713 0.204023 -0.964666
vn 0.166713 0.204023 -0.964666
vn 0.166713 0.204023 -0.964667
vn 0.166713 0.204023 -0.964666
vn 0.077112 0.168178 -0.982736
vn 0.077112 0.168178 -0.982736
vn 0.077112 0.168178 -0.982736
vn 0.077112 0.168178 -0.982736
vn -0.007428 0.075535 -0.997115
vn -0.007428 0.075535 -0.997115
vn -0.007428 0.075535 -0.997115
vn -0.007428 0.075535 -0.997115
vn 0.101659 0.182268 -0.977979
vn 0.101659 0.182268 -0.977979
vn 0.101659 0.182268 -0.977979
vn 0.101659 0.182268 -0.977979
vn 0.101659 0.182269 -0.977979
vn 0.101659 0.182269 -0.977979
vn 0.101658 0.182269 -0.977979
vn 0.101659 0.182269 -0.977979
vn -0.038607 0.000089 -0.999255
vn -0.038607 0.000089 -0.999254
vn -0.038607 0.000089 -0.999255
vn -0.038607 0.000089 -0.999255
vn 0.051348 0.269547 -0.961617
vn 0.051348 0.269547 -0.961617
vn 0.051348 0.269547 -0.961617
vn 0.051348 0.269547 -0.961617
vn 0.030242 -0.151939 -0.987927
vn 0.030242 -0.151939 -0.987927
vn 0.030242 -0.151939 -0.987927
vn 0.030242 -0.151939 -0.987927
vn -0.038607 0.000089 -0.999254
vn -0.038607 0.000089 -0.999254
vn -0.038607 0.000089 -0.999255
vn -0.038607 0.000089 -0.999255
vn 0.013865 0.108946 -0.993951
vn 0.013865 0.108946 -0.993951
vn 0.013865 0.108946 -0.993951
vn 0.013865 0.108946 -0.993951
vn 0.136098 0.226566 -0.964440
vn 0.136098 0.226566 -0.964440
vn 0.136098 0.226566 -0.964440
vn 0.136098 0.226566 -0.964440
vn -0.038607 0.000089 -0.999255
vn -0.038607 0.000089 -0.999255
vn -0.038607 0.000089 -0.999255
vn -0.038607 0.000089 -0.999255
vn -0.038607 0.000089 -0.999255
vn -0.038607 0.000089 -0.999254
vn -0.038607 0.000089 -0.999255
vn -0.038607 0.000089 -0.999255
vn -0.011668 0.214374 -0.976682
vn -0.011668 0.214374 -0.976682
vn -0.011668 0.214374 -0.976682
vn -0.011668 0.214374 -0.976682
vn -0.036662 0.307324 -0.950899
vn -0.036662 0.307324 -0.950899
vn -0.036662 0.307324 -0.950899
vn -0.036662 0.307324 -0.950899
vn -0.382773 0.158924 -0.910070
vn -0.382773 0.158924 -0.910070
vn -0.382773 0.158924 -0.910070
vn -0.382773 0.158924 -0.910070
vn -0.033695 0.024051 -0.999143
vn -0.033695 0.024051 -0.999143
vn -0.033695 0.024051 -0.999143
vn -0.033695 0.024051 -0.999143
vn -0.038607 0.000089 -0.999254
vn -0.038607 0.000089 -0.999255
vn -0.038607 0.000089 -0.999254
vn -0.038607 0.000089 -0.999255
vn -0.038607 0.000089 -0.999254
vn -0.038607 0.000089 -0.999254
vn -0.038607 0.000089 -0.999255
vn -0.038607 0.000089 -0.999255
vn -0.038607 0.000089 -0.999255
vn -0.038607 0.000089 -0.999255
vn -0.038607 0.000089 -0.999254
vn -0.038607 0.000089 -0.999254
vn 0.000000 -0.135651 -0.990757
vn 0.000000 -0.135652 -0.990757
vn 0.000000 -0.135651 -0.990757
vn 0.000000 -0.135651 -0.990757
vn -0.069492 0.255507 -0.964306
vn -0.069492 0.255507 -0.964306
vn -0.069492 0.255507 -0.964306
vn -0.069492 0.255507 -0.964306
s off
g polySurface66
usemtl lambert4SG
f 1/1/1 2/2/2 4/3/3 3/4/4
f 5/5/5 6/6/6 8/7/7 7/8/8
f 9/9/9 10/10/10 12/11/11 11/12/12
f 13/13/13 14/14/14 16/15/15 15/16/16
f 17/17/17 18/18/18 20/19/19 19/20/20
f 21/21/21 22/22/22 24/23/23 23/24/24
f 25/25/25 26/26/26 28/27/27 27/28/28
f 29/29/29 30/30/30 32/31/31 31/32/32
f 33/33/33 34/34/34 36/35/35 35/36/36
f 37/37/37 38/38/38 40/39/39 39/40/40
f 41/41/41 42/42/42 44/43/43 43/44/44
f 45/45/45 46/46/46 48/47/47 47/48/48
f 49/49/49 50/50/50 52/51/51 51/52/52
f 53/53/53 54/54/54 56/55/55 55/56/56
f 57/57/57 58/58/58 60/59/59 59/60/60
f 61/61/61 62/62/62 64/63/63 63/64/64
f 65/65/65 66/66/66 68/67/67 67/68/68
f 69/69/69 70/70/70 72/71/71 71/72/72
f 73/73/73 74/74/74 76/75/75 75/76/76
f 77/77/77 78/78/78 80/79/79 79/80/80
f 81/81/81 82/82/82 84/83/83 83/84/84
f 85/85/85 86/86/86 88/87/87 87/88/88
