# This file uses centimeters as units for non-parametric coordinates.

mtllib M_JungleTree.mtl
g default
v -4.366938 3.922159 -0.166633
v -3.571834 -0.420192 6.760345
v -3.274035 3.431395 -4.335016
v 4.288821 36.904469 4.967576
v -0.386263 4.411221 1.229494
v -4.128807 10.742908 -4.955488
v -0.636166 26.189144 -2.014496
v -2.457839 6.029544 0.703579
v -4.025794 15.675503 -2.642913
v -2.090265 19.599770 -0.250585
v -0.229746 34.477844 9.400255
v -2.517545 37.609085 -3.509139
v 1.301401 3.174921 -2.945987
v -2.342430 -1.093973 -7.853587
v -0.381942 -0.091480 1.421281
v 0.483606 11.667629 -4.645597
v -3.084898 31.123749 1.459832
v -3.066830 25.275818 0.121509
v -1.112640 15.892638 -1.836836
v -5.546930 42.132961 7.836991
v -1.854575 33.923943 3.894279
v 0.178467 34.309944 4.784692
v -2.608090 27.097221 -3.310979
v -0.360402 32.014431 5.120281
v 3.913632 -0.318445 3.525955
v -1.214186 33.573799 -0.321499
v -1.860295 28.806936 -1.548460
v -3.468953 0.178614 -3.258055
v -0.671142 25.359261 0.222894
v -6.698864 0.409366 -2.037841
v -0.275659 28.733582 -0.592219
v -4.546008 -1.736472 6.218760
v -3.983318 20.326616 -1.946902
v -5.443842 -1.633160 3.962118
v -1.448896 30.487719 3.264505
v -5.123036 -0.250545 6.380893
v -0.353800 31.856567 0.565429
v -5.001572 2.044671 -2.686275
v 1.235148 32.694294 9.740570
v 1.227826 5.933806 -1.379300
v 0.374334 32.758728 9.957890
v -4.194441 15.790316 -4.178391
v 1.086573 30.512918 -0.193539
v 1.315001 42.131935 14.982399
v -0.968991 0.246958 -8.528159
v -2.343617 20.797638 -3.648160
v -2.147740 33.037704 4.787545
v -4.893643 -0.078256 1.107973
v 0.575362 12.262789 -3.690283
v -3.868416 32.742249 3.716757
v -4.474089 10.728231 -3.834799
v 1.398671 2.142237 -2.976628
v -0.394096 31.542734 -0.218519
v -3.106464 30.340204 -0.906308
v 0.075381 0.232423 -7.461719
v -0.669191 34.652618 5.219121
v -2.580492 28.528503 -1.508215
v -6.112303 -1.869826 0.088535
v -2.468095 28.572321 -3.055602
v -3.309938 15.707760 -1.844625
v -3.430424 34.278339 3.107463
v 2.401175 37.951057 13.183310
v -3.686419 31.665174 -3.388388
v -4.221962 34.090546 2.685637
v -7.062924 0.031997 0.457100
v -1.102596 11.726877 -1.280815
v -3.380430 33.055668 3.921070
v -2.138982 11.611570 -1.125698
v 1.924061 33.896664 9.040208
v -3.061285 28.985209 -2.460287
v -5.001103 2.271807 0.580503
v 4.148955 -1.059544 0.693389
v -1.675055 29.554886 -2.694350
v -1.862345 16.513739 -5.564601
v -4.909586 33.159309 5.909399
v -0.412869 20.115961 -2.091820
v -2.819119 33.501980 -4.458077
v -3.822501 31.566740 -8.090458
v -0.144888 0.711877 2.137334
v -1.565660 32.349648 5.281653
v -4.100558 34.272049 5.336361
v -1.328732 20.638285 -3.491527
v 5.250042 0.639946 1.664081
v 1.994359 34.590652 -0.468575
v -3.170383 32.333500 -4.716230
v -3.310796 30.782082 -4.297297
v -4.745291 34.393650 4.948423
v 1.359466 34.733215 -0.474473
v -4.066403 32.032700 -7.885212
v 1.189464 37.156143 14.662913
v -5.336605 33.565182 5.378173
v -6.288811 34.140430 -10.957841
v -4.385900 10.366457 -2.828114
v -2.538960 33.385582 -1.092954
v 3.279810 -1.310898 2.646806
v 0.866819 34.400688 0.839516
v -2.704745 30.735497 -0.095089
v -2.249935 0.023670 -8.319473
v 1.185395 30.693344 0.759077
v -3.742143 31.080900 -3.979921
v -5.114905 31.238960 -7.698059
v -4.702989 30.703926 -8.032449
v -5.695123 -2.043292 -1.097304
v -0.216792 33.365429 9.884579
v -4.859667 36.340061 6.970895
v -3.179494 -1.262680 6.322767
v 1.879585 36.929882 14.816690
v -3.894141 1.489998 -3.612925
v -0.065526 38.647282 2.662689
v -3.784782 20.319275 -1.098703
v -0.608261 16.664982 -4.681187
v -0.379196 33.972897 3.385653
v -3.330638 28.238729 0.096283
v 0.509202 3.550534 -3.985997
v -2.111701 36.311756 -0.998255
v -1.515270 25.462324 -2.622261
v -3.672686 4.342795 0.770643
v -0.506149 28.507048 1.125983
v -6.042710 33.494038 -11.780291
v 1.109045 37.930794 13.382968
v -5.617278 36.313721 6.744806
v -1.930243 33.372227 -1.344236
v -2.415524 9.016335 -5.865879
v -4.371174 0.807471 6.392259
v 4.518114 -0.163396 0.323034
v -2.197665 -1.493923 -6.578063
v -2.333987 31.694391 -4.257502
v -0.193827 8.207809 -5.240279
v 2.782632 37.214371 14.304434
v -1.565767 36.252205 -1.543715
v -1.552943 28.347702 1.608094
v -1.810369 34.098999 5.098586
v 2.357776 33.971657 0.594669
v 0.568208 33.169994 4.395025
v -0.370090 3.683337 -4.705040
v -3.834800 -2.326593 4.784016
v -0.130223 11.680059 -1.840354
v -5.251187 34.160583 -11.237862
v -1.242828 32.576149 0.793900
v 2.497838 37.021248 1.713224
v -7.005249 -0.946798 -1.766155
v -6.496975 39.295940 -13.648801
v -2.850393 31.204916 3.020440
v 1.517205 36.630966 2.359593
v -0.209045 -1.254068 -7.112961
v -5.416667 33.726166 -11.787539
v -3.160467 25.357265 -2.027004
v 1.045474 34.859776 8.852164
v -1.388491 30.940285 -0.407819
v -0.249812 3.032589 2.042020
v 1.927155 36.086361 2.574975
v -3.269535 37.748207 -2.826760
v -1.064570 -1.007293 -8.297726
v 4.532261 41.115963 6.921486
v -2.688723 33.546497 -0.444784
v -2.970174 31.831409 -3.220137
v -3.353329 37.492424 -3.275134
v -5.501012 36.317116 5.938528
v -3.377014 16.344862 -5.269906
v 0.918658 0.553231 -2.611166
v 3.617367 37.154781 5.511151
v -2.998850 33.880909 -3.377378
v -4.815784 36.343201 5.842074
v 4.153251 37.459778 4.558135
v -5.126996 38.709858 5.358558
v -4.298031 -0.736285 0.631442
v 0.084951 30.500753 1.276237
v 3.605521 37.681473 4.710863
v -4.145015 35.105614 -4.914388
v -0.265431 16.518642 -3.973809
v -4.383517 4.130178 -1.713897
v -1.613500 33.262524 2.048314
v -2.857993 41.488907 -4.074560
v 0.851250 37.584270 13.961456
v 0.670221 4.603148 0.373327
v 2.789372 36.229771 2.035188
v -6.881698 0.982521 -0.225081
v -3.268875 26.833752 -1.356349
v 1.823704 42.157753 14.892115
v -1.850814 15.773081 -1.552204
v -4.432382 38.627846 5.959860
v -5.182297 40.438797 -5.708302
v -3.750033 41.232437 -3.984938
v 1.313220 5.316202 -2.545926
v -1.395043 30.027935 -1.262280
v -3.047956 41.175869 -4.579762
v 4.920529 0.216486 2.977045
v -1.540898 10.569910 -6.205425
v -3.971910 34.859665 -5.552607
v -1.763972 33.557785 0.154269
v -1.824533 27.258015 -3.008541
v -2.997382 35.360683 -5.149678
v -3.049903 7.269896 -5.215336
v 1.719897 42.055470 15.578635
v -3.583036 35.421684 -4.627340
v -3.504542 20.595142 -3.111260
v -4.785480 38.529045 6.358808
v 1.642981 34.086792 1.179540
v 3.915933 -1.634600 1.667415
v -3.841095 11.287791 -1.961002
v -1.836818 35.712608 -2.099398
v -5.901920 -0.628884 4.109826
v -3.579446 33.504288 -4.196059
v -4.518431 33.268898 2.828590
v -2.154678 25.310909 0.664359
v 0.190609 31.270622 -0.714853
v -3.199689 0.949325 6.005241
v -2.971760 28.066864 0.828016
v -2.427459 -1.730286 4.120625
v -0.643866 19.652248 -1.140948
v 5.131318 40.872864 7.094175
v -2.721437 -0.435526 -2.750261
v -5.190765 1.251213 5.130292
v -1.019736 36.423664 2.674953
v 4.559827 -1.263278 2.550998
v -6.875907 38.991039 -14.051182
v -1.123240 36.525864 3.366741
v -2.792175 37.971512 -2.696084
v -6.937609 39.243961 -13.626291
v -0.248652 36.360497 3.485793
v -6.157291 41.709438 8.020013
v -0.900710 39.213707 3.017313
v -2.621490 30.418240 -1.646504
v -1.416899 19.519028 -0.457443
v 4.682474 1.252268 2.266878
v -4.739986 40.461239 -5.897754
v -5.658144 41.818562 8.387045
v -0.638949 30.242773 2.787288
v -0.443818 35.520798 2.763689
v -4.152723 33.565849 5.871517
v -2.350863 3.784350 -4.715371
v 0.879929 34.729771 0.009292
v -0.126085 28.569365 0.218878
v -2.864789 28.988955 -1.047113
v -5.032747 40.442650 -6.401632
v -0.100710 41.364223 4.064760
v -5.717834 34.322567 -10.877398
v -6.918414 -1.279310 0.334261
v -2.456074 31.997860 0.710406
v 5.248510 41.068104 6.529122
v -2.469608 31.801565 -3.505261
v 0.311638 34.894695 9.055798
v -0.678780 38.599056 3.281481
v -3.378452 34.977131 -5.738168
v -0.866123 29.121813 -1.222181
v -2.475502 0.574693 5.702249
v -6.405833 33.692978 -11.389105
v 1.782152 33.104630 9.427236
v -0.554779 38.816387 2.417517
v -1.356939 1.220322 -7.873402
v -1.688956 4.629311 1.471720
v 0.270238 32.383980 4.810096
v -5.783103 -1.141128 5.534267
v -3.304300 27.222132 -2.895554
v -2.578401 16.459749 -5.572680
v -0.693126 41.205147 4.543613
v -2.918943 11.734810 -1.350404
v 2.849188 37.542385 13.743040
v 1.757192 37.070236 1.938901
v -3.629852 11.074274 -5.618962
v -3.816273 32.038013 -4.149459
v -0.893446 -1.557459 -6.388927
v -2.813191 11.357608 -6.089497
v -3.490677 25.528954 -0.731995
v 4.727063 41.349331 6.496451
v -0.506654 41.620728 4.017458
v -4.567834 32.108139 -7.667859
v 0.117363 11.347123 -5.389286
v -5.147613 2.721447 -1.625886
v -2.577573 33.893112 -3.734677
v -2.822444 0.265205 -7.581732
v 4.021815 1.047293 3.072108
v -3.537310 33.754292 -3.580724
v -5.438349 38.568962 5.815324
v -2.185523 -0.989930 5.297439
v -2.495779 35.585846 -2.086481
v -2.387614 25.329735 -2.589820
v -1.375262 33.393711 -1.078575
v 3.051093 -0.573040 3.179057
v -3.322736 20.013674 -0.559152
v -5.766784 0.685166 4.785465
v 0.356676 11.823097 -2.567216
v -1.283470 3.875238 -4.823931
v -1.574044 27.709702 -1.949625
v -4.083781 5.767478 -0.617352
v -2.898478 35.822289 -1.598979
v -0.206677 16.165873 -3.182410
v -6.056494 -1.272379 -2.152609
v -4.509304 36.326210 6.387811
v -3.883325 16.189198 -4.787854
v -2.640321 36.176994 -1.110728
v -4.891713 -2.143196 5.205300
v -3.647562 41.373844 -4.585841
v -4.005754 30.999950 -8.283958
v -2.227026 33.387093 3.315948
v -1.120237 16.518141 -5.247598
v -7.309794 0.353547 -0.993431
v -2.394379 33.602829 0.030009
v -1.321278 25.426033 0.633212
v 0.010107 31.669258 1.106961
v -0.088904 1.681152 2.338593
v -5.301618 2.685247 -0.394199
v -0.493961 16.001812 -2.456913
v 4.928651 0.404774 0.818198
v -2.403815 37.823807 -3.038882
v -0.445967 0.999568 -7.675419
v -2.740852 30.939812 -4.446121
v -4.590307 38.708199 5.447449
v -2.974015 37.414089 -3.565554
v 5.297785 -0.673547 1.551919
v -1.966709 30.455681 -1.689628
v -5.171285 0.846596 1.025640
v -1.667309 28.482231 -2.668683
v -2.488486 32.365826 3.799227
v -0.233454 25.640371 -1.417704
v -3.143760 33.718861 3.756661
v -5.397814 40.272743 -6.019827
v 1.587214 38.070438 13.114049
v -4.266923 15.435164 -3.367015
v 3.981831 36.794136 5.300389
v -0.181438 38.543068 3.230757
v -6.044374 42.174969 7.822906
v -0.579711 20.436125 -2.704223
v -0.032640 30.718267 2.435775
v -1.937817 31.520823 0.054192
v -4.040745 3.095091 -3.394763
v -6.452887 39.011467 -13.956414
v -5.012226 31.788857 -7.611803
v -1.108383 34.020802 3.266227
v 1.315184 41.915024 15.394981
v -4.058504 2.296749 4.398331
v 2.362020 34.313332 -0.114012
v -0.644845 35.365868 4.386392
v -3.596279 4.782662 -4.198528
v -3.469749 5.749805 0.165349
v -0.793579 11.305260 -6.047435
v -5.268281 38.517410 6.304356
v -3.394027 41.473103 -3.745501
v -4.244502 5.327874 -3.309801
v -2.520058 15.741001 -1.538448
v 1.443509 4.330235 -0.527620
v 2.388295 35.938122 2.399570
v 2.014170 41.993530 15.230536
v 0.336690 -0.025590 -2.297205
v 3.373920 0.761210 3.277466
v -2.156832 31.384409 3.797528
v -2.714386 19.810120 -0.269249
v 0.002649 -0.651143 -7.697108
v -1.602397 -1.783827 -7.167412
v 3.354666 37.482433 5.069132
v 0.788736 30.804523 -0.595801
v 0.292802 33.945671 4.175779
v -6.292164 -1.056190 0.773414
v -0.103747 41.306190 4.500691
v -2.804169 -0.842367 -7.028239
v -2.751405 4.599092 1.283291
v -2.886594 30.565145 2.156936
v -1.941989 12.070356 -6.188012
v 1.668822 3.785532 -1.638031
v -2.298389 0.869100 -7.900132
v -6.214026 -1.994278 -1.503813
v -2.188274 30.203678 2.774417
v -3.334782 7.712671 -0.224822
v -3.291771 -2.001603 5.664619
v -1.047387 32.086727 5.272821
v -0.068646 34.860577 3.996593
v -4.710007 0.910711 -3.044420
v -3.234262 29.464119 -0.024176
v -5.193827 34.042664 5.061380
v -0.753983 5.079832 -4.921526
v 2.376658 36.970978 14.706641
v -2.452745 28.274780 1.392167
v -2.490504 -0.385749 5.939721
v -4.318474 32.839840 3.316100
v -0.394184 33.839996 9.658207
v -5.538359 0.290855 5.925087
v 1.255718 1.318640 -2.856197
v -3.023318 20.689281 -3.483173
v 1.517875 34.557789 8.860230
v -4.346907 -0.965699 1.650792
v -1.382814 6.083184 0.812468
v -3.853572 21.138050 -2.271658
v -6.415057 -0.443742 -2.297820
vt 0.361786 0.152408
vt 0.364703 0.108265
vt 0.385042 0.185742
vt 0.342609 0.086684
vt 0.391079 0.163817
vt 0.375681 0.196119
vt 0.358624 0.088558
vt 0.324501 0.081383
vt 0.397370 0.196858
vt 0.369370 0.091266
vt 0.389108 0.206916
vt 0.359903 0.196710
vt 0.387285 0.050684
vt 0.391666 0.139172
vt 0.390047 0.268859
vt 0.382421 0.269621
vt 0.398747 0.053800
vt 0.379784 0.039858
vt 0.320624 0.111601
vt 0.395627 0.267238
vt 0.379606 0.089983
vt 0.371623 0.269683
vt 0.400798 0.040064
vt 0.323763 0.066810
vt 0.349066 0.201233
vt 0.308359 0.090000
vt 0.375139 0.328547
vt 0.357350 0.327827
vt 0.408925 0.048843
vt 0.250949 0.042291
vt 0.382758 0.027389
vt 0.339138 0.209632
vt 0.300320 0.097687
vt 0.239627 0.045609
vt 0.360912 0.271756
vt 0.369520 0.330076
vt 0.412347 0.036913
vt 0.259922 0.034273
vt 0.324141 0.055187
vt 0.399645 0.022363
vt 0.310582 0.120317
vt 0.351163 0.395904
vt 0.342068 0.324974
vt 0.240175 0.027073
vt 0.379511 0.018881
vt 0.350662 0.269690
vt 0.239957 0.054251
vt 0.360057 0.394033
vt 0.336194 0.406161
vt 0.260341 0.021626
vt 0.325396 0.044386
vt 0.394714 0.011405
vt 0.342620 0.264712
vt 0.369146 0.418976
vt 0.358048 0.421245
vt 0.326350 0.398417
vt 0.253662 0.013511
vt 0.345474 0.427619
vt 0.319052 0.442068
vt 0.334565 0.320456
vt 0.328588 0.036217
vt 0.365275 0.439793
vt 0.331187 0.447547
vt 0.353202 0.438521
vt 0.309867 0.439751
vt 0.344730 0.443103
vt 0.353524 0.453659
vt 0.300950 0.467178
vt 0.328081 0.313912
vt 0.381193 0.473203
vt 0.337140 0.460334
vt 0.375134 0.483851
vt 0.290973 0.469725
vt 0.307863 0.471294
vt 0.385806 0.470977
vt 0.315286 0.477871
vt 0.347176 0.466371
vt 0.369508 0.485364
vt 0.280153 0.515988
vt 0.286755 0.520810
vt 0.430527 0.474051
vt 0.353675 0.465842
vt 0.335208 0.507832
vt 0.372798 0.514880
vt 0.293958 0.524724
vt 0.426780 0.482050
vt 0.343552 0.507529
vt 0.326409 0.510374
vt 0.382130 0.509360
vt 0.262091 0.547855
vt 0.300707 0.526735
vt 0.268185 0.559024
vt 0.427427 0.488626
vt 0.478266 0.512524
vt 0.341580 0.548171
vt 0.329056 0.473209
vt 0.349650 0.540557
vt 0.388255 0.492871
vt 0.390497 0.535590
vt 0.471365 0.518654
vt 0.484799 0.509248
vt 0.356477 0.538768
vt 0.400035 0.530178
vt 0.224046 0.565213
vt 0.435520 0.469874
vt 0.514884 0.586822
vt 0.509534 0.587110
vt 0.370050 0.567320
vt 0.375392 0.564568
vt 0.423700 0.607307
vt 0.218776 0.557376
vt 0.507114 0.591125
vt 0.364440 0.570350
vt 0.415887 0.607570
vt 0.404551 0.528520
vt 0.194011 0.616134
vt 0.385684 0.617654
vt 0.378943 0.622072
vt 0.189947 0.613378
vt 0.199816 0.620102
vt 0.392064 0.620448
vt 0.228389 0.568341
vt 0.156972 0.555427
vt 0.167016 0.477524
vt 0.178595 0.504975
vt 0.143094 0.542425
vt 0.180831 0.477275
vt 0.172422 0.561736
vt 0.148628 0.617347
vt 0.153570 0.454419
vt 0.168258 0.451483
vt 0.196549 0.481223
vt 0.182753 0.559996
vt 0.163664 0.617802
vt 0.132722 0.547531
vt 0.184369 0.457419
vt 0.198891 0.461036
vt 0.181791 0.618724
vt 0.174864 0.618271
vt 0.175586 0.678567
vt 0.139294 0.613955
vt 0.146339 0.434539
vt 0.140067 0.471321
vt 0.199946 0.405802
vt 0.211861 0.461462
vt 0.208906 0.481980
vt 0.192226 0.561624
vt 0.191475 0.672726
vt 0.184720 0.675695
vt 0.165654 0.682880
vt 0.132448 0.618967
vt 0.141419 0.439811
vt 0.214327 0.428545
vt 0.209254 0.413791
vt 0.168579 0.428193
vt 0.196635 0.671587
vt 0.199378 0.753322
vt 0.184669 0.752827
vt 0.155604 0.682984
vt 0.213044 0.400238
vt 0.192184 0.387259
vt 0.156268 0.434028
vt 0.223325 0.458385
vt 0.207873 0.754947
vt 0.172194 0.756399
vt 0.153926 0.694435
vt 0.229732 0.407528
vt 0.206798 0.380030
vt 0.145682 0.396585
vt 0.203062 0.795149
vt 0.214574 0.796178
vt 0.192298 0.792215
vt 0.221698 0.392598
vt 0.195629 0.373086
vt 0.170960 0.408081
vt 0.141194 0.409999
vt 0.181650 0.794640
vt 0.241613 0.390204
vt 0.226262 0.371628
vt 0.213111 0.365888
vt 0.156775 0.381228
vt 0.129473 0.401123
vt 0.231208 0.826378
vt 0.205660 0.827470
vt 0.168677 0.774813
vt 0.146053 0.378080
vt 0.174659 0.395029
vt 0.218815 0.822369
vt 0.197031 0.835353
vt 0.181537 0.811933
vt 0.153866 0.780294
vt 0.241646 0.378314
vt 0.152248 0.369746
vt 0.176470 0.385743
vt 0.125437 0.382772
vt 0.228743 0.839032
vt 0.214141 0.836499
vt 0.160511 0.805174
vt 0.254278 0.848943
vt 0.201435 0.859571
vt 0.174510 0.798729
vt 0.225262 0.852882
vt 0.248897 0.852653
vt 0.209938 0.858194
vt 0.145214 0.842994
vt 0.238125 0.862363
vt 0.139079 0.834749
vt 0.154345 0.845340
vt 0.223486 0.867294
vt 0.217000 0.862617
vt 0.306292 0.866988
vt 0.089730 0.836979
vt 0.152567 0.874263
vt 0.244599 0.877340
vt 0.217953 0.871976
vt 0.313213 0.858426
vt 0.302298 0.873685
vt 0.090937 0.829429
vt 0.091622 0.844739
vt 0.144983 0.872476
vt 0.365938 0.920483
vt 0.136707 0.848256
vt 0.046777 0.877925
vt 0.134684 0.896006
vt 0.301613 0.882686
vt 0.374657 0.917290
vt 0.355793 0.926525
vt 0.095781 0.849245
vt 0.041498 0.871611
vt 0.126066 0.891546
vt 0.138767 0.868948
vt 0.380120 0.989622
vt 0.374130 0.987640
vt 0.053552 0.880495
vt 0.014907 0.949946
vt 0.107682 0.966808
vt 0.353085 0.931415
vt 0.378866 0.917870
vt 0.370258 0.990701
vt 0.011573 0.946377
vt 0.102488 0.964464
vt 0.121905 0.888075
vt 0.019342 0.950680
vt 0.397047 0.951403
vt 0.442365 0.938421
vt 0.392569 0.970475
vt 0.450387 0.923185
vt 0.447270 0.942458
vt 0.438038 0.919592
vt 0.383509 0.989930
vt 0.394569 0.937725
vt 0.435458 0.909179
vt 0.385354 0.926388
vt 0.101919 0.639838
vt 0.090919 0.691616
vt 0.091835 0.653100
vt 0.078825 0.689966
vt 0.091280 0.724094
vt 0.082757 0.651082
vt 0.082004 0.727734
vt 0.095108 0.723827
vt 0.069883 0.690313
vt 0.123617 0.759299
vt 0.078108 0.643434
vt 0.077757 0.732466
vt 0.115326 0.759983
vt 0.127719 0.755755
vt 0.116475 0.819275
vt 0.125078 0.820129
vt 0.419487 0.510058
vt 0.444433 0.542227
vt 0.406474 0.511495
vt 0.450760 0.537600
vt 0.437575 0.545500
vt 0.405915 0.497335
vt 0.433368 0.514545
vt 0.458739 0.578298
vt 0.452094 0.580143
vt 0.443253 0.579693
vt 0.451294 0.610342
vt 0.432552 0.545917
vt 0.444311 0.610928
vt 0.438086 0.610512
vt 0.463329 0.660929
vt 0.456439 0.661170
vt 0.191861 0.193584
vt 0.212026 0.146974
vt 0.219242 0.150903
vt 0.062778 0.916932
vt 0.074217 0.889890
vt 0.082582 0.896363
vt 0.055547 0.912751
vt 0.068513 0.919614
vt 0.048072 0.946922
vt 0.053772 0.950030
vt 0.042918 0.942847
vt 0.014245 0.983575
vt 0.018693 0.986654
vt 0.177127 0.869379
vt 0.167268 0.830591
vt 0.176753 0.824864
vt 0.170791 0.869427
vt 0.187236 0.869751
vt 0.170296 0.901205
vt 0.176676 0.900478
vt 0.184378 0.830601
vt 0.182277 0.900642
vt 0.183394 0.945524
vt 0.192100 0.947064
vt 0.182736 0.952093
vt 0.285954 0.341967
vt 0.220821 0.342002
vt 0.226589 0.332028
vt 0.283636 0.347149
vt 0.169373 0.288137
vt 0.228273 0.322796
vt 0.216192 0.346566
vt 0.158195 0.290271
vt 0.178703 0.282166
vt 0.285589 0.337450
vt 0.182964 0.277109
vt 0.159118 0.230271
vt 0.170064 0.225311
vt 0.148026 0.231023
vt 0.175205 0.229817
vt 0.137939 0.193546
vt 0.121449 0.195923
vt 0.182976 0.219819
vt 0.140583 0.184630
vt 0.192293 0.204299
vt 0.170448 0.210814
vt 0.204142 0.213130
vt 0.150738 0.177399
vt 0.171125 0.202006
vt 0.236414 0.207341
vt 0.127652 0.164591
vt 0.205034 0.197395
vt 0.234943 0.211447
vt 0.238800 0.199882
vt 0.135845 0.163133
vt 0.273936 0.224177
vt 0.274755 0.220120
vt 0.278375 0.215397
vt 0.217117 0.733053
vt 0.221003 0.762310
vt 0.216185 0.770983
vt 0.227455 0.730719
vt 0.232690 0.799087
vt 0.211719 0.731610
vt 0.225771 0.761519
vt 0.231725 0.716683
vt 0.229721 0.804951
vt 0.214354 0.696334
vt 0.226115 0.698804
vt 0.238502 0.800513
vt 0.239279 0.706617
vt 0.445288 0.014670
vt 0.444632 0.078971
vt 0.457600 0.022989
vt 0.439084 0.024733
vt 0.464579 0.010783
vt 0.409346 0.111531
vt 0.432691 0.074493
vt 0.432857 0.007721
vt 0.488079 0.075014
vt 0.400878 0.107681
vt 0.400880 0.098260
vt 0.429269 0.020576
vt 0.448905 -0.002620
vt 0.495016 0.068773
vt 0.407569 0.129182
vt 0.434256 0.130593
vt 0.550352 0.117483
vt 0.397330 0.135233
vt 0.389154 0.106715
vt 0.436976 0.144736
vt 0.407637 0.235578
vt 0.429619 0.180083
vt 0.550309 0.103350
vt 0.407379 0.139173
vt 0.427672 0.139110
vt 0.416254 0.215383
vt 0.400445 0.249933
vt 0.544886 0.133031
vt 0.412503 0.167735
vt 0.421623 0.239770
vt 0.413596 0.257377
vt 0.562122 0.127460
vt 0.429843 0.225522
vt 0.568920 0.111304
vt 0.556502 0.142980
vt 0.428980 0.245656
vt 0.283040 0.622975
vt 0.290897 0.606272
vt 0.292263 0.651184
vt 0.266290 0.631079
vt 0.304565 0.654161
vt 0.277619 0.642095
vt 0.257482 0.625498
vt 0.268267 0.644700
vt 0.304473 0.616771
vt 0.288859 0.682928
vt 0.283151 0.655341
vt 0.305163 0.604991
vt 0.292529 0.688326
vt 0.278422 0.680971
vt 0.256505 0.656983
vt 0.314650 0.610610
vt 0.111124 0.447500
vt 0.098042 0.480551
vt 0.098524 0.451653
vt 0.107973 0.480507
vt 0.102053 0.428499
vt 0.117599 0.478119
vt 0.103607 0.549420
vt 0.117934 0.424988
vt 0.120538 0.444469
vt 0.116129 0.549003
vt 0.090868 0.479120
vt 0.124611 0.546322
vt 0.109802 0.620935
vt 0.116987 0.620907
vt 0.123791 0.616577
vt 0.222737 0.926336
vt 0.232741 0.922410
vt 0.244208 0.977932
vt 0.202712 0.869742
vt 0.257453 0.975644
vt 0.232357 0.988968
vt 0.195038 0.870763
vt 0.251544 0.987119
vt 0.213709 0.927042
vt 0.261349 0.986629
vt 0.013598 0.557343
vt 0.024358 0.562935
vt 0.015149 0.608092
vt 0.022753 0.609382
vt 0.008870 0.608821
vt 0.010200 0.655950
vt 0.017809 0.659318
vt 0.047381 0.828764
vt 0.040377 0.831603
vt 0.041341 0.772836
vt 0.054584 0.848678
vt 0.055693 0.828712
vt 0.044399 0.854755
vt 0.051752 0.771823
vt 0.269154 0.974021
vt 0.314158 0.971096
vt 0.315500 0.981940
vt 0.267979 0.966083
vt 0.348896 0.973215
vt 0.265975 0.979312
vt 0.345411 0.982174
vt 0.248621 0.150856
vt 0.231766 0.194170
vt 0.241017 0.150045
vt 0.225378 0.194055
vt 0.234842 0.146828
vt 0.242247 0.466176
vt 0.253441 0.460871
vt 0.255074 0.469596
vt 0.247564 0.459413
vt 0.248569 0.431496
vt 0.258642 0.430086
vt 0.252442 0.437674
vt 0.257787 0.436462
vt 0.258674 0.380652
vt 0.262611 0.385476
vt 0.254812 0.385321
vt 0.250483 0.418485
vt 0.260043 0.417184
vt 0.255341 0.423557
vt 0.261031 0.400027
vt 0.252900 0.394189
vt 0.259322 0.391982
vt 0.253595 0.399489
vt 0.252951 0.630246
vt 0.228284 0.671041
vt 0.241974 0.619694
vt 0.208139 0.691177
vt 0.202819 0.674598
vt 0.233911 0.602823
vt 0.246158 0.451146
vt 0.250791 0.443666
vt 0.252222 0.453748
vt 0.257368 0.448468
vt 0.261205 0.406487
vt 0.256673 0.410647
vt 0.252333 0.406847
vt 0.238844 0.142836
vt 0.220752 0.109948
vt 0.229256 0.109951
vt 0.229359 0.141240
vt 0.236317 0.107528
vt 0.214071 0.106683
vt 0.246469 0.135338
vt 0.216348 0.078805
vt 0.297106 0.699012
vt 0.262421 0.758481
vt 0.278035 0.700630
vt 0.316562 0.691725
vt 0.248867 0.761126
vt 0.267707 0.768468
vt 0.248381 0.779921
vt 0.240341 0.751493
vt 0.236491 0.771627
vt 0.264356 0.699033
vt 0.265706 0.783537
vt 0.253020 0.693706
vt 0.108976 0.096496
vt 0.123656 0.105574
vt 0.098289 0.179979
vt 0.123750 0.073940
vt 0.113300 0.181153
vt 0.089978 0.129995
vt 0.106282 0.077098
vt 0.100530 0.251716
vt 0.093209 0.080896
vt 0.086234 0.183565
vt 0.072072 0.029077
vt 0.074963 0.153362
vt 0.122168 0.051048
vt 0.063053 0.036805
vt 0.090709 0.256464
vt 0.073299 0.186389
vt 0.141523 0.060691
vt 0.079146 0.014032
vt 0.059292 0.024477
vt 0.054086 0.040956
vt 0.110446 0.328416
vt 0.136506 0.044158
vt 0.153144 0.071352
vt 0.123619 0.032597
vt 0.066494 0.009301
vt 0.081982 0.081150
vt 0.080717 0.257750
vt 0.166300 0.039797
vt 0.143261 0.090406
vt 0.049783 0.008991
vt 0.099073 0.319674
vt 0.162023 0.027313
vt 0.183044 0.040548
vt 0.090551 0.320224
vt 0.101081 0.387347
vt 0.173769 0.021266
vt 0.161271 0.015501
vt 0.186299 0.049761
vt 0.069930 0.258385
vt 0.117540 0.391296
vt 0.167562 0.072166
vt 0.063206 0.195560
vt 0.087989 0.385751
vt 0.090892 0.412837
vt 0.159620 0.088964
vt 0.080189 0.410081
vt 0.079654 0.430937
vt 0.090910 0.437825
vt 0.059210 0.400693
vt 0.087181 0.487455
vt 0.072689 0.482818
vt 0.080633 0.543598
vt 0.033576 0.384640
vt 0.060310 0.482159
vt 0.049803 0.378967
vt 0.070097 0.542436
vt 0.014457 0.384033
vt 0.045929 0.335694
vt 0.057661 0.542264
vt 0.060581 0.595321
vt 0.045454 0.484469
vt 0.031013 0.334436
vt 0.073420 0.600483
vt 0.039097 0.321745
vt 0.046004 0.595044
vt 0.047611 0.541680
vt 0.056586 0.325819
vt 0.023126 0.315919
vt 0.054902 0.676981
vt 0.056166 0.307216
vt 0.037899 0.300867
vt 0.065014 0.721439
vt 0.044645 0.679065
vt 0.051867 0.722010
vt 0.074879 0.750503
vt 0.036809 0.721416
vt 0.058901 0.749538
vt 0.080012 0.798116
vt 0.045992 0.754057
vt 0.092626 0.795083
vt 0.026521 0.779865
vt 0.035917 0.748422
vt 0.077052 0.824730
vt 0.085062 0.827983
vt 0.017242 0.171164
vt 0.014507 0.127659
vt 0.029015 0.167266
vt 0.005967 0.127333
vt 0.022687 0.125930
vt 0.025256 0.188869
vt 0.017996 0.094943
vt 0.009849 0.185601
vt 0.040161 0.188004
vt 0.008551 0.093735
vt 0.031699 0.218598
vt 0.034071 0.193472
vt 0.016211 0.067724
vt 0.022908 0.067285
vt 0.014446 0.011871
vt 0.007800 0.015483
vt 0.228038 0.242149
vt 0.188666 0.262971
vt 0.234328 0.222036
vt 0.229774 0.255200
vt 0.194520 0.277143
vt 0.252791 0.504584
vt 0.231348 0.505975
vt 0.246729 0.494356
vt 0.236928 0.473797
vt 0.255295 0.481522
vt 0.240152 0.487470
vt 0.176901 0.186505
vt 0.164867 0.190675
vt 0.167580 0.169983
vt 0.177474 0.170015
vt 0.178202 0.150856
vt 0.185725 0.149198
vt 0.318391 0.559759
vt 0.332211 0.570314
vt 0.333308 0.602020
vt 0.325306 0.544275
vt 0.325607 0.602441
vt 0.326996 0.631364
vt 0.334715 0.631536
vt 0.334696 0.653107
vt 0.345697 0.652246
vt 0.337240 0.724225
vt 0.331093 0.723909
vt 0.261942 0.826935
vt 0.258935 0.833615
vt 0.235128 0.808905
vt 0.257293 0.841653
vt 0.290697 0.831864
vt 0.290064 0.819518
vt 0.336071 0.831907
vt 0.328256 0.848685
vt 0.348759 0.845847
vt 0.350585 0.864588
vt 0.142597 0.972637
vt 0.180480 0.980347
vt 0.141612 0.983497
vt 0.182400 0.970354
vt 0.117581 0.980088
vt 0.217244 0.985831
vt 0.118426 0.987591
vt 0.210839 0.974581
vt 0.066317 0.985531
vt 0.067955 0.977190
vt 0.305299 0.917664
vt 0.306029 0.908256
vt 0.343205 0.930227
vt 0.272462 0.919691
vt 0.332686 0.935353
vt 0.274586 0.912345
vt 0.337944 0.961625
vt 0.231284 0.878369
vt 0.347646 0.958607
vt 0.226198 0.884745
vt 0.014920 0.792238
vt 0.033801 0.861941
vt 0.006328 0.793902
vt 0.038639 0.857615
vt 0.216547 0.524240
vt 0.216659 0.510551
vt 0.249496 0.534926
vt 0.191252 0.142982
vt 0.184837 0.078805
vt 0.199770 0.138092
vt 0.207090 0.136122
vt 0.128238 0.661352
vt 0.136416 0.659066
vt 0.150151 0.731536
vt 0.285886 0.139260
vt 0.253051 0.080334
vt 0.261165 0.078805
vt 0.176790 0.078805
vt 0.168362 0.127670
vt 0.157644 0.123830
vt 0.150313 0.132331
vt 0.167192 0.078854
vt 0.159261 0.145207
vt 0.149756 0.119401
vt 0.121269 0.698641
vt 0.114193 0.732407
vt 0.111700 0.693034
vt 0.104850 0.659066
vt 0.344741 0.990470
vt 0.267922 0.992826
vt 0.266124 0.985209
vt 0.079849 0.950051
vt 0.072318 0.947244
vt 0.095978 0.872477
vt 0.052898 0.989426
vt 0.045508 0.981875
vt 0.263242 0.197821
vt 0.254757 0.146545
vt 0.261065 0.143251
vt 0.269373 0.195012
vt 0.347771 0.787480
vt 0.338148 0.821247
vt 0.340035 0.789468
vt 0.313183 0.738580
vt 0.310045 0.745150
vt 0.048426 0.220366
vt 0.047103 0.278205
vt 0.041851 0.220312
vn 0.068605 0.341383 0.937417
vn 0.365089 0.541929 0.756983
vn 0.339741 0.251903 0.906157
vn 0.589511 -0.127960 -0.797561
vn 0.319927 -0.162190 -0.933457
vn 0.124171 -0.144671 -0.981658
vn -0.782051 0.125784 0.610389
vn -0.940894 0.100296 0.323510
vn -0.580120 0.252427 0.774430
vn 0.328799 0.446220 0.832333
vn 0.656714 0.332193 0.677034
vn 0.375887 0.116569 0.919304
vn 0.946790 0.182475 0.265127
vn 0.979954 0.077817 -0.183398
vn 0.987155 0.159757 0.001861
vn -0.706068 -0.153055 -0.691406
vn -0.951168 -0.087405 -0.296040
vn -0.889128 -0.042565 -0.455675
vn -0.991174 0.127143 -0.037542
vn -0.964058 0.070840 0.256073
vn -0.992854 0.004694 -0.119242
vn 0.686729 0.312786 -0.656177
vn 0.734471 0.140307 -0.663978
vn 0.629858 0.112100 -0.768578
vn 0.893523 0.205418 0.399274
vn 0.124340 0.686120 0.716784
vn 0.282867 0.643431 0.711324
vn -0.936623 0.345884 0.055692
vn -0.660592 0.654147 0.368389
vn -0.852634 0.491379 0.177661
vn -0.994723 0.032184 0.097417
vn -0.901682 -0.035980 0.430901
vn -0.995018 0.052137 0.084972
vn 0.996950 -0.030005 0.072040
vn 0.951733 -0.274227 0.137856
vn 0.874521 -0.125862 0.468371
vn -0.239231 -0.194043 0.951376
vn -0.640624 -0.137575 0.755430
vn -0.283175 -0.198708 0.938257
vn -0.447932 0.164063 0.878886
vn -0.974694 0.095369 -0.202181
vn -0.797709 -0.017495 -0.602789
vn -0.560935 0.032099 -0.827237
vn 0.302314 -0.222198 0.926949
vn 0.828826 0.397950 0.393299
vn 0.978976 -0.043428 -0.199301
vn 0.815529 -0.189510 0.546807
vn 0.869893 -0.089611 -0.485033
vn 0.510639 0.105469 -0.853302
vn 0.860017 0.177084 -0.478552
vn 0.762429 0.190833 -0.618292
vn -0.917364 0.081496 -0.389619
vn -0.893235 0.130299 -0.430294
vn -0.693569 0.375122 -0.615017
vn 0.605865 0.531875 -0.591639
vn 0.742644 -0.664759 -0.081092
vn 0.688771 -0.615999 -0.382282
vn 0.559168 -0.777758 -0.287097
vn 0.866336 0.483269 -0.126144
vn 0.838950 0.460101 -0.290638
vn 0.745166 0.659836 0.096664
vn 0.941423 0.103577 -0.320929
vn 0.530833 0.233868 -0.814568
vn 0.763377 0.058080 -0.643337
vn 0.190716 0.258695 -0.946945
vn 0.124725 0.917857 -0.376807
vn 0.146399 0.714275 -0.684382
vn 0.211918 0.949085 -0.233084
vn 0.471219 -0.640628 0.606258
vn -0.213781 -0.905686 0.366102
vn -0.040253 -0.707116 0.705951
vn -0.724073 -0.081452 0.684897
vn -0.991786 0.043844 0.120163
vn -0.945928 -0.029586 0.323026
vn -0.545172 -0.539501 0.641659
vn -0.720622 -0.572097 0.391675
vn 0.500726 -0.219310 0.837363
vn 0.703651 -0.163461 0.691488
vn -0.044858 0.242901 0.969013
vn -0.508437 0.415138 -0.754422
vn -0.442957 0.660275 -0.606486
vn -0.966371 -0.103954 -0.235204
vn -0.675437 -0.605170 0.421371
vn -0.732413 -0.680765 0.011421
vn 0.572446 0.460298 -0.678551
vn 0.880476 0.328749 -0.341595
vn -0.296427 0.863377 -0.408303
vn -0.954393 0.049596 0.294406
vn -0.853340 0.462906 0.239850
vn 0.811981 -0.583580 0.011033
vn -0.399112 0.882732 -0.247979
vn 0.211796 0.878236 -0.428771
vn -0.126239 0.988124 0.087609
vn -0.757687 0.242344 -0.605954
vn -0.541494 0.216447 -0.812364
vn -0.937597 0.157462 -0.310028
vn -0.192460 0.252163 -0.948353
vn 0.463716 0.069983 -0.883216
vn 0.005954 0.135989 -0.990693
vn 0.846589 -0.529986 0.049014
vn -0.762223 -0.452103 0.463269
vn -0.102316 0.289044 0.951832
vn 0.342487 -0.744415 -0.573192
vn -0.954596 0.274707 0.115247
vn 0.283165 0.173791 0.943194
vn -0.514012 0.157772 0.843149
vn 0.043306 -0.084761 -0.995460
vn 0.318621 0.039800 -0.947046
vn 0.867202 -0.014581 -0.497743
vn 0.938198 0.116937 0.325747
vn 0.462499 0.156981 -0.872612
vn 0.754368 0.510224 -0.413039
vn -0.080750 0.189959 -0.978466
vn -0.910122 0.389215 0.142090
vn -0.985467 -0.063140 -0.157694
vn 0.142057 -0.297809 0.943997
vn 0.864214 -0.399200 -0.306225
vn -0.706054 0.357461 -0.611318
vn -0.792426 0.551319 -0.260975
vn -0.688601 0.347076 -0.636684
vn 0.777538 -0.335143 0.532084
vn 0.688332 -0.382059 0.616628
vn -0.875369 -0.332828 0.350649
vn -0.272547 -0.579345 0.768165
vn -0.454104 -0.054977 0.889251
vn 0.774317 -0.017537 0.632555
vn 0.826719 -0.389426 0.406058
vn -0.986942 -0.017698 0.160099
vn -0.881823 -0.221902 0.416110
vn -0.945322 0.087249 0.314252
vn -0.719779 0.162116 0.675009
vn 0.157863 -0.453626 0.877099
vn -0.821621 -0.170896 0.543815
vn 0.120631 -0.008209 0.992663
vn -0.085728 0.641619 0.762218
vn -0.662014 0.488746 -0.568211
vn -0.930832 -0.141340 -0.337008
vn -0.910304 -0.387557 -0.145420
vn -0.688998 -0.606618 -0.396606
vn -0.397500 -0.131543 -0.908125
vn -0.404731 -0.058260 -0.912578
vn 0.981550 0.099912 -0.163023
vn 0.971555 0.010123 -0.236598
vn -0.847377 0.529840 0.034965
vn 0.584563 0.535236 0.609761
vn 0.644294 0.253971 0.721377
vn 0.313623 0.653190 0.689191
vn 0.286353 -0.925784 0.246832
vn 0.339921 -0.873515 0.348462
vn -0.278824 -0.819901 0.500020
vn -0.081554 -0.523223 0.848284
vn 0.471782 -0.129720 -0.872121
vn -0.118255 0.647679 -0.752680
vn -0.978995 0.068409 0.192066
vn 0.880766 0.192320 -0.432741
vn -0.009921 0.299568 -0.954024
vn 0.319652 0.105406 -0.941654
vn 0.504129 0.255348 -0.825016
vn -0.871110 0.064687 -0.486809
vn -0.580378 -0.216758 0.784970
vn -0.178212 -0.850605 0.494684
vn 0.751090 0.431009 0.500095
vn -0.063686 0.954221 0.292245
vn 0.979261 0.014482 -0.202084
vn 0.859243 0.128881 -0.495066
vn 0.546621 -0.464157 0.696968
vn -0.290042 -0.699610 0.653010
vn -0.864974 -0.068374 -0.497138
vn -0.963371 0.081967 -0.255338
vn 0.813250 0.260847 -0.520176
vn 0.867485 -0.001526 -0.497462
vn 0.950506 -0.170232 -0.259924
vn 0.902735 -0.325860 0.280864
vn 0.889400 -0.083179 -0.449499
vn -0.838063 0.176504 0.516234
vn -0.827072 0.453054 -0.332708
vn -0.986117 0.163154 -0.030899
vn -0.980652 0.139106 -0.137734
vn -0.808716 0.060573 -0.585071
vn -0.441362 -0.012537 -0.897241
vn 0.168497 -0.552604 -0.816234
vn -0.532360 -0.562937 -0.632215
vn 0.504167 -0.855494 0.118093
vn 0.921962 0.377153 0.087989
vn 0.897993 0.135135 0.418745
vn 0.090413 0.640819 0.762349
vn -0.919881 -0.007006 -0.392134
vn -0.992871 -0.107103 0.052300
vn -0.157915 -0.316424 0.935381
vn -0.490430 -0.784741 -0.379025
vn -0.137757 -0.535233 -0.833396
vn -0.445512 -0.836487 -0.319076
vn 0.021583 0.357986 0.933478
vn -0.744597 0.478569 0.465346
vn 0.661044 0.749578 -0.033967
vn -0.606148 -0.079412 0.791378
vn 0.568942 -0.049740 0.820872
vn 0.197230 -0.087285 0.976464
vn 0.874708 0.480481 0.063431
vn -0.914056 -0.399294 0.071179
vn 0.612418 0.484809 -0.624423
vn -0.637192 -0.320063 0.701103
vn 0.786239 -0.113092 -0.607485
vn -0.167817 -0.277752 -0.945881
vn -0.115988 0.807906 -0.577784
vn -0.850371 -0.459105 0.257082
vn -0.950194 0.264913 -0.164172
vn -0.893541 -0.360064 -0.268215
vn 0.841902 0.009486 0.539546
vn 0.980334 0.100722 0.169707
vn 0.562650 0.814291 -0.142670
vn -0.766289 0.113678 0.632359
vn -0.885134 -0.431429 0.174376
vn -0.756350 0.628147 0.182666
vn 0.651236 -0.262789 -0.711923
vn 0.070604 -0.188679 0.979498
vn -0.375099 -0.395996 0.838145
vn -0.287518 -0.919396 -0.268411
vn -0.448993 0.298222 -0.842300
vn 0.794044 0.221991 -0.565874
vn 0.230834 0.867833 -0.439979
vn -0.875220 0.470000 0.114417
vn -0.854061 -0.271466 -0.443719
vn 0.961026 0.262206 0.087623
vn 0.815588 0.342179 0.466615
vn 0.653118 -0.552031 -0.518361
vn 0.941875 0.082535 -0.325669
vn 0.365110 -0.699134 0.614741
vn 0.364010 -0.463934 0.807628
vn 0.614607 -0.367463 0.698018
vn 0.216094 -0.060007 0.974527
vn 0.960180 0.156983 -0.231110
vn 0.613421 0.743605 0.266018
vn 0.904199 -0.422583 -0.062024
vn 0.766318 0.031478 0.641690
vn 0.547159 -0.696587 0.464095
vn 0.408528 0.242132 -0.880043
vn -0.177458 0.923341 0.340515
vn -0.273335 -0.934160 -0.229419
vn 0.546726 -0.689123 -0.475606
vn 0.431653 0.123632 -0.893527
vn -0.778760 -0.080024 0.622197
vn -0.255978 0.435252 -0.863152
vn 0.430000 0.702117 -0.567566
vn 0.649413 0.760290 -0.014903
vn 0.934272 0.106162 -0.340390
vn -0.816205 0.403061 0.413946
vn 0.226630 0.008072 0.973948
vn -0.799368 0.459939 -0.386608
vn -0.861050 0.229254 -0.453912
vn -0.832812 0.028055 -0.552844
vn 0.941263 0.337624 0.005795
vn -0.862798 -0.036819 0.504207
vn 0.290751 0.562281 0.774148
vn 0.926034 0.354567 0.129398
vn -0.226904 -0.706811 0.670024
vn -0.906715 0.217685 0.361221
vn 0.380521 -0.826979 0.413895
vn 0.236985 0.148511 -0.960095
vn -0.341543 0.354082 -0.870617
vn 0.003695 0.708477 -0.705724
vn -0.504045 0.560492 -0.657105
vn -0.899719 -0.399040 0.176841
vn -0.785085 0.255693 0.564148
vn -0.281081 -0.610881 -0.740147
vn -0.937936 -0.324336 -0.122810
vn 0.983771 0.072497 0.164128
vn 0.427989 -0.463446 0.775914
vn 0.899872 -0.252469 0.355654
vn 0.533082 -0.470634 0.703084
vn 0.544451 -0.170646 -0.821251
vn -0.842333 0.336741 0.420810
vn -0.894616 0.369216 -0.251676
vn -0.327521 0.426869 -0.842920
vn -0.652522 -0.003338 -0.757762
vn 0.016974 0.385092 -0.922722
vn -0.491160 -0.199100 -0.848010
vn -0.176338 -0.203895 -0.962981
vn -0.978118 0.051077 0.201686
vn -0.988987 -0.147374 0.013649
vn -0.150993 -0.142940 -0.978146
vn -0.274239 0.815792 0.509191
vn -0.314407 0.732893 0.603337
vn -0.253357 0.331842 0.908676
vn 0.618072 -0.313114 -0.721074
vn -0.714907 0.407425 -0.568254
vn 0.361201 0.501679 -0.786036
vn -0.641035 -0.242916 0.728057
vn -0.405286 -0.491775 -0.770650
vn 0.168706 0.485589 0.857754
vn -0.663817 -0.004901 -0.747879
vn -0.816106 0.162971 -0.554447
vn -0.371786 0.036102 -0.927616
vn -0.612339 0.707345 0.353134
vn -0.557041 -0.825115 0.094288
vn -0.055749 -0.951297 -0.303193
vn 0.654845 -0.099928 -0.749128
vn 0.668292 -0.216841 -0.711594
vn 0.682763 -0.165161 -0.711728
vn -0.412498 -0.332217 0.848220
vn 0.467446 0.541660 -0.698641
vn 0.393338 -0.825956 0.403834
vn 0.204370 -0.951338 0.230629
vn -0.485596 -0.818705 0.306461
vn 0.174377 0.663543 0.727532
vn -0.781696 0.295768 0.549065
vn 0.050980 0.826824 0.560145
vn -0.482579 0.835722 -0.262080
vn 0.552195 0.551722 0.625047
vn -0.706430 -0.274168 -0.652524
vn -0.495104 -0.515354 0.699487
vn -0.550358 -0.525827 0.648546
vn -0.319533 0.803671 -0.502008
vn 0.891529 -0.281539 -0.354840
vn 0.829174 -0.329806 -0.451329
vn 0.770802 -0.044144 -0.635543
vn -0.340201 0.065743 -0.938052
vn 0.736812 0.535191 -0.413133
vn -0.488601 -0.370677 0.789853
vn 0.883886 -0.466813 -0.028833
vn 0.944214 0.306092 0.121525
vn -0.898688 -0.300608 -0.319366
vn 0.740840 0.259730 -0.619432
vn 0.219073 -0.762361 0.608944
vn -0.641565 0.340491 0.687358
vn 0.127061 0.371727 0.919606
vn -0.731945 0.179930 0.657177
vn 0.926493 0.299322 0.228074
vn -0.204253 -0.438497 -0.875215
vn 0.879326 0.385951 0.278977
vn -0.962151 0.007186 -0.272422
vn -0.901138 0.300768 0.312231
vn 0.462307 -0.317813 0.827809
vn -0.316415 0.275308 -0.907793
vn 0.985555 0.137992 0.098181
vn 0.866403 0.151382 -0.475845
vn -0.804651 0.140658 0.576847
vn 0.599451 0.322308 -0.732650
vn -0.163577 -0.710837 0.684072
vn -0.822847 -0.541636 0.171914
vn -0.625915 -0.649595 -0.431575
vn -0.851518 -0.464716 -0.242808
vn 0.824656 -0.479135 0.300620
vn -0.352540 0.625910 -0.695667
vn 0.113307 0.358597 0.926590
vn -0.752034 0.623919 0.212532
vn 0.499425 -0.078883 -0.862758
vn -0.970056 0.048165 0.238059
vn -0.818000 0.149344 0.555493
vn -0.807383 0.008628 0.589965
vn -0.189614 -0.112356 0.975409
vn 0.074796 -0.240911 0.967661
vn 0.460456 -0.150519 0.874828
vn 0.761966 0.576005 -0.296019
vn 0.951391 0.299418 -0.072138
vn -0.647981 -0.377060 -0.661776
vn -0.625299 -0.079536 -0.776322
vn 0.029179 0.458429 0.888252
vn -0.926659 -0.125113 0.354471
vn -0.954774 -0.176110 -0.239564
vn 0.390393 -0.130224 -0.911392
vn 0.158021 0.041544 -0.986562
vn -0.261667 0.233900 0.936387
vn 0.957211 0.190079 0.218214
vn 0.891872 0.415895 0.177753
vn 0.539349 -0.160953 0.826557
vn -0.902504 -0.287020 0.321102
vn 0.285735 -0.917715 -0.275960
vn 0.733919 -0.643510 0.217390
vn -0.794260 0.317679 0.517910
vn -0.180261 0.224279 -0.957708
vn -0.963496 0.138645 -0.229029
vn 0.844924 0.057753 -0.531759
vn -0.331592 -0.109082 0.937095
vn -0.466932 0.558675 -0.685461
vn 0.758289 -0.146359 0.635277
vn -0.566549 0.596452 -0.568566
vn -0.265031 -0.834021 0.483908
vn -0.714171 -0.088864 0.694308
vn 0.609344 -0.181656 0.771816
vn 0.800470 0.348962 -0.487313
vn -0.658732 0.272900 0.701140
vn -0.161114 -0.983082 0.087127
s 1
g JungleTree:Group13624
usemtl lambert2SG
f 381/146/1 5/163/2 66/147/3
f 128/1/4 370/2/5 188/3/6
f 200/123/7 285/124/8 363/125/9
f 150/499/10 246/500/11 301/501/12
f 40/41/13 184/19/14 49/32/15
f 334/511/16 339/512/17 6/513/18
f 171/130/19 93/126/20 51/135/21
f 284/58/22 7/49/23 191/55/24
f 40/559/13 49/560/15 282/561/25
f 251/480/26 207/482/27 5/483/2
f 281/144/28 117/136/29 1/131/30
f 319/141/31 110/150/32 33/159/33
f 76/60/34 233/65/35 210/69/36
f 205/157/37 280/140/38 347/149/39
f 363/125/9 257/128/40 200/123/7
f 54/595/41 94/596/42 223/597/43
f 205/157/37 347/149/39 299/164/44
f 300/326/45 134/322/46 167/327/47
f 31/59/48 7/49/23 245/63/49
f 13/8/50 114/4/51 128/1/4
f 271/521/52 326/514/53 3/517/54
f 114/4/51 13/8/50 306/13/55
f 145/361/56 160/370/57 344/365/58
f 83/34/59 359/26/60 341/33/61
f 16/25/62 49/32/15 184/19/14
f 296/22/63 268/12/64 74/16/65
f 172/393/66 139/394/67 61/395/68
f 228/409/69 365/410/70 35/411/71
f 18/158/72 264/165/73 110/150/32
f 47/206/74 346/196/75 80/203/76
f 224/575/77 210/570/36 29/579/78
f 68/133/79 381/146/1 66/147/3
f 139/394/67 239/401/80 64/397/81
f 17/189/82 143/197/83 374/200/84
f 112/331/85 352/323/86 37/329/87
f 375/217/88 132/214/89 47/206/74
f 134/322/46 252/324/90 167/327/47
f 242/424/91 148/425/92 56/426/93
f 196/541/94 159/537/95 382/531/96
f 255/15/97 336/6/98 358/11/99
f 134/322/46 248/318/100 252/324/90
f 80/203/76 104/211/101 47/206/74
f 301/244/12 345/245/102 150/246/10
f 72/50/103 344/61/58 160/51/57
f 97/270/104 190/273/105 298/271/106
f 223/82/43 122/87/107 311/77/108
f 278/83/109 26/88/110 185/71/111
f 149/689/112 206/687/113 185/691/111
f 171/130/19 51/135/21 339/143/17
f 281/144/28 71/155/114 202/161/115
f 167/254/47 198/255/116 300/256/45
f 31/59/48 245/63/49 43/68/117
f 30/538/118 269/533/119 38/527/120
f 233/582/35 99/585/121 118/584/122
f 210/570/36 233/582/35 29/579/78
f 253/168/123 32/179/124 36/173/125
f 301/501/12 373/503/126 275/506/127
f 97/270/104 298/271/106 54/272/41
f 17/189/82 113/177/128 357/184/129
f 312/175/130 71/155/114 65/169/131
f 35/411/71 131/413/132 228/409/69
f 113/177/128 208/172/133 357/184/129
f 36/173/125 32/179/124 2/178/134
f 124/481/135 207/482/27 251/480/26
f 37/692/87 53/688/136 149/689/112
f 112/331/85 37/329/87 139/333/67
f 108/523/137 355/528/138 28/534/139
f 383/542/140 367/532/141 28/534/139
f 258/312/142 248/318/100 69/315/143
f 11/225/144 132/214/89 375/217/88
f 175/563/145 137/564/146 5/567/2
f 5/567/2 272/572/147 175/563/145
f 24/412/148 39/418/149 41/415/150
f 107/421/151 41/415/150 39/418/149
f 358/552/99 159/537/95 255/549/97
f 339/512/17 51/515/21 6/513/18
f 245/63/49 206/76/113 351/74/152
f 99/585/121 198/588/116 167/587/47
f 148/425/92 242/424/91 318/427/153
f 375/217/88 174/227/154 11/225/144
f 306/13/55 13/8/50 55/18/155
f 355/528/138 108/523/137 271/521/52
f 46/36/156 116/42/157 82/28/158
f 196/541/94 382/531/96 147/545/159
f 314/202/160 50/204/161 143/197/83
f 316/403/162 295/398/163 61/395/68
f 312/611/130 202/612/115 71/613/114
f 7/49/23 315/56/164 323/43/165
f 116/42/157 7/49/23 82/28/158
f 67/495/166 75/491/167 50/493/161
f 17/498/82 374/492/84 204/496/168
f 51/515/21 42/518/169 6/513/18
f 319/141/31 33/159/33 42/151/169
f 13/8/50 304/30/170 52/24/171
f 55/18/155 13/8/50 52/24/171
f 176/90/172 133/79/173 332/80/174
f 37/259/87 96/257/175 232/262/176
f 208/172/133 113/177/128 264/165/73
f 178/605/177 368/602/178 234/600/179
f 98/529/180 153/540/181 14/535/182
f 262/359/183 145/361/56 344/365/58
f 366/616/184 220/617/185 333/618/186
f 295/209/163 47/206/74 132/214/89
f 7/49/23 116/42/157 191/55/24
f 254/191/187 178/185/177 70/198/188
f 312/175/130 65/169/131 353/181/189
f 361/366/190 288/367/191 212/358/192
f 156/286/193 57/287/194 27/288/195
f 57/201/194 70/198/188 178/185/177
f 280/140/38 60/134/196 347/149/39
f 19/569/197 224/575/77 180/576/198
f 316/403/162 61/395/68 81/406/199
f 204/496/168 374/492/84 91/494/200
f 318/316/153 62/313/201 148/321/92
f 107/226/151 90/221/202 41/216/150
f 313/64/203 284/58/22 191/55/24
f 59/557/204 254/554/187 70/558/188
f 61/395/68 139/394/67 64/397/81
f 64/397/81 87/402/205 61/395/68
f 238/186/206 297/182/207 141/195/208
f 30/538/118 297/543/207 269/533/119
f 19/569/197 180/576/198 66/571/3
f 303/566/209 137/564/146 287/562/210
f 67/210/166 50/204/161 314/202/160
f 316/619/162 314/620/160 295/621/163
f 180/138/198 68/133/79 66/147/3
f 257/128/40 60/134/196 200/123/7
f 134/322/46 69/315/143 248/318/100
f 148/425/92 22/428/211 56/426/93
f 63/205/212 70/198/188 57/201/194
f 100/442/213 59/444/204 70/446/188
f 71/155/114 281/144/28 1/131/30
f 65/169/131 71/155/114 302/162/214
f 72/50/103 160/51/57 125/38/215
f 25/247/216 301/244/12 279/249/217
f 86/441/218 59/444/204 100/442/213
f 57/201/194 156/208/193 63/205/212
f 46/36/156 82/28/158 74/16/65
f 255/549/97 159/537/95 378/544/219
f 374/492/84 75/491/167 91/494/200
f 81/406/199 61/395/68 87/402/205
f 287/562/210 76/573/34 210/570/36
f 16/25/62 111/35/220 49/32/15
f 85/622/221 261/623/222 203/624/223
f 27/628/195 73/629/224 241/630/225
f 59/62/204 307/70/226 313/64/203
f 241/78/225 73/67/224 127/72/227
f 15/510/228 79/508/229 275/506/127
f 15/253/228 279/249/217 79/251/229
f 228/409/69 24/412/148 365/410/70
f 365/410/70 24/412/148 41/415/150
f 67/495/166 230/497/230 75/491/167
f 230/306/230 105/303/231 75/301/167
f 82/28/158 7/49/23 323/43/165
f 323/43/165 170/46/232 111/35/220
f 175/563/145 272/572/147 225/568/233
f 310/580/234 187/574/235 215/581/236
f 206/76/113 84/85/237 351/74/152
f 53/264/136 37/259/87 232/262/176
f 261/434/222 85/435/221 267/436/238
f 127/72/227 313/64/203 307/70/226
f 86/441/218 100/442/213 102/443/239
f 294/81/240 127/72/227 307/70/226
f 163/289/241 81/290/199 87/291/205
f 121/299/242 91/300/200 75/301/167
f 206/76/113 88/91/243 84/85/237
f 140/92/244 84/85/237 88/91/243
f 89/93/245 127/72/227 78/86/246
f 328/438/247 261/434/222 267/436/238
f 107/226/151 194/232/248 90/221/202
f 11/225/144 174/227/154 120/237/249
f 64/397/81 369/405/250 87/402/205
f 87/639/205 369/640/250 158/641/251
f 78/86/246 138/100/252 89/93/245
f 102/443/239 294/447/240 307/445/226
f 9/129/253 51/135/21 93/126/20
f 200/123/7 60/134/196 9/129/253
f 223/597/43 94/596/42 122/599/107
f 115/649/254 26/650/110 130/651/255
f 215/388/236 25/391/216 95/384/256
f 96/257/175 144/260/257 232/262/176
f 342/593/258 198/588/116 133/590/173
f 368/648/178 17/646/82 97/647/104
f 204/643/168 239/645/80 17/646/82
f 153/40/181 98/37/180 45/23/259
f 231/519/260 250/530/261 360/524/262
f 99/73/121 233/65/35 43/68/117
f 332/80/174 133/79/173 43/68/117
f 63/205/212 100/207/213 70/198/188
f 101/212/263 100/207/213 63/205/212
f 328/219/247 267/228/238 92/223/264
f 119/101/265 294/81/240 102/105/239
f 102/218/239 100/207/213 101/212/263
f 102/703/239 101/704/263 247/701/266
f 141/375/208 361/366/190 238/374/206
f 80/203/76 41/216/150 104/211/101
f 104/211/101 41/216/150 90/221/202
f 289/659/267 105/660/231 230/661/230
f 121/299/242 158/302/251 91/300/200
f 106/192/268 2/178/134 32/179/124
f 129/669/269 194/670/248 371/671/270
f 248/420/100 129/423/269 371/422/270
f 108/523/137 326/514/53 271/521/52
f 367/532/141 30/538/118 38/527/120
f 220/332/185 366/328/184 229/330/271
f 217/344/272 21/353/273 132/354/89
f 110/150/32 319/141/31 9/129/253
f 9/129/253 60/134/196 280/140/38
f 82/28/158 323/43/165 111/35/220
f 74/16/65 82/28/158 296/22/63
f 329/673/274 21/674/273 214/675/275
f 329/396/274 139/394/67 172/393/66
f 368/602/178 54/595/41 234/600/179
f 368/275/178 97/270/104 54/272/41
f 283/536/276 250/530/261 231/519/260
f 283/10/276 193/14/277 123/5/278
f 54/595/41 155/598/279 94/596/42
f 94/281/42 155/274/279 286/279/280
f 23/54/281 191/55/24 116/42/157
f 264/550/73 254/554/187 147/545/159
f 331/153/282 356/137/283 117/136/29
f 363/125/9 8/132/284 68/133/79
f 118/584/122 131/586/132 299/583/44
f 233/582/35 118/584/122 29/579/78
f 294/81/240 119/101/265 146/94/285
f 247/229/266 101/212/263 92/223/264
f 174/676/154 44/677/286 120/678/249
f 318/316/153 179/311/287 62/313/201
f 121/299/242 105/303/231 337/305/288
f 105/303/231 121/299/242 75/301/167
f 94/596/42 286/604/280 276/601/289
f 218/653/290 115/649/254 130/651/255
f 193/516/277 260/520/291 123/522/278
f 290/525/292 263/526/293 260/520/291
f 36/173/125 2/178/134 124/167/135
f 331/153/282 117/136/29 213/154/294
f 83/577/59 187/574/235 310/580/234
f 83/34/59 304/30/170 13/8/50
f 126/360/295 28/363/139 355/368/138
f 349/357/296 14/364/182 153/369/181
f 85/98/221 127/72/227 89/93/245
f 127/72/227 85/98/221 77/89/297
f 268/12/64 13/8/50 128/1/4
f 336/6/98 74/16/65 268/12/64
f 179/311/287 258/312/142 62/313/201
f 258/312/142 69/315/143 62/313/201
f 130/95/255 26/88/110 278/83/109
f 130/95/255 201/97/298 12/108/299
f 131/171/132 35/183/71 372/170/300
f 280/140/38 205/157/37 18/158/72
f 333/351/186 217/344/272 132/354/89
f 132/429/89 242/424/91 56/426/93
f 133/590/173 198/588/116 99/585/121
f 43/68/117 133/79/173 99/73/121
f 352/323/86 69/315/143 134/322/46
f 300/326/45 352/323/86 134/322/46
f 135/7/301 114/4/51 306/13/55
f 114/4/51 370/2/5 128/1/4
f 364/386/302 32/387/124 136/377/303
f 292/180/304 32/179/124 253/168/123
f 19/569/197 66/571/3 137/564/146
f 66/571/3 5/567/2 137/564/146
f 89/437/245 138/440/252 237/439/305
f 219/235/306 247/229/266 92/223/264
f 26/88/110 149/96/112 185/71/111
f 190/652/105 325/656/307 149/654/112
f 259/450/308 140/449/244 88/452/243
f 133/590/173 176/594/172 342/593/258
f 141/546/208 297/543/207 30/538/118
f 383/542/140 30/538/118 367/532/141
f 237/680/305 138/681/252 142/682/309
f 146/94/285 119/101/265 216/106/310
f 35/183/71 365/199/70 346/196/75
f 208/172/133 35/183/71 362/188/311
f 144/260/257 96/257/175 151/258/312
f 168/448/313 140/449/244 259/450/308
f 349/52/296 153/40/181 145/45/56
f 348/31/314 377/39/315 145/45/56
f 138/100/252 78/86/246 146/94/285
f 138/100/252 146/94/285 327/107/316
f 277/553/317 378/544/219 147/545/159
f 23/556/281 277/553/317 147/545/159
f 379/319/318 62/313/201 69/315/143
f 69/315/143 352/323/86 379/319/318
f 139/333/67 37/329/87 149/336/112
f 139/333/67 149/336/112 325/340/307
f 150/499/10 5/502/2 246/500/11
f 150/246/10 272/248/147 5/250/2
f 161/263/319 144/260/257 151/258/312
f 176/455/172 4/456/320 342/457/258
f 218/653/290 130/651/255 305/655/321
f 276/601/289 286/604/280 157/607/322
f 348/31/314 153/40/181 45/23/259
f 145/45/56 153/40/181 348/31/314
f 4/111/320 176/90/172 164/104/323
f 320/267/324 161/263/319 151/258/312
f 286/279/280 155/274/279 291/278/325
f 298/271/106 190/273/105 115/277/254
f 63/205/212 162/213/326 273/220/327
f 270/84/328 127/72/227 77/89/297
f 309/109/329 12/108/299 201/97/298
f 173/657/330 218/653/290 305/655/321
f 158/302/251 121/299/242 274/304/331
f 158/293/251 163/289/241 87/291/205
f 159/537/95 290/525/292 382/531/96
f 263/526/293 290/525/292 159/537/95
f 377/39/315 160/51/57 145/45/56
f 125/38/215 160/51/57 377/39/315
f 144/260/257 161/263/319 350/266/332
f 211/269/333 161/263/319 320/267/324
f 156/208/193 162/213/326 63/205/212
f 270/84/328 241/78/225 127/72/227
f 158/293/251 165/295/334 163/289/241
f 181/662/335 105/660/231 289/659/267
f 240/116/336 4/111/320 164/104/323
f 154/268/337 350/266/332 161/263/319
f 163/289/241 165/295/334 308/294/338
f 337/305/288 274/304/331 121/299/242
f 166/194/339 48/187/340 353/181/189
f 380/376/341 34/378/342 48/381/340
f 99/585/121 167/587/47 118/584/122
f 167/587/47 252/591/90 324/589/343
f 168/448/313 164/451/323 140/449/244
f 168/122/313 265/120/344 164/104/323
f 85/622/221 203/624/223 77/625/297
f 162/213/326 195/224/345 273/220/327
f 170/46/232 49/32/15 111/35/220
f 287/562/210 282/561/25 49/560/15
f 171/130/19 285/124/8 93/126/20
f 269/533/119 177/548/346 302/551/214
f 329/396/274 172/393/66 21/400/273
f 295/398/163 132/407/89 21/400/273
f 309/109/329 186/117/347 12/108/299
f 183/285/348 157/283/322 152/282/349
f 375/217/88 90/221/202 174/227/154
f 330/233/350 174/227/154 90/221/202
f 40/559/13 282/561/25 175/563/145
f 175/563/145 225/568/233 341/565/61
f 164/104/323 176/90/172 140/92/244
f 140/92/244 176/90/172 332/80/174
f 65/169/131 302/162/214 177/176/346
f 238/186/206 65/169/131 297/182/207
f 264/550/73 147/545/159 382/531/96
f 33/159/33 110/150/32 264/165/73
f 44/320/286 179/311/287 318/316/153
f 194/232/248 330/233/350 90/221/202
f 60/134/196 340/139/351 10/148/352
f 340/139/351 60/134/196 257/128/40
f 197/664/353 105/660/231 181/662/335
f 20/297/354 308/294/338 165/295/334
f 192/99/355 270/84/328 77/89/297
f 77/625/297 203/624/223 189/626/356
f 183/610/348 293/609/357 157/607/322
f 173/657/330 338/658/358 218/653/290
f 268/12/64 184/19/14 13/8/50
f 359/26/60 83/34/59 13/8/50
f 278/83/109 185/71/111 311/77/108
f 284/58/22 245/63/49 7/49/23
f 186/117/347 173/118/330 12/108/299
f 293/460/357 338/461/358 173/462/330
f 215/581/236 187/574/235 25/578/216
f 150/246/10 345/245/102 272/248/147
f 123/5/278 188/3/6 370/2/5
f 263/9/293 159/20/95 358/11/99
f 169/230/359 317/241/360 189/242/356
f 77/89/297 244/103/361 192/99/355
f 26/650/110 190/652/105 149/654/112
f 190/652/105 26/650/110 115/649/254
f 23/54/281 59/62/204 191/55/24
f 59/62/204 313/64/203 191/55/24
f 235/110/362 192/99/355 244/103/361
f 169/230/359 195/224/345 182/236/363
f 193/516/277 334/511/16 6/513/18
f 283/10/276 231/21/260 193/14/277
f 44/464/286 194/465/248 179/466/287
f 343/672/364 194/670/248 129/669/269
f 226/637/365 195/635/345 192/636/355
f 195/635/345 270/634/328 192/636/355
f 46/36/156 378/27/219 277/48/317
f 74/683/65 378/684/219 46/685/156
f 181/662/335 227/666/366 197/664/353
f 337/305/288 221/308/367 274/304/331
f 151/258/312 96/257/175 198/255/116
f 300/256/45 198/255/116 96/257/175
f 344/365/58 72/379/103 199/373/368
f 72/50/103 310/44/234 199/57/368
f 93/126/20 200/123/7 9/129/253
f 285/124/8 200/123/7 93/126/20
f 201/97/298 130/95/255 278/83/109
f 122/599/107 94/596/42 276/601/289
f 202/612/115 48/614/340 34/615/342
f 292/180/304 253/168/123 34/174/342
f 203/231/223 169/230/359 189/242/356
f 273/220/327 195/224/345 169/230/359
f 204/643/168 64/644/81 239/645/80
f 369/640/250 64/644/81 204/643/168
f 299/164/44 131/171/132 205/157/37
f 372/170/300 205/157/37 131/171/132
f 53/688/136 206/687/113 149/689/112
f 88/686/243 206/687/113 53/688/136
f 246/500/11 5/502/2 207/504/27
f 124/509/135 2/505/134 207/504/27
f 18/158/72 208/172/133 264/165/73
f 205/157/37 372/170/300 18/158/72
f 136/377/303 209/382/369 364/386/302
f 209/382/369 15/385/228 275/389/127
f 210/570/36 224/575/77 19/569/197
f 287/562/210 210/570/36 303/566/209
f 154/268/337 161/263/319 211/269/333
f 240/116/336 164/104/323 265/120/344
f 212/358/192 288/367/191 28/363/139
f 212/358/192 28/363/139 126/360/295
f 124/167/135 213/154/294 376/160/370
f 281/144/28 253/168/123 376/160/370
f 21/353/273 217/344/272 214/349/275
f 214/337/275 249/339/371 229/330/271
f 95/384/256 199/373/368 215/388/236
f 215/388/236 199/373/368 310/390/234
f 216/106/310 327/107/316 146/94/285
f 142/243/309 219/235/306 237/234/305
f 217/344/272 333/351/186 220/347/185
f 214/349/275 217/344/272 222/346/372
f 291/278/325 218/280/290 152/282/349
f 218/280/290 338/284/358 152/282/349
f 219/468/306 142/469/309 216/470/310
f 219/235/306 216/240/310 247/229/266
f 109/335/373 220/332/185 229/330/271
f 220/347/185 243/345/374 217/344/272
f 221/308/367 337/305/288 227/309/366
f 322/298/375 20/297/354 165/295/334
f 249/693/371 214/694/275 222/695/372
f 220/332/185 109/335/373 321/338/376
f 234/600/179 54/595/41 223/597/43
f 234/600/179 223/597/43 27/603/195
f 224/156/77 299/164/44 10/148/352
f 10/148/352 340/139/351 224/156/77
f 341/33/61 225/47/233 83/34/59
f 187/574/235 83/577/59 225/568/233
f 226/637/365 182/638/363 195/635/345
f 189/697/356 317/698/360 235/699/362
f 20/668/354 227/666/366 181/662/335
f 322/471/375 227/472/366 20/473/354
f 118/416/122 228/409/69 131/413/132
f 167/587/47 324/589/343 118/584/122
f 352/323/86 112/331/85 229/330/271
f 329/334/274 214/337/275 229/330/271
f 81/663/199 289/659/267 230/661/230
f 230/661/230 316/665/162 81/663/199
f 193/516/277 231/519/260 334/511/16
f 3/517/54 231/519/260 360/524/262
f 88/452/243 232/454/176 259/450/308
f 88/686/243 53/688/136 232/690/176
f 43/68/117 233/65/35 31/59/48
f 315/56/164 233/65/35 76/60/34
f 178/605/177 234/600/179 57/606/194
f 57/606/194 234/600/179 27/603/195
f 226/114/365 192/99/355 235/110/362
f 235/474/362 182/475/363 226/476/365
f 249/693/371 222/695/372 266/696/377
f 217/344/272 243/345/374 222/346/372
f 92/223/264 237/234/305 219/235/306
f 92/223/264 267/228/238 237/234/305
f 58/371/378 238/374/206 361/366/190
f 353/380/189 58/371/378 166/372/339
f 239/401/80 139/394/67 325/404/307
f 97/647/104 17/646/82 239/645/80
f 240/116/336 211/119/333 4/111/320
f 211/485/333 240/487/336 265/486/344
f 241/630/225 162/633/326 156/632/193
f 156/632/193 27/628/195 241/630/225
f 11/432/144 242/424/91 132/429/89
f 120/430/249 242/424/91 11/432/144
f 256/348/379 222/346/372 243/345/374
f 354/341/380 321/338/376 109/335/373
f 189/115/356 235/110/362 244/103/361
f 189/626/356 244/627/361 77/625/297
f 185/71/111 206/76/113 245/63/49
f 185/71/111 245/63/49 27/66/195
f 2/505/134 246/500/11 207/504/27
f 373/503/126 2/505/134 106/507/268
f 102/703/239 247/701/266 119/700/265
f 119/700/265 247/701/266 216/702/310
f 252/414/90 248/420/100 39/418/149
f 248/420/100 371/422/270 39/418/149
f 109/335/373 229/330/271 249/339/371
f 236/342/381 109/335/373 249/339/371
f 250/17/261 45/23/259 360/29/262
f 135/7/301 306/13/55 250/17/261
f 356/478/283 331/479/282 251/480/26
f 8/132/284 381/146/1 68/133/79
f 228/409/69 252/414/90 24/412/148
f 24/412/148 252/414/90 39/418/149
f 34/174/342 253/168/123 202/161/115
f 202/161/115 253/168/123 281/144/28
f 23/556/281 254/554/187 59/557/204
f 147/545/159 254/554/187 23/556/281
f 255/15/97 378/27/219 74/16/65
f 255/15/97 74/16/65 336/6/98
f 222/346/372 256/348/379 266/352/377
f 321/350/376 354/355/380 256/348/379
f 68/133/79 180/138/198 257/128/40
f 363/125/9 68/133/79 257/128/40
f 129/317/269 258/312/142 343/314/364
f 129/317/269 248/318/100 258/312/142
f 350/266/332 259/265/308 144/260/257
f 232/262/176 144/260/257 259/265/308
f 193/516/277 6/513/18 260/520/291
f 6/513/18 42/518/169 260/520/291
f 63/205/212 273/220/327 261/222/222
f 63/205/212 261/222/222 328/219/247
f 349/357/296 145/361/56 262/359/183
f 123/522/278 260/520/291 263/526/293
f 188/3/6 123/5/278 263/9/293
f 113/177/128 178/185/177 264/165/73
f 264/165/73 178/185/177 254/191/187
f 350/705/332 154/706/337 265/707/344
f 154/484/337 211/485/333 265/486/344
f 354/355/380 266/352/377 256/348/379
f 266/343/377 236/342/381 249/339/371
f 237/439/305 267/436/238 89/437/245
f 85/435/221 89/437/245 267/436/238
f 16/25/62 184/19/14 268/12/64
f 296/22/63 16/25/62 268/12/64
f 171/130/19 269/142/119 1/131/30
f 326/514/53 269/533/119 171/539/19
f 270/634/328 162/633/326 241/630/225
f 195/635/345 162/633/326 270/634/328
f 360/524/262 271/521/52 3/517/54
f 14/535/182 271/521/52 98/529/180
f 272/572/147 25/578/216 187/574/235
f 187/574/235 225/568/233 272/572/147
f 169/230/359 203/231/223 273/220/327
f 203/231/223 261/222/222 273/220/327
f 165/709/334 158/710/251 274/711/331
f 274/711/331 322/712/375 165/709/334
f 209/382/369 275/389/127 364/386/302
f 275/506/127 373/503/126 106/507/268
f 201/97/298 276/102/289 309/109/329
f 122/87/107 276/102/289 201/97/298
f 46/36/156 277/48/317 116/42/157
f 116/42/157 277/48/317 23/54/281
f 122/87/107 278/83/109 311/77/108
f 278/83/109 122/87/107 201/97/298
f 25/247/216 279/249/217 95/252/256
f 15/253/228 95/252/256 279/249/217
f 110/150/32 9/129/253 280/140/38
f 110/150/32 280/140/38 18/158/72
f 376/160/370 213/154/294 281/144/28
f 213/154/294 117/136/29 281/144/28
f 137/564/146 175/563/145 282/561/25
f 287/562/210 137/564/146 282/561/25
f 283/10/276 135/7/301 250/17/261
f 283/10/276 123/5/278 370/2/5
f 284/631/22 73/629/224 27/628/195
f 27/66/195 245/63/49 284/58/22
f 285/124/8 171/130/19 1/131/30
f 1/131/30 335/127/382 285/124/8
f 286/279/280 291/278/325 152/282/349
f 152/282/349 157/283/322 286/279/280
f 323/43/165 287/53/210 170/46/232
f 170/46/232 287/53/210 49/32/15
f 288/367/191 361/366/190 141/375/208
f 383/542/140 28/534/139 288/547/191
f 81/290/199 163/289/241 289/292/267
f 289/292/267 163/289/241 308/294/338
f 260/520/291 42/518/169 290/525/292
f 42/518/169 382/531/96 290/525/292
f 115/277/254 218/280/290 291/278/325
f 298/271/106 115/277/254 291/278/325
f 32/387/124 292/383/304 136/377/303
f 309/109/329 293/121/357 186/117/347
f 293/121/357 173/118/330 186/117/347
f 78/86/246 294/81/240 146/94/285
f 78/86/246 127/72/227 294/81/240
f 21/400/273 172/393/66 295/398/163
f 61/395/68 295/398/163 172/393/66
f 82/28/158 111/35/220 296/22/63
f 296/22/63 111/35/220 16/25/62
f 297/182/207 65/169/131 177/176/346
f 177/548/346 269/533/119 297/543/207
f 291/278/325 155/274/279 298/271/106
f 54/272/41 298/271/106 155/274/279
f 224/575/77 29/579/78 299/583/44
f 29/579/78 118/584/122 299/583/44
f 37/329/87 352/323/86 300/326/45
f 37/259/87 300/256/45 96/257/175
f 275/506/127 79/508/229 301/501/12
f 301/244/12 79/251/229 279/249/217
f 269/533/119 302/551/214 1/555/30
f 302/162/214 71/155/114 1/131/30
f 210/570/36 19/569/197 303/566/209
f 303/566/209 19/569/197 137/564/146
f 304/30/170 125/38/215 52/24/171
f 83/34/59 310/44/234 304/30/170
f 305/113/321 130/95/255 12/108/299
f 173/118/330 305/113/321 12/108/299
f 45/23/259 306/13/55 55/18/155
f 250/17/261 306/13/55 45/23/259
f 86/75/218 307/70/226 59/62/204
f 86/441/218 102/443/239 307/445/226
f 308/294/338 20/297/354 181/296/335
f 181/296/335 289/292/267 308/294/338
f 157/607/322 293/609/357 309/608/329
f 309/608/329 276/601/289 157/607/322
f 310/44/234 125/38/215 304/30/170
f 310/44/234 72/50/103 125/38/215
f 27/66/195 223/82/43 311/77/108
f 27/66/195 311/77/108 185/71/111
f 202/612/115 312/611/130 48/614/340
f 312/175/130 353/181/189 48/187/340
f 73/67/224 313/64/203 127/72/227
f 313/64/203 73/67/224 284/58/22
f 295/209/163 314/202/160 47/206/74
f 314/202/160 346/196/75 47/206/74
f 31/59/48 233/65/35 315/56/164
f 31/59/48 315/56/164 7/49/23
f 316/665/162 230/661/230 67/667/166
f 67/210/166 314/202/160 316/215/162
f 317/241/360 169/230/359 182/236/363
f 317/477/360 182/475/363 235/474/362
f 44/677/286 318/679/153 120/678/249
f 120/430/249 318/427/153 242/424/91
f 51/135/21 319/141/31 42/151/169
f 319/141/31 51/135/21 9/129/253
f 342/457/258 4/456/320 320/458/324
f 4/714/320 211/715/333 320/716/324
f 256/348/379 243/345/374 321/350/376
f 220/347/185 321/350/376 243/345/374
f 221/308/367 227/309/366 322/310/375
f 274/711/331 221/713/367 322/712/375
f 323/43/165 76/60/34 287/53/210
f 323/43/165 315/56/164 76/60/34
f 324/589/343 228/592/69 118/584/122
f 324/417/343 252/414/90 228/409/69
f 325/276/307 190/273/105 97/270/104
f 325/404/307 97/408/104 239/401/80
f 269/533/119 326/514/53 38/527/120
f 108/523/137 38/527/120 326/514/53
f 142/112/309 138/100/252 327/107/316
f 216/106/310 142/112/309 327/107/316
f 328/219/247 92/223/264 101/212/263
f 101/212/263 63/205/212 328/219/247
f 112/331/85 329/334/274 229/330/271
f 329/396/274 112/399/85 139/394/67
f 194/232/248 44/239/286 330/233/350
f 44/239/286 174/227/154 330/233/350
f 124/481/135 251/480/26 331/479/282
f 213/154/294 124/167/135 331/153/282
f 332/80/174 351/74/152 84/85/237
f 140/92/244 332/80/174 84/85/237
f 56/356/93 333/351/186 132/354/89
f 333/431/186 56/426/93 22/428/211
f 3/517/54 334/511/16 231/519/260
f 3/517/54 326/514/53 334/511/16
f 117/136/29 335/127/382 1/131/30
f 117/136/29 356/137/283 335/127/382
f 128/1/4 188/3/6 336/6/98
f 268/12/64 128/1/4 336/6/98
f 197/307/353 337/305/288 105/303/231
f 227/309/366 337/305/288 197/307/353
f 152/282/349 338/284/358 183/285/348
f 183/463/348 338/461/358 293/460/357
f 334/511/16 326/514/53 339/512/17
f 326/152/53 171/130/19 339/143/17
f 224/156/77 340/139/351 180/138/198
f 257/128/40 180/138/198 340/139/351
f 40/41/13 341/33/61 184/19/14
f 341/565/61 40/559/13 175/563/145
f 342/261/258 151/258/312 198/255/116
f 151/459/312 342/457/258 320/458/324
f 343/467/364 179/466/287 194/465/248
f 179/311/287 343/314/364 258/312/142
f 345/245/102 301/244/12 25/247/216
f 345/245/102 25/247/216 272/248/147
f 143/197/83 346/196/75 314/202/160
f 357/184/129 208/172/133 362/188/311
f 299/164/44 347/149/39 10/148/352
f 347/149/39 60/134/196 10/148/352
f 55/18/155 52/24/171 348/31/314
f 45/23/259 55/18/155 348/31/314
f 14/364/182 349/357/296 126/360/295
f 212/358/192 126/360/295 349/357/296
f 350/453/332 168/448/313 259/450/308
f 168/708/313 350/705/332 265/707/344
f 43/68/117 245/63/49 351/74/152
f 332/80/174 43/68/117 351/74/152
f 22/325/211 379/319/318 352/323/86
f 333/431/186 22/428/211 366/433/184
f 353/181/189 238/186/206 58/193/378
f 238/186/206 353/181/189 65/169/131
f 236/342/381 354/341/380 109/335/373
f 354/488/380 236/489/381 266/490/377
f 14/535/182 355/528/138 271/521/52
f 355/368/138 14/364/182 126/360/295
f 251/145/26 8/132/284 356/137/283
f 335/127/382 356/137/283 8/132/284
f 17/189/82 357/184/129 143/197/83
f 357/184/129 362/188/311 143/197/83
f 263/9/293 358/11/99 188/3/6
f 358/11/99 336/6/98 188/3/6
f 184/19/14 359/26/60 13/8/50
f 184/19/14 341/33/61 359/26/60
f 45/23/259 98/37/180 360/29/262
f 98/529/180 271/521/52 360/524/262
f 103/362/383 58/371/378 361/366/190
f 346/196/75 362/188/311 35/183/71
f 143/197/83 362/188/311 346/196/75
f 335/127/382 8/132/284 363/125/9
f 285/124/8 335/127/382 363/125/9
f 106/392/268 32/387/124 364/386/302
f 275/389/127 106/392/268 364/386/302
f 365/199/70 80/203/76 346/196/75
f 80/419/76 365/410/70 41/415/150
f 366/328/184 352/323/86 229/330/271
f 366/328/184 22/325/211 352/323/86
f 367/532/141 38/527/120 108/523/137
f 367/532/141 108/523/137 28/534/139
f 368/190/178 113/177/128 17/189/82
f 178/185/177 113/177/128 368/190/178
f 91/642/200 369/640/250 204/643/168
f 158/641/251 369/640/250 91/642/200
f 370/2/5 135/7/301 283/10/276
f 370/2/5 114/4/51 135/7/301
f 107/226/151 371/238/270 194/232/248
f 371/422/270 107/421/151 39/418/149
f 208/172/133 372/170/300 35/183/71
f 208/172/133 18/158/72 372/170/300
f 2/505/134 373/503/126 246/500/11
f 301/501/12 246/500/11 373/503/126
f 50/204/161 374/200/84 143/197/83
f 75/491/167 374/492/84 50/493/161
f 375/217/88 104/211/101 90/221/202
f 47/206/74 104/211/101 375/217/88
f 36/173/125 376/160/370 253/168/123
f 36/173/125 124/167/135 376/160/370
f 377/39/315 52/24/171 125/38/215
f 52/24/171 377/39/315 348/31/314
f 196/541/94 147/545/159 378/544/219
f 378/544/219 159/537/95 196/541/94
f 62/313/201 379/319/318 148/321/92
f 379/319/318 22/325/211 148/321/92
f 48/381/340 166/372/339 380/376/341
f 251/145/26 381/146/1 8/132/284
f 381/146/1 251/145/26 5/163/2
f 382/166/96 42/151/169 33/159/33
f 382/166/96 33/159/33 264/165/73
f 141/546/208 383/542/140 288/547/191
f 383/542/140 141/546/208 30/538/118
