# This file uses centimeters as units for non-parametric coordinates.

mtllib M_Palm2.1.mtl
g default
v 3.234415 -9.155533 -1.477516
v 2.653416 -9.646264 -1.033404
v 2.322611 -9.479537 -0.381139
v 2.307520 -9.542866 0.350087
v 2.611132 -9.536800 1.015445
v 3.173311 -9.462542 1.483152
v 3.882715 -9.248409 1.660577
v 4.598835 -9.137550 1.512573
v 5.179834 -9.223850 1.068459
v 5.510639 -9.418287 0.416195
v 5.525730 -9.418287 -0.315032
v 5.222118 -9.263533 -0.980390
v 4.659939 -9.128273 -1.448096
v 3.950535 -9.141903 -1.625518
v 3.300776 -6.559877 -1.177979
v 2.836906 -6.660012 -0.829252
v 2.588778 -6.758192 -0.312928
v 2.617250 -6.860767 0.268925
v 2.872646 -6.850478 0.800315
v 3.256205 -6.623328 1.175171
v 3.818712 -6.503304 1.321411
v 4.129028 -5.810429 1.204618
v 4.503958 -5.514531 0.854374
v 4.741682 -5.393450 0.337874
v 4.850937 -5.594024 -0.241630
v 4.629560 -5.679189 -0.772441
v 4.301397 -6.028271 -1.146353
v 3.839600 -6.369967 -1.290875
v 1.574619 -3.778011 -1.072727
v 1.242224 -4.021292 -0.761081
v 1.170626 -4.425128 -0.299819
v 1.100956 -4.301031 0.212887
v 1.197828 -4.009679 0.679252
v 1.518780 -3.779759 1.008822
v 1.977699 -3.565070 1.135793
v 2.391710 -3.277932 1.032660
v 2.775246 -3.190125 0.722255
v 2.823555 -2.734385 0.260412
v 2.837345 -2.733953 -0.253688
v 2.717455 -2.974009 -0.720629
v 2.354973 -3.113940 -1.008925
v 1.947100 -3.400886 -1.134588
v -1.387283 -1.835766 -1.092527
v -1.712662 -2.029182 -0.801469
v -1.971527 -1.952671 -0.342789
v -1.981380 -1.952671 0.134598
v -1.858816 -1.728792 0.567423
v -1.545723 -1.535376 0.871658
v -1.026405 -1.529212 0.988650
v -0.626135 -1.288026 0.890637
v -0.407118 -0.903085 0.597384
v -0.221077 -0.795746 0.170928
v -0.176924 -0.883177 -0.305751
v -0.247158 -1.176132 -0.737496
v -0.692604 -1.096502 -1.044463
v -1.088491 -1.337688 -1.158908
v -2.814001 1.826388 -0.980283
v -3.160711 1.798259 -0.722916
v -3.399952 1.538389 -0.345605
v -3.382940 1.688329 0.079007
v -3.185236 1.798259 0.465337
v -2.863926 1.742086 0.736490
v -2.470900 1.599286 0.839009
v -2.061476 1.529240 0.753053
v -1.754084 1.328547 0.494873
v -1.508352 1.626204 0.117698
v -1.499599 1.626204 -0.306385
v -1.701941 1.489278 -0.692810
v -2.023252 1.545450 -0.963963
v -2.404579 1.756342 -1.066239
v -2.635118 5.084248 -0.843905
v -2.925165 5.132807 -0.622621
v -3.060482 5.222048 -0.298044
v -3.014261 5.334295 0.065540
v -2.915476 5.202076 0.393644
v -2.776508 4.960596 0.621433
v -2.574116 4.591633 0.704839
v -2.134407 4.606249 0.631756
v -1.858253 4.519461 0.410186
v -1.722939 4.430222 0.085608
v -1.755262 4.356203 -0.277688
v -1.973312 4.342537 -0.608253
v -2.164412 4.571636 -0.837119
v -2.354967 4.866602 -0.920280
v -0.236780 7.610403 -0.724880
v -0.479967 7.699253 -0.526483
v -0.594551 7.839380 -0.242299
v -0.614153 7.790586 0.083549
v -0.509184 7.659409 0.379659
v -0.274389 7.570560 0.587918
v 0.026823 7.477568 0.666733
v 0.335749 7.402456 0.600510
v 0.578936 7.313608 0.402115
v 0.718607 7.268003 0.111055
v 0.653576 7.198423 -0.166811
v 0.493845 7.086697 -0.513776
v 0.325956 7.429178 -0.720657
v 0.086843 7.590431 -0.798188
v 0.675680 10.425259 -0.704197
v 0.423037 10.543327 -0.511041
v 0.279186 10.570827 -0.227356
v 0.272623 10.570827 0.090672
v 0.404644 10.543327 0.380051
v 0.649103 10.387337 0.583467
v 0.957582 10.440010 0.660631
v 1.268984 10.566902 0.596261
v 1.521627 10.472950 0.403104
v 1.665478 10.280193 0.119418
v 1.672041 10.469612 -0.198610
v 1.540018 10.465866 -0.487989
v 1.295559 10.566902 -0.691404
v 0.987080 10.433674 -0.768568
v 1.012592 13.648579 -0.615757
v 0.794956 13.648579 -0.449428
v 0.671040 13.648579 -0.205139
v 0.665388 13.648579 0.068722
v 0.779119 13.648579 0.317914
v 0.989708 13.648579 0.493081
v 1.255445 13.648579 0.559532
v 1.523697 13.648579 0.504102
v 1.741333 13.648579 0.337772
v 1.865250 13.648579 0.093485
v 1.870901 13.648579 -0.180376
v 1.757170 13.648579 -0.429570
v 1.546581 13.648579 -0.604737
v 1.280844 13.648579 -0.671188
v 1.098743 13.925224 -0.426996
v 0.954475 13.925224 -0.316737
v 0.872335 13.925224 -0.154804
v 0.868587 13.925224 0.026733
v 0.943979 13.925224 0.191919
v 1.083574 13.925224 0.308035
v 1.259726 13.925224 0.352083
v 1.437546 13.925224 0.315340
v 1.581814 13.925224 0.205083
v 1.663956 13.925224 0.043149
v 1.667702 13.925224 -0.138388
v 1.592312 13.925224 -0.303573
v 1.452715 13.925224 -0.419691
v 1.276564 13.925224 -0.463738
v 1.268145 14.068935 -0.055827
v 2.301277 -12.403879 -2.167321
v 1.457064 -12.403879 -1.522127
v 2.395140 -10.044088 -1.253762
v 3.098042 -9.454247 -1.791059
v 0.976391 -12.403879 -0.574532
v 1.994925 -9.832855 -0.464644
v 0.954466 -12.403879 0.487774
v 1.976667 -9.845146 0.420003
v 1.395630 -12.403879 1.454391
v 2.343981 -9.837808 1.224962
v 2.212507 -12.403879 2.133871
v 3.024117 -9.582020 1.790802
v 3.243301 -12.403879 2.391631
v 3.882362 -9.365028 2.005452
v 4.283852 -12.403879 2.176620
v 4.748735 -9.251308 1.826395
v 5.128069 -12.403879 1.531424
v 5.451637 -9.335316 1.289100
v 5.608738 -12.403879 0.583831
v 5.851851 -9.528481 0.499981
v 5.630662 -12.403879 -0.478476
v 5.870108 -9.707716 -0.384667
v 5.189499 -12.403879 -1.445096
v 5.502794 -9.554235 -1.189626
v 4.372623 -12.403879 -2.124572
v 4.822659 -9.421268 -1.755466
v 3.341827 -12.403879 -2.382334
v 3.964413 -9.437757 -1.970116
v 2.740955 -6.870173 -1.007012
v 3.357201 -6.866163 -1.429251
v 2.423603 -6.953495 -0.380781
v 2.480009 -7.126064 0.325621
v 2.817612 -7.174558 0.970887
v 3.284569 -6.902329 1.425767
v 3.953054 -6.725727 1.602977
v 4.291157 -5.800383 1.460602
v 4.753935 -5.458584 1.035747
v 5.042393 -5.311662 0.409021
v 5.234993 -5.687172 -0.293132
v 4.969313 -5.796988 -0.937172
v 4.557753 -6.191148 -1.391108
v 4.096470 -6.823816 -1.564784
v 1.279074 -4.280992 -0.870165
v 1.663008 -4.002587 -1.229286
v 1.177710 -4.704359 -0.339069
v 1.105936 -4.580328 0.251992
v 1.176262 -4.152502 0.788407
v 1.546131 -3.887538 1.168206
v 2.067215 -3.629116 1.314331
v 2.596855 -3.415277 1.196790
v 3.031927 -3.292344 0.838907
v 3.110004 -2.817075 0.307232
v 3.125898 -2.816578 -0.285224
v 2.980028 -3.076044 -0.823525
v 2.568628 -3.251019 -1.162051
v 2.098589 -3.581698 -1.306866
v -1.199240 -2.285660 -1.294299
v -1.593828 -2.520218 -0.941333
v -1.976465 -2.251918 -0.393682
v -1.988413 -2.251918 0.185246
v -1.830053 -2.005209 0.710334
v -1.450367 -1.770652 1.079280
v -0.846842 -1.713189 1.220615
v -0.361431 -1.420700 1.101755
v -0.073206 -0.994617 0.746592
v 0.152405 -0.864449 0.229429
v 0.198654 -0.951880 -0.348791
v 0.092625 -1.267667 -0.872800
v -0.419416 -1.229176 -1.244477
v -0.899511 -1.521664 -1.383265
v -2.933752 1.636577 -1.161752
v -3.349699 1.620152 -0.850687
v -3.649469 1.244020 -0.394964
v -3.605610 1.560822 0.118623
v -3.366154 1.696872 0.585474
v -2.977879 1.628993 0.913137
v -2.513521 1.394876 1.036803
v -2.018774 1.310233 0.932932
v -1.642141 1.097836 0.621054
v -1.341797 1.477324 0.165344
v -1.331221 1.477324 -0.347119
v -1.601282 1.163157 -0.814602
v -1.989557 1.231036 -1.142266
v -2.439003 1.551933 -1.265624
v -2.803900 5.036118 -1.003181
v -3.215519 4.964582 -0.740037
v -3.373014 5.080296 -0.350755
v -3.203083 5.333714 0.093280
v -3.074419 5.192144 0.488468
v -2.885885 4.924314 0.763998
v -2.711838 4.393261 0.859686
v -2.222212 4.407009 0.772842
v -1.841803 4.404875 0.509055
v -1.684309 4.289160 0.119773
v -1.753424 4.139082 -0.317330
v -1.967512 4.204027 -0.714280
v -2.208179 4.459476 -0.990886
v -2.466211 4.776108 -1.093159
v -0.416447 7.400185 -0.895827
v -0.716532 7.518860 -0.648272
v -0.824739 7.822124 -0.291323
v -0.845194 7.774975 0.115055
v -0.747211 7.487148 0.483530
v -0.456581 7.370523 0.743052
v -0.045450 7.392925 0.841919
v 0.304182 7.168665 0.758475
v 0.604269 7.049992 0.510919
v 0.775990 6.986921 0.147889
v 0.711811 6.915695 -0.210509
v 0.521566 6.818472 -0.630613
v 0.322182 7.280993 -0.888252
v 0.012968 7.477793 -0.985015
v 0.617727 10.276905 -0.830434
v 0.316038 10.439312 -0.599780
v 0.144262 10.466084 -0.261024
v 0.136425 10.466084 0.118743
v 0.294077 10.393665 0.464300
v 0.585993 10.289658 0.707205
v 0.954357 10.343967 0.799349
v 1.326210 10.421818 0.722483
v 1.627899 10.329174 0.491828
v 1.799675 10.137146 0.153070
v 1.807512 10.326565 -0.226697
v 1.649860 10.322094 -0.572252
v 1.357943 10.421818 -0.815157
v 0.989580 10.286953 -0.907301
vt 0.217748 0.008640
vt 0.186070 0.008640
vt 0.170958 0.094500
vt 0.196518 0.115961
vt 0.145587 0.008640
vt 0.141830 0.102185
vt 0.100655 0.008640
vt 0.104412 0.101738
vt 0.060173 0.008640
vt 0.075314 0.097751
vt 0.028477 0.008640
vt 0.048304 0.107058
vt 0.005566 0.008640
vt 0.022451 0.119207
vt 0.418345 0.992883
vt 0.395334 0.992900
vt 0.379433 0.885831
vt 0.400702 0.881383
vt 0.360837 0.992925
vt 0.349811 0.888936
vt 0.318734 0.992956
vt 0.314752 0.892704
vt 0.272003 0.992991
vt 0.275837 0.894051
vt 0.229900 0.993022
vt 0.240772 0.888445
vt 0.197788 0.993046
vt 0.213529 0.883585
vt 0.172211 0.993065
vt 0.189692 0.884208
vt 0.240843 0.008640
vt 0.223958 0.116561
vt 0.166451 0.108974
vt 0.161333 0.206975
vt 0.181524 0.202398
vt 0.189398 0.126829
vt 0.138586 0.115041
vt 0.134458 0.208830
vt 0.107657 0.112736
vt 0.109525 0.206540
vt 0.079791 0.112957
vt 0.085616 0.199687
vt 0.056827 0.115659
vt 0.063337 0.201560
vt 0.037032 0.123450
vt 0.039501 0.197304
vt 0.365760 0.873062
vt 0.363389 0.795536
vt 0.382911 0.802631
vt 0.385534 0.877115
vt 0.340346 0.876247
vt 0.335326 0.778079
vt 0.311371 0.883404
vt 0.307374 0.777407
vt 0.279204 0.883428
vt 0.282142 0.786976
vt 0.250219 0.877770
vt 0.259067 0.788900
vt 0.227184 0.872824
vt 0.236753 0.795721
vt 0.204848 0.873340
vt 0.207368 0.807395
vt 0.206907 0.192710
vt 0.209377 0.127325
vt 0.176552 0.213329
vt 0.157562 0.216903
vt 0.159778 0.308832
vt 0.181268 0.313004
vt 0.135413 0.217253
vt 0.137417 0.294297
vt 0.110830 0.213277
vt 0.108825 0.299963
vt 0.088681 0.209638
vt 0.087485 0.313241
vt 0.069673 0.211293
vt 0.065977 0.316828
vt 0.051290 0.206766
vt 0.042281 0.319199
vt 0.370643 0.793097
vt 0.352328 0.774643
vt 0.355418 0.680574
vt 0.379929 0.679696
vt 0.331023 0.770373
vt 0.331518 0.683200
vt 0.307987 0.769820
vt 0.309995 0.666174
vt 0.282426 0.778048
vt 0.280258 0.666196
vt 0.259390 0.777413
vt 0.257940 0.673392
vt 0.240478 0.784011
vt 0.238545 0.672894
vt 0.219614 0.788395
vt 0.212285 0.677426
vt 0.195119 0.211539
vt 0.202087 0.321573
vt 0.156760 0.394553
vt 0.175691 0.397351
vt 0.177013 0.322944
vt 0.157880 0.319247
vt 0.135365 0.408575
vt 0.135527 0.304975
vt 0.110878 0.408575
vt 0.110716 0.310641
vt 0.091955 0.414682
vt 0.088362 0.319830
vt 0.073007 0.417480
vt 0.069212 0.322944
vt 0.051506 0.411368
vt 0.050778 0.323221
vt 0.345516 0.584704
vt 0.370266 0.586746
vt 0.371089 0.675646
vt 0.352731 0.671744
vt 0.324269 0.573929
vt 0.331284 0.674847
vt 0.307790 0.570917
vt 0.308023 0.658088
vt 0.282325 0.574383
vt 0.282219 0.658108
vt 0.259387 0.583621
vt 0.258975 0.665039
vt 0.240526 0.575355
vt 0.242032 0.664060
vt 0.219684 0.578889
vt 0.221115 0.667991
vt 0.194903 0.419269
vt 0.193590 0.330922
vt 0.150611 0.532516
vt 0.167789 0.535628
vt 0.169088 0.415032
vt 0.152836 0.412725
vt 0.131082 0.517239
vt 0.133217 0.418631
vt 0.112283 0.528935
vt 0.113025 0.418631
vt 0.095893 0.534504
vt 0.094833 0.424466
vt 0.078698 0.534504
vt 0.078563 0.426773
vt 0.057823 0.529830
vt 0.061157 0.420049
vt 0.343498 0.467291
vt 0.363607 0.467276
vt 0.360222 0.577999
vt 0.342934 0.575110
vt 0.324086 0.472687
vt 0.324472 0.564828
vt 0.306246 0.460710
vt 0.305551 0.563551
vt 0.283703 0.460727
vt 0.284553 0.567013
vt 0.266588 0.470297
vt 0.265639 0.575973
vt 0.249556 0.470310
vt 0.249563 0.567210
vt 0.226167 0.461530
vt 0.229714 0.570127
vt 0.188586 0.535628
vt 0.185252 0.427950
vt 0.148927 0.642667
vt 0.161630 0.649102
vt 0.163098 0.543195
vt 0.148251 0.540083
vt 0.132331 0.644063
vt 0.132090 0.529338
vt 0.113706 0.653295
vt 0.114153 0.534874
vt 0.100444 0.648939
vt 0.097992 0.540083
vt 0.085279 0.643286
vt 0.083127 0.540083
vt 0.065139 0.632561
vt 0.066223 0.537397
vt 0.335156 0.355377
vt 0.355922 0.363672
vt 0.354866 0.459651
vt 0.338102 0.459663
vt 0.317848 0.351211
vt 0.321113 0.465057
vt 0.303122 0.352630
vt 0.304296 0.452826
vt 0.287346 0.357395
vt 0.285641 0.452839
vt 0.271606 0.358508
vt 0.268838 0.459111
vt 0.256683 0.354065
vt 0.254230 0.459122
vt 0.233691 0.347833
vt 0.234897 0.453892
vt 0.181270 0.648356
vt 0.180186 0.543195
vt 0.146808 0.741329
vt 0.161199 0.739891
vt 0.157488 0.655814
vt 0.144216 0.652842
vt 0.131622 0.745324
vt 0.130375 0.653705
vt 0.114423 0.743553
vt 0.115044 0.658233
vt 0.098930 0.740145
vt 0.101258 0.655596
vt 0.084530 0.738789
vt 0.088068 0.649997
vt 0.067796 0.743411
vt 0.071805 0.641195
vt 0.336480 0.256589
vt 0.353076 0.251876
vt 0.348982 0.354970
vt 0.332751 0.347442
vt 0.319962 0.258051
vt 0.317396 0.345941
vt 0.303844 0.258764
vt 0.303002 0.346822
vt 0.288146 0.261972
vt 0.287059 0.349915
vt 0.269850 0.267297
vt 0.272724 0.353999
vt 0.255715 0.252813
vt 0.259855 0.349609
vt 0.236560 0.248757
vt 0.241188 0.342995
vt 0.178441 0.746589
vt 0.174058 0.653148
vt 0.142273 0.854165
vt 0.155952 0.848256
vt 0.154128 0.748987
vt 0.141865 0.749894
vt 0.131153 0.855139
vt 0.129750 0.753815
vt 0.115090 0.855139
vt 0.115956 0.751978
vt 0.104145 0.852505
vt 0.103529 0.748394
vt 0.090449 0.848720
vt 0.091248 0.747487
vt 0.070435 0.850696
vt 0.075266 0.747026
vt 0.330542 0.141172
vt 0.350251 0.143676
vt 0.345304 0.248236
vt 0.329499 0.248034
vt 0.314767 0.144583
vt 0.315194 0.248959
vt 0.301959 0.151301
vt 0.302270 0.249336
vt 0.286387 0.144362
vt 0.290113 0.252476
vt 0.273995 0.145864
vt 0.275005 0.258014
vt 0.260600 0.142215
vt 0.263077 0.247482
vt 0.239050 0.145851
vt 0.244704 0.244027
vt 0.175974 0.848622
vt 0.170607 0.751274
vt 0.139349 0.970933
vt 0.150235 0.970933
vt 0.154017 0.853654
vt 0.141967 0.857950
vt 0.128913 0.970933
vt 0.129847 0.858950
vt 0.117330 0.970933
vt 0.116395 0.858950
vt 0.106893 0.970933
vt 0.104276 0.857950
vt 0.095991 0.970933
vt 0.092209 0.852274
vt 0.080500 0.970933
vt 0.076302 0.854191
vt 0.324400 0.022431
vt 0.339694 0.022419
vt 0.344146 0.140156
vt 0.328417 0.135512
vt 0.311528 0.022440
vt 0.314336 0.138970
vt 0.300674 0.022448
vt 0.301737 0.146052
vt 0.288627 0.022457
vt 0.287741 0.139112
vt 0.277772 0.022465
vt 0.275137 0.139259
vt 0.267285 0.022473
vt 0.263436 0.135560
vt 0.249426 0.022486
vt 0.245148 0.140462
vt 0.165909 0.970933
vt 0.170106 0.853960
vt 0.133878 0.980998
vt 0.142329 0.980998
vt 0.126960 0.980998
vt 0.119282 0.980998
vt 0.112364 0.980998
vt 0.103896 0.980998
vt 0.089274 0.980998
vt 0.316170 0.012285
vt 0.330560 0.012274
vt 0.305830 0.012293
vt 0.298635 0.012298
vt 0.290650 0.012304
vt 0.283455 0.012309
vt 0.275499 0.012315
vt 0.258545 0.012328
vt 0.157134 0.980998
vt 0.126016 0.986227
vt 0.293870 0.007028
vn -0.453384 0.249114 -0.855795
vn -0.749008 0.334708 -0.571802
vn -0.727356 0.326709 -0.603502
vn -0.344126 0.218961 -0.913035
vn -0.897946 0.373997 -0.231991
vn -0.898039 0.374005 -0.231618
vn -0.911811 0.368283 0.181574
vn -0.909412 0.367677 0.194380
vn -0.771591 0.327064 0.545598
vn -0.744313 0.318623 0.586922
vn -0.480887 0.245052 0.841842
vn -0.401678 0.223448 0.888102
vn -0.055323 0.140517 0.988531
vn 0.031891 0.120956 0.992145
vn 0.391585 0.045249 0.919029
vn 0.442136 0.035069 0.896262
vn 0.751946 -0.028215 0.658621
vn 0.760488 -0.029964 0.648660
vn 0.961904 -0.073872 0.263217
vn 0.957560 -0.072861 0.278873
vn 0.975119 -0.076763 -0.207966
vn 0.978297 -0.077555 -0.192146
vn 0.777080 -0.029912 -0.628691
vn 0.786470 -0.032076 -0.616795
vn 0.426808 0.047494 -0.903095
vn 0.467054 0.038954 -0.883371
vn -0.009809 0.139867 -0.990122
vn 0.051275 0.127000 -0.990577
vn -0.789972 0.035939 -0.612088
vn -0.757611 0.036262 -0.651698
vn -0.403593 0.036384 -0.914215
vn -0.450264 0.036587 -0.892146
vn -0.971625 0.045396 -0.232129
vn -0.966182 0.044406 -0.254009
vn -0.966550 0.067988 0.247303
vn -0.972063 0.066765 0.225023
vn -0.807942 0.069991 0.585090
vn -0.788959 0.068384 0.610629
vn -0.507286 0.048042 0.860438
vn -0.424486 0.042524 0.904435
vn -0.057462 0.030682 0.997876
vn 0.075445 0.029759 0.996706
vn 0.488724 0.057501 0.870541
vn 0.582023 0.068630 0.810271
vn 0.810463 0.094530 0.578113
vn 0.816496 0.095199 0.569449
vn 0.960418 0.100594 0.259768
vn 0.948954 0.101651 0.298584
vn 0.990009 0.088539 -0.109744
vn 0.992514 0.089605 -0.082992
vn 0.841787 0.064953 -0.535889
vn 0.852126 0.066009 -0.519157
vn 0.535002 0.038329 -0.843981
vn 0.612673 0.044122 -0.789104
vn 0.023204 0.028248 -0.999332
vn 0.101755 0.025662 -0.994478
vn -0.291088 -0.200953 -0.935353
vn -0.611794 -0.414960 -0.673437
vn -0.602971 -0.408894 -0.685004
vn -0.307257 -0.211617 -0.927799
vn -0.799767 -0.541445 -0.259249
vn -0.795054 -0.538434 -0.279243
vn -0.808567 -0.529796 0.255999
vn -0.804981 -0.526381 0.273731
vn -0.654641 -0.413716 0.632680
vn -0.641731 -0.404849 0.651367
vn -0.371396 -0.229029 0.899784
vn -0.391745 -0.241901 0.887705
vn -0.051988 -0.028992 0.998227
vn -0.044079 -0.024084 0.998738
vn 0.299341 0.195183 0.933969
vn 0.307982 0.200941 0.929930
vn 0.637531 0.417773 0.647317
vn 0.646078 0.423250 0.635172
vn 0.823738 0.524845 0.214462
vn 0.828086 0.526694 0.192005
vn 0.824884 0.513094 -0.237277
vn 0.831812 0.518095 -0.199167
vn 0.666883 0.409830 -0.622339
vn 0.672991 0.413701 -0.613135
vn 0.357969 0.216949 -0.908180
vn 0.368774 0.223628 -0.902217
vn 0.052694 0.023493 -0.998334
vn 0.059447 0.027866 -0.997842
vn -0.429478 -0.770706 -0.470702
vn -0.131005 -0.372168 -0.918874
vn -0.094924 -0.308965 -0.946324
vn -0.397349 -0.741868 -0.540135
vn -0.543400 -0.835708 -0.079422
vn -0.534945 -0.835433 -0.126039
vn -0.532420 -0.793832 0.293869
vn -0.537486 -0.800268 0.265856
vn -0.433488 -0.660040 0.613543
vn -0.425693 -0.649208 0.630329
vn -0.322406 -0.505600 0.800264
vn -0.258475 -0.416876 0.871438
vn -0.064466 -0.136779 0.988502
vn 0.039667 0.018775 0.999037
vn 0.253840 0.329035 0.909561
vn 0.303687 0.399274 0.865075
vn 0.444010 0.598970 0.666401
vn 0.450713 0.608615 0.653028
vn 0.551163 0.772236 0.316023
vn 0.551341 0.772587 0.314852
vn 0.548649 0.792678 -0.265793
vn 0.545403 0.787612 -0.286711
vn 0.468357 0.649953 -0.598501
vn 0.477476 0.671007 -0.567245
vn 0.252993 0.262341 -0.931220
vn 0.350142 0.426839 -0.833792
vn 0.076617 -0.020097 -0.996858
vn 0.101002 0.017933 -0.994725
vn -0.659252 -0.319784 -0.680533
vn -0.447803 -0.218467 -0.867032
vn -0.442231 -0.216212 -0.870450
vn -0.653725 -0.316592 -0.687323
vn -0.873691 -0.430504 -0.226560
vn -0.861656 -0.424882 -0.277532
vn -0.847483 -0.396553 0.352872
vn -0.859579 -0.407050 0.308924
vn -0.739798 -0.335329 0.583312
vn -0.738376 -0.334713 0.585464
vn -0.544175 -0.253262 0.799832
vn -0.453627 -0.217366 0.864277
vn -0.140867 -0.080105 0.986782
vn 0.001555 -0.009876 0.999950
vn 0.307187 0.152386 0.939369
vn 0.367029 0.188572 0.910895
vn 0.660126 0.363856 0.657147
vn 0.661193 0.364382 0.655782
vn 0.850124 0.436575 0.294434
vn 0.844162 0.434925 0.313417
vn 0.860559 0.431857 -0.270070
vn 0.837256 0.422924 -0.346609
vn 0.682906 0.354426 -0.638766
vn 0.694523 0.359997 -0.622928
vn 0.385834 0.171936 -0.906405
vn 0.487626 0.237829 -0.840035
vn -0.095545 -0.070444 -0.992929
vn -0.019476 -0.035359 -0.999185
vn -0.754202 -0.007336 -0.656602
vn -0.456126 -0.009481 -0.889865
vn -0.418836 -0.009559 -0.908012
vn -0.773833 -0.007086 -0.633350
vn -0.998845 0.016705 -0.045051
vn -0.995578 0.014362 -0.092833
vn -0.953790 0.032351 0.298727
vn -0.961695 0.031217 0.272337
vn -0.877852 0.027315 0.478153
vn -0.852502 0.022859 0.522224
vn -0.699087 0.001865 0.715034
vn -0.564171 -0.008943 0.825610
vn -0.117462 -0.010413 0.993023
vn 0.029373 -0.002414 0.999566
vn 0.402431 0.013747 0.915347
vn 0.453677 0.015516 0.891031
vn 0.744722 0.029556 0.666720
vn 0.754979 0.030239 0.655051
vn 0.960125 0.057617 0.273571
vn 0.963781 0.058732 0.260146
vn 0.955430 0.085006 -0.282714
vn 0.949062 0.085088 -0.303384
vn 0.784857 0.064794 -0.616280
vn 0.804233 0.068655 -0.590336
vn 0.436027 0.018240 -0.899749
vn 0.589255 0.035922 -0.807148
vn -0.127120 -0.007078 -0.991862
vn 0.065764 -0.002188 -0.997833
vn -0.565175 0.507980 -0.650025
vn -0.302242 0.263489 -0.916091
vn -0.375265 0.335400 -0.864109
vn -0.578758 0.518796 -0.629198
vn -0.719839 0.633575 -0.283576
vn -0.708273 0.624236 -0.329665
vn -0.731760 0.645341 0.219233
vn -0.727826 0.642364 0.240080
vn -0.573098 0.510506 0.641048
vn -0.568027 0.505858 0.649194
vn -0.309280 0.247676 0.918152
vn -0.333099 0.271909 0.902835
vn 0.040027 -0.085892 0.995500
vn -0.062336 0.008913 0.998015
vn 0.325366 -0.351925 0.877659
vn 0.253941 -0.285079 0.924253
vn 0.574393 -0.580276 0.577367
vn 0.548795 -0.557290 0.623099
vn 0.689225 -0.678602 0.253906
vn 0.692572 -0.681180 0.237357
vn 0.713326 -0.696126 -0.081086
vn 0.706475 -0.690966 -0.153163
vn 0.561884 -0.553885 -0.614409
vn 0.534727 -0.527539 -0.660128
vn 0.283354 -0.284715 -0.915777
vn 0.304290 -0.304738 -0.902520
vn 0.085611 -0.099266 -0.991371
vn 0.017065 -0.036559 -0.999186
vn -0.732722 0.197399 -0.651270
vn -0.395283 0.089350 -0.914204
vn -0.420949 0.097746 -0.901803
vn -0.711772 0.190848 -0.675987
vn -0.932509 0.260134 -0.250515
vn -0.931603 0.259850 -0.254156
vn -0.941315 0.262356 0.212358
vn -0.933717 0.259912 0.246208
vn -0.759032 0.203814 0.618329
vn -0.742404 0.198499 0.639870
vn -0.417951 0.091573 0.903843
vn -0.441312 0.099389 0.891833
vn 0.053180 -0.061559 0.996686
vn -0.022116 -0.037664 0.999046
vn 0.432291 -0.179216 0.883745
vn 0.398177 -0.168855 0.901634
vn 0.680597 -0.259846 0.685031
vn 0.696342 -0.265344 0.666859
vn 0.918265 -0.343949 0.196186
vn 0.921762 -0.345180 0.176652
vn 0.902977 -0.335455 -0.268521
vn 0.900786 -0.334537 -0.276893
vn 0.762467 -0.286643 -0.580068
vn 0.776579 -0.291455 -0.558551
vn 0.479003 -0.191771 -0.856609
vn 0.480075 -0.192102 -0.855935
vn 0.091691 -0.069280 -0.993375
vn 0.021481 -0.046606 -0.998682
vn -0.746813 0.138469 -0.650459
vn -0.396229 0.105437 -0.912078
vn -0.394675 0.067121 -0.916366
vn -0.740341 0.101219 -0.664568
vn -0.956201 0.159293 -0.245570
vn -0.961123 0.123905 -0.246760
vn -0.965479 0.160375 0.205256
vn -0.970193 0.125041 0.207581
vn -0.770424 0.140830 0.621783
vn -0.759657 0.103465 0.642041
vn -0.434027 0.109107 0.894269
vn -0.433732 0.071354 0.898212
vn -0.016160 0.074365 0.997100
vn -0.085342 0.039114 0.995584
vn 0.425220 0.036367 0.904359
vn 0.400601 -0.005667 0.916235
vn 0.770785 0.005255 0.637073
vn 0.793743 -0.041684 0.606823
vn 0.970815 -0.011662 0.239547
vn 0.967539 -0.056978 0.246215
vn 0.978472 -0.012802 -0.205981
vn 0.981815 -0.059386 -0.180312
vn 0.798027 0.002506 -0.602617
vn 0.801734 -0.043984 -0.596061
vn 0.462049 0.032100 -0.886273
vn 0.438777 -0.010336 -0.898537
vn 0.027146 0.069571 -0.997208
vn -0.034669 0.033439 -0.998839
vn -0.531244 0.722851 -0.441889
vn -0.286905 0.722852 -0.628626
vn -0.670362 0.722852 -0.167631
vn -0.676708 0.722852 0.139828
vn -0.549023 0.722853 0.419593
vn -0.312598 0.722852 0.616253
vn -0.014259 0.722852 0.690856
vn 0.286905 0.722852 0.628626
vn 0.531243 0.722851 0.441890
vn 0.670363 0.722852 0.167628
vn 0.676708 0.722851 -0.139829
vn 0.549023 0.722852 -0.419593
vn 0.312596 0.722851 -0.616255
vn 0.014258 0.722852 -0.690855
vn -0.000000 1.000000 -0.000001
vn -0.673772 0.641926 -0.366009
vn -0.458516 0.735210 -0.499229
vn -0.533018 0.717076 -0.449104
vn -0.662123 0.644368 -0.382600
vn -0.670401 0.703372 -0.236287
vn -0.664981 0.700599 -0.258769
vn -0.668817 0.729494 0.143252
vn -0.667904 0.729808 0.145893
vn -0.547833 0.785808 0.287026
vn -0.553717 0.782028 0.286057
vn -0.395316 0.874940 0.279652
vn -0.401197 0.871764 0.281190
vn -0.187812 0.934055 0.303757
vn -0.195894 0.933264 0.301071
vn 0.103613 0.957436 0.269408
vn 0.105919 0.957488 0.268324
vn 0.319057 0.945443 0.065882
vn 0.323285 0.944692 0.055177
vn 0.437513 0.896111 -0.074614
vn 0.442335 0.893677 -0.075380
vn 0.581543 0.805687 -0.112590
vn 0.579218 0.807475 -0.111759
vn 0.576822 0.763981 -0.289152
vn 0.587462 0.764082 -0.266584
vn 0.328130 0.771572 -0.544984
vn 0.342736 0.771588 -0.535896
vn -0.001270 0.758702 -0.651437
vn -0.000808 0.758711 -0.651426
vn -0.633939 0.614811 -0.469180
vn -0.377038 0.529155 -0.760156
vn -0.332681 0.512421 -0.791674
vn -0.610166 0.607869 -0.508127
vn -0.799937 0.598486 -0.043757
vn -0.800364 0.598058 -0.041769
vn -0.822330 0.485171 0.297292
vn -0.819596 0.472816 0.323586
vn -0.777905 0.413078 0.473530
vn -0.773614 0.411287 0.482041
vn -0.578217 0.523831 0.625513
vn -0.542465 0.543796 0.640326
vn -0.573528 0.511055 0.640225
vn -0.551652 0.524902 0.648196
vn -0.636222 0.620720 0.458180
vn -0.639902 0.614327 0.461658
vn -0.354151 0.917359 0.181742
vn -0.349410 0.920316 0.175872
vn -0.123475 0.976157 -0.178527
vn -0.109181 0.973430 -0.201282
vn 0.114413 0.937910 -0.327467
vn 0.127185 0.940291 -0.315717
vn 0.070410 0.890265 -0.449968
vn 0.065956 0.887387 -0.456283
vn -0.163788 0.638627 -0.751883
vn -0.176997 0.616782 -0.766976
vn -0.245507 0.489124 -0.836950
vn -0.245444 0.489258 -0.836889
vn -0.879704 0.085131 -0.467839
vn -0.615515 0.271300 -0.739958
vn -0.623843 0.265014 -0.735247
vn -0.911361 0.059515 -0.407283
vn -0.986666 -0.024327 -0.160929
vn -0.987385 -0.023992 -0.156507
vn -0.999488 0.031914 0.002206
vn -0.999082 0.013646 -0.040619
vn -0.934169 0.245569 0.258890
vn -0.935527 0.242875 0.256518
vn -0.657989 0.574796 0.486477
vn -0.613535 0.612020 0.499006
vn -0.368521 0.722974 0.584380
vn -0.327636 0.727636 0.602661
vn -0.042320 0.820219 0.570482
vn 0.007261 0.835531 0.549395
vn 0.094432 0.794948 0.599284
vn 0.098538 0.799769 0.592165
vn 0.176743 0.916639 0.358518
vn 0.148437 0.886636 0.437999
vn 0.233484 0.943555 -0.234925
vn 0.229400 0.939600 -0.254021
vn 0.145334 0.845140 -0.514409
vn 0.147238 0.846413 -0.511768
vn -0.050824 0.712884 -0.699438
vn -0.024562 0.733460 -0.679289
vn -0.337099 0.488320 -0.804927
vn -0.344434 0.482653 -0.805240
vn -0.766916 0.026621 -0.641196
vn -0.631745 0.119407 -0.765924
vn -0.647173 0.096479 -0.756213
vn -0.734132 0.033438 -0.678183
vn -0.955946 0.014995 -0.293161
vn -0.924477 0.013027 -0.381017
vn -0.990976 0.036532 0.128969
vn -0.992334 0.035382 0.118412
vn -0.881483 0.148930 0.448116
vn -0.878977 0.151142 0.452278
vn -0.576416 0.415715 0.703510
vn -0.446188 0.512367 0.733755
vn -0.216390 0.652508 0.726229
vn -0.221642 0.658912 0.718825
vn -0.200405 0.674358 0.710689
vn -0.199539 0.674529 0.710770
vn -0.024149 0.850097 0.526073
vn -0.031068 0.843903 0.535595
vn 0.157620 0.983811 0.085274
vn 0.160512 0.985128 0.061302
vn 0.124039 0.932274 -0.339824
vn 0.112888 0.920520 -0.374030
vn 0.155680 0.916822 -0.367697
vn 0.136174 0.904932 -0.403181
vn -0.020499 0.842061 -0.538993
vn 0.079838 0.904507 -0.418919
vn -0.448541 0.402727 -0.797886
vn -0.463603 0.382055 -0.799441
vn -0.594809 0.759841 -0.262379
vn -0.218621 0.749501 -0.624862
vn -0.237988 0.752675 -0.613875
vn -0.656750 0.737958 -0.155233
vn -0.701450 0.701940 -0.123487
vn -0.695627 0.704158 -0.142356
vn -0.571942 0.804522 -0.160085
vn -0.592257 0.778130 -0.209154
vn -0.359405 0.905056 0.227379
vn -0.378322 0.904094 0.198713
vn -0.028360 0.820970 0.570266
vn -0.016108 0.815363 0.578726
vn 0.202332 0.685466 0.699427
vn 0.208212 0.681393 0.701678
vn 0.487206 0.620266 0.614736
vn 0.517515 0.613792 0.596186
vn 0.535346 0.586848 0.607466
vn 0.567776 0.582373 0.581784
vn 0.553842 0.727348 0.405246
vn 0.512311 0.703806 0.492132
vn 0.657082 0.671237 -0.343050
vn 0.647609 0.650260 -0.397196
vn 0.604861 0.487888 -0.629371
vn 0.610704 0.472481 -0.635454
vn 0.567753 0.472202 -0.674301
vn 0.579226 0.464959 -0.669559
vn 0.254073 0.628658 -0.735008
vn 0.299403 0.611372 -0.732518
vn -0.291285 0.890551 -0.349388
vn 0.074761 0.865393 -0.495486
vn -0.026049 0.895466 -0.444367
vn -0.303437 0.882514 -0.359298
vn -0.289498 0.884209 -0.366560
vn -0.303613 0.877088 -0.372205
vn -0.110462 0.991577 -0.067619
vn -0.134360 0.983920 -0.117684
vn 0.207551 0.877693 0.431946
vn 0.228445 0.863759 0.449147
vn 0.467435 0.572735 0.673409
vn 0.494290 0.513883 0.701143
vn 0.331682 0.478665 0.812937
vn 0.337537 0.476348 0.811888
vn 0.386825 0.484451 0.784649
vn 0.240464 0.523875 0.817149
vn 0.772104 0.386495 0.504458
vn 0.711196 0.397816 0.579606
vn 0.974385 0.221279 0.040129
vn 0.977054 0.211829 0.022210
vn 0.938406 0.161504 -0.305469
vn 0.912904 0.180575 -0.366059
vn 0.848589 0.259099 -0.461263
vn 0.848985 0.269929 -0.454272
vn 0.793919 0.340453 -0.503771
vn 0.788870 0.342662 -0.510164
vn 0.567385 0.552674 -0.610430
vn 0.551402 0.567223 -0.611730
vn -0.182142 0.766502 -0.615873
vn -0.214182 0.763194 -0.609640
vn -0.221648 0.755270 -0.616798
vn -0.192650 0.760958 -0.619539
vn -0.107822 0.950506 -0.291398
vn -0.108841 0.944830 -0.308949
vn -0.126650 0.918958 0.373466
vn -0.129168 0.913375 0.386085
vn -0.216522 0.774602 0.594231
vn -0.223347 0.769557 0.598246
vn -0.179107 0.761368 0.623089
vn -0.199043 0.756027 0.623543
vn 0.207475 0.700028 0.683312
vn 0.142532 0.725484 0.673319
vn 0.574483 0.452954 0.681764
vn 0.568620 0.458867 0.682725
vn 0.798077 0.294504 0.525680
vn 0.792966 0.296958 0.531997
vn 0.966238 0.231776 0.112530
vn 0.970067 0.229718 0.078732
vn 0.912544 0.229968 -0.338199
vn 0.891879 0.243131 -0.381365
vn 0.888790 0.260342 -0.377192
vn 0.886603 0.260732 -0.382038
vn 0.796936 0.423409 -0.430833
vn 0.829945 0.387019 -0.401756
vn 0.194038 0.757788 -0.622982
vn 0.097976 0.777403 -0.621325
vn -0.359686 0.772316 -0.523598
vn -0.170102 0.689573 -0.703956
vn -0.169554 0.687404 -0.706207
vn -0.327970 0.763515 -0.556310
vn -0.571901 0.802211 -0.171428
vn -0.570428 0.802202 -0.176305
vn -0.605182 0.772715 0.191485
vn -0.604120 0.770761 0.202402
vn -0.427213 0.739529 0.520178
vn -0.381788 0.737829 0.556639
vn -0.234542 0.757549 0.609188
vn -0.236102 0.760648 0.604707
vn -0.158066 0.768836 0.619602
vn -0.172572 0.775128 0.607779
vn 0.289859 0.744796 0.601049
vn 0.284107 0.745400 0.603044
vn 0.679758 0.680234 0.274245
vn 0.714036 0.674324 0.188255
vn 0.734732 0.653796 0.180886
vn 0.734633 0.653798 0.181278
vn 0.707193 0.707000 -0.005319
vn 0.708624 0.701441 0.076376
vn 0.632576 0.678450 -0.373568
vn 0.635782 0.679385 -0.366358
vn 0.293091 0.716612 -0.632902
vn 0.277080 0.716291 -0.640433
vn -0.115593 0.666921 -0.736107
vn -0.124236 0.668585 -0.733184
s 1
g polySurface164 group1
usemtl lambert5SG
f 142/1/1 143/2/2 144/3/3 145/4/4
f 143/2/2 146/5/5 147/6/6 144/3/3
f 146/5/5 148/7/7 149/8/8 147/6/6
f 148/7/7 150/9/9 151/10/10 149/8/8
f 150/9/9 152/11/11 153/12/12 151/10/10
f 152/11/11 154/13/13 155/14/14 153/12/12
f 154/15/13 156/16/15 157/17/16 155/18/14
f 156/16/15 158/19/17 159/20/18 157/17/16
f 158/19/17 160/21/19 161/22/20 159/20/18
f 160/21/19 162/23/21 163/24/22 161/22/20
f 162/23/21 164/25/23 165/26/24 163/24/22
f 164/25/23 166/27/25 167/28/26 165/26/24
f 166/27/25 168/29/27 169/30/28 167/28/26
f 168/31/27 142/1/1 145/4/4 169/32/28
s 2
f 2/33/29 170/34/30 171/35/31 1/36/32
f 3/37/33 172/38/34 170/34/30 2/33/29
f 4/39/35 173/40/36 172/38/34 3/37/33
f 5/41/37 174/42/38 173/40/36 4/39/35
f 6/43/39 175/44/40 174/42/38 5/41/37
f 7/45/41 176/46/42 175/44/40 6/43/39
f 8/47/43 177/48/44 176/49/42 7/50/41
f 9/51/45 178/52/46 177/48/44 8/47/43
f 10/53/47 179/54/48 178/52/46 9/51/45
f 11/55/49 180/56/50 179/54/48 10/53/47
f 12/57/51 181/58/52 180/56/50 11/55/49
f 13/59/53 182/60/54 181/58/52 12/57/51
f 14/61/55 183/62/56 182/60/54 13/59/53
f 1/36/32 171/35/31 183/63/56 14/64/55
s 3
f 15/65/57 16/66/58 184/67/59 185/68/60
f 16/66/58 17/69/61 186/70/62 184/67/59
f 17/69/61 18/71/63 187/72/64 186/70/62
f 18/71/63 19/73/65 188/74/66 187/72/64
f 19/73/65 20/75/67 189/76/68 188/74/66
f 20/75/67 21/77/69 190/78/70 189/76/68
f 21/79/69 22/80/71 191/81/72 190/82/70
f 22/80/71 23/83/73 192/84/74 191/81/72
f 23/83/73 24/85/75 193/86/76 192/84/74
f 24/85/75 25/87/77 194/88/78 193/86/76
f 25/87/77 26/89/79 195/90/80 194/88/78
f 26/89/79 27/91/81 196/92/82 195/90/80
f 27/91/81 28/93/83 197/94/84 196/92/82
f 28/95/83 15/65/57 185/68/60 197/96/84
s 4
f 199/97/85 198/98/86 29/99/87 30/100/88
f 200/101/89 199/97/85 30/100/88 31/102/90
f 201/103/91 200/101/89 31/102/90 32/104/92
f 202/105/93 201/103/91 32/104/92 33/106/94
f 203/107/95 202/105/93 33/106/94 34/108/96
f 204/109/97 203/107/95 34/108/96 35/110/98
f 205/111/99 204/112/97 35/113/98 36/114/100
f 206/115/101 205/111/99 36/114/100 37/116/102
f 207/117/103 206/115/101 37/116/102 38/118/104
f 208/119/105 207/117/103 38/118/104 39/120/106
f 209/121/107 208/119/105 39/120/106 40/122/108
f 210/123/109 209/121/107 40/122/108 41/124/110
f 211/125/111 210/123/109 41/124/110 42/126/112
f 29/99/87 198/98/86 211/127/111 42/128/112
s 5
f 213/129/113 212/130/114 43/131/115 44/132/116
f 214/133/117 213/129/113 44/132/116 45/134/118
f 215/135/119 214/133/117 45/134/118 46/136/120
f 216/137/121 215/135/119 46/136/120 47/138/122
f 217/139/123 216/137/121 47/138/122 48/140/124
f 218/141/125 217/139/123 48/140/124 49/142/126
f 219/143/127 218/144/125 49/145/126 50/146/128
f 220/147/129 219/143/127 50/146/128 51/148/130
f 221/149/131 220/147/129 51/148/130 52/150/132
f 222/151/133 221/149/131 52/150/132 53/152/134
f 223/153/135 222/151/133 53/152/134 54/154/136
f 224/155/137 223/153/135 54/154/136 55/156/138
f 225/157/139 224/155/137 55/156/138 56/158/140
f 43/131/115 212/130/114 225/159/139 56/160/140
s 6
f 227/161/141 226/162/142 57/163/143 58/164/144
f 228/165/145 227/161/141 58/164/144 59/166/146
f 229/167/147 228/165/145 59/166/146 60/168/148
f 230/169/149 229/167/147 60/168/148 61/170/150
f 231/171/151 230/169/149 61/170/150 62/172/152
f 232/173/153 231/171/151 62/172/152 63/174/154
f 233/175/155 232/176/153 63/177/154 64/178/156
f 234/179/157 233/175/155 64/178/156 65/180/158
f 235/181/159 234/179/157 65/180/158 66/182/160
f 236/183/161 235/181/159 66/182/160 67/184/162
f 237/185/163 236/183/161 67/184/162 68/186/164
f 238/187/165 237/185/163 68/186/164 69/188/166
f 239/189/167 238/187/165 69/188/166 70/190/168
f 57/163/143 226/162/142 239/191/167 70/192/168
s 7
f 241/193/169 240/194/170 71/195/171 72/196/172
f 242/197/173 241/193/169 72/196/172 73/198/174
f 243/199/175 242/197/173 73/198/174 74/200/176
f 244/201/177 243/199/175 74/200/176 75/202/178
f 245/203/179 244/201/177 75/202/178 76/204/180
f 246/205/181 245/203/179 76/204/180 77/206/182
f 247/207/183 246/208/181 77/209/182 78/210/184
f 248/211/185 247/207/183 78/210/184 79/212/186
f 249/213/187 248/211/185 79/212/186 80/214/188
f 250/215/189 249/213/187 80/214/188 81/216/190
f 251/217/191 250/215/189 81/216/190 82/218/192
f 252/219/193 251/217/191 82/218/192 83/220/194
f 253/221/195 252/219/193 83/220/194 84/222/196
f 71/195/171 240/194/170 253/223/195 84/224/196
s 8
f 255/225/197 254/226/198 85/227/199 86/228/200
f 256/229/201 255/225/197 86/228/200 87/230/202
f 257/231/203 256/229/201 87/230/202 88/232/204
f 258/233/205 257/231/203 88/232/204 89/234/206
f 259/235/207 258/233/205 89/234/206 90/236/208
f 260/237/209 259/235/207 90/236/208 91/238/210
f 261/239/211 260/240/209 91/241/210 92/242/212
f 262/243/213 261/239/211 92/242/212 93/244/214
f 263/245/215 262/243/213 93/244/214 94/246/216
f 264/247/217 263/245/215 94/246/216 95/248/218
f 265/249/219 264/247/217 95/248/218 96/250/220
f 266/251/221 265/249/219 96/250/220 97/252/222
f 267/253/223 266/251/221 97/252/222 98/254/224
f 85/227/199 254/226/198 267/255/223 98/256/224
s 9
f 114/257/225 113/258/226 99/259/227 100/260/228
f 115/261/229 114/257/225 100/260/228 101/262/230
f 116/263/231 115/261/229 101/262/230 102/264/232
f 117/265/233 116/263/231 102/264/232 103/266/234
f 118/267/235 117/265/233 103/266/234 104/268/236
f 119/269/237 118/267/235 104/268/236 105/270/238
f 120/271/239 119/272/237 105/273/238 106/274/240
f 121/275/241 120/271/239 106/274/240 107/276/242
f 122/277/243 121/275/241 107/276/242 108/278/244
f 123/279/245 122/277/243 108/278/244 109/280/246
f 124/281/247 123/279/245 109/280/246 110/282/248
f 125/283/249 124/281/247 110/282/248 111/284/250
f 126/285/251 125/283/249 111/284/250 112/286/252
f 99/259/227 113/258/226 126/287/251 112/288/252
f 113/258/226 114/257/225 128/289/253 127/290/254
f 114/257/225 115/261/229 129/291/255 128/289/253
f 115/261/229 116/263/231 130/292/256 129/291/255
f 116/263/231 117/265/233 131/293/257 130/292/256
f 117/265/233 118/267/235 132/294/258 131/293/257
f 118/267/235 119/269/237 133/295/259 132/294/258
f 119/272/237 120/271/239 134/296/260 133/297/259
f 120/271/239 121/275/241 135/298/261 134/296/260
f 121/275/241 122/277/243 136/299/262 135/298/261
f 122/277/243 123/279/245 137/300/263 136/299/262
f 123/279/245 124/281/247 138/301/264 137/300/263
f 124/281/247 125/283/249 139/302/265 138/301/264
f 125/283/249 126/285/251 140/303/266 139/302/265
f 126/287/251 113/258/226 127/290/254 140/304/266
f 127/290/254 128/289/253 141/305/267
f 128/289/253 129/291/255 141/305/267
f 129/291/255 130/292/256 141/305/267
f 130/292/256 131/293/257 141/305/267
f 131/293/257 132/294/258 141/305/267
f 132/294/258 133/295/259 141/305/267
f 133/297/259 134/296/260 141/306/267
f 134/296/260 135/298/261 141/306/267
f 135/298/261 136/299/262 141/306/267
f 136/299/262 137/300/263 141/306/267
f 137/300/263 138/301/264 141/306/267
f 138/301/264 139/302/265 141/306/267
f 139/302/265 140/303/266 141/306/267
f 140/304/266 127/290/254 141/305/267
s 10
f 2/33/268 1/36/269 145/4/270 144/3/271
f 3/37/272 2/33/268 144/3/271 147/6/273
f 4/39/274 3/37/272 147/6/273 149/8/275
f 5/41/276 4/39/274 149/8/275 151/10/277
f 6/43/278 5/41/276 151/10/277 153/12/279
f 7/45/280 6/43/278 153/12/279 155/14/281
f 8/47/282 7/50/280 155/18/281 157/17/283
f 9/51/284 8/47/282 157/17/283 159/20/285
f 10/53/286 9/51/284 159/20/285 161/22/287
f 11/55/288 10/53/286 161/22/287 163/24/289
f 12/57/290 11/55/288 163/24/289 165/26/291
f 13/59/292 12/57/290 165/26/291 167/28/293
f 14/61/294 13/59/292 167/28/293 169/30/295
f 1/36/269 14/64/294 169/32/295 145/4/270
s 11
f 16/66/296 15/65/297 171/35/298 170/34/299
f 17/69/300 16/66/296 170/34/299 172/38/301
f 18/71/302 17/69/300 172/38/301 173/40/303
f 19/73/304 18/71/302 173/40/303 174/42/305
f 20/75/306 19/73/304 174/42/305 175/44/307
f 21/77/308 20/75/306 175/44/307 176/46/309
f 22/80/310 21/79/308 176/49/309 177/48/311
f 23/83/312 22/80/310 177/48/311 178/52/313
f 24/85/314 23/83/312 178/52/313 179/54/315
f 25/87/316 24/85/314 179/54/315 180/56/317
f 26/89/318 25/87/316 180/56/317 181/58/319
f 27/91/320 26/89/318 181/58/319 182/60/321
f 28/93/322 27/91/320 182/60/321 183/62/323
f 15/65/297 28/95/322 183/63/323 171/35/298
s 12
f 30/100/324 29/99/325 185/68/326 184/67/327
f 31/102/328 30/100/324 184/67/327 186/70/329
f 32/104/330 31/102/328 186/70/329 187/72/331
f 33/106/332 32/104/330 187/72/331 188/74/333
f 34/108/334 33/106/332 188/74/333 189/76/335
f 35/110/336 34/108/334 189/76/335 190/78/337
f 36/114/338 35/113/336 190/82/337 191/81/339
f 37/116/340 36/114/338 191/81/339 192/84/341
f 38/118/342 37/116/340 192/84/341 193/86/343
f 39/120/344 38/118/342 193/86/343 194/88/345
f 40/122/346 39/120/344 194/88/345 195/90/347
f 41/124/348 40/122/346 195/90/347 196/92/349
f 42/126/350 41/124/348 196/92/349 197/94/351
f 29/99/325 42/128/350 197/96/351 185/68/326
s 13
f 44/132/352 43/131/353 198/98/354 199/97/355
f 45/134/356 44/132/352 199/97/355 200/101/357
f 46/136/358 45/134/356 200/101/357 201/103/359
f 47/138/360 46/136/358 201/103/359 202/105/361
f 48/140/362 47/138/360 202/105/361 203/107/363
f 49/142/364 48/140/362 203/107/363 204/109/365
f 50/146/366 49/145/364 204/112/365 205/111/367
f 51/148/368 50/146/366 205/111/367 206/115/369
f 52/150/370 51/148/368 206/115/369 207/117/371
f 53/152/372 52/150/370 207/117/371 208/119/373
f 54/154/374 53/152/372 208/119/373 209/121/375
f 55/156/376 54/154/374 209/121/375 210/123/377
f 56/158/378 55/156/376 210/123/377 211/125/379
f 43/131/353 56/160/378 211/127/379 198/98/354
s 14
f 58/164/380 57/163/381 212/130/382 213/129/383
f 59/166/384 58/164/380 213/129/383 214/133/385
f 60/168/386 59/166/384 214/133/385 215/135/387
f 61/170/388 60/168/386 215/135/387 216/137/389
f 62/172/390 61/170/388 216/137/389 217/139/391
f 63/174/392 62/172/390 217/139/391 218/141/393
f 64/178/394 63/177/392 218/144/393 219/143/395
f 65/180/396 64/178/394 219/143/395 220/147/397
f 66/182/398 65/180/396 220/147/397 221/149/399
f 67/184/400 66/182/398 221/149/399 222/151/401
f 68/186/402 67/184/400 222/151/401 223/153/403
f 69/188/404 68/186/402 223/153/403 224/155/405
f 70/190/406 69/188/404 224/155/405 225/157/407
f 57/163/381 70/192/406 225/159/407 212/130/382
s 15
f 72/196/408 71/195/409 226/162/410 227/161/411
f 73/198/412 72/196/408 227/161/411 228/165/413
f 74/200/414 73/198/412 228/165/413 229/167/415
f 75/202/416 74/200/414 229/167/415 230/169/417
f 76/204/418 75/202/416 230/169/417 231/171/419
f 77/206/420 76/204/418 231/171/419 232/173/421
f 78/210/422 77/209/420 232/176/421 233/175/423
f 79/212/424 78/210/422 233/175/423 234/179/425
f 80/214/426 79/212/424 234/179/425 235/181/427
f 81/216/428 80/214/426 235/181/427 236/183/429
f 82/218/430 81/216/428 236/183/429 237/185/431
f 83/220/432 82/218/430 237/185/431 238/187/433
f 84/222/434 83/220/432 238/187/433 239/189/435
f 71/195/409 84/224/434 239/191/435 226/162/410
s 16
f 86/228/436 85/227/437 240/194/438 241/193/439
f 87/230/440 86/228/436 241/193/439 242/197/441
f 88/232/442 87/230/440 242/197/441 243/199/443
f 89/234/444 88/232/442 243/199/443 244/201/445
f 90/236/446 89/234/444 244/201/445 245/203/447
f 91/238/448 90/236/446 245/203/447 246/205/449
f 92/242/450 91/241/448 246/208/449 247/207/451
f 93/244/452 92/242/450 247/207/451 248/211/453
f 94/246/454 93/244/452 248/211/453 249/213/455
f 95/248/456 94/246/454 249/213/455 250/215/457
f 96/250/458 95/248/456 250/215/457 251/217/459
f 97/252/460 96/250/458 251/217/459 252/219/461
f 98/254/462 97/252/460 252/219/461 253/221/463
f 85/227/437 98/256/462 253/223/463 240/194/438
s 17
f 100/260/464 99/259/465 254/226/466 255/225/467
f 101/262/468 100/260/464 255/225/467 256/229/469
f 102/264/470 101/262/468 256/229/469 257/231/471
f 103/266/472 102/264/470 257/231/471 258/233/473
f 104/268/474 103/266/472 258/233/473 259/235/475
f 105/270/476 104/268/474 259/235/475 260/237/477
f 106/274/478 105/273/476 260/240/477 261/239/479
f 107/276/480 106/274/478 261/239/479 262/243/481
f 108/278/482 107/276/480 262/243/481 263/245/483
f 109/280/484 108/278/482 263/245/483 264/247/485
f 110/282/486 109/280/484 264/247/485 265/249/487
f 111/284/488 110/282/486 265/249/487 266/251/489
f 112/286/490 111/284/488 266/251/489 267/253/491
f 99/259/465 112/288/490 267/255/491 254/226/466
g default
v 1.030270 12.634397 5.503174
v -9.480650 1.720792 -6.127330
v 5.914824 15.145891 -1.405843
v -4.596097 4.232282 -13.036347
v 1.523540 15.576221 1.012859
v -8.987390 4.662617 -10.617650
v -4.272849 12.064847 1.546923
v -3.779588 15.006672 -2.943396
v 0.611705 14.576338 -5.362095
v -7.594217 9.265471 -1.818823
v -7.100952 12.207294 -6.309142
v -2.709659 11.776965 -8.727841
v -9.580267 5.852395 -4.463613
v -9.087006 8.794217 -8.953928
v -4.695708 8.363885 -11.372630
v 4.116797 13.489229 0.940647
v 8.529698 16.164278 -9.734024
v -0.835264 12.870033 -1.319623
v 3.577632 15.545084 -11.994293
v 1.373411 14.871435 -0.386128
v 5.786308 17.546488 -11.060799
v 5.031499 16.377388 -1.854584
v 2.288108 17.759592 -3.181358
v 0.079433 15.758192 -4.114854
v 6.271769 17.417728 -4.856912
v 3.528378 18.799938 -6.183688
v 1.319703 16.798534 -7.117183
v 7.488580 17.492632 -7.543367
v 4.745190 18.874844 -8.870142
v 2.536515 16.873436 -9.803638
v 1.055219 12.591510 5.506538
v -9.455702 1.677898 -6.123966
v 5.939773 15.102999 -1.402479
v -4.571148 4.189390 -13.032984
v 1.548489 15.533329 1.016222
v -8.962440 4.619724 -10.614285
v -4.247900 12.021955 1.550287
v -3.754639 14.963779 -2.940032
v 0.636654 14.533445 -5.358731
v -7.569269 9.222578 -1.815460
v -7.075998 12.164403 -6.305778
v -2.684711 11.734068 -8.724477
v -9.555318 5.809501 -4.460249
v -9.062052 8.751325 -8.950566
v -4.670759 8.320991 -11.369267
v 4.125362 13.461140 0.931130
v 8.538263 16.136187 -9.743542
v -0.826703 12.841941 -1.329140
v 3.586197 15.516993 -12.003810
v 1.381976 14.843342 -0.395646
v 5.794873 17.518396 -11.070316
v 5.040059 16.349295 -1.864102
v 2.296673 17.731501 -3.190877
v 0.087998 15.730101 -4.124372
v 6.280330 17.389635 -4.866429
v 3.536944 18.771847 -6.193206
v 1.328269 16.770443 -7.126702
v 7.497146 17.464540 -7.552886
v 4.753755 18.846750 -8.879660
v 2.545080 16.845345 -9.813157
v -3.204433 13.773258 3.145843
v 11.174651 6.614943 12.089290
v 1.107019 13.117989 -4.144281
v 15.486109 5.959670 4.799166
v 0.561779 15.512705 0.029703
v 14.940873 8.354389 8.973151
v 2.271542 14.738455 6.297632
v 6.037759 16.477900 3.181494
v 6.582994 14.083181 -0.992492
v 6.529709 13.086615 8.964431
v 10.295931 14.826063 5.848293
v 10.841166 12.431344 1.674309
v 9.665855 10.492388 11.052363
v 13.432073 12.231837 7.936222
v 13.977308 9.837118 3.762237
v -2.051934 13.370036 -1.074528
v -2.971869 15.070862 10.623296
v 3.385711 12.973107 -0.536333
v 2.465770 14.673933 11.161490
v 0.899409 14.863237 -0.567644
v -0.020531 16.564066 11.130181
v -2.172219 16.010735 2.088332
v 0.779124 17.503941 2.595219
v 3.265426 15.613810 2.626528
v -2.444263 16.775858 5.401207
v 0.507080 18.269064 5.908094
v 2.993382 16.378931 5.939403
v -2.746988 16.600586 8.330529
v 0.204355 18.093794 8.837415
v 2.690656 16.203661 8.868725
v 0.491683 14.944946 -4.928547
v -10.791059 5.829351 1.312720
v 4.632549 13.727272 0.954424
v -6.650198 4.611678 7.195692
v 1.340860 15.722000 -0.623252
v -9.941892 6.606407 5.618017
v -4.023686 14.560707 -1.829829
v -3.174513 15.337763 2.475466
v 0.117176 13.343030 4.053138
v -7.431609 12.251291 0.090906
v -6.582441 13.028347 4.396202
v -3.290748 11.033615 5.973877
v -9.882334 9.397405 1.225195
v -9.033156 10.174463 5.530492
v -5.741463 8.179731 7.108165
v 2.053867 13.312964 -4.184289
v -13.395306 10.546162 -2.724164
v 2.642079 13.463911 3.073902
v -12.807094 10.697108 4.534029
v 1.375286 15.453049 -0.343764
v -14.073887 12.686252 1.116362
v -3.030525 15.323763 -3.814062
v -3.709111 17.463852 0.026464
v -2.442313 15.474709 3.444130
v -7.529356 14.894262 -3.440539
v -8.207942 17.034351 0.399987
v -6.941139 15.045208 3.817653
v -11.155367 13.434977 -3.116333
v -11.833948 15.575066 0.724192
v -10.567150 13.585922 4.141859
v 6.009136 13.232140 -1.205256
v -0.010984 1.446434 11.726385
v -2.101178 14.983145 -3.268595
v -8.121298 3.197439 9.663042
v 1.505719 15.610338 -0.050608
v -4.514400 3.824636 12.881031
v 4.241179 12.236745 4.899290
v -0.262238 14.614948 6.053936
v -3.869135 13.987749 2.835949
v 2.558301 9.169587 8.911259
v -1.945115 11.547789 10.065914
v -5.552018 10.920594 6.847920
v 1.142178 5.595620 11.444611
v -3.361239 7.973823 12.599252
v -6.968136 7.346628 9.381268
v -0.376851 13.814926 4.196417
v 12.471863 5.185771 1.211054
v -1.600151 14.344095 -2.964145
v 11.248563 5.714940 -5.949508
v 0.695318 15.593813 0.262452
v 13.544027 6.964664 -2.722911
v 5.020673 13.654163 3.262434
v 6.092848 15.433052 -0.671532
v 3.797379 14.183329 -3.898128
v 8.916624 11.485530 2.436594
v 9.988793 13.264418 -1.497372
v 7.693334 12.014694 -4.723968
v 11.613265 8.716404 1.771267
v 12.685434 10.495294 -2.162699
v 10.389970 9.245572 -5.389296
v -3.215907 13.726812 3.144386
v 11.163177 6.568491 12.087833
v 1.095546 13.071540 -4.145738
v 15.474626 5.913221 4.797709
v 0.550306 15.466257 0.028247
v 14.929399 8.307938 8.971695
v 2.260063 14.692003 6.296175
v 6.026285 16.431450 3.180039
v 6.571516 14.036730 -0.993946
v 6.518235 13.040166 8.962975
v 10.284457 14.779615 5.846838
v 10.829687 12.384893 1.672853
v 9.654378 10.445937 11.050907
v 13.420599 12.185389 7.934768
v 13.965830 9.790667 3.760780
v 3.509975 11.817881 -2.804680
v -8.371673 13.034509 -11.947925
v -0.606675 13.205638 2.620728
v -12.488323 14.422264 -6.522515
v 1.284912 14.643940 -0.550032
v -10.596736 15.860573 -9.693278
v 0.525052 14.849859 -5.845098
v -1.700007 17.675922 -3.590451
v -3.591599 16.237614 -0.419691
v -2.792267 15.535891 -8.537666
v -5.017330 18.361956 -6.283020
v -6.908917 16.923645 -3.112259
v -5.806757 15.082533 -10.709017
v -8.031821 17.908596 -8.454370
v -9.923408 16.470285 -5.283607
v 2.253880 13.456177 4.680395
v 16.841923 9.979243 -3.853848
v -1.783785 12.972125 -2.177642
v 12.804258 9.495189 -10.711885
v 1.050370 15.426153 0.392608
v 15.638413 11.949224 -8.141635
v 7.046998 15.508186 1.713613
v 5.843493 17.478167 -2.574175
v 3.009337 15.024134 -5.144423
v 11.311884 14.910706 -0.755164
v 10.108378 16.880690 -5.042953
v 7.274223 14.426655 -7.613202
v 14.761327 13.213000 -2.666193
v 13.557817 15.182983 -6.953980
v 10.723658 12.728949 -9.524231
v -2.423595 12.724033 1.402713
v 6.112694 14.421011 13.670746
v 3.332543 12.444331 -2.482693
v 11.868836 14.141306 9.785341
v 0.854314 14.730001 -0.400710
v 9.390607 16.426985 11.867327
v -0.015367 15.952473 4.738041
v 3.262546 17.958443 2.934619
v 5.740770 15.672768 0.852636
v 2.387593 16.791769 8.237546
v 5.665506 18.797743 6.434126
v 8.143731 16.512066 4.352142
v 4.461470 16.451580 11.334440
v 7.739383 18.457554 9.531019
v 10.217607 16.171877 7.449034
v -2.419249 12.686578 1.413298
v 6.117040 14.383554 13.681333
v 3.336884 12.406875 -2.472108
v 11.873178 14.103849 9.795927
v 0.858660 14.692545 -0.390123
v 9.394953 16.389526 11.877912
v -0.011021 15.915012 4.748626
v 3.266891 17.920986 2.945205
v 5.745116 15.635307 0.863221
v 2.391934 16.754313 8.248132
v 5.669852 18.760283 6.444712
v 8.148077 16.474609 4.362729
v 4.465816 16.414124 11.345026
v 7.743729 18.420095 9.541607
v 10.221953 16.134422 7.459621
v 5.428958 13.429880 0.211437
v 1.517155 10.302289 -14.734468
v -1.634548 13.424252 1.988233
v -5.546347 10.296665 -12.957671
v 1.473831 15.465065 0.140276
v -2.437967 12.337479 -14.805628
v 4.173000 15.323055 -4.775534
v 0.217872 17.358250 -4.846694
v -2.890507 15.317430 -2.998739
v 3.074862 14.789511 -9.142780
v -0.880266 16.824705 -9.213945
v -3.988645 14.783886 -7.365988
v 2.196414 13.246378 -12.639871
v -1.758714 15.281572 -12.711036
v -4.867093 13.240754 -10.863076
v -1.008791 12.706551 -2.725332
v -11.561171 16.911278 5.024628
v 2.788516 13.067849 2.356390
v -7.763864 17.272573 10.106349
v 0.978761 14.884684 -0.202107
v -9.573613 19.089411 7.547853
v -3.621772 16.333666 -1.030668
v -1.634215 18.511805 1.492557
v 0.175535 16.694962 4.051054
v -6.601235 17.844482 1.088316
v -4.613683 20.022619 3.611540
v -2.803929 18.205778 6.170038
v -9.339006 18.206167 3.108397
v -7.351454 20.384304 5.631621
v -5.541704 18.567467 8.190118
v 3.522003 11.855146 -2.804045
v -8.359645 13.071777 -11.947289
v -0.594647 13.242901 2.621363
v -12.476295 14.459532 -6.521880
v 1.296944 14.681208 -0.549396
v -10.584703 15.897840 -9.692643
v 0.537084 14.887125 -5.844464
v -1.687979 17.713188 -3.589816
v -3.579566 16.274881 -0.419055
v -2.780239 15.573156 -8.537031
v -5.005298 18.399221 -6.282385
v -6.896889 16.960913 -3.111624
v -5.794729 15.119799 -10.708383
v -8.019789 17.945862 -8.453733
v -9.911380 16.507553 -5.282972
v 6.010367 13.272912 -1.179621
v -0.009753 1.487209 11.752020
v -2.099952 15.023918 -3.242960
v -8.120071 3.238214 9.688677
v 1.506950 15.651114 -0.024973
v -4.513174 3.865413 12.906666
v 4.242410 12.277520 4.924924
v -0.261007 14.655722 6.079571
v -3.867909 14.028526 2.861583
v 2.559532 9.210362 8.936893
v -1.943889 11.588567 10.091549
v -5.550786 10.961368 6.873550
v 1.143409 5.636396 11.470244
v -3.360008 8.014600 12.624887
v -6.966906 7.387403 9.406898
v -3.785085 13.224225 1.885429
v 1.273673 3.643098 -13.013261
v 4.419701 14.285824 3.888432
v 9.478458 4.704696 -11.010255
v 0.758653 15.582817 0.979123
v 5.817416 6.001690 -13.919566
v -2.265619 13.219639 -4.336235
v 2.278119 15.578232 -5.242540
v 5.939162 14.281237 -2.333232
v -0.854241 10.831742 -8.851998
v 3.689502 13.190331 -9.758304
v 7.350545 11.893340 -6.848995
v 0.317042 7.705749 -11.993060
v 4.860781 10.064342 -12.899370
v 8.521829 8.767346 -9.990059
v 5.427873 13.470898 0.210736
v 1.516070 10.343311 -14.735170
v -1.635634 13.465273 1.987531
v -5.547437 10.337687 -12.958373
v 1.472746 15.506088 0.139573
v -2.439057 12.378501 -14.806331
v 4.171915 15.364082 -4.776234
v 0.216787 17.399273 -4.847397
v -2.891592 15.358454 -2.999440
v 3.073776 14.830532 -9.143483
v -0.881351 16.865726 -9.214647
v -3.989730 14.824907 -7.366688
v 2.195323 13.287400 -12.640574
v -1.759799 15.322596 -12.711739
v -4.868178 13.281776 -10.863776
v 2.053867 13.354005 -4.184289
v -13.395306 10.587205 -2.724164
v 2.642079 13.504951 3.073902
v -12.807094 10.738152 4.534029
v 1.375286 15.494093 -0.343764
v -14.073887 12.727295 1.116362
v -3.030525 15.364805 -3.814062
v -3.709111 17.504896 0.026464
v -2.442313 15.515753 3.444130
v -7.529356 14.935305 -3.440539
v -8.207942 17.075394 0.399987
v -6.941139 15.086252 3.817653
v -11.155367 13.476019 -3.116333
v -11.833948 15.616108 0.724192
v -10.567150 13.626966 4.141859
v -1.021590 12.674932 -2.714450
v -11.573969 16.879658 5.035511
v 2.775717 13.036231 2.367272
v -7.776663 17.240953 10.117231
v 0.965967 14.853064 -0.191225
v -9.586408 19.057795 7.558735
v -3.634566 16.302046 -1.019785
v -1.647013 18.480183 1.503440
v 0.162736 16.663342 4.061937
v -6.614029 17.812862 1.099198
v -4.626477 19.990999 3.622423
v -2.816727 18.174158 6.180921
v -9.351805 18.174547 3.119279
v -7.364253 20.352686 5.642504
v -5.554503 18.535845 8.201001
v 0.502166 14.908541 -4.944517
v -10.780581 5.792943 1.296750
v 4.643032 13.690865 0.938454
v -6.639716 4.575268 7.179722
v 1.351343 15.685591 -0.639222
v -9.931404 6.570000 5.602047
v -4.013204 14.524294 -1.845799
v -3.164031 15.301353 2.459496
v 0.127662 13.306622 4.037169
v -7.421127 12.214880 0.074936
v -6.571955 12.991937 4.380232
v -3.280266 10.997207 5.957907
v -9.871852 9.360997 1.209225
v -9.022679 10.138055 5.514522
v -5.730981 8.143321 7.092195
v -0.360590 13.852596 4.195558
v 12.488124 5.223446 1.210195
v -1.583885 14.381765 -2.965005
v 11.264824 5.752614 -5.950367
v 0.711580 15.631489 0.261592
v 13.560293 7.002336 -2.723771
v 5.036935 13.691835 3.261575
v 6.109105 15.470728 -0.672391
v 3.813635 14.221003 -3.898988
v 8.932885 11.523202 2.435735
v 10.005059 13.302094 -1.498231
v 7.709595 12.052371 -4.724827
v 11.629526 8.754076 1.770407
v 12.701700 10.532969 -2.163558
v 10.406231 9.283244 -5.390155
v -3.852573 14.178318 -0.494753
v 0.865050 5.850067 13.331816
v 3.341662 13.554581 -3.226403
v 8.059286 5.226331 10.600164
v 0.650881 15.572525 -0.387239
v 5.368504 7.244277 13.439328
v -1.772969 14.437738 4.922972
v 2.730485 15.831947 5.030489
v 5.421262 13.814001 2.191323
v -0.369042 12.458576 9.072345
v 4.134407 13.852787 9.179866
v 6.825189 11.834840 6.340698
v 0.542694 9.750288 12.091951
v 5.046144 11.144496 12.199471
v 7.736926 9.126552 9.360303
v -3.784822 13.179852 1.903640
v 1.273941 3.598726 -12.995049
v 4.419964 14.241451 3.906648
v 9.478726 4.660324 -10.992043
v 0.758916 15.538446 0.997337
v 5.817679 5.957314 -13.901350
v -2.265356 13.175267 -4.318019
v 2.278382 15.533859 -5.224327
v 5.939425 14.236866 -2.315018
v -0.853978 10.787370 -8.833783
v 3.689765 13.145958 -9.740093
v 7.350808 11.848964 -6.830780
v 0.317306 7.661376 -11.974849
v 4.861044 10.019969 -12.881155
v 8.522091 8.722975 -9.971844
v 2.253029 13.500940 4.676652
v 16.841074 10.024008 -3.857590
v -1.784635 13.016888 -2.181385
v 12.803408 9.539953 -10.715625
v 1.049520 15.470917 0.388866
v 15.637568 11.993988 -8.145377
v 7.046152 15.552950 1.709871
v 5.842642 17.522930 -2.577918
v 3.008487 15.068897 -5.148166
v 11.311038 14.955471 -0.758906
v 10.107533 16.925453 -5.046696
v 7.273373 14.471418 -7.616944
v 14.760477 13.257765 -2.669936
v 13.556967 15.227747 -6.957724
v 10.722812 12.773713 -9.527973
v -3.843609 14.219246 -0.483038
v 0.874014 5.890995 13.343529
v 3.350627 13.595510 -3.214687
v 8.068251 5.267259 10.611880
v 0.659845 15.613455 -0.375524
v 5.377468 7.285205 13.451046
v -1.764004 14.478668 4.934688
v 2.739450 15.872875 5.042204
v 5.430227 13.854931 2.203038
v -0.360078 12.499505 9.084061
v 4.143372 13.893715 9.191582
v 6.834154 11.875768 6.352414
v 0.551659 9.791216 12.103667
v 5.055109 11.185427 12.211186
v 7.745891 9.167480 9.372018
v -2.055641 13.340878 -1.065088
v -2.975577 15.041700 10.632737
v 3.382003 12.943952 -0.526893
v 2.462063 14.644775 11.170931
v 0.895702 14.834080 -0.558204
v -0.024238 16.534906 11.139621
v -2.175926 15.981577 2.097772
v 0.775417 17.474783 2.604659
v 3.261719 15.584650 2.635968
v -2.447970 16.746698 5.410648
v 0.503373 18.239904 5.917534
v 2.989675 16.349771 5.948843
v -2.750695 16.571428 8.339971
v 0.200648 18.064634 8.846856
v 2.686949 16.174501 8.878165
v 3.126253 12.794548 2.649865
v 13.817261 17.664799 -3.730840
v -0.081639 13.092248 -2.620995
v 10.609373 17.962498 -9.001699
v 1.323053 14.876303 0.070992
v 12.014065 19.746555 -6.309711
v 5.607729 16.503059 1.349078
v 3.804530 18.584820 -1.229795
v 2.399837 16.800758 -3.921783
v 8.601692 18.190140 -0.377786
v 6.798497 20.271900 -2.956660
v 5.393805 18.487839 -5.648647
v 11.417105 18.746428 -2.059849
v 9.613905 20.828186 -4.638721
v 8.209213 19.044128 -7.330709
v -1.743693 13.646791 -3.421516
v -9.968865 10.478312 9.646437
v 4.415881 13.267408 0.447057
v -3.809291 10.098931 13.515009
v 1.021324 15.480848 -0.458242
v -7.203848 12.312373 12.609709
v -4.398367 15.524929 0.989462
v -1.633350 17.358990 3.952736
v 1.761206 15.145548 4.858037
v -6.816757 14.981192 4.786720
v -4.051745 16.815254 7.749996
v -0.657184 14.601814 8.655296
v -8.800960 13.431419 7.793999
v -6.035943 15.265484 10.757275
v -2.641386 13.052044 11.662572
v -1.741720 13.687710 -3.419042
v -9.966891 10.519233 9.648908
v 4.417854 13.308327 0.449531
v -3.807318 10.139853 13.517483
v 1.023298 15.521769 -0.455768
v -7.201874 12.353294 12.612183
v -4.396394 15.565849 0.991936
v -1.631382 17.399912 3.955210
v 1.763180 15.186470 4.860510
v -6.814784 15.022114 4.789194
v -4.049771 16.856174 7.752470
v -0.655210 14.642738 8.657770
v -8.798986 13.472340 7.796473
v -6.033969 15.306404 10.759748
v -2.639413 13.092964 11.665046
v 3.111096 12.824224 2.659922
v 13.802103 17.694479 -3.720783
v -0.096796 13.121923 -2.610939
v 10.594215 17.992178 -8.991643
v 1.307896 14.905977 0.081048
v 11.998903 19.776236 -6.299655
v 5.592567 16.532740 1.359134
v 3.789372 18.614498 -1.219738
v 2.384680 16.830439 -3.911726
v 8.586535 18.219820 -0.367730
v 6.783340 20.301580 -2.946604
v 5.378647 18.517519 -5.638592
v 11.401943 18.776106 -2.049793
v 9.598748 20.857864 -4.628664
v 8.194056 19.073803 -7.320653
vt 0.879370 0.630405
vt 0.992438 0.630992
vt 0.993169 0.473756
vt 0.880100 0.473168
vt 0.757717 0.629902
vt 0.758448 0.472666
vt 0.880900 0.301129
vt 0.759248 0.300627
vt 0.993968 0.301717
vt 0.881569 0.157170
vt 0.759917 0.156667
vt 0.994637 0.157758
vt 0.882281 0.003841
vt 0.760629 0.003338
vt 0.995350 0.004429
vt 0.879370 0.630405
vt 0.880100 0.473168
vt 0.993169 0.473756
vt 0.992438 0.630992
vt 0.757717 0.629902
vt 0.758448 0.472666
vt 0.759248 0.300627
vt 0.880900 0.301129
vt 0.993968 0.301717
vt 0.759917 0.156667
vt 0.881569 0.157170
vt 0.994637 0.157758
vt 0.760629 0.003338
vt 0.882281 0.003841
vt 0.995350 0.004429
vt 0.879370 0.630405
vt 0.880100 0.473168
vt 0.993169 0.473756
vt 0.992438 0.630992
vt 0.757717 0.629902
vt 0.758448 0.472666
vt 0.759248 0.300627
vt 0.880900 0.301129
vt 0.993968 0.301717
vt 0.759917 0.156667
vt 0.881569 0.157170
vt 0.994637 0.157758
vt 0.760629 0.003338
vt 0.882281 0.003841
vt 0.995350 0.004429
vt 0.879370 0.630405
vt 0.992438 0.630992
vt 0.993169 0.473756
vt 0.880100 0.473168
vt 0.757717 0.629902
vt 0.758448 0.472666
vt 0.880900 0.301129
vt 0.759248 0.300627
vt 0.993968 0.301717
vt 0.881569 0.157170
vt 0.759917 0.156667
vt 0.994637 0.157758
vt 0.882281 0.003841
vt 0.760629 0.003338
vt 0.995350 0.004429
vt 0.879370 0.630405
vt 0.880100 0.473168
vt 0.993169 0.473756
vt 0.992438 0.630992
vt 0.757717 0.629902
vt 0.758448 0.472666
vt 0.759248 0.300627
vt 0.880900 0.301129
vt 0.993968 0.301717
vt 0.759917 0.156667
vt 0.881569 0.157170
vt 0.994637 0.157758
vt 0.760629 0.003338
vt 0.882281 0.003841
vt 0.995350 0.004429
vt 0.879370 0.630405
vt 0.880100 0.473168
vt 0.993169 0.473756
vt 0.992438 0.630992
vt 0.757717 0.629902
vt 0.758448 0.472666
vt 0.759248 0.300627
vt 0.880900 0.301129
vt 0.993968 0.301717
vt 0.759917 0.156667
vt 0.881569 0.157170
vt 0.994637 0.157758
vt 0.760629 0.003338
vt 0.882281 0.003841
vt 0.995350 0.004429
vt 0.879370 0.630405
vt 0.880100 0.473168
vt 0.993169 0.473756
vt 0.992438 0.630992
vt 0.757717 0.629902
vt 0.758448 0.472666
vt 0.759248 0.300627
vt 0.880900 0.301129
vt 0.993968 0.301717
vt 0.759917 0.156667
vt 0.881569 0.157170
vt 0.994637 0.157758
vt 0.760629 0.003338
vt 0.882281 0.003841
vt 0.995350 0.004429
vt 0.879370 0.630405
vt 0.992438 0.630992
vt 0.993169 0.473756
vt 0.880100 0.473168
vt 0.757717 0.629902
vt 0.758448 0.472666
vt 0.880900 0.301129
vt 0.759248 0.300627
vt 0.993968 0.301717
vt 0.881569 0.157170
vt 0.759917 0.156667
vt 0.994637 0.157758
vt 0.882281 0.003841
vt 0.760629 0.003338
vt 0.995350 0.004429
vt 0.879370 0.630405
vt 0.880100 0.473168
vt 0.993169 0.473756
vt 0.992438 0.630992
vt 0.757717 0.629902
vt 0.758448 0.472666
vt 0.759248 0.300627
vt 0.880900 0.301129
vt 0.993968 0.301717
vt 0.759917 0.156667
vt 0.881569 0.157170
vt 0.994637 0.157758
vt 0.760629 0.003338
vt 0.882281 0.003841
vt 0.995350 0.004429
vt 0.879370 0.630405
vt 0.992438 0.630992
vt 0.993169 0.473756
vt 0.880100 0.473168
vt 0.757717 0.629902
vt 0.758448 0.472666
vt 0.880900 0.301129
vt 0.759248 0.300627
vt 0.993968 0.301717
vt 0.881569 0.157170
vt 0.759917 0.156667
vt 0.994637 0.157758
vt 0.882281 0.003841
vt 0.760629 0.003338
vt 0.995350 0.004429
vt 0.879370 0.630405
vt 0.992438 0.630992
vt 0.993169 0.473756
vt 0.880100 0.473168
vt 0.757717 0.629902
vt 0.758448 0.472666
vt 0.880900 0.301129
vt 0.759248 0.300627
vt 0.993968 0.301717
vt 0.881569 0.157170
vt 0.759917 0.156667
vt 0.994637 0.157758
vt 0.882281 0.003841
vt 0.760629 0.003338
vt 0.995350 0.004429
vt 0.879370 0.630405
vt 0.992438 0.630992
vt 0.993169 0.473756
vt 0.880100 0.473168
vt 0.757717 0.629902
vt 0.758448 0.472666
vt 0.880900 0.301129
vt 0.759248 0.300627
vt 0.993968 0.301717
vt 0.881569 0.157170
vt 0.759917 0.156667
vt 0.994637 0.157758
vt 0.882281 0.003841
vt 0.760629 0.003338
vt 0.995350 0.004429
vt 0.879370 0.630405
vt 0.992438 0.630992
vt 0.993169 0.473756
vt 0.880100 0.473168
vt 0.757717 0.629902
vt 0.758448 0.472666
vt 0.880900 0.301129
vt 0.759248 0.300627
vt 0.993968 0.301717
vt 0.881569 0.157170
vt 0.759917 0.156667
vt 0.994637 0.157758
vt 0.882281 0.003841
vt 0.760629 0.003338
vt 0.995350 0.004429
vt 0.879370 0.630405
vt 0.880100 0.473168
vt 0.993169 0.473756
vt 0.992438 0.630992
vt 0.757717 0.629902
vt 0.758448 0.472666
vt 0.759248 0.300627
vt 0.880900 0.301129
vt 0.993968 0.301717
vt 0.759917 0.156667
vt 0.881569 0.157170
vt 0.994637 0.157758
vt 0.760629 0.003338
vt 0.882281 0.003841
vt 0.995350 0.004429
vt 0.879370 0.630405
vt 0.992438 0.630992
vt 0.993169 0.473756
vt 0.880100 0.473168
vt 0.757717 0.629902
vt 0.758448 0.472666
vt 0.880900 0.301129
vt 0.759248 0.300627
vt 0.993968 0.301717
vt 0.881569 0.157170
vt 0.759917 0.156667
vt 0.994637 0.157758
vt 0.882281 0.003841
vt 0.760629 0.003338
vt 0.995350 0.004429
vt 0.879370 0.630405
vt 0.992438 0.630992
vt 0.993169 0.473756
vt 0.880100 0.473168
vt 0.757717 0.629902
vt 0.758448 0.472666
vt 0.880900 0.301129
vt 0.759248 0.300627
vt 0.993968 0.301717
vt 0.881569 0.157170
vt 0.759917 0.156667
vt 0.994637 0.157758
vt 0.882281 0.003841
vt 0.760629 0.003338
vt 0.995350 0.004429
vt 0.879370 0.630405
vt 0.880100 0.473168
vt 0.993169 0.473756
vt 0.992438 0.630992
vt 0.757717 0.629902
vt 0.758448 0.472666
vt 0.759248 0.300627
vt 0.880900 0.301129
vt 0.993968 0.301717
vt 0.759917 0.156667
vt 0.881569 0.157170
vt 0.994637 0.157758
vt 0.760629 0.003338
vt 0.882281 0.003841
vt 0.995350 0.004429
vt 0.879370 0.630405
vt 0.880100 0.473168
vt 0.993169 0.473756
vt 0.992438 0.630992
vt 0.757717 0.629902
vt 0.758448 0.472666
vt 0.759248 0.300627
vt 0.880900 0.301129
vt 0.993968 0.301717
vt 0.759917 0.156667
vt 0.881569 0.157170
vt 0.994637 0.157758
vt 0.760629 0.003338
vt 0.882281 0.003841
vt 0.995350 0.004429
vt 0.879370 0.630405
vt 0.992438 0.630992
vt 0.993169 0.473756
vt 0.880100 0.473168
vt 0.757717 0.629902
vt 0.758448 0.472666
vt 0.880900 0.301129
vt 0.759248 0.300627
vt 0.993968 0.301717
vt 0.881569 0.157170
vt 0.759917 0.156667
vt 0.994637 0.157758
vt 0.882281 0.003841
vt 0.760629 0.003338
vt 0.995350 0.004429
vt 0.879370 0.630405
vt 0.992438 0.630992
vt 0.993169 0.473756
vt 0.880100 0.473168
vt 0.757717 0.629902
vt 0.758448 0.472666
vt 0.880900 0.301129
vt 0.759248 0.300627
vt 0.993968 0.301717
vt 0.881569 0.157170
vt 0.759917 0.156667
vt 0.994637 0.157758
vt 0.882281 0.003841
vt 0.760629 0.003338
vt 0.995350 0.004429
vt 0.879370 0.630405
vt 0.880100 0.473168
vt 0.993169 0.473756
vt 0.992438 0.630992
vt 0.757717 0.629902
vt 0.758448 0.472666
vt 0.759248 0.300627
vt 0.880900 0.301129
vt 0.993968 0.301717
vt 0.759917 0.156667
vt 0.881569 0.157170
vt 0.994637 0.157758
vt 0.760629 0.003338
vt 0.882281 0.003841
vt 0.995350 0.004429
vt 0.879370 0.630405
vt 0.880100 0.473168
vt 0.993169 0.473756
vt 0.992438 0.630992
vt 0.757717 0.629902
vt 0.758448 0.472666
vt 0.759248 0.300627
vt 0.880900 0.301129
vt 0.993968 0.301717
vt 0.759917 0.156667
vt 0.881569 0.157170
vt 0.994637 0.157758
vt 0.760629 0.003338
vt 0.882281 0.003841
vt 0.995350 0.004429
vt 0.879370 0.630405
vt 0.992438 0.630992
vt 0.993169 0.473756
vt 0.880100 0.473168
vt 0.757717 0.629902
vt 0.758448 0.472666
vt 0.880900 0.301129
vt 0.759248 0.300627
vt 0.993968 0.301717
vt 0.881569 0.157170
vt 0.759917 0.156667
vt 0.994637 0.157758
vt 0.882281 0.003841
vt 0.760629 0.003338
vt 0.995350 0.004429
vt 0.879370 0.630405
vt 0.992438 0.630992
vt 0.993169 0.473756
vt 0.880100 0.473168
vt 0.757717 0.629902
vt 0.758448 0.472666
vt 0.880900 0.301129
vt 0.759248 0.300627
vt 0.993968 0.301717
vt 0.881569 0.157170
vt 0.759917 0.156667
vt 0.994637 0.157758
vt 0.882281 0.003841
vt 0.760629 0.003338
vt 0.995350 0.004429
vt 0.879370 0.630405
vt 0.880100 0.473168
vt 0.993169 0.473756
vt 0.992438 0.630992
vt 0.757717 0.629902
vt 0.758448 0.472666
vt 0.759248 0.300627
vt 0.880900 0.301129
vt 0.993968 0.301717
vt 0.759917 0.156667
vt 0.881569 0.157170
vt 0.994637 0.157758
vt 0.760629 0.003338
vt 0.882281 0.003841
vt 0.995350 0.004429
vt 0.879370 0.630405
vt 0.992438 0.630992
vt 0.993169 0.473756
vt 0.880100 0.473168
vt 0.757717 0.629902
vt 0.758448 0.472666
vt 0.880900 0.301129
vt 0.759248 0.300627
vt 0.993968 0.301717
vt 0.881569 0.157170
vt 0.759917 0.156667
vt 0.994637 0.157758
vt 0.882281 0.003841
vt 0.760629 0.003338
vt 0.995350 0.004429
vt 0.879370 0.630405
vt 0.880100 0.473168
vt 0.993169 0.473756
vt 0.992438 0.630992
vt 0.757717 0.629902
vt 0.758448 0.472666
vt 0.759248 0.300627
vt 0.880900 0.301129
vt 0.993968 0.301717
vt 0.759917 0.156667
vt 0.881569 0.157170
vt 0.994637 0.157758
vt 0.760629 0.003338
vt 0.882281 0.003841
vt 0.995350 0.004429
vt 0.879370 0.630405
vt 0.880100 0.473168
vt 0.993169 0.473756
vt 0.992438 0.630992
vt 0.757717 0.629902
vt 0.758448 0.472666
vt 0.759248 0.300627
vt 0.880900 0.301129
vt 0.993968 0.301717
vt 0.759917 0.156667
vt 0.881569 0.157170
vt 0.994637 0.157758
vt 0.760629 0.003338
vt 0.882281 0.003841
vt 0.995350 0.004429
vt 0.879370 0.630405
vt 0.880100 0.473168
vt 0.993169 0.473756
vt 0.992438 0.630992
vt 0.757717 0.629902
vt 0.758448 0.472666
vt 0.759248 0.300627
vt 0.880900 0.301129
vt 0.993968 0.301717
vt 0.759917 0.156667
vt 0.881569 0.157170
vt 0.994637 0.157758
vt 0.760629 0.003338
vt 0.882281 0.003841
vt 0.995350 0.004429
vt 0.879370 0.630405
vt 0.992438 0.630992
vt 0.993169 0.473756
vt 0.880100 0.473168
vt 0.757717 0.629902
vt 0.758448 0.472666
vt 0.880900 0.301129
vt 0.759248 0.300627
vt 0.993968 0.301717
vt 0.881569 0.157170
vt 0.759917 0.156667
vt 0.994637 0.157758
vt 0.882281 0.003841
vt 0.760629 0.003338
vt 0.995350 0.004429
vt 0.879370 0.630405
vt 0.992438 0.630992
vt 0.993169 0.473756
vt 0.880100 0.473168
vt 0.757717 0.629902
vt 0.758448 0.472666
vt 0.880900 0.301129
vt 0.759248 0.300627
vt 0.993968 0.301717
vt 0.881569 0.157170
vt 0.759917 0.156667
vt 0.994637 0.157758
vt 0.882281 0.003841
vt 0.760629 0.003338
vt 0.995350 0.004429
vt 0.879370 0.630405
vt 0.992438 0.630992
vt 0.993169 0.473756
vt 0.880100 0.473168
vt 0.757717 0.629902
vt 0.758448 0.472666
vt 0.880900 0.301129
vt 0.759248 0.300627
vt 0.993968 0.301717
vt 0.881569 0.157170
vt 0.759917 0.156667
vt 0.994637 0.157758
vt 0.882281 0.003841
vt 0.760629 0.003338
vt 0.995350 0.004429
vt 0.879370 0.630405
vt 0.880100 0.473168
vt 0.993169 0.473756
vt 0.992438 0.630992
vt 0.757717 0.629902
vt 0.758448 0.472666
vt 0.759248 0.300627
vt 0.880900 0.301129
vt 0.993968 0.301717
vt 0.759917 0.156667
vt 0.881569 0.157170
vt 0.994637 0.157758
vt 0.760629 0.003338
vt 0.882281 0.003841
vt 0.995350 0.004429
vt 0.879370 0.630405
vt 0.880100 0.473168
vt 0.993169 0.473756
vt 0.992438 0.630992
vt 0.757717 0.629902
vt 0.758448 0.472666
vt 0.759248 0.300627
vt 0.880900 0.301129
vt 0.993968 0.301717
vt 0.759917 0.156667
vt 0.881569 0.157170
vt 0.994637 0.157758
vt 0.760629 0.003338
vt 0.882281 0.003841
vt 0.995350 0.004429
vn -0.234909 0.955711 0.177296
vn 0.010626 0.987633 -0.156426
vn -0.069789 0.952577 -0.296188
vn -0.435393 0.899998 0.020894
vn -0.428023 0.776812 0.461909
vn -0.573063 0.712937 0.404128
vn -0.654142 0.730698 -0.195394
vn -0.834438 0.498515 0.234938
vn -0.241965 0.779364 -0.577966
vn -0.802970 0.447495 -0.393686
vn -0.976671 0.212365 0.031843
vn -0.374021 0.515710 -0.770812
vn -0.825258 0.193721 -0.530491
vn -0.994969 0.015843 -0.098918
vn -0.430868 0.328125 -0.840647
vn -0.368561 0.704129 0.606931
vn -0.294958 0.861574 0.413146
vn -0.705461 0.667850 0.237278
vn -0.703678 0.596491 0.386053
vn 0.002476 0.695045 0.718962
vn 0.098682 0.784068 0.612780
vn 0.301006 0.900016 0.315225
vn -0.170041 0.979616 0.106950
vn -0.638992 0.760133 -0.117843
vn 0.460514 0.887213 -0.027929
vn -0.006033 0.972753 -0.231765
vn -0.494346 0.750285 -0.438970
vn 0.527596 0.814038 -0.242869
vn 0.096134 0.870719 -0.482293
vn -0.379024 0.700378 -0.604824
vn 0.234909 -0.955711 -0.177296
vn 0.435393 -0.899998 -0.020894
vn 0.069789 -0.952577 0.296188
vn -0.010626 -0.987633 0.156426
vn 0.428023 -0.776812 -0.461908
vn 0.573063 -0.712937 -0.404128
vn 0.834438 -0.498516 -0.234938
vn 0.654142 -0.730698 0.195394
vn 0.241965 -0.779364 0.577966
vn 0.976671 -0.212365 -0.031842
vn 0.802970 -0.447495 0.393686
vn 0.374021 -0.515711 0.770812
vn 0.994969 -0.015843 0.098918
vn 0.825258 -0.193722 0.530491
vn 0.430868 -0.328125 0.840647
vn 0.368561 -0.704129 -0.606931
vn 0.703677 -0.596491 -0.386053
vn 0.705461 -0.667850 -0.237279
vn 0.294958 -0.861574 -0.413146
vn -0.002476 -0.695045 -0.718962
vn -0.098682 -0.784068 -0.612780
vn 0.170041 -0.979616 -0.106950
vn -0.301007 -0.900016 -0.315225
vn 0.638992 -0.760133 0.117844
vn 0.006033 -0.972753 0.231765
vn -0.460514 -0.887213 0.027929
vn 0.494345 -0.750285 0.438970
vn -0.096134 -0.870719 0.482293
vn -0.527596 -0.814038 0.242868
vn 0.379024 -0.700378 0.604823
vn -0.089952 0.985269 -0.145442
vn 0.132020 0.991201 -0.009601
vn 0.284662 0.847079 -0.448805
vn 0.124230 0.867583 -0.481526
vn -0.276333 0.941747 0.191708
vn -0.166529 0.932854 0.319455
vn 0.093115 0.817238 0.568728
vn 0.418178 0.892617 0.168413
vn 0.613634 0.716817 -0.331098
vn 0.339806 0.584386 0.736903
vn 0.662898 0.665757 0.342540
vn 0.846599 0.501825 -0.177321
vn 0.470873 0.394277 0.789192
vn 0.802018 0.424464 0.420236
vn 0.935924 0.344090 -0.075156
vn 0.121660 0.764195 -0.633407
vn 0.105773 0.903942 -0.414368
vn 0.559871 0.729967 -0.392036
vn 0.514437 0.667785 -0.537976
vn -0.264829 0.735240 -0.623930
vn -0.326581 0.810535 -0.486188
vn -0.429365 0.893439 -0.131955
vn 0.078932 0.993976 -0.076037
vn 0.605182 0.795603 -0.027776
vn -0.470797 0.848486 0.241706
vn 0.031537 0.954881 0.295310
vn 0.570681 0.755992 0.320623
vn -0.462461 0.757822 0.460256
vn 0.019370 0.830812 0.556216
vn 0.516604 0.687990 0.509696
vn 0.039559 0.982957 0.179531
vn -0.176453 0.932318 0.315669
vn 0.172675 0.770380 0.613757
vn 0.266775 0.828992 0.491532
vn -0.179213 0.973741 -0.140400
vn -0.338896 0.935282 -0.101964
vn -0.656704 0.754120 -0.006583
vn -0.443636 0.763737 0.468928
vn -0.054196 0.562884 0.824757
vn -0.880913 0.464665 0.089884
vn -0.673145 0.480379 0.562238
vn -0.262045 0.294459 0.919036
vn -0.958072 0.247546 0.144290
vn -0.769809 0.210838 0.602446
vn -0.370689 0.117011 0.921357
vn -0.364504 -0.930079 0.045711
vn -0.365391 -0.857007 -0.363357
vn -0.215793 -0.876567 -0.430191
vn -0.112392 -0.993181 0.030982
vn -0.306833 -0.853419 0.421343
vn -0.144558 -0.874998 0.462041
vn 0.236886 -0.971535 0.002153
vn 0.228712 -0.832636 0.504388
vn 0.139019 -0.832613 -0.536125
vn 0.578567 -0.815364 -0.021030
vn 0.569776 -0.670940 0.474547
vn 0.457145 -0.684519 -0.567848
vn 0.784369 -0.616937 -0.064457
vn 0.743648 -0.519478 0.420868
vn 0.620141 -0.555981 -0.553453
vn -0.154005 -0.967138 -0.202301
vn -0.081916 -0.893581 -0.441365
vn 0.344742 -0.915363 -0.207998
vn 0.245069 -0.965641 -0.086480
vn -0.503399 -0.817727 -0.279128
vn -0.505261 -0.746923 -0.432224
vn -0.457391 -0.513701 -0.725882
vn 0.028923 -0.700600 -0.712967
vn 0.532362 -0.711957 -0.457938
vn -0.343931 -0.206548 -0.915996
vn 0.135920 -0.396831 -0.907772
vn 0.641901 -0.428339 -0.635994
vn -0.246957 0.002828 -0.969022
vn 0.231653 -0.129855 -0.964093
vn 0.669592 -0.233968 -0.704915
vn -0.040692 -0.997151 -0.063523
vn 0.031143 -0.939309 0.341656
vn -0.106222 -0.899440 0.423939
vn -0.294199 -0.955500 -0.021587
vn -0.101561 -0.895780 -0.432740
vn -0.262352 -0.850408 -0.456046
vn -0.601324 -0.797869 0.042605
vn -0.590479 -0.662709 -0.460599
vn -0.401629 -0.720812 0.564911
vn -0.848793 -0.519643 0.097582
vn -0.834509 -0.379802 -0.399180
vn -0.629929 -0.459520 0.626124
vn -0.953465 -0.256908 0.157810
vn -0.927606 -0.173049 -0.331061
vn -0.729186 -0.276640 0.625906
vn 0.089951 -0.985269 0.145442
vn -0.124231 -0.867582 0.481526
vn -0.284662 -0.847078 0.448806
vn -0.132020 -0.991201 0.009601
vn 0.276333 -0.941747 -0.191708
vn 0.166529 -0.932854 -0.319455
vn -0.418178 -0.892617 -0.168412
vn -0.093114 -0.817238 -0.568728
vn -0.613634 -0.716817 0.331099
vn -0.662898 -0.665757 -0.342540
vn -0.339806 -0.584385 -0.736903
vn -0.846599 -0.501824 0.177322
vn -0.802018 -0.424464 -0.420236
vn -0.470872 -0.394277 -0.789193
vn -0.935924 -0.344089 0.075157
vn -0.566794 -0.790547 -0.231904
vn -0.276377 -0.802437 -0.528877
vn -0.135447 -0.869402 -0.475178
vn -0.402830 -0.912541 -0.070683
vn -0.750151 -0.656147 0.082132
vn -0.671711 -0.706543 0.222712
vn -0.136641 -0.979455 0.148315
vn -0.429364 -0.745158 0.510281
vn 0.192032 -0.931770 -0.308106
vn 0.161928 -0.915459 0.368393
vn -0.125153 -0.677089 0.725181
vn 0.477501 -0.871651 -0.110532
vn 0.393162 -0.783491 0.481213
vn 0.076393 -0.584380 0.807876
vn 0.619816 -0.784625 0.013846
vn 0.325852 -0.937516 -0.121999
vn 0.503145 -0.830691 0.238323
vn 0.397890 -0.841731 0.364927
vn 0.106467 -0.994298 0.006085
vn 0.109148 -0.891278 -0.440124
vn -0.054240 -0.913034 -0.404260
vn -0.195866 -0.963594 0.182000
vn -0.409516 -0.867149 -0.283460
vn 0.123680 -0.782278 0.610528
vn -0.496355 -0.799472 0.338344
vn -0.706657 -0.696981 -0.121875
vn -0.151735 -0.625948 0.764961
vn -0.666504 -0.594186 0.450239
vn -0.842716 -0.538251 -0.010758
vn -0.307169 -0.495933 0.812218
vn -0.316832 0.785519 -0.531581
vn -0.190797 0.918402 -0.346603
vn 0.174995 0.759942 -0.625991
vn 0.047565 0.700332 -0.712231
vn -0.608388 0.742736 -0.279655
vn -0.568908 0.811908 -0.130954
vn -0.423182 0.881149 0.210936
vn 0.003259 0.997882 -0.064966
vn 0.441401 0.816855 -0.371365
vn -0.216621 0.824271 0.523117
vn 0.203696 0.946713 0.249486
vn 0.637160 0.766270 -0.082814
vn -0.070115 0.727843 0.682150
vn 0.361695 0.815001 0.452713
vn 0.716576 0.691116 0.094222
vn 0.316832 -0.785519 0.531580
vn -0.047565 -0.700332 0.712231
vn -0.174995 -0.759942 0.625991
vn 0.190797 -0.918402 0.346603
vn 0.608388 -0.742736 0.279654
vn 0.568908 -0.811908 0.130954
vn -0.003259 -0.997882 0.064966
vn 0.423182 -0.881149 -0.210935
vn -0.441401 -0.816856 0.371365
vn -0.203695 -0.946713 -0.249486
vn 0.216621 -0.824272 -0.523117
vn -0.637160 -0.766270 0.082814
vn -0.361695 -0.815001 -0.452714
vn 0.070115 -0.727843 -0.682150
vn -0.716576 -0.691116 -0.094222
vn -0.080506 -0.938424 -0.335974
vn 0.320744 -0.855883 -0.405694
vn 0.411807 -0.870699 -0.268883
vn -0.022776 -0.995796 -0.088720
vn -0.443399 -0.869323 -0.218348
vn -0.456218 -0.888392 -0.051233
vn 0.062622 -0.966071 0.250571
vn -0.437595 -0.839108 0.323124
vn 0.573551 -0.816764 0.062743
vn 0.137641 -0.802179 0.581002
vn -0.356259 -0.669553 0.651750
vn 0.653324 -0.661248 0.368673
vn 0.209114 -0.598468 0.773374
vn -0.278695 -0.513223 0.811746
vn 0.662583 -0.529646 0.529584
vn 0.588503 0.649139 -0.481958
vn 0.424978 0.822698 -0.377574
vn 0.707218 0.706993 0.001799
vn 0.779855 0.615372 -0.114643
vn 0.317687 0.579509 -0.750496
vn 0.179036 0.670587 -0.719902
vn -0.145605 0.802749 -0.578268
vn 0.163912 0.967472 -0.192695
vn 0.474785 0.840504 0.261020
vn -0.449871 0.820117 -0.353588
vn -0.142383 0.989497 0.024954
vn 0.194019 0.859410 0.473045
vn -0.609270 0.770941 -0.185578
vn -0.348556 0.912846 0.212652
vn 0.015100 0.820255 0.571798
vn 0.566795 0.790547 0.231904
vn 0.402830 0.912542 0.070683
vn 0.135447 0.869402 0.475179
vn 0.276377 0.802437 0.528877
vn 0.750151 0.656147 -0.082132
vn 0.671711 0.706543 -0.222713
vn 0.429364 0.745158 -0.510281
vn 0.136642 0.979455 -0.148316
vn -0.192032 0.931770 0.308105
vn 0.125153 0.677089 -0.725181
vn -0.161928 0.915459 -0.368393
vn -0.477501 0.871651 0.110531
vn -0.076393 0.584381 -0.807876
vn -0.393162 0.783491 -0.481213
vn -0.619816 0.784625 -0.013847
vn 0.154005 0.967139 0.202301
vn -0.245068 0.965641 0.086480
vn -0.344741 0.915363 0.207998
vn 0.081916 0.893581 0.441365
vn 0.503399 0.817727 0.279128
vn 0.505261 0.746923 0.432224
vn -0.028924 0.700601 0.712967
vn 0.457391 0.513701 0.725882
vn -0.532363 0.711957 0.457938
vn -0.135920 0.396831 0.907772
vn 0.343931 0.206548 0.915996
vn -0.641902 0.428339 0.635993
vn -0.231653 0.129856 0.964092
vn 0.246957 -0.002828 0.969022
vn -0.669593 0.233969 0.704914
vn -0.117939 0.992582 -0.029535
vn 0.284194 0.956302 0.068701
vn 0.377626 0.923787 -0.063368
vn -0.056835 0.958250 -0.280227
vn -0.475819 0.871747 -0.116848
vn -0.485682 0.828237 -0.279528
vn 0.036694 0.810429 -0.584687
vn -0.457498 0.646932 -0.610061
vn 0.548060 0.759111 -0.351256
vn 0.123997 0.540560 -0.832118
vn -0.363737 0.372687 -0.853698
vn 0.639322 0.506128 -0.578880
vn 0.206102 0.283702 -0.936502
vn -0.277768 0.171933 -0.945137
vn 0.656258 0.325471 -0.680730
vn 0.080506 0.938424 0.335975
vn 0.022776 0.995796 0.088720
vn -0.411808 0.870699 0.268883
vn -0.320744 0.855883 0.405694
vn 0.443399 0.869322 0.218349
vn 0.456218 0.888392 0.051233
vn 0.437595 0.839108 -0.323124
vn -0.062622 0.966071 -0.250571
vn -0.573551 0.816764 -0.062743
vn 0.356259 0.669553 -0.651751
vn -0.137641 0.802179 -0.581002
vn -0.653324 0.661248 -0.368672
vn 0.278694 0.513222 -0.811746
vn -0.209114 0.598469 -0.773373
vn -0.662583 0.529646 -0.529583
vn 0.364504 0.930079 -0.045711
vn 0.112392 0.993181 -0.030982
vn 0.215793 0.876567 0.430191
vn 0.365392 0.857007 0.363357
vn 0.306833 0.853418 -0.421343
vn 0.144558 0.874998 -0.462041
vn -0.228712 0.832636 -0.504389
vn -0.236886 0.971535 -0.002153
vn -0.139020 0.832613 0.536125
vn -0.569776 0.670940 -0.474547
vn -0.578567 0.815364 0.021030
vn -0.457145 0.684520 0.567848
vn -0.743648 0.519478 -0.420868
vn -0.784369 0.616937 0.064457
vn -0.620141 0.555981 0.553453
vn -0.588503 -0.649139 0.481958
vn -0.779855 -0.615372 0.114643
vn -0.707218 -0.706993 -0.001799
vn -0.424978 -0.822698 0.377574
vn -0.317687 -0.579510 0.750496
vn -0.179036 -0.670587 0.719902
vn -0.163913 -0.967471 0.192695
vn 0.145605 -0.802749 0.578268
vn -0.474786 -0.840504 -0.261020
vn 0.142383 -0.989497 -0.024953
vn 0.449871 -0.820117 0.353589
vn -0.194019 -0.859410 -0.473045
vn 0.348555 -0.912846 -0.212652
vn 0.609270 -0.770941 0.185579
vn -0.015101 -0.820255 -0.571798
vn -0.039559 -0.982957 -0.179531
vn -0.266774 -0.828992 -0.491531
vn -0.172675 -0.770380 -0.613757
vn 0.176454 -0.932318 -0.315669
vn 0.179213 -0.973740 0.140401
vn 0.338897 -0.935282 0.101964
vn 0.443636 -0.763737 -0.468928
vn 0.656703 -0.754120 0.006583
vn 0.054196 -0.562884 -0.824757
vn 0.673145 -0.480379 -0.562238
vn 0.880913 -0.464665 -0.089884
vn 0.262045 -0.294459 -0.919036
vn 0.769809 -0.210837 -0.602446
vn 0.958072 -0.247546 -0.144291
vn 0.370689 -0.117010 -0.921357
vn 0.040691 0.997150 0.063524
vn 0.294198 0.955501 0.021587
vn 0.106222 0.899440 -0.423939
vn -0.031143 0.939309 -0.341656
vn 0.101561 0.895780 0.432741
vn 0.262352 0.850408 0.456046
vn 0.590478 0.662709 0.460600
vn 0.601324 0.797869 -0.042605
vn 0.401628 0.720812 -0.564911
vn 0.834509 0.379802 0.399181
vn 0.848793 0.519642 -0.097582
vn 0.629928 0.459519 -0.626125
vn 0.927606 0.173049 0.331062
vn 0.953464 0.256908 -0.157810
vn 0.729186 0.276640 -0.625906
vn -0.062491 -0.995470 0.071654
vn -0.435780 -0.875405 0.209192
vn -0.538480 -0.838291 0.085481
vn -0.148783 -0.973627 -0.172960
vn 0.296535 -0.952583 -0.068212
vn 0.292577 -0.926943 -0.234893
vn -0.253858 -0.839696 -0.480069
vn 0.253735 -0.774951 -0.578852
vn -0.713499 -0.671906 -0.198649
vn -0.325450 -0.570880 -0.753776
vn 0.174842 -0.499317 -0.848594
vn -0.788862 -0.417942 -0.450580
vn -0.374063 -0.308899 -0.874447
vn 0.113222 -0.292496 -0.949540
vn -0.784726 -0.245755 -0.569043
vn 0.117939 -0.992582 0.029535
vn 0.056835 -0.958250 0.280228
vn -0.377626 -0.923787 0.063368
vn -0.284194 -0.956302 -0.068701
vn 0.475819 -0.871747 0.116848
vn 0.485682 -0.828237 0.279528
vn 0.457498 -0.646932 0.610061
vn -0.036694 -0.810429 0.584687
vn -0.548061 -0.759111 0.351256
vn 0.363737 -0.372687 0.853698
vn -0.123997 -0.540560 0.832118
vn -0.639322 -0.506128 0.578880
vn 0.277767 -0.171933 0.945137
vn -0.206102 -0.283702 0.936502
vn -0.656258 -0.325472 0.680731
vn -0.325852 0.937516 0.121999
vn -0.106467 0.994298 -0.006085
vn -0.397890 0.841731 -0.364927
vn -0.503146 0.830691 -0.238322
vn -0.109148 0.891278 0.440124
vn 0.054240 0.913034 0.404260
vn 0.409516 0.867149 0.283459
vn 0.195866 0.963594 -0.182000
vn -0.123680 0.782278 -0.610528
vn 0.706657 0.696981 0.121874
vn 0.496355 0.799472 -0.338345
vn 0.151735 0.625949 -0.764961
vn 0.842716 0.538251 0.010758
vn 0.666505 0.594186 -0.450239
vn 0.307169 0.495933 -0.812218
vn 0.062491 0.995470 -0.071654
vn 0.148783 0.973626 0.172960
vn 0.538480 0.838291 -0.085481
vn 0.435780 0.875405 -0.209192
vn -0.296535 0.952583 0.068213
vn -0.292577 0.926943 0.234893
vn -0.253735 0.774951 0.578852
vn 0.253858 0.839696 0.480069
vn 0.713499 0.671906 0.198649
vn -0.174842 0.499317 0.848594
vn 0.325450 0.570880 0.753776
vn 0.788862 0.417942 0.450579
vn -0.113223 0.292496 0.949540
vn 0.374063 0.308899 0.874447
vn 0.784726 0.245755 0.569043
vn -0.121660 -0.764195 0.633407
vn -0.514437 -0.667785 0.537976
vn -0.559871 -0.729967 0.392036
vn -0.105773 -0.903942 0.414368
vn 0.264829 -0.735240 0.623930
vn 0.326581 -0.810535 0.486188
vn -0.078932 -0.993976 0.076037
vn 0.429365 -0.893439 0.131954
vn -0.605182 -0.795603 0.027776
vn -0.031537 -0.954881 -0.295310
vn 0.470797 -0.848486 -0.241706
vn -0.570681 -0.755992 -0.320623
vn -0.019369 -0.830812 -0.556216
vn 0.462461 -0.757822 -0.460257
vn -0.516604 -0.687990 -0.509696
vn 0.668944 -0.601020 -0.437367
vn 0.821408 -0.567945 -0.052221
vn 0.743183 -0.666892 0.054172
vn 0.506299 -0.786361 -0.353975
vn 0.421972 -0.538246 -0.729542
vn 0.286472 -0.637672 -0.715058
vn 0.237254 -0.950756 -0.199432
vn -0.042261 -0.791656 -0.609504
vn 0.494710 -0.820727 0.285778
vn -0.086979 -0.996116 -0.013720
vn -0.365429 -0.832468 -0.416483
vn 0.196209 -0.861403 0.468494
vn -0.314494 -0.936597 0.154529
vn -0.542975 -0.797212 -0.263878
vn 0.006580 -0.835122 0.550026
vn -0.226629 -0.937823 0.262920
vn -0.550522 -0.834476 0.023987
vn -0.515211 -0.846078 -0.136785
vn -0.090337 -0.994726 0.048571
vn 0.111774 -0.888283 0.445489
vn 0.240511 -0.909671 0.338603
vn 0.096995 -0.964190 -0.246841
vn 0.500093 -0.863321 0.067702
vn -0.385101 -0.787441 -0.481283
vn 0.290751 -0.800097 -0.524699
vn 0.688424 -0.693236 -0.213300
vn -0.212676 -0.631224 -0.745872
vn 0.388927 -0.595012 -0.703347
vn 0.757015 -0.534833 -0.375342
vn -0.097309 -0.500966 -0.859979
vn 0.226629 0.937823 -0.262921
vn 0.090337 0.994726 -0.048572
vn 0.515210 0.846078 0.136785
vn 0.550522 0.834476 -0.023987
vn -0.111774 0.888282 -0.445490
vn -0.240511 0.909671 -0.338604
vn -0.500093 0.863321 -0.067702
vn -0.096995 0.964189 0.246841
vn 0.385101 0.787441 0.481283
vn -0.688424 0.693236 0.213300
vn -0.290752 0.800096 0.524699
vn 0.212675 0.631224 0.745872
vn -0.757015 0.534833 0.375342
vn -0.388927 0.595012 0.703347
vn 0.097309 0.500966 0.859979
vn -0.668944 0.601019 0.437367
vn -0.506299 0.786361 0.353974
vn -0.743183 0.666892 -0.054172
vn -0.821408 0.567945 0.052222
vn -0.421973 0.538245 0.729542
vn -0.286473 0.637671 0.715058
vn 0.042261 0.791656 0.609504
vn -0.237254 0.950756 0.199431
vn -0.494709 0.820727 -0.285779
vn 0.365429 0.832468 0.416483
vn 0.086979 0.996116 0.013720
vn -0.196210 0.861403 -0.468494
vn 0.542975 0.797212 0.263879
vn 0.314493 0.936597 -0.154530
vn -0.006581 0.835121 -0.550026
s 1
g group1 polySurface133
usemtl lambert6SG
f 272/307/492 270/308/493 276/309/494 275/310/495
f 268/311/496 272/307/492 275/310/495 274/312/497
f 275/310/495 278/313/498 277/314/499 274/312/497
f 276/309/494 279/315/500 278/313/498 275/310/495
f 278/313/498 281/316/501 280/317/502 277/314/499
f 279/315/500 282/318/503 281/316/501 278/313/498
f 281/316/501 273/319/504 269/320/505 280/317/502
f 282/318/503 271/321/506 273/319/504 281/316/501
s 2
f 287/322/507 290/323/508 291/324/509 285/325/510
f 283/326/511 289/327/512 290/323/508 287/322/507
f 290/323/508 289/327/512 292/328/513 293/329/514
f 291/324/509 290/323/508 293/329/514 294/330/515
f 293/329/514 292/328/513 295/331/516 296/332/517
f 294/330/515 293/329/514 296/332/517 297/333/518
f 296/332/517 295/331/516 284/334/519 288/335/520
f 297/333/518 296/332/517 288/335/520 286/336/521
s 3
f 302/337/522 305/338/523 306/339/524 300/340/525
f 298/341/526 304/342/527 305/338/523 302/337/522
f 305/338/523 304/342/527 307/343/528 308/344/529
f 306/339/524 305/338/523 308/344/529 309/345/530
f 308/344/529 307/343/528 310/346/531 311/347/532
f 309/345/530 308/344/529 311/347/532 312/348/533
f 311/347/532 310/346/531 299/349/534 303/350/535
f 312/348/533 311/347/532 303/350/535 301/351/536
s 4
f 317/352/537 315/353/538 321/354/539 320/355/540
f 313/356/541 317/352/537 320/355/540 319/357/542
f 320/355/540 323/358/543 322/359/544 319/357/542
f 321/354/539 324/360/545 323/358/543 320/355/540
f 323/358/543 326/361/546 325/362/547 322/359/544
f 324/360/545 327/363/548 326/361/546 323/358/543
f 326/361/546 318/364/549 314/365/550 325/362/547
f 327/363/548 316/366/551 318/364/549 326/361/546
s 5
f 332/367/552 335/368/553 336/369/554 330/370/555
f 328/371/556 334/372/557 335/368/553 332/367/552
f 335/368/553 334/372/557 337/373/558 338/374/559
f 336/369/554 335/368/553 338/374/559 339/375/560
f 338/374/559 337/373/558 340/376/561 341/377/562
f 339/375/560 338/374/559 341/377/562 342/378/563
f 341/377/562 340/376/561 329/379/564 333/380/565
f 342/378/563 341/377/562 333/380/565 331/381/566
s 6
f 347/382/567 350/383/568 351/384/569 345/385/570
f 343/386/571 349/387/572 350/383/568 347/382/567
f 350/383/568 349/387/572 352/388/573 353/389/574
f 351/384/569 350/383/568 353/389/574 354/390/575
f 353/389/574 352/388/573 355/391/576 356/392/577
f 354/390/575 353/389/574 356/392/577 357/393/578
f 356/392/577 355/391/576 344/394/579 348/395/580
f 357/393/578 356/392/577 348/395/580 346/396/581
s 7
f 362/397/582 365/398/583 366/399/584 360/400/585
f 358/401/586 364/402/587 365/398/583 362/397/582
f 365/398/583 364/402/587 367/403/588 368/404/589
f 366/399/584 365/398/583 368/404/589 369/405/590
f 368/404/589 367/403/588 370/406/591 371/407/592
f 369/405/590 368/404/589 371/407/592 372/408/593
f 371/407/592 370/406/591 359/409/594 363/410/595
f 372/408/593 371/407/592 363/410/595 361/411/596
s 8
f 377/412/597 375/413/598 381/414/599 380/415/600
f 373/416/601 377/412/597 380/415/600 379/417/602
f 380/415/600 383/418/603 382/419/604 379/417/602
f 381/414/599 384/420/605 383/418/603 380/415/600
f 383/418/603 386/421/606 385/422/607 382/419/604
f 384/420/605 387/423/608 386/421/606 383/418/603
f 386/421/606 378/424/609 374/425/610 385/422/607
f 387/423/608 376/426/611 378/424/609 386/421/606
s 9
f 392/427/612 395/428/613 396/429/614 390/430/615
f 388/431/616 394/432/617 395/428/613 392/427/612
f 395/428/613 394/432/617 397/433/618 398/434/619
f 396/429/614 395/428/613 398/434/619 399/435/620
f 398/434/619 397/433/618 400/436/621 401/437/622
f 399/435/620 398/434/619 401/437/622 402/438/623
f 401/437/622 400/436/621 389/439/624 393/440/625
f 402/438/623 401/437/622 393/440/625 391/441/626
s 10
f 407/442/627 405/443/628 411/444/629 410/445/630
f 403/446/631 407/442/627 410/445/630 409/447/632
f 410/445/630 413/448/633 412/449/634 409/447/632
f 411/444/629 414/450/635 413/448/633 410/445/630
f 413/448/633 416/451/636 415/452/637 412/449/634
f 414/450/635 417/453/638 416/451/636 413/448/633
f 416/451/636 408/454/639 404/455/640 415/452/637
f 417/453/638 406/456/641 408/454/639 416/451/636
s 11
f 422/457/642 420/458/643 426/459/644 425/460/645
f 418/461/646 422/457/642 425/460/645 424/462/647
f 425/460/645 428/463/648 427/464/649 424/462/647
f 426/459/644 429/465/650 428/463/648 425/460/645
f 428/463/648 431/466/651 430/467/652 427/464/649
f 429/465/650 432/468/653 431/466/651 428/463/648
f 431/466/651 423/469/654 419/470/655 430/467/652
f 432/468/653 421/471/656 423/469/654 431/466/651
s 12
f 437/472/657 435/473/658 441/474/659 440/475/660
f 433/476/661 437/472/657 440/475/660 439/477/662
f 440/475/660 443/478/663 442/479/664 439/477/662
f 441/474/659 444/480/665 443/478/663 440/475/660
f 443/478/663 446/481/666 445/482/667 442/479/664
f 444/480/665 447/483/668 446/481/666 443/478/663
f 446/481/666 438/484/669 434/485/670 445/482/667
f 447/483/668 436/486/671 438/484/669 446/481/666
s 13
f 452/487/672 450/488/673 456/489/674 455/490/675
f 448/491/676 452/487/672 455/490/675 454/492/677
f 455/490/675 458/493/678 457/494/679 454/492/677
f 456/489/674 459/495/680 458/493/678 455/490/675
f 458/493/678 461/496/681 460/497/682 457/494/679
f 459/495/680 462/498/683 461/496/681 458/493/678
f 461/496/681 453/499/684 449/500/685 460/497/682
f 462/498/683 451/501/686 453/499/684 461/496/681
s 14
f 467/502/687 470/503/688 471/504/689 465/505/690
f 463/506/691 469/507/692 470/503/688 467/502/687
f 470/503/688 469/507/692 472/508/693 473/509/694
f 471/504/689 470/503/688 473/509/694 474/510/695
f 473/509/694 472/508/693 475/511/696 476/512/697
f 474/510/695 473/509/694 476/512/697 477/513/698
f 476/512/697 475/511/696 464/514/699 468/515/700
f 477/513/698 476/512/697 468/515/700 466/516/701
s 15
f 482/517/702 480/518/703 486/519/704 485/520/705
f 478/521/706 482/517/702 485/520/705 484/522/707
f 485/520/705 488/523/708 487/524/709 484/522/707
f 486/519/704 489/525/710 488/523/708 485/520/705
f 488/523/708 491/526/711 490/527/712 487/524/709
f 489/525/710 492/528/713 491/526/711 488/523/708
f 491/526/711 483/529/714 479/530/715 490/527/712
f 492/528/713 481/531/716 483/529/714 491/526/711
s 16
f 497/532/717 495/533/718 501/534/719 500/535/720
f 493/536/721 497/532/717 500/535/720 499/537/722
f 500/535/720 503/538/723 502/539/724 499/537/722
f 501/534/719 504/540/725 503/538/723 500/535/720
f 503/538/723 506/541/726 505/542/727 502/539/724
f 504/540/725 507/543/728 506/541/726 503/538/723
f 506/541/726 498/544/729 494/545/730 505/542/727
f 507/543/728 496/546/731 498/544/729 506/541/726
s 17
f 512/547/732 515/548/733 516/549/734 510/550/735
f 508/551/736 514/552/737 515/548/733 512/547/732
f 515/548/733 514/552/737 517/553/738 518/554/739
f 516/549/734 515/548/733 518/554/739 519/555/740
f 518/554/739 517/553/738 520/556/741 521/557/742
f 519/555/740 518/554/739 521/557/742 522/558/743
f 521/557/742 520/556/741 509/559/744 513/560/745
f 522/558/743 521/557/742 513/560/745 511/561/746
s 18
f 527/562/747 530/563/748 531/564/749 525/565/750
f 523/566/751 529/567/752 530/563/748 527/562/747
f 530/563/748 529/567/752 532/568/753 533/569/754
f 531/564/749 530/563/748 533/569/754 534/570/755
f 533/569/754 532/568/753 535/571/756 536/572/757
f 534/570/755 533/569/754 536/572/757 537/573/758
f 536/572/757 535/571/756 524/574/759 528/575/760
f 537/573/758 536/572/757 528/575/760 526/576/761
s 19
f 542/577/762 540/578/763 546/579/764 545/580/765
f 538/581/766 542/577/762 545/580/765 544/582/767
f 545/580/765 548/583/768 547/584/769 544/582/767
f 546/579/764 549/585/770 548/583/768 545/580/765
f 548/583/768 551/586/771 550/587/772 547/584/769
f 549/585/770 552/588/773 551/586/771 548/583/768
f 551/586/771 543/589/774 539/590/775 550/587/772
f 552/588/773 541/591/776 543/589/774 551/586/771
s 20
f 557/592/777 555/593/778 561/594/779 560/595/780
f 553/596/781 557/592/777 560/595/780 559/597/782
f 560/595/780 563/598/783 562/599/784 559/597/782
f 561/594/779 564/600/785 563/598/783 560/595/780
f 563/598/783 566/601/786 565/602/787 562/599/784
f 564/600/785 567/603/788 566/601/786 563/598/783
f 566/601/786 558/604/789 554/605/790 565/602/787
f 567/603/788 556/606/791 558/604/789 566/601/786
s 21
f 572/607/792 575/608/793 576/609/794 570/610/795
f 568/611/796 574/612/797 575/608/793 572/607/792
f 575/608/793 574/612/797 577/613/798 578/614/799
f 576/609/794 575/608/793 578/614/799 579/615/800
f 578/614/799 577/613/798 580/616/801 581/617/802
f 579/615/800 578/614/799 581/617/802 582/618/803
f 581/617/802 580/616/801 569/619/804 573/620/805
f 582/618/803 581/617/802 573/620/805 571/621/806
s 22
f 587/622/807 590/623/808 591/624/809 585/625/810
f 583/626/811 589/627/812 590/623/808 587/622/807
f 590/623/808 589/627/812 592/628/813 593/629/814
f 591/624/809 590/623/808 593/629/814 594/630/815
f 593/629/814 592/628/813 595/631/816 596/632/817
f 594/630/815 593/629/814 596/632/817 597/633/818
f 596/632/817 595/631/816 584/634/819 588/635/820
f 597/633/818 596/632/817 588/635/820 586/636/821
s 23
f 602/637/822 600/638/823 606/639/824 605/640/825
f 598/641/826 602/637/822 605/640/825 604/642/827
f 605/640/825 608/643/828 607/644/829 604/642/827
f 606/639/824 609/645/830 608/643/828 605/640/825
f 608/643/828 611/646/831 610/647/832 607/644/829
f 609/645/830 612/648/833 611/646/831 608/643/828
f 611/646/831 603/649/834 599/650/835 610/647/832
f 612/648/833 601/651/836 603/649/834 611/646/831
s 24
f 617/652/837 615/653/838 621/654/839 620/655/840
f 613/656/841 617/652/837 620/655/840 619/657/842
f 620/655/840 623/658/843 622/659/844 619/657/842
f 621/654/839 624/660/845 623/658/843 620/655/840
f 623/658/843 626/661/846 625/662/847 622/659/844
f 624/660/845 627/663/848 626/661/846 623/658/843
f 626/661/846 618/664/849 614/665/850 625/662/847
f 627/663/848 616/666/851 618/664/849 626/661/846
s 25
f 632/667/852 635/668/853 636/669/854 630/670/855
f 628/671/856 634/672/857 635/668/853 632/667/852
f 635/668/853 634/672/857 637/673/858 638/674/859
f 636/669/854 635/668/853 638/674/859 639/675/860
f 638/674/859 637/673/858 640/676/861 641/677/862
f 639/675/860 638/674/859 641/677/862 642/678/863
f 641/677/862 640/676/861 629/679/864 633/680/865
f 642/678/863 641/677/862 633/680/865 631/681/866
s 26
f 647/682/867 645/683/868 651/684/869 650/685/870
f 643/686/871 647/682/867 650/685/870 649/687/872
f 650/685/870 653/688/873 652/689/874 649/687/872
f 651/684/869 654/690/875 653/688/873 650/685/870
f 653/688/873 656/691/876 655/692/877 652/689/874
f 654/690/875 657/693/878 656/691/876 653/688/873
f 656/691/876 648/694/879 644/695/880 655/692/877
f 657/693/878 646/696/881 648/694/879 656/691/876
s 27
f 662/697/882 665/698/883 666/699/884 660/700/885
f 658/701/886 664/702/887 665/698/883 662/697/882
f 665/698/883 664/702/887 667/703/888 668/704/889
f 666/699/884 665/698/883 668/704/889 669/705/890
f 668/704/889 667/703/888 670/706/891 671/707/892
f 669/705/890 668/704/889 671/707/892 672/708/893
f 671/707/892 670/706/891 659/709/894 663/710/895
f 672/708/893 671/707/892 663/710/895 661/711/896
s 28
f 677/712/897 680/713/898 681/714/899 675/715/900
f 673/716/901 679/717/902 680/713/898 677/712/897
f 680/713/898 679/717/902 682/718/903 683/719/904
f 681/714/899 680/713/898 683/719/904 684/720/905
f 683/719/904 682/718/903 685/721/906 686/722/907
f 684/720/905 683/719/904 686/722/907 687/723/908
f 686/722/907 685/721/906 674/724/909 678/725/910
f 687/723/908 686/722/907 678/725/910 676/726/911
s 29
f 692/727/912 695/728/913 696/729/914 690/730/915
f 688/731/916 694/732/917 695/728/913 692/727/912
f 695/728/913 694/732/917 697/733/918 698/734/919
f 696/729/914 695/728/913 698/734/919 699/735/920
f 698/734/919 697/733/918 700/736/921 701/737/922
f 699/735/920 698/734/919 701/737/922 702/738/923
f 701/737/922 700/736/921 689/739/924 693/740/925
f 702/738/923 701/737/922 693/740/925 691/741/926
s 30
f 707/742/927 705/743/928 711/744/929 710/745/930
f 703/746/931 707/742/927 710/745/930 709/747/932
f 710/745/930 713/748/933 712/749/934 709/747/932
f 711/744/929 714/750/935 713/748/933 710/745/930
f 713/748/933 716/751/936 715/752/937 712/749/934
f 714/750/935 717/753/938 716/751/936 713/748/933
f 716/751/936 708/754/939 704/755/940 715/752/937
f 717/753/938 706/756/941 708/754/939 716/751/936
s 31
f 722/757/942 720/758/943 726/759/944 725/760/945
f 718/761/946 722/757/942 725/760/945 724/762/947
f 725/760/945 728/763/948 727/764/949 724/762/947
f 726/759/944 729/765/950 728/763/948 725/760/945
f 728/763/948 731/766/951 730/767/952 727/764/949
f 729/765/950 732/768/953 731/766/951 728/763/948
f 731/766/951 723/769/954 719/770/955 730/767/952
f 732/768/953 721/771/956 723/769/954 731/766/951
s 32
f 737/772/957 735/773/958 741/774/959 740/775/960
f 733/776/961 737/772/957 740/775/960 739/777/962
f 740/775/960 743/778/963 742/779/964 739/777/962
f 741/774/959 744/780/965 743/778/963 740/775/960
f 743/778/963 746/781/966 745/782/967 742/779/964
f 744/780/965 747/783/968 746/781/966 743/778/963
f 746/781/966 738/784/969 734/785/970 745/782/967
f 747/783/968 736/786/971 738/784/969 746/781/966
s 33
f 752/787/972 755/788/973 756/789/974 750/790/975
f 748/791/976 754/792/977 755/788/973 752/787/972
f 755/788/973 754/792/977 757/793/978 758/794/979
f 756/789/974 755/788/973 758/794/979 759/795/980
f 758/794/979 757/793/978 760/796/981 761/797/982
f 759/795/980 758/794/979 761/797/982 762/798/983
f 761/797/982 760/796/981 749/799/984 753/800/985
f 762/798/983 761/797/982 753/800/985 751/801/986
s 34
f 767/802/987 770/803/988 771/804/989 765/805/990
f 763/806/991 769/807/992 770/803/988 767/802/987
f 770/803/988 769/807/992 772/808/993 773/809/994
f 771/804/989 770/803/988 773/809/994 774/810/995
f 773/809/994 772/808/993 775/811/996 776/812/997
f 774/810/995 773/809/994 776/812/997 777/813/998
f 776/812/997 775/811/996 764/814/999 768/815/1000
f 777/813/998 776/812/997 768/815/1000 766/816/1001
