# This file uses centimeters as units for non-parametric coordinates.

mtllib M_PinkFlower.mtl
g default
v 0.500137 -0.160088 -0.194153
v -0.414043 -0.202920 0.051229
v 0.755862 0.579673 0.887695
v -0.158317 0.536841 1.133077
v 0.595871 0.266592 0.236985
v -0.318308 0.223760 0.482367
v 0.183709 -0.211791 -0.491623
v -0.147488 -0.150475 0.393991
v 1.247931 0.515969 -0.144023
v 0.916735 0.577291 0.741596
v 0.610562 0.209974 -0.361196
v 0.279365 0.271290 0.524423
v -0.160242 -0.169645 0.458973
v 0.335537 -0.169645 -0.492722
v -1.423974 0.336902 -0.199358
v -0.928195 0.336902 -1.151053
v -0.694630 0.177659 0.180590
v -0.198851 0.177659 -0.771111
v -0.515022 -0.173880 0.009278
v 0.622100 -0.173880 0.009278
v -0.515022 0.561044 -1.414785
v 0.622100 0.561044 -1.414785
v -0.515022 0.276657 -0.573945
v 0.622100 0.276657 -0.573945
v 0.394036 -0.110717 0.374040
v -0.222155 -0.239352 -0.495026
v -0.751996 0.573106 1.085391
v -1.368187 0.444470 0.216319
v -0.085513 0.309452 0.651859
v -0.701705 0.180817 -0.217206
v -0.248222 -0.157488 -0.400223
v 0.296973 -0.195449 0.373789
v 0.746919 0.426221 -1.072547
v 1.292114 0.388254 -0.298535
v 0.164616 0.206046 -0.673183
v 0.709811 0.168085 0.100829
vt 0.520814 0.843035
vt 0.587481 0.843035
vt 0.587481 0.906945
vt 0.520814 0.906945
vt 0.520814 0.795366
vt 0.587481 0.795366
vt 0.520814 0.843035
vt 0.587481 0.843035
vt 0.587481 0.906945
vt 0.520814 0.906945
vt 0.520814 0.795366
vt 0.587481 0.795366
vt 0.520814 0.843035
vt 0.587481 0.843035
vt 0.587481 0.906945
vt 0.520814 0.906945
vt 0.520814 0.795366
vt 0.587481 0.795366
vt 0.520814 0.843035
vt 0.587481 0.843035
vt 0.587481 0.906945
vt 0.520814 0.906945
vt 0.520814 0.795366
vt 0.587481 0.795366
vt 0.520814 0.843035
vt 0.587481 0.843035
vt 0.587481 0.906945
vt 0.520814 0.906945
vt 0.520814 0.795366
vt 0.587481 0.795366
vt 0.520814 0.843035
vt 0.587481 0.843035
vt 0.587481 0.906945
vt 0.520814 0.906945
vt 0.520814 0.795366
vt 0.587481 0.795366
vn -0.180099 0.831287 -0.525858
vn -0.180099 0.831287 -0.525858
vn -0.149397 0.904862 -0.398630
vn -0.149397 0.904862 -0.398630
vn -0.211681 0.717758 -0.663336
vn -0.211681 0.717758 -0.663336
vn -0.180099 0.831287 -0.525858
vn -0.180099 0.831287 -0.525858
vn -0.492572 0.835924 -0.242084
vn -0.492572 0.835924 -0.242084
vn -0.367695 0.908101 -0.200381
vn -0.367695 0.908101 -0.200381
vn -0.628215 0.723940 -0.285057
vn -0.628215 0.723940 -0.285057
vn -0.492572 0.835924 -0.242084
vn -0.492572 0.835924 -0.242084
vn 0.297062 0.942235 0.154752
vn 0.297062 0.942235 0.154752
vn 0.168602 0.981763 0.087832
vn 0.168602 0.981763 0.087832
vn 0.442881 0.866387 0.230715
vn 0.442881 0.866387 0.230715
vn 0.297062 0.942235 0.154752
vn 0.297062 0.942235 0.154752
vn 0.000000 0.888641 0.458604
vn 0.000000 0.888641 0.458604
vn 0.000000 0.947286 0.320388
vn 0.000000 0.947286 0.320388
vn 0.000000 0.791375 0.611331
vn 0.000000 0.791375 0.611331
vn 0.000000 0.888641 0.458604
vn 0.000000 0.888641 0.458604
vn 0.309821 0.883836 -0.350492
vn 0.309821 0.883836 -0.350492
vn 0.192869 0.941574 -0.276116
vn 0.192869 0.941574 -0.276116
vn 0.441395 0.787808 -0.429568
vn 0.441395 0.787808 -0.429568
vn 0.309821 0.883836 -0.350492
vn 0.309821 0.883836 -0.350492
vn -0.336918 0.898503 0.281387
vn -0.336918 0.898503 0.281387
vn -0.221541 0.953824 0.202831
vn -0.221541 0.953824 0.202831
vn -0.465783 0.804947 0.367568
vn -0.465783 0.804947 0.367568
vn -0.336918 0.898503 0.281387
vn -0.336918 0.898503 0.281387
s off
g M_FlowerPink:pPlane65
usemtl M_FlowerPink:lambert2SG
f 5/1/1 6/2/2 4/3/3 3/4/4
f 1/5/5 2/6/6 6/2/7 5/1/8
f 11/7/9 12/8/10 10/9/11 9/10/12
f 7/11/13 8/12/14 12/8/15 11/7/16
f 17/13/17 18/14/18 16/15/19 15/16/20
f 13/17/21 14/18/22 18/14/23 17/13/24
f 23/19/25 24/20/26 22/21/27 21/22/28
f 19/23/29 20/24/30 24/20/31 23/19/32
f 29/25/33 30/26/34 28/27/35 27/28/36
f 25/29/37 26/30/38 30/26/39 29/25/40
f 35/31/41 36/32/42 34/33/43 33/34/44
f 31/35/45 32/36/46 36/32/47 35/31/48
