# This file uses centimeters as units for non-parametric coordinates.

mtllib M_Plank.mtl
g default
v 0.468868 -0.242050 -3.730492
v 0.458692 0.117829 -3.731110
v 0.492416 -0.228403 3.816708
v 0.482239 0.131477 3.816089
v -0.933197 -0.268698 3.821229
v -0.943371 0.091182 3.820609
v -0.956742 -0.282346 -3.725972
v -0.966915 0.077535 -3.726591
vt 0.379249 0.163914
vt 0.403904 0.163915
vt 0.403904 0.540612
vt 0.379249 0.540613
vt 0.378863 0.561705
vt 0.294202 0.561702
vt 0.294203 0.540612
vt 0.519471 0.540612
vt 0.487805 0.540612
vt 0.487805 0.163915
vt 0.519471 0.163915
vt 0.294202 0.163916
vt 0.294202 0.142826
vt 0.378863 0.142823
vn 0.999596 0.028255 -0.003169
vn 0.999596 0.028255 -0.003169
vn 0.999596 0.028255 -0.003169
vn 0.999596 0.028255 -0.003169
vn 0.003120 0.001808 0.999994
vn 0.003120 0.001808 0.999994
vn 0.003120 0.001808 0.999994
vn 0.003120 0.001808 0.999994
vn -0.999596 -0.028255 0.003169
vn -0.999596 -0.028255 0.003169
vn -0.999596 -0.028255 0.003169
vn -0.999596 -0.028255 0.003169
vn -0.003120 -0.001809 -0.999994
vn -0.003120 -0.001809 -0.999994
vn -0.003120 -0.001809 -0.999994
vn -0.003120 -0.001809 -0.999994
vn -0.028259 0.999599 -0.001719
vn -0.028259 0.999599 -0.001719
vn -0.028259 0.999599 -0.001719
vn -0.028259 0.999599 -0.001719
vn 0.028259 -0.999599 0.001719
vn 0.028259 -0.999599 0.001719
vn 0.028259 -0.999599 0.001719
vn 0.028259 -0.999599 0.001719
s off
g polySurface424 M_Plank1:polySurface328polySurface285
usemtl M_Plank1:lambert6SG
f 1/1/1 2/2/2 4/3/3 3/4/4
f 3/4/5 4/5/6 6/6/7 5/7/8
f 5/8/9 6/9/10 8/10/11 7/11/12
f 7/12/13 8/13/14 2/14/15 1/1/16
f 2/2/17 8/10/18 6/9/19 4/3/20
f 7/12/21 1/1/22 3/4/23 5/7/24
