# This file uses centimeters as units for non-parametric coordinates.

mtllib M_root1.mtl
g default
v -0.206504 -1.079054 2.702834
v 1.804859 -3.189342 3.396873
v 0.660795 0.757751 1.633147
v -0.342587 -1.177488 -1.999234
v 0.309531 -0.410728 1.374995
v 0.169118 -1.962147 1.793925
v -0.586489 -0.711529 -1.793988
v -2.808897 1.396202 -4.866616
v -0.262229 -1.663328 2.111304
v -1.634991 -1.505268 -1.606835
v -1.223074 -2.040302 -1.941224
v -2.562796 0.749809 -5.689069
v 1.145927 -1.049837 1.833720
v -1.771273 1.416355 -5.146638
v -3.017061 6.551712 -7.557576
v -1.936753 0.981937 -5.696317
v 0.509741 -0.912819 2.871085
v 0.481065 1.136681 2.713847
v -0.665101 2.361385 1.176837
v -1.702383 7.694569 0.382922
v -0.491996 2.115437 0.538615
v 0.482532 2.616455 0.941547
v -0.103122 2.677456 1.463885
v -0.099532 0.760059 1.895164
v -3.395993 6.246811 -7.959958
v -3.457695 6.499733 -7.535069
v -1.260072 7.717010 0.193469
v -1.552833 7.698421 -0.310407
v -2.237919 1.578339 -4.786176
v 1.010307 -0.942663 2.585963
v 0.101462 2.232903 0.353057
v -2.925919 0.948750 -5.297879
v -0.336359 -0.706215 1.941764
v -1.087920 -0.636089 -1.576634
v 0.902341 1.148884 2.356547
v -0.057395 1.010063 2.510501
v -0.525839 -1.744278 -2.192735
v 0.739063 -1.804417 1.645103
v -1.917900 7.528515 0.071399
v -2.972972 6.267239 -7.865189
v -1.532311 -0.955372 -1.520577
v 0.899423 -4.215725 4.583007
v 1.619619 -3.937292 4.542762
v 0.418629 -3.759020 3.630939
v 1.011820 -4.171907 3.035621
v 1.812605 -4.261997 3.422542
v 1.905870 -5.034527 4.141597
vt 0.191861 0.193584
vt 0.212026 0.146974
vt 0.219242 0.150903
vt 0.145214 0.842994
vt 0.160511 0.805174
vt 0.174510 0.798729
vt 0.040377 0.831603
vt 0.054584 0.848678
vt 0.044399 0.854755
vt 0.047381 0.828764
vt 0.154345 0.845340
vt 0.176901 0.186505
vt 0.164867 0.190675
vt 0.167580 0.169983
vt 0.318391 0.559759
vt 0.332211 0.570314
vt 0.333308 0.602020
vt 0.365275 0.439793
vt 0.381193 0.473203
vt 0.353202 0.438521
vt 0.369508 0.485364
vt 0.353524 0.453659
vt 0.375134 0.483851
vt 0.013598 0.557343
vt 0.024358 0.562935
vt 0.015149 0.608092
vt 0.041341 0.772836
vt 0.430527 0.474051
vt 0.427427 0.488626
vt 0.426780 0.482050
vt 0.008870 0.608821
vt 0.471365 0.518654
vt 0.051752 0.771823
vt 0.055693 0.828712
vt 0.139079 0.834749
vt 0.089730 0.836979
vt 0.091622 0.844739
vt 0.095781 0.849245
vt 0.046777 0.877925
vt 0.484799 0.509248
vt 0.435520 0.469874
vt 0.090937 0.829429
vt 0.052898 0.989426
vt 0.045508 0.981875
vt 0.072318 0.947244
vt 0.478266 0.512524
vt 0.041498 0.871611
vt 0.388255 0.492871
vt 0.382130 0.509360
vt 0.022753 0.609382
vt 0.017809 0.659318
vt 0.010200 0.655950
vt 0.014907 0.949946
vt 0.128238 0.661352
vt 0.136416 0.659066
vt 0.150151 0.731536
vt 0.514884 0.586822
vt 0.509534 0.587110
vt 0.152567 0.874263
vt 0.144983 0.872476
vt 0.372798 0.514880
vt 0.177474 0.170015
vt 0.134684 0.896006
vt 0.390497 0.535590
vt 0.178202 0.150856
vt 0.126066 0.891546
vt 0.102488 0.964464
vt 0.121905 0.888075
vt 0.400035 0.530178
vt 0.423700 0.607307
vt 0.107682 0.966808
vt 0.337240 0.724225
vt 0.334696 0.653107
vt 0.345697 0.652246
vt 0.334715 0.631536
vt 0.138767 0.868948
vt 0.019342 0.950680
vt 0.053552 0.880495
vt 0.258674 0.380652
vt 0.262611 0.385476
vt 0.254812 0.385321
vt 0.011573 0.946377
vt 0.331093 0.723909
vt 0.344741 0.990470
vt 0.267922 0.992826
vt 0.266124 0.985209
vt 0.415887 0.607570
vt 0.261031 0.400027
vt 0.252900 0.394189
vt 0.259322 0.391982
vt 0.326996 0.631364
vt 0.325607 0.602441
vt 0.404551 0.528520
vt 0.185725 0.149198
vt 0.079849 0.950051
vt 0.095978 0.872477
vt 0.136707 0.848256
vt 0.325306 0.544275
vt 0.385806 0.470977
vt 0.345474 0.427619
vt 0.253595 0.399489
vt 0.507114 0.591125
vn 0.021573 0.357985 0.933478
vn -0.360467 0.357493 0.861546
vn 0.465231 0.443883 0.765851
vn -0.766292 0.113678 0.632356
vn -0.952820 -0.288752 0.093574
vn -0.885135 -0.431429 0.174374
vn -0.115730 -0.583330 -0.803948
vn -0.287518 -0.919396 -0.268410
vn 0.230836 0.867832 -0.439980
vn -0.875220 0.469998 0.114417
vn -0.854062 -0.271464 -0.443717
vn 0.961026 0.262204 0.087622
vn 0.815586 0.342180 0.466617
vn 0.653117 -0.552032 -0.518362
vn 0.792069 -0.220194 -0.569334
vn 0.941874 0.082535 -0.325670
vn -0.177459 0.923341 0.340516
vn -0.273333 -0.934160 -0.229420
vn 0.546724 -0.689124 -0.475606
vn 0.649412 0.760291 -0.014904
vn 0.934272 0.106161 -0.340392
vn -0.816204 0.403061 0.413947
vn 0.941264 0.337623 0.005795
vn -0.899719 -0.399040 0.176841
vn -0.785086 0.255694 0.564146
vn -0.281087 -0.610880 -0.740145
vn -0.937936 -0.324335 -0.122809
vn 0.618071 -0.313114 -0.721074
vn 0.654845 -0.099927 -0.749128
vn 0.174384 0.663543 0.727531
vn -0.781698 0.295766 0.549064
vn 0.552184 0.551725 0.625054
vn -0.706427 -0.274169 -0.652527
vn 0.770800 -0.044144 -0.635546
vn 0.127065 0.371727 0.919605
vn -0.731944 0.179931 0.657178
vn 0.926493 0.299323 0.228072
vn 0.113307 0.358597 0.926590
vn 0.951391 0.299418 -0.072139
vn -0.647977 -0.377061 -0.661778
vn -0.926659 -0.125113 0.354473
vn -0.954774 -0.176111 -0.239567
vn 0.390395 -0.130223 -0.911391
vn 0.158011 0.041542 -0.986563
vn -0.261661 0.233902 0.936388
vn 0.891870 0.415897 0.177756
vn 0.973696 0.129084 0.187761
s 1
g polySurface3 polySurface2 Group13624 group3 group2 group1
usemtl lambert4SG
f 17/1/1 42/2/2 43/3/3
f 1/4/4 44/5/5 42/6/2
f 9/7/6 45/8/7 44/9/5
f 6/10/8 45/8/7 9/7/6
f 42/6/2 17/11/1 1/4/4
f 5/12/9 33/13/10 24/14/11
f 43/15/3 2/16/12 30/17/13
f 45/18/7 38/19/14 46/20/15
f 30/21/13 2/22/12 13/23/16
f 33/24/10 5/25/9 34/26/17
f 13/23/16 46/20/15 38/19/14
f 6/10/8 9/7/6 11/27/18
f 37/28/19 13/23/16 38/19/14
f 7/29/20 13/23/16 4/30/21
f 41/31/22 33/24/10 34/26/17
f 4/30/21 14/32/23 7/29/20
f 11/27/18 37/33/19 38/34/14
f 1/4/4 9/35/6 44/5/5
f 10/36/24 9/35/6 1/4/4
f 41/37/22 34/38/17 8/39/25
f 12/40/26 37/28/19 11/41/18
f 11/42/18 9/35/6 10/36/24
f 11/43/18 10/44/24 32/45/27
f 37/28/19 12/40/26 16/46/28
f 32/47/27 10/36/24 8/39/25
f 5/48/9 13/23/16 7/29/20
f 13/23/16 5/48/9 3/49/29
f 7/50/20 14/51/23 29/52/30
f 26/53/31 32/47/27 8/39/25
f 29/54/30 14/55/23 15/56/32
f 16/46/28 12/40/26 25/57/33
f 14/32/23 4/30/21 16/46/28
f 14/32/23 16/46/28 40/58/34
f 1/4/4 18/59/35 36/60/36
f 35/61/37 13/23/16 3/49/29
f 17/11/1 18/59/35 1/4/4
f 35/61/37 30/21/13 13/23/16
f 5/12/9 24/14/11 3/62/29
f 18/59/35 23/63/38 36/60/36
f 22/64/39 35/61/37 3/49/29
f 3/62/29 24/14/11 21/65/40
f 19/66/41 39/67/42 21/68/40
f 3/49/29 31/69/43 22/64/39
f 28/70/44 22/64/39 31/69/43
f 19/66/41 23/63/38 20/71/45
f 27/72/46 23/73/38 22/74/39
f 23/73/38 35/75/37 22/74/39
f 24/76/11 19/66/41 21/68/40
f 36/60/36 23/63/38 19/66/41
f 25/57/33 40/58/34 16/46/28
f 15/77/32 26/53/31 29/78/30
f 26/79/31 15/80/32 25/81/33
f 26/53/31 25/82/33 32/47/27
f 27/72/46 20/83/45 23/73/38
f 21/84/40 39/85/42 28/86/44
f 27/87/46 22/64/39 28/70/44
f 28/88/44 20/89/45 27/90/46
f 8/39/25 29/78/30 26/53/31
f 8/39/25 34/38/17 29/78/30
f 30/17/13 18/91/35 17/92/1
f 17/92/1 43/15/3 30/17/13
f 21/93/40 28/70/44 31/69/43
f 21/65/40 31/94/43 3/62/29
f 11/43/18 32/45/27 12/95/26
f 12/95/26 32/45/27 25/96/33
f 1/4/4 36/60/36 33/97/10
f 1/4/4 33/97/10 41/37/22
f 29/52/30 34/26/17 7/50/20
f 5/25/9 7/50/20 34/26/17
f 35/75/37 18/91/35 30/17/13
f 23/73/38 18/91/35 35/75/37
f 19/66/41 24/76/11 36/60/36
f 24/76/11 33/97/10 36/60/36
f 47/98/47 2/16/12 43/15/3
f 4/30/21 37/28/19 16/46/28
f 4/30/21 13/23/16 37/28/19
f 6/99/8 38/19/14 45/18/7
f 6/10/8 11/27/18 38/34/14
f 2/22/12 46/20/15 13/23/16
f 46/20/15 2/22/12 47/100/47
f 39/67/42 19/66/41 20/71/45
f 39/101/42 20/89/45 28/88/44
f 15/102/32 14/32/23 40/58/34
f 25/57/33 15/102/32 40/58/34
f 41/37/22 8/39/25 10/36/24
f 10/36/24 1/4/4 41/37/22
