# This file uses centimeters as units for non-parametric coordinates.

mtllib M_Root2.mtl
g default
v -0.229746 0.213508 -0.151926
v 1.235148 -1.570042 0.188391
v 0.374334 -1.505608 0.405715
v 1.315001 7.867599 5.430220
v 2.401175 3.686721 3.631133
v 1.924061 -0.367672 -0.511972
v 1.189464 2.891807 5.110732
v -0.216792 -0.898907 0.332396
v 1.879585 2.665546 5.264510
v 1.109045 3.666458 3.830786
v 2.782632 2.950035 4.752257
v 1.045474 0.595440 -0.700014
v 0.851250 3.319934 4.409277
v 1.823704 7.893417 5.339934
v 1.719897 7.791134 6.026457
v 0.311638 0.630359 -0.496385
v 1.782152 -1.159706 -0.124940
v 2.849188 3.278049 4.190863
v 1.587214 3.806102 3.561873
v 1.315184 7.650688 5.842803
v 2.014170 7.729194 5.678359
v 2.376658 2.706642 5.154463
v -0.394184 -0.424340 0.106032
v 1.517875 0.293453 -0.691949
v -1.810369 -0.165337 -4.453592
v -2.147740 -1.226632 -4.764635
v 0.270238 -1.880356 -4.742082
v 0.568208 -1.094342 -5.157152
v -1.565660 -1.914688 -4.270524
v 0.178467 0.045608 -4.767488
v -0.669191 0.388282 -4.333055
v -1.047387 -2.177609 -4.279359
v -0.360402 -2.249905 -4.431901
v 0.292802 -0.318665 -5.376398
vt 0.302298 0.873685
vt 0.244599 0.877340
vt 0.238125 0.862363
vt 0.222737 0.926336
vt 0.232741 0.922410
vt 0.244208 0.977932
vt 0.159118 0.230271
vt 0.158195 0.290271
vt 0.148026 0.231023
vt 0.248897 0.852653
vt 0.306292 0.866988
vt 0.220821 0.342002
vt 0.169373 0.288137
vt 0.301613 0.882686
vt 0.107973 0.480507
vt 0.116129 0.549003
vt 0.103607 0.549420
vt 0.109802 0.620935
vt 0.202712 0.869742
vt 0.355793 0.926525
vt 0.228273 0.322796
vt 0.226589 0.332028
vt 0.182964 0.277109
vt 0.374657 0.917290
vt 0.365938 0.920483
vt 0.313213 0.858426
vt 0.257453 0.975644
vt 0.098042 0.480551
vt 0.380120 0.989622
vt 0.353085 0.931415
vt 0.014920 0.792238
vt 0.033801 0.861941
vt 0.006328 0.793902
vt 0.124611 0.546322
vt 0.123791 0.616577
vt 0.116987 0.620907
vt 0.191252 0.142982
vt 0.184837 0.078805
vt 0.199770 0.138092
vt 0.285954 0.341967
vt 0.232357 0.988968
vt 0.170064 0.225311
vt 0.178703 0.282166
vt 0.374130 0.987640
vt 0.285589 0.337450
vt 0.248569 0.431496
vt 0.258642 0.430086
vt 0.252442 0.437674
vt 0.038639 0.857615
vt 0.213709 0.927042
vt 0.195038 0.870763
vt 0.117599 0.478119
vt 0.216192 0.346566
vt 0.283636 0.347149
vt 0.207090 0.136122
vt 0.370258 0.990701
vt 0.257787 0.436462
vt 0.175205 0.229817
vt 0.090868 0.479120
vt 0.378866 0.917870
vn -0.954393 0.049595 0.294406
vn -0.843491 0.478950 0.243166
vn -0.938171 -0.077067 0.337484
vn -0.399112 0.882732 -0.247978
vn 0.211796 0.878236 -0.428771
vn -0.141036 0.988710 -0.050616
vn 0.956984 -0.068083 -0.282040
vn 0.846589 -0.529986 0.049014
vn 0.744104 -0.651311 -0.148671
vn -0.736648 -0.590834 0.329036
vn -0.762224 -0.452103 0.463269
vn 0.981550 0.099912 -0.163023
vn 0.971555 0.010122 -0.236598
vn -0.847377 0.529840 0.034965
vn 0.231686 -0.970939 0.059992
vn 0.339921 -0.873515 0.348462
vn -0.278825 -0.819900 0.500021
vn -0.081555 -0.523223 0.848284
vn -0.118250 0.647679 -0.752681
vn -0.978995 0.068409 0.192066
vn 0.612418 0.484808 -0.624423
vn -0.637192 -0.320063 0.701103
vn 0.496441 0.836093 -0.233441
vn -0.250083 -0.944860 0.211417
vn 0.226626 0.008072 0.973948
vn -0.799367 0.459941 -0.386609
vn 0.899872 -0.252469 0.355654
vn 0.533081 -0.470634 0.703085
vn -0.714909 0.407424 -0.568252
vn 0.361200 0.501680 -0.786036
vn 0.891931 0.335617 -0.303020
vn 0.736812 0.535191 -0.413133
vn -0.807384 0.008627 0.589963
vn 0.957211 0.190079 0.218214
s 1
g polySurface6 Group13625 group3 group2 group1
usemtl lambert4SG
f 23/1/1 25/2/2 26/3/3
f 16/4/4 12/5/5 31/6/6
f 28/7/7 17/8/8 27/9/9
f 29/10/10 8/11/11 26/3/3
f 18/12/12 17/8/8 6/13/13
f 1/14/14 25/2/2 23/1/1
f 33/15/15 2/16/16 3/17/17
f 9/18/18 3/17/17 2/16/16
f 12/5/5 16/4/4 19/19/19
f 23/1/1 13/20/20 1/14/14
f 19/21/19 5/22/21 12/23/5
f 9/24/18 7/25/22 3/26/17
f 28/7/7 6/13/13 17/8/8
f 12/5/5 30/27/23 31/6/6
f 32/28/24 33/15/15 3/17/17
f 9/24/18 15/29/25 7/25/22
f 1/14/14 13/20/20 10/30/26
f 29/10/10 3/26/17 8/11/11
f 8/11/11 3/26/17 7/25/22
f 11/31/27 15/32/25 22/33/28
f 17/34/8 11/35/27 22/36/28
f 13/37/20 4/38/29 10/39/26
f 19/21/19 14/40/30 5/22/21
f 14/40/30 18/12/12 5/22/21
f 18/12/12 6/13/13 5/22/21
f 25/41/2 16/4/4 31/6/6
f 34/42/31 6/13/13 28/7/7
f 24/43/32 5/22/21 6/13/13
f 6/13/13 34/42/31 24/43/32
f 23/1/1 7/25/22 13/20/20
f 20/44/33 13/20/20 7/25/22
f 4/45/29 14/40/30 19/21/19
f 15/29/25 20/44/33 7/25/22
f 4/46/29 15/47/25 14/48/30
f 21/49/34 15/32/25 11/31/27
f 1/50/14 16/4/4 25/41/2
f 10/51/26 16/4/4 1/50/14
f 27/52/9 17/34/8 2/16/16
f 17/34/8 22/36/28 2/16/16
f 33/15/15 27/52/9 2/16/16
f 11/53/27 18/12/12 21/54/34
f 11/53/27 17/8/8 18/12/12
f 4/38/29 19/55/19 10/39/26
f 10/51/26 19/19/19 16/4/4
f 15/29/25 4/56/29 20/44/33
f 4/56/29 13/20/20 20/44/33
f 21/57/34 14/48/30 15/47/25
f 14/40/30 21/54/34 18/12/12
f 30/58/23 24/43/32 34/42/31
f 29/59/10 32/28/24 3/17/17
f 9/24/18 22/60/28 15/29/25
f 22/36/28 9/18/18 2/16/16
f 23/1/1 8/11/11 7/25/22
f 26/3/3 8/11/11 23/1/1
f 5/22/21 24/43/32 12/23/5
f 24/43/32 30/58/23 12/23/5
