# This file uses centimeters as units for non-parametric coordinates.

mtllib M_Root3.mtl
g default
v 4.288821 3.962032 -0.714681
v 1.086573 -2.476770 4.387362
v -0.394096 -2.274977 3.377200
v 1.994359 -1.849552 0.348780
v 1.359466 -1.823997 0.208399
v 0.866819 -0.615116 0.821383
v 1.185395 -1.507782 4.420550
v 2.357776 -0.948212 1.186167
v 2.497838 0.812782 -1.543317
v 1.517205 1.357658 -1.020612
v 1.927155 1.448174 -0.441999
v 4.532261 6.793156 -4.394246
v 3.617367 4.547314 -0.839506
v 4.153251 3.684544 -1.346349
v 3.605521 3.882229 -1.529096
v 2.789372 0.953060 -0.700452
v 1.642981 -0.352329 1.202296
v 0.190609 -2.818951 3.533671
v 5.131318 6.908241 -4.119153
v 0.879929 -1.352798 0.318003
v 5.248510 6.399860 -4.433721
v 1.757192 1.043709 -1.541547
v 4.727063 6.429749 -4.715261
v 3.981831 4.262493 -0.533948
v 2.362020 -1.564552 0.697200
v 2.388295 1.244495 -0.335904
v 3.354666 4.188038 -1.256231
v 0.788736 -2.805168 4.014537
v -1.395043 -3.625931 4.625796
v -1.388491 -2.591965 3.923373
v 0.010107 -0.954063 3.544863
v 0.084951 -1.045546 4.722018
v -0.275659 -3.256485 6.035708
v -0.866123 -3.785810 5.518603
v -0.506149 -1.629982 6.634051
v -0.126085 -2.501255 6.374041
v -0.353800 -1.441242 3.243197
vt 0.150313 0.132331
vt 0.168362 0.127670
vt 0.159261 0.145207
vt 0.101919 0.639838
vt 0.090919 0.691616
vt 0.091835 0.653100
vt 0.319052 0.442068
vt 0.331187 0.447547
vt 0.300950 0.467178
vt 0.065014 0.721439
vt 0.074879 0.750503
vt 0.051867 0.722010
vt 0.149756 0.119401
vt 0.157644 0.123830
vt 0.315286 0.477871
vt 0.307863 0.471294
vt 0.080012 0.798116
vt 0.058901 0.749538
vt 0.262091 0.547855
vt 0.280153 0.515988
vt 0.286755 0.520810
vt 0.082757 0.651082
vt 0.078825 0.689966
vt 0.069883 0.690313
vt 0.293958 0.524724
vt 0.078108 0.643434
vt 0.300707 0.526735
vt 0.268185 0.559024
vt 0.082004 0.727734
vt 0.077052 0.824730
vt 0.092626 0.795083
vt 0.290973 0.469725
vt 0.309867 0.439751
vt 0.315500 0.981940
vt 0.314158 0.971096
vt 0.348896 0.973215
vt 0.085062 0.827983
vt 0.091280 0.724094
vt 0.269154 0.974021
vt 0.123617 0.759299
vt 0.248621 0.150856
vt 0.231766 0.194170
vt 0.241017 0.150045
vt 0.218776 0.557376
vt 0.224046 0.565213
vt 0.127719 0.755755
vt 0.115326 0.759983
vt 0.125078 0.820129
vt 0.194011 0.616134
vt 0.116475 0.819275
vt 0.267979 0.966083
vt 0.228389 0.568341
vt 0.199816 0.620102
vt 0.176790 0.078805
vt 0.345411 0.982174
vt 0.167192 0.078854
vt 0.189947 0.613378
vt 0.250791 0.443666
vt 0.257368 0.448468
vt 0.252222 0.453748
vt 0.337140 0.460334
vt 0.077757 0.732466
vt 0.263242 0.197821
vt 0.254757 0.146545
vt 0.261065 0.143251
vt 0.246158 0.451146
vt 0.225378 0.194055
vt 0.048426 0.220366
vt 0.047103 0.278205
vt 0.041851 0.220312
vt 0.095108 0.723827
vt 0.234842 0.146828
vt 0.265975 0.979312
vt 0.269373 0.195012
vn -0.295631 -0.498280 -0.815058
vn -0.080746 -0.912860 -0.400207
vn 0.080985 -0.854204 -0.513592
vn 0.383573 0.853960 0.351601
vn 0.142057 0.855547 0.497854
vn -0.412307 0.910994 0.009654
vn 0.713515 -0.638976 0.287411
vn 0.437853 -0.892705 -0.106592
vn 0.864215 -0.386418 0.322202
vn 0.819337 -0.052146 0.570936
vn 0.777538 0.445491 0.443816
vn 0.735974 0.346593 0.581563
vn -0.897351 0.230733 -0.376195
vn -0.662011 -0.447009 -0.601602
vn 0.471783 -0.879317 -0.064979
vn 0.950507 -0.290959 0.108990
vn 0.902735 0.202441 0.379587
vn 0.889397 -0.456798 -0.017570
vn -0.838063 0.542393 -0.058821
vn -0.827071 -0.225086 -0.515064
vn 0.408526 -0.805383 -0.429494
vn -0.255972 -0.746491 -0.614190
vn 0.430004 -0.399513 -0.809621
vn -0.906715 0.400211 -0.133038
vn 0.380539 0.222170 0.897681
vn -0.482576 -0.072143 -0.872878
vn -0.550354 0.517233 0.655425
vn -0.319538 -0.313254 -0.894297
vn -0.488606 0.689161 0.535091
vn 0.883883 -0.130650 0.449089
vn 0.740837 -0.547272 -0.389428
vn 0.219072 0.426649 0.877484
vn -0.901140 0.370657 -0.224857
vn 0.462295 0.737809 0.491856
vn 0.866404 -0.430980 -0.252190
vn -0.804650 0.593656 -0.010540
vn -0.352537 -0.541222 -0.763411
s 1
g polySurface8 polySurface5 Group13625 group3 group2 group1
usemtl lambert4SG
f 30/1/1 18/2/2 29/3/3
f 32/4/4 17/5/5 31/6/6
f 33/7/7 34/8/8 2/9/9
f 36/10/10 7/11/11 35/12/12
f 37/13/13 3/14/14 30/1/1
f 34/8/8 18/15/2 28/16/15
f 7/11/11 17/17/5 32/18/4
f 16/19/16 8/20/17 25/21/18
f 37/22/13 6/23/19 20/24/20
f 18/15/2 4/25/21 28/16/15
f 3/26/14 37/22/13 20/24/20
f 18/15/2 5/27/22 4/25/21
f 9/28/23 4/25/21 5/27/22
f 6/23/19 10/29/24 20/24/20
f 26/30/25 17/17/5 8/31/17
f 7/32/11 36/33/10 2/9/9
f 25/21/18 8/20/17 2/9/9
f 8/31/17 17/17/5 7/11/11
f 2/9/9 8/20/17 7/32/11
f 22/34/26 9/35/23 5/36/22
f 8/31/17 16/37/16 26/30/25
f 10/29/24 6/23/19 11/38/27
f 15/39/28 9/35/23 22/34/26
f 13/40/29 10/29/24 11/38/27
f 16/41/16 1/42/30 26/43/25
f 1/44/30 16/19/16 14/45/31
f 24/46/32 13/40/29 11/38/27
f 10/29/24 13/40/29 27/47/33
f 19/48/34 13/40/29 24/46/32
f 21/49/35 1/44/30 14/45/31
f 12/50/36 27/47/33 13/40/29
f 7/11/11 32/18/4 35/12/12
f 15/39/28 14/51/31 9/35/23
f 15/52/28 23/53/37 14/45/31
f 14/45/31 16/19/16 9/28/23
f 9/28/23 16/19/16 25/21/18
f 11/38/27 6/23/19 17/5/5
f 31/6/6 17/5/5 6/23/19
f 3/14/14 18/2/2 30/1/1
f 5/54/22 18/2/2 3/14/14
f 12/50/36 13/40/29 19/48/34
f 21/49/35 14/45/31 23/53/37
f 5/36/22 20/55/20 22/34/26
f 5/54/22 3/14/14 20/56/20
f 2/9/9 36/33/10 33/7/7
f 21/49/35 19/57/34 1/44/30
f 19/58/34 21/59/35 23/60/37
f 29/61/3 18/15/2 34/8/8
f 27/47/33 22/62/26 10/29/24
f 20/24/20 10/29/24 22/62/26
f 27/63/33 12/64/36 23/65/37
f 12/66/36 19/58/34 23/60/37
f 37/22/13 31/6/6 6/23/19
f 26/43/25 1/42/30 24/67/32
f 1/68/30 19/69/34 24/70/32
f 25/21/18 28/16/15 4/25/21
f 9/28/23 25/21/18 4/25/21
f 26/71/25 11/38/27 17/5/5
f 11/72/27 26/43/25 24/67/32
f 27/73/33 15/39/28 22/34/26
f 15/74/28 27/63/33 23/65/37
f 2/9/9 34/8/8 28/16/15
f 25/21/18 2/9/9 28/16/15
