# This file uses centimeters as units for non-parametric coordinates.

mtllib M_Sign.mtl
g default
v -0.575392 4.901381 -4.373619
v -1.057209 4.903865 -4.368950
v -0.474967 5.449409 5.711990
v -0.956784 5.451891 5.716648
v -0.483789 3.543489 5.815636
v -0.965602 3.545971 5.820301
v -0.584211 2.995461 -4.269962
v -1.066027 2.997944 -4.265301
v -0.916523 5.034389 -3.925251
v -0.470356 5.047052 -3.920677
v -1.021111 5.343860 5.426380
v -0.574943 5.356522 5.430943
v -1.070642 7.110411 5.367359
v -0.624476 7.123074 5.371937
v -0.966057 6.800941 -3.984261
v -0.519888 6.813605 -3.979691
v 0.204428 -4.431825 -3.703716
v 0.201948 -4.359748 -3.775751
v 0.276465 -4.359748 -3.706196
v -0.721842 -4.359748 -3.671843
v -0.652284 -4.359748 -3.746359
v -0.649805 -4.431825 -3.674320
v 0.276465 8.890696 -3.706196
v 0.201948 8.890696 -3.775751
v 0.204428 8.962775 -3.703716
v -0.649805 8.962775 -3.674320
v -0.652284 8.890696 -3.746359
v -0.721842 8.890696 -3.671843
v 0.306326 8.890696 -2.838333
v 0.234289 8.962775 -2.835854
v 0.236769 8.890696 -2.763821
v -0.617464 8.890696 -2.734425
v -0.619943 8.962775 -2.806461
v -0.691980 8.890696 -2.803982
v 0.306326 -4.359748 -2.838333
v 0.236769 -4.359748 -2.763821
v 0.234289 -4.431825 -2.835854
v -0.619943 -4.431825 -2.806461
v -0.617464 -4.359748 -2.734425
v -0.691980 -4.359748 -2.803982
v 0.160399 2.840696 -3.722944
v -0.607202 2.840696 -3.696531
v -0.669702 2.840696 -3.629576
v -0.642870 2.840696 -2.849735
v -0.575914 2.840696 -2.787231
v 0.191687 2.840696 -2.813644
v 0.254187 2.840696 -2.880600
v 0.227347 2.840696 -3.660444
v -0.919109 1.324751 -4.036907
v -0.465040 1.337496 -4.031876
v -1.025549 1.358356 5.485477
v -0.571480 1.371099 5.490498
v -1.075957 3.157180 5.478561
v -0.621890 3.169924 5.483593
v -0.969519 3.123576 -4.043816
v -0.515450 3.136319 -4.038784
v -0.661086 8.552382 -4.196980
v -1.124090 8.521966 -4.188976
v -0.539352 9.250385 5.505581
v -1.002356 9.219969 5.513569
v -0.416906 7.420738 5.635666
v -0.879909 7.390322 5.643661
v -0.538639 6.722735 -4.066887
v -1.001643 6.692319 -4.058884
v 0.204428 -4.431825 4.207695
v 0.201948 -4.359748 4.135658
v 0.276465 -4.359748 4.205215
v -0.721842 -4.359748 4.239567
v -0.652284 -4.359748 4.165051
v -0.649805 -4.431825 4.237091
v 0.276465 8.890696 4.205215
v 0.201948 8.890696 4.135658
v 0.204428 8.962775 4.207695
v -0.649805 8.962775 4.237091
v -0.652284 8.890696 4.165051
v -0.721842 8.890696 4.239567
v 0.306326 8.890696 5.073078
v 0.234289 8.962775 5.075558
v 0.236769 8.890696 5.147591
v -0.617464 8.890696 5.176987
v -0.619943 8.962775 5.104950
v -0.691980 8.890696 5.107430
v 0.306326 -4.359748 5.073078
v 0.236769 -4.359748 5.147591
v 0.234289 -4.431825 5.075558
v -0.619943 -4.431825 5.104950
v -0.617464 -4.359748 5.176987
v -0.691980 -4.359748 5.107430
v 0.160399 2.840696 4.188465
v -0.607202 2.840696 4.214878
v -0.669702 2.840696 4.281834
v -0.642870 2.840696 5.061676
v -0.575914 2.840696 5.124180
v 0.191687 2.840696 5.097767
v 0.254187 2.840696 5.030811
v 0.227347 2.840696 4.250965
vt 0.379249 0.163914
vt 0.403904 0.163915
vt 0.403904 0.540612
vt 0.379249 0.540613
vt 0.378863 0.561705
vt 0.294202 0.561702
vt 0.294203 0.540612
vt 0.519471 0.540612
vt 0.487805 0.540612
vt 0.487805 0.163915
vt 0.519471 0.163915
vt 0.294202 0.163916
vt 0.294202 0.142826
vt 0.378863 0.142823
vt 0.379249 0.163914
vt 0.403904 0.163915
vt 0.403904 0.540612
vt 0.379249 0.540613
vt 0.378863 0.561705
vt 0.294202 0.561702
vt 0.294203 0.540612
vt 0.519471 0.540612
vt 0.487805 0.540612
vt 0.487805 0.163915
vt 0.519471 0.163915
vt 0.294202 0.163916
vt 0.294202 0.142826
vt 0.378863 0.142823
vt 0.276567 0.213521
vt 0.281308 0.213521
vt 0.281308 0.269875
vt 0.276567 0.269875
vt 0.088923 0.277916
vt 0.088923 0.274553
vt 0.145149 0.274553
vt 0.145149 0.277916
vt 0.079504 0.568681
vt 0.088923 0.568681
vt 0.088923 0.896157
vt 0.079504 0.896157
vt 0.215599 0.213522
vt 0.220340 0.213522
vt 0.220341 0.269875
vt 0.215599 0.269875
vt 0.145149 0.568681
vt 0.154568 0.568681
vt 0.154568 0.896157
vt 0.145149 0.896157
vt 0.281309 0.960551
vt 0.276567 0.960551
vt 0.276567 0.904197
vt 0.281309 0.904197
vt 0.088923 0.899520
vt 0.145149 0.899520
vt 0.220341 0.960552
vt 0.215600 0.960552
vt 0.215599 0.904198
vt 0.220341 0.904198
vt 0.281308 0.896157
vt 0.276567 0.896157
vt 0.276567 0.568681
vt 0.281309 0.568681
vt 0.220341 0.896157
vt 0.210922 0.896157
vt 0.210922 0.568681
vt 0.220341 0.568681
vt 0.276567 0.277916
vt 0.220341 0.277916
vt 0.023149 0.568682
vt 0.023150 0.896158
vt 0.079504 0.277916
vt 0.154568 0.277916
vt 0.281309 0.277916
vt 0.210922 0.277916
vt 0.023149 0.277917
vt 0.379249 0.163914
vt 0.403904 0.163915
vt 0.403904 0.540612
vt 0.379249 0.540613
vt 0.378863 0.561705
vt 0.294202 0.561702
vt 0.294203 0.540612
vt 0.519471 0.540612
vt 0.487805 0.540612
vt 0.487805 0.163915
vt 0.519471 0.163915
vt 0.294202 0.163916
vt 0.294202 0.142826
vt 0.378863 0.142823
vt 0.379249 0.163914
vt 0.403904 0.163915
vt 0.403904 0.540612
vt 0.379249 0.540613
vt 0.378863 0.561705
vt 0.294202 0.561702
vt 0.294203 0.540612
vt 0.519471 0.540612
vt 0.487805 0.540612
vt 0.487805 0.163915
vt 0.519471 0.163915
vt 0.294202 0.163916
vt 0.294202 0.142826
vt 0.378863 0.142823
vt 0.276567 0.213521
vt 0.281308 0.213521
vt 0.281308 0.269875
vt 0.276567 0.269875
vt 0.088923 0.277916
vt 0.088923 0.274553
vt 0.145149 0.274553
vt 0.145149 0.277916
vt 0.079504 0.568681
vt 0.088923 0.568681
vt 0.088923 0.896157
vt 0.079504 0.896157
vt 0.215599 0.213522
vt 0.220340 0.213522
vt 0.220341 0.269875
vt 0.215599 0.269875
vt 0.145149 0.568681
vt 0.154568 0.568681
vt 0.154568 0.896157
vt 0.145149 0.896157
vt 0.281309 0.960551
vt 0.276567 0.960551
vt 0.276567 0.904197
vt 0.281309 0.904197
vt 0.088923 0.899520
vt 0.145149 0.899520
vt 0.220341 0.960552
vt 0.215600 0.960552
vt 0.215599 0.904198
vt 0.220341 0.904198
vt 0.281308 0.896157
vt 0.276567 0.896157
vt 0.276567 0.568681
vt 0.281309 0.568681
vt 0.220341 0.896157
vt 0.210922 0.896157
vt 0.210922 0.568681
vt 0.220341 0.568681
vt 0.276567 0.277916
vt 0.220341 0.277916
vt 0.023149 0.568682
vt 0.023150 0.896158
vt 0.079504 0.277916
vt 0.154568 0.277916
vt 0.281309 0.277916
vt 0.210922 0.277916
vt 0.023149 0.277917
vn 0.004620 0.998514 -0.054303
vn 0.004620 0.998514 -0.054303
vn 0.004620 0.998514 -0.054303
vn 0.004620 0.998514 -0.054303
vn 0.009942 0.054255 0.998478
vn 0.009942 0.054255 0.998478
vn 0.009942 0.054255 0.998478
vn 0.009942 0.054255 0.998478
vn -0.004620 -0.998514 0.054303
vn -0.004620 -0.998514 0.054303
vn -0.004620 -0.998514 0.054303
vn -0.004620 -0.998514 0.054303
vn -0.009941 -0.054255 -0.998478
vn -0.009941 -0.054255 -0.998478
vn -0.009941 -0.054255 -0.998478
vn -0.009941 -0.054255 -0.998478
vn -0.999940 0.005153 0.009676
vn -0.999940 0.005153 0.009676
vn -0.999940 0.005153 0.009676
vn -0.999940 0.005153 0.009676
vn 0.999940 -0.005153 -0.009676
vn 0.999940 -0.005153 -0.009676
vn 0.999940 -0.005153 -0.009676
vn 0.999940 -0.005153 -0.009676
vn 0.028013 -0.999050 0.033374
vn 0.028013 -0.999050 0.033374
vn 0.028013 -0.999050 0.033374
vn 0.028013 -0.999050 0.033374
vn -0.011177 0.033073 0.999390
vn -0.011177 0.033073 0.999390
vn -0.011177 0.033073 0.999390
vn -0.011177 0.033073 0.999390
vn -0.028013 0.999050 -0.033374
vn -0.028013 0.999050 -0.033374
vn -0.028013 0.999050 -0.033374
vn -0.028013 0.999050 -0.033374
vn 0.011176 -0.033073 -0.999390
vn 0.011176 -0.033073 -0.999390
vn 0.011176 -0.033073 -0.999390
vn 0.011176 -0.033073 -0.999390
vn 0.999545 0.028368 0.010240
vn 0.999545 0.028368 0.010240
vn 0.999545 0.028368 0.010240
vn 0.999545 0.028368 0.010240
vn -0.999545 -0.028368 -0.010240
vn -0.999545 -0.028368 -0.010240
vn -0.999545 -0.028368 -0.010240
vn -0.999545 -0.028368 -0.010240
vn 0.071154 -0.994637 -0.075058
vn 0.993882 -0.002505 -0.110415
vn 0.999121 -0.002505 0.041835
vn 0.076145 -0.994637 0.069990
vn 0.042941 -0.002402 -0.999075
vn 0.071154 -0.994637 -0.075058
vn -0.076145 -0.994637 -0.069990
vn -0.111515 -0.002402 -0.993760
vn 0.993887 -0.000003 -0.110398
vn 0.042946 -0.000003 -0.999077
vn 0.042892 0.002861 -0.999076
vn 0.993886 0.002983 -0.110368
vn -0.999121 -0.002505 -0.041835
vn -0.076145 -0.994637 -0.069990
vn -0.071154 -0.994637 0.075058
vn -0.993882 -0.002505 0.110415
vn -0.111520 -0.000003 -0.993762
vn -0.999125 -0.000003 -0.041818
vn -0.999122 0.002983 -0.041788
vn -0.111467 0.002861 -0.993764
vn 0.993886 0.002983 -0.110368
vn 0.071154 0.994637 -0.075058
vn 0.076145 0.994637 0.069990
vn 0.999122 0.002983 0.041788
vn 0.071154 0.994637 -0.075058
vn 0.042892 0.002861 -0.999076
vn -0.111467 0.002861 -0.993764
vn -0.076145 0.994637 -0.069990
vn -0.076145 0.994637 -0.069990
vn -0.999122 0.002983 -0.041788
vn -0.993886 0.002983 0.110368
vn -0.071154 0.994637 0.075058
vn 0.999122 0.002983 0.041788
vn 0.111466 0.002861 0.993764
vn 0.111520 -0.000003 0.993762
vn 0.999125 -0.000003 0.041818
vn 0.111466 0.002861 0.993764
vn 0.076145 0.994637 0.069990
vn -0.071154 0.994637 0.075058
vn -0.042891 0.002861 0.999076
vn -0.042891 0.002861 0.999076
vn -0.993886 0.002983 0.110368
vn -0.993887 -0.000003 0.110398
vn -0.042946 -0.000003 0.999077
vn 0.076145 -0.994637 0.069990
vn 0.111515 -0.002402 0.993760
vn -0.042941 -0.002402 0.999075
vn -0.071154 -0.994637 0.075058
vn 0.042946 -0.000003 -0.999077
vn -0.111520 -0.000003 -0.993762
vn -0.111467 0.002861 -0.993764
vn 0.042892 0.002861 -0.999076
vn 0.071154 0.994637 -0.075058
vn -0.076145 0.994637 -0.069990
vn -0.071154 0.994637 0.075058
vn 0.076145 0.994637 0.069990
vn 0.111466 0.002861 0.993764
vn -0.042891 0.002861 0.999076
vn -0.042946 -0.000003 0.999077
vn 0.111520 -0.000003 0.993762
vn 0.076145 -0.994637 0.069990
vn -0.071154 -0.994637 0.075058
vn -0.076145 -0.994637 -0.069990
vn 0.071154 -0.994637 -0.075058
vn -0.999125 -0.000003 -0.041818
vn -0.993887 -0.000003 0.110398
vn -0.993886 0.002983 0.110368
vn -0.999122 0.002983 -0.041788
vn 0.999125 -0.000003 0.041818
vn 0.993887 -0.000003 -0.110398
vn 0.993886 0.002983 -0.110368
vn 0.999122 0.002983 0.041788
vn 0.071154 -0.994637 -0.075058
vn 0.042941 -0.002402 -0.999075
vn 0.993882 -0.002505 -0.110415
vn -0.999121 -0.002505 -0.041835
vn -0.111515 -0.002402 -0.993760
vn -0.076145 -0.994637 -0.069990
vn 0.993886 0.002983 -0.110368
vn 0.042892 0.002861 -0.999076
vn 0.071154 0.994637 -0.075058
vn -0.076145 0.994637 -0.069990
vn -0.111467 0.002861 -0.993764
vn -0.999122 0.002983 -0.041788
vn 0.999122 0.002983 0.041788
vn 0.076145 0.994637 0.069990
vn 0.111466 0.002861 0.993764
vn -0.042891 0.002861 0.999076
vn -0.071154 0.994637 0.075058
vn -0.993886 0.002983 0.110368
vn 0.999121 -0.002505 0.041835
vn 0.111515 -0.002402 0.993760
vn 0.076145 -0.994637 0.069990
vn -0.071154 -0.994637 0.075058
vn -0.042941 -0.002402 0.999075
vn -0.993882 -0.002505 0.110415
vn 0.042941 -0.002402 -0.999075
vn -0.111515 -0.002402 -0.993760
vn -0.111520 -0.000003 -0.993762
vn 0.042946 -0.000003 -0.999077
vn -0.111515 -0.002402 -0.993760
vn -0.999121 -0.002505 -0.041835
vn -0.999125 -0.000003 -0.041818
vn -0.111520 -0.000003 -0.993762
vn -0.999121 -0.002505 -0.041835
vn -0.993882 -0.002505 0.110415
vn -0.993887 -0.000003 0.110398
vn -0.999125 -0.000003 -0.041818
vn -0.042946 -0.000003 0.999077
vn -0.993887 -0.000003 0.110398
vn -0.993882 -0.002505 0.110415
vn -0.042941 -0.002402 0.999075
vn 0.111520 -0.000003 0.993762
vn -0.042946 -0.000003 0.999077
vn -0.042941 -0.002402 0.999075
vn 0.111515 -0.002402 0.993760
vn 0.999125 -0.000003 0.041818
vn 0.111520 -0.000003 0.993762
vn 0.111515 -0.002402 0.993760
vn 0.999121 -0.002505 0.041835
vn 0.999121 -0.002505 0.041835
vn 0.993882 -0.002505 -0.110415
vn 0.993887 -0.000003 -0.110398
vn 0.999125 -0.000003 0.041818
vn 0.993882 -0.002505 -0.110415
vn 0.042941 -0.002402 -0.999075
vn 0.042946 -0.000003 -0.999077
vn 0.993887 -0.000003 -0.110398
vn 0.028013 -0.999600 0.003841
vn 0.028013 -0.999600 0.003841
vn 0.028013 -0.999600 0.003841
vn 0.028013 -0.999600 0.003841
vn -0.011177 0.003529 0.999931
vn -0.011177 0.003529 0.999931
vn -0.011177 0.003529 0.999931
vn -0.011177 0.003529 0.999931
vn -0.028013 0.999600 -0.003841
vn -0.028013 0.999600 -0.003841
vn -0.028013 0.999600 -0.003841
vn -0.028013 0.999600 -0.003841
vn 0.011176 -0.003529 -0.999931
vn 0.011176 -0.003529 -0.999931
vn 0.011176 -0.003529 -0.999931
vn 0.011176 -0.003529 -0.999931
vn 0.999545 0.028053 0.011074
vn 0.999545 0.028053 0.011074
vn 0.999545 0.028053 0.011074
vn 0.999545 0.028053 0.011074
vn -0.999545 -0.028053 -0.011074
vn -0.999545 -0.028053 -0.011074
vn -0.999545 -0.028053 -0.011074
vn -0.999545 -0.028053 -0.011074
vn -0.066608 0.995267 -0.070764
vn -0.066608 0.995267 -0.070764
vn -0.066608 0.995267 -0.070764
vn -0.066608 0.995267 -0.070764
vn 0.012513 0.071749 0.997344
vn 0.012513 0.071749 0.997344
vn 0.012513 0.071749 0.997344
vn 0.012513 0.071749 0.997344
vn 0.066608 -0.995267 0.070764
vn 0.066608 -0.995267 0.070764
vn 0.066608 -0.995267 0.070764
vn 0.066608 -0.995267 0.070764
vn -0.012512 -0.071749 -0.997344
vn -0.012512 -0.071749 -0.997344
vn -0.012512 -0.071749 -0.997344
vn -0.012512 -0.071749 -0.997344
vn -0.997701 -0.065545 0.017233
vn -0.997701 -0.065545 0.017233
vn -0.997701 -0.065545 0.017233
vn -0.997701 -0.065545 0.017233
vn 0.997701 0.065545 -0.017233
vn 0.997701 0.065545 -0.017233
vn 0.997701 0.065545 -0.017233
vn 0.997701 0.065545 -0.017233
vn 0.071154 -0.994637 -0.075058
vn 0.993882 -0.002505 -0.110415
vn 0.999121 -0.002505 0.041835
vn 0.076145 -0.994637 0.069990
vn 0.042941 -0.002402 -0.999075
vn 0.071154 -0.994637 -0.075058
vn -0.076145 -0.994637 -0.069990
vn -0.111515 -0.002402 -0.993760
vn 0.993887 -0.000003 -0.110398
vn 0.042946 -0.000003 -0.999077
vn 0.042892 0.002861 -0.999076
vn 0.993886 0.002983 -0.110368
vn -0.999121 -0.002505 -0.041835
vn -0.076145 -0.994637 -0.069990
vn -0.071154 -0.994637 0.075058
vn -0.993882 -0.002505 0.110415
vn -0.111520 -0.000003 -0.993762
vn -0.999125 -0.000003 -0.041818
vn -0.999122 0.002983 -0.041788
vn -0.111467 0.002861 -0.993764
vn 0.993886 0.002983 -0.110368
vn 0.071154 0.994637 -0.075058
vn 0.076145 0.994637 0.069990
vn 0.999122 0.002983 0.041788
vn 0.071154 0.994637 -0.075058
vn 0.042892 0.002861 -0.999076
vn -0.111467 0.002861 -0.993764
vn -0.076145 0.994637 -0.069990
vn -0.076145 0.994637 -0.069990
vn -0.999122 0.002983 -0.041788
vn -0.993886 0.002983 0.110368
vn -0.071154 0.994637 0.075058
vn 0.999122 0.002983 0.041788
vn 0.111466 0.002861 0.993764
vn 0.111520 -0.000003 0.993762
vn 0.999125 -0.000003 0.041818
vn 0.111466 0.002861 0.993764
vn 0.076145 0.994637 0.069990
vn -0.071154 0.994637 0.075058
vn -0.042891 0.002861 0.999076
vn -0.042891 0.002861 0.999076
vn -0.993886 0.002983 0.110368
vn -0.993887 -0.000003 0.110398
vn -0.042946 -0.000003 0.999077
vn 0.076145 -0.994637 0.069990
vn 0.111515 -0.002402 0.993760
vn -0.042941 -0.002402 0.999075
vn -0.071154 -0.994637 0.075058
vn 0.042946 -0.000003 -0.999077
vn -0.111520 -0.000003 -0.993762
vn -0.111467 0.002861 -0.993764
vn 0.042892 0.002861 -0.999076
vn 0.071154 0.994637 -0.075058
vn -0.076145 0.994637 -0.069990
vn -0.071154 0.994637 0.075058
vn 0.076145 0.994637 0.069990
vn 0.111466 0.002861 0.993764
vn -0.042891 0.002861 0.999076
vn -0.042946 -0.000003 0.999077
vn 0.111520 -0.000003 0.993762
vn 0.076145 -0.994637 0.069990
vn -0.071154 -0.994637 0.075058
vn -0.076145 -0.994637 -0.069990
vn 0.071154 -0.994637 -0.075058
vn -0.999125 -0.000003 -0.041818
vn -0.993887 -0.000003 0.110398
vn -0.993886 0.002983 0.110368
vn -0.999122 0.002983 -0.041788
vn 0.999125 -0.000003 0.041818
vn 0.993887 -0.000003 -0.110398
vn 0.993886 0.002983 -0.110368
vn 0.999122 0.002983 0.041788
vn 0.071154 -0.994637 -0.075058
vn 0.042941 -0.002402 -0.999075
vn 0.993882 -0.002505 -0.110415
vn -0.999121 -0.002505 -0.041835
vn -0.111515 -0.002402 -0.993760
vn -0.076145 -0.994637 -0.069990
vn 0.993886 0.002983 -0.110368
vn 0.042892 0.002861 -0.999076
vn 0.071154 0.994637 -0.075058
vn -0.076145 0.994637 -0.069990
vn -0.111467 0.002861 -0.993764
vn -0.999122 0.002983 -0.041788
vn 0.999122 0.002983 0.041788
vn 0.076145 0.994637 0.069990
vn 0.111466 0.002861 0.993764
vn -0.042891 0.002861 0.999076
vn -0.071154 0.994637 0.075058
vn -0.993886 0.002983 0.110368
vn 0.999121 -0.002505 0.041835
vn 0.111515 -0.002402 0.993760
vn 0.076145 -0.994637 0.069990
vn -0.071154 -0.994637 0.075058
vn -0.042941 -0.002402 0.999075
vn -0.993882 -0.002505 0.110415
vn 0.042941 -0.002402 -0.999075
vn -0.111515 -0.002402 -0.993760
vn -0.111520 -0.000003 -0.993762
vn 0.042946 -0.000003 -0.999077
vn -0.111515 -0.002402 -0.993760
vn -0.999121 -0.002505 -0.041835
vn -0.999125 -0.000003 -0.041818
vn -0.111520 -0.000003 -0.993762
vn -0.999121 -0.002505 -0.041835
vn -0.993882 -0.002505 0.110415
vn -0.993887 -0.000003 0.110398
vn -0.999125 -0.000003 -0.041818
vn -0.042946 -0.000003 0.999077
vn -0.993887 -0.000003 0.110398
vn -0.993882 -0.002505 0.110415
vn -0.042941 -0.002402 0.999075
vn 0.111520 -0.000003 0.993762
vn -0.042946 -0.000003 0.999077
vn -0.042941 -0.002402 0.999075
vn 0.111515 -0.002402 0.993760
vn 0.999125 -0.000003 0.041818
vn 0.111520 -0.000003 0.993762
vn 0.111515 -0.002402 0.993760
vn 0.999121 -0.002505 0.041835
vn 0.999121 -0.002505 0.041835
vn 0.993882 -0.002505 -0.110415
vn 0.993887 -0.000003 -0.110398
vn 0.999125 -0.000003 0.041818
vn 0.993882 -0.002505 -0.110415
vn 0.042941 -0.002402 -0.999075
vn 0.042946 -0.000003 -0.999077
vn 0.993887 -0.000003 -0.110398
s off
g polySurface1243
usemtl M_WoodSmall:lambert6SG
f 1/1/1 2/2/2 4/3/3 3/4/4
f 3/4/5 4/5/6 6/6/7 5/7/8
f 5/8/9 6/9/10 8/10/11 7/11/12
f 7/12/13 8/13/14 2/14/15 1/1/16
f 2/2/17 8/10/18 6/9/19 4/3/20
f 7/12/21 1/1/22 3/4/23 5/7/24
f 9/15/25 10/16/26 12/17/27 11/18/28
f 11/18/29 12/19/30 14/20/31 13/21/32
f 13/22/33 14/23/34 16/24/35 15/25/36
f 15/26/37 16/27/38 10/28/39 9/15/40
f 10/16/41 16/24/42 14/23/43 12/17/44
f 15/26/45 9/15/46 11/18/47 13/21/48
f 17/29/49 19/30/50 35/31/51 37/32/52
f 18/33/53 17/34/54 22/35/55 21/36/56
f 48/37/57 41/38/58 24/39/59 23/40/60
f 20/41/61 22/42/62 38/43/63 40/44/64
f 42/45/65 43/46/66 28/47/67 27/48/68
f 23/49/69 25/50/70 30/51/71 29/52/72
f 25/53/73 24/39/74 27/48/75 26/54/76
f 26/55/77 28/56/78 34/57/79 33/58/80
f 29/59/81 31/60/82 46/61/83 47/62/84
f 31/60/85 30/51/86 33/58/87 32/63/88
f 32/63/89 34/64/90 44/65/91 45/66/92
f 37/32/93 36/67/94 39/68/95 38/43/96
f 41/38/97 42/45/98 27/48/99 24/39/100
f 25/50/101 26/55/102 33/58/103 30/51/104
f 31/60/105 32/63/106 45/66/107 46/61/108
f 37/32/109 38/43/110 22/42/111 17/29/112
f 43/46/113 44/65/114 34/64/115 28/47/116
f 47/69/117 48/37/118 23/40/119 29/70/120
f 17/34/121 18/33/122 19/71/123
f 20/72/124 21/36/125 22/35/126
f 23/40/127 24/39/128 25/53/129
f 26/54/130 27/48/131 28/47/132
f 29/52/133 30/51/134 31/60/135
f 32/63/136 33/58/137 34/57/138
f 35/73/139 36/67/140 37/32/141
f 38/43/142 39/68/143 40/74/144
f 18/33/145 21/36/146 42/45/147 41/38/148
f 21/36/149 20/72/150 43/46/151 42/45/152
f 20/72/153 40/74/154 44/65/155 43/46/156
f 45/66/157 44/65/158 40/74/159 39/68/160
f 46/61/161 45/66/162 39/68/163 36/67/164
f 47/62/165 46/61/166 36/67/167 35/73/168
f 35/75/169 19/71/170 48/37/171 47/69/172
f 19/71/173 18/33/174 41/38/175 48/37/176
f 49/76/177 50/77/178 52/78/179 51/79/180
f 51/79/181 52/80/182 54/81/183 53/82/184
f 53/83/185 54/84/186 56/85/187 55/86/188
f 55/87/189 56/88/190 50/89/191 49/76/192
f 50/77/193 56/85/194 54/84/195 52/78/196
f 55/87/197 49/76/198 51/79/199 53/82/200
f 57/90/201 58/91/202 60/92/203 59/93/204
f 59/93/205 60/94/206 62/95/207 61/96/208
f 61/97/209 62/98/210 64/99/211 63/100/212
f 63/101/213 64/102/214 58/103/215 57/90/216
f 58/91/217 64/99/218 62/98/219 60/92/220
f 63/101/221 57/90/222 59/93/223 61/96/224
f 65/104/225 67/105/226 83/106/227 85/107/228
f 66/108/229 65/109/230 70/110/231 69/111/232
f 96/112/233 89/113/234 72/114/235 71/115/236
f 68/116/237 70/117/238 86/118/239 88/119/240
f 90/120/241 91/121/242 76/122/243 75/123/244
f 71/124/245 73/125/246 78/126/247 77/127/248
f 73/128/249 72/114/250 75/123/251 74/129/252
f 74/130/253 76/131/254 82/132/255 81/133/256
f 77/134/257 79/135/258 94/136/259 95/137/260
f 79/135/261 78/126/262 81/133/263 80/138/264
f 80/138/265 82/139/266 92/140/267 93/141/268
f 85/107/269 84/142/270 87/143/271 86/118/272
f 89/113/273 90/120/274 75/123/275 72/114/276
f 73/125/277 74/130/278 81/133/279 78/126/280
f 79/135/281 80/138/282 93/141/283 94/136/284
f 85/107/285 86/118/286 70/117/287 65/104/288
f 91/121/289 92/140/290 82/139/291 76/122/292
f 95/144/293 96/112/294 71/115/295 77/145/296
f 65/109/297 66/108/298 67/146/299
f 68/147/300 69/111/301 70/110/302
f 71/115/303 72/114/304 73/128/305
f 74/129/306 75/123/307 76/122/308
f 77/127/309 78/126/310 79/135/311
f 80/138/312 81/133/313 82/132/314
f 83/148/315 84/142/316 85/107/317
f 86/118/318 87/143/319 88/149/320
f 66/108/321 69/111/322 90/120/323 89/113/324
f 69/111/325 68/147/326 91/121/327 90/120/328
f 68/147/329 88/149/330 92/140/331 91/121/332
f 93/141/333 92/140/334 88/149/335 87/143/336
f 94/136/337 93/141/338 87/143/339 84/142/340
f 95/137/341 94/136/342 84/142/343 83/148/344
f 83/150/345 67/146/346 96/112/347 95/144/348
f 67/146/349 66/108/350 89/113/351 96/112/352
