# This file uses centimeters as units for non-parametric coordinates.

mtllib M_Stairs.mtl
g default
v 3.917110 0.222229 6.837377
v 3.917110 0.222229 -7.357843
v 2.991276 1.002164 -7.357843
v 2.991276 1.002164 6.837377
v 2.032599 1.697904 -7.357843
v 2.032599 1.697904 6.837377
v 1.018214 2.393127 -7.357843
v 1.018214 2.393127 6.837377
v -1.105077 3.733213 6.837377
v -1.105077 3.733213 -7.357843
v -0.011609 2.393127 -7.357843
v -0.011609 3.034913 -7.357843
v -0.011609 3.034913 6.837377
v -1.105077 3.733213 -0.300420
v 0.699226 3.733213 -0.300420
v 1.729050 3.034913 -0.300420
v 2.743436 2.393127 -0.300420
v 3.702112 1.697904 -0.300420
v 4.627946 1.002164 -0.300420
v 5.624616 0.222229 -0.300420
v 5.429821 0.222229 -4.144111
v 4.433151 1.002164 -4.144111
v 3.507317 1.697904 -4.144111
v 2.548640 2.393127 -4.144111
v 1.534255 3.034913 -4.144111
v 0.504431 3.733213 -4.144111
v -1.105077 3.733213 -4.144111
v -1.105077 3.733213 3.242191
v 0.504431 3.652139 3.242190
v 1.534255 3.034913 3.242190
v 2.548640 2.347337 3.242190
v 3.507317 1.697904 3.242190
v 4.433151 1.002164 3.242190
v 5.429821 0.222229 3.242190
v 4.927643 0.222229 6.740799
v 4.816213 0.222229 6.837377
v 4.809511 0.897895 6.837377
v 4.927643 0.904596 6.740799
v 4.823409 1.002164 6.733108
v 5.325960 1.002164 3.231901
v 5.429821 0.897895 3.242191
v 4.930311 0.897895 -7.254893
v 4.816907 0.905292 -7.357843
v 4.824918 1.002164 -7.253574
v 4.816907 0.222229 -7.357843
v 4.929138 0.222229 -7.262197
v 3.933108 1.002164 -7.258218
v 3.816209 0.901262 -7.357843
v 3.917110 0.897895 6.837377
v 3.932077 1.002164 6.733108
v 3.917110 1.112758 6.837377
v 3.806516 1.002164 6.837377
v 3.828249 1.697904 -7.253574
v 3.933641 1.593636 -7.254893
v 3.812841 1.593636 -7.357843
v 4.433151 1.549342 -4.144111
v 4.329303 1.697904 -4.133174
v 3.007273 1.697904 -7.258218
v 2.890375 1.597003 -7.357843
v 3.826739 1.697904 6.733108
v 3.917110 1.593636 6.837377
v 3.005652 1.697904 6.737220
v 2.890092 1.596721 6.837377
v 2.900905 2.393127 6.733108
v 2.887007 2.288859 6.837377
v 3.006090 2.288859 6.734166
v 2.902414 2.393127 -7.253574
v 3.007807 2.288859 -7.254893
v 2.887007 2.288859 -7.357843
v 3.507317 2.201714 -3.992993
v 3.403468 2.393127 -3.982056
v 2.048597 2.393127 -7.258218
v 1.931698 2.292226 -7.357843
v 2.046976 2.393127 6.737220
v 1.931416 2.291944 6.837377
v 1.942229 3.034913 6.733108
v 1.928331 2.930645 6.837377
v 2.047414 2.930645 6.734166
v 1.943738 3.034913 -7.253574
v 2.049131 2.930645 -7.254893
v 1.928331 2.930645 -7.357843
v 2.548640 2.930645 -4.144111
v 2.444792 3.034913 -4.133174
v 1.034211 3.034913 -7.258218
v 0.921342 2.938041 -7.357843
v 1.032590 3.034913 6.737220
v 0.917030 2.933730 6.837377
v 0.927843 3.733213 6.733108
v 0.913945 3.628944 6.837377
v 1.033028 3.628944 6.734166
v 0.929352 3.733213 -7.253574
v 1.034745 3.628944 -7.254893
v 0.913945 3.628944 -7.357843
v 1.534255 3.543658 -4.144111
v 1.364648 3.733213 -4.133174
v 0.004388 3.733213 -7.258218
v -0.112511 3.632312 -7.357843
v 0.002767 3.733213 6.737220
v -0.112793 3.632030 6.837377
v -0.101981 4.408986 6.733108
v -0.115878 4.304717 6.837377
v 0.003205 4.304717 6.734166
v -1.105077 4.304717 6.837377
v -1.000808 4.408986 6.733108
v -0.100471 4.408986 -7.253574
v 0.004922 4.304717 -7.254893
v -0.115878 4.304717 -7.357843
v 0.504431 4.304717 -4.144111
v 0.400583 4.408986 -4.133174
v -1.000808 4.408986 -7.253574
v -1.105077 4.304717 -7.357843
v -1.105077 4.304717 3.242191
v -1.000808 4.408986 3.242191
v -1.000808 4.408986 -0.300420
v -1.105077 4.304717 -0.300420
v -1.000808 4.408986 -4.144111
v -1.105077 4.304717 -4.144111
v 0.594812 4.408986 -0.300644
v 0.699226 4.304717 -0.300420
v 0.400571 4.408986 3.231901
v 0.504431 4.304717 3.242190
v 1.624636 3.733213 -0.300644
v 1.729050 3.628944 -0.300420
v 1.430394 3.652139 3.231901
v 1.424760 3.313227 3.229829
v 2.639022 3.034913 -0.300644
v 2.743436 2.930645 -0.300420
v 2.444780 3.034913 3.231901
v 2.548640 2.849523 3.242190
v 3.597698 2.393127 -0.300644
v 3.702112 2.288859 -0.300420
v 3.403456 2.347337 3.231901
v 3.507317 2.243068 3.242190
v 4.523533 1.697904 -0.300644
v 4.627946 1.593636 -0.300420
v 4.329290 1.697904 3.231901
v 4.433151 1.552427 3.242190
v 5.624616 0.897895 -0.300420
v 5.520203 1.002164 -0.300644
v 5.429821 0.897895 -4.144111
v 5.325973 1.002164 -4.133174
v 5.557827 0.222229 1.638036
v 5.557827 0.810773 1.638036
v 5.453715 1.002164 1.632305
v 4.561157 1.002164 1.638036
v 4.561157 1.593636 1.638036
v 4.457046 1.697904 1.632304
v 3.635323 1.697904 1.638036
v 3.635323 2.288859 1.638036
v 3.531211 2.393127 1.632304
v 2.676646 2.393127 1.638036
v 2.676646 2.930645 1.638036
v 2.572535 3.034913 1.632304
v 1.662261 3.034913 1.638036
v 1.662261 3.597250 1.638036
v 1.558149 3.733213 1.632304
v 0.632437 3.733213 1.638036
v 0.632437 4.249519 1.638036
v 0.528326 4.408986 1.632304
v -1.000808 4.408986 1.638036
v -1.105077 4.304717 1.638036
v -1.105077 3.733213 1.638036
v -1.105077 3.733213 5.073151
v -1.105077 4.304717 5.073151
v -1.000808 4.408986 5.020049
v 0.224109 4.408986 5.014999
v 0.328645 4.304717 5.020587
v 0.328421 3.733213 5.022143
v 1.120574 3.733213 5.014999
v 1.358468 3.628944 5.020587
v 1.358245 3.034913 5.022143
v 2.268318 3.034913 5.014999
v 2.372854 2.875968 5.020587
v 2.372630 2.393127 5.022143
v 3.226995 2.379485 5.014999
v 3.331530 2.288859 5.020587
v 3.331307 1.697904 5.022143
v 4.152829 1.697904 5.014999
v 4.249820 1.593636 5.035650
v 4.246350 0.963080 5.097323
v 5.144032 0.963080 5.053082
v 5.249530 0.732329 5.051972
v 5.245545 0.222229 5.079730
v -1.105077 3.733213 -2.332164
v -1.105077 4.304717 -2.332164
v -1.000808 4.408986 -2.332164
v 0.531944 4.408986 -2.326489
v 0.636059 4.184284 -2.332164
v 0.636059 3.733213 -2.332164
v 1.561767 3.733213 -2.326489
v 1.665882 3.628944 -2.332164
v 1.665882 2.984834 -2.332164
v 2.576153 2.984834 -2.326489
v 2.680268 2.844629 -2.332164
v 2.680268 2.393127 -2.332164
v 3.534829 2.393127 -2.326489
v 3.638944 2.288859 -2.332164
v 3.638944 1.697904 -2.332164
v 4.460664 1.697904 -2.326489
v 4.564778 1.593636 -2.332164
v 4.564778 0.962388 -2.332164
v 5.457334 0.962388 -2.326489
v 5.561449 0.858119 -2.332164
v 5.561449 0.222229 -2.332164
v -1.105077 3.733213 -5.739417
v -1.105077 4.304717 -5.739417
v -1.000808 4.408986 -5.687658
v 0.215121 4.408986 -5.682150
v 0.319736 4.304717 -5.688313
v 0.319471 3.733213 -5.689963
v 1.244944 3.733213 -5.682150
v 1.349559 3.628944 -5.688313
v 1.349294 3.034913 -5.689963
v 2.259330 3.034913 -5.682150
v 2.363945 2.930645 -5.688313
v 2.363680 2.393127 -5.689963
v 3.197006 2.393127 -5.949481
v 3.279427 2.163399 -5.955644
v 3.322356 1.632705 -5.689963
v 4.143840 1.632705 -5.682150
v 4.248455 1.528436 -5.688313
v 4.248190 1.002164 -5.689963
v 5.140510 1.002164 -5.682150
v 5.245125 0.854558 -5.688313
v 5.244543 0.222229 -5.691938
v 3.939984 1.593636 6.713508
v -1.105077 3.733213 5.590796
v -1.105077 4.304717 5.590796
v -1.000808 4.408986 5.522681
v 0.128431 4.408986 5.519113
v 0.233157 4.177254 5.523371
v 0.232870 3.733213 5.525367
v 1.158254 3.733213 5.519113
v 1.262980 3.628944 5.523371
v 1.262693 3.034913 5.525367
v 2.149431 3.034913 5.519113
v 2.277365 2.805314 5.523371
v 2.277079 2.393127 5.525367
v 3.131316 2.412150 5.796385
v 3.236042 2.280673 5.740147
v 3.235756 1.697904 5.525367
v 4.057150 1.697904 5.519113
v 4.158910 1.593636 5.527954
v 4.154139 1.002164 5.577282
v 5.049957 1.002164 5.546022
v 5.155085 0.836736 5.547494
v 5.152269 0.222229 5.567108
v -1.105077 3.733213 2.462665
v -1.105077 4.304717 2.462664
v -1.000808 4.408986 2.462665
v 0.462652 4.408986 2.454590
v 0.566635 4.109426 2.462664
v 0.566635 3.733213 2.462664
v 1.492476 3.733213 2.454590
v 1.596458 3.503230 2.462664
v 1.596458 3.034913 2.462664
v 2.506861 3.034913 2.454590
v 2.610844 2.849523 2.462664
v 2.610844 2.310547 2.462664
v 3.465538 2.310547 2.454590
v 3.569520 2.206278 2.462664
v 3.569520 1.697904 2.462664
v 4.359621 1.697904 2.454590
v 4.495355 1.515270 2.462664
v 4.495355 1.002164 2.462664
v 5.388041 1.002164 2.454590
v 5.492024 0.876309 2.462665
v 5.492024 0.222229 2.462664
v -1.105077 3.733213 -1.350092
v -1.105077 4.304717 -1.350092
v -1.000808 4.408986 -1.350092
v 0.562332 4.408986 -1.347268
v 0.666592 4.142951 -1.350092
v 0.666592 3.733213 -1.350092
v 1.592155 3.733213 -1.347268
v 1.696415 3.628944 -1.350092
v 1.696415 2.933928 -1.350092
v 2.606541 2.933928 -1.465286
v 2.710801 2.634670 -1.468110
v 2.710801 2.393127 -1.350092
v 3.565217 2.393127 -1.347268
v 3.669477 2.288859 -1.350092
v 3.669477 1.697904 -1.350092
v 4.426408 1.697904 -1.347268
v 4.595311 1.522793 -1.350092
v 4.595311 1.002164 -1.350092
v 5.487722 1.002164 -1.347268
v 5.591981 0.897895 -1.350092
v 5.591981 0.222229 -1.350092
v -1.105077 3.733213 -4.875007
v -1.105077 4.304717 -4.875007
v -1.000808 4.408986 -4.851293
v 0.192932 4.408986 -4.842844
v 0.419812 4.212561 -4.851593
v 0.419691 3.733213 -4.852349
v 1.279678 3.733213 -4.842844
v 1.449636 3.540108 -4.851593
v 1.449514 3.034913 -4.852349
v 2.359822 3.034913 -4.842844
v 2.464021 2.930645 -4.851593
v 2.463900 2.393127 -4.852349
v 3.318498 2.393127 -4.842844
v 3.422698 2.288859 -4.851593
v 3.422576 1.586148 -4.852349
v 4.244332 1.586148 -4.842844
v 4.348532 1.392085 -4.851593
v 4.348411 1.002164 -4.852349
v 5.241002 1.002164 -4.842844
v 5.345202 0.819081 -4.851593
v 5.344935 0.222229 -4.853254
vt 0.345504 0.007578
vt 0.351333 0.007652
vt 0.351333 0.080549
vt 0.338491 0.080205
vt 0.345504 0.001824
vt 0.351333 0.142409
vt 0.345504 0.141920
vt 0.308826 0.095056
vt 0.312471 0.007392
vt 0.306830 0.001824
vt 0.351333 0.190527
vt 0.340633 0.189915
vt 0.306223 0.141878
vt 0.351333 0.283071
vt 0.345504 0.282754
vt 0.312471 0.181468
vt 0.351333 0.337808
vt 0.345504 0.337651
vt 0.312471 0.282754
vt 0.351333 0.396314
vt 0.345504 0.396326
vt 0.312471 0.337651
vt 0.351333 0.504364
vt 0.345504 0.504684
vt 0.312471 0.396326
vt 0.346717 0.550329
vt 0.340888 0.550780
vt 0.312471 0.504684
vt 0.348773 0.593779
vt 0.342945 0.594355
vt 0.312471 0.550780
vt 0.350570 0.693453
vt 0.345504 0.693765
vt 0.312471 0.594355
vt 0.352396 0.737131
vt 0.345047 0.733988
vt 0.312471 0.693852
vt 0.351333 0.789493
vt 0.345504 0.789552
vt 0.312471 0.721982
vt 0.345504 0.795322
vt 0.312471 0.789723
vt 0.306815 0.795322
vt 0.654950 0.693453
vt 0.649122 0.693765
vt 0.631473 0.593664
vt 0.650418 0.593779
vt 0.654950 0.721632
vt 0.649122 0.721870
vt 0.615916 0.693852
vt 0.615916 0.594355
vt 0.642094 0.550780
vt 0.654950 0.550329
vt 0.654950 0.789493
vt 0.649122 0.789552
vt 0.615916 0.721982
vt 0.615916 0.550780
vt 0.647350 0.504684
vt 0.654950 0.504364
vt 0.649122 0.795322
vt 0.615916 0.789723
vt 0.615916 0.504684
vt 0.649122 0.396326
vt 0.654950 0.396314
vt 0.610260 0.795322
vt 0.615916 0.396326
vt 0.649122 0.337651
vt 0.654950 0.337808
vt 0.610271 0.337651
vt 0.649122 0.282754
vt 0.654950 0.283071
vt 0.613117 0.282754
vt 0.644354 0.181468
vt 0.654950 0.182079
vt 0.615916 0.181468
vt 0.644156 0.141920
vt 0.654950 0.142409
vt 0.615916 0.141878
vt 0.649122 0.095149
vt 0.654950 0.095493
vt 0.615916 0.095056
vt 0.649122 0.007578
vt 0.654950 0.007652
vt 0.615916 0.007392
vt 0.649122 0.001824
vt 0.610501 0.001824
vt 0.800693 0.504684
vt 0.809607 0.504364
vt 0.809607 0.550329
vt 0.792862 0.550780
vt 0.803779 0.396326
vt 0.809607 0.396314
vt 0.809607 0.593779
vt 0.803779 0.594355
vt 0.771832 0.550780
vt 0.771832 0.504684
vt 0.794736 0.337651
vt 0.809607 0.337809
vt 0.771832 0.396326
vt 0.809607 0.693453
vt 0.803779 0.693765
vt 0.767300 0.594355
vt 0.797047 0.282754
vt 0.809607 0.283071
vt 0.771832 0.337651
vt 0.809607 0.721632
vt 0.796654 0.721870
vt 0.771832 0.693852
vt 0.803779 0.181468
vt 0.809607 0.182079
vt 0.771832 0.282754
vt 0.809607 0.789493
vt 0.803779 0.789552
vt 0.771832 0.721982
vt 0.798627 0.141920
vt 0.809607 0.142409
vt 0.771832 0.181468
vt 0.803779 0.795322
vt 0.771832 0.789723
vt 0.803779 0.095149
vt 0.809607 0.095493
vt 0.771832 0.141878
vt 0.766176 0.795322
vt 0.803779 0.007578
vt 0.809607 0.007652
vt 0.771832 0.095056
vt 0.803779 0.001824
vt 0.771832 0.007392
vt 0.766192 0.001824
vt 0.037538 0.282754
vt 0.001992 0.282754
vt 0.001992 0.181468
vt 0.039761 0.181468
vt 0.039761 0.337651
vt 0.001992 0.337651
vt 0.001992 0.141827
vt 0.035356 0.141920
vt 0.043366 0.283071
vt 0.045590 0.182079
vt 0.039761 0.396326
vt 0.001992 0.396326
vt 0.045590 0.337809
vt 0.001992 0.094946
vt 0.037339 0.095149
vt 0.045590 0.142409
vt 0.034891 0.504684
vt 0.001992 0.504684
vt 0.045590 0.396314
vt 0.001992 0.007170
vt 0.039761 0.007578
vt 0.045590 0.095493
vt 0.038554 0.550780
vt 0.001992 0.550780
vt 0.045590 0.504364
vt 0.040175 0.001824
vt 0.001992 0.001824
vt 0.045590 0.007652
vt 0.039761 0.594355
vt 0.001992 0.594355
vt 0.045590 0.550329
vt 0.030506 0.695520
vt 0.001992 0.697071
vt 0.045590 0.593779
vt 0.036342 0.723219
vt 0.001992 0.724315
vt 0.043405 0.695582
vt 0.040136 0.789923
vt 0.001992 0.789923
vt 0.045590 0.723136
vt 0.001992 0.795322
vt 0.039761 0.795322
vt 0.045590 0.789493
vt 0.195045 0.282754
vt 0.159759 0.282754
vt 0.161983 0.181468
vt 0.192569 0.181468
vt 0.191085 0.337651
vt 0.161983 0.337651
vt 0.161983 0.141878
vt 0.183779 0.141920
vt 0.200874 0.182079
vt 0.200874 0.283071
vt 0.195045 0.396326
vt 0.161983 0.396326
vt 0.200874 0.337809
vt 0.161983 0.095056
vt 0.191401 0.095149
vt 0.194627 0.142409
vt 0.195045 0.504684
vt 0.161983 0.504684
vt 0.200874 0.396314
vt 0.161983 0.007392
vt 0.195045 0.007578
vt 0.197229 0.095493
vt 0.190665 0.550780
vt 0.161983 0.550780
vt 0.200874 0.504364
vt 0.156342 0.001824
vt 0.195045 0.001824
vt 0.200874 0.007652
vt 0.192742 0.594355
vt 0.161983 0.594355
vt 0.200874 0.550329
vt 0.195045 0.694607
vt 0.159798 0.698055
vt 0.200874 0.593779
vt 0.195045 0.722126
vt 0.161983 0.724884
vt 0.200874 0.693453
vt 0.195045 0.788398
vt 0.161983 0.789493
vt 0.200874 0.721632
vt 0.168165 0.795322
vt 0.195045 0.795322
vt 0.200874 0.789493
vt 0.156154 0.795322
vt 0.161983 0.795322
vt 0.489136 0.282754
vt 0.463898 0.282754
vt 0.463898 0.181468
vt 0.493944 0.181468
vt 0.477400 0.331054
vt 0.463898 0.337651
vt 0.463898 0.141878
vt 0.493944 0.141920
vt 0.499773 0.182079
vt 0.496974 0.283071
vt 0.493944 0.396326
vt 0.463898 0.396326
vt 0.494128 0.331211
vt 0.463898 0.095056
vt 0.493944 0.095149
vt 0.499773 0.142409
vt 0.493944 0.504684
vt 0.463898 0.504684
vt 0.499773 0.396314
vt 0.463898 0.007392
vt 0.493944 0.007578
vt 0.499773 0.095493
vt 0.489410 0.550780
vt 0.459282 0.550780
vt 0.499773 0.504364
vt 0.458258 0.001824
vt 0.493944 0.001824
vt 0.499773 0.007652
vt 0.489410 0.594355
vt 0.461338 0.594355
vt 0.499773 0.550329
vt 0.490888 0.693765
vt 0.463898 0.693852
vt 0.499773 0.593779
vt 0.486939 0.721870
vt 0.463898 0.721982
vt 0.499773 0.693453
vt 0.463898 0.789723
vt 0.493944 0.789552
vt 0.499773 0.721632
vt 0.499773 0.789493
vt 0.458242 0.795322
vt 0.493944 0.795322
vt 0.950141 0.615678
vt 0.918194 0.615678
vt 0.918194 0.514392
vt 0.950141 0.514392
vt 0.950141 0.656534
vt 0.918194 0.656534
vt 0.918194 0.459495
vt 0.950141 0.459495
vt 0.955970 0.514392
vt 0.955970 0.615678
vt 0.950141 0.704854
vt 0.918194 0.704854
vt 0.955970 0.655208
vt 0.918194 0.400819
vt 0.950141 0.400819
vt 0.955970 0.459495
vt 0.918194 0.795322
vt 0.950141 0.795322
vt 0.955970 0.701960
vt 0.918194 0.292461
vt 0.950141 0.292461
vt 0.955970 0.400819
vt 0.955970 0.789493
vt 0.918194 0.246366
vt 0.950141 0.246366
vt 0.955970 0.292461
vt 0.918194 0.202791
vt 0.950141 0.202791
vt 0.955970 0.246366
vt 0.918194 0.100442
vt 0.950141 0.100442
vt 0.955970 0.202791
vt 0.918194 0.071506
vt 0.950141 0.071506
vt 0.955970 0.103410
vt 0.918194 0.001824
vt 0.950141 0.001824
vt 0.955970 0.075314
vt 0.955970 0.007652
vt 0.137254 0.615066
vt 0.087346 0.615678
vt 0.094704 0.514392
vt 0.144597 0.514074
vt 0.132504 0.654736
vt 0.082609 0.655267
vt 0.096411 0.459495
vt 0.146296 0.459337
vt 0.126887 0.701652
vt 0.077007 0.702089
vt 0.098235 0.400819
vt 0.148111 0.400832
vt 0.059394 0.789753
vt 0.109246 0.789493
vt 0.094502 0.292461
vt 0.144395 0.292782
vt 0.108798 0.795322
vt 0.052860 0.795322
vt 0.090823 0.246366
vt 0.140724 0.246817
vt 0.087346 0.202791
vt 0.137253 0.203366
vt 0.076904 0.099091
vt 0.127084 0.101564
vt 0.071750 0.072262
vt 0.121825 0.074009
vt 0.059337 0.007652
vt 0.109161 0.007652
vt 0.108384 0.001824
vt 0.058500 0.001824
vt 0.114988 0.007222
vt 0.289226 0.615066
vt 0.243278 0.615678
vt 0.250636 0.514392
vt 0.296569 0.514074
vt 0.284476 0.654736
vt 0.238541 0.655267
vt 0.252343 0.459495
vt 0.294654 0.459337
vt 0.278859 0.701652
vt 0.232939 0.702089
vt 0.254167 0.400819
vt 0.300083 0.400832
vt 0.215326 0.789753
vt 0.261218 0.789493
vt 0.250433 0.292461
vt 0.296367 0.292782
vt 0.260357 0.795322
vt 0.208792 0.795322
vt 0.246755 0.246366
vt 0.290921 0.246817
vt 0.243278 0.202791
vt 0.289226 0.203366
vt 0.233439 0.103293
vt 0.279361 0.103693
vt 0.228098 0.075164
vt 0.274013 0.075513
vt 0.215236 0.007422
vt 0.261133 0.007652
vt 0.266185 0.001824
vt 0.208776 0.001824
vt 0.441131 0.606619
vt 0.393347 0.615678
vt 0.400705 0.514392
vt 0.448474 0.514074
vt 0.436382 0.654736
vt 0.388610 0.655267
vt 0.402412 0.459495
vt 0.450173 0.459337
vt 0.429590 0.716596
vt 0.383008 0.702089
vt 0.404236 0.400819
vt 0.451989 0.400832
vt 0.365395 0.789753
vt 0.413123 0.789493
vt 0.400503 0.292461
vt 0.448272 0.292782
vt 0.412262 0.795322
vt 0.358861 0.795322
vt 0.396825 0.246366
vt 0.444601 0.246817
vt 0.393347 0.202791
vt 0.441131 0.203366
vt 0.383509 0.103293
vt 0.431267 0.103693
vt 0.378167 0.075164
vt 0.425918 0.060014
vt 0.365305 0.007422
vt 0.413039 0.007652
vt 0.412262 0.001824
vt 0.358845 0.001824
vt 0.592366 0.615066
vt 0.541468 0.615678
vt 0.548826 0.514392
vt 0.599709 0.514074
vt 0.587616 0.654736
vt 0.536731 0.655267
vt 0.550532 0.459495
vt 0.601408 0.465934
vt 0.581999 0.701652
vt 0.531129 0.702089
vt 0.552357 0.400819
vt 0.603223 0.400832
vt 0.513516 0.789753
vt 0.564357 0.789493
vt 0.548623 0.292461
vt 0.599507 0.292782
vt 0.563496 0.795322
vt 0.507207 0.795322
vt 0.544945 0.246366
vt 0.595836 0.246817
vt 0.541468 0.202791
vt 0.592365 0.203366
vt 0.531629 0.103293
vt 0.582501 0.103693
vt 0.526288 0.075164
vt 0.575855 0.075513
vt 0.513425 0.007422
vt 0.564273 0.007652
vt 0.563496 0.001824
vt 0.506966 0.001824
vt 0.745469 0.615066
vt 0.697384 0.615678
vt 0.704742 0.514392
vt 0.756488 0.514074
vt 0.740719 0.654736
vt 0.692647 0.655267
vt 0.706448 0.459495
vt 0.758187 0.459337
vt 0.738778 0.701652
vt 0.687045 0.702089
vt 0.708273 0.400819
vt 0.760002 0.400832
vt 0.669432 0.789753
vt 0.721137 0.789493
vt 0.704539 0.292461
vt 0.756286 0.292782
vt 0.720275 0.795322
vt 0.662897 0.795322
vt 0.700861 0.246366
vt 0.752615 0.246817
vt 0.697384 0.202791
vt 0.749144 0.203366
vt 0.687545 0.103293
vt 0.731826 0.103693
vt 0.682204 0.075164
vt 0.733932 0.075513
vt 0.669341 0.007422
vt 0.721052 0.007652
vt 0.720275 0.001824
vt 0.662882 0.001824
vt 0.822677 0.514392
vt 0.908357 0.514074
vt 0.901014 0.615066
vt 0.822677 0.615678
vt 0.822677 0.459495
vt 0.910055 0.459337
vt 0.889406 0.654736
vt 0.822677 0.655208
vt 0.822677 0.400819
vt 0.911871 0.400832
vt 0.890647 0.701652
vt 0.822677 0.701960
vt 0.822677 0.292461
vt 0.908155 0.292782
vt 0.873005 0.789493
vt 0.822677 0.789493
vt 0.822677 0.246366
vt 0.904483 0.246817
vt 0.872144 0.795322
vt 0.816849 0.795322
vt 0.822677 0.202791
vt 0.901013 0.203366
vt 0.822677 0.103410
vt 0.891149 0.103693
vt 0.822677 0.075314
vt 0.885801 0.075513
vt 0.822677 0.007652
vt 0.872921 0.007652
vt 0.872144 0.001824
vt 0.816849 0.001824
vt 0.523614 0.799688
vt 0.523614 0.849572
vt 0.485845 0.849572
vt 0.485845 0.799313
vt 0.790413 0.849611
vt 0.752456 0.855251
vt 0.752230 0.799313
vt 0.790413 0.799313
vt 0.871794 0.856722
vt 0.838559 0.851067
vt 0.838559 0.805495
vt 0.844741 0.799313
vt 0.871621 0.799313
vt 0.568640 0.799313
vt 0.563000 0.845426
vt 0.529749 0.851066
vt 0.529937 0.799501
vt 0.658635 0.852902
vt 0.625429 0.847246
vt 0.619773 0.799313
vt 0.658463 0.799486
vt 0.613638 0.799313
vt 0.607997 0.847262
vt 0.574776 0.852902
vt 0.574964 0.799501
vt 0.832423 0.856016
vt 0.802204 0.850360
vt 0.796548 0.799313
vt 0.832251 0.799486
vt 0.998008 0.799313
vt 0.992368 0.850376
vt 0.961908 0.855791
vt 0.962321 0.799501
vt 0.992368 0.907942
vt 0.956492 0.907942
vt 0.923099 0.913583
vt 0.923287 0.856205
vt 0.916963 0.856880
vt 0.883585 0.851223
vt 0.877929 0.799313
vt 0.916791 0.799486
vt 0.670427 0.854781
vt 0.664771 0.799313
vt 0.702373 0.799486
vt 0.702373 0.854781
vt 0.746095 0.799313
vt 0.740455 0.854797
vt 0.708508 0.854797
vt 0.708508 0.799502
vn 0.643769 0.003177 0.765213
vn 0.643769 0.003177 0.765213
vn 0.643769 0.003177 0.765213
vn 0.643769 0.003177 0.765213
vn 0.020427 0.705597 0.708319
vn 0.025444 0.705181 0.708571
vn 0.000000 0.707107 0.707106
vn 0.000000 0.707107 0.707106
vn 0.851150 0.513228 0.110187
vn 0.849275 0.516182 0.110857
vn 0.818826 0.565552 0.098360
vn 0.817868 0.567048 0.097721
vn 0.795220 0.604493 0.047055
vn 0.796491 0.602821 0.046987
vn 0.821790 0.568226 0.042196
vn 0.821878 0.568097 0.042214
vn 0.755885 0.636627 -0.152786
vn 0.755147 0.636735 -0.155955
vn 0.790360 0.600028 -0.123681
vn 0.794037 0.595640 -0.121320
vn 0.660761 0.003464 -0.750588
vn 0.660761 0.003464 -0.750588
vn 0.660761 0.003464 -0.750588
vn 0.660761 0.003464 -0.750588
vn 0.000180 0.717744 -0.696307
vn 0.000180 0.717744 -0.696307
vn 0.000180 0.717744 -0.696307
vn 0.000180 0.717744 -0.696307
vn 0.647794 0.003403 -0.761808
vn 0.647794 0.003403 -0.761808
vn 0.647794 0.003403 -0.761808
vn 0.647794 0.003403 -0.761808
vn 0.003252 0.703839 -0.710352
vn 0.003252 0.703839 -0.710352
vn 0.003252 0.703839 -0.710352
vn 0.003252 0.703839 -0.710352
vn 0.698282 0.707181 -0.110894
vn 0.698282 0.707181 -0.110894
vn 0.745189 0.661586 -0.083650
vn 0.754343 0.651829 -0.078014
vn 0.794764 0.596539 -0.111762
vn 0.791433 0.602126 -0.105252
vn 0.748709 0.662321 -0.027655
vn 0.748866 0.662133 -0.027926
vn 0.647793 0.003406 -0.761809
vn 0.647793 0.003406 -0.761809
vn 0.647793 0.003406 -0.761809
vn 0.647793 0.003406 -0.761809
vn 0.761200 0.643238 0.082576
vn 0.760131 0.644363 0.083648
vn 0.785391 0.616344 0.057284
vn 0.785326 0.616421 0.057355
vn 0.002755 0.705162 0.709041
vn 0.002755 0.705162 0.709041
vn 0.002755 0.705162 0.709041
vn 0.002755 0.705162 0.709041
vn 0.654171 0.003151 0.756340
vn 0.654171 0.003151 0.756340
vn 0.654171 0.003151 0.756340
vn 0.654171 0.003151 0.756340
vn 0.698299 0.713164 0.061444
vn 0.696590 0.714916 0.060478
vn 0.688762 0.723750 0.042354
vn 0.688500 0.723982 0.042624
vn 0.002814 0.704441 0.709757
vn 0.002814 0.704441 0.709757
vn 0.002814 0.704441 0.709757
vn 0.002814 0.704441 0.709757
vn 0.003133 0.703879 -0.710313
vn 0.003133 0.703879 -0.710313
vn 0.003133 0.703879 -0.710313
vn 0.003133 0.703879 -0.710313
vn 0.858382 0.486342 -0.163255
vn 0.858382 0.486342 -0.163255
vn 0.860534 0.487155 -0.148864
vn 0.860614 0.487185 -0.148303
vn 0.813963 0.576681 -0.070019
vn 0.813967 0.576682 -0.069967
vn 0.781413 0.621013 -0.061132
vn 0.781913 0.620356 -0.061413
vn 0.647718 0.003715 -0.761872
vn 0.647717 0.003715 -0.761872
vn 0.647718 0.003715 -0.761872
vn 0.647717 0.003715 -0.761872
vn 0.654099 0.003436 0.756401
vn 0.654099 0.003436 0.756401
vn 0.654099 0.003436 0.756401
vn 0.654099 0.003436 0.756401
vn 0.848662 0.516276 0.115027
vn 0.848820 0.516428 0.113166
vn 0.856792 0.509900 0.076869
vn 0.856807 0.509877 0.076860
vn 0.002651 0.704492 0.709707
vn 0.002651 0.704492 0.709707
vn 0.002651 0.704492 0.709707
vn 0.002651 0.704492 0.709707
vn 0.004447 0.710490 -0.703693
vn 0.004447 0.710490 -0.703693
vn 0.004447 0.710490 -0.703693
vn 0.004447 0.710490 -0.703693
vn 0.695202 0.705116 -0.139662
vn 0.695202 0.705116 -0.139662
vn 0.697382 0.706326 -0.121501
vn 0.697638 0.706460 -0.119228
vn 0.745539 0.664952 -0.044847
vn 0.745346 0.665155 -0.045026
vn 0.826084 0.563526 -0.004907
vn 0.832766 0.553622 -0.002021
vn 0.653744 0.005450 -0.756696
vn 0.653744 0.005450 -0.756696
vn 0.653744 0.005450 -0.756696
vn 0.653744 0.005450 -0.756696
vn 0.654178 0.003135 0.756334
vn 0.654178 0.003135 0.756334
vn 0.654178 0.003135 0.756334
vn 0.654178 0.003135 0.756334
vn 0.833623 0.550865 0.040245
vn 0.841945 0.538043 0.040477
vn 0.923981 0.372474 0.086733
vn 0.925621 0.367857 0.088925
vn 0.002609 0.704505 0.709694
vn 0.002609 0.704505 0.709694
vn 0.002609 0.704505 0.709694
vn 0.002609 0.704505 0.709694
vn 0.002905 0.703954 -0.710240
vn 0.002905 0.703954 -0.710240
vn 0.002905 0.703954 -0.710240
vn 0.002905 0.703954 -0.710240
vn 0.695203 0.705115 -0.139662
vn 0.695203 0.705115 -0.139662
vn 0.712323 0.695744 -0.092393
vn 0.714161 0.694557 -0.086973
vn 0.732173 0.675805 -0.084915
vn 0.732328 0.675626 -0.084998
vn 0.721583 0.689247 -0.065235
vn 0.721622 0.689196 -0.065355
vn 0.647769 0.003512 -0.761829
vn 0.647769 0.003512 -0.761829
vn 0.647769 0.003512 -0.761829
vn 0.647769 0.003512 -0.761829
vn 0.654147 0.003249 0.756361
vn 0.654147 0.003249 0.756361
vn 0.654147 0.003249 0.756361
vn 0.654147 0.003249 0.756361
vn 0.744600 0.657435 0.115539
vn 0.743202 0.659298 0.113916
vn 0.791839 0.608977 0.046243
vn 0.787691 0.614241 0.047440
vn 0.000000 0.707108 0.707106
vn 0.000000 0.707108 0.707106
vn 0.000000 0.707108 0.707106
vn 0.000000 0.707108 0.707106
vn -0.707107 0.707106 -0.000000
vn -0.707107 0.707106 -0.000000
vn -0.707107 0.707107 0.000000
vn -0.707107 0.707107 0.000000
vn 0.000000 0.707108 -0.707106
vn 0.000000 0.707108 -0.707106
vn 0.000000 0.707108 -0.707106
vn 0.000000 0.707108 -0.707106
vn 0.695203 0.705115 -0.139662
vn 0.695203 0.705115 -0.139662
vn 0.687094 0.722739 -0.074502
vn 0.686192 0.724186 -0.068518
vn 0.791099 0.605145 -0.089227
vn 0.790010 0.606437 -0.090104
vn 0.879043 0.475547 -0.033743
vn 0.880208 0.473411 -0.033399
vn -0.707107 0.707106 0.000000
vn -0.707107 0.707106 0.000000
vn -0.707107 0.707107 -0.000000
vn -0.707107 0.707107 -0.000000
vn -0.707107 0.707106 0.000000
vn -0.707107 0.707106 0.000000
vn -0.707107 0.707106 0.000000
vn -0.707107 0.707106 0.000000
vn -0.707107 0.707106 0.000000
vn -0.707107 0.707106 0.000000
vn -0.707107 0.707107 0.000000
vn -0.707107 0.707107 0.000000
vn 0.839980 0.538595 0.065957
vn 0.836966 0.543473 0.064235
vn 0.898402 0.434455 0.064202
vn 0.898606 0.433843 0.065475
vn 0.799394 0.598159 0.056354
vn 0.797765 0.600417 0.055405
vn 0.936296 0.320774 0.143016
vn 0.941659 0.302612 0.147326
vn 0.744086 0.666316 0.048576
vn 0.743151 0.667403 0.047951
vn 0.840864 0.535202 0.080667
vn 0.841680 0.533965 0.080352
vn 0.704711 0.707290 0.055890
vn 0.704839 0.707306 0.054042
vn 0.703299 0.706725 0.076880
vn 0.703399 0.706747 0.075758
vn 0.727176 0.684336 0.053841
vn 0.726902 0.684660 0.053436
vn 0.784713 0.615979 0.069244
vn 0.784647 0.616051 0.069348
vn 0.705954 0.707069 -0.041013
vn 0.705958 0.707070 -0.040940
vn 0.739638 0.669689 -0.066731
vn 0.738668 0.670850 -0.065802
vn 0.000000 0.000000 1.000000
vn 0.000000 0.000000 1.000000
vn 0.000000 0.000000 1.000000
vn 0.000000 0.000000 1.000000
vn -0.000153 0.999865 0.016409
vn -0.000141 0.999885 0.015185
vn -0.000071 1.000000 0.001034
vn -0.000058 0.999999 -0.001079
vn 0.000000 0.000000 -1.000000
vn 0.000000 0.000000 -1.000000
vn 0.000000 0.000000 -1.000000
vn 0.000000 0.000000 -1.000000
vn 0.998326 0.000000 -0.057831
vn 0.998320 0.000000 -0.057941
vn 0.996359 -0.000015 -0.085258
vn 0.996405 -0.000014 -0.084721
vn 0.000498 0.999197 -0.040053
vn 0.000607 0.998807 -0.048835
vn 0.000000 1.000000 0.000000
vn 0.000000 1.000000 0.000000
vn 0.000000 0.000000 1.000000
vn 0.000000 0.000000 1.000000
vn 0.000000 0.000000 1.000000
vn 0.000000 0.000000 1.000000
vn 0.000000 0.000000 1.000000
vn 0.998291 0.000000 -0.058446
vn 0.998301 0.000000 -0.058267
vn 0.996519 -0.000008 -0.083370
vn 0.996619 -0.000007 -0.082165
vn 0.000000 0.000000 -1.000000
vn 0.000000 0.000000 -1.000000
vn 0.000000 0.000000 -1.000000
vn 0.000000 0.000000 -1.000000
vn 0.000000 1.000000 0.000000
vn 0.000000 1.000000 0.000000
vn 0.000000 1.000000 0.000000
vn 0.000000 1.000000 -0.000000
vn -0.000000 0.000000 1.000000
vn -0.000000 0.000000 1.000000
vn -0.000000 0.000000 1.000000
vn -0.000000 0.000000 1.000000
vn 0.998266 0.006416 -0.058518
vn 0.998244 0.006499 -0.058876
vn 0.995884 0.011784 -0.089863
vn 0.996378 0.011261 -0.084287
vn 0.000001 0.000000 -1.000000
vn 0.000001 0.000000 -1.000000
vn 0.000001 0.000000 -1.000000
vn 0.000001 0.000000 -1.000000
vn -0.000188 0.999787 0.020657
vn -0.000174 0.999817 0.019119
vn 0.000896 0.999333 0.036502
vn 0.001016 0.999299 0.037423
vn -0.000000 0.000000 1.000000
vn -0.000000 0.000000 1.000000
vn -0.000000 0.000000 1.000000
vn -0.000000 0.000000 1.000000
vn 0.997961 -0.001283 -0.063806
vn 0.998048 -0.001487 -0.062432
vn 0.996267 -0.000009 -0.086325
vn 0.996241 -0.000009 -0.086624
vn 0.000001 0.000000 -1.000000
vn 0.000000 0.000000 -1.000000
vn -0.000000 0.000000 -1.000000
vn 0.000001 0.000000 -1.000000
vn -0.000000 0.000000 -1.000000
vn -0.000001 0.000000 -1.000000
vn 0.000000 1.000000 -0.000000
vn 0.000000 1.000000 0.000000
vn 0.000000 1.000000 -0.000000
vn 0.000000 1.000000 -0.000000
vn -0.000000 0.000000 1.000000
vn -0.000000 0.000000 1.000000
vn -0.000000 0.000000 1.000000
vn -0.000000 0.000000 1.000000
vn 0.998419 0.000000 -0.056202
vn 0.998431 0.000000 -0.056006
vn 0.996449 -0.000008 -0.084204
vn 0.996460 -0.000008 -0.084071
vn -0.000001 0.000000 -1.000000
vn -0.000001 0.000000 -1.000000
vn 0.000000 1.000000 0.000000
vn 0.000000 1.000000 0.000000
vn 0.000000 1.000000 0.000000
vn 0.000000 1.000000 0.000000
vn 0.000000 0.000000 1.000000
vn 0.000000 0.000000 1.000000
vn 0.000000 0.000000 1.000000
vn 0.000000 0.000000 1.000000
vn 0.998191 0.000000 -0.060120
vn 0.998227 0.000000 -0.059519
vn 0.996314 -0.000008 -0.085785
vn 0.996348 -0.000008 -0.085386
vn -0.000001 0.000000 -1.000000
vn -0.000001 0.000000 -1.000000
vn -0.000001 0.000000 -1.000000
vn -0.000001 0.000000 -1.000000
vn -1.000000 0.000000 0.000000
vn -1.000000 0.000000 0.000000
vn -1.000000 0.000000 0.000000
vn -1.000000 0.000000 0.000000
vn -1.000000 0.000000 0.000000
vn -1.000000 0.000000 0.000000
vn -1.000000 0.000000 0.000000
vn -1.000000 0.000000 0.000000
vn 0.000000 1.000000 -0.000000
vn 0.000000 1.000000 -0.000000
vn 0.000000 1.000000 0.000000
vn 0.000000 1.000000 -0.000000
vn 0.996831 -0.000000 0.079544
vn 0.996831 -0.000000 0.079544
vn 0.998935 0.000000 0.046137
vn 0.998985 0.000000 0.045038
vn 0.000000 1.000000 0.000000
vn 0.000000 1.000000 0.000000
vn 0.000531 0.998568 0.053500
vn 0.000473 0.998863 0.047678
vn 0.992542 0.051826 0.110337
vn 0.991548 0.059879 0.115095
vn 0.998901 0.000000 0.046869
vn 0.998936 0.000000 0.046117
vn 0.000000 1.000000 -0.000000
vn 0.000000 1.000000 -0.000000
vn 0.000000 1.000000 -0.000000
vn 0.000000 1.000000 -0.000000
vn 0.996831 0.000000 0.079544
vn 0.996831 0.000000 0.079544
vn 0.998822 0.000000 0.048533
vn 0.998879 0.000000 0.047344
vn 0.000228 0.999601 0.028236
vn 0.000255 0.999500 0.031630
vn 0.000132 0.999702 0.024418
vn 0.000207 0.999463 0.032752
vn 0.996831 0.000000 0.079544
vn 0.996831 0.000000 0.079544
vn 0.998883 0.000000 0.047256
vn 0.998911 0.000000 0.046664
vn 0.000000 1.000000 0.000000
vn 0.000000 1.000000 0.000000
vn 0.000000 1.000000 0.000000
vn 0.000000 1.000000 0.000000
vn 0.996831 0.000000 0.079543
vn 0.996831 0.000000 0.079543
vn 0.998881 0.000001 0.047292
vn 0.998908 0.000001 0.046730
vn 0.000000 1.000000 0.000000
vn 0.000000 1.000000 0.000000
vn 0.000000 1.000000 0.000000
vn 0.000000 1.000000 0.000000
vn 0.996831 -0.000000 0.079543
vn 0.996831 -0.000000 0.079543
vn 0.998858 -0.000001 0.047769
vn 0.998849 -0.000001 0.047967
vn 0.985128 0.000167 -0.171821
vn 0.985216 0.000164 -0.171316
vn 0.980410 0.000330 -0.196969
vn 0.980410 0.000330 -0.196969
vn 0.000000 1.000000 0.000000
vn 0.000000 1.000000 0.000000
vn 0.000000 1.000000 0.000000
vn 0.000000 1.000000 0.000000
vn 0.984467 0.000099 -0.175571
vn 0.984822 0.000092 -0.173570
vn 0.980405 0.000177 -0.196994
vn 0.980405 0.000177 -0.196994
vn -0.000315 0.999136 0.041560
vn -0.000397 0.998951 0.045782
vn -0.000423 0.998888 0.047142
vn -0.000315 0.999136 0.041560
vn 0.983966 -0.004718 -0.178295
vn 0.987828 0.000546 -0.155548
vn 0.979524 -0.010010 -0.201080
vn 0.979524 -0.010010 -0.201080
vn 0.000000 1.000000 0.000000
vn 0.000000 1.000000 0.000000
vn 0.000000 1.000000 0.000000
vn 0.000000 1.000000 0.000000
vn 0.985437 0.000088 -0.170041
vn 0.985413 0.000089 -0.170181
vn 0.980404 0.000183 -0.196997
vn 0.980404 0.000183 -0.196997
vn 0.000000 1.000000 0.000000
vn 0.000000 1.000000 -0.000000
vn 0.000000 1.000000 -0.000000
vn 0.000000 1.000000 0.000000
vn 0.984996 0.000086 -0.172580
vn 0.985179 0.000082 -0.171527
vn 0.980404 0.000165 -0.196997
vn 0.980404 0.000165 -0.196997
vn -0.000000 1.000000 0.000000
vn -0.000000 1.000000 0.000000
vn -0.000000 1.000000 0.000000
vn -0.000000 1.000000 0.000000
vn 0.984969 0.000089 -0.172728
vn 0.985160 0.000086 -0.171639
vn 0.980404 0.000172 -0.196997
vn 0.980404 0.000172 -0.196997
vn 0.000000 1.000000 -0.000000
vn 0.000000 1.000000 -0.000000
vn 0.000000 1.000000 -0.000000
vn 0.000000 1.000000 -0.000000
vn -1.000000 0.000000 0.000000
vn -1.000000 0.000000 0.000000
vn -1.000000 0.000000 0.000000
vn -1.000000 0.000000 0.000000
vn -1.000000 0.000000 0.000000
vn -1.000000 0.000000 0.000000
vn -1.000000 0.000000 0.000000
vn -1.000000 0.000000 0.000000
vn 0.000000 1.000000 0.000000
vn 0.000000 1.000000 0.000000
vn 0.000000 1.000000 0.000000
vn 0.000000 1.000000 0.000000
vn 0.993579 -0.000020 0.113137
vn 0.993361 -0.000016 0.115043
vn 0.995622 -0.000042 0.093467
vn 0.995579 -0.000043 0.093927
vn 0.000077 0.999964 0.008451
vn -0.000023 0.999999 -0.001622
vn -0.000344 0.999424 -0.033946
vn -0.000365 0.999351 -0.036022
vn 0.991533 0.087554 0.095902
vn 0.991563 0.090400 0.092900
vn 0.987689 0.130771 0.085844
vn 0.987596 0.130930 0.086671
vn 0.000000 1.000000 0.000000
vn 0.000000 1.000000 0.000000
vn 0.000000 1.000000 0.000000
vn 0.000000 1.000000 0.000000
vn 0.993313 -0.000021 0.115448
vn 0.993191 -0.000018 0.116494
vn 0.995736 -0.000047 0.092245
vn 0.995715 -0.000048 0.092471
vn 0.005015 0.999543 -0.029797
vn 0.005466 0.999583 -0.028370
vn 0.005606 0.999734 -0.022397
vn 0.006080 0.999737 -0.022113
vn 0.993545 -0.007575 0.113188
vn 0.993548 -0.007562 0.113161
vn 0.995671 -0.000043 0.092952
vn 0.995654 -0.000044 0.093131
vn 0.000000 1.000000 0.000000
vn 0.000000 1.000000 0.000000
vn 0.000000 1.000000 -0.000000
vn 0.000000 1.000000 -0.000000
vn 0.000438 0.999896 0.014391
vn 0.000473 0.999879 0.015541
vn -0.000371 0.999990 -0.004391
vn -0.000040 0.999992 0.003950
vn 0.993050 -0.000402 0.117694
vn 0.992931 -0.000368 0.118696
vn 0.995668 -0.000687 0.092982
vn 0.995685 -0.000678 0.092799
vn 0.993030 0.003916 0.117799
vn 0.992687 0.004180 0.120646
vn 0.995471 0.001703 0.095054
vn 0.995458 0.001718 0.095188
vn 0.495487 0.580293 0.646338
vn 0.567512 0.581018 -0.583394
vn 0.638865 0.000000 0.769319
vn 0.638865 0.000000 0.769319
vn 0.638865 0.000000 0.769319
vn 0.638865 0.000000 0.769319
vn 0.540054 0.553884 -0.633684
vn 0.540054 0.553884 -0.633684
vn 0.540054 0.553884 -0.633684
vn 0.544523 0.555684 0.628259
vn 0.544523 0.555684 0.628259
vn 0.544523 0.555684 0.628259
vn 0.540054 0.553884 -0.633684
vn 0.540054 0.553884 -0.633684
vn 0.540054 0.553884 -0.633684
vn 0.544524 0.555682 0.628260
vn 0.544524 0.555682 0.628260
vn 0.544524 0.555682 0.628260
vn 0.540052 0.553885 -0.633684
vn 0.540052 0.553885 -0.633684
vn 0.540052 0.553885 -0.633684
vn 0.544523 0.555684 0.628259
vn 0.544523 0.555684 0.628259
vn 0.544523 0.555684 0.628259
vn 0.540052 0.553885 -0.633685
vn 0.540052 0.553885 -0.633685
vn 0.540052 0.553885 -0.633685
vn 0.544522 0.555683 0.628261
vn 0.544522 0.555683 0.628261
vn 0.544522 0.555683 0.628261
vn 0.540051 0.553885 -0.633685
vn 0.540051 0.553885 -0.633685
vn 0.540051 0.553885 -0.633685
vn 0.999946 -0.000000 0.010424
vn 0.999950 -0.000000 0.009982
vn 0.785799 0.618086 0.022126
vn 0.785330 0.618692 0.021844
vn 0.000000 1.000000 0.000000
vn 0.000000 1.000000 0.000000
vn 0.999924 0.000001 0.012343
vn 0.999916 0.000001 0.012980
vn 0.709998 0.704047 -0.014853
vn 0.709994 0.704052 -0.014795
vn 0.000000 1.000000 0.000000
vn 0.000000 1.000000 0.000000
vn 0.999935 0.000000 0.011429
vn 0.999935 0.000000 0.011429
vn 0.706743 0.707425 0.008077
vn 0.706743 0.707425 0.008068
vn 0.000000 1.000000 -0.000000
vn 0.000000 1.000000 -0.000000
vn 0.999877 -0.001298 0.015639
vn 0.999840 -0.001147 0.017830
vn 0.807723 0.588147 -0.040831
vn 0.801066 0.597489 -0.036074
vn -0.002108 0.999445 -0.033245
vn -0.002099 0.999450 -0.033095
vn 0.999961 0.000000 0.008864
vn 0.999954 0.000000 0.009621
vn 0.739156 0.673396 0.013635
vn 0.739070 0.673493 0.013537
vn 0.000000 1.000000 0.000000
vn 0.000000 1.000000 0.000000
vn 0.999916 0.000000 0.012944
vn 0.999900 0.000000 0.014141
vn 0.822928 0.568109 -0.006453
vn 0.821777 0.569787 -0.005137
vn 0.000000 1.000000 -0.000000
vn 0.000000 1.000000 0.000000
vn -0.707107 0.707106 0.000000
vn -0.707107 0.707106 0.000000
vn -1.000000 0.000000 0.000000
vn -1.000000 0.000000 0.000000
vn -1.000000 0.000000 0.000000
vn -1.000000 0.000000 0.000000
vn -0.707107 0.707107 0.000000
vn -0.707107 0.707107 -0.000000
vn 0.000000 1.000000 0.000000
vn 0.000000 1.000000 0.000000
vn 0.836242 0.525313 0.157309
vn 0.836043 0.525230 0.158639
vn 0.982443 0.000206 0.186562
vn 0.982443 0.000207 0.186561
vn 0.000000 1.000000 0.000000
vn 0.000000 1.000000 0.000000
vn 0.638517 0.763515 0.096649
vn 0.632586 0.768868 0.093152
vn 0.982443 0.000177 0.186564
vn 0.982443 0.000177 0.186564
vn 0.000000 1.000000 0.000000
vn 0.000000 1.000000 0.000000
vn 0.821283 0.551525 0.145997
vn 0.822271 0.549007 0.149870
vn 0.982444 0.000225 0.186558
vn 0.982444 0.000226 0.186558
vn -0.006860 0.999955 -0.006627
vn -0.007817 0.999960 -0.004280
vn 0.750015 0.643298 0.153770
vn 0.744587 0.655503 0.126117
vn 0.980931 -0.035092 0.191160
vn 0.982910 -0.033274 0.181056
vn 0.000000 1.000000 0.000000
vn 0.000000 1.000000 0.000000
vn 0.697602 0.704476 0.130632
vn 0.698123 0.703942 0.130730
vn 0.982740 0.003456 0.184963
vn 0.982738 0.003119 0.184976
vn -0.000809 0.999815 -0.019216
vn -0.001212 0.999584 -0.028800
vn 0.810069 0.573771 0.120728
vn 0.820531 0.559313 0.117890
vn 0.982258 0.001005 0.187534
vn 0.982258 0.001026 0.187531
vn -1.000000 0.000000 0.000000
vn -1.000000 0.000000 0.000000
vn -0.707107 0.707106 0.000000
vn -0.707107 0.707106 0.000000
vn 0.000000 1.000000 -0.000000
vn 0.000000 1.000000 -0.000000
vn 0.898308 0.437460 -0.040874
vn 0.899131 0.435835 -0.040146
vn 0.999517 0.000000 -0.031075
vn 0.999517 0.000000 -0.031075
vn 0.000000 1.000000 0.000000
vn 0.000000 1.000000 0.000000
vn 0.706664 0.707209 -0.021950
vn 0.706663 0.707210 -0.021950
vn 0.999517 0.000000 -0.031075
vn 0.999517 0.000000 -0.031075
vn -0.001912 0.999579 -0.028957
vn -0.001371 0.999794 -0.020253
vn 0.894242 0.445480 -0.043342
vn 0.894340 0.445345 -0.042716
vn 0.999491 -0.005112 -0.031478
vn 0.999532 -0.004756 -0.030214
vn 0.000000 1.000000 -0.000000
vn 0.000000 1.000000 -0.000000
vn 0.706664 0.707209 -0.021950
vn 0.706664 0.707209 -0.021950
vn 0.999517 0.000000 -0.031075
vn 0.999517 0.000000 -0.031075
vn 0.000000 1.000000 0.000000
vn 0.000000 1.000000 0.000000
vn 0.714870 0.698913 -0.021952
vn 0.714853 0.698910 -0.022570
vn 0.999517 0.000000 -0.031076
vn 0.999517 0.000000 -0.031076
vn 0.000095 0.999799 -0.020047
vn 0.000091 0.999816 -0.019165
vn 0.706105 0.707207 -0.035688
vn 0.706097 0.707205 -0.035898
vn 0.999517 0.000000 -0.031075
vn 0.999517 0.000000 -0.031075
vn -1.000000 0.000000 0.000000
vn -1.000000 0.000000 0.000000
vn -0.707106 0.707107 -0.000000
vn -0.707106 0.707107 0.000000
vn 0.000000 1.000000 0.000000
vn 0.000000 1.000000 0.000000
vn 0.667814 0.740503 -0.075373
vn 0.667163 0.740233 -0.083357
vn 0.992920 -0.000064 -0.118783
vn 0.992920 -0.000064 -0.118783
vn 0.000000 1.000000 0.000000
vn 0.000000 1.000000 0.000000
vn 0.738807 0.671452 -0.057588
vn 0.739088 0.670948 -0.059811
vn 0.992920 -0.000064 -0.118784
vn 0.992920 -0.000063 -0.118784
vn 0.000000 1.000000 -0.000000
vn 0.000000 1.000000 -0.000000
vn 0.701285 0.707924 -0.083922
vn 0.701291 0.707919 -0.083923
vn 0.992921 -0.000063 -0.118781
vn 0.992921 -0.000063 -0.118781
vn 0.000000 1.000000 0.000000
vn 0.000000 1.000000 0.000000
vn 0.844644 0.526320 -0.097800
vn 0.844199 0.527172 -0.097042
vn 0.993054 0.010202 -0.117220
vn 0.993016 0.010089 -0.117552
vn 0.000478 0.999439 -0.033498
vn 0.000687 0.998700 -0.050968
vn 0.828342 0.548148 -0.115683
vn 0.828173 0.548784 -0.113868
vn 0.992920 -0.000071 -0.118784
vn 0.992920 -0.000071 -0.118784
vn 0.000000 1.000000 0.000000
vn 0.000000 1.000000 0.000000
vn 0.823243 0.557690 -0.106084
vn 0.823179 0.557772 -0.106144
vn 0.992917 -0.000117 -0.118807
vn 0.992917 -0.000118 -0.118808
vn 0.693369 0.708798 0.129786
vn 0.683667 0.718792 0.126248
vn 0.693311 0.708859 0.129764
vn 0.986179 -0.004244 0.165632
vn 0.982882 0.000053 0.184237
vn 0.983007 -0.000101 0.183570
vn 0.986179 -0.004244 0.165632
vn -1.000000 0.000000 0.000000
vn -1.000000 0.000000 0.000000
vn -0.707107 0.707107 0.000000
vn -0.707107 0.707107 0.000000
vn 0.000000 1.000000 0.000000
vn 0.000000 1.000000 0.000000
vn 0.839768 0.526718 0.131748
vn 0.839768 0.526718 0.131748
vn 0.982445 0.000227 0.186552
vn 0.982445 0.000227 0.186552
vn 0.000000 1.000000 0.000000
vn 0.000000 1.000000 0.000000
vn 0.696896 0.704862 0.132311
vn 0.696896 0.704862 0.132311
vn 0.982443 0.000194 0.186564
vn 0.982443 0.000194 0.186564
vn 0.000000 1.000000 0.000000
vn 0.000000 1.000000 0.000000
vn 0.813383 0.569803 0.117189
vn 0.813383 0.569803 0.117189
vn 0.982445 0.000243 0.186551
vn 0.982445 0.000243 0.186551
vn -0.012113 0.999907 0.006257
vn -0.012113 0.999907 0.006257
vn 0.755100 0.629384 0.183578
vn 0.755100 0.629384 0.183578
vn 0.978222 -0.037431 0.204156
vn 0.978222 -0.037431 0.204156
vn 0.000000 1.000000 0.000000
vn 0.000000 1.000000 0.000000
vn 0.000000 1.000000 -0.000000
vn 0.000000 1.000000 -0.000000
vn 0.773537 0.620307 0.129846
vn 0.773537 0.620307 0.129846
vn 0.982250 0.000705 0.187578
vn 0.982250 0.000705 0.187578
s off
g pCube1
usemtl lambert2SG
f 36/170/1 35/168/2 38/167/3 37/171/4
s 1
f 37/328/5 39/327/6 50/326/7 49/329/8
s 2
f 181/166/9 182/161/10 41/158/11 40/163/12
f 266/160/13 267/152/14 143/146/15 144/154/16
f 42/150/17 44/157/18 223/151/19 224/144/20
s off
f 43/155/21 42/150/22 46/149/23 45/156/24
f 44/313/25 43/316/26 48/317/27 47/312/28
f 47/192/29 48/198/30 55/199/31 54/193/32
f 53/344/33 55/347/34 59/348/35 58/343/36
s 4
f 54/193/37 53/200/38 220/194/39 221/187/40
f 56/176/41 57/181/42 199/182/43 200/173/44
s off
f 58/9/45 59/10/46 69/5/47 68/1/48
s 4
f 178/209/49 179/204/50 137/201/51 136/206/52
s off
f 61/359/53 60/358/54 62/357/55 63/360/56
f 63/43/57 62/42/58 66/39/59 65/41/60
s 7
f 175/32/61 176/33/62 133/30/63 132/29/64
s off
f 65/389/65 64/388/66 74/387/67 75/390/68
f 67/374/69 69/377/70 73/378/71 72/373/72
s 7
f 68/1/73 67/2/74 217/3/75 218/4/76
f 70/12/77 71/11/78 196/14/79 197/15/80
s off
f 72/237/81 73/243/82 81/244/83 80/238/84
f 75/259/85 74/255/86 78/256/87 77/260/88
s 10
f 172/254/89 173/249/90 129/246/91 128/251/92
s off
f 77/419/93 76/418/94 86/417/95 87/420/96
f 79/404/97 81/407/98 85/408/99 84/403/100
s 10
f 80/238/101 79/245/102 214/239/103 215/232/104
f 82/221/105 83/226/106 193/227/107 194/218/108
s off
f 84/84/109 85/86/110 93/85/111 92/82/112
f 87/65/113 86/61/114 90/55/115 89/60/116
s 13
f 169/44/117 170/45/118 125/46/119 124/47/120
s off
f 89/449/121 88/448/122 98/447/123 99/450/124
f 91/434/125 93/437/126 97/438/127 96/433/128
s 13
f 92/82/129 91/83/130 211/80/131 212/79/132
f 94/73/133 95/74/134 190/71/135 191/70/136
s off
f 96/128/137 97/129/138 107/127/139 106/124/140
f 99/123/141 98/119/142 102/113/143 101/118/144
s 16
f 166/100/145 167/101/146 121/94/147 120/93/148
s off
f 101/479/149 100/478/150 104/477/151 103/480/152
s 17
f 164/291/153 165/295/154 113/292/155 112/288/156
s off
f 105/465/157 107/469/158 111/470/159 110/466/160
s 16
f 106/124/161 105/125/162 208/121/163 209/120/164
f 108/109/165 109/110/166 187/104/167 188/103/168
s 17
f 110/283/169 111/278/170 206/271/171 207/279/172
f 249/285/173 250/289/174 160/286/175 161/281/176
f 185/264/177 186/269/178 116/270/179 117/261/180
s 16
f 158/87/181 159/88/182 251/89/183 252/90/184
s 13
f 155/58/185 156/59/186 254/53/187 255/52/188
s 10
f 152/234/189 153/242/190 257/248/191 258/240/192
s 7
f 149/24/193 150/23/194 260/26/195 261/27/196
s 4
f 146/189/197 147/197/198 263/203/199 264/195/200
s 2
f 202/138/201 203/130/202 140/133/203 141/139/204
s off
f 37/481/205 49/482/206 1/483/207 36/484/208
s 28
f 141/300/209 22/301/210 201/302/211 202/303/212
s off
f 2/485/213 48/486/214 43/487/215 45/488/216
s 29
f 203/130/217 204/131/218 21/132/219 140/133/220
s 30
f 57/331/221 23/332/222 198/333/223 199/334/224
s off
f 63/489/225 4/490/226 52/491/227 51/492/228 61/493/229
s 31
f 200/173/230 201/174/231 22/175/232 56/176/233
s off
f 48/494/234 3/495/235 59/496/236 55/497/237
s 32
f 71/361/238 24/362/239 195/363/240 196/364/241
s off
f 75/498/242 6/499/243 63/500/244 65/501/245
s 33
f 197/15/246 198/19/247 23/16/248 70/12/249
s off
f 59/502/250 5/503/251 73/504/252 69/505/253
s 34
f 83/391/254 25/392/255 192/393/256 193/394/257
s off
f 87/506/258 8/507/259 75/508/260 77/509/261
s 35
f 194/218/262 195/219/263 24/220/264 82/221/265
s 36
f 73/510/266 7/511/267 85/512/268 81/513/269
f 85/512/268 7/511/267 11/514/270 12/515/271
s 37
f 95/421/272 26/422/273 189/423/274 190/424/275
s off
f 99/518/276 13/519/277 87/520/278 89/521/279
s 38
f 191/70/280 192/72/281 25/75/282 94/73/283
s 36
f 85/512/268 12/515/271 97/516/284 93/517/285
s 39
f 186/451/286 187/452/287 109/453/288 116/454/289
s off
f 9/522/290 99/523/291 101/524/292 103/525/293
s 40
f 188/103/294 189/111/295 26/117/296 108/109/297
s off
f 97/526/298 10/527/299 111/528/300 107/529/301
s 41
f 117/261/302 27/262/303 184/263/304 185/264/305
f 161/281/306 162/280/307 248/284/308 249/285/309
s 39
f 250/467/310 251/468/311 159/464/312 160/463/313
s 40
f 252/90/314 253/95/315 157/96/316 158/87/317
s 37
f 156/436/318 157/435/319 253/439/320 254/440/321
s 38
f 255/52/322 256/57/323 154/62/324 155/58/325
s 34
f 153/406/326 154/405/327 256/409/328 257/410/329
s 35
f 258/240/330 259/241/331 151/235/332 152/234/333
s 32
f 150/376/334 151/375/335 259/379/336 260/380/337
s 33
f 261/27/338 262/31/339 148/28/340 149/24/341
s 30
f 147/346/342 148/345/343 262/349/344 263/350/345
s 31
f 264/195/346 265/196/347 145/190/348 146/189/349
s 28
f 144/315/350 145/314/351 265/318/352 266/319/353
s 29
f 267/152/354 268/153/355 142/147/356 143/146/357
f 224/144/358 225/143/359 46/149/360 42/150/361
s 28
f 47/312/362 222/309/363 223/308/364 44/313/365
s 31
f 221/187/366 222/186/367 47/192/368 54/193/369
s 30
f 58/343/370 219/340/371 220/339/372 53/344/373
s 33
f 218/4/374 219/8/375 58/9/376 68/1/377
s 32
f 72/373/378 216/370/379 217/369/380 67/374/381
s 35
f 215/232/382 216/231/383 72/237/384 80/238/385
s 34
f 84/403/386 213/400/387 214/399/388 79/404/389
s 38
f 212/79/390 213/81/391 84/84/392 92/82/393
s 37
f 96/433/394 210/430/395 211/429/396 91/434/397
s 40
f 209/120/398 210/126/399 96/128/400 106/124/401
s 39
f 207/462/402 208/461/403 105/465/404 110/466/405
s 41
f 10/277/406 205/272/407 206/271/408 111/278/409
f 112/288/410 28/287/411 163/290/412 164/291/413
s 39
f 165/473/414 166/474/415 120/472/416 113/471/417
s 40
f 167/101/418 168/108/419 29/102/420 121/94/421
s 37
f 124/442/422 29/441/423 168/443/424 169/444/425
s 38
f 170/45/426 171/50/427 30/51/428 125/46/429
s 34
f 128/412/430 30/411/431 171/413/432 172/414/433
s 35
f 173/249/434 174/250/435 31/247/436 129/246/437
s 32
f 132/382/438 31/381/439 174/383/440 175/384/441
s 33
f 176/33/442 177/37/443 32/34/444 133/30/445
s 30
f 136/352/446 32/351/447 177/353/448 178/354/449
s 28
f 40/321/450 33/320/451 180/322/452 181/323/453
s 29
f 182/161/454 183/162/455 34/159/456 41/158/457
s 31
f 179/204/458 180/205/459 33/202/460 137/201/461
s 1
f 37/328/5 38/330/462 39/327/6
s 2
f 42/150/17 43/155/463 44/157/18
s off
f 49/216/464 50/211/465 51/213/466 52/217/467
f 53/200/468 54/193/469 55/199/470
f 64/38/471 65/41/472 66/39/473
f 67/2/474 68/1/475 69/5/476
f 76/258/477 77/260/478 78/256/479
f 79/245/480 80/238/481 81/244/482
f 88/54/483 89/60/484 90/55/485
f 91/83/486 92/82/487 93/85/488
f 100/112/489 101/118/490 102/113/491
f 105/125/492 106/124/493 107/127/494
s 29
f 143/146/357 142/147/356 20/141/495 138/140/496
s 2
f 144/154/16 143/146/15 138/140/497 139/148/498
s 28
f 139/311/499 19/310/500 145/314/351 144/315/350
s 31
f 146/189/349 145/190/348 19/184/501 135/183/502
s 4
f 135/183/503 134/191/504 147/197/198 146/189/197
s 30
f 134/342/505 18/341/506 148/345/343 147/346/342
s 33
f 149/24/341 148/28/340 18/25/507 131/21/508
s 7
f 131/21/509 130/20/510 150/23/194 149/24/193
s 32
f 130/372/511 17/371/512 151/375/335 150/376/334
s 35
f 152/234/333 151/235/332 17/229/513 127/228/514
s 10
f 127/228/515 126/236/516 153/242/190 152/234/189
s 34
f 126/402/517 16/401/518 154/405/327 153/406/326
s 38
f 155/58/325 154/62/324 16/66/519 123/63/520
s 13
f 123/63/521 122/64/522 156/59/186 155/58/185
s 37
f 122/432/523 15/431/524 157/435/319 156/436/318
s 40
f 158/87/317 157/96/316 15/99/525 119/91/526
s 16
f 119/91/527 118/92/528 159/88/182 158/87/181
s 39
f 160/463/313 159/464/312 118/460/529 114/459/530
s 17
f 161/281/176 160/286/175 114/282/531 115/275/532
s 41
f 115/275/533 14/274/534 162/280/307 161/281/306
f 164/291/413 163/290/412 227/293/535 228/294/536
s 17
f 228/294/537 229/298/538 165/295/154 164/291/153
s 39
f 229/475/539 230/476/540 166/474/415 165/473/414
s 16
f 230/106/541 231/107/542 167/101/146 166/100/145
s 40
f 231/107/543 232/114/544 168/108/419 167/101/418
s 37
f 169/444/425 168/443/424 232/445/545 233/446/546
s 13
f 233/48/547 234/49/548 170/45/118 169/44/117
s 38
f 234/49/549 235/56/550 171/50/427 170/45/426
s 34
f 172/414/433 171/413/432 235/415/551 236/416/552
s 10
f 236/257/553 237/252/554 173/249/90 172/254/89
s 35
f 237/252/555 238/253/556 174/250/435 173/249/434
s 32
f 175/384/441 174/383/440 238/385/557 239/386/558
s 7
f 239/35/559 240/36/560 176/33/62 175/32/61
s 33
f 240/36/561 241/40/562 177/37/443 176/33/442
s 30
f 178/354/449 177/353/448 241/355/563 242/356/564
s 4
f 242/212/565 243/207/566 179/204/50 178/209/49
s 31
f 243/207/567 244/208/568 180/205/459 179/204/458
s 28
f 181/323/453 180/322/452 244/324/569 245/325/570
s 2
f 245/169/571 246/164/572 182/161/10 181/166/9
s 29
f 246/164/573 247/165/574 183/162/455 182/161/454
s 41
f 185/264/305 184/263/304 269/267/575 270/268/576
s 17
f 270/268/577 271/276/578 186/269/178 185/264/177
s 39
f 271/455/579 272/456/580 187/452/287 186/451/286
s 16
f 188/103/168 187/104/167 272/98/581 273/97/582
s 40
f 273/97/583 274/105/584 189/111/295 188/103/294
s 37
f 190/424/275 189/423/274 274/427/585 275/428/586
s 13
f 191/70/136 190/71/135 275/68/587 276/67/588
s 38
f 276/67/589 277/69/590 192/72/281 191/70/280
s 34
f 193/394/257 192/393/256 277/397/591 278/398/592
s 10
f 194/218/108 193/227/107 278/230/593 279/222/594
s 35
f 279/222/595 280/223/596 195/219/263 194/218/262
s 32
f 196/364/241 195/363/240 280/367/597 281/368/598
s 7
f 197/15/80 196/14/79 281/17/599 282/18/600
s 33
f 282/18/601 283/22/602 198/19/247 197/15/246
s 30
f 199/334/224 198/333/223 283/337/603 284/338/604
s 4
f 200/173/44 199/182/43 284/185/605 285/177/606
s 31
f 285/177/607 286/178/608 201/174/231 200/173/230
s 28
f 202/303/212 201/302/211 286/306/609 287/307/610
s 2
f 287/142/611 288/134/612 203/130/202 202/138/201
s 29
f 288/134/613 289/135/614 204/131/218 203/130/217
s 41
f 206/271/408 205/272/407 290/266/615 291/265/616
s 17
f 207/279/172 206/271/171 291/265/617 292/273/618
s 39
f 292/458/619 293/457/620 208/461/403 207/462/402
s 16
f 209/120/164 208/121/163 293/116/621 294/115/622
s 40
f 294/115/623 295/122/624 210/126/399 209/120/398
s 37
f 211/429/396 210/430/395 295/426/625 296/425/626
s 13
f 212/79/132 211/80/131 296/77/627 297/76/628
s 38
f 297/76/629 298/78/630 213/81/391 212/79/390
s 34
f 214/399/388 213/400/387 298/396/631 299/395/632
s 10
f 215/232/104 214/239/103 299/233/633 300/225/634
s 35
f 300/225/635 301/224/636 216/231/383 215/232/382
s 32
f 217/369/380 216/370/379 301/366/637 302/365/638
s 7
f 218/4/76 217/3/75 302/6/639 303/7/640
s 33
f 303/7/641 304/13/642 219/8/375 218/4/374
s 30
f 220/339/372 219/340/371 304/336/643 305/335/644
s 4
f 221/187/40 220/194/39 305/188/645 306/180/646
s 31
f 306/180/647 307/179/648 222/186/367 221/187/366
s 28
f 223/308/364 222/309/363 307/305/649 308/304/650
s 2
f 224/144/20 223/151/19 308/145/651 309/137/652
s 29
f 309/137/653 310/136/654 225/143/359 224/144/358
s 4
f 60/215/655 61/214/656 226/210/657
s 31
f 51/213/658 50/211/659 226/210/660 61/214/661
s 41
f 228/294/536 227/293/535 9/296/662 103/297/663
s 17
f 103/297/664 104/299/665 229/298/538 228/294/537
s 39
f 104/477/666 100/478/667 230/476/540 229/475/539
s 16
f 100/112/668 102/113/669 231/107/542 230/106/541
s 40
f 98/119/670 232/114/544 231/107/543 102/113/671
s 37
f 233/446/546 232/445/545 98/447/672 88/448/673
s 13
f 88/54/674 90/55/675 234/49/548 233/48/547
s 38
f 86/61/676 235/56/550 234/49/549 90/55/677
s 34
f 236/416/552 235/415/551 86/417/678 76/418/679
s 10
f 76/258/680 78/256/681 237/252/554 236/257/553
s 35
f 74/255/682 238/253/556 237/252/555 78/256/683
s 32
f 239/386/558 238/385/557 74/387/684 64/388/685
s 7
f 64/38/686 66/39/687 240/36/560 239/35/559
s 33
f 62/42/688 241/40/562 240/36/561 66/39/689
s 30
f 242/356/564 241/355/563 62/357/690 60/358/691
s 4
f 60/215/655 226/210/657 243/207/566 242/212/565
s 31
f 226/210/660 50/211/659 244/208/568 243/207/567
s 28
f 245/325/570 244/324/569 50/326/692 39/327/693
s 2
f 39/172/694 38/167/695 246/164/572 245/169/571
s 29
f 38/167/696 35/168/697 247/165/574 246/164/573
s 41
f 249/285/309 248/284/308 28/287/411 112/288/410
s 17
f 112/288/156 113/292/155 250/289/174 249/285/173
s 39
f 113/471/417 120/472/416 251/468/311 250/467/310
s 16
f 252/90/184 251/89/183 120/93/148 121/94/147
s 40
f 121/94/421 29/102/420 253/95/315 252/90/314
s 37
f 254/440/321 253/439/320 29/441/423 124/442/422
s 13
f 255/52/188 254/53/187 124/47/120 125/46/119
s 38
f 125/46/429 30/51/428 256/57/323 255/52/322
s 34
f 257/410/329 256/409/328 30/411/431 128/412/430
s 10
f 258/240/192 257/248/191 128/251/92 129/246/91
s 35
f 129/246/437 31/247/436 259/241/331 258/240/330
s 32
f 260/380/337 259/379/336 31/381/439 132/382/438
s 7
f 261/27/196 260/26/195 132/29/64 133/30/63
s 33
f 133/30/445 32/34/444 262/31/339 261/27/338
s 30
f 263/350/345 262/349/344 32/351/447 136/352/446
s 4
f 264/195/200 263/203/199 136/206/52 137/201/51
s 31
f 137/201/461 33/202/460 265/196/347 264/195/346
s 28
f 266/319/353 265/318/352 33/320/451 40/321/450
s 2
f 40/163/12 41/158/11 267/152/14 266/160/13
s 29
f 41/158/457 34/159/456 268/153/355 267/152/354
s 41
f 270/268/576 269/267/575 14/274/534 115/275/533
s 17
f 115/275/532 114/282/531 271/276/578 270/268/577
s 39
f 114/459/530 118/460/529 272/456/580 271/455/579
s 16
f 273/97/582 272/98/581 118/92/528 119/91/527
s 40
f 119/91/526 15/99/525 274/105/584 273/97/583
s 37
f 275/428/586 274/427/585 15/431/524 122/432/523
s 13
f 276/67/588 275/68/587 122/64/522 123/63/521
s 38
f 123/63/520 16/66/519 277/69/590 276/67/589
s 34
f 278/398/592 277/397/591 16/401/518 126/402/517
s 10
f 279/222/594 278/230/593 126/236/516 127/228/515
s 35
f 127/228/514 17/229/513 280/223/596 279/222/595
s 32
f 281/368/598 280/367/597 17/371/512 130/372/511
s 7
f 282/18/600 281/17/599 130/20/510 131/21/509
s 33
f 131/21/508 18/25/507 283/22/602 282/18/601
s 30
f 284/338/604 283/337/603 18/341/506 134/342/505
s 4
f 285/177/606 284/185/605 134/191/504 135/183/503
s 31
f 135/183/502 19/184/501 286/178/608 285/177/607
s 28
f 287/307/610 286/306/609 19/310/500 139/311/499
s 2
f 139/148/498 138/140/497 288/134/612 287/142/611
s 29
f 138/140/496 20/141/495 289/135/614 288/134/613
s 41
f 291/265/616 290/266/615 27/262/303 117/261/302
s 17
f 292/273/618 291/265/617 117/261/180 116/270/179
s 39
f 116/454/289 109/453/288 293/457/620 292/458/619
s 16
f 294/115/622 293/116/621 109/110/166 108/109/165
s 40
f 108/109/297 26/117/296 295/122/624 294/115/623
s 37
f 296/425/626 295/426/625 26/422/273 95/421/272
s 13
f 297/76/628 296/77/627 95/74/134 94/73/133
s 38
f 94/73/283 25/75/282 298/78/630 297/76/629
s 34
f 299/395/632 298/396/631 25/392/255 83/391/254
s 10
f 300/225/634 299/233/633 83/226/106 82/221/105
s 35
f 82/221/265 24/220/264 301/224/636 300/225/635
s 32
f 302/365/638 301/366/637 24/362/239 71/361/238
s 7
f 303/7/640 302/6/639 71/11/78 70/12/77
s 33
f 70/12/249 23/16/248 304/13/642 303/7/641
s 30
f 305/335/644 304/336/643 23/332/222 57/331/221
s 4
f 306/180/646 305/188/645 57/181/42 56/176/41
s 31
f 56/176/233 22/175/232 307/179/648 306/180/647
s 28
f 308/304/650 307/305/649 22/301/210 141/300/209
s 2
f 309/137/652 308/145/651 141/139/204 140/133/203
s 29
f 140/133/220 21/132/219 310/136/654 309/137/653
