# This file uses centimeters as units for non-parametric coordinates.

mtllib M_Tent.mtl
g default
v 3.246330 2.267888 0.474239
v 3.304649 2.306225 0.459893
v 3.301128 2.352149 0.876735
v 3.348861 2.384790 0.866536
v 3.171222 2.326005 0.887982
v 3.239159 2.445636 0.829119
v 3.187164 2.257371 0.550672
v 3.211433 2.367702 0.485316
v 3.387699 2.302279 0.704434
v 3.420261 2.337328 0.683093
v 3.314464 2.389447 0.679157
v 3.285847 2.279606 0.750279
v 2.997252 2.428442 1.045365
v 3.047972 2.460893 1.042482
v 3.019896 2.489547 0.953734
v 2.937196 2.364593 0.991891
v 2.651434 2.464115 1.011366
v 2.666246 2.508261 1.028690
v 2.787884 2.505761 0.953616
v 2.734551 2.387203 0.968073
v 2.459637 2.463037 0.900365
v 2.477109 2.506714 0.901297
v 2.588450 2.518913 0.853214
v 2.574756 2.391795 0.873240
v 2.417564 2.427789 0.721388
v 2.432243 2.475307 0.721497
v 2.535382 2.479387 0.712633
v 2.554822 2.366243 0.723183
v 2.561619 2.371985 0.554719
v 2.646118 2.407396 0.529851
v 2.713908 2.420906 0.573476
v 2.670419 2.327168 0.617029
v 3.035219 2.272920 0.539576
v 3.067747 2.374570 0.480645
v 3.075804 2.327327 0.416468
v 2.998131 2.290197 0.435290
v 2.840991 2.303096 0.565609
v 2.887880 2.396087 0.510646
v 2.809262 2.372075 0.463089
v 2.716763 2.338234 0.491593
v 3.365362 2.261419 0.575488
v 3.408242 2.297786 0.556949
v 3.307484 2.353653 0.564773
v 3.280608 2.243616 0.633586
v 2.784894 0.082930 2.659768
v 3.076557 0.075005 2.677886
v 3.075886 3.937063 -0.338649
v 3.367548 3.929139 -0.320531
v 3.085198 3.759202 -0.566366
v 3.376861 3.751276 -0.548248
v 2.794207 -0.094932 2.432050
v 3.085870 -0.102857 2.450169
v 2.905345 0.123658 2.723809
v 2.919275 -0.142375 2.383204
v 3.210266 3.711758 -0.615212
v 3.196336 3.977791 -0.274608
v 3.001559 3.854146 -0.452442
v 3.190534 3.850906 -0.438267
v 3.450781 3.841939 -0.424537
v 3.159790 -0.012194 2.573880
v 2.899543 -0.003227 2.560149
v 2.710568 0.000013 2.545974
v 2.978249 2.203326 0.967650
v 3.074745 2.235954 1.018955
v 3.211906 2.196976 0.982165
v 3.278587 2.127120 0.898843
v 3.219367 2.054487 0.799735
v 3.085904 2.022828 0.746088
v 2.985709 2.060837 0.785220
v 2.918704 2.136899 0.876487
v -1.938047 3.643730 -0.533863
v -2.061443 3.817040 -0.333376
v -2.086000 -0.099984 2.611329
v -2.209397 0.073326 2.811816
v -2.347933 -0.172447 2.512755
v -2.471329 0.000863 2.713241
v -2.199980 3.571266 -0.632437
v -2.323376 3.744577 -0.431951
v -1.925092 3.734627 -0.425059
v -2.316874 3.626241 -0.572500
v -2.464827 -0.117473 2.572692
v -2.073045 -0.009087 2.720133
v -2.177933 -0.181450 2.510036
v -2.255131 -0.068326 2.641055
v -2.367990 0.085485 2.818827
v -2.220036 3.829199 -0.326364
v -2.107178 3.675388 -0.504136
v -2.029980 3.562263 -0.635156
v -2.064495 1.572082 1.223696
v -2.054116 1.644902 1.310861
v -2.163350 1.710925 1.384310
v -2.290403 1.720666 1.389928
v -2.373191 1.652873 1.305340
v -2.367982 1.558072 1.192742
v -2.274336 1.514030 1.144725
v -2.138144 1.506818 1.142547
v -2.473690 2.302000 -0.440211
v -2.523635 2.344935 -0.413032
v -2.617044 2.390423 -0.819337
v -2.658195 2.426823 -0.798614
v -2.496145 2.353842 -0.860937
v -2.538277 2.478583 -0.789829
v -2.435697 2.286725 -0.528396
v -2.434754 2.398659 -0.461290
v -2.663199 2.347729 -0.630350
v -2.686801 2.385301 -0.602503
v -2.579412 2.428679 -0.625104
v -2.577500 2.316881 -0.698860
v -2.357717 2.441851 -1.057459
v -2.403536 2.478304 -1.043115
v -2.352742 2.504590 -0.964282
v -2.291758 2.373347 -1.018735
v -2.012193 2.449394 -1.108198
v -2.027224 2.494595 -1.122317
v -2.127000 2.501956 -1.020197
v -2.088212 2.379467 -1.044721
v -1.799999 2.432784 -1.046502
v -1.813691 2.477732 -1.044064
v -1.908854 2.498910 -0.970899
v -1.910426 2.371101 -0.991142
v -1.718951 2.394244 -0.882212
v -1.729442 2.442795 -0.879720
v -1.826757 2.455215 -0.846431
v -1.857000 2.344018 -0.849793
v -1.822537 2.350292 -0.684772
v -1.895502 2.392431 -0.641037
v -1.970528 2.411388 -0.667362
v -1.946320 2.314435 -0.718246
v -2.284816 2.289915 -0.554416
v -2.294093 2.393866 -0.491393
v -2.290139 2.347431 -0.426251
v -2.222455 2.304132 -0.462445
v -2.100828 2.304259 -0.626911
v -2.125634 2.400742 -0.564122
v -2.040013 2.370441 -0.536376
v -1.960061 2.329219 -0.585592
v -2.613737 2.305195 -0.509769
v -2.647892 2.344915 -0.482189
v -2.547916 2.392437 -0.515068
v -2.547148 2.280585 -0.586160
v -2.479507 2.367373 0.753358
v -2.524884 2.393592 0.705086
v -2.263904 2.195100 0.443611
v -2.299852 2.216692 0.402509
v -2.162362 2.195611 0.529486
v -2.224135 2.309717 0.454951
v -2.390475 2.328370 0.751029
v -2.424347 2.448053 0.711507
v -2.444295 2.234395 0.518338
v -2.474625 2.267443 0.491281
v -2.383869 2.333744 0.527232
v -2.343092 2.212116 0.565785
v -1.911891 2.225262 0.485740
v -1.945832 2.241927 0.438791
v -1.970794 2.320946 0.489962
v -1.911086 2.217461 0.588119
v -1.656927 2.346646 0.691355
v -1.648526 2.368852 0.647711
v -1.787886 2.383396 0.619333
v -1.763632 2.292153 0.709864
v -1.574921 2.449480 0.869705
v -1.578445 2.480018 0.834085
v -1.690584 2.493197 0.788164
v -1.695526 2.383533 0.856697
v -1.656616 2.531629 1.016752
v -1.657640 2.566287 0.981099
v -1.741823 2.552560 0.922298
v -1.775023 2.452323 0.968570
v -1.879402 2.550754 1.057313
v -1.951932 2.575012 1.001069
v -1.975463 2.546638 0.928114
v -1.936128 2.456605 0.982168
v -2.276187 2.379431 0.839252
v -2.314496 2.486803 0.796040
v -2.369168 2.483762 0.854496
v -2.305893 2.460100 0.911084
v -2.103910 2.430152 0.923282
v -2.152835 2.525321 0.874126
v -2.125540 2.549862 0.961715
v -2.044316 2.526503 1.019774
v -2.512663 2.279561 0.628252
v -2.549021 2.309874 0.592697
v -2.454347 2.371432 0.616821
v -2.416337 2.250583 0.655762
v -2.104838 0.102976 -2.649433
v -2.394906 0.108580 -2.685309
v -2.402186 3.951344 0.355757
v -2.692254 3.956949 0.319880
v -2.433502 3.772961 0.581091
v -2.723571 3.778565 0.545214
v -2.136154 -0.075407 -2.424099
v -2.426222 -0.069803 -2.459975
v -2.219167 0.149527 -2.720358
v -2.266008 -0.117286 -2.383318
v -2.563356 3.731083 0.621871
v -2.516515 3.997895 0.284832
v -2.338813 3.864524 0.473207
v -2.526519 3.870059 0.447546
v -2.785580 3.873155 0.417950
v -2.488231 0.024786 -2.587240
v -2.229171 0.021692 -2.557644
v -2.041465 0.016156 -2.531982
v -2.304189 2.221519 -0.955691
v -2.395781 2.258812 -1.012510
v -2.536570 2.226008 -0.984432
v -2.611335 2.158879 -0.905866
v -2.561658 2.083101 -0.803912
v -2.433306 2.045061 -0.742500
v -2.329277 2.078612 -0.775170
v -2.253419 2.151964 -0.861598
v -2.508704 0.790996 -1.664914
v -2.554159 0.826027 -1.649297
v -2.562842 0.880836 -1.994938
v -2.600016 0.910621 -1.983394
v -2.456958 0.851221 -2.010246
v -2.503489 0.952646 -1.954125
v -2.462891 0.781548 -1.731236
v -2.473502 0.872177 -1.671722
v -2.632051 0.837968 -1.849980
v -2.656064 0.868331 -1.829643
v -2.564533 0.904706 -1.828443
v -2.550478 0.814438 -1.892909
v -2.311098 0.931573 -2.144137
v -2.351026 0.961688 -2.138580
v -2.322680 0.980116 -2.064647
v -2.263499 0.872480 -2.104284
v -2.020047 0.937657 -2.127671
v -2.030061 0.976006 -2.139878
v -2.128716 0.978698 -2.072793
v -2.092697 0.877305 -2.091327
v -1.856764 0.919961 -2.042567
v -1.868444 0.957428 -2.041035
v -1.958519 0.972770 -1.996273
v -1.956215 0.867031 -2.018255
v -1.817824 0.880722 -1.896407
v -1.826900 0.921168 -1.894152
v -1.912067 0.930821 -1.882679
v -1.936057 0.838442 -1.894978
v -1.935413 0.836838 -1.754171
v -2.002458 0.870692 -1.728901
v -2.059459 0.888037 -1.762146
v -2.031008 0.809085 -1.803608
v -2.335152 0.784272 -1.727207
v -2.353428 0.868475 -1.673055
v -2.360985 0.827125 -1.621064
v -2.299517 0.792036 -1.641102
v -2.172600 0.797943 -1.755171
v -2.203525 0.876031 -1.704102
v -2.138076 0.849101 -1.668388
v -2.064405 0.816186 -1.696935
v -2.611646 0.797354 -1.744956
v -2.644248 0.829587 -1.726509
v -2.557072 0.869877 -1.734772
v -2.544397 0.779465 -1.797255
v -2.984624 3.891661 -0.061130
v -2.992884 3.597394 0.171410
v 3.637454 3.833897 0.100992
v 3.629195 3.539630 0.333533
v 3.642570 3.603808 -0.189990
v 3.634311 3.309541 0.042550
v -2.979507 3.661572 -0.352113
v -2.987767 3.367306 -0.119573
v -2.989368 3.824809 0.108832
v -2.981715 3.480658 -0.326400
v 3.640363 3.422894 -0.164277
v 3.632709 3.767044 0.270955
v 3.642132 3.803346 -0.100973
v 3.636722 3.615039 0.052879
v 3.629410 3.350112 0.257188
v -2.992668 3.407877 0.095065
v -2.985355 3.672803 -0.109244
v -2.979946 3.861111 -0.263096
v 0.321394 3.497686 0.018518
v 0.317593 3.444129 0.154679
v 0.314777 3.261941 0.204811
v 0.314950 3.110114 0.143650
v 0.318876 3.077612 -0.028302
v 0.323724 3.168421 -0.193996
v 0.325493 3.313356 -0.214595
v 0.325141 3.473211 -0.143282
v 3.090518 2.286308 -0.708385
v 3.138962 2.303927 -0.659197
v 2.832042 2.179029 -0.402138
v 2.870507 2.193910 -0.360343
v 2.736017 2.198221 -0.492118
v 2.819044 2.299000 -0.419030
v 2.995031 2.267988 -0.708419
v 3.053252 2.378853 -0.671642
v 3.019014 2.174453 -0.470618
v 3.055004 2.201137 -0.443472
v 2.982420 2.284193 -0.485403
v 2.917008 2.172992 -0.521432
v 2.497035 2.284094 -0.459838
v 2.532261 2.294862 -0.412119
v 2.575774 2.364203 -0.464883
v 2.497891 2.272316 -0.561835
v 2.282196 2.449754 -0.679882
v 2.277490 2.475098 -0.637409
v 2.415600 2.459814 -0.603789
v 2.374730 2.372379 -0.692074
v 2.230917 2.560434 -0.864892
v 2.239943 2.590934 -0.830221
v 2.350643 2.581054 -0.780166
v 2.333424 2.470178 -0.844645
v 2.333571 2.616264 -1.011147
v 2.341073 2.651331 -0.976688
v 2.418143 2.621929 -0.914011
v 2.429819 2.514969 -0.955411
v 2.556270 2.584154 -1.043063
v 2.630480 2.594227 -0.984721
v 2.644730 2.564498 -0.909925
v 2.588229 2.483113 -0.962454
v 2.897857 2.339148 -0.803001
v 2.957554 2.437196 -0.761934
v 3.012088 2.419716 -0.817933
v 2.947040 2.408174 -0.876255
v 2.743955 2.422916 -0.895789
v 2.811099 2.506987 -0.847930
v 2.792814 2.533187 -0.937363
v 2.710389 2.525827 -0.997908
v 3.099267 2.198752 -0.579082
v 3.140245 2.221805 -0.543107
v 3.062403 2.301605 -0.573227
v 2.999872 2.190538 -0.609556
v -2.189924 0.047335 2.829157
v 2.678266 0.047335 2.863171
v -2.171229 3.834767 0.153467
v 2.696961 3.834767 0.187481
v -2.170581 3.779244 0.060704
v 2.697609 3.779244 0.094718
v -2.189276 -0.008187 2.736395
v 2.678914 -0.008187 2.770409
v -2.169709 3.929722 -0.064149
v 2.698482 3.929722 -0.030135
v 2.698462 3.821649 -0.027251
v -2.169729 3.821649 -0.061265
v -2.168452 3.834206 -0.244021
v 2.699739 3.834206 -0.210007
v 2.699242 3.752776 -0.138895
v -2.168949 3.752776 -0.172908
v -2.150528 0.039228 -2.809417
v 2.717663 0.039228 -2.775403
v 2.717166 -0.042201 -2.704291
v -2.151025 -0.042201 -2.738305
v 0.102881 0.047335 2.845177
v 0.103530 -0.008187 2.752415
v 0.122225 3.534922 0.076724
v 0.123077 3.577327 -0.045245
v 0.123857 3.508454 -0.156889
v 0.141781 -0.042201 -2.722286
v 0.142278 0.039228 -2.793397
v 0.124354 3.589884 -0.228001
v 0.123097 3.685400 -0.048129
v 0.121576 3.590444 0.169486
v 1.355533 0.047335 2.853929
v 1.374228 3.642482 0.178239
v 1.375749 3.737437 -0.039377
v 1.377005 3.641921 -0.219249
v 1.394930 0.039228 -2.784645
v 1.394433 -0.042201 -2.713533
v 1.376508 3.560491 -0.148137
v 1.375728 3.629365 -0.036492
v 1.374876 3.586959 0.085476
v 1.356181 -0.008187 2.761167
v -1.053837 0.047335 2.837095
v -1.053189 -0.008187 2.744333
v -1.034494 3.586959 0.068642
v -1.033641 3.629365 -0.053327
v -1.032861 3.560491 -0.164971
v -1.014937 -0.042201 -2.730367
v -1.014440 0.039228 -2.801479
v -1.032364 3.641921 -0.236083
v -1.033621 3.737437 -0.056211
v -1.035142 3.642482 0.161405
v -2.176187 2.341749 0.863062
v -1.040100 2.243113 0.871000
v 0.116618 2.216419 0.879082
v 1.369270 2.243113 0.887834
v 2.692003 2.341749 0.897076
v 2.692651 2.286227 0.804314
v 1.369918 2.187591 0.795072
v 0.117267 2.160897 0.786320
v -1.039451 2.187591 0.778238
v -2.175539 2.286227 0.770300
v -2.162249 2.178730 -1.131867
v -1.026161 2.070326 -1.123929
v 0.130557 2.040988 -1.115847
v 1.383209 2.070326 -1.107095
v 2.705942 2.178730 -1.097853
v 2.705445 2.097301 -1.026739
v 1.382712 1.988896 -1.035981
v 0.130060 1.959559 -1.044733
v -1.026658 1.988896 -1.052815
v -2.162746 2.097301 -1.060753
v -2.183093 0.983974 1.851459
v -1.047006 0.937630 1.859397
v 0.109713 0.925089 1.867479
v 1.362364 0.937630 1.876231
v 2.685097 0.983974 1.885473
v 2.685745 0.928451 1.792711
v 1.363012 0.882108 1.783469
v 0.110361 0.869567 1.774717
v -1.046357 0.882108 1.766635
v -2.182445 0.928451 1.758697
v 0.134975 1.179951 -1.748198
v -1.021743 1.196669 -1.756280
v -2.157830 1.258445 -1.764217
v -2.158327 1.177015 -1.693106
v -1.022240 1.115240 -1.685168
v 0.134478 1.098522 -1.677086
v 1.387130 1.115240 -1.668334
v 2.709863 1.177015 -1.659092
v 2.710360 1.258445 -1.730204
v 1.387627 1.196669 -1.739446
v 2.740589 3.581514 0.690772
v 2.866097 3.754128 0.490997
v 2.406932 -0.005677 -2.618345
v 2.532440 0.166937 -2.818120
v 2.667282 -0.103114 -2.538971
v 2.792791 0.069500 -2.738746
v 3.000939 3.484076 0.770146
v 3.126447 3.656691 0.570372
v 2.728915 3.678306 0.587024
v 3.118329 3.532565 0.705747
v 2.784672 -0.054626 -2.603370
v 2.395258 0.091115 -2.722093
v 2.497537 -0.098898 -2.526426
v 2.576122 0.014042 -2.656780
v 2.690847 0.166965 -2.834122
v 3.024504 3.754156 0.474995
v 2.909778 3.601232 0.652337
v 2.831194 3.488293 0.782690
v 2.599344 1.593819 -1.160131
v 2.589992 1.671360 -1.243247
v 2.699893 1.732104 -1.320176
v 2.826796 1.732126 -1.332995
v 2.908465 1.654044 -1.256587
v 2.901962 1.554604 -1.148134
v 2.807918 1.515759 -1.096542
v 2.671931 1.519137 -1.086493
v 2.924590 0.947017 -2.001497
v 2.965849 0.970650 -1.973603
v 2.878989 0.749449 -1.752676
v 2.912314 0.768519 -1.728393
v 2.783830 0.738589 -1.790274
v 2.830788 0.828335 -1.734198
v 2.867617 0.900954 -1.984433
v 2.884590 0.992818 -1.946102
v 2.981655 0.819658 -1.843653
v 3.005559 0.847494 -1.826436
v 2.921659 0.883050 -1.820775
v 2.900318 0.788345 -1.857053
v 2.612905 0.709350 -1.694586
v 2.647085 0.723832 -1.666350
v 2.639585 0.792107 -1.697342
v 2.586248 0.712840 -1.769342
v 2.358931 0.770587 -1.763789
v 2.361291 0.781507 -1.727009
v 2.465841 0.816024 -1.737608
v 2.437951 0.751861 -1.810731
v 2.237991 0.848142 -1.857362
v 2.245473 0.868258 -1.827958
v 2.335525 0.895001 -1.819629
v 2.336972 0.820602 -1.886621
v 2.244888 0.938306 -1.970505
v 2.249994 0.961016 -1.939865
v 2.327549 0.961258 -1.919618
v 2.353631 0.897157 -1.975893
v 2.389776 0.998345 -2.049990
v 2.452763 1.024908 -2.023118
v 2.493092 1.001488 -1.980404
v 2.463997 0.932012 -2.023464
v 2.755316 0.925545 -2.013113
v 2.778241 1.008739 -1.975024
v 2.802035 1.022191 -2.030642
v 2.745452 0.997850 -2.059879
v 2.602925 0.938550 -2.024995
v 2.636782 1.014112 -1.986982
v 2.590447 1.035319 -2.039919
v 2.520660 1.007952 -2.065891
v 2.994399 0.876341 -1.932399
v 3.025256 0.902494 -1.910905
v 2.942413 0.932687 -1.896496
v 2.922822 0.839119 -1.933596
v -2.488259 1.033323 1.967551
v -2.525826 1.060220 1.937480
v -2.444760 0.832711 1.720798
v -2.475004 0.854417 1.694760
v -2.353074 0.814178 1.763660
v -2.389368 0.907433 1.705435
v -2.434324 0.982796 1.953521
v -2.441612 1.075733 1.914714
v -2.546401 0.911005 1.806153
v -2.566962 0.940686 1.787742
v -2.480275 0.969329 1.786991
v -2.468754 0.873206 1.823981
v -2.179927 0.771190 1.677646
v -2.211169 0.788393 1.647591
v -2.199941 0.855836 1.679271
v -2.157355 0.772509 1.753803
v -1.926164 0.811653 1.761363
v -1.925545 0.822728 1.724558
v -2.027393 0.865601 1.729394
v -2.008972 0.799389 1.803681
v -1.804845 0.879157 1.861971
v -1.808998 0.899813 1.832285
v -1.895975 0.933762 1.819006
v -1.907228 0.859724 1.885467
v -1.810828 0.969583 1.974958
v -1.812336 0.992632 1.944182
v -1.888345 0.999155 1.919589
v -1.922672 0.937377 1.974006
v -1.954657 1.041161 2.046407
v -2.013664 1.072738 2.016143
v -2.053270 1.052662 1.971112
v -2.032376 0.981058 2.015427
v -2.322207 0.998209 1.988610
v -2.336134 1.082988 1.949670
v -2.361875 1.098322 2.003915
v -2.309195 1.069479 2.036189
v -2.170183 0.998828 2.009139
v -2.195610 1.076884 1.969623
v -2.150786 1.094268 2.025188
v -2.085025 1.061338 2.054934
v -2.559528 0.968534 1.894296
v -2.586900 0.997100 1.871214
v -2.501204 1.020483 1.861646
v -2.491379 0.925636 1.899363
v 3.194815 0.762602 1.706698
v 3.240248 0.791487 1.694849
v 3.232676 0.843072 2.015107
v 3.269848 0.867749 2.006552
v 3.131946 0.823717 2.023216
v 3.185664 0.913671 1.973956
v 3.148083 0.757613 1.765436
v 3.168063 0.840270 1.710984
v 3.301533 0.797610 1.884959
v 3.327114 0.823767 1.867518
v 3.245514 0.864226 1.861175
v 3.222103 0.782184 1.920011
v 2.995854 0.909501 2.138743
v 3.035249 0.934304 2.135885
v 3.014708 0.953111 2.065867
v 2.949798 0.858290 2.099153
v 2.728876 0.936855 2.106872
v 2.740293 0.971590 2.118737
v 2.835286 0.966373 2.062315
v 2.793405 0.875487 2.077402
v 2.581835 0.932349 2.018805
v 2.595505 0.966080 2.018056
v 2.682264 0.973296 1.981795
v 2.670948 0.875885 2.001999
v 2.551311 0.898339 1.881363
v 2.562845 0.935015 1.879796
v 2.642755 0.937497 1.874051
v 2.657238 0.850413 1.886800
v 2.664548 0.848327 1.756499
v 2.730350 0.874461 1.736953
v 2.782318 0.886369 1.770968
v 2.747795 0.815753 1.807700
v 3.030731 0.769684 1.754406
v 3.056990 0.845854 1.705353
v 3.063817 0.806846 1.657687
v 3.003362 0.779128 1.672711
v 2.880277 0.794625 1.770983
v 2.917565 0.864211 1.725506
v 2.857229 0.844071 1.688725
v 2.785200 0.819316 1.710922
v 3.285653 0.761132 1.786632
v 3.319185 0.788381 1.771430
v 3.241357 0.832175 1.774091
v 3.219320 0.749887 1.831171
vt 0.883378 0.155268
vt 0.884459 0.153171
vt 0.895801 0.160070
vt 0.893990 0.162924
vt 0.915075 0.243145
vt 0.907690 0.246931
vt 0.904788 0.237056
vt 0.912462 0.235046
vt 0.925299 0.153171
vt 0.924567 0.159577
vt 0.914693 0.166283
vt 0.913957 0.160070
vt 0.883181 0.161852
vt 0.891279 0.170689
vt 0.873901 0.154694
vt 0.875363 0.152027
vt 0.934395 0.152027
vt 0.932751 0.158308
vt 0.901841 0.228872
vt 0.909443 0.226752
vt 0.874887 0.160448
vt 0.904578 0.180579
vt 0.902328 0.183511
vt 0.909069 0.181139
vt 0.905179 0.180579
vt 0.918478 0.170689
vt 0.914490 0.186120
vt 0.895268 0.186120
vt 0.900228 0.203200
vt 0.896844 0.203686
vt 0.911886 0.194955
vt 0.909530 0.203200
vt 0.917833 0.197895
vt 0.891925 0.197895
vt 0.896838 0.242827
vt 0.895598 0.246211
vt 0.889405 0.236178
vt 0.891257 0.233677
vt 0.919863 0.205465
vt 0.919563 0.212679
vt 0.921332 0.250667
vt 0.915667 0.244720
vt 0.920661 0.237241
vt 0.927192 0.242691
vt 0.887694 0.213548
vt 0.884446 0.206098
vt 0.883418 0.224024
vt 0.885497 0.221421
vt 0.930392 0.206559
vt 0.931717 0.212783
vt 0.925577 0.227404
vt 0.931302 0.232161
vt 0.875437 0.213483
vt 0.874609 0.205149
vt 0.934320 0.213483
vt 0.942307 0.197249
vt 0.944022 0.202474
vt 0.938177 0.193870
vt 0.927266 0.221421
vt 0.933012 0.224377
vt 0.955588 0.205149
vt 0.951823 0.213483
vt 0.948679 0.202474
vt 0.953899 0.196710
vt 0.933605 0.223358
vt 0.941099 0.221421
vt 0.942515 0.229904
vt 0.935726 0.232274
vt 0.937919 0.162973
vt 0.940927 0.156881
vt 0.945833 0.169938
vt 0.940074 0.171456
vt 0.952659 0.156881
vt 0.954613 0.160399
vt 0.950463 0.174669
vt 0.948510 0.169938
vt 0.957753 0.164911
vt 0.955632 0.173827
vt 0.943455 0.241056
vt 0.937312 0.244255
vt 0.945195 0.186540
vt 0.940156 0.182609
vt 0.948706 0.192294
vt 0.946613 0.186540
vt 0.954046 0.185808
vt 0.943205 0.252317
vt 0.937459 0.255157
vt 0.946607 0.197249
vt 0.957559 0.152027
vt 0.959688 0.154694
vt 0.897431 0.223705
vt 0.904925 0.221421
vt 0.962271 0.160448
vt 0.898827 0.732532
vt 0.901203 0.575939
vt 0.911888 0.576063
vt 0.911977 0.732590
vt 0.805825 0.674788
vt 0.819321 0.689992
vt 0.833205 0.672230
vt 0.819468 0.667947
vt 0.930981 0.576291
vt 0.941566 0.576421
vt 0.948688 0.731706
vt 0.935544 0.732186
vt 0.831690 0.609198
vt 0.825051 0.627025
vt 0.811390 0.617616
vt 0.820601 0.610125
vt 0.923367 0.732503
vt 0.921130 0.576172
vt 0.873846 0.575632
vt 0.883689 0.575740
vt 0.877261 0.731907
vt 0.865099 0.731255
vt 0.810877 0.626808
vt 0.815390 0.638394
vt 0.854932 0.730615
vt 0.865652 0.575543
vt 0.808895 0.702563
vt 0.803685 0.687641
vt 0.892928 0.575844
vt 0.888645 0.732291
vt 0.821841 0.706044
vt 0.832983 0.702315
vt 0.837625 0.686351
vt 0.840918 0.636648
vt 0.845467 0.618580
vt 0.828329 0.641251
vt 0.892737 0.379385
vt 0.902972 0.379411
vt 0.916184 0.379650
vt 0.927626 0.379970
vt 0.939856 0.380494
vt 0.953059 0.381173
vt 0.858670 0.380061
vt 0.868907 0.379746
vt 0.881150 0.379461
vt 0.898827 0.732532
vt 0.901203 0.575939
vt 0.911889 0.576063
vt 0.911977 0.732590
vt 0.805825 0.674788
vt 0.819321 0.689992
vt 0.833205 0.672230
vt 0.819468 0.667947
vt 0.930981 0.576291
vt 0.941566 0.576421
vt 0.948688 0.731706
vt 0.935544 0.732186
vt 0.831690 0.609198
vt 0.825051 0.627025
vt 0.811390 0.617616
vt 0.820601 0.610125
vt 0.923367 0.732503
vt 0.921130 0.576173
vt 0.873846 0.575632
vt 0.883689 0.575740
vt 0.877262 0.731907
vt 0.865099 0.731255
vt 0.810877 0.626808
vt 0.815390 0.638394
vt 0.854932 0.730615
vt 0.865652 0.575543
vt 0.808895 0.702563
vt 0.803685 0.687641
vt 0.892928 0.575844
vt 0.888645 0.732291
vt 0.821841 0.706044
vt 0.832983 0.702315
vt 0.837625 0.686351
vt 0.840919 0.636648
vt 0.845467 0.618580
vt 0.828329 0.641251
vt 0.892737 0.379385
vt 0.902972 0.379411
vt 0.916184 0.379650
vt 0.927626 0.379970
vt 0.939856 0.380494
vt 0.953059 0.381173
vt 0.858670 0.380061
vt 0.868907 0.379746
vt 0.881150 0.379461
vt 0.883378 0.155268
vt 0.884459 0.153171
vt 0.895801 0.160070
vt 0.893990 0.162924
vt 0.915075 0.243145
vt 0.907690 0.246931
vt 0.904789 0.237056
vt 0.912462 0.235046
vt 0.925299 0.153171
vt 0.924567 0.159577
vt 0.914693 0.166283
vt 0.913957 0.160070
vt 0.883181 0.161852
vt 0.891279 0.170689
vt 0.873901 0.154694
vt 0.875363 0.152027
vt 0.934395 0.152027
vt 0.932751 0.158308
vt 0.901841 0.228872
vt 0.909443 0.226752
vt 0.874887 0.160448
vt 0.904579 0.180579
vt 0.902328 0.183511
vt 0.909070 0.181138
vt 0.905179 0.180579
vt 0.918479 0.170689
vt 0.914490 0.186120
vt 0.895268 0.186120
vt 0.900228 0.203200
vt 0.896844 0.203686
vt 0.911886 0.194955
vt 0.909530 0.203200
vt 0.917833 0.197895
vt 0.891925 0.197895
vt 0.896838 0.242827
vt 0.895598 0.246211
vt 0.889405 0.236178
vt 0.891258 0.233677
vt 0.919863 0.205465
vt 0.919563 0.212679
vt 0.921332 0.250667
vt 0.915667 0.244720
vt 0.920662 0.237241
vt 0.927192 0.242691
vt 0.887694 0.213548
vt 0.884446 0.206098
vt 0.883418 0.224024
vt 0.885497 0.221421
vt 0.930392 0.206559
vt 0.931717 0.212783
vt 0.925577 0.227404
vt 0.931302 0.232161
vt 0.875437 0.213483
vt 0.874609 0.205149
vt 0.934320 0.213483
vt 0.942307 0.197249
vt 0.944022 0.202474
vt 0.938177 0.193870
vt 0.927266 0.221421
vt 0.933012 0.224377
vt 0.955588 0.205149
vt 0.951823 0.213483
vt 0.948679 0.202474
vt 0.953899 0.196710
vt 0.933605 0.223358
vt 0.941099 0.221421
vt 0.942515 0.229904
vt 0.935726 0.232274
vt 0.937918 0.162973
vt 0.940928 0.156881
vt 0.945833 0.169938
vt 0.940074 0.171456
vt 0.952659 0.156881
vt 0.954613 0.160399
vt 0.950463 0.174669
vt 0.948510 0.169938
vt 0.957753 0.164911
vt 0.955632 0.173827
vt 0.943455 0.241056
vt 0.937312 0.244255
vt 0.945195 0.186540
vt 0.940156 0.182609
vt 0.948706 0.192294
vt 0.946613 0.186540
vt 0.954046 0.185808
vt 0.943205 0.252317
vt 0.937459 0.255157
vt 0.946607 0.197249
vt 0.957559 0.152027
vt 0.959688 0.154694
vt 0.897431 0.223705
vt 0.904925 0.221421
vt 0.962271 0.160448
vt 0.883378 0.155268
vt 0.884459 0.153171
vt 0.895801 0.160070
vt 0.893990 0.162924
vt 0.915075 0.243145
vt 0.907690 0.246931
vt 0.904789 0.237056
vt 0.912462 0.235046
vt 0.925299 0.153171
vt 0.924567 0.159577
vt 0.914693 0.166283
vt 0.913957 0.160070
vt 0.883181 0.161852
vt 0.891279 0.170689
vt 0.873901 0.154694
vt 0.875363 0.152027
vt 0.934395 0.152027
vt 0.932751 0.158308
vt 0.901841 0.228872
vt 0.909443 0.226752
vt 0.874887 0.160448
vt 0.904579 0.180579
vt 0.902328 0.183511
vt 0.909070 0.181138
vt 0.905179 0.180579
vt 0.918479 0.170689
vt 0.914490 0.186120
vt 0.895268 0.186120
vt 0.900228 0.203200
vt 0.896844 0.203686
vt 0.911886 0.194955
vt 0.909530 0.203200
vt 0.917833 0.197895
vt 0.891925 0.197895
vt 0.896838 0.242827
vt 0.895598 0.246211
vt 0.889405 0.236178
vt 0.891258 0.233677
vt 0.919863 0.205465
vt 0.919563 0.212679
vt 0.921332 0.250667
vt 0.915667 0.244720
vt 0.920662 0.237241
vt 0.927192 0.242691
vt 0.887694 0.213548
vt 0.884446 0.206098
vt 0.883418 0.224024
vt 0.885497 0.221421
vt 0.930392 0.206559
vt 0.931717 0.212783
vt 0.925577 0.227404
vt 0.931302 0.232161
vt 0.875437 0.213483
vt 0.874609 0.205149
vt 0.934320 0.213483
vt 0.942307 0.197249
vt 0.944022 0.202474
vt 0.938177 0.193870
vt 0.927266 0.221421
vt 0.933012 0.224377
vt 0.955588 0.205149
vt 0.951823 0.213483
vt 0.948679 0.202474
vt 0.953899 0.196710
vt 0.933605 0.223358
vt 0.941099 0.221421
vt 0.942515 0.229904
vt 0.935726 0.232274
vt 0.937918 0.162973
vt 0.940928 0.156881
vt 0.945833 0.169938
vt 0.940074 0.171456
vt 0.952659 0.156881
vt 0.954613 0.160399
vt 0.950463 0.174669
vt 0.948510 0.169938
vt 0.957753 0.164911
vt 0.955632 0.173827
vt 0.943455 0.241056
vt 0.937312 0.244255
vt 0.945195 0.186540
vt 0.940156 0.182609
vt 0.948706 0.192294
vt 0.946613 0.186540
vt 0.954046 0.185808
vt 0.943205 0.252317
vt 0.937459 0.255157
vt 0.946607 0.197249
vt 0.957559 0.152027
vt 0.959688 0.154694
vt 0.897431 0.223705
vt 0.904925 0.221421
vt 0.962271 0.160448
vt 0.898827 0.732532
vt 0.901203 0.575939
vt 0.911889 0.576063
vt 0.911977 0.732590
vt 0.805825 0.674788
vt 0.819321 0.689992
vt 0.833205 0.672230
vt 0.819468 0.667947
vt 0.930981 0.576291
vt 0.941566 0.576421
vt 0.948688 0.731706
vt 0.935544 0.732186
vt 0.831690 0.609198
vt 0.825051 0.627025
vt 0.811390 0.617616
vt 0.820601 0.610125
vt 0.923367 0.732503
vt 0.921130 0.576173
vt 0.873846 0.575632
vt 0.883689 0.575740
vt 0.877262 0.731907
vt 0.865099 0.731255
vt 0.810877 0.626808
vt 0.815390 0.638394
vt 0.854932 0.730615
vt 0.865652 0.575543
vt 0.808895 0.702563
vt 0.803685 0.687641
vt 0.892928 0.575844
vt 0.888645 0.732291
vt 0.821841 0.706044
vt 0.832983 0.702315
vt 0.837625 0.686351
vt 0.840919 0.636648
vt 0.845467 0.618580
vt 0.828329 0.641251
vt 0.892737 0.379385
vt 0.902972 0.379411
vt 0.916184 0.379650
vt 0.927626 0.379970
vt 0.939856 0.380494
vt 0.953059 0.381173
vt 0.858670 0.380061
vt 0.868907 0.379746
vt 0.881150 0.379461
vt 0.883378 0.155268
vt 0.884459 0.153171
vt 0.895801 0.160070
vt 0.893990 0.162924
vt 0.915075 0.243145
vt 0.907690 0.246931
vt 0.904789 0.237056
vt 0.912462 0.235046
vt 0.925299 0.153171
vt 0.924567 0.159577
vt 0.914693 0.166283
vt 0.913957 0.160070
vt 0.883181 0.161852
vt 0.891279 0.170689
vt 0.873901 0.154694
vt 0.875363 0.152027
vt 0.934395 0.152027
vt 0.932751 0.158308
vt 0.901841 0.228872
vt 0.909443 0.226752
vt 0.874887 0.160448
vt 0.904579 0.180579
vt 0.902328 0.183511
vt 0.909070 0.181138
vt 0.905179 0.180579
vt 0.918479 0.170689
vt 0.914490 0.186120
vt 0.895268 0.186120
vt 0.900228 0.203200
vt 0.896844 0.203686
vt 0.911886 0.194955
vt 0.909530 0.203200
vt 0.917833 0.197895
vt 0.891925 0.197895
vt 0.896838 0.242827
vt 0.895598 0.246211
vt 0.889405 0.236178
vt 0.891258 0.233677
vt 0.919863 0.205465
vt 0.919563 0.212679
vt 0.921332 0.250667
vt 0.915667 0.244720
vt 0.920662 0.237241
vt 0.927192 0.242691
vt 0.887694 0.213548
vt 0.884446 0.206098
vt 0.883418 0.224024
vt 0.885497 0.221421
vt 0.930392 0.206559
vt 0.931717 0.212783
vt 0.925577 0.227404
vt 0.931302 0.232161
vt 0.875437 0.213483
vt 0.874609 0.205149
vt 0.934320 0.213483
vt 0.942307 0.197249
vt 0.944022 0.202474
vt 0.938177 0.193870
vt 0.927266 0.221421
vt 0.933012 0.224377
vt 0.955588 0.205149
vt 0.951823 0.213483
vt 0.948679 0.202474
vt 0.953899 0.196710
vt 0.933605 0.223358
vt 0.941099 0.221421
vt 0.942515 0.229904
vt 0.935726 0.232274
vt 0.937918 0.162973
vt 0.940928 0.156881
vt 0.945833 0.169938
vt 0.940074 0.171456
vt 0.952659 0.156881
vt 0.954613 0.160399
vt 0.950463 0.174669
vt 0.948510 0.169938
vt 0.957753 0.164911
vt 0.955632 0.173827
vt 0.943455 0.241056
vt 0.937312 0.244255
vt 0.945195 0.186540
vt 0.940156 0.182609
vt 0.948706 0.192294
vt 0.946613 0.186540
vt 0.954046 0.185808
vt 0.943205 0.252317
vt 0.937459 0.255157
vt 0.946607 0.197249
vt 0.957559 0.152027
vt 0.959688 0.154694
vt 0.897431 0.223705
vt 0.904925 0.221421
vt 0.962271 0.160448
vt 0.898827 0.732532
vt 0.901203 0.575939
vt 0.911888 0.576063
vt 0.911977 0.732590
vt 0.805825 0.674788
vt 0.819321 0.689992
vt 0.833205 0.672230
vt 0.819468 0.667947
vt 0.930981 0.576291
vt 0.941566 0.576421
vt 0.948688 0.731706
vt 0.935544 0.732186
vt 0.831690 0.609198
vt 0.825051 0.627025
vt 0.811390 0.617616
vt 0.820601 0.610125
vt 0.923367 0.732503
vt 0.921130 0.576172
vt 0.873846 0.575632
vt 0.883689 0.575740
vt 0.877261 0.731907
vt 0.865099 0.731255
vt 0.810877 0.626808
vt 0.815390 0.638394
vt 0.854932 0.730615
vt 0.865652 0.575543
vt 0.808895 0.702563
vt 0.803685 0.687641
vt 0.892928 0.575844
vt 0.888645 0.732291
vt 0.821841 0.706044
vt 0.832983 0.702315
vt 0.837625 0.686351
vt 0.840918 0.636648
vt 0.845467 0.618580
vt 0.828329 0.641251
vt 0.892737 0.379385
vt 0.902972 0.379411
vt 0.916184 0.379650
vt 0.927626 0.379970
vt 0.939856 0.380494
vt 0.953059 0.381173
vt 0.858670 0.380061
vt 0.868907 0.379746
vt 0.881150 0.379461
vt 0.883378 0.155268
vt 0.884459 0.153171
vt 0.895801 0.160070
vt 0.893990 0.162924
vt 0.915075 0.243145
vt 0.907690 0.246931
vt 0.904789 0.237056
vt 0.912462 0.235046
vt 0.925299 0.153171
vt 0.924567 0.159577
vt 0.914693 0.166283
vt 0.913957 0.160070
vt 0.883181 0.161852
vt 0.891279 0.170689
vt 0.873901 0.154694
vt 0.875363 0.152027
vt 0.934395 0.152027
vt 0.932751 0.158308
vt 0.901841 0.228872
vt 0.909443 0.226752
vt 0.874887 0.160448
vt 0.904579 0.180579
vt 0.902328 0.183511
vt 0.909070 0.181138
vt 0.905179 0.180579
vt 0.918479 0.170689
vt 0.914490 0.186120
vt 0.895268 0.186120
vt 0.900228 0.203200
vt 0.896844 0.203686
vt 0.911886 0.194955
vt 0.909530 0.203200
vt 0.917833 0.197895
vt 0.891925 0.197895
vt 0.896838 0.242827
vt 0.895598 0.246211
vt 0.889405 0.236178
vt 0.891258 0.233677
vt 0.919863 0.205465
vt 0.919563 0.212679
vt 0.921332 0.250667
vt 0.915667 0.244720
vt 0.920662 0.237241
vt 0.927192 0.242691
vt 0.887694 0.213548
vt 0.884446 0.206098
vt 0.883418 0.224024
vt 0.885497 0.221421
vt 0.930392 0.206559
vt 0.931717 0.212783
vt 0.925577 0.227404
vt 0.931302 0.232161
vt 0.875437 0.213483
vt 0.874609 0.205149
vt 0.934320 0.213483
vt 0.942307 0.197249
vt 0.944022 0.202474
vt 0.938177 0.193870
vt 0.927266 0.221421
vt 0.933012 0.224377
vt 0.955588 0.205149
vt 0.951823 0.213483
vt 0.948679 0.202474
vt 0.953899 0.196710
vt 0.933605 0.223358
vt 0.941099 0.221421
vt 0.942515 0.229904
vt 0.935726 0.232274
vt 0.937918 0.162973
vt 0.940928 0.156881
vt 0.945833 0.169938
vt 0.940074 0.171456
vt 0.952659 0.156881
vt 0.954613 0.160399
vt 0.950463 0.174669
vt 0.948510 0.169938
vt 0.957753 0.164911
vt 0.955632 0.173827
vt 0.943455 0.241056
vt 0.937312 0.244255
vt 0.945195 0.186540
vt 0.940156 0.182609
vt 0.948706 0.192294
vt 0.946613 0.186540
vt 0.954046 0.185808
vt 0.943205 0.252317
vt 0.937459 0.255157
vt 0.946607 0.197249
vt 0.957559 0.152027
vt 0.959688 0.154694
vt 0.897431 0.223705
vt 0.904925 0.221421
vt 0.962271 0.160448
vt 0.427517 0.587405
vt 0.359337 0.587405
vt 0.360662 0.525246
vt 0.430099 0.525246
vt 0.120898 0.819412
vt 0.122222 0.881571
vt 0.054042 0.881571
vt 0.051460 0.819412
vt 0.703184 0.897319
vt 0.700827 0.893380
vt 0.764220 0.863250
vt 0.766578 0.867189
vt 0.873637 0.828803
vt 0.875995 0.824864
vt 0.939388 0.854994
vt 0.937031 0.858933
vt 0.028997 0.881571
vt 0.018199 0.881571
vt 0.018199 0.819412
vt 0.028997 0.819412
vt 0.766021 0.858071
vt 0.770610 0.857949
vt 0.222942 0.522235
vt 0.228994 0.522235
vt 0.228994 0.584394
vt 0.222942 0.584394
vt 0.943420 0.864234
vt 0.938831 0.864112
vt 0.037923 0.881571
vt 0.037923 0.819412
vt 0.763097 0.853331
vt 0.766554 0.850311
vt 0.217402 0.522235
vt 0.217402 0.584394
vt 0.939365 0.871872
vt 0.935907 0.868853
vt 0.382381 0.813550
vt 0.383210 0.875709
vt 0.340485 0.875709
vt 0.339029 0.813550
vt 0.696262 0.812612
vt 0.692805 0.815632
vt 0.653729 0.788781
vt 0.657187 0.785762
vt 0.081700 0.584394
vt 0.082529 0.522235
vt 0.125881 0.522235
vt 0.124425 0.584394
vt 0.865615 0.906551
vt 0.869073 0.909571
vt 0.829997 0.936421
vt 0.826540 0.933402
vt 0.120898 0.938970
vt 0.051460 0.938970
vt 0.228994 0.641793
vt 0.222942 0.641793
vt 0.217402 0.641793
vt 0.082529 0.641793
vt 0.125881 0.641793
vt 0.382381 0.933108
vt 0.339029 0.933108
vt 0.037923 0.938970
vt 0.028997 0.938970
vt 0.018199 0.938970
vt 0.430099 0.644804
vt 0.360662 0.644804
vt 0.365556 0.459609
vt 0.439641 0.459609
vt 0.018199 0.753776
vt 0.028997 0.753776
vt 0.037923 0.753776
vt 0.379315 0.747913
vt 0.333650 0.747913
vt 0.131260 0.456599
vt 0.085594 0.456599
vt 0.222942 0.456599
vt 0.217402 0.456599
vt 0.228994 0.456599
vt 0.116003 0.753776
vt 0.041919 0.753776
vt 0.041919 0.995345
vt 0.116003 0.995345
vt 0.228994 0.698168
vt 0.222942 0.698168
vt 0.217402 0.698168
vt 0.085594 0.698168
vt 0.131260 0.698168
vt 0.333650 0.989483
vt 0.379315 0.989483
vt 0.028997 0.995345
vt 0.037923 0.995345
vt 0.018199 0.995345
vt 0.365556 0.701179
vt 0.439641 0.701179
vt 0.298182 0.701179
vt 0.295883 0.644804
vt 0.295260 0.587405
vt 0.295883 0.525246
vt 0.298182 0.459609
vt 0.645533 0.939288
vt 0.643175 0.935349
vt 0.183377 0.753776
vt 0.185677 0.819412
vt 0.186299 0.881571
vt 0.185677 0.938970
vt 0.183377 0.995345
vt 0.815986 0.786834
vt 0.818343 0.782896
vt 0.251504 0.989483
vt 0.261045 0.933108
vt 0.263627 0.875709
vt 0.261045 0.813550
vt 0.251504 0.747913
vt 0.213406 0.456599
vt 0.203864 0.522235
vt 0.201282 0.584394
vt 0.203864 0.641793
vt 0.213406 0.698168
vt 0.251706 0.701179
vt 0.251706 0.644804
vt 0.251706 0.587405
vt 0.251706 0.525246
vt 0.251706 0.459609
vt 0.605763 0.980802
vt 0.603406 0.976863
vt 0.229854 0.819412
vt 0.229854 0.753776
vt 0.229854 0.881571
vt 0.229854 0.938970
vt 0.229854 0.995345
vt 0.776216 0.745320
vt 0.778573 0.741381
vt 0.439814 0.933108
vt 0.439814 0.875709
vt 0.439814 0.989483
vt 0.778229 0.980802
vt 0.774772 0.977782
vt 0.025096 0.641793
vt 0.025096 0.698168
vt 0.025096 0.584394
vt 0.025096 0.522235
vt 0.025096 0.456599
vt 0.601961 0.744401
vt 0.605419 0.741381
vt 0.439814 0.813550
vt 0.439814 0.747913
vt 0.898827 0.732532
vt 0.901203 0.575939
vt 0.911889 0.576063
vt 0.911977 0.732590
vt 0.805825 0.674788
vt 0.819321 0.689992
vt 0.833205 0.672230
vt 0.819468 0.667947
vt 0.930981 0.576291
vt 0.941566 0.576421
vt 0.948688 0.731706
vt 0.935544 0.732186
vt 0.831690 0.609198
vt 0.825051 0.627025
vt 0.811390 0.617616
vt 0.820601 0.610125
vt 0.923367 0.732503
vt 0.921130 0.576173
vt 0.873846 0.575632
vt 0.883689 0.575740
vt 0.877262 0.731907
vt 0.865099 0.731255
vt 0.810877 0.626808
vt 0.815390 0.638394
vt 0.854932 0.730615
vt 0.865652 0.575543
vt 0.808895 0.702563
vt 0.803685 0.687641
vt 0.892928 0.575844
vt 0.888645 0.732291
vt 0.821841 0.706044
vt 0.832983 0.702315
vt 0.837625 0.686351
vt 0.840919 0.636648
vt 0.845467 0.618580
vt 0.828329 0.641251
vt 0.892737 0.379385
vt 0.902972 0.379411
vt 0.916184 0.379650
vt 0.927626 0.379970
vt 0.939856 0.380494
vt 0.953059 0.381173
vt 0.858670 0.380061
vt 0.868907 0.379746
vt 0.881150 0.379461
vt 0.883378 0.155268
vt 0.884459 0.153171
vt 0.895801 0.160070
vt 0.893990 0.162924
vt 0.915075 0.243145
vt 0.907690 0.246931
vt 0.904789 0.237056
vt 0.912462 0.235046
vt 0.925299 0.153171
vt 0.924567 0.159577
vt 0.914693 0.166283
vt 0.913957 0.160070
vt 0.883181 0.161852
vt 0.891279 0.170689
vt 0.873901 0.154694
vt 0.875363 0.152027
vt 0.934395 0.152027
vt 0.932751 0.158308
vt 0.901841 0.228872
vt 0.909443 0.226752
vt 0.874887 0.160448
vt 0.904579 0.180579
vt 0.902328 0.183511
vt 0.909070 0.181138
vt 0.905179 0.180579
vt 0.918479 0.170689
vt 0.914490 0.186120
vt 0.895268 0.186120
vt 0.900228 0.203200
vt 0.896844 0.203686
vt 0.911886 0.194955
vt 0.909530 0.203200
vt 0.917833 0.197895
vt 0.891925 0.197895
vt 0.896838 0.242827
vt 0.895598 0.246211
vt 0.889405 0.236178
vt 0.891258 0.233677
vt 0.919863 0.205465
vt 0.919563 0.212679
vt 0.921332 0.250667
vt 0.915667 0.244720
vt 0.920662 0.237241
vt 0.927192 0.242691
vt 0.887694 0.213548
vt 0.884446 0.206098
vt 0.883418 0.224024
vt 0.885497 0.221421
vt 0.930392 0.206559
vt 0.931717 0.212783
vt 0.925577 0.227404
vt 0.931302 0.232161
vt 0.875437 0.213483
vt 0.874609 0.205149
vt 0.934320 0.213483
vt 0.942307 0.197249
vt 0.944022 0.202474
vt 0.938177 0.193870
vt 0.927266 0.221421
vt 0.933012 0.224377
vt 0.955588 0.205149
vt 0.951823 0.213483
vt 0.948679 0.202474
vt 0.953899 0.196710
vt 0.933605 0.223358
vt 0.941099 0.221421
vt 0.942515 0.229904
vt 0.935726 0.232274
vt 0.937918 0.162973
vt 0.940928 0.156881
vt 0.945833 0.169938
vt 0.940074 0.171456
vt 0.952659 0.156881
vt 0.954613 0.160399
vt 0.950463 0.174669
vt 0.948510 0.169938
vt 0.957753 0.164911
vt 0.955632 0.173827
vt 0.943455 0.241056
vt 0.937312 0.244255
vt 0.945195 0.186540
vt 0.940156 0.182609
vt 0.948706 0.192294
vt 0.946613 0.186540
vt 0.954046 0.185808
vt 0.943205 0.252317
vt 0.937459 0.255157
vt 0.946607 0.197249
vt 0.957559 0.152027
vt 0.959688 0.154694
vt 0.897431 0.223705
vt 0.904925 0.221421
vt 0.962271 0.160448
vt 0.883378 0.155268
vt 0.884459 0.153171
vt 0.895801 0.160070
vt 0.893990 0.162924
vt 0.915075 0.243145
vt 0.907690 0.246931
vt 0.904789 0.237056
vt 0.912462 0.235046
vt 0.925299 0.153171
vt 0.924567 0.159577
vt 0.914693 0.166283
vt 0.913957 0.160070
vt 0.883181 0.161852
vt 0.891279 0.170689
vt 0.873901 0.154694
vt 0.875363 0.152027
vt 0.934395 0.152027
vt 0.932751 0.158308
vt 0.901841 0.228872
vt 0.909443 0.226752
vt 0.874887 0.160448
vt 0.904579 0.180579
vt 0.902328 0.183511
vt 0.909070 0.181138
vt 0.905179 0.180579
vt 0.918479 0.170689
vt 0.914490 0.186120
vt 0.895268 0.186120
vt 0.900228 0.203200
vt 0.896844 0.203686
vt 0.911886 0.194955
vt 0.909530 0.203200
vt 0.917833 0.197895
vt 0.891925 0.197895
vt 0.896838 0.242827
vt 0.895598 0.246211
vt 0.889405 0.236178
vt 0.891258 0.233677
vt 0.919863 0.205465
vt 0.919563 0.212679
vt 0.921332 0.250667
vt 0.915667 0.244720
vt 0.920662 0.237241
vt 0.927192 0.242691
vt 0.887694 0.213548
vt 0.884446 0.206098
vt 0.883418 0.224024
vt 0.885497 0.221421
vt 0.930392 0.206559
vt 0.931717 0.212783
vt 0.925577 0.227404
vt 0.931302 0.232161
vt 0.875437 0.213483
vt 0.874609 0.205149
vt 0.934320 0.213483
vt 0.942307 0.197249
vt 0.944022 0.202474
vt 0.938177 0.193870
vt 0.927266 0.221421
vt 0.933012 0.224377
vt 0.955588 0.205149
vt 0.951823 0.213483
vt 0.948679 0.202474
vt 0.953899 0.196710
vt 0.933605 0.223358
vt 0.941099 0.221421
vt 0.942515 0.229904
vt 0.935726 0.232274
vt 0.937918 0.162973
vt 0.940928 0.156881
vt 0.945833 0.169938
vt 0.940074 0.171456
vt 0.952659 0.156881
vt 0.954613 0.160399
vt 0.950463 0.174669
vt 0.948510 0.169938
vt 0.957753 0.164911
vt 0.955632 0.173827
vt 0.943455 0.241056
vt 0.937312 0.244255
vt 0.945195 0.186540
vt 0.940156 0.182609
vt 0.948706 0.192294
vt 0.946613 0.186540
vt 0.954046 0.185808
vt 0.943205 0.252317
vt 0.937459 0.255157
vt 0.946607 0.197249
vt 0.957559 0.152027
vt 0.959688 0.154694
vt 0.897431 0.223705
vt 0.904925 0.221421
vt 0.962271 0.160448
vt 0.883378 0.155268
vt 0.884459 0.153171
vt 0.895801 0.160070
vt 0.893990 0.162924
vt 0.915075 0.243145
vt 0.907690 0.246931
vt 0.904789 0.237056
vt 0.912462 0.235046
vt 0.925299 0.153171
vt 0.924567 0.159577
vt 0.914693 0.166283
vt 0.913957 0.160070
vt 0.883181 0.161852
vt 0.891279 0.170689
vt 0.873901 0.154694
vt 0.875363 0.152027
vt 0.934395 0.152027
vt 0.932751 0.158308
vt 0.901841 0.228872
vt 0.909443 0.226752
vt 0.874887 0.160448
vt 0.904579 0.180579
vt 0.902328 0.183511
vt 0.909070 0.181138
vt 0.905179 0.180579
vt 0.918479 0.170689
vt 0.914490 0.186120
vt 0.895268 0.186120
vt 0.900228 0.203200
vt 0.896844 0.203686
vt 0.911886 0.194955
vt 0.909530 0.203200
vt 0.917833 0.197895
vt 0.891925 0.197895
vt 0.896838 0.242827
vt 0.895598 0.246211
vt 0.889405 0.236178
vt 0.891258 0.233677
vt 0.919863 0.205465
vt 0.919563 0.212679
vt 0.921332 0.250667
vt 0.915667 0.244720
vt 0.920662 0.237241
vt 0.927192 0.242691
vt 0.887694 0.213548
vt 0.884446 0.206098
vt 0.883418 0.224024
vt 0.885497 0.221421
vt 0.930392 0.206559
vt 0.931717 0.212783
vt 0.925577 0.227404
vt 0.931302 0.232161
vt 0.875437 0.213483
vt 0.874609 0.205149
vt 0.934320 0.213483
vt 0.942307 0.197249
vt 0.944022 0.202474
vt 0.938177 0.193870
vt 0.927266 0.221421
vt 0.933012 0.224377
vt 0.955588 0.205149
vt 0.951823 0.213483
vt 0.948679 0.202474
vt 0.953899 0.196710
vt 0.933605 0.223358
vt 0.941099 0.221421
vt 0.942515 0.229904
vt 0.935726 0.232274
vt 0.937918 0.162973
vt 0.940928 0.156881
vt 0.945833 0.169938
vt 0.940074 0.171456
vt 0.952659 0.156881
vt 0.954613 0.160399
vt 0.950463 0.174669
vt 0.948510 0.169938
vt 0.957753 0.164911
vt 0.955632 0.173827
vt 0.943455 0.241056
vt 0.937312 0.244255
vt 0.945195 0.186540
vt 0.940156 0.182609
vt 0.948706 0.192294
vt 0.946613 0.186540
vt 0.954046 0.185808
vt 0.943205 0.252317
vt 0.937459 0.255157
vt 0.946607 0.197249
vt 0.957559 0.152027
vt 0.959688 0.154694
vt 0.897431 0.223705
vt 0.904925 0.221421
vt 0.962271 0.160448
vn 0.503882 -0.792380 0.343855
vn 0.821446 0.568832 -0.040700
vn 0.697482 0.609502 0.376864
vn 0.367740 -0.659061 0.656053
vn -0.472335 -0.827456 -0.303671
vn -0.170816 0.877431 -0.448259
vn -0.284861 0.887142 -0.363089
vn -0.637128 -0.770381 -0.024106
vn 0.367065 -0.924341 -0.104197
vn 0.824931 0.322127 -0.464459
vn -0.172651 0.984914 0.011652
vn -0.611914 -0.707395 0.353771
vn 0.363891 0.626460 0.689297
vn 0.066338 -0.489274 0.869604
vn -0.079560 0.762999 -0.641484
vn -0.216044 -0.923233 -0.317750
vn -0.089637 0.821577 0.563006
vn -0.318205 -0.478465 0.818424
vn 0.235838 0.706672 -0.667079
vn 0.085331 -0.967026 -0.239958
vn -0.384844 0.893352 0.231985
vn -0.643679 -0.591381 0.485743
vn 0.412976 0.795788 -0.442914
vn 0.138437 -0.989582 -0.039539
vn -0.466696 0.810609 -0.353705
vn -0.806594 -0.576434 -0.130883
vn 0.460017 0.878403 -0.129588
vn 0.173884 -0.923375 0.342260
vn -0.202088 0.725542 -0.657837
vn -0.623812 -0.582170 -0.521476
vn 0.385508 0.823840 0.415538
vn 0.199245 -0.777119 0.596982
vn -0.337046 -0.611782 0.715628
vn -0.005303 0.990336 0.138586
vn 0.123095 0.941631 0.313334
vn -0.026499 -0.643089 0.765333
vn 0.514351 0.205863 -0.832504
vn 0.077946 0.227792 -0.970585
vn 0.083373 -0.866693 -0.491826
vn -0.180068 -0.807344 -0.561935
vn 0.216813 0.894462 0.391062
vn 0.047657 -0.735388 0.675969
vn -0.126554 0.481227 -0.867413
vn -0.319723 -0.774708 -0.545531
vn -0.029294 0.657439 0.752938
vn -0.031879 0.615213 0.787716
vn 0.619678 0.452245 0.641462
vn 0.621992 0.505872 0.597679
vn 0.035675 -0.560694 -0.827254
vn 0.059484 0.787880 -0.612950
vn 0.999384 0.029552 0.018911
vn 0.692821 -0.413162 -0.591013
vn 0.689647 -0.476377 -0.545392
vn 0.032635 -0.615250 -0.787657
vn 0.992697 -0.071384 0.097247
vn -0.059486 -0.787879 0.612950
vn 0.028584 -0.656753 -0.753564
vn 0.685171 -0.524218 -0.505704
vn 0.997733 -0.027597 0.061373
vn -0.716874 -0.393590 -0.575481
vn -0.997685 0.026628 -0.062577
vn -0.994241 0.061626 -0.087682
vn -0.712447 -0.344944 -0.611092
vn -0.719334 -0.430861 -0.544901
vn -0.999188 0.000406 -0.040292
vn -0.741316 0.446083 0.501458
vn -0.736848 0.487285 0.468624
vn -0.035087 0.580252 0.813681
vn 0.615158 0.408151 0.674533
vn -0.742908 0.412607 0.527108
vn 0.903189 0.208170 0.375387
vn 0.905898 0.250865 0.341197
vn 0.419223 0.574231 0.703215
vn 0.416492 0.519756 0.745914
vn -0.905816 -0.301971 -0.297173
vn -0.030246 -0.765307 0.642954
vn -0.422393 0.537129 0.730121
vn -0.955721 0.149072 0.253723
vn -0.956529 0.208833 0.203570
vn -0.906218 -0.250398 -0.340690
vn -0.419072 0.635543 0.648432
vn 0.030246 0.765307 -0.642955
vn -0.902936 -0.209309 -0.375361
vn -0.952559 0.256576 0.163708
vn -0.422813 0.592669 0.685546
vn -0.296723 -0.607374 -0.736921
vn 0.421412 -0.593039 -0.686088
vn 0.421205 -0.625110 -0.657133
vn -0.297354 -0.652649 -0.696871
vn -0.294333 -0.569865 -0.767217
vn 0.423534 -0.565986 -0.707304
vn 0.932359 -0.253443 -0.257823
vn 0.929613 -0.293282 -0.223170
vn 0.906626 0.283650 0.312365
vn 0.420583 0.615553 0.666486
vn 0.932944 -0.220699 -0.284444
vn -0.632569 -0.748961 -0.197265
vn -0.740104 0.633503 0.225654
vn -0.717590 0.663997 -0.210173
vn -0.565607 -0.627107 -0.535561
vn 0.465024 -0.862997 0.197454
vn 0.342215 0.860712 0.376913
vn 0.432782 0.861152 0.266678
vn 0.561574 -0.819458 -0.114559
vn -0.402648 -0.891570 0.207310
vn -0.660780 0.387892 0.642581
vn 0.241638 0.967693 -0.071988
vn 0.451094 -0.754638 -0.476482
vn -0.468828 0.653878 -0.593839
vn -0.312143 -0.482292 -0.818512
vn 0.291494 0.754048 0.588594
vn 0.212964 -0.937699 0.274532
vn 0.015661 0.811616 -0.583981
vn 0.073025 -0.502668 -0.861390
vn -0.011869 0.723453 0.690272
vn -0.100757 -0.956936 0.272253
vn 0.386624 0.859243 -0.334997
vn 0.459147 -0.641579 -0.614460
vn -0.230224 0.826625 0.513506
vn -0.202190 -0.975116 0.090927
vn 0.600405 0.770141 0.215401
vn 0.766477 -0.639877 -0.055411
vn -0.344721 0.912779 0.219095
vn -0.323260 -0.906255 -0.272405
vn 0.411019 0.706786 0.575775
vn 0.683314 -0.630787 0.367681
vn -0.408268 0.852360 -0.326802
vn -0.397662 -0.758425 -0.516388
vn 0.105538 -0.637073 -0.763544
vn 0.049600 0.986652 -0.155104
vn -0.120537 0.948508 -0.292921
vn -0.209309 -0.643123 -0.736602
vn -0.280809 0.246852 0.927475
vn 0.176341 0.233358 0.956268
vn -0.030297 -0.857092 0.514272
vn 0.246101 -0.819278 0.517898
vn -0.233631 0.909086 -0.344935
vn -0.266770 -0.729111 -0.630263
vn 0.369234 0.469395 0.802081
vn 0.379812 -0.798061 0.467806
vn -0.356134 -0.933133 -0.049310
vn -0.536785 0.300977 -0.788209
vn -0.183339 0.123571 -0.975253
vn -0.036024 -0.974533 -0.221332
vn 0.005687 -0.386595 0.922232
vn 0.054664 0.988928 -0.137958
vn 0.195722 0.972796 -0.123935
vn 0.312047 -0.464151 0.828970
vn -0.545736 -0.755593 0.362285
vn -0.845238 0.343459 -0.409400
vn 0.353300 0.814745 -0.459749
vn 0.531271 -0.633139 0.562927
vn 0.264509 0.031452 -0.963870
vn 0.361037 -0.895839 -0.259084
vn -0.155766 0.987637 -0.017639
vn -0.221650 -0.509566 0.831393
vn 0.582262 0.355019 -0.731391
vn 0.630351 -0.776283 -0.006523
vn -0.427165 0.890001 -0.159462
vn -0.417899 -0.652718 0.631918
vn 0.628922 0.662405 -0.407033
vn 0.659534 -0.608619 0.441134
vn -0.411394 0.796396 -0.443293
vn -0.344452 -0.795391 0.498704
vn 0.325436 0.945298 0.022444
vn 0.421432 -0.213129 0.881460
vn -0.243267 0.674914 -0.696643
vn -0.130112 -0.966212 0.222497
vn -0.078820 0.993176 0.085956
vn 0.046104 -0.035696 0.998299
vn 0.127341 0.338941 -0.932150
vn 0.033621 -0.999226 -0.020439
vn 0.554881 -0.820304 0.138598
vn 0.300635 0.711574 -0.635044
vn 0.294895 0.546538 -0.783794
vn 0.337500 -0.939575 -0.057385
vn -0.849369 0.525288 0.051422
vn -0.589307 0.713922 0.378197
vn -0.544757 -0.429892 0.720023
vn -0.369915 -0.286782 0.883696
vn 0.258514 0.445009 -0.857402
vn 0.206953 -0.978350 0.001432
vn -0.314888 0.901030 0.298311
vn -0.245059 -0.240288 0.939259
vn 0.105217 0.659157 -0.744608
vn 0.107991 0.617033 -0.779493
vn -0.558042 0.483508 -0.674396
vn -0.560575 0.536964 -0.630416
vn -0.111702 -0.562596 0.819151
vn -0.060785 0.786700 0.614335
vn -0.993970 0.075633 -0.079399
vn -0.745769 -0.383779 0.544557
vn -0.742703 -0.446844 0.498721
vn -0.108742 -0.617035 0.779387
vn -0.987125 -0.025110 -0.157970
vn 0.060785 -0.786700 -0.614335
vn -0.104515 -0.658509 0.745280
vn -0.738000 -0.494641 0.459006
vn -0.992339 0.018682 -0.122128
vn 0.661663 -0.429061 0.614905
vn 0.992173 -0.019653 0.123318
vn 0.988802 0.015340 0.148440
vn 0.657294 -0.380441 0.650560
vn 0.664283 -0.466252 0.584240
vn 0.993835 -0.045804 0.100962
vn 0.790155 0.413983 -0.451966
vn 0.785576 0.455181 -0.419144
vn 0.111180 0.582092 -0.805486
vn -0.553528 0.439418 -0.707473
vn 0.791781 0.380599 -0.477732
vn -0.578883 -0.733697 -0.355786
vn -0.771532 0.627668 0.103783
vn -0.662420 0.678870 -0.316758
vn -0.445895 -0.596269 -0.667563
vn 0.417890 -0.875063 0.244197
vn 0.258256 0.838948 0.479030
vn 0.369030 0.843974 0.389261
vn 0.574767 -0.817351 -0.039757
vn -0.434185 -0.897340 0.079145
vn -0.776655 0.361720 0.515719
vn 0.249227 0.968127 0.024823
vn 0.538730 -0.734379 -0.412864
vn -0.341971 0.685247 -0.643034
vn -0.141279 -0.440014 -0.886808
vn 0.166461 0.722644 0.670877
vn 0.155657 -0.951420 0.265652
vn 0.130456 0.838565 -0.528952
vn 0.244729 -0.461297 -0.852826
vn -0.151042 0.689560 0.708303
vn -0.151238 -0.968089 0.199826
vn 0.444069 0.871305 -0.208879
vn 0.573976 -0.614892 -0.540794
vn -0.329862 0.802788 0.496711
vn -0.214343 -0.976758 0.001231
vn 0.543699 0.754233 0.368137
vn 0.763357 -0.642410 0.067787
vn -0.383371 0.903860 0.189905
vn -0.260483 -0.889599 -0.375183
vn 0.286231 0.675123 0.679912
vn 0.597287 -0.652992 0.465671
vn -0.336402 0.870207 -0.359964
vn -0.284910 -0.729658 -0.621632
vn 0.257292 -0.600492 -0.757107
vn 0.077636 0.992545 -0.093950
vn -0.061443 0.962382 -0.264663
vn -0.056572 -0.605383 -0.793921
vn -0.461017 0.204226 0.863571
vn -0.018822 0.185814 0.982405
vn -0.130772 -0.880527 0.455600
vn 0.139246 -0.845077 0.516193
vn -0.161779 0.926380 -0.340070
vn -0.133958 -0.695929 -0.705506
vn 0.200527 0.427477 0.881506
vn 0.280228 -0.822518 0.494910
vn -0.022566 0.636231 0.771168
vn -0.014217 0.604852 0.796211
vn -0.024894 -0.051658 0.998355
vn 0.037226 -0.014544 0.999201
vn 0.123314 -0.600163 -0.790315
vn 0.999663 -0.008720 0.024473
vn 0.108410 -0.767834 0.631409
vn 0.148728 -0.974559 -0.167673
vn -0.004512 -0.985951 -0.166977
vn 0.013301 -0.637386 -0.770430
vn -0.152688 -0.765530 0.625020
vn -0.999663 0.008720 -0.024474
vn -0.095059 -0.598230 -0.795666
vn -0.157480 -0.971862 -0.175170
vn -0.021763 -0.795597 0.605435
vn 0.025494 0.147949 -0.988666
vn 0.022245 0.773993 -0.632804
vn -0.015938 0.794969 -0.606441
vn 0.056906 0.179564 -0.982099
vn -0.005676 0.180128 -0.983627
vn 0.059491 0.794323 -0.604576
vn 0.006252 0.995047 0.099213
vn -0.040095 0.994757 0.094077
vn -0.004096 0.636089 0.771605
vn -0.086388 -0.013445 0.996171
vn 0.052831 0.993944 0.096350
vn 0.138784 -0.985666 0.095921
vn 0.563888 0.208711 0.799043
vn 0.173969 0.121546 0.977221
vn -0.188027 -0.948260 0.255831
vn -0.060831 -0.414717 -0.907915
vn 0.161229 0.981666 0.101674
vn 0.020640 0.996388 0.082374
vn -0.379660 -0.418921 -0.824841
vn 0.376436 -0.871865 -0.313287
vn 0.886382 0.166134 0.432119
vn -0.178990 0.891310 0.416568
vn -0.639500 -0.524061 -0.562495
vn -0.282535 0.129837 0.950429
vn -0.558817 -0.782589 0.274367
vn 0.369987 0.928986 -0.009696
vn 0.130506 -0.580723 -0.803573
vn -0.512901 0.505211 0.694042
vn -0.786502 -0.617550 0.006914
vn 0.608201 0.780144 0.146516
vn 0.283501 -0.754937 -0.591353
vn -0.479623 0.801255 0.357703
vn -0.763079 -0.466761 -0.447040
vn 0.562758 0.704459 0.432482
vn 0.175938 -0.872158 -0.456494
vn -0.107056 0.991909 -0.068236
vn -0.428939 -0.152447 -0.890377
vn 0.363663 0.633833 0.682646
vn -0.079884 -0.979724 -0.183736
vn 0.299630 0.946913 -0.116526
vn -0.019998 -0.067086 -0.997547
vn -0.079699 0.397969 0.913930
vn -0.254763 -0.965540 0.053186
vn -0.717924 -0.683227 -0.133365
vn -0.156283 0.786625 0.597325
vn -0.192136 0.630851 0.751739
vn -0.538929 -0.838967 0.075430
vn 0.945841 0.322838 -0.034081
vn 0.744913 0.550007 -0.377620
vn 0.459392 -0.569439 -0.681688
vn 0.326072 -0.398457 -0.857268
vn -0.181589 0.527029 0.830221
vn -0.418351 -0.907983 0.023443
vn 0.516280 0.796137 -0.315628
vn 0.216512 -0.328032 -0.919520
vn -0.005922 0.528235 0.849078
vn -0.005903 0.535376 0.844593
vn -0.032566 0.528798 0.848123
vn -0.046597 0.519090 0.853448
vn 0.032566 -0.528798 -0.848123
vn 0.005903 -0.535376 -0.844593
vn 0.006032 -0.501504 -0.865134
vn 0.043806 -0.492484 -0.869218
vn 0.999976 -0.000000 0.006986
vn 0.999976 -0.000000 0.006986
vn 0.999976 -0.000001 0.006986
vn 0.999976 -0.000001 0.006986
vn -0.999976 0.000000 -0.006986
vn -0.999976 0.000000 -0.006986
vn -0.999976 -0.000000 -0.006986
vn -0.999976 -0.000000 -0.006986
vn -0.002777 0.916550 0.399911
vn -0.090498 0.913016 0.397757
vn 0.999976 -0.000004 0.006987
vn 0.999976 -0.000004 0.006987
vn 0.092458 -0.940696 -0.326408
vn 0.002280 -0.944545 -0.328375
vn -0.999976 -0.000002 -0.006987
vn -0.999976 -0.000002 -0.006987
vn 0.005891 0.540425 -0.841372
vn 0.003296 0.883204 -0.468977
vn -0.081462 0.880028 -0.467883
vn -0.036197 0.532996 -0.845343
vn 0.999976 0.000000 0.006987
vn 0.999976 0.000000 0.006987
vn 0.999976 -0.000001 0.006987
vn 0.999976 -0.000001 0.006987
vn 0.034172 -0.514672 0.856706
vn 0.078151 -0.848235 0.523822
vn -0.003689 -0.851088 0.525010
vn -0.005973 -0.521962 0.852948
vn -0.999976 -0.000002 -0.006987
vn -0.999976 -0.000002 -0.006987
vn -0.999976 0.000000 -0.006987
vn -0.999976 0.000000 -0.006987
vn -0.010519 0.633235 -0.773888
vn 0.005369 0.639836 -0.768493
vn 0.005915 0.531331 -0.847143
vn -0.025584 0.524659 -0.850928
vn 0.999976 -0.000001 0.006987
vn 0.999976 -0.000000 0.006987
vn 0.999976 0.000001 0.006987
vn 0.999976 0.000001 0.006987
vn -0.005369 -0.639836 0.768493
vn 0.010519 -0.633236 0.773888
vn 0.025584 -0.524659 0.850928
vn -0.005915 -0.531331 0.847143
vn -0.999976 0.000000 -0.006987
vn -0.999976 0.000000 -0.006987
vn -0.999976 0.000000 -0.006987
vn -0.999976 0.000000 -0.006987
vn -0.023975 -0.529131 -0.848202
vn -0.036481 -0.492403 -0.869602
vn -0.099122 -0.939675 -0.327391
vn -0.095784 -0.847469 0.522133
vn -0.051278 -0.514594 0.855899
vn -0.023281 -0.633487 0.773403
vn -0.041297 -0.524921 0.850148
vn 0.023281 0.633486 -0.773404
vn 0.041297 0.524921 -0.850148
vn 0.053358 0.532824 -0.844542
vn 0.098641 0.879178 -0.466172
vn 0.095912 0.912075 0.398648
vn 0.039804 0.518866 0.853928
vn 0.023975 0.529131 0.848202
vn -0.046861 0.517962 0.854119
vn -0.068207 0.522919 0.849649
vn -0.134834 0.908521 0.395486
vn -0.124089 0.876014 -0.466050
vn -0.058024 0.534461 -0.843199
vn -0.019111 0.625679 -0.779847
vn -0.042570 0.515423 -0.855878
vn 0.042570 -0.515423 0.855878
vn 0.019111 -0.625679 0.779846
vn 0.119139 -0.844648 0.521896
vn 0.054428 -0.513535 0.856341
vn 0.063020 -0.492264 -0.868162
vn 0.138298 -0.935764 -0.324375
vn 0.046861 -0.517962 -0.854119
vn -0.060388 -0.492919 -0.867977
vn -0.041685 -0.517291 -0.854794
vn -0.155588 -0.932702 -0.325361
vn -0.146201 -0.842395 0.518648
vn -0.076395 -0.513848 0.854473
vn -0.034085 -0.625454 0.779516
vn -0.062544 -0.514891 0.854971
vn 0.062544 0.514891 -0.854971
vn 0.034085 0.625454 -0.779516
vn 0.151075 0.873499 -0.462792
vn 0.080439 0.535059 -0.840977
vn 0.066804 0.524010 0.849088
vn 0.150526 0.905716 0.396257
vn 0.041685 0.517291 0.854794
vn 0.022763 0.657257 0.753322
vn 0.012304 0.664475 0.747209
vn -0.005190 0.669663 0.742647
vn -0.020836 0.664254 0.747217
vn -0.029308 0.657509 0.752876
vn 0.999976 -0.000001 0.006986
vn 0.999976 -0.000001 0.006986
vn 0.029308 -0.657509 -0.752876
vn 0.020836 -0.664254 -0.747217
vn 0.005190 -0.669663 -0.742647
vn -0.012304 -0.664475 -0.747209
vn -0.022763 -0.657257 -0.753323
vn -0.999976 0.000000 -0.006986
vn -0.999976 0.000000 -0.006986
vn 0.010132 0.730629 0.682700
vn 0.004726 0.736232 0.676712
vn -0.004686 0.741755 0.670655
vn -0.013144 0.736039 0.676811
vn -0.017568 0.730650 0.682526
vn 0.999976 -0.000002 0.006986
vn 0.999976 -0.000002 0.006986
vn 0.013143 -0.736039 -0.676811
vn 0.017568 -0.730650 -0.682526
vn 0.004686 -0.741755 -0.670655
vn -0.004726 -0.736232 -0.676712
vn -0.010132 -0.730629 -0.682700
vn -0.999976 0.000000 -0.006986
vn -0.999976 0.000000 -0.006986
vn 0.016618 0.666645 -0.745190
vn 0.005168 0.672886 -0.739728
vn 0.023198 0.660342 -0.750607
vn -0.999976 0.000000 -0.006987
vn -0.999976 0.000000 -0.006987
vn -0.016618 -0.666645 0.745190
vn -0.023198 -0.660342 0.750607
vn -0.005168 -0.672886 0.739728
vn 0.004947 -0.666429 0.745552
vn 0.010174 -0.660370 0.750872
vn 0.999976 0.000001 0.006987
vn 0.999976 0.000001 0.006987
vn -0.004947 0.666429 -0.745552
vn -0.010174 0.660370 -0.750872
vn -0.903114 0.296180 -0.310908
vn -0.900420 0.337251 -0.274783
vn -0.410377 0.638653 -0.650932
vn -0.414483 0.586264 -0.696059
vn 0.893712 -0.386002 0.228650
vn -0.068208 -0.733310 -0.676464
vn 0.422599 0.537107 -0.730018
vn 0.948795 0.085877 -0.303996
vn 0.957273 0.142894 -0.251416
vn 0.900747 -0.336788 0.274278
vn 0.431882 0.631408 -0.644051
vn 0.068207 0.733309 0.676465
vn 0.902768 -0.297294 0.310847
vn 0.959441 0.188816 -0.209338
vn 0.430035 0.590220 -0.683162
vn 0.287694 -0.663695 0.690465
vn -0.428641 -0.590724 0.683602
vn -0.432668 -0.621275 0.653312
vn 0.282393 -0.706889 0.648508
vn 0.290065 -0.627625 0.722461
vn -0.427363 -0.564647 0.706070
vn -0.933770 -0.191833 0.302114
vn -0.936222 -0.230041 0.265649
vn -0.896861 0.368558 -0.244553
vn -0.406309 0.678129 -0.612416
vn -0.930196 -0.160471 0.330128
vn 0.522167 -0.817056 -0.244461
vn 0.707254 0.326590 0.627002
vn 0.480355 0.047305 0.875798
vn 0.294850 -0.955522 0.006397
vn -0.248673 -0.263426 -0.932078
vn -0.191201 0.921964 0.336786
vn -0.322655 0.873696 0.364072
vn -0.483536 -0.423940 -0.765812
vn 0.521175 -0.550825 -0.651896
vn 0.852546 0.487926 0.187333
vn -0.321983 0.643077 0.694823
vn -0.561456 -0.671801 -0.483167
vn 0.082187 -0.149258 0.985377
vn -0.072264 -0.981163 0.179156
vn -0.038829 0.986414 0.159622
vn 0.015022 -0.337147 -0.941332
vn -0.351554 0.112361 0.929400
vn -0.429508 -0.901675 0.050055
vn 0.278086 0.941743 0.189180
vn 0.291326 -0.450836 -0.843728
vn -0.564534 0.435504 0.701169
vn -0.642191 -0.694025 -0.325453
vn 0.378996 0.813947 0.440286
vn 0.296774 -0.621959 -0.724633
vn -0.487021 0.833047 0.262381
vn -0.649979 -0.202778 -0.732399
vn 0.334651 0.625787 0.704556
vn 0.227185 -0.871608 -0.434381
vn -0.146257 0.985333 0.087912
vn -0.378829 0.073498 -0.922543
vn 0.138840 0.183923 0.973086
vn 0.166444 -0.972311 -0.164036
vn -0.401625 -0.908313 -0.116898
vn -0.193636 0.535717 0.821896
vn -0.105779 0.360541 0.926726
vn -0.111636 -0.993449 -0.024434
vn 0.663270 0.718906 -0.207959
vn 0.275857 0.875986 -0.395665
vn 0.335236 -0.194925 -0.921749
vn 0.090935 -0.080326 -0.992612
vn -0.027680 0.262921 0.964420
vn -0.004432 -0.991899 -0.126949
vn 0.015353 0.979580 -0.200470
vn -0.051832 -0.059409 -0.996887
vn -0.599545 -0.772074 0.210826
vn -0.641856 0.382806 -0.664440
vn -0.424555 0.086060 -0.901303
vn -0.370322 -0.928499 -0.027427
vn 0.173338 -0.282702 0.943416
vn 0.283912 0.903446 -0.321214
vn 0.412367 0.844689 -0.341253
vn 0.403492 -0.461717 0.789944
vn -0.600114 -0.506798 0.618885
vn -0.798303 0.555382 -0.232944
vn 0.411790 0.614883 -0.672568
vn 0.477004 -0.715073 0.511017
vn -0.038020 -0.142110 -0.989121
vn 0.002713 -0.983792 -0.179291
vn 0.127458 0.980028 -0.152644
vn -0.095555 -0.334821 0.937424
vn 0.411587 0.083515 -0.907536
vn 0.357326 -0.933503 -0.029857
vn -0.189845 0.961174 -0.200259
vn -0.374172 -0.425757 0.823849
vn 0.636726 0.388345 -0.666159
vn 0.564486 -0.743762 0.358015
vn -0.286372 0.841972 -0.457247
vn -0.386682 -0.595878 0.703851
vn 0.566878 0.790860 -0.230630
vn 0.588903 -0.254759 0.767002
vn -0.242483 0.650838 -0.719453
vn -0.321179 -0.850340 0.416852
vn 0.230210 0.970248 -0.074987
vn 0.330645 0.042574 0.942794
vn -0.068148 0.194564 -0.978520
vn -0.253560 -0.955633 0.149909
vn 0.319581 -0.937860 0.135227
vn 0.282589 0.518269 -0.807181
vn 0.186933 0.350785 -0.917609
vn 0.029364 -0.999227 0.026139
vn -0.613671 0.770271 0.173465
vn -0.226086 0.895453 0.383469
vn -0.401593 -0.167126 0.900440
vn -0.153232 -0.072694 0.985513
vn 0.103456 0.259813 -0.960101
vn -0.082998 -0.988999 0.122441
vn 0.052584 0.977604 0.203776
vn -0.009713 -0.063413 0.997940
vn 0.494579 -0.776310 0.390813
vn 0.824756 0.562709 -0.055999
vn 0.694504 0.624665 0.357011
vn 0.354247 -0.627026 0.693792
vn -0.471593 -0.839624 -0.269504
vn -0.159513 0.854677 -0.494047
vn -0.274823 0.869092 -0.411280
vn -0.640441 -0.767996 0.004230
vn 0.364113 -0.929890 -0.052216
vn 0.833632 0.295162 -0.466837
vn -0.167987 0.984971 -0.040149
vn -0.620808 -0.686344 0.378853
vn 0.356176 0.658559 0.662901
vn 0.050390 -0.445560 0.893833
vn -0.065822 0.730376 -0.679867
vn -0.215588 -0.937036 -0.274746
vn -0.094370 0.848999 0.519900
vn -0.333252 -0.435733 0.836110
vn 0.249656 0.671544 -0.697639
vn 0.084320 -0.978134 -0.190118
vn -0.384030 0.905388 0.181092
vn -0.654054 -0.563762 0.504366
vn 0.423716 0.770999 -0.475422
vn 0.134189 -0.990883 0.011991
vn -0.457155 0.793871 -0.400972
vn -0.807270 -0.578923 -0.114737
vn 0.466275 0.868945 -0.165897
vn 0.164010 -0.905862 0.390532
vn -0.188264 0.692650 -0.696270
vn -0.618457 -0.604885 -0.501622
vn 0.383020 0.841948 0.380025
vn 0.186116 -0.747188 0.638022
vn -0.351142 -0.573935 0.739795
vn -0.002611 0.996030 0.088985
vn 0.122810 0.955574 0.267949
vn -0.041565 -0.604001 0.795899
vn 0.528257 0.161963 -0.833495
vn 0.094167 0.178772 -0.979374
vn 0.086777 -0.890483 -0.446666
vn -0.175246 -0.833621 -0.523799
vn 0.215074 0.911955 0.349401
vn 0.033521 -0.700948 0.712424
vn -0.110671 0.437880 -0.892195
vn -0.314979 -0.799631 -0.511253
s 1
g polySurface47
usemtl lambert3SG
f 9/1/1 10/2/2 4/3/3 3/4/4
f 5/5/5 6/6/6 11/7/7 12/8/8
f 10/9/2 11/10/7 6/11/6 4/12/3
f 12/13/8 9/1/1 3/4/4 5/14/5
f 41/15/9 42/16/10 10/2/2 9/1/1
f 42/17/10 43/18/11 11/10/7 10/9/2
f 12/8/8 11/7/7 43/19/11 44/20/12
f 44/21/12 41/15/9 9/1/1 12/13/8
f 3/4/4 4/3/3 14/22/13 13/23/14
f 4/12/3 6/11/6 15/24/15 14/25/13
f 6/11/6 5/26/5 16/27/16 15/24/15
f 5/14/5 3/4/4 13/23/14 16/28/16
f 13/23/14 14/22/13 18/29/17 17/30/18
f 14/25/13 15/24/15 19/31/19 18/32/17
f 15/24/15 16/27/16 20/33/20 19/31/19
f 16/28/16 13/23/14 17/30/18 20/34/20
f 17/35/18 18/36/17 22/37/21 21/38/22
f 18/32/17 19/31/19 23/39/23 22/40/21
f 19/41/19 20/42/20 24/43/24 23/44/23
f 20/34/20 17/30/18 21/45/22 24/46/24
f 21/38/22 22/37/21 26/47/25 25/48/26
f 22/40/21 23/39/23 27/49/27 26/50/25
f 23/44/23 24/43/24 28/51/28 27/52/27
f 24/46/24 21/45/22 25/53/26 28/54/28
f 25/55/26 26/50/25 30/56/29 29/57/30
f 26/50/25 27/49/27 31/58/31 30/56/29
f 27/52/27 28/51/28 32/59/32 31/60/31
f 28/61/28 25/62/26 29/63/30 32/64/32
f 7/65/33 8/66/34 34/67/35 33/68/36
f 8/69/34 2/70/37 35/71/38 34/72/35
f 2/73/37 1/74/39 36/75/40 35/76/38
f 1/74/39 7/77/33 33/78/36 36/75/40
f 33/68/36 34/67/35 38/79/41 37/80/42
f 34/72/35 35/71/38 39/81/43 38/82/41
f 35/76/38 36/75/40 40/83/44 39/84/43
f 36/75/40 33/78/36 37/85/42 40/83/44
f 37/80/42 38/79/41 31/86/31 32/87/32
f 38/82/41 39/81/43 30/56/29 31/58/31
f 39/84/43 40/83/44 29/63/30 30/88/29
f 40/83/44 37/85/42 32/64/32 29/63/30
f 1/74/39 2/73/37 42/89/10 41/90/9
f 2/70/37 8/69/34 43/18/11 42/17/10
f 44/20/12 43/19/11 8/91/34 7/92/33
f 7/77/33 1/74/39 41/90/9 44/93/12
s 3
f 56/94/45 64/95/46 65/96/47 48/97/48
f 55/98/49 58/99/50 59/100/51 50/101/52
f 67/102/53 68/103/54 55/104/49 50/105/52
f 60/106/55 61/107/56 54/108/57 52/109/58
f 59/110/51 66/111/59 67/102/53 50/105/52
f 69/112/60 70/113/61 57/114/62 49/115/63
f 51/116/64 54/108/57 61/107/56 62/117/65
f 49/115/63 55/118/49 68/119/54 69/112/60
f 57/120/62 58/99/50 55/98/49 49/121/63
f 63/122/66 64/95/46 56/94/45 47/123/67
f 47/124/67 56/125/45 58/99/50 57/120/62
f 59/100/51 58/99/50 56/125/45 48/126/48
f 65/96/47 66/111/59 59/110/51 48/97/48
f 53/127/68 61/107/56 60/106/55 46/128/69
f 62/117/65 61/107/56 53/127/68 45/129/70
f 57/114/62 70/113/61 63/122/66 47/123/67
f 45/130/70 53/131/68 64/95/46 63/122/66
f 65/96/47 64/95/46 53/131/68 46/132/69
f 46/132/69 60/133/55 66/111/59 65/96/47
f 67/102/53 66/111/59 60/133/55 52/134/58
f 54/135/57 68/103/54 67/102/53 52/134/58
f 69/112/60 68/119/54 54/136/57 51/137/64
f 51/137/64 62/138/65 70/113/61 69/112/60
f 63/122/66 70/113/61 62/138/65 45/130/70
s 7
f 82/139/71 90/140/72 91/141/73 74/142/74
f 81/143/75 84/144/76 85/145/77 76/146/78
f 93/147/79 94/148/80 81/149/75 76/150/78
f 86/151/81 87/152/82 80/153/83 78/154/84
f 85/155/77 92/156/85 93/147/79 76/150/78
f 95/157/86 96/158/87 83/159/88 75/160/89
f 77/161/90 80/153/83 87/152/82 88/162/91
f 75/160/89 81/163/75 94/164/80 95/157/86
f 83/165/88 84/144/76 81/143/75 75/166/89
f 89/167/92 90/140/72 82/139/71 73/168/93
f 73/169/93 82/170/71 84/144/76 83/165/88
f 85/145/77 84/144/76 82/170/71 74/171/74
f 91/141/73 92/156/85 85/155/77 74/142/74
f 79/172/94 87/152/82 86/151/81 72/173/95
f 88/162/91 87/152/82 79/172/94 71/174/96
f 83/159/88 96/158/87 89/167/92 73/168/93
f 71/175/96 79/176/94 90/140/72 89/167/92
f 91/141/73 90/140/72 79/176/94 72/177/95
f 72/177/95 86/178/81 92/156/85 91/141/73
f 93/147/79 92/156/85 86/178/81 78/179/84
f 80/180/83 94/148/80 93/147/79 78/179/84
f 95/157/86 94/164/80 80/181/83 77/182/90
f 77/182/90 88/183/91 96/158/87 95/157/86
f 89/167/92 96/158/87 88/183/91 71/175/96
s 11
f 105/184/97 106/185/98 100/186/99 99/187/100
f 101/188/101 102/189/102 107/190/103 108/191/104
f 106/192/98 107/193/103 102/194/102 100/195/99
f 108/196/104 105/184/97 99/187/100 101/197/101
f 137/198/105 138/199/106 106/185/98 105/184/97
f 138/200/106 139/201/107 107/193/103 106/192/98
f 108/191/104 107/190/103 139/202/107 140/203/108
f 140/204/108 137/198/105 105/184/97 108/196/104
f 99/187/100 100/186/99 110/205/109 109/206/110
f 100/195/99 102/194/102 111/207/111 110/208/109
f 102/194/102 101/209/101 112/210/112 111/207/111
f 101/197/101 99/187/100 109/206/110 112/211/112
f 109/206/110 110/205/109 114/212/113 113/213/114
f 110/208/109 111/207/111 115/214/115 114/215/113
f 111/207/111 112/210/112 116/216/116 115/214/115
f 112/211/112 109/206/110 113/213/114 116/217/116
f 113/218/114 114/219/113 118/220/117 117/221/118
f 114/215/113 115/214/115 119/222/119 118/223/117
f 115/224/115 116/225/116 120/226/120 119/227/119
f 116/217/116 113/213/114 117/228/118 120/229/120
f 117/221/118 118/220/117 122/230/121 121/231/122
f 118/223/117 119/222/119 123/232/123 122/233/121
f 119/227/119 120/226/120 124/234/124 123/235/123
f 120/229/120 117/228/118 121/236/122 124/237/124
f 121/238/122 122/233/121 126/239/125 125/240/126
f 122/233/121 123/232/123 127/241/127 126/239/125
f 123/235/123 124/234/124 128/242/128 127/243/127
f 124/244/124 121/245/122 125/246/126 128/247/128
f 103/248/129 104/249/130 130/250/131 129/251/132
f 104/252/130 98/253/133 131/254/134 130/255/131
f 98/256/133 97/257/135 132/258/136 131/259/134
f 97/257/135 103/260/129 129/261/132 132/258/136
f 129/251/132 130/250/131 134/262/137 133/263/138
f 130/255/131 131/254/134 135/264/139 134/265/137
f 131/259/134 132/258/136 136/266/140 135/267/139
f 132/258/136 129/261/132 133/268/138 136/266/140
f 133/263/138 134/262/137 127/269/127 128/270/128
f 134/265/137 135/264/139 126/239/125 127/241/127
f 135/267/139 136/266/140 125/246/126 126/271/125
f 136/266/140 133/268/138 128/247/128 125/246/126
f 97/257/135 98/256/133 138/272/106 137/273/105
f 98/253/133 104/252/130 139/201/107 138/200/106
f 140/203/108 139/202/107 104/274/130 103/275/129
f 103/260/129 97/257/135 137/273/105 140/276/108
s 13
f 149/277/141 150/278/142 144/279/143 143/280/144
f 145/281/145 146/282/146 151/283/147 152/284/148
f 150/285/142 151/286/147 146/287/146 144/288/143
f 152/289/148 149/277/141 143/280/144 145/290/145
f 181/291/149 182/292/150 150/278/142 149/277/141
f 182/293/150 183/294/151 151/286/147 150/285/142
f 152/284/148 151/283/147 183/295/151 184/296/152
f 184/297/152 181/291/149 149/277/141 152/289/148
f 143/280/144 144/279/143 154/298/153 153/299/154
f 144/288/143 146/287/146 155/300/155 154/301/153
f 146/287/146 145/302/145 156/303/156 155/300/155
f 145/290/145 143/280/144 153/299/154 156/304/156
f 153/299/154 154/298/153 158/305/157 157/306/158
f 154/301/153 155/300/155 159/307/159 158/308/157
f 155/300/155 156/303/156 160/309/160 159/307/159
f 156/304/156 153/299/154 157/306/158 160/310/160
f 157/311/158 158/312/157 162/313/161 161/314/162
f 158/308/157 159/307/159 163/315/163 162/316/161
f 159/317/159 160/318/160 164/319/164 163/320/163
f 160/310/160 157/306/158 161/321/162 164/322/164
f 161/314/162 162/313/161 166/323/165 165/324/166
f 162/316/161 163/315/163 167/325/167 166/326/165
f 163/320/163 164/319/164 168/327/168 167/328/167
f 164/322/164 161/321/162 165/329/166 168/330/168
f 165/331/166 166/326/165 170/332/169 169/333/170
f 166/326/165 167/325/167 171/334/171 170/332/169
f 167/328/167 168/327/168 172/335/172 171/336/171
f 168/337/168 165/338/166 169/339/170 172/340/172
f 147/341/173 148/342/174 174/343/175 173/344/176
f 148/345/174 142/346/177 175/347/178 174/348/175
f 142/349/177 141/350/179 176/351/180 175/352/178
f 141/350/179 147/353/173 173/354/176 176/351/180
f 173/344/176 174/343/175 178/355/181 177/356/182
f 174/348/175 175/347/178 179/357/183 178/358/181
f 175/352/178 176/351/180 180/359/184 179/360/183
f 176/351/180 173/354/176 177/361/182 180/359/184
f 177/356/182 178/355/181 171/362/171 172/363/172
f 178/358/181 179/357/183 170/332/169 171/334/171
f 179/360/183 180/359/184 169/339/170 170/364/169
f 180/359/184 177/361/182 172/340/172 169/339/170
f 141/350/179 142/349/177 182/365/150 181/366/149
f 142/346/177 148/345/174 183/294/151 182/293/150
f 184/296/152 183/295/151 148/367/174 147/368/173
f 147/353/173 141/350/179 181/366/149 184/369/152
s 15
f 196/370/185 204/371/186 205/372/187 188/373/188
f 195/374/189 198/375/190 199/376/191 190/377/192
f 207/378/193 208/379/194 195/380/189 190/381/192
f 200/382/195 201/383/196 194/384/197 192/385/198
f 199/386/191 206/387/199 207/378/193 190/381/192
f 209/388/200 210/389/201 197/390/202 189/391/203
f 191/392/204 194/384/197 201/383/196 202/393/205
f 189/391/203 195/394/189 208/395/194 209/388/200
f 197/396/202 198/375/190 195/374/189 189/397/203
f 203/398/206 204/371/186 196/370/185 187/399/207
f 187/400/207 196/401/185 198/375/190 197/396/202
f 199/376/191 198/375/190 196/401/185 188/402/188
f 205/372/187 206/387/199 199/386/191 188/373/188
f 193/403/208 201/383/196 200/382/195 186/404/209
f 202/393/205 201/383/196 193/403/208 185/405/210
f 197/390/202 210/389/201 203/398/206 187/399/207
f 185/406/210 193/407/208 204/371/186 203/398/206
f 205/372/187 204/371/186 193/407/208 186/408/209
f 186/408/209 200/409/195 206/387/199 205/372/187
f 207/378/193 206/387/199 200/409/195 192/410/198
f 194/411/197 208/379/194 207/378/193 192/410/198
f 209/388/200 208/395/194 194/412/197 191/413/204
f 191/413/204 202/414/205 210/389/201 209/388/200
f 203/398/206 210/389/201 202/414/205 185/406/210
s 19
f 219/415/211 220/416/212 214/417/213 213/418/214
f 215/419/215 216/420/216 221/421/217 222/422/218
f 220/423/212 221/424/217 216/425/216 214/426/213
f 222/427/218 219/415/211 213/418/214 215/428/215
f 251/429/219 252/430/220 220/416/212 219/415/211
f 252/431/220 253/432/221 221/424/217 220/423/212
f 222/422/218 221/421/217 253/433/221 254/434/222
f 254/435/222 251/429/219 219/415/211 222/427/218
f 213/418/214 214/417/213 224/436/223 223/437/224
f 214/426/213 216/425/216 225/438/225 224/439/223
f 216/425/216 215/440/215 226/441/226 225/438/225
f 215/428/215 213/418/214 223/437/224 226/442/226
f 223/437/224 224/436/223 228/443/227 227/444/228
f 224/439/223 225/438/225 229/445/229 228/446/227
f 225/438/225 226/441/226 230/447/230 229/445/229
f 226/442/226 223/437/224 227/444/228 230/448/230
f 227/449/228 228/450/227 232/451/231 231/452/232
f 228/446/227 229/445/229 233/453/233 232/454/231
f 229/455/229 230/456/230 234/457/234 233/458/233
f 230/448/230 227/444/228 231/459/232 234/460/234
f 231/452/232 232/451/231 236/461/235 235/462/236
f 232/454/231 233/453/233 237/463/237 236/464/235
f 233/458/233 234/457/234 238/465/238 237/466/237
f 234/460/234 231/459/232 235/467/236 238/468/238
f 235/469/236 236/464/235 240/470/239 239/471/240
f 236/464/235 237/463/237 241/472/241 240/470/239
f 237/466/237 238/465/238 242/473/242 241/474/241
f 238/475/238 235/476/236 239/477/240 242/478/242
f 217/479/243 218/480/244 244/481/245 243/482/246
f 218/483/244 212/484/247 245/485/248 244/486/245
f 212/487/247 211/488/249 246/489/250 245/490/248
f 211/488/249 217/491/243 243/492/246 246/489/250
f 243/482/246 244/481/245 248/493/251 247/494/252
f 244/486/245 245/485/248 249/495/253 248/496/251
f 245/490/248 246/489/250 250/497/254 249/498/253
f 246/489/250 243/492/246 247/499/252 250/497/254
f 247/494/252 248/493/251 241/500/241 242/501/242
f 248/496/251 249/495/253 240/470/239 241/472/241
f 249/498/253 250/497/254 239/477/240 240/502/239
f 250/497/254 247/499/252 242/478/242 239/477/240
f 211/488/249 212/487/247 252/503/220 251/504/219
f 212/484/247 218/483/244 253/432/221 252/431/220
f 254/434/222 253/433/221 218/505/244 217/506/243
f 217/491/243 211/488/249 251/504/219 254/507/222
s 21
f 266/508/255 274/509/256 275/510/257 258/511/258
f 265/512/259 268/513/260 269/514/261 260/515/262
f 277/516/263 278/517/264 265/518/259 260/519/262
f 270/520/265 271/521/266 264/522/267 262/523/268
f 269/524/261 276/525/269 277/516/263 260/519/262
f 279/526/270 280/527/271 267/528/272 259/529/273
f 261/530/274 264/522/267 271/521/266 272/531/275
f 259/529/273 265/532/259 278/533/264 279/526/270
f 267/534/272 268/513/260 265/512/259 259/535/273
f 273/536/276 274/509/256 266/508/255 257/537/277
f 257/538/277 266/539/255 268/513/260 267/534/272
f 269/514/261 268/513/260 266/539/255 258/540/258
f 275/510/257 276/525/269 269/524/261 258/511/258
f 263/541/278 271/521/266 270/520/265 256/542/279
f 272/531/275 271/521/266 263/541/278 255/543/280
f 267/528/272 280/527/271 273/536/276 257/537/277
f 255/544/280 263/545/278 274/509/256 273/536/276
f 275/510/257 274/509/256 263/545/278 256/546/279
f 256/546/279 270/547/265 276/525/269 275/510/257
f 277/516/263 276/525/269 270/547/265 262/548/268
f 264/549/267 278/517/264 277/516/263 262/548/268
f 279/526/270 278/533/264 264/550/267 261/551/274
f 261/551/274 272/552/275 280/527/271 279/526/270
f 273/536/276 280/527/271 272/552/275 255/544/280
s 25
f 289/553/281 290/554/282 284/555/283 283/556/284
f 285/557/285 286/558/286 291/559/287 292/560/288
f 290/561/282 291/562/287 286/563/286 284/564/283
f 292/565/288 289/553/281 283/556/284 285/566/285
f 321/567/289 322/568/290 290/554/282 289/553/281
f 322/569/290 323/570/291 291/562/287 290/561/282
f 292/560/288 291/559/287 323/571/291 324/572/292
f 324/573/292 321/567/289 289/553/281 292/565/288
f 283/556/284 284/555/283 294/574/293 293/575/294
f 284/564/283 286/563/286 295/576/295 294/577/293
f 286/563/286 285/578/285 296/579/296 295/576/295
f 285/566/285 283/556/284 293/575/294 296/580/296
f 293/575/294 294/574/293 298/581/297 297/582/298
f 294/577/293 295/576/295 299/583/299 298/584/297
f 295/576/295 296/579/296 300/585/300 299/583/299
f 296/580/296 293/575/294 297/582/298 300/586/300
f 297/587/298 298/588/297 302/589/301 301/590/302
f 298/584/297 299/583/299 303/591/303 302/592/301
f 299/593/299 300/594/300 304/595/304 303/596/303
f 300/586/300 297/582/298 301/597/302 304/598/304
f 301/590/302 302/589/301 306/599/305 305/600/306
f 302/592/301 303/591/303 307/601/307 306/602/305
f 303/596/303 304/595/304 308/603/308 307/604/307
f 304/598/304 301/597/302 305/605/306 308/606/308
f 305/607/306 306/602/305 310/608/309 309/609/310
f 306/602/305 307/601/307 311/610/311 310/608/309
f 307/604/307 308/603/308 312/611/312 311/612/311
f 308/613/308 305/614/306 309/615/310 312/616/312
f 287/617/313 288/618/314 314/619/315 313/620/316
f 288/621/314 282/622/317 315/623/318 314/624/315
f 282/625/317 281/626/319 316/627/320 315/628/318
f 281/626/319 287/629/313 313/630/316 316/627/320
f 313/620/316 314/619/315 318/631/321 317/632/322
f 314/624/315 315/623/318 319/633/323 318/634/321
f 315/628/318 316/627/320 320/635/324 319/636/323
f 316/627/320 313/630/316 317/637/322 320/635/324
f 317/632/322 318/631/321 311/638/311 312/639/312
f 318/634/321 319/633/323 310/608/309 311/610/311
f 319/636/323 320/635/324 309/615/310 310/640/309
f 320/635/324 317/637/322 312/616/312 309/615/310
f 281/626/319 282/625/317 322/641/290 321/642/289
f 282/622/317 288/621/314 323/570/291 322/569/290
f 324/572/292 323/571/291 288/643/314 287/644/313
f 287/629/313 281/626/319 321/642/289 324/645/292
s 27
f 354/646/325 377/647/326 378/648/327 356/649/328
s 28
f 381/650/329 382/651/330 347/652/331 363/653/332
s 29
f 379/654/333 380/655/334 330/656/335 328/657/336
s 30
f 384/658/337 375/659/338 327/660/339 329/661/340
s 27
f 353/662/341 354/663/325 356/664/328 357/665/342
s 29
f 328/657/336 330/656/335 335/666/343 334/667/344
s 28
f 362/668/345 363/669/332 347/670/331 348/671/346
s 30
f 329/661/340 327/660/339 333/672/347 336/673/348
s 31
f 352/674/349 353/662/350 357/665/351 358/675/352
s 32
f 334/667/353 335/666/354 339/676/355 338/677/356
s 33
f 361/678/357 362/668/358 348/671/359 349/679/360
s 34
f 336/673/361 333/672/362 337/680/363 340/681/364
s 31
f 414/682/365 405/683/366 387/684/367 388/685/368
s 32
f 389/686/369 390/687/370 412/688/371 413/689/372
s 33
f 410/690/373 411/691/374 391/692/375 392/693/376
s 34
f 394/694/377 385/695/378 407/696/379 408/697/380
s 28
f 382/651/330 383/698/381 367/699/382 347/652/331
f 348/671/346 347/670/331 367/700/382 368/701/383
s 33
f 349/679/360 348/671/359 368/701/384 369/702/385
f 409/703/386 410/690/373 392/693/376 393/704/387
s 31
f 405/683/366 406/705/388 386/706/389 387/684/367
f 372/707/390 373/708/391 353/662/350 352/674/349
s 27
f 373/708/392 374/709/393 354/663/325 353/662/341
f 374/710/393 376/711/394 377/647/326 354/646/325
f 356/649/328 378/648/327 379/712/395 328/713/396
f 357/665/342 356/664/328 328/714/396 334/715/397
s 31
f 358/675/352 357/665/351 334/715/398 338/716/399
f 413/717/400 414/682/365 388/685/368 389/718/401
s 33
f 390/719/402 391/692/375 411/691/374 412/720/403
f 335/721/404 362/668/358 361/678/357 339/722/405
s 28
f 330/723/406 363/669/332 362/668/345 335/721/407
f 380/724/408 381/650/329 363/653/332 330/725/406
f 329/726/409 367/699/382 383/698/381 384/727/410
f 368/701/383 367/700/382 329/728/409 336/729/411
s 33
f 369/702/385 368/701/384 336/729/412 340/730/413
f 408/731/414 409/703/386 393/704/387 394/732/415
s 31
f 385/733/416 386/706/389 406/705/388 407/734/417
f 333/735/418 373/708/391 372/707/390 337/736/419
s 27
f 327/737/420 374/709/393 373/708/392 333/735/421
f 375/738/422 376/711/394 374/710/393 327/739/420
f 395/740/423 396/741/424 376/711/394 375/738/422
f 377/647/326 376/711/394 396/741/424 397/742/425
f 378/648/327 377/647/326 397/742/425 398/743/426
f 379/712/395 378/648/327 398/743/426 399/744/427
s 29
f 399/745/428 400/746/429 380/655/334 379/654/333
s 28
f 400/747/430 401/748/431 381/650/329 380/724/408
f 401/748/431 402/749/432 382/651/330 381/650/329
f 402/749/432 403/750/433 383/698/381 382/651/330
f 384/727/410 383/698/381 403/750/433 404/751/434
s 30
f 404/752/435 395/753/436 375/659/338 384/658/337
s 31
f 337/754/419 372/755/390 386/706/389 385/733/416
f 387/684/367 386/706/389 372/755/390 352/756/349
f 388/685/368 387/684/367 352/756/349 358/757/352
f 389/718/401 388/685/368 358/757/352 338/758/399
s 32
f 338/677/356 339/676/355 390/687/370 389/686/369
s 33
f 339/759/405 361/760/357 391/692/375 390/719/402
f 392/693/376 391/692/375 361/760/357 349/761/360
f 393/704/387 392/693/376 349/761/360 369/762/385
f 394/732/415 393/704/387 369/762/385 340/763/413
s 34
f 340/681/364 337/680/363 385/695/378 394/694/377
s 27
f 325/764/437 365/765/438 396/741/424 395/740/423
f 397/742/425 396/741/424 365/765/438 345/766/439
f 398/743/426 397/742/425 345/766/439 355/767/440
f 399/744/427 398/743/426 355/767/440 326/768/441
s 29
f 326/769/442 332/770/443 400/746/429 399/745/428
s 28
f 364/771/444 401/748/431 400/747/430 332/772/445
f 346/773/446 402/749/432 401/748/431 364/771/444
f 366/774/447 403/750/433 402/749/432 346/773/446
f 404/751/434 403/750/433 366/774/447 331/775/448
s 30
f 331/776/449 325/777/450 395/753/436 404/752/435
s 31
f 371/778/451 406/705/388 405/683/366 351/779/452
f 407/734/417 406/705/388 371/778/451 341/780/453
s 34
f 408/697/380 407/696/379 341/781/454 344/782/455
s 33
f 370/783/456 409/703/386 408/731/414 344/784/457
f 350/785/458 410/690/373 409/703/386 370/783/456
f 360/786/459 411/691/374 410/690/373 350/785/458
f 412/720/403 411/691/374 360/786/459 343/787/460
s 32
f 413/689/372 412/688/371 343/788/461 342/789/462
s 31
f 359/790/463 414/682/365 413/717/400 342/791/464
f 351/779/452 405/683/366 414/682/365 359/790/463
s 37
f 426/792/465 434/793/466 435/794/467 418/795/468
f 425/796/469 428/797/470 429/798/471 420/799/472
f 437/800/473 438/801/474 425/802/469 420/803/472
f 430/804/475 431/805/476 424/806/477 422/807/478
f 429/808/471 436/809/479 437/800/473 420/803/472
f 439/810/480 440/811/481 427/812/482 419/813/483
f 421/814/484 424/806/477 431/805/476 432/815/485
f 419/813/483 425/816/469 438/817/474 439/810/480
f 427/818/482 428/797/470 425/796/469 419/819/483
f 433/820/486 434/793/466 426/792/465 417/821/487
f 417/822/487 426/823/465 428/797/470 427/818/482
f 429/798/471 428/797/470 426/823/465 418/824/468
f 435/794/467 436/809/479 429/808/471 418/795/468
f 423/825/488 431/805/476 430/804/475 416/826/489
f 432/815/485 431/805/476 423/825/488 415/827/490
f 427/812/482 440/811/481 433/820/486 417/821/487
f 415/828/490 423/829/488 434/793/466 433/820/486
f 435/794/467 434/793/466 423/829/488 416/830/489
f 416/830/489 430/831/475 436/809/479 435/794/467
f 437/800/473 436/809/479 430/831/475 422/832/478
f 424/833/477 438/801/474 437/800/473 422/832/478
f 439/810/480 438/817/474 424/834/477 421/835/484
f 421/835/484 432/836/485 440/811/481 439/810/480
f 433/820/486 440/811/481 432/836/485 415/828/490
s 41
f 449/837/491 450/838/492 444/839/493 443/840/494
f 445/841/495 446/842/496 451/843/497 452/844/498
f 450/845/492 451/846/497 446/847/496 444/848/493
f 452/849/498 449/837/491 443/840/494 445/850/495
f 481/851/499 482/852/500 450/838/492 449/837/491
f 482/853/500 483/854/501 451/846/497 450/845/492
f 452/844/498 451/843/497 483/855/501 484/856/502
f 484/857/502 481/851/499 449/837/491 452/849/498
f 443/840/494 444/839/493 454/858/503 453/859/504
f 444/848/493 446/847/496 455/860/505 454/861/503
f 446/847/496 445/862/495 456/863/506 455/860/505
f 445/850/495 443/840/494 453/859/504 456/864/506
f 453/859/504 454/858/503 458/865/507 457/866/508
f 454/861/503 455/860/505 459/867/509 458/868/507
f 455/860/505 456/863/506 460/869/510 459/867/509
f 456/864/506 453/859/504 457/866/508 460/870/510
f 457/871/508 458/872/507 462/873/511 461/874/512
f 458/868/507 459/867/509 463/875/513 462/876/511
f 459/877/509 460/878/510 464/879/514 463/880/513
f 460/870/510 457/866/508 461/881/512 464/882/514
f 461/874/512 462/873/511 466/883/515 465/884/516
f 462/876/511 463/875/513 467/885/517 466/886/515
f 463/880/513 464/879/514 468/887/518 467/888/517
f 464/882/514 461/881/512 465/889/516 468/890/518
f 465/891/516 466/886/515 470/892/519 469/893/520
f 466/886/515 467/885/517 471/894/521 470/892/519
f 467/888/517 468/887/518 472/895/522 471/896/521
f 468/897/518 465/898/516 469/899/520 472/900/522
f 447/901/523 448/902/524 474/903/525 473/904/526
f 448/905/524 442/906/527 475/907/528 474/908/525
f 442/909/527 441/910/529 476/911/530 475/912/528
f 441/910/529 447/913/523 473/914/526 476/911/530
f 473/904/526 474/903/525 478/915/531 477/916/532
f 474/908/525 475/907/528 479/917/533 478/918/531
f 475/912/528 476/911/530 480/919/534 479/920/533
f 476/911/530 473/914/526 477/921/532 480/919/534
f 477/916/532 478/915/531 471/922/521 472/923/522
f 478/918/531 479/917/533 470/892/519 471/894/521
f 479/920/533 480/919/534 469/899/520 470/924/519
f 480/919/534 477/921/532 472/900/522 469/899/520
f 441/910/529 442/909/527 482/925/500 481/926/499
f 442/906/527 448/905/524 483/854/501 482/853/500
f 484/856/502 483/855/501 448/927/524 447/928/523
f 447/913/523 441/910/529 481/926/499 484/929/502
s 43
f 493/930/535 494/931/536 488/932/537 487/933/538
f 489/934/539 490/935/540 495/936/541 496/937/542
f 494/938/536 495/939/541 490/940/540 488/941/537
f 496/942/542 493/930/535 487/933/538 489/943/539
f 525/944/543 526/945/544 494/931/536 493/930/535
f 526/946/544 527/947/545 495/939/541 494/938/536
f 496/937/542 495/936/541 527/948/545 528/949/546
f 528/950/546 525/944/543 493/930/535 496/942/542
f 487/933/538 488/932/537 498/951/547 497/952/548
f 488/941/537 490/940/540 499/953/549 498/954/547
f 490/940/540 489/955/539 500/956/550 499/953/549
f 489/943/539 487/933/538 497/952/548 500/957/550
f 497/952/548 498/951/547 502/958/551 501/959/552
f 498/954/547 499/953/549 503/960/553 502/961/551
f 499/953/549 500/956/550 504/962/554 503/960/553
f 500/957/550 497/952/548 501/959/552 504/963/554
f 501/964/552 502/965/551 506/966/555 505/967/556
f 502/961/551 503/960/553 507/968/557 506/969/555
f 503/970/553 504/971/554 508/972/558 507/973/557
f 504/963/554 501/959/552 505/974/556 508/975/558
f 505/967/556 506/966/555 510/976/559 509/977/560
f 506/969/555 507/968/557 511/978/561 510/979/559
f 507/973/557 508/972/558 512/980/562 511/981/561
f 508/975/558 505/974/556 509/982/560 512/983/562
f 509/984/560 510/979/559 514/985/563 513/986/564
f 510/979/559 511/978/561 515/987/565 514/985/563
f 511/981/561 512/980/562 516/988/566 515/989/565
f 512/990/562 509/991/560 513/992/564 516/993/566
f 491/994/567 492/995/568 518/996/569 517/997/570
f 492/998/568 486/999/571 519/1000/572 518/1001/569
f 486/1002/571 485/1003/573 520/1004/574 519/1005/572
f 485/1003/573 491/1006/567 517/1007/570 520/1004/574
f 517/997/570 518/996/569 522/1008/575 521/1009/576
f 518/1001/569 519/1000/572 523/1010/577 522/1011/575
f 519/1005/572 520/1004/574 524/1012/578 523/1013/577
f 520/1004/574 517/1007/570 521/1014/576 524/1012/578
f 521/1009/576 522/1008/575 515/1015/565 516/1016/566
f 522/1011/575 523/1010/577 514/985/563 515/987/565
f 523/1013/577 524/1012/578 513/992/564 514/1017/563
f 524/1012/578 521/1014/576 516/993/566 513/992/564
f 485/1003/573 486/1002/571 526/1018/544 525/1019/543
f 486/999/571 492/998/568 527/947/545 526/946/544
f 528/949/546 527/948/545 492/1020/568 491/1021/567
f 491/1006/567 485/1003/573 525/1019/543 528/1022/546
s 45
f 537/1023/579 538/1024/580 532/1025/581 531/1026/582
f 533/1027/583 534/1028/584 539/1029/585 540/1030/586
f 538/1031/580 539/1032/585 534/1033/584 532/1034/581
f 540/1035/586 537/1023/579 531/1026/582 533/1036/583
f 569/1037/587 570/1038/588 538/1024/580 537/1023/579
f 570/1039/588 571/1040/589 539/1032/585 538/1031/580
f 540/1030/586 539/1029/585 571/1041/589 572/1042/590
f 572/1043/590 569/1037/587 537/1023/579 540/1035/586
f 531/1026/582 532/1025/581 542/1044/591 541/1045/592
f 532/1034/581 534/1033/584 543/1046/593 542/1047/591
f 534/1033/584 533/1048/583 544/1049/594 543/1046/593
f 533/1036/583 531/1026/582 541/1045/592 544/1050/594
f 541/1045/592 542/1044/591 546/1051/595 545/1052/596
f 542/1047/591 543/1046/593 547/1053/597 546/1054/595
f 543/1046/593 544/1049/594 548/1055/598 547/1053/597
f 544/1050/594 541/1045/592 545/1052/596 548/1056/598
f 545/1057/596 546/1058/595 550/1059/599 549/1060/600
f 546/1054/595 547/1053/597 551/1061/601 550/1062/599
f 547/1063/597 548/1064/598 552/1065/602 551/1066/601
f 548/1056/598 545/1052/596 549/1067/600 552/1068/602
f 549/1060/600 550/1059/599 554/1069/603 553/1070/604
f 550/1062/599 551/1061/601 555/1071/605 554/1072/603
f 551/1066/601 552/1065/602 556/1073/606 555/1074/605
f 552/1068/602 549/1067/600 553/1075/604 556/1076/606
f 553/1077/604 554/1072/603 558/1078/607 557/1079/608
f 554/1072/603 555/1071/605 559/1080/609 558/1078/607
f 555/1074/605 556/1073/606 560/1081/610 559/1082/609
f 556/1083/606 553/1084/604 557/1085/608 560/1086/610
f 535/1087/611 536/1088/612 562/1089/613 561/1090/614
f 536/1091/612 530/1092/615 563/1093/616 562/1094/613
f 530/1095/615 529/1096/617 564/1097/618 563/1098/616
f 529/1096/617 535/1099/611 561/1100/614 564/1097/618
f 561/1090/614 562/1089/613 566/1101/619 565/1102/620
f 562/1094/613 563/1093/616 567/1103/621 566/1104/619
f 563/1098/616 564/1097/618 568/1105/622 567/1106/621
f 564/1097/618 561/1100/614 565/1107/620 568/1105/622
f 565/1102/620 566/1101/619 559/1108/609 560/1109/610
f 566/1104/619 567/1103/621 558/1078/607 559/1080/609
f 567/1106/621 568/1105/622 557/1085/608 558/1110/607
f 568/1105/622 565/1107/620 560/1086/610 557/1085/608
f 529/1096/617 530/1095/615 570/1111/588 569/1112/587
f 530/1092/615 536/1091/612 571/1040/589 570/1039/588
f 572/1042/590 571/1041/589 536/1113/612 535/1114/611
f 535/1099/611 529/1096/617 569/1112/587 572/1115/590
