# This file uses centimeters as units for non-parametric coordinates.

mtllib M_TikiWallPart1.mtl
g default
v -7.360840 -0.734173 1.052597
v -7.360840 -0.595013 1.191758
v -7.500000 -0.595013 1.052597
v 7.500000 -0.595013 1.052597
v 7.360840 -0.595013 1.191758
v 7.360840 -0.734173 1.052597
v -7.500000 1.126667 1.052597
v -7.360840 1.126667 1.191758
v -7.360840 1.265827 1.052597
v 7.360840 1.265827 1.052597
v 7.360840 1.126667 1.191758
v 7.500000 1.126667 1.052597
v -7.500000 1.126667 -0.669080
v -7.360840 1.265827 -0.669080
v -7.360840 1.126667 -0.808242
v 7.360840 1.126667 -0.808242
v 7.360840 1.265827 -0.669080
v 7.500000 1.126667 -0.669080
v -7.500000 -0.595013 -0.669080
v -7.360840 -0.595013 -0.808242
v -7.360840 -0.734173 -0.669080
v 7.360840 -0.734173 -0.669080
v 7.360840 -0.595013 -0.808242
v 7.500000 -0.595013 -0.669080
vt 0.434410 0.723508
vt 0.434410 0.727189
vt 0.388860 0.727189
vt 0.388860 0.723508
vt 0.702023 0.393316
vt 0.698341 0.393316
vt 0.698341 0.003822
vt 0.702023 0.003822
vt 0.438092 0.727189
vt 0.438092 0.772740
vt 0.434410 0.772740
vt 0.308703 0.783901
vt 0.305021 0.783901
vt 0.305021 0.738350
vt 0.308703 0.738350
vt 0.308703 0.787583
vt 0.354254 0.783901
vt 0.354254 0.787583
vt 0.434410 0.776422
vt 0.388860 0.776422
vt 0.388860 0.772740
vt 0.711442 0.393806
vt 0.707760 0.393806
vt 0.707760 0.004312
vt 0.711442 0.004312
vt 0.357936 0.783901
vt 0.354254 0.738350
vt 0.357936 0.738350
vt 0.385178 0.772740
vt 0.385178 0.727189
vt 0.760674 0.393806
vt 0.756992 0.393806
vt 0.756992 0.004312
vt 0.760674 0.004312
vt 0.354254 0.734668
vt 0.308703 0.734668
vt 0.652790 0.393316
vt 0.649109 0.393316
vt 0.649109 0.003822
vt 0.652790 0.003822
vt 0.766411 0.393806
vt 0.766411 0.004312
vt 0.811962 0.004312
vt 0.811962 0.393806
vt 0.817242 0.393806
vt 0.817242 0.004312
vt 0.862793 0.004312
vt 0.862793 0.393806
vn -0.008877 -0.997208 0.074143
vn -0.994952 -0.070961 0.070961
vn -0.994952 -0.070961 -0.070961
vn -0.008877 -0.997208 -0.074143
vn -0.008877 -0.074144 0.997208
vn 0.008877 -0.997208 0.074143
vn 0.008877 -0.074144 0.997208
vn -0.008877 0.074144 0.997208
vn -0.994952 0.070961 0.070961
vn 0.994952 -0.070961 0.070961
vn 0.008877 -0.997208 -0.074143
vn 0.994952 -0.070961 -0.070961
vn 0.994952 0.070961 0.070961
vn 0.008877 0.074144 0.997208
vn -0.008877 0.997208 0.074144
vn -0.008877 0.997208 -0.074144
vn -0.994952 0.070961 -0.070961
vn 0.008877 0.997208 0.074144
vn 0.994952 0.070961 -0.070961
vn 0.008877 0.997208 -0.074144
vn -0.008877 0.074144 -0.997208
vn -0.008877 -0.074144 -0.997208
vn 0.008877 0.074144 -0.997208
vn 0.008877 -0.074144 -0.997208
s 1
g polySurface5 pCube8
usemtl lambert2SG
f 1/1/1 3/2/2 19/3/3 21/4/4
f 2/5/5 1/6/1 6/7/6 5/8/7
f 3/2/2 2/9/5 8/10/8 7/11/9
f 4/12/10 6/13/6 22/14/11 24/15/12
f 5/16/7 4/12/10 12/17/13 11/18/14
f 7/11/9 9/19/15 14/20/16 13/21/17
f 9/22/15 8/23/8 11/24/14 10/25/18
f 10/26/18 12/17/13 18/27/19 17/28/20
f 13/21/17 15/29/21 20/30/22 19/3/3
f 15/31/21 14/32/16 17/33/20 16/34/23
f 16/35/23 18/27/19 24/15/12 23/36/24
f 21/37/4 20/38/22 23/39/24 22/40/11
f 2/41/5 5/42/7 11/43/14 8/44/8
f 9/22/15 10/25/18 17/33/20 14/32/16
f 15/45/21 16/46/23 23/47/24 20/48/22
f 21/37/4 22/40/11 6/7/6 1/6/1
f 4/12/10 24/15/12 18/27/19 12/17/13
f 19/3/3 3/2/2 7/11/9 13/21/17
f 1/1/1 2/9/5 3/2/2
f 4/12/10 5/16/7 6/13/6
f 7/11/9 8/10/8 9/19/15
f 10/26/18 11/18/14 12/17/13
f 13/21/17 14/20/16 15/29/21
f 16/35/23 17/28/20 18/27/19
f 19/3/3 20/30/22 21/4/4
f 22/14/11 23/36/24 24/15/12
