# This file uses centimeters as units for non-parametric coordinates.

mtllib M_TileBig.mtl
g default
v -1.351040 -0.010302 -3.264346
v -1.647306 0.076423 -2.928245
v -1.410672 0.313059 -2.928626
v -1.401579 0.313059 2.691213
v -1.638249 0.076423 2.669602
v -1.314914 -0.023341 3.414273
v 1.526745 0.313059 3.136086
v 1.527188 0.076423 3.409673
v 1.763380 0.076423 3.135701
v 1.517235 0.313059 -2.741817
v 1.753695 0.076423 -2.849448
v 1.516480 0.076423 -3.208056
v -0.806849 0.313059 -3.072696
v -0.796810 0.313059 3.131806
v -0.796355 0.060369 3.413434
v -0.807161 0.076423 -3.265224
v -1.638927 0.076423 2.250199
v 1.762476 0.076423 2.576699
v 1.525841 0.313059 2.577085
v -0.797702 0.313059 2.580842
v -1.402293 0.313059 2.249818
v 0.955848 0.076423 -3.268077
v 0.966654 0.072551 3.410581
v 0.966208 0.313059 3.135053
v 0.965307 0.313059 2.577989
v 0.816114 0.313059 -3.064483
v -1.558978 0.004460 -0.003562
v 1.674248 0.004460 -0.285186
v 1.362823 0.229461 -0.240172
v 0.858467 0.229461 -0.082438
v -0.759427 0.229461 0.113652
v -1.333977 0.229461 -0.003928
vt 0.716555 0.456738
vt 0.694762 0.457523
vt 0.695524 0.341584
vt 0.717869 0.331949
vt 0.971547 0.770026
vt 0.985627 0.768961
vt 0.986068 0.787431
vt 0.972335 0.787700
vt 0.486522 0.875090
vt 0.503598 0.868901
vt 0.533491 0.952911
vt 0.516060 0.959035
vt 0.836790 0.824536
vt 0.820407 0.819975
vt 0.828041 0.792686
vt 0.843336 0.793493
vt 0.876542 0.817969
vt 0.870773 0.792356
vt 0.947245 0.785746
vt 0.950060 0.808739
vt 0.724399 0.493792
vt 0.714237 0.523926
vt 0.693775 0.505501
vt 0.976007 0.820363
vt 0.533146 0.994743
vt 0.542924 0.979656
vt 0.549635 0.996462
vt 0.837734 0.564218
vt 0.823688 0.560143
vt 0.833693 0.542999
vt 0.954295 0.823962
vt 0.830540 0.667843
vt 0.847124 0.669403
vt 0.869175 0.675489
vt 0.938824 0.680699
vt 0.963003 0.674510
vt 0.976450 0.673838
vt 0.880831 0.843908
vt 0.840889 0.850214
vt 0.857630 0.537263
vt 0.866361 0.549273
vt 0.934749 0.546095
vt 0.960432 0.551042
vt 0.974502 0.550805
vn -0.044155 0.652829 -0.756218
vn -0.003622 0.998338 -0.057517
vn 0.006604 0.997640 -0.068351
vn 0.078981 0.735637 -0.672756
vn -0.219577 0.974916 -0.036391
vn -0.706584 0.706519 -0.039625
vn -0.704914 0.690022 0.164210
vn -0.284845 0.942014 0.177408
vn -0.053360 0.949716 0.308533
vn -0.093683 0.783525 0.614257
vn -0.002665 0.750210 0.661195
vn -0.001138 0.959330 0.282286
vn 0.234405 0.943868 0.232741
vn 0.704479 0.704337 0.087284
vn 0.651739 0.757286 -0.041885
vn 0.284461 0.958085 -0.033977
vn -0.002121 0.999657 -0.026103
vn 0.000714 0.999656 -0.026201
vn -0.198277 0.662527 -0.722318
vn -0.707106 0.707106 0.001185
vn -0.246215 0.968904 -0.024548
vn -0.300759 0.813456 0.497828
vn 0.083383 0.752449 0.653351
vn 0.241502 0.970396 -0.002908
vn 0.649457 0.760228 0.016076
vn 0.210515 0.819820 -0.532521
vn 0.647512 0.762050 0.002721
vn 0.248218 0.968699 0.003116
vn -0.001028 1.000000 -0.000022
vn 0.001617 0.999994 -0.003190
vn -0.253031 0.967453 0.003092
vn -0.707106 0.707106 0.001133
s 1
g polySurface59 polySurface29
usemtl lambert5SG
f 16/1/1 13/2/2 26/3/3 22/4/4
f 21/5/5 17/6/6 5/7/7 4/8/8
f 14/9/9 15/10/10 23/11/11 24/12/12
f 7/13/13 9/14/14 18/15/15 19/16/16
f 24/17/12 25/18/17 20/19/18 14/20/9
f 1/21/19 2/22/20 3/23/21
f 4/8/8 5/7/7 6/24/22
f 7/25/13 8/26/23 9/27/14
f 10/28/24 11/29/25 12/30/26
f 14/20/9 20/19/18 21/5/5 4/8/8
f 4/8/8 6/24/22 15/31/10 14/20/9
f 1/21/19 3/23/21 13/2/2 16/1/1
f 19/16/16 18/15/15 28/32/27 29/33/28
f 25/18/17 30/34/29 31/35/30 20/19/18
f 21/5/5 20/19/18 31/35/30 32/36/31
f 32/36/31 27/37/32 17/6/6 21/5/5
f 24/17/12 23/38/11 8/39/23 7/13/13
f 19/16/16 25/18/17 24/17/12 7/13/13
f 29/33/28 30/34/29 25/18/17 19/16/16
f 22/40/4 26/41/3 10/28/24 12/30/26
f 29/33/28 28/32/27 11/29/25 10/28/24
f 10/28/24 26/41/3 30/34/29 29/33/28
f 31/35/30 30/34/29 26/41/3 13/42/2
f 32/36/31 31/35/30 13/42/2 3/43/21
f 3/43/21 2/44/20 27/37/32 32/36/31
