# This file uses centimeters as units for non-parametric coordinates.

mtllib M_TileSmall.mtl
g default
v -1.114517 -0.053954 -1.573084
v -0.835184 0.182888 -1.576413
v -0.835781 -0.056128 -1.810642
v -0.990332 -0.021860 1.590590
v -0.991318 0.212370 1.351578
v -1.156816 -0.024383 1.354529
v 1.997694 -0.053902 -1.820149
v 1.998291 0.185115 -1.585920
v 2.164177 -0.051377 -1.584084
v 2.173975 -0.021767 1.343352
v 1.760672 0.214532 1.342344
v 1.761658 -0.019697 1.581360
v 0.951756 0.145331 -1.542713
v 0.961077 0.173505 1.242540
v 0.962435 -0.095006 1.584796
v 0.951063 -0.139539 -1.815780
v -1.161880 -0.092654 -0.171542
v 2.120554 -0.090075 -0.182554
v 1.954676 0.137877 -0.184307
v 0.956362 0.099155 -0.180575
v -0.996376 0.135558 -0.174407
vt 0.086713 0.532538
vt 0.086855 0.518931
vt 0.160601 0.521690
vt 0.160467 0.535686
vt 0.127949 0.574945
vt 0.128103 0.555648
vt 0.179667 0.556453
vt 0.177707 0.571769
vt 0.288894 0.523631
vt 0.288965 0.502031
vt 0.327929 0.505288
vt 0.329555 0.521295
vt 0.281843 0.559888
vt 0.281958 0.546314
vt 0.354912 0.535203
vt 0.355378 0.557977
vt 0.097383 0.898568
vt 0.097326 0.848837
vt 0.168007 0.848638
vt 0.173486 0.888244
vt 0.024489 0.569810
vt 0.040845 0.555359
vt 0.041914 0.571210
vt 0.193902 0.504596
vt 0.192579 0.520489
vt 0.180197 0.505696
vt 0.191221 0.570970
vt 0.351195 0.506437
vt 0.097327 0.751800
vt 0.173218 0.751760
vt 0.214200 0.556877
vt 0.214663 0.543018
vt 0.029849 0.849124
vt 0.028679 0.900989
vt 0.027613 0.760059
vt 0.018667 0.539548
vt 0.018924 0.521773
vn -0.103783 0.994480 -0.015425
vn -0.770103 0.637268 -0.028811
vn -0.814852 0.579596 0.009168
vn -0.077894 0.992155 0.097776
vn -0.002639 0.695642 -0.718384
vn -0.001311 0.992176 -0.124837
vn 0.141144 0.982821 -0.118921
vn -0.014564 0.695760 -0.718126
vn -0.000854 0.996375 0.085061
vn 0.002223 0.756352 0.654161
vn -0.022879 0.750270 0.660736
vn 0.128104 0.988266 0.083179
vn 0.709688 0.704394 0.013130
vn 0.175721 0.984439 -0.001551
vn 0.619749 0.784241 0.029613
vn -0.000813 0.999950 -0.010004
vn -0.717431 0.692941 -0.071586
vn -0.070201 0.990807 -0.115644
vn -0.000210 0.695842 -0.718195
vn 0.018306 0.755381 0.655030
vn 0.814009 0.580839 0.004025
s 1
g polySurface60 polySurface29
usemtl lambert5SG
f 21/1/1 17/2/2 6/3/3 5/4/4
f 16/5/5 13/6/6 8/7/7 7/8/8
f 14/9/9 15/10/10 12/11/11 11/12/12
f 18/13/13 19/14/14 11/15/12 10/16/15
f 19/17/14 20/18/16 14/19/9 11/20/12
f 1/21/17 2/22/18 3/23/19
f 4/24/20 5/25/4 6/26/3
f 7/8/8 8/7/7 9/27/21
f 10/28/15 11/12/12 12/11/11
f 20/18/16 21/29/1 5/30/4 14/19/9
f 5/25/4 4/24/20 15/10/10 14/9/9
f 3/23/19 2/22/18 13/6/6 16/5/5
f 9/31/21 8/32/7 19/14/14 18/13/13
f 13/33/6 20/18/16 19/17/14 8/34/7
f 2/35/18 21/29/1 20/18/16 13/33/6
f 2/36/18 1/37/17 17/2/2 21/1/1
