# This file uses centimeters as units for non-parametric coordinates.

mtllib M_TileMed.mtl
g default
v 1.342192 0.193463 -2.128206
v 1.579914 -0.042052 -2.124472
v 1.345075 -0.045099 -2.362358
v 1.309126 -0.006126 2.383878
v 1.550210 -0.009850 1.796999
v 1.312490 0.225665 1.793266
v -1.852322 -0.023851 2.008346
v -1.618360 -0.019854 2.361817
v -1.616790 0.213883 2.008178
v -1.583450 -0.057701 -2.247094
v -1.822691 -0.055976 -1.903756
v -1.587158 0.181758 -1.903925
v -0.873932 -0.016363 2.367427
v -0.873240 0.218324 2.129371
v -0.840866 0.183226 -2.144658
v -0.837982 -0.055337 -2.378810
v 1.519954 -0.122274 0.658605
v 1.246435 0.215962 0.653758
v -0.845291 0.206154 0.637991
v -1.578052 0.150620 0.632900
v -1.802541 -0.034965 0.632723
vt 0.491811 0.020151
vt 0.491459 0.002787
vt 0.532262 0.009796
vt 0.530097 0.031148
vt 0.367009 0.168614
vt 0.389562 0.167660
vt 0.388678 0.226307
vt 0.371745 0.228329
vt 0.502915 0.256820
vt 0.502114 0.239433
vt 0.539121 0.231373
vt 0.542838 0.252531
vt 0.555993 0.231519
vt 0.535404 0.161174
vt 0.550440 0.160516
vt 0.497508 0.162882
vt 0.380289 0.025232
vt 0.363350 0.025074
vt 0.378368 0.008442
vt 0.388996 0.259061
vt 0.547120 0.029842
vn -0.016599 0.995532 -0.092955
vn -0.040421 0.718508 -0.694343
vn -0.208641 0.756121 -0.620283
vn -0.214856 0.975356 -0.050182
vn 0.746604 0.665268 0.000557
vn 0.106357 0.994301 -0.007314
vn 0.097649 0.989964 0.102155
vn 0.740232 0.672224 -0.013126
vn 0.013379 0.854467 0.519334
vn -0.006259 0.989416 0.144971
vn -0.217187 0.973223 0.075281
vn -0.122204 0.782830 0.610118
vn -0.680294 0.732919 0.005523
vn -0.233096 0.972405 -0.009783
vn -0.677100 0.735805 -0.011239
vn -0.013205 0.999878 -0.008305
vn 0.111813 0.990675 -0.077851
vn 0.745508 0.666418 0.010259
vn 0.026743 0.700392 -0.713257
vn 0.053620 0.871672 0.487148
vn -0.678745 0.734091 -0.020376
s 1
g polySurface61 polySurface29
usemtl lambert5SG
f 15/1/1 16/2/2 10/3/3 12/4/4
f 17/5/5 18/6/6 6/7/7 5/8/8
f 13/9/9 14/10/10 9/11/11 8/12/12
f 7/13/13 9/11/11 20/14/14 21/15/15
f 14/10/10 19/16/16 20/14/14 9/11/11
f 1/17/17 2/18/18 3/19/19
f 4/20/20 5/8/8 6/7/7
f 7/13/13 8/12/12 9/11/11
f 10/3/3 11/21/21 12/4/4
f 4/20/20 6/7/7 14/10/10 13/9/9
f 18/6/6 19/16/16 14/10/10 6/7/7
f 1/17/17 3/19/19 16/2/2 15/1/1
f 2/18/18 1/17/17 18/6/6 17/5/5
f 1/17/17 15/1/1 19/16/16 18/6/6
f 20/14/14 19/16/16 15/1/1 12/4/4
f 21/15/15 20/14/14 12/4/4 11/21/21
