# This file uses centimeters as units for non-parametric coordinates.

mtllib M_tiles.mtl
g default
v -1.492721 0.421395 3.503162
v -1.772341 0.657806 3.510513
v -1.773844 0.412104 3.737713
v -1.584897 0.545040 0.340645
v -1.586597 0.772245 0.586342
v -1.420810 0.535817 0.578217
v -4.607271 0.411671 3.718502
v -4.605768 0.657373 3.491302
v -4.771358 0.420894 3.480930
v -4.751543 0.535309 0.555634
v -4.338540 0.771826 0.567684
v -4.336839 0.544619 0.321987
v -3.558804 0.619739 3.457592
v -3.539950 0.728595 0.674374
v -3.537539 0.470114 0.324486
v -3.560554 0.327078 3.722286
v -1.431122 0.423361 2.101643
v -4.713500 0.422859 2.079388
v -4.547907 0.650804 2.089424
v -3.549562 0.613046 2.094711
v -1.596906 0.651255 2.109432
v -0.205964 0.338826 -7.596016
v -0.200853 0.041750 -7.381886
v 0.036765 0.065328 -7.616352
v -3.366901 0.157235 -7.624203
v -3.131368 0.143881 -7.386845
v -3.133974 0.327496 -7.609844
v 0.046015 0.459177 -10.522064
v -0.189518 0.472530 -10.759422
v -0.194209 0.619212 -10.510601
v -3.118949 0.459900 -10.535999
v -3.112573 0.236965 -10.790783
v -3.350192 0.213385 -10.556320
v 0.042734 0.401081 -9.779884
v -3.357279 0.327600 -9.800667
v -3.124352 0.497862 -9.786312
v -0.197490 0.561117 -9.768421
v -1.607435 0.364605 -7.653187
v -1.598161 0.528823 -9.751099
v -1.594997 0.584821 -10.466492
v -1.590344 0.437472 -10.706799
v -1.604792 0.181657 -7.438702
v 4.944739 0.760956 5.296496
v 5.210095 0.557251 5.287376
v 4.966269 0.524655 5.061026
v 5.155465 0.558792 9.803663
v 5.366413 0.585456 9.205873
v 5.101059 0.789161 9.214994
v 2.006912 0.143103 9.580261
v 2.255345 0.176530 9.922108
v 2.210385 0.408604 9.570232
v 2.071624 0.143381 5.316692
v 1.850966 0.114966 5.671125
v 2.054440 0.380467 5.661097
v 2.992814 0.273735 9.891989
v 2.952460 0.506641 9.655609
v 2.782088 0.475899 5.384821
v 2.803618 0.239599 5.149351
v 5.295475 0.470116 8.069582
v 4.981674 0.771218 8.079935
v 2.909501 0.498087 8.164561
v 2.190164 0.350724 8.194321
v 1.991056 0.138347 8.203792
v -3.965501 0.236453 -6.720868
v -4.236773 0.229404 -6.966824
v -4.225821 0.491269 -6.758742
v -7.049531 0.698231 -6.870580
v -7.060483 0.436366 -7.078662
v -7.232895 0.475935 -6.850281
v -6.754225 1.009778 -3.948896
v -7.235219 0.663558 -3.944237
v -6.779760 0.802844 -3.687133
v -4.150670 0.818952 -3.845776
v -4.176205 0.612019 -3.584017
v -4.003792 0.572450 -3.812397
v -4.127731 0.732544 -4.584845
v -6.945261 0.939053 -4.696438
v -7.300164 0.729329 -4.682934
v -3.980854 0.486042 -4.551466
v -6.021633 0.325554 -6.993817
v -6.128577 0.652308 -3.688971
v -6.093640 0.950255 -4.019724
v -6.073195 0.873240 -4.678452
v -6.009052 0.631624 -6.745061
v 3.319459 0.324184 -12.712837
v 3.080373 0.328208 -12.984257
v 3.087638 0.565532 -12.711361
v 0.160008 0.624229 -12.765728
v 0.153486 0.387123 -12.957569
v -0.081325 0.392404 -12.762890
v 3.373367 0.340040 -6.835197
v 3.142529 0.581678 -6.726475
v 3.141066 0.346060 -6.366821
v 0.213819 0.404869 -6.379570
v 0.213886 0.640076 -6.891376
v -0.027447 0.408252 -6.888538
v -0.075455 0.394131 -12.122860
v 0.165878 0.625955 -12.125698
v 3.092765 0.567040 -12.152386
v 3.324586 0.325692 -12.153858
v 2.082227 0.367549 -6.296234
v 2.085217 0.603616 -6.489437
v 2.033366 0.588364 -12.142727
v 2.029974 0.587367 -12.512646
v 2.021530 0.349696 -12.914005
v 0.028545 0.289527 -9.656292
v 0.353375 0.545679 -9.659962
v 2.036265 0.512375 -9.477329
v 3.045387 0.492630 -9.289593
v 3.263665 0.176549 -9.335255
v 6.538424 0.439909 -4.296082
v 6.307723 0.445740 -3.894318
v 6.550092 0.676471 -3.897869
v 6.609263 0.676471 0.139534
v 6.366895 0.445740 0.143085
v 6.606893 0.439909 0.375713
v 9.527583 0.604324 -0.454571
v 9.506953 0.224392 0.192574
v 9.758290 0.361930 -0.457951
v 9.473025 0.604324 -4.177193
v 9.703731 0.361930 -4.180573
v 9.463733 0.367761 -4.413200
v 8.728873 0.622671 -4.166286
v 8.787917 0.622671 -0.137718
v 8.789140 0.386107 0.343731
v 8.719583 0.386107 -4.402294
v 6.383412 0.405483 -1.348911
v 9.702733 0.264226 -1.397560
v 9.416263 0.606729 -1.393364
v 8.753009 0.623081 -1.383640
v 6.672189 0.674381 -1.353146
v 3.585958 0.250526 -4.020304
v 3.727517 0.343749 -3.760242
v 3.798540 0.528025 -3.971945
v 6.228690 1.097904 -2.660625
v 6.157667 0.913629 -2.448923
v 6.398409 0.910057 -2.502694
v 6.673428 0.748556 -3.808732
v 6.993000 0.588248 -3.593198
v 6.781218 0.478558 -3.891153
v 4.317303 0.188435 -5.103365
v 4.414447 -0.076459 -5.168273
v 4.173706 -0.072887 -5.114501
v 5.389124 0.723823 -2.892943
v 6.176535 0.346337 -4.188131
v 6.058242 0.621371 -4.088433
v 5.446189 0.882978 -3.067863
v 4.127560 0.347285 -4.583539
v 5.806717 0.741952 -3.674707
v 6.712877 0.865784 -3.457049
v 6.882599 0.677936 -3.299121
v 3.917841 0.070457 -4.630354
v -0.073689 0.668732 -7.460934
v 0.167425 0.436689 -7.464470
v -0.072601 0.432141 -7.697094
v -0.003044 0.432141 -2.951069
v 0.224895 0.436689 -3.543171
v -0.016218 0.668732 -3.539639
v -3.171509 0.371329 -3.256382
v -2.929789 0.375877 -2.908176
v -2.939491 0.612468 -3.259781
v -2.997334 0.375877 -7.516880
v -3.228842 0.371329 -7.168308
v -2.996823 0.612468 -7.171707
v -2.185551 0.390184 -2.919083
v -2.193558 0.626776 -3.155109
v -2.256195 0.626776 -7.428947
v -2.255108 0.390184 -7.665108
v 0.170832 0.333059 -4.681519
v -0.107573 0.667297 -4.677441
v -2.198771 0.627096 -4.646790
v -2.930585 0.560920 -4.636066
v -3.152324 0.372085 -4.632816
v 1.383294 -0.049824 9.948620
v 0.735636 0.190147 10.116608
v 1.126442 0.364992 7.187893
v 1.481040 0.133472 7.169067
v 1.125778 0.142435 6.937973
v -2.986660 0.140401 10.170784
v -3.127258 0.071885 7.236137
v -2.785142 0.312715 7.244823
v -2.785806 0.090158 6.994904
v -0.248811 0.093013 7.008373
v -0.248804 0.307315 7.205635
v -0.205522 0.143989 10.029484
v -3.007327 0.160017 8.768818
v -0.224696 0.159325 8.726128
v 1.197243 0.216208 8.707623
v 1.436166 -0.008330 8.690975
v -6.453751 0.765191 -0.006966
v -6.455356 0.533943 0.234932
v -6.288062 0.528641 -0.000515
v -9.618795 0.528132 -0.023098
v -9.207298 0.533522 0.216274
v -9.205693 0.764770 -0.025623
v -9.350535 0.456939 -3.184784
v -9.598942 0.462228 -2.949890
v -9.352140 0.698841 -2.953545
v -6.364580 0.462722 -2.927959
v -6.605167 0.457357 -3.166172
v -6.606771 0.699260 -2.934929
v -9.603990 0.478987 -2.205639
v -9.438301 0.715587 -2.209843
v -6.438946 0.716045 -2.189507
v -6.273257 0.479495 -2.183056
v -8.407762 0.429892 0.184658
v -8.405918 0.763211 -0.094868
v -8.391732 0.716121 -2.186100
v -8.386761 0.647535 -2.917755
v -8.385233 0.457972 -3.138889
v -9.295330 0.575322 8.522411
v -9.295330 0.342254 8.282261
v -9.461022 0.338713 8.518871
v -6.130213 0.338713 8.518871
v -6.543324 0.342254 8.282261
v -6.543324 0.575322 8.522411
v -6.377020 0.291364 11.682751
v -6.130213 0.294905 11.446144
v -6.377020 0.531514 11.449684
v -9.364649 0.294905 11.446144
v -9.122452 0.291364 11.682751
v -9.122452 0.531514 11.449684
v -6.130213 0.306045 10.701771
v -6.295906 0.542654 10.705311
v -9.295330 0.542654 10.705311
v -9.461022 0.306045 10.701771
v -7.342612 0.238785 8.320076
v -7.342612 0.574204 8.597088
v -7.342612 0.542903 10.688660
v -7.342612 0.479842 11.420830
v -7.342612 0.291954 11.643394
v -9.798423 0.676639 -4.472492
v -9.798423 0.447812 -4.649853
v -9.980185 0.440248 -4.483223
v -6.727706 0.440248 -4.483223
v -6.947791 0.447812 -4.649853
v -6.947791 0.673856 -4.411156
v -6.831138 0.374561 -3.036221
v -6.649375 0.382126 -3.202850
v -6.831138 0.618518 -3.192120
v -9.980185 0.382126 -3.202850
v -9.798423 0.374561 -3.036221
v -9.798423 0.618518 -3.192120
v -7.738403 0.369828 -4.626747
v -7.738403 0.675682 -4.451389
v -7.738403 0.605165 -3.166035
v -7.738403 0.375768 -3.062813
v -6.649375 0.421151 -4.062534
v -6.831138 0.657543 -4.051804
v -7.738403 0.644254 -3.759083
v -9.699074 0.644141 -3.756588
v -9.938879 0.407750 -3.767319
v -3.243169 0.489950 -4.325737
v -3.244061 0.726490 -3.927341
v -3.000818 0.496680 -3.930908
v -6.403413 0.399958 -4.117523
v -6.173628 0.643227 -4.120892
v -6.170360 0.406688 -4.357082
v -2.941646 0.496680 0.106499
v -3.184889 0.726490 0.110062
v -3.174700 0.489950 0.346058
v -6.100802 0.406688 0.388943
v -6.116158 0.643227 -0.199596
v -6.345943 0.399958 -0.196228
v -3.244907 0.686027 -1.380814
v -6.028891 0.606809 -1.340012
v -6.360511 0.325304 -1.335152
v -2.961092 0.411896 -1.384975
v -4.642947 0.397298 -4.379467
v -4.574400 0.397298 0.297657
v -4.584346 0.625299 0.061657
v -4.604116 0.587375 -1.360893
v -4.645974 0.625299 -4.143280
v 1.761372 0.569019 -2.865326
v 2.156729 0.810111 -2.849922
v 2.162142 0.584780 -3.097286
v 1.890020 0.423450 0.297085
v 1.889575 0.670842 0.071720
v 1.656416 0.431677 0.058109
v 6.199449 0.632734 -3.052624
v 6.194036 0.858065 -2.805264
v 6.433053 0.624509 -2.813648
v 6.402328 0.488048 0.110607
v 5.810775 0.717417 0.115097
v 5.811221 0.470026 0.340462
v 4.702709 0.799204 -2.784336
v 4.673475 0.669370 -0.002106
v 4.673279 0.381901 0.324390
v 4.709097 0.530299 -3.073067
v 1.673094 0.450067 -1.469292
v 6.350106 0.505621 -1.417557
v 6.111196 0.730647 -1.409565
v 4.689161 0.675854 -1.427067
v 1.906358 0.680702 -1.456078
v -5.936028 0.089631 13.541927
v -6.037366 0.382204 13.206680
v -6.263028 0.135084 13.207516
v -2.866333 0.289269 13.018028
v -3.113452 0.514932 13.018948
v -3.101145 0.278541 13.444115
v -6.283890 0.135084 7.587708
v -6.058146 0.382204 7.608864
v -5.946647 0.064929 6.863255
v -3.223449 0.212776 6.900162
v -3.134290 0.514932 7.405598
v -2.887172 0.289269 7.404682
v -6.056589 0.382204 8.028263
v -3.133252 0.514932 7.685406
v -2.886133 0.289269 7.684490
v -6.282251 0.135084 8.029102
v -4.966832 0.193854 13.538330
v -4.925338 0.142246 6.920055
v -5.001519 0.430246 7.084282
v -4.999262 0.430246 7.692333
v -4.978275 0.430246 13.345840
v -5.972545 0.301956 10.281597
v -4.966465 0.347636 10.159355
v -3.285172 0.423939 10.153114
v -2.955534 0.176391 10.151890
v -6.187112 0.066985 10.282394
v -3.411666 0.695247 -12.000412
v -3.168350 0.465529 -12.004742
v -3.407722 0.460142 -12.238022
v -3.350384 0.431451 -7.491920
v -3.120976 0.441823 -8.083382
v -3.364292 0.671542 -8.079052
v -6.517333 0.342460 -7.805939
v -6.276564 0.347149 -7.457077
v -6.287609 0.585808 -7.807243
v -6.332242 0.375010 -12.065857
v -6.564593 0.366111 -11.717930
v -6.334870 0.609457 -11.719234
v -5.532469 0.368585 -7.465939
v -5.542118 0.606546 -7.700523
v -5.593750 0.632383 -11.974430
v -5.589807 0.397278 -12.212040
v -3.171121 0.344726 -9.222485
v -3.452700 0.676276 -9.217079
v -5.543493 0.616042 -9.192184
v -6.274671 0.542858 -9.183792
v -6.494613 0.351912 -9.182289
v -6.515201 0.230518 3.989552
v -6.179579 0.530764 3.915592
v -6.179579 0.304462 3.669056
v -6.002702 0.159078 7.066818
v -6.002702 0.405613 6.840515
v -6.427914 0.169195 6.830402
v -0.559731 0.304462 3.669056
v -0.581727 0.530764 3.915592
v 0.163466 0.204664 4.001495
v 0.116449 0.112310 6.726982
v -0.389315 0.405613 6.840515
v -0.389315 0.159078 7.066818
v -1.001128 0.530764 3.915592
v -0.669125 0.405613 6.840515
v -0.669125 0.159078 7.066818
v -1.001128 0.304462 3.669056
v -6.515201 0.249047 4.964165
v 0.102873 0.191826 5.025429
v -0.061070 0.485466 4.974281
v -0.669125 0.485466 4.974281
v -6.322670 0.485466 4.974281
v -3.254759 0.444168 3.983917
v -3.136251 0.401096 4.990555
v -3.136251 0.329148 6.672054
v -3.136251 0.053552 6.978630
v -3.254759 0.228990 3.749500
v -9.418536 0.398633 3.645248
v -9.649308 0.398633 4.047012
v -9.412699 0.635268 4.043545
v -9.353527 0.635268 8.080952
v -9.590137 0.398633 8.084419
v -9.350066 0.398633 8.317043
v -6.434319 0.635268 7.486832
v -6.445578 0.254708 8.133839
v -6.197709 0.398633 7.483364
v -6.488877 0.635268 3.764210
v -6.252267 0.398633 3.760742
v -6.492337 0.398633 3.528118
v -7.233254 0.635268 3.775120
v -7.174212 0.635268 7.803688
v -7.167157 0.398633 8.285053
v -7.236714 0.398633 3.539028
v -9.572639 0.359334 6.592403
v -6.250845 0.299929 6.543720
v -6.545669 0.635268 6.548042
v -7.209125 0.635268 6.557766
v -9.290576 0.635268 6.588272
v -6.585324 0.280250 -4.619503
v -6.289762 0.366976 -4.956223
v -6.526395 0.603611 -4.955345
v -6.547257 0.603611 -10.575153
v -6.310542 0.366976 -10.554035
v -6.635436 0.267211 -11.298031
v -9.476506 0.603611 -11.013889
v -9.477522 0.366976 -11.287479
v -9.713140 0.366976 -11.013012
v -9.454686 0.603611 -5.136024
v -9.690922 0.366976 -5.027897
v -9.452955 0.366976 -4.669785
v -7.129914 0.603611 -4.810013
v -7.152947 0.603611 -11.014481
v -7.153992 0.350921 -11.296104
v -7.129200 0.366976 -4.617481
v -6.308985 0.366976 -10.134640
v -9.711064 0.366976 -10.454014
v -9.474431 0.603611 -10.454891
v -7.150901 0.603611 -10.463520
v -6.545618 0.603611 -10.133762
v -8.892199 0.366976 -4.610939
v -8.916991 0.363103 -11.289558
v -8.915969 0.603611 -11.014034
v -8.913900 0.603611 -10.456974
v -8.752892 0.603611 -4.814823
v -6.384215 0.295012 -7.880714
v -9.616844 0.295012 -7.592319
v -9.305514 0.520014 -7.637985
v -8.801490 0.520014 -7.796776
v -7.184009 0.520014 -7.996250
v -6.609215 0.520014 -7.879879
v -7.375868 0.454233 -16.147953
v -7.255052 0.644789 -15.743277
v -7.046818 0.396525 -15.826916
v -10.384154 0.616493 -15.166895
v -10.136305 0.837800 -15.206726
v -10.215986 0.629232 -15.455523
v -6.022924 -0.051805 -11.946865
v -6.231160 0.196459 -11.863228
v -6.191092 -0.064543 -11.658237
v -9.012385 0.102213 -10.894467
v -9.141858 0.402363 -11.438260
v -9.389708 0.181057 -11.398429
v -6.650558 0.325260 -13.289928
v -9.334823 0.483917 -12.563255
v -9.684784 0.233423 -12.499848
v -6.408255 0.029655 -13.388023
v -8.749154 0.489853 -15.858702
v -7.563027 -0.029515 -11.363865
v -7.603810 0.223013 -11.569645
v -7.967744 0.343334 -12.940253
v -8.670189 0.689947 -15.610698
v 9.537946 0.685349 -11.450729
v 9.779059 0.454821 -11.477440
v 9.539033 0.473546 -11.709354
v 9.608590 -0.000809 -6.987094
v 9.836529 0.062896 -7.575776
v 9.595416 0.293424 -7.549069
v 6.440125 -0.030801 -7.296956
v 6.681846 -0.061078 -6.950039
v 6.672144 0.209471 -7.276237
v 6.614301 0.399552 -11.535666
v 6.382793 0.360187 -11.189294
v 6.614811 0.600459 -11.168574
v 7.426084 -0.045753 -6.959461
v 7.418077 0.213244 -7.170659
v 7.355440 0.640405 -11.423097
v 7.356527 0.428602 -11.681721
v 9.782466 0.073560 -8.718781
v 9.504062 0.405717 -8.681318
v 7.412864 0.362653 -8.654838
v 6.681050 0.295736 -8.650783
v 6.459311 0.107523 -8.666422
v -7.459104 -0.164449 -0.639448
v -7.197372 0.130526 -0.396227
v -7.015244 -0.124993 -0.512554
v -9.671662 0.167536 1.603976
v -9.506440 0.377192 1.402140
v -9.658140 0.107624 1.275380
v -4.276481 0.507418 2.386303
v -4.458609 0.762937 2.502630
v -4.290005 0.567332 2.714902
v -6.438686 0.851032 4.683027
v -6.846440 0.991416 4.217633
v -7.011663 0.781760 4.419468
v -5.497759 0.494442 1.465309
v -7.542084 0.764363 3.337846
v -7.781563 0.529959 3.615237
v -5.285163 0.190435 1.330776
v -8.535755 -0.092249 0.258585
v -5.363039 0.640367 3.616761
v -5.531338 0.827578 3.406032
v -6.494958 0.567464 2.391506
v -8.383750 0.168925 0.386888
v 7.985963 0.123615 11.484123
v 8.227189 0.136421 11.088757
v 7.992501 0.374907 11.094921
v 8.039277 0.525230 7.060154
v 8.273965 0.286743 7.053989
v 8.040088 0.297558 6.815380
v 5.105581 0.529748 7.578003
v 5.130718 0.173366 6.917755
v 4.867047 0.295309 7.566505
v 5.062453 0.391145 11.298195
v 4.823918 0.156707 11.286697
v 5.057795 0.145892 11.525303
v 5.806836 0.384777 11.306587
v 5.853509 0.534771 7.280651
v 5.857162 0.316231 6.790771
v 5.802176 0.139524 11.533695
v 8.217010 0.192280 8.542542
v 4.894709 0.161334 8.502872
v 5.192260 0.493906 8.518711
v 5.855721 0.488230 8.526192
v 7.937188 0.470425 8.549660
v 3.247304 0.457480 -5.447834
v 3.636452 0.424680 -4.806698
v 3.491300 0.686490 -5.451408
v 6.423499 0.593628 -5.058651
v 6.421147 0.357112 -4.706871
v 6.652484 0.349605 -5.062008
v 3.192745 0.457480 -9.170456
v 3.436741 0.686490 -9.174030
v 3.425776 0.449974 -9.410015
v 6.353602 0.357112 -9.315575
v 6.366166 0.593628 -8.970581
v 6.595151 0.349605 -8.973938
v 6.579362 0.323195 -6.437092
v 6.402085 0.554287 -6.434494
v 3.574915 0.644018 -6.393059
v 3.230430 0.359948 -6.388008
v 4.824155 0.352732 -9.430508
v 4.834849 0.580712 -9.194523
v 4.874424 0.542791 -6.412102
v 4.896477 0.580712 -4.989582
v 4.892702 0.352732 -4.753384
v 1.725276 0.676639 0.438408
v 1.725276 0.447812 0.261047
v 1.543514 0.440248 0.427677
v 4.795993 0.440248 0.427677
v 4.575908 0.447812 0.261047
v 4.575908 0.673856 0.499744
v 4.692560 0.374561 1.874680
v 4.874323 0.382126 1.708050
v 4.692560 0.618518 1.718781
v 1.543514 0.382126 1.708050
v 1.725276 0.374561 1.874680
v 1.725276 0.618518 1.718781
v 3.785295 0.369828 0.284153
v 3.785295 0.675682 0.459507
v 3.785295 0.605165 1.744865
v 3.785295 0.375768 1.848087
v 4.874323 0.421151 0.848366
v 4.692560 0.657543 0.859097
v 3.785295 0.644254 1.151817
v 1.824626 0.644141 1.154312
v 1.584820 0.407750 1.143581
v 5.135919 0.280250 0.207577
v 4.839651 0.366976 0.543678
v 5.076286 0.603611 0.543297
v 5.085380 0.603611 6.163136
v 4.848709 0.366976 6.141525
v 5.172045 0.267211 6.886196
v 8.013705 0.603611 6.608006
v 8.014148 0.366976 6.881596
v 8.250339 0.366976 6.607624
v 8.004193 0.603611 0.730106
v 8.240655 0.366976 0.622475
v 8.003440 0.366976 0.263866
v 5.680110 0.603611 0.399227
v 5.690148 0.603611 6.603733
v 5.690604 0.350921 6.885357
v 5.679797 0.366976 0.206699
v 4.848030 0.366976 5.722122
v 8.249434 0.366976 6.048622
v 8.012801 0.603611 6.049007
v 5.689258 0.603611 6.052765
v 5.084665 0.603611 5.721741
v 7.442807 0.366976 0.203846
v 7.453614 0.363103 6.882504
v 7.453168 0.603611 6.606976
v 7.452266 0.603611 6.049915
v 7.303075 0.603611 0.407440
v 4.927980 0.295012 3.468361
v 8.161208 0.295012 3.186737
v 7.849782 0.520014 3.231750
v 7.345426 0.520014 3.389484
v 5.727532 0.520014 3.585575
v 5.152982 0.520014 3.467995
v 6.567964 0.498194 -7.522026
v 6.847297 0.735014 -7.517338
v 6.846700 0.504061 -7.759521
v 6.692149 0.423209 -4.359077
v 6.691163 0.665393 -4.590027
v 6.525664 0.428675 -4.595089
v 9.680175 0.506608 -7.768948
v 9.680772 0.737561 -7.526764
v 9.846658 0.501142 -7.532932
v 9.856456 0.431669 -4.606171
v 9.443152 0.667866 -4.599182
v 9.444139 0.425683 -4.368229
v 8.634236 0.696338 -7.484928
v 8.643558 0.630240 -4.700317
v 8.644916 0.350301 -4.367344
v 8.633544 0.420872 -7.767479
v 6.520600 0.412087 -6.122597
v 9.803035 0.415038 -6.133514
v 9.637156 0.642919 -6.127552
v 8.638843 0.604092 -6.125134
v 6.686105 0.640266 -6.117737
v -1.351040 0.329242 -2.948181
v -1.647306 0.415968 -2.612080
v -1.410672 0.652603 -2.612461
v -1.401579 0.652603 3.007378
v -1.638249 0.415968 2.985767
v -1.314914 0.316203 3.730438
v 1.526745 0.652603 3.452251
v 1.527188 0.415968 3.725838
v 1.763380 0.415968 3.451866
v 1.517235 0.652603 -2.425652
v 1.753695 0.415968 -2.533283
v 1.516480 0.415968 -2.891891
v -0.806849 0.652603 -2.756531
v -0.796810 0.652603 3.447971
v -0.796355 0.399914 3.729599
v -0.807161 0.415968 -2.949059
v -1.638927 0.415968 2.566364
v 1.762476 0.415968 2.892864
v 1.525841 0.652603 2.893250
v -0.797702 0.652603 2.897007
v -1.402293 0.652603 2.565983
v 0.955848 0.415968 -2.951912
v 0.966654 0.412095 3.726746
v 0.966208 0.652603 3.451218
v 0.965307 0.652603 2.894154
v 0.816114 0.652603 -2.748318
v -1.558978 0.344004 0.312603
v 1.674248 0.344004 0.030979
v 1.362823 0.569006 0.075993
v 0.858467 0.569006 0.233727
v -0.759427 0.569006 0.429817
v -1.333977 0.569006 0.312237
v -1.701356 0.858590 -3.713785
v -1.545994 0.624375 -3.747533
v -1.701115 0.650483 -3.927619
v -1.705424 0.183826 -0.708794
v -1.549771 0.215374 -0.926400
v -1.762321 0.449601 -0.892724
v -3.054440 0.198923 -0.812924
v -2.899319 0.172815 -0.632838
v -2.899078 0.433080 -0.778768
v -2.894906 0.650710 -3.929184
v -3.050508 0.624661 -3.749506
v -2.895146 0.858818 -3.715350
v -1.573516 0.252753 -1.719890
v -1.723758 0.563029 -1.675107
v -2.922709 0.551228 -1.678425
v -3.028445 0.329091 -1.710770
v -2.097769 0.172663 -0.631787
v -2.097528 0.432928 -0.777718
v -2.369250 0.563151 -1.675953
v -2.368979 0.844463 -3.616341
v -2.368661 0.644684 -3.887617
vt 0.086713 0.532538
vt 0.086855 0.518931
vt 0.160601 0.521690
vt 0.160467 0.535686
vt 0.127949 0.574945
vt 0.128103 0.555648
vt 0.179667 0.556453
vt 0.177707 0.571769
vt 0.288894 0.523631
vt 0.288965 0.502031
vt 0.327929 0.505288
vt 0.329555 0.521295
vt 0.281843 0.559888
vt 0.281958 0.546314
vt 0.354912 0.535203
vt 0.355378 0.557977
vt 0.097383 0.898568
vt 0.097326 0.848837
vt 0.168007 0.848638
vt 0.173486 0.888244
vt 0.024489 0.569810
vt 0.040845 0.555359
vt 0.041914 0.571210
vt 0.193902 0.504596
vt 0.192579 0.520489
vt 0.180197 0.505696
vt 0.191221 0.570970
vt 0.351195 0.506437
vt 0.097327 0.751800
vt 0.173218 0.751760
vt 0.214200 0.556877
vt 0.214663 0.543018
vt 0.029849 0.849124
vt 0.028679 0.900989
vt 0.027613 0.760059
vt 0.018667 0.539548
vt 0.018924 0.521773
vt 0.019448 0.676178
vt 0.033612 0.676322
vt 0.034020 0.711753
vt 0.020855 0.714282
vt 0.086713 0.532538
vt 0.086855 0.518931
vt 0.160601 0.521690
vt 0.160467 0.535686
vt 0.193929 0.398898
vt 0.179730 0.398518
vt 0.186387 0.360318
vt 0.202357 0.363316
vt 0.087276 0.382253
vt 0.087606 0.368551
vt 0.161865 0.363635
vt 0.161206 0.379909
vt 0.087172 0.417109
vt 0.160969 0.416129
vt 0.024489 0.569810
vt 0.040845 0.555359
vt 0.041914 0.571210
vt 0.193902 0.504596
vt 0.192579 0.520489
vt 0.180197 0.505696
vt 0.033041 0.727614
vt 0.201514 0.347255
vt 0.018468 0.415836
vt 0.018924 0.521773
vt 0.018858 0.379254
vt 0.019107 0.365145
vt 0.018667 0.539548
vt 0.491811 0.020151
vt 0.491459 0.002787
vt 0.532262 0.009796
vt 0.530097 0.031148
vt 0.367009 0.168614
vt 0.389562 0.167660
vt 0.388678 0.226307
vt 0.371745 0.228329
vt 0.502915 0.256820
vt 0.502114 0.239433
vt 0.539121 0.231373
vt 0.542838 0.252531
vt 0.555993 0.231519
vt 0.535404 0.161174
vt 0.550440 0.160516
vt 0.497508 0.162882
vt 0.380289 0.025232
vt 0.363350 0.025074
vt 0.378368 0.008442
vt 0.388996 0.259061
vt 0.547120 0.029842
vt 0.019448 0.676178
vt 0.033612 0.676322
vt 0.034020 0.711753
vt 0.020855 0.714282
vt 0.127949 0.574945
vt 0.128103 0.555648
vt 0.179667 0.556453
vt 0.177707 0.571769
vt 0.170051 0.676091
vt 0.190019 0.676615
vt 0.187492 0.713845
vt 0.159502 0.711000
vt 0.162071 0.726581
vt 0.128442 0.729908
vt 0.128174 0.707996
vt 0.128174 0.675455
vt 0.024489 0.569810
vt 0.040845 0.555359
vt 0.041914 0.571210
vt 0.191221 0.570970
vt 0.033041 0.727614
vt 0.836790 0.824536
vt 0.820407 0.819975
vt 0.828041 0.792686
vt 0.843336 0.793493
vt 0.601939 0.983955
vt 0.593825 0.961753
vt 0.681556 0.928602
vt 0.687211 0.942575
vt 0.807410 0.784776
vt 0.794853 0.786174
vt 0.791879 0.762181
vt 0.804742 0.760533
vt 0.792674 0.294035
vt 0.792957 0.272840
vt 0.925270 0.254714
vt 0.922865 0.293881
vt 0.554070 0.510606
vt 0.554032 0.493521
vt 0.640277 0.481090
vt 0.640288 0.510591
vt 0.533146 0.994743
vt 0.542924 0.979656
vt 0.549635 0.996462
vt 0.696084 0.925336
vt 0.837734 0.564218
vt 0.823688 0.560143
vt 0.833693 0.542999
vt 0.776920 0.534552
vt 0.788612 0.555734
vt 0.775622 0.556633
vt 0.778524 0.665470
vt 0.794794 0.664202
vt 0.632620 0.624547
vt 0.554980 0.633668
vt 0.830540 0.667843
vt 0.847124 0.669403
vt 0.718611 0.292352
vt 0.717601 0.262171
vt 0.505163 0.510606
vt 0.508461 0.642749
vt 0.505166 0.484799
vt 0.554070 0.771640
vt 0.640284 0.752316
vt 0.505162 0.761165
vt 0.617753 0.001929
vt 0.617491 0.019040
vt 0.580271 0.019115
vt 0.577859 0.002843
vt 0.722651 0.160129
vt 0.742665 0.160342
vt 0.741743 0.236167
vt 0.725481 0.234571
vt 0.616756 0.222037
vt 0.616037 0.249086
vt 0.577289 0.243802
vt 0.580271 0.206575
vt 0.563817 0.208578
vt 0.560632 0.159658
vt 0.583360 0.159581
vt 0.617837 0.159581
vt 0.728780 0.008757
vt 0.743935 0.031284
vt 0.727222 0.031932
vt 0.726194 0.251004
vt 0.563549 0.018330
vt 0.064962 0.355443
vt 0.064408 0.336258
vt 0.093341 0.339900
vt 0.097101 0.354005
vt 0.023239 0.237601
vt 0.010842 0.237840
vt 0.010883 0.192868
vt 0.023932 0.194751
vt 0.068009 0.192323
vt 0.067928 0.179230
vt 0.081669 0.184556
vt 0.083020 0.199607
vt 0.095918 0.196365
vt 0.101084 0.232473
vt 0.084746 0.233852
vt 0.059454 0.235908
vt 0.025339 0.353145
vt 0.013258 0.336887
vt 0.027834 0.335386
vt 0.021610 0.181564
vt 0.107959 0.340144
vt 0.491811 0.020151
vt 0.491459 0.002787
vt 0.532262 0.009796
vt 0.530097 0.031148
vt 0.367009 0.168614
vt 0.389562 0.167660
vt 0.388678 0.226307
vt 0.371745 0.228329
vt 0.502915 0.256820
vt 0.502114 0.239433
vt 0.539121 0.231373
vt 0.542838 0.252531
vt 0.555993 0.231519
vt 0.535404 0.161174
vt 0.550440 0.160516
vt 0.497508 0.162882
vt 0.380289 0.025232
vt 0.363350 0.025074
vt 0.378368 0.008442
vt 0.388996 0.259061
vt 0.547120 0.029842
vt 0.434369 0.454451
vt 0.434922 0.437752
vt 0.511615 0.439799
vt 0.510744 0.461049
vt 0.555993 0.231519
vt 0.539121 0.231373
vt 0.535404 0.161174
vt 0.550440 0.160516
vt 0.828930 0.085606
vt 0.828936 0.011735
vt 0.908283 0.014123
vt 0.908233 0.085609
vt 0.542838 0.252531
vt 0.532262 0.009796
vt 0.547120 0.029842
vt 0.530097 0.031148
vt 0.828924 0.230051
vt 0.908256 0.217305
vt 0.761268 0.085606
vt 0.756124 0.230089
vt 0.756083 0.036726
vt 0.360320 0.475157
vt 0.369609 0.439420
vt 0.193929 0.398898
vt 0.179730 0.398518
vt 0.186387 0.360318
vt 0.202357 0.363316
vt 0.288894 0.523631
vt 0.288965 0.502031
vt 0.327929 0.505288
vt 0.329555 0.521295
vt 0.354637 0.398218
vt 0.340318 0.398221
vt 0.335584 0.362748
vt 0.351716 0.359933
vt 0.336704 0.346910
vt 0.288894 0.363336
vt 0.288857 0.348990
vt 0.289080 0.399366
vt 0.193902 0.504596
vt 0.192579 0.520489
vt 0.180197 0.505696
vt 0.351195 0.506437
vt 0.201514 0.347255
vt 0.193929 0.398898
vt 0.179730 0.398518
vt 0.186387 0.360318
vt 0.202357 0.363316
vt 0.288894 0.523631
vt 0.288965 0.502031
vt 0.327929 0.505288
vt 0.329555 0.521295
vt 0.354637 0.398218
vt 0.340318 0.398221
vt 0.335584 0.362748
vt 0.351716 0.359933
vt 0.336704 0.346910
vt 0.288894 0.363336
vt 0.288857 0.348990
vt 0.289080 0.399366
vt 0.193902 0.504596
vt 0.192579 0.520489
vt 0.180197 0.505696
vt 0.351195 0.506437
vt 0.201514 0.347255
vt 0.300508 0.176222
vt 0.299973 0.158227
vt 0.330975 0.156993
vt 0.328421 0.170868
vt 0.250024 0.277579
vt 0.268297 0.276991
vt 0.271238 0.317898
vt 0.254230 0.320519
vt 0.293170 0.340221
vt 0.293080 0.323905
vt 0.335772 0.319861
vt 0.339369 0.334264
vt 0.349840 0.321221
vt 0.334797 0.274285
vt 0.347663 0.273704
vt 0.304353 0.275697
vt 0.264538 0.173171
vt 0.250294 0.172470
vt 0.261341 0.159274
vt 0.265531 0.335360
vt 0.342549 0.169160
vt 0.598292 0.450054
vt 0.598577 0.433479
vt 0.675699 0.436464
vt 0.675427 0.453412
vt 0.722651 0.160129
vt 0.742665 0.160342
vt 0.741743 0.236167
vt 0.725481 0.234571
vt 0.367009 0.168614
vt 0.389562 0.167660
vt 0.388678 0.226307
vt 0.371745 0.228329
vt 0.435627 0.294395
vt 0.435863 0.277852
vt 0.511413 0.261568
vt 0.512401 0.292979
vt 0.434932 0.645942
vt 0.432434 0.584849
vt 0.489482 0.586157
vt 0.495457 0.631024
vt 0.728780 0.008757
vt 0.743935 0.031284
vt 0.727222 0.031932
vt 0.380289 0.025232
vt 0.363350 0.025074
vt 0.378368 0.008442
vt 0.726194 0.251004
vt 0.388996 0.259061
vt 0.438694 0.474244
vt 0.498207 0.478084
vt 0.364669 0.291085
vt 0.365580 0.274364
vt 0.374102 0.580753
vt 0.362141 0.648507
vt 0.382163 0.478883
vt 0.526727 0.460330
vt 0.527242 0.436709
vt 0.598292 0.450054
vt 0.598577 0.433479
vt 0.675699 0.436464
vt 0.675427 0.453412
vt 0.722651 0.160129
vt 0.742665 0.160342
vt 0.741743 0.236167
vt 0.725481 0.234571
vt 0.367009 0.168614
vt 0.389562 0.167660
vt 0.388678 0.226307
vt 0.371745 0.228329
vt 0.435627 0.294395
vt 0.435863 0.277852
vt 0.511413 0.261568
vt 0.512401 0.292979
vt 0.434932 0.645942
vt 0.432434 0.584849
vt 0.489482 0.586157
vt 0.495457 0.631024
vt 0.728780 0.008757
vt 0.743935 0.031284
vt 0.727222 0.031932
vt 0.380289 0.025232
vt 0.363350 0.025074
vt 0.378368 0.008442
vt 0.726194 0.251004
vt 0.388996 0.259061
vt 0.438694 0.474244
vt 0.498207 0.478084
vt 0.364669 0.291085
vt 0.365580 0.274364
vt 0.374102 0.580753
vt 0.362141 0.648507
vt 0.382163 0.478883
vt 0.526727 0.460330
vt 0.527242 0.436709
vt 0.791956 0.520765
vt 0.792028 0.499175
vt 0.923020 0.499810
vt 0.924622 0.533987
vt 0.971547 0.770026
vt 0.985627 0.768961
vt 0.986068 0.787431
vt 0.972335 0.787700
vt 0.654595 0.778594
vt 0.669475 0.778886
vt 0.666034 0.795908
vt 0.650980 0.791347
vt 0.547177 0.823612
vt 0.538617 0.808696
vt 0.623667 0.765383
vt 0.628203 0.794984
vt 0.403784 0.937477
vt 0.394960 0.909402
vt 0.473059 0.907096
vt 0.473866 0.917672
vt 0.724399 0.493792
vt 0.714237 0.523926
vt 0.693775 0.505501
vt 0.660419 0.558479
vt 0.647201 0.558810
vt 0.657248 0.539578
vt 0.976007 0.820363
vt 0.640442 0.766813
vt 0.400090 0.802043
vt 0.467915 0.808693
vt 0.651841 0.673576
vt 0.668854 0.672925
vt 0.963003 0.674510
vt 0.976450 0.673838
vt 0.498762 0.842623
vt 0.479132 0.806037
vt 0.338000 0.891342
vt 0.327867 0.917449
vt 0.358816 0.790851
vt 0.376476 0.675170
vt 0.418827 0.676525
vt 0.489546 0.699610
vt 0.960432 0.551042
vt 0.974502 0.550805
vt 0.491811 0.020151
vt 0.491459 0.002787
vt 0.532262 0.009796
vt 0.530097 0.031148
vt 0.367009 0.168614
vt 0.389562 0.167660
vt 0.388678 0.226307
vt 0.371745 0.228329
vt 0.502915 0.256820
vt 0.502114 0.239433
vt 0.539121 0.231373
vt 0.542838 0.252531
vt 0.555993 0.231519
vt 0.535404 0.161174
vt 0.550440 0.160516
vt 0.497508 0.162882
vt 0.380289 0.025232
vt 0.363350 0.025074
vt 0.378368 0.008442
vt 0.388996 0.259061
vt 0.547120 0.029842
vt 0.791956 0.520765
vt 0.792028 0.499175
vt 0.923020 0.499810
vt 0.924622 0.533987
vt 0.971547 0.770026
vt 0.985627 0.768961
vt 0.986068 0.787431
vt 0.972335 0.787700
vt 0.654595 0.778594
vt 0.669475 0.778886
vt 0.666034 0.795908
vt 0.650980 0.791347
vt 0.547177 0.823612
vt 0.538617 0.808696
vt 0.623667 0.765383
vt 0.628203 0.794984
vt 0.403784 0.937477
vt 0.394960 0.909402
vt 0.473059 0.907096
vt 0.473866 0.917672
vt 0.724399 0.493792
vt 0.714237 0.523926
vt 0.693775 0.505501
vt 0.660419 0.558479
vt 0.647201 0.558810
vt 0.657248 0.539578
vt 0.976007 0.820363
vt 0.640442 0.766813
vt 0.400090 0.802043
vt 0.467915 0.808693
vt 0.651841 0.673576
vt 0.668854 0.672925
vt 0.963003 0.674510
vt 0.976450 0.673838
vt 0.498762 0.842623
vt 0.479132 0.806037
vt 0.338000 0.891342
vt 0.327867 0.917449
vt 0.358816 0.790851
vt 0.376476 0.675170
vt 0.418827 0.676525
vt 0.489546 0.699610
vt 0.960432 0.551042
vt 0.974502 0.550805
vt 0.617753 0.001929
vt 0.617491 0.019040
vt 0.580271 0.019115
vt 0.577859 0.002843
vt 0.722651 0.160129
vt 0.742665 0.160342
vt 0.741743 0.236167
vt 0.725481 0.234571
vt 0.616756 0.222037
vt 0.616037 0.249086
vt 0.577289 0.243802
vt 0.580271 0.206575
vt 0.563817 0.208578
vt 0.560632 0.159658
vt 0.583360 0.159581
vt 0.617837 0.159581
vt 0.728780 0.008757
vt 0.743935 0.031284
vt 0.727222 0.031932
vt 0.726194 0.251004
vt 0.563549 0.018330
vt 0.716555 0.456738
vt 0.694762 0.457523
vt 0.695524 0.341584
vt 0.717869 0.331949
vt 0.971547 0.770026
vt 0.985627 0.768961
vt 0.986068 0.787431
vt 0.972335 0.787700
vt 0.486522 0.875090
vt 0.503598 0.868901
vt 0.533491 0.952911
vt 0.516060 0.959035
vt 0.836790 0.824536
vt 0.820407 0.819975
vt 0.828041 0.792686
vt 0.843336 0.793493
vt 0.876542 0.817969
vt 0.870773 0.792356
vt 0.947245 0.785746
vt 0.950060 0.808739
vt 0.724399 0.493792
vt 0.714237 0.523926
vt 0.693775 0.505501
vt 0.976007 0.820363
vt 0.533146 0.994743
vt 0.542924 0.979656
vt 0.549635 0.996462
vt 0.837734 0.564218
vt 0.823688 0.560143
vt 0.833693 0.542999
vt 0.954295 0.823962
vt 0.830540 0.667843
vt 0.847124 0.669403
vt 0.869175 0.675489
vt 0.938824 0.680699
vt 0.963003 0.674510
vt 0.976450 0.673838
vt 0.880831 0.843908
vt 0.840889 0.850214
vt 0.857630 0.537263
vt 0.866361 0.549273
vt 0.934749 0.546095
vt 0.960432 0.551042
vt 0.974502 0.550805
vt 0.598292 0.450054
vt 0.598577 0.433479
vt 0.675699 0.436464
vt 0.675427 0.453412
vt 0.722651 0.160129
vt 0.742665 0.160342
vt 0.741743 0.236167
vt 0.725481 0.234571
vt 0.367009 0.168614
vt 0.389562 0.167660
vt 0.388678 0.226307
vt 0.371745 0.228329
vt 0.435627 0.294395
vt 0.435863 0.277852
vt 0.511413 0.261568
vt 0.512401 0.292979
vt 0.434932 0.645942
vt 0.432434 0.584849
vt 0.489482 0.586157
vt 0.495457 0.631024
vt 0.728780 0.008757
vt 0.743935 0.031284
vt 0.727222 0.031932
vt 0.380289 0.025232
vt 0.363350 0.025074
vt 0.378368 0.008442
vt 0.726194 0.251004
vt 0.388996 0.259061
vt 0.438694 0.474244
vt 0.498207 0.478084
vt 0.364669 0.291085
vt 0.365580 0.274364
vt 0.374102 0.580753
vt 0.362141 0.648507
vt 0.382163 0.478883
vt 0.526727 0.460330
vt 0.527242 0.436709
vt 0.491811 0.020151
vt 0.491459 0.002787
vt 0.532262 0.009796
vt 0.530097 0.031148
vt 0.367009 0.168614
vt 0.389562 0.167660
vt 0.388678 0.226307
vt 0.371745 0.228329
vt 0.502915 0.256820
vt 0.502114 0.239433
vt 0.539121 0.231373
vt 0.542838 0.252531
vt 0.555993 0.231519
vt 0.535404 0.161174
vt 0.550440 0.160516
vt 0.497508 0.162882
vt 0.380289 0.025232
vt 0.363350 0.025074
vt 0.378368 0.008442
vt 0.388996 0.259061
vt 0.547120 0.029842
vt 0.598292 0.450054
vt 0.598577 0.433479
vt 0.675699 0.436464
vt 0.675427 0.453412
vt 0.722651 0.160129
vt 0.742665 0.160342
vt 0.741743 0.236167
vt 0.725481 0.234571
vt 0.367009 0.168614
vt 0.389562 0.167660
vt 0.388678 0.226307
vt 0.371745 0.228329
vt 0.435627 0.294395
vt 0.435863 0.277852
vt 0.511413 0.261568
vt 0.512401 0.292979
vt 0.434932 0.645942
vt 0.432434 0.584849
vt 0.489482 0.586157
vt 0.495457 0.631024
vt 0.728780 0.008757
vt 0.743935 0.031284
vt 0.727222 0.031932
vt 0.380289 0.025232
vt 0.363350 0.025074
vt 0.378368 0.008442
vt 0.726194 0.251004
vt 0.388996 0.259061
vt 0.438694 0.474244
vt 0.498207 0.478084
vt 0.364669 0.291085
vt 0.365580 0.274364
vt 0.374102 0.580753
vt 0.362141 0.648507
vt 0.382163 0.478883
vt 0.526727 0.460330
vt 0.527242 0.436709
vt 0.617753 0.001929
vt 0.617491 0.019040
vt 0.580271 0.019115
vt 0.577859 0.002843
vt 0.722651 0.160129
vt 0.742665 0.160342
vt 0.741743 0.236167
vt 0.725481 0.234571
vt 0.616756 0.222037
vt 0.616037 0.249086
vt 0.577289 0.243802
vt 0.580271 0.206575
vt 0.563817 0.208578
vt 0.560632 0.159658
vt 0.583360 0.159581
vt 0.617837 0.159581
vt 0.728780 0.008757
vt 0.743935 0.031284
vt 0.727222 0.031932
vt 0.726194 0.251004
vt 0.563549 0.018330
vt 0.580271 0.206575
vt 0.563817 0.208578
vt 0.560632 0.159658
vt 0.583360 0.159581
vt 0.434369 0.454451
vt 0.434922 0.437752
vt 0.511615 0.439799
vt 0.510744 0.461049
vt 0.555993 0.231519
vt 0.539121 0.231373
vt 0.535404 0.161174
vt 0.550440 0.160516
vt 0.599277 0.290220
vt 0.599969 0.273481
vt 0.678131 0.266769
vt 0.676763 0.287733
vt 0.828930 0.085606
vt 0.828936 0.011735
vt 0.908283 0.014123
vt 0.908233 0.085609
vt 0.577289 0.243802
vt 0.542838 0.252531
vt 0.580271 0.019115
vt 0.563549 0.018330
vt 0.577859 0.002843
vt 0.532262 0.009796
vt 0.547120 0.029842
vt 0.530097 0.031148
vt 0.828924 0.230051
vt 0.908256 0.217305
vt 0.527097 0.286568
vt 0.527664 0.269325
vt 0.761268 0.085606
vt 0.756124 0.230089
vt 0.756083 0.036726
vt 0.360320 0.475157
vt 0.369609 0.439420
vt 0.300508 0.176222
vt 0.299973 0.158227
vt 0.330975 0.156993
vt 0.328421 0.170868
vt 0.250024 0.277579
vt 0.268297 0.276991
vt 0.271238 0.317898
vt 0.254230 0.320519
vt 0.293170 0.340221
vt 0.293080 0.323905
vt 0.335772 0.319861
vt 0.339369 0.334264
vt 0.349840 0.321221
vt 0.334797 0.274285
vt 0.347663 0.273704
vt 0.304353 0.275697
vt 0.264538 0.173171
vt 0.250294 0.172470
vt 0.261341 0.159274
vt 0.265531 0.335360
vt 0.342549 0.169160
vt 0.716555 0.456738
vt 0.694762 0.457523
vt 0.695524 0.341584
vt 0.717869 0.331949
vt 0.971547 0.770026
vt 0.985627 0.768961
vt 0.986068 0.787431
vt 0.972335 0.787700
vt 0.486522 0.875090
vt 0.503598 0.868901
vt 0.533491 0.952911
vt 0.516060 0.959035
vt 0.836790 0.824536
vt 0.820407 0.819975
vt 0.828041 0.792686
vt 0.843336 0.793493
vt 0.876542 0.817969
vt 0.870773 0.792356
vt 0.947245 0.785746
vt 0.950060 0.808739
vt 0.724399 0.493792
vt 0.714237 0.523926
vt 0.693775 0.505501
vt 0.976007 0.820363
vt 0.533146 0.994743
vt 0.542924 0.979656
vt 0.549635 0.996462
vt 0.837734 0.564218
vt 0.823688 0.560143
vt 0.833693 0.542999
vt 0.954295 0.823962
vt 0.830540 0.667843
vt 0.847124 0.669403
vt 0.869175 0.675489
vt 0.938824 0.680699
vt 0.963003 0.674510
vt 0.976450 0.673838
vt 0.880831 0.843908
vt 0.840889 0.850214
vt 0.857630 0.537263
vt 0.866361 0.549273
vt 0.934749 0.546095
vt 0.960432 0.551042
vt 0.974502 0.550805
vt 0.086713 0.532538
vt 0.086855 0.518931
vt 0.160601 0.521690
vt 0.160467 0.535686
vt 0.127949 0.574945
vt 0.128103 0.555648
vt 0.179667 0.556453
vt 0.177707 0.571769
vt 0.288894 0.523631
vt 0.288965 0.502031
vt 0.327929 0.505288
vt 0.329555 0.521295
vt 0.281843 0.559888
vt 0.281958 0.546314
vt 0.354912 0.535203
vt 0.355378 0.557977
vt 0.097383 0.898568
vt 0.097326 0.848837
vt 0.168007 0.848638
vt 0.173486 0.888244
vt 0.024489 0.569810
vt 0.040845 0.555359
vt 0.041914 0.571210
vt 0.193902 0.504596
vt 0.192579 0.520489
vt 0.180197 0.505696
vt 0.191221 0.570970
vt 0.351195 0.506437
vt 0.097327 0.751800
vt 0.173218 0.751760
vt 0.214200 0.556877
vt 0.214663 0.543018
vt 0.029849 0.849124
vt 0.028679 0.900989
vt 0.027613 0.760059
vt 0.018667 0.539548
vt 0.018924 0.521773
vt 0.716555 0.456738
vt 0.694762 0.457523
vt 0.695524 0.341584
vt 0.717869 0.331949
vt 0.971547 0.770026
vt 0.985627 0.768961
vt 0.986068 0.787431
vt 0.972335 0.787700
vt 0.486522 0.875090
vt 0.503598 0.868901
vt 0.533491 0.952911
vt 0.516060 0.959035
vt 0.836790 0.824536
vt 0.820407 0.819975
vt 0.828041 0.792686
vt 0.843336 0.793493
vt 0.876542 0.817969
vt 0.870773 0.792356
vt 0.947245 0.785746
vt 0.950060 0.808739
vt 0.724399 0.493792
vt 0.714237 0.523926
vt 0.693775 0.505501
vt 0.976007 0.820363
vt 0.533146 0.994743
vt 0.542924 0.979656
vt 0.549635 0.996462
vt 0.837734 0.564218
vt 0.823688 0.560143
vt 0.833693 0.542999
vt 0.954295 0.823962
vt 0.830540 0.667843
vt 0.847124 0.669403
vt 0.869175 0.675489
vt 0.938824 0.680699
vt 0.963003 0.674510
vt 0.976450 0.673838
vt 0.880831 0.843908
vt 0.840889 0.850214
vt 0.857630 0.537263
vt 0.866361 0.549273
vt 0.934749 0.546095
vt 0.960432 0.551042
vt 0.974502 0.550805
vt 0.300508 0.176222
vt 0.299973 0.158227
vt 0.330975 0.156993
vt 0.328421 0.170868
vt 0.250024 0.277579
vt 0.268297 0.276991
vt 0.271238 0.317898
vt 0.254230 0.320519
vt 0.293170 0.340221
vt 0.293080 0.323905
vt 0.335772 0.319861
vt 0.339369 0.334264
vt 0.349840 0.321221
vt 0.334797 0.274285
vt 0.347663 0.273704
vt 0.304353 0.275697
vt 0.264538 0.173171
vt 0.250294 0.172470
vt 0.261341 0.159274
vt 0.265531 0.335360
vt 0.342549 0.169160
vn 0.102493 0.993703 0.045276
vn 0.769048 0.636813 0.055076
vn 0.814246 0.580302 0.015900
vn 0.077754 0.994637 -0.068201
vn -0.005426 0.674535 0.738223
vn -0.001080 0.988143 0.153530
vn -0.143456 0.978843 0.145899
vn 0.006499 0.674671 0.738090
vn 0.000585 0.998422 -0.056152
vn 0.003544 0.774990 -0.631964
vn 0.028718 0.769119 -0.638460
vn -0.128377 0.990154 -0.055815
vn -0.710317 0.703882 0.000071
vn -0.176845 0.983832 0.028280
vn -0.620306 0.784249 -0.013177
vn -0.000423 0.999240 0.038971
vn 0.715883 0.691179 0.098909
vn 0.067902 0.987099 0.145001
vn -0.007852 0.674738 0.738016
vn -0.012529 0.774032 -0.633023
vn -0.814585 0.580027 0.004533
vn 0.117370 0.988913 0.090973
vn 0.643902 0.759734 0.090527
vn 0.554910 0.831736 0.017026
vn 0.062048 0.994495 -0.084436
vn 0.005296 0.716207 0.697868
vn -0.011290 0.987038 0.160090
vn -0.111224 0.983476 0.142847
vn -0.026368 0.766334 0.641901
vn -0.613684 0.789303 0.019851
vn -0.128096 0.990165 0.056262
vn -0.153778 0.970788 -0.184181
vn -0.662176 0.735180 -0.145026
vn -0.041969 0.990657 -0.129760
vn -0.047989 0.825691 -0.562077
vn -0.093690 0.793628 -0.601146
vn -0.019260 0.997093 0.073715
vn 0.127395 0.975087 0.181591
vn 0.058689 0.660160 0.748828
vn 0.670736 0.730670 0.127417
vn -0.591448 0.802512 0.078515
vn -0.008938 0.857178 -0.514942
vn -0.146161 0.985517 -0.085982
vn -0.164030 0.707699 -0.687209
vn -0.331863 0.723829 -0.604929
vn -0.338003 0.940536 -0.033863
vn 0.656144 0.753989 -0.031238
vn -0.020028 0.999779 -0.006352
vn -0.022812 0.994380 0.103380
vn 0.648293 0.760086 -0.044556
vn -0.069079 0.849350 0.523291
vn -0.123631 0.980752 0.151131
vn -0.333971 0.938127 0.091553
vn -0.190022 0.761209 0.620042
vn -0.766004 0.641419 0.042648
vn -0.353749 0.935312 0.007347
vn -0.764014 0.644684 0.025770
vn -0.139249 0.990256 -0.001567
vn -0.017579 0.996869 -0.077090
vn 0.655383 0.754991 -0.021487
vn -0.096116 0.698185 -0.709436
vn -0.032927 0.871485 0.489315
vn -0.765871 0.642777 0.016712
vn 0.799882 0.595711 -0.072917
vn 0.197658 0.973817 -0.112304
vn 0.141472 0.974914 0.171838
vn 0.856842 0.514676 0.030492
vn 0.079761 0.973822 -0.212861
vn 0.076499 0.623014 -0.778461
vn 0.086542 0.622048 -0.778181
vn -0.111816 0.970183 -0.215039
vn -0.139644 0.986207 -0.088856
vn -0.604025 0.796579 -0.024796
vn -0.549953 0.825506 0.126852
vn -0.104795 0.982262 0.155498
vn 0.003899 0.765800 0.643067
vn 0.028918 0.759373 0.650012
vn 0.065957 0.986700 0.148573
vn 0.077094 0.990552 -0.113417
vn 0.776587 0.620206 -0.110710
vn 0.074349 0.622947 -0.778723
vn 0.176741 0.961756 -0.209256
vn -0.631984 0.768102 -0.103036
vn 0.009572 0.761141 0.648516
vn 0.717510 0.689780 -0.096871
vn 0.135659 0.948319 -0.286858
vn 0.235391 0.971519 0.027224
vn 0.770674 0.636419 0.032133
vn 0.020863 0.966208 -0.256918
vn 0.018454 0.794861 -0.606510
vn 0.039809 0.774686 -0.631092
vn -0.057223 0.955389 -0.289754
vn -0.691458 0.718953 -0.070654
vn -0.659140 0.749996 0.055143
vn -0.106364 0.993852 0.030730
vn -0.001666 0.809507 0.587107
vn 0.019563 0.997591 0.066555
vn -0.088785 0.995754 0.024319
vn -0.080578 0.831460 0.549711
vn 0.018468 0.999549 0.023664
vn -0.008650 0.814152 -0.580587
vn 0.770763 0.635444 -0.046208
vn 0.176086 0.984089 0.023701
vn 0.164242 0.754308 0.635645
vn -0.655335 0.754810 -0.028257
vn -0.652836 0.757489 0.003940
vn -0.089937 0.995947 0.000107
vn 0.020732 0.999781 -0.002944
vn 0.221511 0.975120 -0.008627
vn 0.775596 0.631211 -0.004948
vn -0.022841 0.781608 -0.623352
vn 0.018545 0.995939 -0.088102
vn 0.300023 0.952131 -0.058591
vn 0.074575 0.702839 -0.707429
vn -0.077915 0.996959 0.001165
vn -0.685054 0.728424 0.010038
vn -0.685309 0.728229 0.005914
vn -0.071220 0.987647 0.139572
vn 0.058836 0.986658 0.151804
vn 0.124028 0.841960 0.525091
vn 0.282691 0.838787 0.465319
vn 0.286850 0.952178 0.105235
vn 0.744044 0.668040 0.010945
vn 0.749036 0.662446 -0.010489
vn 0.287951 0.957637 -0.003982
vn 0.024641 0.999696 -0.000361
vn -0.054608 0.802978 -0.593502
vn -0.685286 0.728210 0.009631
vn -0.075963 0.994997 -0.064896
vn 0.039385 0.831147 0.554656
vn 0.748586 0.663035 0.001812
vn -0.670810 0.550662 -0.496775
vn -0.150413 0.928867 -0.338499
vn 0.027651 0.799707 -0.599753
vn -0.677094 0.493241 -0.546129
vn -0.181432 0.979332 -0.089393
vn -0.446512 0.737285 0.506989
vn -0.413437 0.744931 0.523591
vn 0.016592 0.998938 -0.042982
vn 0.178333 0.963343 -0.200419
vn 0.658419 0.747636 0.086744
vn 0.665467 0.702060 -0.253505
vn 0.170136 0.842369 -0.511340
vn 0.378566 0.426434 -0.821488
vn 0.360577 0.407355 -0.839074
vn 0.105445 0.827069 -0.552122
vn -0.062822 0.952291 -0.298657
vn -0.665918 0.586680 -0.460825
vn -0.463590 0.733474 0.497092
vn -0.244501 0.959797 -0.137873
vn 0.624042 0.749523 0.220879
vn 0.356451 0.397986 -0.845310
vn -0.033013 0.995904 -0.084175
vn -0.066273 0.723443 -0.687196
vn -0.233322 0.757996 -0.609100
vn -0.229955 0.972491 -0.037177
vn 0.736768 0.676065 -0.010434
vn 0.091831 0.995774 -0.001301
vn 0.085635 0.990424 0.108294
vn 0.729991 0.683038 -0.023912
vn 0.012668 0.850337 0.526086
vn -0.017273 0.988013 0.153403
vn -0.229449 0.969308 0.088284
vn -0.119807 0.775996 0.619255
vn -0.690491 0.722844 0.026815
vn -0.247242 0.968947 0.003591
vn -0.687715 0.725911 0.010011
vn -0.027792 0.999614 0.000413
vn 0.095761 0.992799 -0.071969
vn 0.735872 0.677120 -0.000700
vn 0.000705 0.706463 -0.707749
vn 0.051928 0.868388 0.493159
vn -0.689539 0.724248 0.000899
vn 0.129452 0.988662 0.076095
vn 0.543937 0.833885 0.093641
vn 0.607527 0.793630 0.032596
vn 0.085137 0.996065 -0.024603
vn -0.003245 0.718300 -0.695726
vn -0.019752 0.715190 -0.698651
vn -0.013889 0.999266 -0.035703
vn -0.012492 0.998232 0.058109
vn -0.453844 0.666063 -0.591934
vn -0.002400 0.999626 -0.027234
vn -0.028861 0.716689 -0.696795
vn 0.001261 0.998481 0.055079
vn -0.013591 0.999842 0.011435
vn -0.000093 0.999917 0.012920
vn 0.057294 0.997934 0.029077
vn 0.479654 0.869945 0.114580
vn 0.116968 0.992548 -0.034153
vn 0.803611 0.593558 -0.043560
vn 0.739702 0.642837 -0.199001
vn 0.066001 0.969112 -0.237628
vn -0.005824 0.678488 0.734589
vn -0.000832 0.996217 0.086902
vn -0.164669 0.982933 0.082020
vn 0.019082 0.684825 0.728458
vn -0.661518 0.749925 -0.002583
vn -0.206232 0.978200 -0.024356
vn -0.125046 0.963859 -0.235241
vn -0.742615 0.657125 -0.129271
vn -0.013940 0.720770 -0.693034
vn 0.001615 0.968193 -0.250201
vn 0.004707 0.723642 -0.690159
vn 0.000047 0.999518 -0.031061
vn 0.099706 0.990474 0.094977
vn -0.021724 0.679378 0.733467
vn 0.818751 0.573924 0.016082
vn -0.628314 0.776957 0.039489
vn 0.014611 0.722107 -0.691627
vn -0.116885 0.992766 0.027452
vn -0.803388 0.593789 0.044526
vn -0.738432 0.644248 0.199154
vn -0.064536 0.970871 0.230747
vn 0.000740 0.672926 -0.739709
vn 0.000091 0.995532 -0.094424
vn 0.163960 0.982302 -0.090552
vn -0.024125 0.679306 -0.733459
vn 0.661407 0.749989 -0.007564
vn 0.206244 0.978377 0.015572
vn 0.126490 0.965621 0.227105
vn 0.743373 0.658157 0.119269
vn 0.018527 0.725985 0.687461
vn -0.000066 0.970054 0.242890
vn -0.000138 0.728832 0.684693
vn 0.000011 0.999724 0.023514
vn -0.100499 0.989718 -0.101774
vn 0.016646 0.673826 -0.738702
vn -0.818930 0.573701 -0.014862
vn 0.627915 0.776699 -0.049613
vn -0.010031 0.727306 0.686240
vn -0.089812 0.994716 0.049738
vn -0.746717 0.664470 0.029886
vn -0.751109 0.659723 0.024523
vn -0.096491 0.931803 0.349904
vn 0.008084 0.568921 -0.822352
vn 0.002873 0.962097 -0.272691
vn 0.113425 0.961252 -0.251255
vn 0.028391 0.624339 -0.780638
vn 0.778914 0.626447 -0.029289
vn 0.240143 0.970358 0.027126
vn 0.208178 0.941844 0.263802
vn 0.791848 0.605105 0.082614
vn 0.052921 0.483943 0.873498
vn 0.000012 0.938032 0.346548
vn -0.000005 0.480177 0.877172
vn -0.000184 0.998726 0.050458
vn -0.093701 0.962277 -0.255426
vn -0.002393 0.552462 -0.833535
vn -0.750230 0.660264 0.034725
vn 0.701205 0.668064 -0.249003
vn -0.024201 0.482068 0.875799
vn -0.022965 0.996976 -0.074237
vn -0.001368 0.763337 -0.645999
vn -0.039710 0.711857 -0.701200
vn -0.135252 0.989421 -0.052463
vn 0.690968 0.722817 -0.009971
vn 0.087193 0.996191 -0.001333
vn 0.082828 0.991405 0.101270
vn 0.690690 0.722993 -0.015074
vn -0.125933 0.992037 0.001668
vn -0.682755 0.730575 0.010312
vn -0.689841 0.723953 -0.003302
vn -0.116841 0.989487 0.085229
vn -0.040966 0.814657 0.578495
vn -0.036148 0.991116 0.127990
vn -0.051745 0.871616 0.487451
vn -0.028546 0.999592 0.000422
vn 0.036505 0.808899 -0.586814
vn 0.073899 0.996179 -0.046548
vn 0.690742 0.723029 -0.010212
vn -0.683653 0.729529 0.020135
vn -0.031870 0.711325 0.702141
vn -0.086831 0.995458 0.039045
vn -0.654993 0.755634 -0.001460
vn -0.710528 0.702822 0.034515
vn -0.067837 0.986096 0.151700
vn -0.001079 0.735214 -0.677834
vn -0.011139 0.997541 -0.069199
vn 0.091370 0.993867 -0.062284
vn -0.006189 0.735325 -0.677686
vn -0.013522 0.989511 0.143825
vn -0.015920 0.717985 0.695876
vn -0.029630 0.711078 0.702488
vn 0.070267 0.988098 0.136840
vn 0.567385 0.820427 0.070527
vn 0.115050 0.991705 0.057314
vn 0.475414 0.876118 0.079989
vn -0.012376 0.998837 0.046590
vn -0.595417 0.802566 -0.036970
vn -0.056675 0.996760 -0.057073
vn -0.001329 0.735420 -0.677610
vn -0.006111 0.717037 0.697008
vn 0.692461 0.718721 0.062749
vn -0.043608 0.997003 0.063895
vn -0.014511 0.761462 0.648047
vn 0.059034 0.796705 0.601479
vn 0.065283 0.997467 0.028242
vn -0.737668 0.673760 0.043507
vn -0.194901 0.980192 0.035177
vn -0.229439 0.951566 -0.204647
vn -0.719462 0.672190 -0.174744
vn 0.073521 0.996708 0.034164
vn 0.637223 0.768748 0.054527
vn 0.655924 0.719216 -0.229113
vn 0.053184 0.955737 -0.289376
vn -0.050062 0.773552 -0.631752
vn -0.065151 0.927263 -0.368699
vn 0.044946 0.750766 -0.659037
vn -0.043265 0.998672 0.027983
vn -0.136483 0.685611 0.715059
vn -0.210819 0.977051 0.030454
vn -0.738439 0.674320 0.000503
vn 0.635843 0.771049 -0.034449
vn -0.206536 0.799794 -0.563624
vn -0.044835 0.998994 0.001010
vn 0.065593 0.997846 -0.000182
vn 0.634289 0.773092 -0.002360
vn -0.738433 0.674321 0.002752
vn -0.211549 0.977367 -0.000979
vn -0.042262 0.996047 -0.078125
vn -0.071379 0.727017 -0.682899
vn -0.238948 0.759499 -0.605033
vn -0.239093 0.970476 -0.031792
vn 0.730332 0.683078 -0.004329
vn 0.082364 0.996589 0.005075
vn 0.075936 0.990503 0.114617
vn 0.723525 0.690069 -0.017783
vn 0.003230 0.847148 0.531347
vn -0.027059 0.986837 0.159439
vn -0.238881 0.966523 0.093649
vn -0.128771 0.770979 0.623706
vn -0.697398 0.716079 0.029449
vn -0.256450 0.966516 0.008908
vn -0.694608 0.719277 0.012671
vn -0.037295 0.999283 0.006497
vn 0.086504 0.994089 -0.065600
vn 0.729402 0.684064 0.005408
vn -0.004190 0.710802 -0.703380
vn 0.042401 0.865774 0.498636
vn -0.696393 0.717652 0.003545
vn -0.063733 0.996994 0.044062
vn -0.647987 0.759998 0.050157
vn -0.601692 0.788617 0.126690
vn -0.028484 0.987862 0.152702
vn -0.040768 0.736079 -0.675667
vn -0.034453 0.993552 -0.108017
vn 0.205497 0.967998 -0.144051
vn 0.177415 0.732839 -0.656864
vn -0.034437 0.986383 0.160820
vn -0.056891 0.709707 0.702196
vn 0.226677 0.658631 0.717512
vn 0.289176 0.947254 0.138152
vn 0.631932 0.774752 0.020541
vn 0.368938 0.929278 0.018065
vn 0.658865 0.743684 0.113276
vn -0.027822 0.998614 0.044683
vn -0.714546 0.695197 -0.078262
vn -0.029671 0.991822 -0.124131
vn 0.002238 0.736690 -0.676227
vn 0.032088 0.712092 0.701353
vn 0.564385 0.814683 -0.133267
vn -0.000844 0.999064 0.043248
vn -0.000062 0.988203 0.153150
vn 0.000005 0.714274 0.699866
vn -0.000011 0.736692 -0.676229
vn 0.001764 0.992191 -0.124714
vn -0.042096 0.781031 -0.623072
vn -0.006002 0.996125 -0.087742
vn 0.276470 0.959256 -0.058245
vn 0.057231 0.704716 -0.707177
vn -0.102458 0.994736 0.001524
vn -0.702796 0.711317 0.010299
vn -0.703048 0.711116 0.006174
vn -0.095535 0.985542 0.139929
vn 0.034507 0.987753 0.152161
vn 0.103247 0.844570 0.525396
vn 0.261940 0.845330 0.465623
vn 0.263301 0.958919 0.105580
vn 0.727357 0.686168 0.011190
vn 0.732484 0.680707 -0.010246
vn 0.264265 0.964443 -0.003635
vn 0.000000 1.000000 0.000000
vn -0.074381 0.801601 -0.593215
vn -0.703023 0.711098 0.009891
vn -0.100458 0.992846 -0.064537
vn 0.018896 0.831665 0.554957
vn 0.732019 0.681281 0.002055
vn 0.045739 0.652831 0.756121
vn 0.003743 0.998338 0.057509
vn -0.006461 0.997640 0.068365
vn -0.077573 0.735638 0.672918
vn 0.219653 0.974916 0.035931
vn 0.706666 0.706519 0.038145
vn 0.704570 0.690021 -0.165686
vn 0.284473 0.942013 -0.178005
vn 0.052714 0.949716 -0.308645
vn 0.092397 0.783524 -0.614454
vn 0.001280 0.750208 -0.661200
vn 0.000547 0.959329 -0.282289
vn -0.234893 0.943868 -0.232247
vn -0.704662 0.704335 -0.085810
vn -0.651651 0.757285 0.043249
vn -0.284389 0.958085 0.034573
vn 0.002175 0.999657 0.026099
vn -0.000659 0.999656 0.026203
vn 0.199791 0.662528 0.721900
vn 0.707102 0.707107 -0.002666
vn 0.246266 0.968904 0.024033
vn 0.299716 0.813456 -0.498457
vn -0.084752 0.752452 -0.653172
vn -0.241495 0.970396 0.003414
vn -0.649488 0.760229 -0.014716
vn -0.209401 0.819820 0.532960
vn -0.647517 0.762050 -0.001365
vn -0.248224 0.968699 -0.002597
vn 0.001028 1.000000 0.000020
vn -0.001611 0.999994 0.003193
vn 0.253024 0.967453 -0.003621
vn 0.707102 0.707107 -0.002614
vn 0.070811 0.997310 0.018953
vn -0.071225 0.826861 -0.557877
vn -0.127144 0.785276 -0.605950
vn -0.033118 0.997182 0.067308
vn 0.744357 0.656844 -0.120367
vn 0.194432 0.978970 0.061752
vn 0.214259 0.963348 0.161412
vn 0.742887 0.657603 -0.125206
vn -0.010877 0.993022 0.117426
vn -0.574921 0.781499 0.242332
vn -0.585751 0.777053 0.230402
vn 0.017620 0.980535 0.195552
vn 0.189504 0.746693 0.637603
vn 0.105871 0.970453 0.216825
vn 0.163632 0.814021 0.557310
vn 0.083597 0.992189 0.092588
vn -0.015463 0.862190 -0.506348
vn 0.170781 0.985076 0.021447
vn 0.744105 0.657101 -0.120526
vn -0.573552 0.779463 0.251943
vn 0.216409 0.630016 0.745820
vn -0.033013 0.999330 0.015785
vn -0.066274 0.788504 -0.611448
vn -0.233322 0.815078 -0.530290
vn -0.229956 0.971337 0.060207
vn 0.736767 0.673723 0.057190
vn 0.091831 0.990918 0.098231
vn 0.085635 0.974641 0.206742
vn 0.729990 0.682009 0.044476
vn 0.012668 0.793498 0.608441
vn -0.017273 0.967733 0.251384
vn -0.229450 0.955631 0.184723
vn -0.119807 0.710216 0.693714
vn -0.690492 0.716543 0.098927
vn -0.247242 0.963736 0.100417
vn -0.687716 0.721276 0.082514
vn -0.027792 0.994567 0.100320
vn 0.095761 0.995021 0.027619
vn 0.735872 0.673800 0.066980
vn 0.000704 0.773664 -0.633596
vn 0.051928 0.814749 0.577483
vn -0.689539 0.720531 0.073281
vn -0.081434 0.967829 -0.238067
vn -0.443503 0.645692 -0.621601
vn -0.508129 0.591208 -0.626321
vn -0.150389 0.977633 -0.147025
vn 0.497063 0.621941 -0.605077
vn 0.049251 0.965114 -0.257156
vn 0.114552 0.977216 -0.178680
vn 0.493447 0.621340 -0.608643
vn -0.107361 0.987631 -0.114277
vn -0.512278 0.801052 0.309656
vn -0.526541 0.793277 0.305723
vn -0.044783 0.997257 -0.058933
vn 0.343525 0.894823 0.285102
vn 0.043811 0.995743 -0.081101
vn 0.273890 0.937524 0.214554
vn -0.035798 0.982904 -0.180604
vn -0.376480 0.695066 -0.612491
vn 0.009175 0.959568 -0.281329
vn 0.496731 0.622137 -0.605147
vn -0.506376 0.801693 0.317602
vn 0.434356 0.812059 0.389737
vn 0.032081 0.756964 0.652669
vn 0.011793 0.992088 0.124986
vn -0.270098 0.958910 0.086823
vn -0.070035 0.678491 0.731262
vn 0.110543 0.993135 0.038260
vn 0.708584 0.704784 0.034474
vn 0.708724 0.704429 0.038593
vn 0.107180 0.989145 -0.100524
vn -0.022474 0.992991 -0.116032
vn -0.082559 0.864385 -0.496007
vn -0.242753 0.864370 -0.440381
vn -0.252637 0.964532 -0.076505
vn -0.721214 0.692698 -0.004416
vn -0.726944 0.686494 0.016659
vn -0.256423 0.966009 0.032780
vn 0.008127 0.999270 0.037324
vn 0.065304 0.778331 0.624448
vn 0.708798 0.704549 0.034879
vn 0.106796 0.988813 0.104131
vn 0.002430 0.851818 -0.523833
vn -0.726152 0.687520 0.004405
vn -0.661921 0.749409 0.015702
vn -0.070650 0.995349 0.065485
vn -0.075760 0.997126 0.000884
vn -0.657047 0.753779 0.010290
vn 0.012617 0.989878 0.141360
vn -0.019150 0.832328 0.553953
vn 0.037980 0.786007 0.617050
vn 0.113619 0.988765 0.097134
vn 0.757261 0.653090 0.005380
vn 0.759914 0.649928 -0.011163
vn 0.125063 0.992147 -0.001848
vn 0.054076 0.748385 -0.661057
vn 0.038266 0.996431 -0.075245
vn 0.114041 0.992228 -0.049782
vn 0.096646 0.777401 -0.621536
vn 0.031535 0.999503 -0.000459
vn -0.062505 0.869115 0.490645
vn -0.657457 0.753155 0.022522
vn -0.089967 0.994615 -0.051454
vn 0.002414 0.712332 -0.701839
vn 0.758210 0.651696 -0.020252
vn -0.089812 0.994716 0.049738
vn -0.746716 0.664471 0.029886
vn -0.751108 0.659724 0.024522
vn -0.096491 0.931803 0.349904
vn 0.008084 0.568917 -0.822355
vn 0.002873 0.962097 -0.272692
vn 0.113426 0.961252 -0.251254
vn 0.028393 0.624335 -0.780641
vn 0.778913 0.626448 -0.029289
vn 0.240143 0.970359 0.027126
vn 0.208178 0.941844 0.263802
vn 0.791848 0.605105 0.082615
vn 0.052921 0.483943 0.873498
vn 0.000012 0.938032 0.346548
vn -0.000005 0.480177 0.877172
vn -0.000184 0.998726 0.050458
vn -0.093702 0.962277 -0.255426
vn -0.002394 0.552458 -0.833537
vn -0.750229 0.660266 0.034725
vn 0.701204 0.668065 -0.249002
vn -0.024201 0.482069 0.875799
vn -0.044155 0.652829 -0.756218
vn -0.003622 0.998338 -0.057517
vn 0.006604 0.997640 -0.068351
vn 0.078981 0.735637 -0.672756
vn -0.219577 0.974916 -0.036391
vn -0.706584 0.706519 -0.039625
vn -0.704913 0.690023 0.164210
vn -0.284844 0.942014 0.177408
vn -0.053360 0.949716 0.308534
vn -0.093683 0.783523 0.614259
vn -0.002664 0.750209 0.661196
vn -0.001138 0.959329 0.282287
vn 0.234406 0.943868 0.232739
vn 0.704481 0.704335 0.087286
vn 0.651740 0.757285 -0.041885
vn 0.284460 0.958085 -0.033977
vn -0.002121 0.999657 -0.026103
vn 0.000714 0.999656 -0.026201
vn -0.198277 0.662527 -0.722318
vn -0.707105 0.707108 0.001185
vn -0.246215 0.968904 -0.024548
vn -0.300760 0.813455 0.497829
vn 0.083384 0.752452 0.653347
vn 0.241502 0.970396 -0.002908
vn 0.649454 0.760231 0.016076
vn 0.210516 0.819820 -0.532521
vn 0.647511 0.762051 0.002721
vn 0.248218 0.968699 0.003116
vn -0.001028 1.000000 -0.000022
vn 0.001617 0.999994 -0.003190
vn -0.253031 0.967453 0.003092
vn -0.707105 0.707107 0.001133
vn -0.103783 0.994433 0.018238
vn -0.770103 0.637878 -0.007228
vn -0.814852 0.578955 0.028777
vn -0.077894 0.988278 0.131296
vn -0.002639 0.719554 -0.694431
vn -0.001311 0.995833 -0.091190
vn 0.141144 0.986282 -0.085594
vn -0.014563 0.719664 -0.694170
vn -0.000854 0.992926 0.118731
vn 0.002223 0.733782 0.679381
vn -0.022879 0.727480 0.685747
vn 0.128104 0.984886 0.116575
vn 0.709688 0.703546 0.036960
vn 0.175721 0.983927 0.031764
vn 0.619749 0.782790 0.056135
vn -0.000813 0.999715 0.023841
vn -0.717432 0.694967 -0.048095
vn -0.070202 0.994153 -0.082048
vn -0.000211 0.719748 -0.694236
vn 0.018306 0.732782 0.680217
vn 0.814009 0.580369 0.023679
vn -0.044155 0.652829 -0.756218
vn -0.003622 0.998338 -0.057517
vn 0.006604 0.997639 -0.068351
vn 0.078981 0.735637 -0.672756
vn -0.219577 0.974916 -0.036391
vn -0.706584 0.706519 -0.039625
vn -0.704914 0.690022 0.164210
vn -0.284845 0.942014 0.177409
vn -0.053360 0.949716 0.308533
vn -0.093683 0.783525 0.614257
vn -0.002666 0.750210 0.661195
vn -0.001138 0.959330 0.282286
vn 0.234405 0.943868 0.232741
vn 0.704479 0.704337 0.087284
vn 0.651739 0.757286 -0.041885
vn 0.284461 0.958085 -0.033977
vn -0.002121 0.999657 -0.026103
vn 0.000714 0.999656 -0.026201
vn -0.198277 0.662527 -0.722318
vn -0.707106 0.707106 0.001185
vn -0.246215 0.968904 -0.024548
vn -0.300759 0.813457 0.497828
vn 0.083383 0.752450 0.653351
vn 0.241502 0.970396 -0.002908
vn 0.649457 0.760228 0.016076
vn 0.210515 0.819820 -0.532521
vn 0.647512 0.762050 0.002721
vn 0.248218 0.968699 0.003116
vn -0.001028 1.000000 -0.000022
vn 0.001617 0.999994 -0.003190
vn -0.253031 0.967453 0.003092
vn -0.707106 0.707106 0.001133
vn -0.004811 0.998475 0.054988
vn 0.001308 0.765398 -0.643556
vn 0.007869 0.761135 -0.648545
vn -0.329149 0.943485 0.038706
vn 0.863594 0.497629 0.081066
vn 0.336650 0.931408 0.138371
vn 0.312716 0.917746 0.244847
vn 0.827122 0.551220 0.109661
vn 0.060633 0.506058 0.860365
vn 0.017966 0.925657 0.377937
vn -0.236633 0.909756 0.341101
vn -0.059381 0.488247 0.870683
vn -0.866602 0.484056 0.121209
vn -0.323424 0.936524 0.135353
vn -0.870184 0.487794 0.069550
vn -0.005476 0.989665 0.143297
vn 0.319756 0.946524 0.042999
vn 0.873125 0.482695 0.068257
vn -0.004976 0.761999 -0.647560
vn 0.293641 0.545192 0.785201
vn -0.868772 0.493033 0.046408
s 1
g polySurface29
usemtl lambert5SG
f 21/1/1 17/2/2 6/3/3 5/4/4
f 16/5/5 13/6/6 8/7/7 7/8/8
f 14/9/9 15/10/10 12/11/11 11/12/12
f 18/13/13 19/14/14 11/15/12 10/16/15
f 19/17/14 20/18/16 14/19/9 11/20/12
f 1/21/17 2/22/18 3/23/19
f 4/24/20 5/25/4 6/26/3
f 7/8/8 8/7/7 9/27/21
f 10/28/15 11/12/12 12/11/11
f 20/18/16 21/29/1 5/30/4 14/19/9
f 5/25/4 4/24/20 15/10/10 14/9/9
f 3/23/19 2/22/18 13/6/6 16/5/5
f 9/31/21 8/32/7 19/14/14 18/13/13
f 13/33/6 20/18/16 19/17/14 8/34/7
f 2/35/18 21/29/1 20/18/16 13/33/6
f 2/36/18 1/37/17 17/2/2 21/1/1
s 5
f 37/38/22 34/39/23 28/40/24 30/41/25
f 42/42/26 38/43/27 27/44/28 26/45/29
f 35/46/30 36/47/31 31/48/32 33/49/33
f 40/50/34 41/51/35 32/52/36 31/53/32
f 39/54/37 40/50/34 31/53/32 36/55/31
f 22/56/38 23/57/39 24/58/40
f 25/59/41 26/60/29 27/61/28
f 28/40/24 29/62/42 30/41/25
f 31/48/32 32/63/36 33/49/33
f 25/59/41 27/61/28 36/47/31 35/46/30
f 38/43/27 39/54/37 36/55/31 27/44/28
f 22/56/38 24/58/40 34/39/23 37/38/22
f 37/64/22 39/54/37 38/43/27 22/65/38
f 30/66/25 40/50/34 39/54/37 37/64/22
f 30/66/25 29/67/42 41/51/35 40/50/34
f 23/68/39 22/65/38 38/43/27 42/42/26
s 9
f 57/69/43 58/70/44 52/71/45 54/72/46
f 59/73/47 60/74/48 48/75/49 47/76/50
f 55/77/51 56/78/52 51/79/53 50/80/54
f 49/81/55 51/79/53 62/82/56 63/83/57
f 56/78/52 61/84/58 62/82/56 51/79/53
f 43/85/59 44/86/60 45/87/61
f 46/88/62 47/76/50 48/75/49
f 49/81/55 50/80/54 51/79/53
f 52/71/45 53/89/63 54/72/46
f 46/88/62 48/75/49 56/78/52 55/77/51
f 60/74/48 61/84/58 56/78/52 48/75/49
f 43/85/59 45/87/61 58/70/44 57/69/43
f 44/86/60 43/85/59 60/74/48 59/73/47
f 43/85/59 57/69/43 61/84/58 60/74/48
f 62/82/56 61/84/58 57/69/43 54/72/46
f 63/83/57 62/82/56 54/72/46 53/89/63
s 12
f 79/90/64 76/91/65 73/92/66 75/93/67
f 84/94/68 80/95/69 68/96/70 67/97/71
f 77/98/72 78/99/73 71/100/74 70/101/75
f 70/101/75 72/102/76 81/103/77 82/104/78
f 82/104/78 83/105/79 77/98/72 70/101/75
f 64/106/80 65/107/81 66/108/82
f 67/97/71 68/96/70 69/109/83
f 70/101/75 71/100/74 72/102/76
f 73/92/66 74/110/84 75/93/67
f 77/98/72 83/105/79 84/94/68 67/97/71
f 67/97/71 69/109/83 78/99/73 77/98/72
f 64/106/80 66/108/82 76/91/65 79/90/64
f 82/104/78 81/103/77 74/110/84 73/92/66
f 73/92/66 76/91/65 83/105/79 82/104/78
f 84/94/68 83/105/79 76/91/65 66/108/82
f 66/108/82 65/107/81 80/95/69 84/94/68
s 15
f 85/111/85 87/112/86 99/113/87 100/114/88
f 104/115/89 105/116/90 89/117/91 88/118/92
f 88/119/92 90/120/93 97/121/94 98/122/95
f 101/123/96 102/124/97 95/125/98 94/126/99
f 103/127/100 104/128/89 88/129/92 98/130/95
f 85/131/85 86/132/101 87/133/86
f 88/118/92 89/117/91 90/134/93
f 91/135/102 92/136/103 93/137/104
f 94/138/99 95/139/98 96/140/105
f 98/122/95 97/121/94 106/141/106 107/142/107
f 107/143/107 108/144/108 103/127/100 98/130/95
f 100/114/88 99/113/87 109/145/109 110/146/110
f 93/147/104 92/148/103 102/124/97 101/123/96
f 99/149/87 103/127/100 108/144/108 109/150/109
f 87/151/86 104/128/89 103/127/100 99/149/87
f 87/133/86 86/132/101 105/116/90 104/115/89
f 107/142/107 106/141/106 96/140/105 95/139/98
f 102/152/97 108/144/108 107/143/107 95/153/98
f 109/150/109 108/144/108 102/152/97 92/154/103
f 110/146/110 109/145/109 92/136/103 91/135/102
s 19
f 126/155/111 123/156/112 120/157/113 122/158/114
f 131/159/115 127/160/116 115/161/117 114/162/118
f 124/163/119 125/164/120 118/165/121 117/166/122
f 117/166/122 119/167/123 128/168/124 129/169/125
f 129/169/125 130/170/126 124/163/119 117/166/122
f 111/171/127 112/172/128 113/173/129
f 114/162/118 115/161/117 116/174/130
f 117/166/122 118/165/121 119/167/123
f 120/157/113 121/175/131 122/158/114
f 124/163/119 130/170/126 131/159/115 114/162/118
f 114/162/118 116/174/130 125/164/120 124/163/119
f 111/171/127 113/173/129 123/156/112 126/155/111
f 129/169/125 128/168/124 121/175/131 120/157/113
f 120/157/113 123/156/112 130/170/126 129/169/125
f 131/159/115 130/170/126 123/156/112 113/173/129
f 113/173/129 112/172/128 127/160/116 131/159/115
s 22
f 152/176/132 148/177/133 141/178/134 143/179/135
f 147/180/136 144/181/137 136/182/138 135/183/139
f 150/184/140 151/185/141 139/186/142 138/187/143
f 138/187/143 140/188/144 145/189/145 146/190/146
f 146/190/146 149/191/147 150/184/140 138/187/143
f 132/192/148 133/193/149 134/194/150
f 135/183/139 136/182/138 137/195/151
f 138/187/143 139/186/142 140/188/144
f 141/178/134 142/196/152 143/179/135
f 146/190/146 145/189/145 142/196/152 141/178/134
f 141/178/134 148/177/133 149/191/147 146/190/146
f 134/194/150 133/193/149 144/181/137 147/180/136
f 149/191/147 148/177/133 134/194/150 147/180/136
f 150/184/140 149/191/147 147/180/136 135/183/139
f 135/183/139 137/195/151 151/185/141 150/184/140
f 132/192/148 134/194/150 148/177/133 152/176/132
s 25
f 167/197/153 168/198/154 162/199/155 164/200/156
f 169/201/157 170/202/158 158/203/159 157/204/160
f 165/205/161 166/206/162 161/207/163 160/208/164
f 159/209/165 161/207/163 172/210/166 173/211/167
f 166/206/162 171/212/168 172/210/166 161/207/163
f 153/213/169 154/214/170 155/215/171
f 156/216/172 157/204/160 158/203/159
f 159/209/165 160/208/164 161/207/163
f 162/199/155 163/217/173 164/200/156
f 156/216/172 158/203/159 166/206/162 165/205/161
f 170/202/158 171/212/168 166/206/162 158/203/159
f 153/213/169 155/215/171 168/198/154 167/197/153
f 154/214/170 153/213/169 170/202/158 169/201/157
f 153/213/169 167/197/153 171/212/168 170/202/158
f 172/210/166 171/212/168 167/197/153 164/200/156
f 173/211/167 172/210/166 164/200/156 163/217/173
s 28
f 188/218/174 189/219/175 177/220/176 176/221/177
f 176/222/177 178/223/178 183/224/179 184/225/180
f 187/226/181 188/227/174 176/228/177 184/229/180
f 176/222/177 177/230/176 178/223/178
f 180/231/182 181/232/183 182/233/184
f 184/225/180 183/224/179 182/233/184 181/232/183
f 186/234/185 187/226/181 184/229/180 181/235/183
f 185/236/186 187/226/181 186/234/185 179/237/187
f 175/238/188 188/227/174 187/226/181 185/236/186
f 175/239/188 174/240/189 189/219/175 188/218/174
s 29
f 204/241/190 205/242/191 199/243/192 201/244/193
f 206/245/194 207/246/195 195/247/196 194/248/197
f 202/249/198 203/250/199 198/251/200 197/252/201
f 196/253/202 198/251/200 209/254/203 210/255/204
f 203/250/199 208/256/205 209/254/203 198/251/200
f 190/257/206 191/258/207 192/259/208
f 193/260/209 194/248/197 195/247/196
f 196/253/202 197/252/201 198/251/200
f 199/243/192 200/261/210 201/244/193
f 193/260/209 195/247/196 203/250/199 202/249/198
f 207/246/195 208/256/205 203/250/199 195/247/196
f 190/257/206 192/259/208 205/242/191 204/241/190
f 191/258/207 190/257/206 207/246/195 206/245/194
f 190/257/206 204/241/190 208/256/205 207/246/195
f 209/254/203 208/256/205 204/241/190 201/244/193
f 210/255/204 209/254/203 201/244/193 200/261/210
s 32
f 225/262/211 226/263/212 220/264/213 222/265/214
f 227/266/215 228/267/216 216/268/217 215/269/218
f 223/270/219 224/271/220 219/272/221 218/273/222
f 217/274/223 219/272/221 230/275/224 231/276/225
f 224/271/220 229/277/226 230/275/224 219/272/221
f 211/278/227 212/279/228 213/280/229
f 214/281/230 215/269/218 216/268/217
f 217/274/223 218/273/222 219/272/221
f 220/264/213 221/282/231 222/265/214
f 214/281/230 216/268/217 224/271/220 223/270/219
f 228/267/216 229/277/226 224/271/220 216/268/217
f 211/278/227 213/280/229 226/263/212 225/262/211
f 212/279/228 211/278/227 228/267/216 227/266/215
f 211/278/227 225/262/211 229/277/226 228/267/216
f 230/275/224 229/277/226 225/262/211 222/265/214
f 231/276/225 230/275/224 222/265/214 221/282/231
s 35
f 251/283/232 252/284/233 241/285/234 243/286/235
f 244/287/236 245/288/237 237/289/238 236/290/239
f 248/291/240 249/292/241 240/293/242 239/294/243
f 238/295/244 240/293/242 246/296/245 247/297/246
f 249/292/241 250/298/247 246/296/245 240/293/242
f 232/299/248 233/300/249 234/301/250
f 235/302/251 236/290/239 237/289/238
f 238/295/244 239/294/243 240/293/242
f 241/285/234 242/303/252 243/286/235
f 233/300/249 232/299/248 245/288/237 244/287/236
f 250/298/247 251/283/232 243/286/235 246/296/245
f 247/297/246 246/296/245 243/286/235 242/303/252
f 235/302/251 237/289/238 249/292/241 248/291/240
f 245/288/237 250/298/247 249/292/241 237/289/238
f 232/299/248 251/283/232 250/298/247 245/288/237
f 232/299/248 234/301/250 252/284/233 251/283/232
s 38
f 273/304/253 269/305/254 258/306/255 257/307/256
f 268/308/257 265/309/258 260/310/259 259/311/260
f 266/312/261 267/313/262 264/314/263 263/315/264
f 270/316/265 271/317/266 263/318/264 262/319/267
f 271/320/266 272/321/268 266/322/261 263/323/264
f 253/324/269 254/325/270 255/326/271
f 256/327/272 257/328/256 258/329/255
f 259/311/260 260/310/259 261/330/273
f 262/331/267 263/315/264 264/314/263
f 272/321/268 273/332/253 257/333/256 266/322/261
f 257/328/256 256/327/272 267/313/262 266/312/261
f 255/326/271 254/325/270 265/309/258 268/308/257
f 261/334/273 260/335/259 271/317/266 270/316/265
f 265/336/258 272/321/268 271/320/266 260/337/259
f 254/338/270 273/332/253 272/321/268 265/336/258
f 254/339/270 253/340/269 269/305/254 273/304/253
s 42
f 294/341/274 290/342/275 279/343/276 278/344/277
f 289/345/278 286/346/279 281/347/280 280/348/281
f 287/349/282 288/350/283 285/351/284 284/352/285
f 291/353/286 292/354/287 284/355/285 283/356/288
f 292/357/287 293/358/289 287/359/282 284/360/285
f 274/361/290 275/362/291 276/363/292
f 277/364/293 278/365/277 279/366/276
f 280/348/281 281/347/280 282/367/294
f 283/368/288 284/352/285 285/351/284
f 293/358/289 294/369/274 278/370/277 287/359/282
f 278/365/277 277/364/293 288/350/283 287/349/282
f 276/363/292 275/362/291 286/346/279 289/345/278
f 282/371/294 281/372/280 292/354/287 291/353/286
f 286/373/279 293/358/289 292/357/287 281/374/280
f 275/375/291 294/369/274 293/358/289 286/373/279
f 275/376/291 274/377/290 290/342/275 294/341/274
s 46
f 315/378/295 311/379/296 300/380/297 299/381/298
f 310/382/299 307/383/300 302/384/301 301/385/302
f 308/386/303 309/387/304 306/388/305 305/389/306
f 312/390/307 313/391/308 305/392/306 304/393/309
f 313/394/308 314/395/310 308/396/303 305/397/306
f 295/398/311 296/399/312 297/400/313
f 298/401/314 299/402/298 300/403/297
f 301/385/302 302/384/301 303/404/315
f 304/393/309 305/392/306 306/405/305
f 314/395/310 317/406/316 318/407/317 308/396/303
f 318/408/317 319/409/318 309/387/304 308/386/303
f 320/410/319 316/411/320 307/383/300 310/382/299
f 303/412/315 302/413/301 313/391/308 312/390/307
f 307/414/300 314/395/310 313/394/308 302/415/301
f 316/416/320 317/406/316 314/395/310 307/414/300
f 296/399/312 295/398/311 311/379/296 315/378/295
f 296/417/312 315/418/295 317/406/316 316/416/320
f 318/407/317 317/406/316 315/418/295 299/419/298
f 299/402/298 298/401/314 319/409/318 318/408/317
f 297/420/313 296/421/312 316/411/320 320/410/319
s 50
f 335/422/321 336/423/322 330/424/323 332/425/324
f 337/426/325 338/427/326 326/428/327 325/429/328
f 333/430/329 334/431/330 329/432/331 328/433/332
f 327/434/333 329/432/331 340/435/334 341/436/335
f 334/431/330 339/437/336 340/435/334 329/432/331
f 321/438/337 322/439/338 323/440/339
f 324/441/340 325/429/328 326/428/327
f 327/434/333 328/433/332 329/432/331
f 330/424/323 331/442/341 332/425/324
f 324/441/340 326/428/327 334/431/330 333/430/329
f 338/427/326 339/437/336 334/431/330 326/428/327
f 321/438/337 323/440/339 336/423/322 335/422/321
f 322/439/338 321/438/337 338/427/326 337/426/325
f 321/438/337 335/422/321 339/437/336 338/427/326
f 340/435/334 339/437/336 335/422/321 332/425/324
f 341/436/335 340/435/334 332/425/324 331/442/341
s 53
f 362/443/342 358/444/343 347/445/344 346/446/345
f 357/447/346 354/448/347 349/449/348 348/450/349
f 355/451/350 356/452/351 353/453/352 352/454/353
f 359/455/354 360/456/355 352/457/353 351/458/356
f 360/459/355 361/460/357 355/461/350 352/462/353
f 342/463/358 343/464/359 344/465/360
f 345/466/361 346/467/345 347/468/344
f 348/450/349 349/449/348 350/469/362
f 351/458/356 352/457/353 353/470/352
f 361/460/357 364/471/363 365/472/364 355/461/350
f 365/473/364 366/474/365 356/452/351 355/451/350
f 367/475/366 363/476/367 354/448/347 357/447/346
f 350/477/362 349/478/348 360/456/355 359/455/354
f 354/479/347 361/460/357 360/459/355 349/480/348
f 363/481/367 364/471/363 361/460/357 354/479/347
f 343/464/359 342/463/358 358/444/343 362/443/342
f 343/482/359 362/483/342 364/471/363 363/481/367
f 365/472/364 364/471/363 362/483/342 346/484/345
f 346/467/345 345/466/361 366/474/365 365/473/364
f 344/485/360 343/486/359 363/476/367 367/475/366
s 57
f 383/487/368 380/488/369 377/489/370 379/490/371
f 388/491/372 384/492/373 372/493/374 371/494/375
f 381/495/376 382/496/377 375/497/378 374/498/379
f 374/498/379 376/499/380 385/500/381 386/501/382
f 386/501/382 387/502/383 381/495/376 374/498/379
f 368/503/384 369/504/385 370/505/386
f 371/494/375 372/493/374 373/506/387
f 374/498/379 375/497/378 376/499/380
f 377/489/370 378/507/388 379/490/371
f 381/495/376 387/502/383 388/491/372 371/494/375
f 371/494/375 373/506/387 382/496/377 381/495/376
f 368/503/384 370/505/386 380/488/369 383/487/368
f 386/501/382 385/500/381 378/507/388 377/489/370
f 377/489/370 380/488/369 387/502/383 386/501/382
f 388/491/372 387/502/383 380/488/369 370/505/386
f 370/505/386 369/504/385 384/492/373 388/491/372
s 60
f 404/508/389 401/509/390 414/510/391 410/511/392
f 409/512/393 405/513/394 393/514/395 392/515/396
f 402/516/397 403/517/398 411/518/399 412/519/400
f 395/520/401 397/521/402 406/522/403 407/523/404
f 412/524/400 413/525/405 408/526/406 402/527/397
f 389/528/407 390/529/408 391/530/409
f 392/515/396 393/514/395 394/531/410
f 395/532/401 396/533/411 397/534/402
f 398/535/412 399/536/413 400/537/414
f 402/527/397 408/526/406 409/512/393 392/515/396
f 392/515/396 394/531/410 403/538/398 402/527/397
f 389/528/407 391/530/409 401/509/390 404/508/389
f 407/523/404 406/522/403 416/539/415 417/540/416
f 413/525/405 418/541/417 419/542/418 408/526/406
f 409/512/393 408/526/406 419/542/418 420/543/419
f 420/543/419 415/544/420 405/513/394 409/512/393
f 412/524/400 411/545/399 396/546/411 395/520/401
f 407/523/404 413/525/405 412/524/400 395/520/401
f 417/540/416 418/541/417 413/525/405 407/523/404
f 410/547/392 414/548/391 398/535/412 400/537/414
f 417/540/416 416/539/415 399/536/413 398/535/412
f 398/535/412 414/548/391 418/541/417 417/540/416
f 419/542/418 418/541/417 414/548/391 401/549/390
f 420/543/419 419/542/418 401/549/390 391/550/409
f 391/550/409 390/551/408 415/544/420 420/543/419
s 66
f 441/552/421 437/553/422 426/554/423 425/555/424
f 436/556/425 433/557/426 428/558/427 427/559/428
f 434/560/429 435/561/430 432/562/431 431/563/432
f 438/564/433 439/565/434 431/566/432 430/567/435
f 439/568/434 440/569/436 434/570/429 431/571/432
f 421/572/437 422/573/438 423/574/439
f 424/575/440 425/576/424 426/577/423
f 427/559/428 428/558/427 429/578/441
f 430/579/435 431/563/432 432/562/431
f 440/569/436 441/580/421 425/581/424 434/570/429
f 425/576/424 424/575/440 435/561/430 434/560/429
f 423/574/439 422/573/438 433/557/426 436/556/425
f 429/582/441 428/583/427 439/565/434 438/564/433
f 433/584/426 440/569/436 439/568/434 428/585/427
f 422/586/438 441/580/421 440/569/436 433/584/426
f 422/587/438 421/588/437 437/553/422 441/552/421
s 70
f 456/589/442 457/590/443 451/591/444 453/592/445
f 458/593/446 459/594/447 447/595/448 446/596/449
f 454/597/450 455/598/451 450/599/452 449/600/453
f 448/601/454 450/599/452 461/602/455 462/603/456
f 455/598/451 460/604/457 461/602/455 450/599/452
f 442/605/458 443/606/459 444/607/460
f 445/608/461 446/596/449 447/595/448
f 448/601/454 449/600/453 450/599/452
f 451/591/444 452/609/462 453/592/445
f 445/608/461 447/595/448 455/598/451 454/597/450
f 459/594/447 460/604/457 455/598/451 447/595/448
f 442/605/458 444/607/460 457/590/443 456/589/442
f 443/606/459 442/605/458 459/594/447 458/593/446
f 442/605/458 456/589/442 460/604/457 459/594/447
f 461/602/455 460/604/457 456/589/442 453/592/445
f 462/603/456 461/602/455 453/592/445 452/609/462
s 73
f 483/610/463 479/611/464 468/612/465 467/613/466
f 478/614/467 475/615/468 470/616/469 469/617/470
f 476/618/471 477/619/472 474/620/473 473/621/474
f 480/622/475 481/623/476 473/624/474 472/625/477
f 481/626/476 482/627/478 476/628/471 473/629/474
f 463/630/479 464/631/480 465/632/481
f 466/633/482 467/634/466 468/635/465
f 469/617/470 470/616/469 471/636/483
f 472/637/477 473/621/474 474/620/473
f 482/627/478 483/638/463 467/639/466 476/628/471
f 467/634/466 466/633/482 477/619/472 476/618/471
f 465/632/481 464/631/480 475/615/468 478/614/467
f 471/640/483 470/641/469 481/623/476 480/622/475
f 475/642/468 482/627/478 481/626/476 470/643/469
f 464/644/480 483/638/463 482/627/478 475/642/468
f 464/645/480 463/646/479 479/611/464 483/610/463
s 77
f 499/647/484 496/648/485 493/649/486 495/650/487
f 504/651/488 500/652/489 488/653/490 487/654/491
f 497/655/492 498/656/493 491/657/494 490/658/495
f 490/658/495 492/659/496 501/660/497 502/661/498
f 502/661/498 503/662/499 497/655/492 490/658/495
f 484/663/500 485/664/501 486/665/502
f 487/654/491 488/653/490 489/666/503
f 490/658/495 491/657/494 492/659/496
f 493/649/486 494/667/504 495/650/487
f 497/655/492 503/662/499 504/651/488 487/654/491
f 487/654/491 489/666/503 498/656/493 497/655/492
f 484/663/500 486/665/502 496/648/485 499/647/484
f 502/661/498 501/660/497 494/667/504 493/649/486
f 493/649/486 496/648/485 503/662/499 502/661/498
f 504/651/488 503/662/499 496/648/485 486/665/502
f 486/665/502 485/664/501 500/652/489 504/651/488
s 80
f 505/668/505 507/669/506 519/670/507 520/671/508
f 524/672/509 525/673/510 509/674/511 508/675/512
f 508/676/512 510/677/513 517/678/514 518/679/515
f 521/680/516 522/681/517 515/682/518 514/683/519
f 523/684/520 524/685/509 508/686/512 518/687/515
f 505/668/505 506/688/521 507/669/506
f 508/676/512 509/689/511 510/677/513
f 511/690/522 512/691/523 513/692/524
f 514/693/519 515/694/518 516/695/525
f 518/679/515 517/678/514 516/695/525 515/694/518
f 522/696/517 523/684/520 518/687/515 515/697/518
f 520/671/508 519/670/507 512/691/523 511/690/522
f 513/698/524 512/699/523 522/681/517 521/680/516
f 519/700/507 523/684/520 522/696/517 512/701/523
f 507/702/506 524/685/509 523/684/520 519/700/507
f 507/703/506 506/704/521 525/673/510 524/672/509
s 83
f 545/705/526 546/706/527 535/707/528 537/708/529
f 538/709/530 539/710/531 531/711/532 530/712/533
f 542/713/534 543/714/535 534/715/536 533/716/537
f 532/717/538 534/715/536 540/718/539 541/719/540
f 543/714/535 544/720/541 540/718/539 534/715/536
f 526/721/542 527/722/543 528/723/544
f 529/724/545 530/712/533 531/711/532
f 532/717/538 533/716/537 534/715/536
f 535/707/528 536/725/546 537/708/529
f 527/722/543 526/721/542 539/710/531 538/709/530
f 544/720/541 545/705/526 537/708/529 540/718/539
f 541/719/540 540/718/539 537/708/529 536/725/546
f 529/724/545 531/711/532 543/714/535 542/713/534
f 539/710/531 544/720/541 543/714/535 531/711/532
f 526/721/542 545/705/526 544/720/541 539/710/531
f 526/721/542 528/723/544 546/706/527 545/705/526
s 86
f 562/726/547 559/727/548 572/728/549 568/729/550
f 567/730/551 563/731/552 551/732/553 550/733/554
f 560/734/555 561/735/556 569/736/557 570/737/558
f 553/738/559 555/739/560 564/740/561 565/741/562
f 570/742/558 571/743/563 566/744/564 560/745/555
f 547/746/565 548/747/566 549/748/567
f 550/733/554 551/732/553 552/749/568
f 553/750/559 554/751/569 555/752/560
f 556/753/570 557/754/571 558/755/572
f 560/745/555 566/744/564 567/730/551 550/733/554
f 550/733/554 552/749/568 561/756/556 560/745/555
f 547/746/565 549/748/567 559/727/548 562/726/547
f 565/741/562 564/740/561 574/757/573 575/758/574
f 571/743/563 576/759/575 577/760/576 566/744/564
f 567/730/551 566/744/564 577/760/576 578/761/577
f 578/761/577 573/762/578 563/731/552 567/730/551
f 570/742/558 569/763/557 554/764/569 553/738/559
f 565/741/562 571/743/563 570/742/558 553/738/559
f 575/758/574 576/759/575 571/743/563 565/741/562
f 568/765/550 572/766/549 556/753/570 558/755/572
f 575/758/574 574/757/573 557/754/571 556/753/570
f 556/753/570 572/766/549 576/759/575 575/758/574
f 577/760/576 576/759/575 572/766/549 559/767/548
f 578/761/577 577/760/576 559/767/548 549/768/567
f 549/768/567 548/769/566 573/762/578 578/761/577
s 92
f 599/770/579 595/771/580 584/772/581 583/773/582
f 594/774/583 591/775/584 586/776/585 585/777/586
f 592/778/587 593/779/588 590/780/589 589/781/590
f 596/782/591 597/783/592 589/784/590 588/785/593
f 597/786/592 598/787/594 592/788/587 589/789/590
f 579/790/595 580/791/596 581/792/597
f 582/793/598 583/794/582 584/795/581
f 585/777/586 586/776/585 587/796/599
f 588/797/593 589/781/590 590/780/589
f 598/787/594 599/798/579 583/799/582 592/788/587
f 583/794/582 582/793/598 593/779/588 592/778/587
f 581/792/597 580/791/596 591/775/584 594/774/583
f 587/800/599 586/801/585 597/783/592 596/782/591
f 591/802/584 598/787/594 597/786/592 586/803/585
f 580/804/596 599/798/579 598/787/594 591/802/584
f 580/805/596 579/806/595 595/771/580 599/770/579
s 96
f 615/807/600 612/808/601 625/809/602 621/810/603
f 620/811/604 616/812/605 604/813/606 603/814/607
f 613/815/608 614/816/609 622/817/610 623/818/611
f 606/819/612 608/820/613 617/821/614 618/822/615
f 623/823/611 624/824/616 619/825/617 613/826/608
f 600/827/618 601/828/619 602/829/620
f 603/814/607 604/813/606 605/830/621
f 606/831/612 607/832/622 608/833/613
f 609/834/623 610/835/624 611/836/625
f 613/826/608 619/825/617 620/811/604 603/814/607
f 603/814/607 605/830/621 614/837/609 613/826/608
f 600/827/618 602/829/620 612/808/601 615/807/600
f 618/822/615 617/821/614 627/838/626 628/839/627
f 624/824/616 629/840/628 630/841/629 619/825/617
f 620/811/604 619/825/617 630/841/629 631/842/630
f 631/842/630 626/843/631 616/812/605 620/811/604
f 623/823/611 622/844/610 607/845/622 606/819/612
f 618/822/615 624/824/616 623/823/611 606/819/612
f 628/839/627 629/840/628 624/824/616 618/822/615
f 621/846/603 625/847/602 609/834/623 611/836/625
f 628/839/627 627/838/626 610/835/624 609/834/623
f 609/834/623 625/847/602 629/840/628 628/839/627
f 630/841/629 629/840/628 625/847/602 612/848/601
f 631/842/630 630/841/629 612/848/601 602/849/620
f 602/849/620 601/850/619 626/843/631 631/842/630
s 102
f 651/851/632 652/852/633 641/853/634 643/854/635
f 644/855/636 645/856/637 637/857/638 636/858/639
f 648/859/640 649/860/641 640/861/642 639/862/643
f 638/863/644 640/861/642 646/864/645 647/865/646
f 649/860/641 650/866/647 646/864/645 640/861/642
f 632/867/648 633/868/649 634/869/650
f 635/870/651 636/858/639 637/857/638
f 638/863/644 639/862/643 640/861/642
f 641/853/634 642/871/652 643/854/635
f 633/868/649 632/867/648 645/856/637 644/855/636
f 650/866/647 651/851/632 643/854/635 646/864/645
f 647/865/646 646/864/645 643/854/635 642/871/652
f 635/870/651 637/857/638 649/860/641 648/859/640
f 645/856/637 650/866/647 649/860/641 637/857/638
f 632/867/648 651/851/632 650/866/647 645/856/637
f 632/867/648 634/869/650 652/852/633 651/851/632
