# This file uses centimeters as units for non-parametric coordinates.

mtllib M_Vine.mtl
g default
v -4.664494 2.869873 -0.221031
v -5.896068 2.867983 0.251337
v -4.630067 1.553976 -0.136537
v -5.861640 1.552086 0.335831
v -9.769751 1.190228 0.167900
v -10.890249 1.824300 -0.119060
v -10.431379 0.051034 0.234188
v -11.551877 0.685106 -0.052772
v 8.881620 2.178674 -0.425724
v 13.265780 2.003853 -0.393134
v 8.854847 2.644452 -0.654055
v 13.265780 2.424232 -0.698226
v 8.671033 2.422134 -1.086015
v 13.265780 2.119145 -1.118601
v 8.697806 1.956360 -0.857684
v 13.265780 1.698765 -0.813513
v 7.586501 1.900998 0.002982
v 7.736578 2.070340 0.470526
v 7.541315 2.539556 0.363254
v 7.391238 2.370211 -0.104290
v 6.274112 0.902728 0.570765
v 6.424191 1.072070 1.038306
v 6.228928 1.541287 0.931039
v 6.078851 1.371942 0.463492
v 4.167955 -0.318338 -0.022891
v 4.318032 -0.148995 0.444653
v 4.122773 0.320223 0.337382
v 3.972694 0.150878 -0.130163
v 1.846970 -0.784182 -0.705773
v 1.884341 -0.642582 -0.207422
v 1.721819 -0.164955 -0.330946
v 1.684448 -0.306558 -0.829295
v -0.620981 -0.793614 -0.698925
v -0.632912 -0.654838 -0.198528
v -0.665913 -0.155523 -0.337794
v -0.653984 -0.294302 -0.838189
v -2.522520 0.022027 -0.731450
v -2.412289 0.073435 -0.226470
v -2.283040 0.570310 -0.305266
v -2.393271 0.518900 -0.810248
v -3.812098 1.170068 -0.557639
v -3.615391 1.150231 -0.077315
v -3.499126 1.655766 -0.104051
v -3.695837 1.675602 -0.584375
v -5.509731 1.519882 0.123630
v -5.313031 1.500045 0.603955
v -5.196766 2.005580 0.577218
v -5.393476 2.025416 0.096894
v -6.842148 1.026470 0.337365
v -6.660479 1.002886 0.823407
v -6.682879 1.520743 0.856906
v -6.864556 1.544322 0.370863
v -8.853010 0.915217 0.337365
v -8.671333 0.891635 0.823407
v -8.693741 1.409492 0.856906
v -8.875418 1.433070 0.370863
v -10.698038 1.355271 -0.279876
v -10.516369 1.331688 0.206166
v -10.538765 1.849545 0.239665
v -10.720446 1.873123 -0.246378
v -12.262911 2.806426 -0.890779
v -12.081242 2.782843 -0.404737
v -12.103638 3.300700 -0.371238
v -12.285318 3.324278 -0.857282
v -13.674929 3.724550 -0.329231
v -13.493259 3.700966 0.156811
v -13.515656 4.218824 0.190310
v -13.697336 4.242402 -0.295733
v -13.844906 3.120676 0.066964
v 13.211092 2.493703 0.078051
v -13.844906 3.593589 0.476119
v 13.211092 3.148613 0.644666
v -13.844906 4.008128 0.009349
v 13.211092 3.722685 -0.001738
v -13.844906 3.535215 -0.399806
v 13.211092 3.067774 -0.568354
v -8.145777 1.544909 0.054962
v -8.145777 1.786739 -0.217338
v -8.145777 2.062623 0.021350
v -8.145777 1.820793 0.293651
v -3.807460 0.746843 0.105964
v -3.807460 1.022727 0.344653
v -3.807460 1.264557 0.072353
v -3.807460 0.988673 -0.166336
v 4.771772 0.411402 0.062568
v 4.771772 0.812160 0.409296
v 4.771772 1.163449 0.013744
v 4.771772 0.762692 -0.332984
v 9.972459 1.430930 0.070199
v 9.972459 1.956934 0.525285
v 9.972459 2.418008 0.006114
v 9.972459 1.892005 -0.448973
v 0.547672 0.104625 0.084787
v 0.547672 0.369466 -0.213425
v 0.547672 0.671600 0.047977
v 0.547672 0.406760 0.346188
v -1.833423 0.264946 0.096365
v -1.833423 0.517206 -0.187680
v -1.833423 0.804989 0.061304
v -1.833423 0.552728 0.345349
v 5.371576 0.715084 0.527179
v 4.287598 0.026010 0.227047
v 6.048567 -0.408864 0.662583
v 4.964589 -1.097937 0.362451
vt 0.879842 0.275717
vt 0.948673 0.275717
vt 0.948673 0.344547
vt 0.879842 0.344547
vt 0.879842 0.431063
vt 0.948673 0.431063
vt 0.948673 0.499894
vt 0.879842 0.499894
vt 0.743486 0.269801
vt 0.587021 0.261520
vt 0.588680 0.243047
vt 0.743486 0.245881
vt 0.589017 0.224625
vt 0.747406 0.230608
vt 0.589210 0.206327
vt 0.747874 0.214895
vt 0.590735 0.188079
vt 0.745084 0.198282
vt 0.794483 0.201977
vt 0.792208 0.217484
vt 0.792772 0.247904
vt 0.795292 0.262228
vt 0.790909 0.233447
vt 0.837124 0.206495
vt 0.841831 0.217685
vt 0.835667 0.243961
vt 0.839314 0.255889
vt 0.839940 0.231467
vt 0.891721 0.207745
vt 0.898906 0.216268
vt 0.893906 0.237383
vt 0.894079 0.248835
vt 0.900403 0.227412
vt 0.945898 0.203428
vt 0.950645 0.213311
vt 0.949700 0.234250
vt 0.948269 0.245152
vt 0.953419 0.223920
vt 0.633527 0.374907
vt 0.631956 0.362059
vt 0.694605 0.358804
vt 0.694467 0.370757
vt 0.633680 0.417641
vt 0.637670 0.400323
vt 0.700782 0.395120
vt 0.700007 0.407863
vt 0.638165 0.387023
vt 0.698277 0.382255
vt 0.736062 0.358822
vt 0.737220 0.368985
vt 0.741323 0.389122
vt 0.740248 0.399633
vt 0.740752 0.378456
vt 0.766600 0.359492
vt 0.768144 0.368567
vt 0.770429 0.384318
vt 0.769407 0.392707
vt 0.770619 0.376340
vt 0.798530 0.356134
vt 0.799593 0.365021
vt 0.800543 0.382774
vt 0.801204 0.391622
vt 0.800116 0.373905
vt 0.611947 0.306663
vt 0.608902 0.297732
vt 0.635078 0.294341
vt 0.638594 0.303652
vt 0.610282 0.332470
vt 0.605352 0.324280
vt 0.635579 0.324429
vt 0.636801 0.334416
vt 0.607089 0.314887
vt 0.638012 0.314151
vt 0.673889 0.291820
vt 0.679828 0.300833
vt 0.676512 0.322608
vt 0.675745 0.333246
vt 0.681830 0.312426
vt 0.715719 0.289372
vt 0.723505 0.298525
vt 0.722963 0.320519
vt 0.717122 0.331511
vt 0.730210 0.308965
vt 0.771439 0.282899
vt 0.777293 0.295441
vt 0.783257 0.318574
vt 0.773067 0.329953
vt 0.787147 0.304704
vt 0.827221 0.268263
vt 0.831588 0.284569
vt 0.844964 0.325767
vt 0.832305 0.339160
vt 0.847836 0.307570
vt 0.734421 0.042507
vt 0.736313 0.034483
vt 0.836376 0.042778
vt 0.834390 0.050821
vt 0.732859 0.050708
vt 0.832459 0.058768
vt 0.734340 0.058781
vt 0.832805 0.066895
vt 0.735855 0.066685
vt 0.832996 0.074973
vt 0.601890 0.069328
vt 0.605992 0.082504
vt 0.597972 0.056067
vt 0.600406 0.042507
vt 0.603838 0.028914
vt 0.601674 0.128235
vt 0.600579 0.119322
vt 0.695600 0.112534
vt 0.697686 0.124615
vt 0.602478 0.137151
vt 0.699238 0.136832
vt 0.601765 0.146085
vt 0.697574 0.148969
vt 0.600750 0.154981
vt 0.695648 0.160922
vt 0.818622 0.106213
vt 0.822464 0.121949
vt 0.825381 0.138110
vt 0.821647 0.154099
vt 0.817804 0.169750
vt 0.896696 0.101108
vt 0.902794 0.120037
vt 0.907479 0.139340
vt 0.901576 0.158339
vt 0.895573 0.177249
vt 0.877407 0.083094
vt 0.878180 0.074480
vt 0.932097 0.084127
vt 0.930811 0.093151
vt 0.878672 0.065642
vt 0.933217 0.075053
vt 0.880825 0.056984
vt 0.935107 0.066127
vt 0.883045 0.048465
vt 0.937067 0.057200
vt 0.879842 0.355547
vt 0.948673 0.355547
vt 0.948673 0.424378
vt 0.879842 0.424378
vn 0.357161 0.069154 0.931479
vn 0.357161 0.069154 0.931479
vn 0.357161 0.069154 0.931479
vn 0.357161 0.069154 0.931479
vn -0.163728 0.151811 0.974755
vn -0.163728 0.151811 0.974755
vn -0.163728 0.151811 0.974755
vn -0.163728 0.151811 0.974755
vn 0.143682 -0.306757 0.940880
vn -0.015399 -0.242805 0.969953
vn 0.049182 0.972028 0.229657
vn 0.057752 0.990448 0.125212
vn 0.007239 0.183015 -0.983083
vn -0.147456 0.214023 -0.965635
vn -0.053979 -0.967580 -0.246730
vn -0.114254 -0.902475 -0.415312
vn 0.574728 -0.232810 0.784530
vn 0.081694 -0.861904 -0.500447
vn -0.091713 0.877673 0.470403
vn -0.585137 0.492180 -0.644495
vn 0.240228 -0.397013 0.885817
vn 0.474722 -0.712562 -0.516619
vn -0.385018 0.599134 0.701997
vn -0.325526 0.497746 -0.803917
vn 0.014100 -0.538919 0.842240
vn 0.386646 -0.751598 -0.534421
vn -0.449412 0.626723 0.636591
vn 0.116656 0.474587 -0.872444
vn -0.066282 -0.562548 0.824104
vn 0.172789 -0.825195 -0.537771
vn -0.133353 0.846295 0.515754
vn 0.073900 0.447529 -0.891211
vn -0.116763 -0.576634 0.808616
vn -0.142070 -0.879786 -0.453645
vn 0.165682 0.822613 0.543928
vn 0.074993 0.437103 -0.896280
vn -0.313606 -0.569907 0.759511
vn -0.464802 -0.719861 -0.515518
vn 0.482532 0.705259 0.519397
vn 0.233800 0.456157 -0.858638
vn -0.091806 -0.606799 0.789536
vn -0.465586 -0.580864 -0.667702
vn 0.523585 0.704985 0.478387
vn 0.093742 0.683590 -0.723822
vn 0.221542 -0.658036 0.719658
vn -0.167559 -0.643215 -0.747127
vn 0.195358 0.723625 0.661969
vn -0.225944 0.801329 -0.553914
vn 0.187628 -0.731725 0.655267
vn 0.067455 -0.690020 -0.720641
vn -0.053796 0.594350 0.802405
vn -0.161977 0.757693 -0.632190
vn -0.129081 -0.701886 0.700495
vn 0.014325 -0.689244 -0.724388
vn -0.124671 0.555760 0.821941
vn 0.207015 0.673327 -0.709771
vn -0.482029 -0.610881 0.628071
vn -0.268284 -0.689020 -0.673257
vn -0.039929 0.620004 0.783582
vn 0.567318 0.452758 -0.687866
vn -0.549462 -0.554208 0.625256
vn -0.298990 -0.614651 -0.729938
vn 0.644109 0.653801 0.397075
vn 0.329404 0.574911 -0.748980
vn -0.071759 -0.598416 0.797965
vn -0.587600 -0.529440 -0.611898
vn 0.600288 0.744507 0.292170
vn 0.289170 0.782229 -0.551814
vn 0.013182 0.009920 0.999864
vn -0.232005 -0.970932 0.058855
vn -0.201242 -0.977179 0.067986
vn 0.002482 0.042232 0.999105
vn 0.280471 0.957384 -0.068929
vn 0.193878 0.979033 -0.062503
vn -0.013052 -0.120101 -0.992676
vn -0.010918 -0.087181 -0.996133
vn 0.052643 0.067616 -0.996322
vn -0.265665 -0.961386 0.071829
vn 0.322709 0.945012 -0.053027
vn 0.092718 0.197622 0.975884
vn -0.011047 0.027662 0.999556
vn 0.027850 -0.997481 0.065233
vn 0.143662 -0.987706 0.061620
vn -0.019403 0.022025 0.999569
vn -0.062281 0.995772 -0.067521
vn -0.194129 0.978545 -0.069019
vn -0.017680 -0.101885 -0.994639
vn -0.002078 -0.107786 -0.994172
vn 0.239155 -0.968903 0.063492
vn -0.034123 0.049729 0.998180
vn -0.307348 0.949425 -0.064262
vn 0.002884 -0.079867 -0.996801
vn 0.310830 -0.947736 0.071981
vn -0.116331 0.219106 0.968741
vn -0.373304 0.926361 -0.049993
vn -0.069013 0.089210 -0.993619
vn -0.137391 -0.988444 0.064051
vn -0.029781 -0.095332 -0.995000
vn 0.137507 0.988193 -0.067572
vn -0.001246 0.034244 0.999413
vn -0.247504 -0.032422 0.968344
vn -0.247504 -0.032422 0.968344
vn -0.247505 -0.032422 0.968344
vn -0.247504 -0.032422 0.968344
s off
g pPlane6
usemtl lambert5SG
f 1/1/1 2/2/2 4/3/3 3/4/4
f 5/5/5 6/6/6 8/7/7 7/8/8
s 1
f 9/9/9 10/10/10 12/11/11 11/12/12
f 11/12/12 12/11/11 14/13/13 13/14/14
f 13/14/14 14/13/13 16/15/15 15/16/16
f 15/16/16 16/15/15 10/17/10 9/18/9
f 15/16/16 9/18/9 18/19/17 17/20/18
f 9/9/9 11/12/12 19/21/19 18/22/17
f 11/12/12 13/14/14 20/23/20 19/21/19
f 13/14/14 15/16/16 17/20/18 20/23/20
f 17/20/18 18/19/17 22/24/21 21/25/22
f 18/22/17 19/21/19 23/26/23 22/27/21
f 19/21/19 20/23/20 24/28/24 23/26/23
f 20/23/20 17/20/18 21/25/22 24/28/24
f 21/25/22 22/24/21 26/29/25 25/30/26
f 22/27/21 23/26/23 27/31/27 26/32/25
f 23/26/23 24/28/24 28/33/28 27/31/27
f 24/28/24 21/25/22 25/30/26 28/33/28
f 25/30/26 26/29/25 30/34/29 29/35/30
f 26/32/25 27/31/27 31/36/31 30/37/29
f 27/31/27 28/33/28 32/38/32 31/36/31
f 28/33/28 25/30/26 29/35/30 32/38/32
f 29/39/30 30/40/29 34/41/33 33/42/34
f 30/43/29 31/44/31 35/45/35 34/46/33
f 31/44/31 32/47/32 36/48/36 35/45/35
f 32/47/32 29/39/30 33/42/34 36/48/36
f 33/42/34 34/41/33 38/49/37 37/50/38
f 34/46/33 35/45/35 39/51/39 38/52/37
f 35/45/35 36/48/36 40/53/40 39/51/39
f 36/48/36 33/42/34 37/50/38 40/53/40
f 37/50/38 38/49/37 42/54/41 41/55/42
f 38/52/37 39/51/39 43/56/43 42/57/41
f 39/51/39 40/53/40 44/58/44 43/56/43
f 40/53/40 37/50/38 41/55/42 44/58/44
f 41/55/42 42/54/41 46/59/45 45/60/46
f 42/57/41 43/56/43 47/61/47 46/62/45
f 43/56/43 44/58/44 48/63/48 47/61/47
f 44/58/44 41/55/42 45/60/46 48/63/48
f 45/64/46 46/65/45 50/66/49 49/67/50
f 46/68/45 47/69/47 51/70/51 50/71/49
f 47/69/47 48/72/48 52/73/52 51/70/51
f 48/72/48 45/64/46 49/67/50 52/73/52
f 49/67/50 50/66/49 54/74/53 53/75/54
f 50/71/49 51/70/51 55/76/55 54/77/53
f 51/70/51 52/73/52 56/78/56 55/76/55
f 52/73/52 49/67/50 53/75/54 56/78/56
f 53/75/54 54/74/53 58/79/57 57/80/58
f 54/77/53 55/76/55 59/81/59 58/82/57
f 55/76/55 56/78/56 60/83/60 59/81/59
f 56/78/56 53/75/54 57/80/58 60/83/60
f 57/80/58 58/79/57 62/84/61 61/85/62
f 58/82/57 59/81/59 63/86/63 62/87/61
f 59/81/59 60/83/60 64/88/64 63/86/63
f 60/83/60 57/80/58 61/85/62 64/88/64
f 61/85/62 62/84/61 66/89/65 65/90/66
f 62/87/61 63/86/63 67/91/67 66/92/65
f 63/86/63 64/88/64 68/93/68 67/91/67
f 64/88/64 61/85/62 65/90/66 68/93/68
s 2
f 80/94/69 77/95/70 81/96/71 82/97/72
f 79/98/73 80/94/69 82/97/72 83/99/74
f 78/100/75 79/98/73 83/99/74 84/101/76
f 77/102/70 78/100/75 84/101/76 81/103/71
f 75/104/77 78/100/75 77/102/70 69/105/78
f 73/106/79 79/98/73 78/100/75 75/104/77
f 71/107/80 80/94/69 79/98/73 73/106/79
f 69/108/78 77/95/70 80/94/69 71/107/80
f 96/109/81 93/110/82 85/111/83 86/112/84
f 95/113/85 96/109/81 86/112/84 87/114/86
f 94/115/87 95/113/85 87/114/86 88/116/88
f 93/117/82 94/115/87 88/116/88 85/118/83
f 86/112/84 85/111/83 89/119/89 90/120/90
f 87/114/86 86/112/84 90/120/90 91/121/91
f 88/116/88 87/114/86 91/121/91 92/122/92
f 85/118/83 88/116/88 92/122/92 89/123/89
f 90/120/90 89/119/89 70/124/93 72/125/94
f 91/121/91 90/120/90 72/125/94 74/126/95
f 92/122/92 91/121/91 74/126/95 76/127/96
f 89/123/89 92/122/92 76/127/96 70/128/93
f 97/129/97 98/130/98 94/131/87 93/132/82
f 98/130/98 99/133/99 95/134/85 94/131/87
f 99/133/99 100/135/100 96/136/81 95/134/85
f 100/135/100 97/137/97 93/138/82 96/136/81
f 81/103/71 84/101/76 98/130/98 97/129/97
f 84/101/76 83/99/74 99/133/99 98/130/98
f 83/99/74 82/97/72 100/135/100 99/133/99
f 82/97/72 81/96/71 97/137/97 100/135/100
s off
f 101/139/101 102/140/102 104/141/103 103/142/104
