# This file uses centimeters as units for non-parametric coordinates.

mtllib M_WallPart2.mtl
g default
v -1.443879 0.073275 4.279532
v -1.460425 0.336042 4.443973
v -1.696587 0.319584 4.277313
v 1.706821 0.387102 4.276704
v 1.470659 0.373650 4.443634
v 1.482147 0.190755 4.278474
v -1.874792 3.133398 4.251955
v -1.638629 3.149856 4.418614
v -1.650117 3.329745 4.250185
v 1.276581 3.436599 4.249222
v 1.290491 3.218466 4.417996
v 1.526653 3.231365 4.189671
v -1.860807 2.901235 2.993426
v -1.646342 3.258575 2.969084
v -1.624646 2.914497 2.805377
v 1.283118 3.320325 2.801720
v 1.271630 3.503220 2.966880
v 1.519280 3.336783 2.968379
v -1.687251 0.160616 2.997003
v -1.451089 0.174068 2.830074
v -1.439601 -0.005821 2.998503
v 1.482147 0.179205 2.996836
v 1.470659 0.359093 2.828406
v 1.706821 0.375552 2.995066
v -1.581288 2.244202 4.400156
v 1.263757 2.424370 4.398533
v 1.576622 2.442729 4.237057
v 1.564491 2.430361 2.949885
v 1.340460 2.415151 2.836496
v -1.581288 2.230125 2.838164
v -1.817450 2.217051 3.047048
v -1.783039 2.230206 4.264938
v -1.694224 0.275810 3.561039
v -1.817450 2.221548 3.546002
v -1.874792 3.124742 3.291466
v -1.650117 3.321089 3.289697
v 1.271630 3.510975 3.827413
v 1.519280 3.344539 3.828913
v 1.576622 2.436484 3.544065
v 1.700541 0.479790 3.559201
v 1.479536 0.225519 3.561492
v -1.441725 0.032814 3.563229
v 1.266129 8.165401 5.911517
v 0.981358 8.166607 6.141813
v 0.984343 7.931594 5.903585
v 1.183883 11.330546 5.931135
v 1.176214 11.092324 6.166047
v 1.347184 11.092263 5.933196
v -1.848292 7.960076 5.839994
v -1.851277 8.195089 6.078221
v -2.011593 8.198359 5.837933
v -1.982618 11.125745 5.858443
v -1.574959 11.119987 6.104284
v -1.567290 11.358210 5.869372
v -1.395656 7.976041 2.921885
v -1.846080 8.360994 2.935099
v -1.387987 8.214264 2.686973
v -1.664654 11.144722 2.700621
v -1.916713 11.145598 2.931652
v -1.667639 11.379735 2.938848
v 1.216129 7.949780 2.980518
v 1.223798 8.188002 2.745606
v 1.384114 8.184731 2.985894
v 1.316744 11.113086 3.004241
v 1.079947 11.117125 2.762236
v 1.076962 11.352138 3.000464
v 1.199370 7.944731 3.724769
v -1.627066 7.973151 3.661316
v -1.962447 8.213164 3.655393
v -1.933472 11.140550 3.675903
v -1.765487 11.375502 3.681279
v 1.233029 11.345351 3.748595
v 1.396330 11.107068 3.750655
v 1.367355 8.179683 3.730145
v -0.803613 8.224131 6.062638
v -0.776045 11.009335 6.082152
v -0.766563 11.350681 5.812646
v -0.719473 11.364867 3.721416
v -0.703487 11.317744 2.988224
v -0.700240 11.134749 2.761642
v -0.728238 8.306060 2.741823
v -0.738194 7.968747 3.034247
v -0.753131 7.964247 3.697590
v -0.799993 7.950130 5.778690
v 1.333263 9.566043 5.869683
v 1.380636 9.580314 3.765915
v 1.396790 9.585180 3.048526
v 1.236282 9.588392 2.816776
v -0.716700 9.607764 2.810881
v -1.713895 9.618056 2.750546
v -1.884673 9.618176 2.974858
v -1.900827 9.613309 3.692248
v -1.948199 9.599038 5.796016
v -1.787691 9.595826 6.027766
v -0.788787 9.586048 6.012242
v 1.162486 9.566161 6.093996
v -1.588046 11.195383 -3.849207
v -1.885367 11.279927 -3.513481
v -1.650145 11.517967 -3.513188
v -1.629899 8.116941 -3.340495
v -1.867938 8.352163 -3.340206
v -1.631307 8.354095 -3.765416
v -1.650145 11.511052 2.106656
v -1.885367 11.273040 2.084367
v -1.562648 11.174277 2.829440
v -1.570655 8.447297 2.779067
v -1.867938 8.345256 2.273177
v -1.629899 8.110035 2.272888
v 1.277404 11.527927 2.556285
v 1.278813 11.290960 2.829583
v 1.515444 11.292706 2.555995
v 1.532872 8.365059 2.633451
v 1.296242 8.363414 2.825981
v 1.297650 8.127020 2.633159
v 1.277404 11.535160 -3.321618
v 1.515444 11.300070 -3.429157
v 1.278813 11.299103 -3.788150
v 1.296242 8.371508 -3.752315
v 1.532872 8.372288 -3.241166
v 1.297650 8.134248 -3.241458
v -1.046101 11.521739 -3.656274
v -1.046101 11.514105 2.548232
v -1.044596 11.261073 2.829546
v -1.027263 8.349581 2.825964
v -1.025854 8.113320 2.524812
v -1.025854 8.120779 -3.537099
v -1.027263 8.357799 -3.852698
v -1.044692 11.285345 -3.849096
v -1.885367 11.273556 1.664967
v -1.867938 8.345600 1.993368
v -1.629899 8.110378 1.993078
v -1.025854 8.113975 1.993082
v 1.297650 8.127808 1.993100
v 1.532872 8.365847 1.993392
v 1.515444 11.293393 1.996995
v 1.277404 11.528615 1.997284
v -1.046101 11.514783 1.997267
v -1.650145 11.511595 1.665260
v -1.642428 10.222112 -3.850404
v -1.038383 10.225708 -3.850400
v 1.285121 10.239541 -3.850383
v 1.521752 10.240712 -3.657850
v 1.521752 10.233756 1.995691
v 1.521752 10.233301 2.365629
v 1.285121 10.231398 2.767686
v -1.038322 10.207321 2.767656
v -1.587500 10.150640 2.767586
v -1.879058 10.212762 2.603719
v -1.879058 10.213511 1.995666
v -1.879058 10.220467 -3.657875
v 0.718288 11.295841 -3.849083
v 0.724597 10.236203 -3.850387
v 0.735717 8.368294 -3.852685
v 0.737126 8.131285 -3.545536
v 0.737126 8.124471 1.993096
v 0.737126 8.123715 2.607021
v 0.735717 8.360077 2.825977
v 0.724612 10.225590 2.767678
v 0.718311 11.283751 2.829574
v 0.716879 11.524593 2.554343
v 0.716879 11.525278 1.997280
v 0.576820 11.531387 -3.645426
v -1.801343 11.204865 -0.588751
v -1.795345 10.197175 -0.471483
v -1.785326 8.514171 -0.473554
v -1.521198 8.197659 -0.473943
v -0.984086 8.200857 -0.473940
v 0.692223 8.210836 -0.473927
v 1.187555 8.213785 -0.473923
v 1.448286 8.534973 -0.473528
v 1.438275 10.216670 -0.669427
v 1.432277 11.224456 -0.865118
v 1.119446 11.447544 -0.820332
v 0.614844 11.444346 -0.663420
v -1.003337 11.434475 -0.469961
v -1.577685 11.431201 -0.588472
v 0.797271 3.474390 1.353212
v 0.795877 3.870781 1.113333
v 1.021788 3.879625 1.360068
v -2.367315 3.541450 1.213599
v -2.120620 3.546777 0.987534
v -2.124026 3.312529 1.225996
v 0.902318 7.915541 1.324803
v 0.676407 7.906698 1.078067
v 0.659029 8.144463 1.312405
v -2.264465 8.056805 1.184541
v -2.236654 7.466627 0.953283
v -2.483349 7.461300 1.179348
v 0.790060 7.386278 4.254313
v 0.391809 8.021193 4.211324
v 0.543365 7.380951 4.480378
v -2.393019 7.728770 4.348709
v -2.393034 8.078554 4.109237
v -2.618930 7.719926 4.101974
v 0.900216 3.665028 4.286829
v 0.653521 3.659701 4.512894
v 0.670899 3.421937 4.278556
v -2.256658 3.471550 4.149492
v -2.277262 3.818284 4.382878
v -2.503172 3.809440 4.136143
v 0.932909 3.659497 3.543111
v 0.813700 7.686582 3.507922
v 0.563153 8.160681 3.493383
v -2.360340 8.073023 3.365519
v -2.589656 7.829931 3.357246
v -2.463190 3.557669 3.394577
v -2.219901 3.328748 3.406974
v 0.703592 3.416406 3.534838
v 0.679567 6.414926 1.128700
v -2.101934 6.331526 1.007046
v -2.452929 6.323380 1.263907
v -2.544793 6.338921 3.353639
v -2.524959 6.345926 4.088217
v -2.350578 6.353126 4.321405
v 0.474350 6.437829 4.444958
v 0.822167 6.445679 4.165041
v 0.851307 6.440749 3.502173
v 0.942726 6.425284 1.422564
v -0.601797 3.358633 1.345454
v -0.694211 3.374267 3.447716
v -0.725725 3.379598 4.164591
v -0.742728 3.617299 4.390397
v -0.823396 6.398393 4.328191
v -0.867156 7.820687 4.353668
v -0.864125 8.054999 4.123738
v -0.832612 8.049668 3.406863
v -0.740197 8.034035 1.304601
v -0.723194 7.796333 1.078795
v -0.682766 6.374602 1.129123
v -0.598766 3.592945 1.115524
v -2.011010 0.329509 -3.806383
v -2.097736 0.032286 -3.471126
v -2.334371 0.268921 -3.470835
v 1.066500 0.268703 -3.293958
v 0.829865 0.032068 -3.294249
v 0.829865 0.269226 -3.719170
v -2.334371 0.262006 2.149009
v -2.097736 0.025398 2.126722
v -1.997971 0.346611 2.872311
v 0.728974 0.322427 2.825264
v 0.829865 0.025161 2.319134
v 1.066500 0.261796 2.319425
v -2.334371 3.189051 2.602218
v -2.097736 3.188715 2.875808
v -2.097736 3.425686 2.602509
v 0.829865 3.425586 2.683568
v 0.829865 3.188715 2.875808
v 1.066500 3.188951 2.683276
v -2.334371 3.196283 -3.275684
v -2.097736 3.433050 -3.382643
v -2.097736 3.196857 -3.741925
v 0.829865 3.196808 -3.702488
v 0.829865 3.432814 -3.191050
v 1.066500 3.196179 -3.191341
v -2.334371 0.873151 -3.613182
v -2.334371 0.865517 2.591324
v -2.081681 0.865170 2.872949
v 0.829865 0.865170 2.872949
v 1.066500 0.865540 2.572087
v 1.066500 0.872999 -3.489823
v 0.829865 0.873388 -3.805713
v -2.097736 0.873388 -3.805713
v -2.097736 0.025914 1.707321
v 0.829865 0.025506 2.039324
v 1.066500 0.262140 2.039615
v 1.066500 0.866195 2.040358
v 1.066500 3.189739 2.043217
v 0.829865 3.426374 2.043508
v -2.097736 3.426374 2.043509
v -2.334371 3.189739 2.043217
v -2.334371 0.866195 2.040358
v -2.334371 0.262549 1.707613
v -1.038079 0.269333 -3.806457
v -1.038079 0.873388 -3.805713
v -1.038079 3.196932 -3.802855
v -1.038079 3.433330 -3.610032
v -1.038079 3.426374 2.043509
v -1.038079 3.425919 2.413447
v -1.038079 3.188789 2.815214
v -1.027835 0.865245 2.812355
v -0.974425 0.315740 2.811679
v -1.038079 0.024757 2.647378
v -1.038079 0.025506 2.039324
v -1.038079 0.032462 -3.614217
v -2.097736 2.636398 -3.803544
v -1.038079 2.636398 -3.803544
v 0.829865 2.636398 -3.803544
v 1.066500 2.636020 -3.496104
v 1.066500 2.629205 2.042527
v 1.066500 2.628449 2.656453
v 0.829865 2.628181 2.875118
v -1.035608 2.628255 2.814524
v -2.093863 2.628181 2.875118
v -2.334371 2.628519 2.599590
v -2.334371 2.629205 2.042527
v -2.334371 2.496085 -3.600349
v -2.025773 0.112283 -0.546205
v -1.018211 0.112138 -0.427698
v 0.664825 0.112138 -0.427698
v 0.982903 0.374376 -0.427375
v 0.982903 0.911497 -0.426715
v 0.982903 2.587834 -0.424652
v 0.982903 3.083175 -0.424042
v 0.663274 3.345813 -0.423719
v -1.018210 3.346056 -0.621687
v -2.025773 3.346299 -0.818617
v -2.250774 3.034747 -0.774490
v -2.250774 2.529943 -0.618194
v -2.250774 0.911497 -0.426714
v -2.250774 0.337285 -0.545928
v 1.130979 3.296481 -3.868945
v 1.125694 3.015355 -3.634271
v 1.367596 3.016959 -3.865513
v -2.032438 3.182887 -3.940948
v -1.801190 3.181283 -3.699052
v -1.795888 3.348576 -3.934498
v 1.368029 0.183532 -3.884723
v 1.126127 0.181928 -3.653481
v 1.131479 0.017843 -3.891174
v -1.795380 0.017843 -3.957080
v -1.800769 0.429340 -3.717710
v -2.032018 0.430945 -3.959607
v 1.433875 0.590226 -6.808892
v 1.053014 0.136234 -6.799802
v 1.202627 0.591831 -7.050789
v -1.724185 0.286103 -7.118768
v -1.729475 0.037697 -6.883872
v -1.966087 0.284498 -6.887526
v 1.433476 3.202741 -6.791179
v 1.202228 3.204346 -7.033076
v 1.196876 3.368430 -6.795383
v -1.729969 3.272058 -6.861943
v -1.724605 3.031471 -7.100154
v -1.966506 3.029867 -6.868912
v 1.416717 3.197692 -6.046928
v 1.417149 0.370466 -6.066097
v 1.180625 0.032648 -6.073715
v -1.746233 0.032648 -6.139621
v -1.982834 0.198337 -6.143825
v -1.983292 3.197692 -6.123489
v -1.746742 3.363381 -6.117039
v 1.180116 3.363381 -6.051132
v 1.087564 1.228876 -3.686619
v -1.697139 1.228876 -3.749324
v -2.030458 1.230721 -4.028852
v -1.983368 1.244906 -6.120082
v -1.914782 1.249877 -6.851737
v -1.725219 1.251406 -7.072872
v 1.102961 1.251406 -7.009187
v 1.431577 1.249406 -6.706865
v 1.416640 1.244906 -6.043521
v 1.369778 1.230789 -3.962422
v -0.268394 3.348934 -3.952946
v -0.221023 3.363205 -6.056714
v -0.204868 3.368072 -6.774104
v -0.199708 3.203929 -7.003258
v -0.200264 1.250999 -6.978568
v -0.199258 0.252928 -7.023266
v -0.204367 0.085692 -6.796358
v -0.220521 0.080826 -6.078969
v -0.267893 0.066555 -3.975200
v -0.273054 0.230697 -3.746046
v -0.272352 1.229283 -3.777207
v -0.273504 3.181699 -3.726038
v 1.423372 11.637664 0.338192
v 1.657096 11.633266 0.738221
v 1.418639 11.398490 0.734983
v 1.446734 14.800701 0.520507
v 1.681520 14.562233 0.520687
v 1.446616 14.565591 0.282870
v 1.389269 11.372630 4.772632
v 1.627726 11.607407 4.775870
v 1.389387 11.607741 5.010268
v 1.412091 14.535192 5.029182
v 1.652995 14.537117 4.442220
v 1.418208 14.775586 4.442039
v -1.534156 11.399002 4.200234
v -1.515171 11.775238 4.849583
v -1.768943 11.637470 4.200054
v -1.749408 14.562132 4.654631
v -1.515344 14.558033 5.008034
v -1.510951 14.796909 4.657870
v -1.507076 11.422845 0.477387
v -1.741862 11.661314 0.477206
v -1.503523 11.660980 0.242808
v -1.481818 14.587552 0.399052
v -1.720950 14.587188 0.742467
v -1.482493 14.821964 0.745705
v -0.762661 11.417037 0.482765
v -0.791967 11.391233 4.511577
v -0.793634 11.624774 4.994498
v -0.770930 14.552225 5.013412
v -0.767377 14.790360 4.778833
v -0.736287 14.817734 0.504736
v -0.736405 14.582623 0.267100
v -0.759109 11.655172 0.248186
v 1.599522 11.656564 3.284312
v 1.621123 14.441831 3.302308
v 1.351812 14.783463 3.302537
v -0.739878 14.799783 3.287426
v -1.473270 14.753407 3.281794
v -1.700040 14.570638 3.278974
v -1.721980 11.741884 3.260697
v -1.429741 11.404263 3.260661
v -0.766252 11.399086 3.265454
v 1.315305 11.382845 3.280492
v 1.381948 13.039390 0.272625
v -0.722283 13.055808 0.257424
v -1.439830 13.061406 0.252241
v -1.669629 13.061673 0.486700
v -1.651932 13.043556 3.269544
v -1.700218 13.034741 4.691893
v -1.473855 13.031449 4.929649
v -0.756307 13.025850 4.934833
v 1.347924 13.009433 4.950034
v 1.577723 13.009166 4.715574
v 1.550133 13.018573 3.292676
v 1.608312 13.036098 0.510381
v -2.158355 6.745591 -2.281163
v -2.158355 6.580210 -2.018465
v -2.394990 6.747009 -2.019368
v 1.005880 6.746209 -2.167085
v 0.769246 6.579410 -2.166182
v 0.769246 6.745224 -2.348845
v -2.394990 6.762282 0.800156
v -2.158355 6.595483 0.801059
v -2.158355 6.763267 0.981916
v 0.769246 6.762842 0.903586
v 0.769246 6.594851 0.684408
v 1.005880 6.823048 0.683172
v -2.394990 8.021634 0.572077
v -2.158355 8.044615 0.915233
v -2.158355 8.209554 0.571059
v 0.769246 8.210752 0.792310
v 0.769246 8.044938 0.974973
v 1.005880 8.043953 0.793213
v -2.394990 8.027880 -2.174028
v -2.158355 8.194679 -2.174932
v -2.158355 8.026896 -2.355788
v 0.769246 8.026896 -2.355788
v 0.769246 8.194679 -2.174932
v 1.005880 8.027880 -2.174028
v -2.158355 6.617187 -0.106336
v 0.692389 6.617187 -0.106336
v 1.005880 6.778488 -0.107210
v 0.993725 8.065701 -0.114183
v 0.769246 8.179220 -0.114798
v -2.158355 8.179220 -0.114798
v -2.394990 7.970466 -0.113667
v -2.360510 6.752524 -0.107070
v -2.394990 7.463435 -2.060642
v -2.394990 7.471498 -0.110964
v -2.394990 7.722795 0.794953
v -2.158355 7.723780 0.976713
v 0.769246 7.184382 0.979635
v 1.005880 7.183397 0.797875
v 1.005880 7.471498 -0.110964
v 1.005880 7.463376 -2.071619
v 0.769246 7.462076 -2.311421
v -2.158355 7.462035 -2.319116
v 1.401444 6.524054 1.062611
v 1.397877 6.263793 1.231765
v 1.634490 6.259067 1.064999
v -1.764052 6.453091 1.063251
v -1.527440 6.451371 1.230075
v -1.524963 6.631606 1.061642
v 1.596082 3.439877 1.090406
v 1.359469 3.444604 1.257172
v 1.356993 3.261363 1.092015
v -1.569269 3.379561 1.090950
v -1.566271 3.601120 1.255761
v -1.802885 3.602287 1.027542
v 1.599096 3.649742 -0.172106
v 1.357807 3.309546 -0.190161
v 1.362483 3.651272 -0.360049
v -1.567860 3.469926 -0.358415
v -1.570336 3.289691 -0.189983
v -1.804473 3.474653 -0.191649
v 1.636503 6.395216 -0.217970
v 1.399890 6.396936 -0.384793
v 1.402366 6.580177 -0.219637
v -1.524963 6.620056 -0.219996
v -1.527440 6.436814 -0.385153
v -1.764052 6.441541 -0.218387
v 1.371828 4.351508 1.222379
v -1.478652 4.390340 1.222029
v -1.792114 4.393156 1.060693
v -1.779960 4.381391 -0.226484
v -1.555501 4.377310 -0.339973
v 1.371828 4.337431 -0.339614
v 1.608441 4.336089 -0.130836
v 1.573964 4.347535 1.087070
v 1.635000 6.289995 0.348053
v 1.608441 4.340585 0.368119
v 1.596082 3.431221 0.129918
v 1.356993 3.252707 0.131527
v -1.570336 3.297446 0.670551
v -1.804473 3.482408 0.668884
v -1.792114 4.386911 0.367701
v -1.765406 6.347297 0.347536
v -1.525526 6.583847 0.345404
v 1.401908 6.551662 0.345694
v -1.509517 3.464350 -4.932560
v -1.509517 3.233578 -4.530797
v -1.746151 3.470187 -4.534264
v 1.654719 3.466722 -4.770698
v 1.418084 3.230113 -4.767230
v 1.418084 3.463262 -5.006791
v -1.746151 3.529359 -0.496859
v -1.509517 3.292749 -0.493391
v -1.509517 3.532819 -0.260766
v 1.418084 3.532819 -0.260766
v 1.418084 3.287583 -0.845934
v 1.654719 3.524192 -0.849402
v -1.746151 6.448567 -1.090977
v -1.365592 6.437307 -0.443972
v -1.509517 6.685176 -1.094444
v 1.418084 6.691561 -0.658808
v 1.418084 6.460105 -0.303668
v 1.654719 6.454951 -0.655340
v -1.746151 6.394009 -4.813600
v -1.509517 6.630618 -4.817068
v -1.509517 6.390548 -5.049693
v 1.418084 6.392561 -4.912371
v 1.418084 6.634228 -4.570735
v 1.654719 6.397619 -4.567268
v -1.746151 5.649632 -4.802690
v -1.746151 5.708674 -0.774121
v -1.509517 5.715729 -0.292758
v 1.418084 5.715729 -0.292758
v 1.654719 5.712269 -0.528852
v 1.654719 5.649632 -4.802690
v 1.418084 5.646172 -5.038784
v -1.509516 5.646172 -5.038784
v -1.470217 3.310247 -1.985405
v 1.315191 3.310247 -1.985405
v 1.654719 3.582178 -1.989391
v 1.654719 5.673761 -2.020045
v 1.602621 6.406713 -2.030787
v 1.418084 6.632040 -2.034089
v -1.410813 6.632040 -2.034089
v -1.746151 6.337217 -2.029768
v -1.746151 5.673761 -2.020045
v -1.746151 3.592310 -1.989539
v -0.108607 3.516088 -5.007565
v -0.108607 5.620212 -5.038403
v -0.108607 6.337722 -5.048919
v -0.108607 6.569252 -4.816168
v -0.108607 6.572095 -2.033211
v -0.108607 6.630879 -0.611229
v -0.108607 6.406270 -0.371793
v -0.108607 5.688759 -0.361277
v -0.108607 3.584635 -0.330439
v -0.108607 3.353105 -0.563191
v -0.108607 3.370193 -1.986284
v -0.108607 3.291478 -4.768129
v -1.496391 0.035827 4.571293
v -1.791777 0.369399 4.472620
v -1.545455 0.371482 4.246096
v -1.689046 0.543285 7.644194
v -1.915567 0.541907 7.397863
v -1.676013 0.118437 7.407263
v -1.586854 5.991174 4.252746
v -1.833014 5.967096 4.479245
v -1.520838 6.714475 4.593284
v -1.658803 6.663217 7.316768
v -1.956918 6.155139 7.404506
v -1.730397 6.156516 7.650836
v 1.334792 6.462172 4.375794
v 1.322876 6.735401 4.612545
v 1.561313 6.463549 4.622124
v 1.438229 6.540240 7.547254
v 1.200389 6.731037 7.537579
v 1.191907 6.538157 7.773778
v 1.378092 0.584428 4.368838
v 1.605402 0.478558 4.615041
v 1.371626 0.117847 4.604714
v 1.248848 0.152919 7.529794
v 1.481504 0.665782 7.540302
v 1.235182 0.663700 7.766827
v -0.940891 0.232811 4.271205
v -0.986598 6.437149 4.278547
v -0.999244 6.718390 4.531349
v -1.121059 6.714050 7.440342
v -1.128744 6.412844 7.676413
v -1.084088 0.351098 7.669240
v -1.071861 0.035569 7.432438
v -0.949374 0.039933 4.507405
v -1.829924 5.547707 4.478748
v -1.954857 5.875337 7.404175
v -1.728336 5.876714 7.650506
v -1.124826 5.881129 7.675785
v 1.196622 5.898116 7.773021
v 1.442944 5.900198 7.546496
v 1.565431 5.904563 4.621462
v 1.338910 5.903185 4.375132
v -0.982539 5.886199 4.277895
v -1.583602 5.549789 4.252223
v -1.597218 0.033937 5.540854
v -0.993708 0.038353 5.566133
v 1.327740 0.055340 5.663369
v 1.562743 0.249595 5.673500
v 1.521096 5.902983 5.680190
v 1.518371 6.272912 5.680628
v 1.278988 6.673229 5.671201
v -1.042889 6.656227 5.584198
v -1.594133 6.652130 5.614567
v -1.881184 6.486158 5.538589
v -1.876705 5.878121 5.537869
v -1.835057 0.224733 5.531178
v 0.812046 0.052821 4.581184
v 0.767712 0.051242 5.639912
v 0.689559 0.048457 7.506218
v 0.677394 0.355537 7.743009
v 0.636593 5.894018 7.749564
v 0.632071 6.507927 7.750290
v 0.640360 6.726939 7.514122
v 0.718856 6.669127 5.650212
v 0.762685 6.731297 4.592957
v 0.774777 6.456135 4.352334
v 0.778881 5.899087 4.351675
v 0.680512 0.255512 4.339136
v -1.732812 3.294642 4.551480
v -1.775840 3.411644 5.558299
v -1.846257 3.409135 7.239859
v -1.597563 3.410578 7.568633
v -1.060926 3.414505 7.591110
v 0.613899 3.426760 7.661262
v 1.108793 3.430381 7.681992
v 1.384567 3.432778 7.373633
v 1.456376 3.237322 5.693389
v 1.499982 3.041898 4.686477
v 1.197852 3.084466 4.448690
v 0.692541 3.237690 4.427759
v -0.925633 3.419325 4.360268
v -1.498600 3.296622 4.336092
vt 0.083020 0.199607
vt 0.095918 0.196365
vt 0.101084 0.232473
vt 0.084746 0.233852
vt 0.081669 0.184556
vt 0.107959 0.340144
vt 0.093341 0.339900
vt 0.059454 0.235908
vt 0.068009 0.192323
vt 0.067928 0.179230
vt 0.097101 0.354005
vt 0.064408 0.336258
vt 0.023239 0.237601
vt 0.023932 0.194751
vt 0.021610 0.181564
vt 0.064962 0.355443
vt 0.027834 0.335386
vt 0.010842 0.237840
vt 0.010883 0.192868
vt 0.025339 0.353145
vt 0.013258 0.336887
vt 0.293080 0.323905
vt 0.304353 0.275697
vt 0.334797 0.274285
vt 0.335772 0.319861
vt 0.268297 0.276991
vt 0.271238 0.317898
vt 0.300508 0.176222
vt 0.328421 0.170868
vt 0.349840 0.321221
vt 0.347663 0.273704
vt 0.293170 0.340221
vt 0.339369 0.334264
vt 0.264538 0.173171
vt 0.265531 0.335360
vt 0.250024 0.277579
vt 0.254230 0.320519
vt 0.299973 0.158227
vt 0.330975 0.156993
vt 0.342549 0.169160
vt 0.261341 0.159274
vt 0.250294 0.172470
vt 0.015007 0.169976
vt 0.004455 0.169976
vt 0.004455 0.044753
vt 0.015007 0.044753
vt 0.039240 0.044753
vt 0.039219 0.169976
vt 0.069944 0.044721
vt 0.069906 0.169977
vt 0.083181 0.170257
vt 0.080494 0.044904
vt 0.173390 0.155736
vt 0.124814 0.030513
vt 0.162959 0.023262
vt 0.187876 0.153010
vt 0.130815 0.163829
vt 0.105819 0.034076
vt 0.204853 0.150133
vt 0.173921 0.021328
vt 0.119845 0.165718
vt 0.093536 0.036167
vt 0.116088 0.256449
vt 0.238023 0.256449
vt 0.241158 0.290299
vt 0.116220 0.295231
vt 0.115649 0.174246
vt 0.241717 0.167833
vt 0.217731 0.027133
vt 0.342954 0.017470
vt 0.343308 0.056643
vt 0.217563 0.056692
vt 0.343626 0.145718
vt 0.217164 0.145750
vt 0.019448 0.676178
vt 0.033612 0.676322
vt 0.034020 0.711753
vt 0.020855 0.714282
vt 0.086713 0.532538
vt 0.086855 0.518931
vt 0.160601 0.521690
vt 0.160467 0.535686
vt 0.127949 0.574945
vt 0.128103 0.555648
vt 0.179667 0.556453
vt 0.177707 0.571769
vt 0.193929 0.398898
vt 0.179730 0.398518
vt 0.186387 0.360318
vt 0.202357 0.363316
vt 0.288894 0.523631
vt 0.288965 0.502031
vt 0.327929 0.505288
vt 0.329555 0.521295
vt 0.170051 0.676091
vt 0.190019 0.676615
vt 0.187492 0.713845
vt 0.159502 0.711000
vt 0.281843 0.559888
vt 0.281958 0.546314
vt 0.354912 0.535203
vt 0.355378 0.557977
vt 0.354637 0.398218
vt 0.340318 0.398221
vt 0.335584 0.362748
vt 0.351716 0.359933
vt 0.162071 0.726581
vt 0.128442 0.729908
vt 0.128174 0.707996
vt 0.281191 0.710116
vt 0.281465 0.696453
vt 0.354880 0.698674
vt 0.354438 0.715093
vt 0.336704 0.346910
vt 0.288894 0.363336
vt 0.288857 0.348990
vt 0.087276 0.382253
vt 0.087606 0.368551
vt 0.161865 0.363635
vt 0.161206 0.379909
vt 0.097383 0.898568
vt 0.097326 0.848837
vt 0.168007 0.848638
vt 0.173486 0.888244
vt 0.281313 0.661633
vt 0.354847 0.662998
vt 0.257179 0.780004
vt 0.257130 0.730883
vt 0.332695 0.732264
vt 0.332815 0.780021
vt 0.087172 0.417109
vt 0.160969 0.416129
vt 0.289080 0.399366
vt 0.128174 0.675455
vt 0.024489 0.569810
vt 0.040845 0.555359
vt 0.041914 0.571210
vt 0.193902 0.504596
vt 0.192579 0.520489
vt 0.180197 0.505696
vt 0.191221 0.570970
vt 0.351195 0.506437
vt 0.033041 0.727614
vt 0.201514 0.347255
vt 0.097327 0.751800
vt 0.173218 0.751760
vt 0.257219 0.876898
vt 0.333008 0.868244
vt 0.018468 0.415836
vt 0.018924 0.521773
vt 0.018858 0.379254
vt 0.019107 0.365145
vt 0.193316 0.780004
vt 0.187790 0.876671
vt 0.188287 0.747681
vt 0.211795 0.723290
vt 0.219819 0.698027
vt 0.213248 0.662407
vt 0.214200 0.556877
vt 0.214663 0.543018
vt 0.029849 0.849124
vt 0.028679 0.900989
vt 0.027613 0.760059
vt 0.018667 0.539548
vt 0.716555 0.456738
vt 0.694762 0.457523
vt 0.695524 0.341584
vt 0.717869 0.331949
vt 0.791956 0.520765
vt 0.792028 0.499175
vt 0.923020 0.499810
vt 0.924622 0.533987
vt 0.971547 0.770026
vt 0.985627 0.768961
vt 0.986068 0.787431
vt 0.972335 0.787700
vt 0.683679 0.549606
vt 0.682535 0.533813
vt 0.753050 0.530404
vt 0.753300 0.545860
vt 0.654595 0.778594
vt 0.669475 0.778886
vt 0.666034 0.795908
vt 0.650980 0.791347
vt 0.486522 0.875090
vt 0.503598 0.868901
vt 0.533491 0.952911
vt 0.516060 0.959035
vt 0.547177 0.823612
vt 0.538617 0.808696
vt 0.623667 0.765383
vt 0.628203 0.794984
vt 0.642293 0.819012
vt 0.660439 0.812424
vt 0.687792 0.897146
vt 0.672350 0.902503
vt 0.836790 0.824536
vt 0.820407 0.819975
vt 0.828041 0.792686
vt 0.843336 0.793493
vt 0.601939 0.983955
vt 0.593825 0.961753
vt 0.681556 0.928602
vt 0.687211 0.942575
vt 0.807410 0.784776
vt 0.794853 0.786174
vt 0.791879 0.762181
vt 0.804742 0.760533
vt 0.792674 0.294035
vt 0.792957 0.272840
vt 0.925270 0.254714
vt 0.922865 0.293881
vt 0.403784 0.937477
vt 0.394960 0.909402
vt 0.473059 0.907096
vt 0.473866 0.917672
vt 0.584088 0.934866
vt 0.554024 0.850723
vt 0.554070 0.510606
vt 0.554032 0.493521
vt 0.640277 0.481090
vt 0.640288 0.510591
vt 0.792722 0.456738
vt 0.792551 0.332999
vt 0.922905 0.333515
vt 0.923085 0.456933
vt 0.708240 0.795751
vt 0.699251 0.774801
vt 0.770221 0.764588
vt 0.773888 0.787686
vt 0.876542 0.817969
vt 0.870773 0.792356
vt 0.947245 0.785746
vt 0.950060 0.808739
vt 0.724399 0.493792
vt 0.714237 0.523926
vt 0.693775 0.505501
vt 0.660419 0.558479
vt 0.647201 0.558810
vt 0.657248 0.539578
vt 0.976007 0.820363
vt 0.640442 0.766813
vt 0.533146 0.994743
vt 0.542924 0.979656
vt 0.549635 0.996462
vt 0.696084 0.925336
vt 0.837734 0.564218
vt 0.823688 0.560143
vt 0.833693 0.542999
vt 0.776920 0.534552
vt 0.788612 0.555734
vt 0.775622 0.556633
vt 0.954295 0.823962
vt 0.682392 0.831728
vt 0.715761 0.819235
vt 0.400090 0.802043
vt 0.467915 0.808693
vt 0.651841 0.673576
vt 0.668854 0.672925
vt 0.691066 0.671780
vt 0.758795 0.666970
vt 0.778524 0.665470
vt 0.794794 0.664202
vt 0.632620 0.624547
vt 0.554980 0.633668
vt 0.830540 0.667843
vt 0.847124 0.669403
vt 0.869175 0.675489
vt 0.938824 0.680699
vt 0.963003 0.674510
vt 0.976450 0.673838
vt 0.718611 0.292352
vt 0.717601 0.262171
vt 0.505163 0.510606
vt 0.508461 0.642749
vt 0.505166 0.484799
vt 0.498762 0.842623
vt 0.479132 0.806037
vt 0.338000 0.891342
vt 0.327867 0.917449
vt 0.358816 0.790851
vt 0.880831 0.843908
vt 0.840889 0.850214
vt 0.857630 0.537263
vt 0.866361 0.549273
vt 0.376476 0.675170
vt 0.418827 0.676525
vt 0.489546 0.699610
vt 0.554070 0.771640
vt 0.640284 0.752316
vt 0.505162 0.761165
vt 0.934749 0.546095
vt 0.960432 0.551042
vt 0.974502 0.550805
vt 0.617753 0.001929
vt 0.617491 0.019040
vt 0.580271 0.019115
vt 0.577859 0.002843
vt 0.598292 0.450054
vt 0.598577 0.433479
vt 0.675699 0.436464
vt 0.675427 0.453412
vt 0.722651 0.160129
vt 0.742665 0.160342
vt 0.741743 0.236167
vt 0.725481 0.234571
vt 0.491811 0.020151
vt 0.491459 0.002787
vt 0.532262 0.009796
vt 0.530097 0.031148
vt 0.367009 0.168614
vt 0.389562 0.167660
vt 0.388678 0.226307
vt 0.371745 0.228329
vt 0.616756 0.222037
vt 0.616037 0.249086
vt 0.577289 0.243802
vt 0.580271 0.206575
vt 0.435627 0.294395
vt 0.435863 0.277852
vt 0.511413 0.261568
vt 0.512401 0.292979
vt 0.502915 0.256820
vt 0.502114 0.239433
vt 0.539121 0.231373
vt 0.542838 0.252531
vt 0.563817 0.208578
vt 0.560632 0.159658
vt 0.583360 0.159581
vt 0.434369 0.454451
vt 0.434922 0.437752
vt 0.511615 0.439799
vt 0.510744 0.461049
vt 0.555993 0.231519
vt 0.535404 0.161174
vt 0.550440 0.160516
vt 0.599277 0.290220
vt 0.599969 0.273481
vt 0.678131 0.266769
vt 0.676763 0.287733
vt 0.434932 0.645942
vt 0.432434 0.584849
vt 0.489482 0.586157
vt 0.495457 0.631024
vt 0.434667 0.401071
vt 0.511573 0.402620
vt 0.828930 0.085606
vt 0.828936 0.011735
vt 0.908283 0.014123
vt 0.908233 0.085609
vt 0.599130 0.326775
vt 0.676338 0.325934
vt 0.497508 0.162882
vt 0.617837 0.159581
vt 0.728780 0.008757
vt 0.743935 0.031284
vt 0.727222 0.031932
vt 0.380289 0.025232
vt 0.363350 0.025074
vt 0.378368 0.008442
vt 0.726194 0.251004
vt 0.388996 0.259061
vt 0.563549 0.018330
vt 0.547120 0.029842
vt 0.438694 0.474244
vt 0.498207 0.478084
vt 0.828924 0.230051
vt 0.908256 0.217305
vt 0.526340 0.325426
vt 0.527242 0.436709
vt 0.527097 0.286568
vt 0.527664 0.269325
vt 0.761268 0.085606
vt 0.756124 0.230089
vt 0.756083 0.036726
vt 0.360320 0.475157
vt 0.369609 0.439420
vt 0.363160 0.401588
vt 0.364669 0.291085
vt 0.365580 0.274364
vt 0.374102 0.580753
vt 0.362141 0.648507
vt 0.382163 0.478883
vt 0.526727 0.460330
vt 0.716555 0.456738
vt 0.694762 0.457523
vt 0.695524 0.341584
vt 0.717869 0.331949
vt 0.791956 0.520765
vt 0.792028 0.499175
vt 0.923020 0.499810
vt 0.924622 0.533987
vt 0.971547 0.770026
vt 0.985627 0.768961
vt 0.986068 0.787431
vt 0.972335 0.787700
vt 0.683679 0.549606
vt 0.682535 0.533813
vt 0.753050 0.530404
vt 0.753300 0.545860
vt 0.654595 0.778594
vt 0.669475 0.778886
vt 0.666034 0.795908
vt 0.650980 0.791347
vt 0.486522 0.875090
vt 0.503598 0.868901
vt 0.533491 0.952911
vt 0.516060 0.959035
vt 0.547177 0.823612
vt 0.538617 0.808696
vt 0.623667 0.765383
vt 0.628203 0.794984
vt 0.642293 0.819012
vt 0.660439 0.812424
vt 0.687792 0.897146
vt 0.672350 0.902503
vt 0.836790 0.824536
vt 0.820407 0.819975
vt 0.828041 0.792686
vt 0.843336 0.793493
vt 0.601939 0.983955
vt 0.593825 0.961753
vt 0.681556 0.928602
vt 0.687211 0.942575
vt 0.807410 0.784776
vt 0.794853 0.786174
vt 0.791879 0.762181
vt 0.804742 0.760533
vt 0.792674 0.294035
vt 0.792957 0.272840
vt 0.925270 0.254714
vt 0.922865 0.293881
vt 0.403784 0.937477
vt 0.394960 0.909402
vt 0.473059 0.907096
vt 0.473866 0.917672
vt 0.584088 0.934866
vt 0.554024 0.850723
vt 0.554070 0.510606
vt 0.554032 0.493521
vt 0.640277 0.481090
vt 0.640288 0.510591
vt 0.792722 0.456738
vt 0.792551 0.332999
vt 0.922905 0.333515
vt 0.923085 0.456933
vt 0.708240 0.795751
vt 0.699251 0.774801
vt 0.770221 0.764588
vt 0.773888 0.787686
vt 0.876542 0.817969
vt 0.870773 0.792356
vt 0.947245 0.785746
vt 0.950060 0.808739
vt 0.724399 0.493792
vt 0.714237 0.523926
vt 0.693775 0.505501
vt 0.660419 0.558479
vt 0.647201 0.558810
vt 0.657248 0.539578
vt 0.976007 0.820363
vt 0.640442 0.766813
vt 0.533146 0.994743
vt 0.542924 0.979656
vt 0.549635 0.996462
vt 0.696084 0.925336
vt 0.837734 0.564218
vt 0.823688 0.560143
vt 0.833693 0.542999
vt 0.776920 0.534552
vt 0.788612 0.555734
vt 0.775622 0.556633
vt 0.954295 0.823962
vt 0.682392 0.831728
vt 0.715761 0.819235
vt 0.400090 0.802043
vt 0.467915 0.808693
vt 0.651841 0.673576
vt 0.668854 0.672925
vt 0.691066 0.671780
vt 0.758795 0.666970
vt 0.778524 0.665470
vt 0.794794 0.664202
vt 0.632620 0.624547
vt 0.554980 0.633668
vt 0.830540 0.667843
vt 0.847124 0.669403
vt 0.869175 0.675489
vt 0.938824 0.680699
vt 0.963003 0.674510
vt 0.976450 0.673838
vt 0.718611 0.292352
vt 0.717601 0.262171
vt 0.505163 0.510606
vt 0.508461 0.642749
vt 0.505166 0.484799
vt 0.498762 0.842623
vt 0.479132 0.806037
vt 0.338000 0.891342
vt 0.327867 0.917449
vt 0.358816 0.790851
vt 0.880831 0.843908
vt 0.840889 0.850214
vt 0.857630 0.537263
vt 0.866361 0.549273
vt 0.376476 0.675170
vt 0.418827 0.676525
vt 0.489546 0.699610
vt 0.554070 0.771640
vt 0.640284 0.752316
vt 0.505162 0.761165
vt 0.934749 0.546095
vt 0.960432 0.551042
vt 0.974502 0.550805
vt 0.019448 0.676178
vt 0.033612 0.676322
vt 0.034020 0.711753
vt 0.020855 0.714282
vt 0.086713 0.532538
vt 0.086855 0.518931
vt 0.160601 0.521690
vt 0.160467 0.535686
vt 0.127949 0.574945
vt 0.128103 0.555648
vt 0.179667 0.556453
vt 0.177707 0.571769
vt 0.193929 0.398898
vt 0.179730 0.398518
vt 0.186387 0.360318
vt 0.202357 0.363316
vt 0.288894 0.523631
vt 0.288965 0.502031
vt 0.327929 0.505288
vt 0.329555 0.521295
vt 0.170051 0.676091
vt 0.190019 0.676615
vt 0.187492 0.713845
vt 0.159502 0.711000
vt 0.281843 0.559888
vt 0.281958 0.546314
vt 0.354912 0.535203
vt 0.355378 0.557977
vt 0.354637 0.398218
vt 0.340318 0.398221
vt 0.335584 0.362748
vt 0.351716 0.359933
vt 0.162071 0.726581
vt 0.128442 0.729908
vt 0.128174 0.707996
vt 0.281191 0.710116
vt 0.281465 0.696453
vt 0.354880 0.698674
vt 0.354438 0.715093
vt 0.336704 0.346910
vt 0.288894 0.363336
vt 0.288857 0.348990
vt 0.087276 0.382253
vt 0.087606 0.368551
vt 0.161865 0.363635
vt 0.161206 0.379909
vt 0.097383 0.898568
vt 0.097326 0.848837
vt 0.168007 0.848638
vt 0.173486 0.888244
vt 0.281313 0.661633
vt 0.354847 0.662998
vt 0.257179 0.780004
vt 0.257130 0.730883
vt 0.332695 0.732264
vt 0.332815 0.780021
vt 0.087172 0.417109
vt 0.160969 0.416129
vt 0.289080 0.399366
vt 0.128174 0.675455
vt 0.024489 0.569810
vt 0.040845 0.555359
vt 0.041914 0.571210
vt 0.193902 0.504596
vt 0.192579 0.520489
vt 0.180197 0.505696
vt 0.191221 0.570970
vt 0.351195 0.506437
vt 0.033041 0.727614
vt 0.201514 0.347255
vt 0.097327 0.751800
vt 0.173218 0.751760
vt 0.257219 0.876898
vt 0.333008 0.868244
vt 0.018468 0.415836
vt 0.018924 0.521773
vt 0.018858 0.379254
vt 0.019107 0.365145
vt 0.193316 0.780004
vt 0.187790 0.876671
vt 0.188287 0.747681
vt 0.211795 0.723290
vt 0.219819 0.698027
vt 0.213248 0.662407
vt 0.214200 0.556877
vt 0.214663 0.543018
vt 0.029849 0.849124
vt 0.028679 0.900989
vt 0.027613 0.760059
vt 0.018667 0.539548
vt 0.617753 0.001929
vt 0.617491 0.019040
vt 0.580271 0.019115
vt 0.577859 0.002843
vt 0.598292 0.450054
vt 0.598577 0.433479
vt 0.675699 0.436464
vt 0.675427 0.453412
vt 0.722651 0.160129
vt 0.742665 0.160342
vt 0.741743 0.236167
vt 0.725481 0.234571
vt 0.491811 0.020151
vt 0.491459 0.002787
vt 0.532262 0.009796
vt 0.530097 0.031148
vt 0.367009 0.168614
vt 0.389562 0.167660
vt 0.388678 0.226307
vt 0.371745 0.228329
vt 0.616756 0.222037
vt 0.616037 0.249086
vt 0.577289 0.243802
vt 0.580271 0.206575
vt 0.435627 0.294395
vt 0.435863 0.277852
vt 0.511413 0.261568
vt 0.512401 0.292979
vt 0.502915 0.256820
vt 0.502114 0.239433
vt 0.539121 0.231373
vt 0.542838 0.252531
vt 0.563817 0.208578
vt 0.560632 0.159658
vt 0.583360 0.159581
vt 0.434369 0.454451
vt 0.434922 0.437752
vt 0.511615 0.439799
vt 0.510744 0.461049
vt 0.555993 0.231519
vt 0.535404 0.161174
vt 0.550440 0.160516
vt 0.599277 0.290220
vt 0.599969 0.273481
vt 0.678131 0.266769
vt 0.676763 0.287733
vt 0.434932 0.645942
vt 0.432434 0.584849
vt 0.489482 0.586157
vt 0.495457 0.631024
vt 0.434667 0.401071
vt 0.511573 0.402620
vt 0.828930 0.085606
vt 0.828936 0.011735
vt 0.908283 0.014123
vt 0.908233 0.085609
vt 0.599130 0.326775
vt 0.676338 0.325934
vt 0.497508 0.162882
vt 0.617837 0.159581
vt 0.728780 0.008757
vt 0.743935 0.031284
vt 0.727222 0.031932
vt 0.380289 0.025232
vt 0.363350 0.025074
vt 0.378368 0.008442
vt 0.726194 0.251004
vt 0.388996 0.259061
vt 0.563549 0.018330
vt 0.547120 0.029842
vt 0.438694 0.474244
vt 0.498207 0.478084
vt 0.828924 0.230051
vt 0.908256 0.217305
vt 0.526340 0.325426
vt 0.527242 0.436709
vt 0.527097 0.286568
vt 0.527664 0.269325
vt 0.761268 0.085606
vt 0.756124 0.230089
vt 0.756083 0.036726
vt 0.360320 0.475157
vt 0.369609 0.439420
vt 0.363160 0.401588
vt 0.364669 0.291085
vt 0.365580 0.274364
vt 0.374102 0.580753
vt 0.362141 0.648507
vt 0.382163 0.478883
vt 0.526727 0.460330
vt 0.064962 0.355443
vt 0.064408 0.336258
vt 0.093341 0.339900
vt 0.097101 0.354005
vt 0.083181 0.170257
vt 0.069906 0.169977
vt 0.069944 0.044721
vt 0.080494 0.044904
vt 0.023239 0.237601
vt 0.010842 0.237840
vt 0.010883 0.192868
vt 0.023932 0.194751
vt 0.300508 0.176222
vt 0.299973 0.158227
vt 0.330975 0.156993
vt 0.328421 0.170868
vt 0.250024 0.277579
vt 0.268297 0.276991
vt 0.271238 0.317898
vt 0.254230 0.320519
vt 0.068009 0.192323
vt 0.067928 0.179230
vt 0.081669 0.184556
vt 0.083020 0.199607
vt 0.130815 0.163829
vt 0.119845 0.165718
vt 0.093536 0.036167
vt 0.105819 0.034076
vt 0.293170 0.340221
vt 0.293080 0.323905
vt 0.335772 0.319861
vt 0.339369 0.334264
vt 0.095918 0.196365
vt 0.101084 0.232473
vt 0.084746 0.233852
vt 0.204853 0.150133
vt 0.187876 0.153010
vt 0.162959 0.023262
vt 0.173921 0.021328
vt 0.349840 0.321221
vt 0.334797 0.274285
vt 0.347663 0.273704
vt 0.015007 0.169976
vt 0.004455 0.169976
vt 0.004455 0.044753
vt 0.015007 0.044753
vt 0.116088 0.256449
vt 0.238023 0.256449
vt 0.241158 0.290299
vt 0.116220 0.295231
vt 0.173390 0.155736
vt 0.124814 0.030513
vt 0.217731 0.027133
vt 0.342954 0.017470
vt 0.343308 0.056643
vt 0.217563 0.056692
vt 0.039240 0.044753
vt 0.039219 0.169976
vt 0.304353 0.275697
vt 0.059454 0.235908
vt 0.025339 0.353145
vt 0.013258 0.336887
vt 0.027834 0.335386
vt 0.264538 0.173171
vt 0.250294 0.172470
vt 0.261341 0.159274
vt 0.021610 0.181564
vt 0.265531 0.335360
vt 0.107959 0.340144
vt 0.342549 0.169160
vt 0.115649 0.174246
vt 0.241717 0.167833
vt 0.343626 0.145718
vt 0.217164 0.145750
vt 0.064962 0.355443
vt 0.064408 0.336258
vt 0.093341 0.339900
vt 0.097101 0.354005
vt 0.083181 0.170257
vt 0.069906 0.169977
vt 0.069944 0.044721
vt 0.080494 0.044904
vt 0.023239 0.237601
vt 0.010842 0.237840
vt 0.010883 0.192868
vt 0.023932 0.194751
vt 0.300508 0.176222
vt 0.299973 0.158227
vt 0.330975 0.156993
vt 0.328421 0.170868
vt 0.250024 0.277579
vt 0.268297 0.276991
vt 0.271238 0.317898
vt 0.254230 0.320519
vt 0.068009 0.192323
vt 0.067928 0.179230
vt 0.081669 0.184556
vt 0.083020 0.199607
vt 0.130815 0.163829
vt 0.119845 0.165718
vt 0.093536 0.036167
vt 0.105819 0.034076
vt 0.293170 0.340221
vt 0.293080 0.323905
vt 0.335772 0.319861
vt 0.339369 0.334264
vt 0.095918 0.196365
vt 0.101084 0.232473
vt 0.084746 0.233852
vt 0.204853 0.150133
vt 0.187876 0.153010
vt 0.162959 0.023262
vt 0.173921 0.021328
vt 0.349840 0.321221
vt 0.334797 0.274285
vt 0.347663 0.273704
vt 0.015007 0.169976
vt 0.004455 0.169976
vt 0.004455 0.044753
vt 0.015007 0.044753
vt 0.116088 0.256449
vt 0.238023 0.256449
vt 0.241158 0.290299
vt 0.116220 0.295231
vt 0.173390 0.155736
vt 0.124814 0.030513
vt 0.217731 0.027133
vt 0.342954 0.017470
vt 0.343308 0.056643
vt 0.217563 0.056692
vt 0.039240 0.044753
vt 0.039219 0.169976
vt 0.304353 0.275697
vt 0.059454 0.235908
vt 0.025339 0.353145
vt 0.013258 0.336887
vt 0.027834 0.335386
vt 0.264538 0.173171
vt 0.250294 0.172470
vt 0.261341 0.159274
vt 0.021610 0.181564
vt 0.265531 0.335360
vt 0.107959 0.340144
vt 0.342549 0.169160
vt 0.115649 0.174246
vt 0.241717 0.167833
vt 0.343626 0.145718
vt 0.217164 0.145750
vt 0.617753 0.001929
vt 0.617491 0.019040
vt 0.580271 0.019115
vt 0.577859 0.002843
vt 0.598292 0.450054
vt 0.598577 0.433479
vt 0.675699 0.436464
vt 0.675427 0.453412
vt 0.722651 0.160129
vt 0.742665 0.160342
vt 0.741743 0.236167
vt 0.725481 0.234571
vt 0.491811 0.020151
vt 0.491459 0.002787
vt 0.532262 0.009796
vt 0.530097 0.031148
vt 0.367009 0.168614
vt 0.389562 0.167660
vt 0.388678 0.226307
vt 0.371745 0.228329
vt 0.616756 0.222037
vt 0.616037 0.249086
vt 0.577289 0.243802
vt 0.580271 0.206575
vt 0.435627 0.294395
vt 0.435863 0.277852
vt 0.511413 0.261568
vt 0.512401 0.292979
vt 0.502915 0.256820
vt 0.502114 0.239433
vt 0.539121 0.231373
vt 0.542838 0.252531
vt 0.563817 0.208578
vt 0.560632 0.159658
vt 0.583360 0.159581
vt 0.434369 0.454451
vt 0.434922 0.437752
vt 0.511615 0.439799
vt 0.510744 0.461049
vt 0.555993 0.231519
vt 0.535404 0.161174
vt 0.550440 0.160516
vt 0.599277 0.290220
vt 0.599969 0.273481
vt 0.678131 0.266769
vt 0.676763 0.287733
vt 0.434932 0.645942
vt 0.432434 0.584849
vt 0.489482 0.586157
vt 0.495457 0.631024
vt 0.434667 0.401071
vt 0.511573 0.402620
vt 0.828930 0.085606
vt 0.828936 0.011735
vt 0.908283 0.014123
vt 0.908233 0.085609
vt 0.599130 0.326775
vt 0.676338 0.325934
vt 0.497508 0.162882
vt 0.617837 0.159581
vt 0.728780 0.008757
vt 0.743935 0.031284
vt 0.727222 0.031932
vt 0.380289 0.025232
vt 0.363350 0.025074
vt 0.378368 0.008442
vt 0.726194 0.251004
vt 0.388996 0.259061
vt 0.563549 0.018330
vt 0.547120 0.029842
vt 0.438694 0.474244
vt 0.498207 0.478084
vt 0.828924 0.230051
vt 0.908256 0.217305
vt 0.526340 0.325426
vt 0.527242 0.436709
vt 0.527097 0.286568
vt 0.527664 0.269325
vt 0.761268 0.085606
vt 0.756124 0.230089
vt 0.756083 0.036726
vt 0.360320 0.475157
vt 0.369609 0.439420
vt 0.363160 0.401588
vt 0.364669 0.291085
vt 0.365580 0.274364
vt 0.374102 0.580753
vt 0.362141 0.648507
vt 0.382163 0.478883
vt 0.526727 0.460330
vt 0.716555 0.456738
vt 0.694762 0.457523
vt 0.695524 0.341584
vt 0.717869 0.331949
vt 0.791956 0.520765
vt 0.792028 0.499175
vt 0.923020 0.499810
vt 0.924622 0.533987
vt 0.971547 0.770026
vt 0.985627 0.768961
vt 0.986068 0.787431
vt 0.972335 0.787700
vt 0.683679 0.549606
vt 0.682535 0.533813
vt 0.753050 0.530404
vt 0.753300 0.545860
vt 0.654595 0.778594
vt 0.669475 0.778886
vt 0.666034 0.795908
vt 0.650980 0.791347
vt 0.486522 0.875090
vt 0.503598 0.868901
vt 0.533491 0.952911
vt 0.516060 0.959035
vt 0.547177 0.823612
vt 0.538617 0.808696
vt 0.623667 0.765383
vt 0.628203 0.794984
vt 0.642293 0.819012
vt 0.660439 0.812424
vt 0.687792 0.897146
vt 0.672350 0.902503
vt 0.836790 0.824536
vt 0.820407 0.819975
vt 0.828041 0.792686
vt 0.843336 0.793493
vt 0.601939 0.983955
vt 0.593825 0.961753
vt 0.681556 0.928602
vt 0.687211 0.942575
vt 0.807410 0.784776
vt 0.794853 0.786174
vt 0.791879 0.762181
vt 0.804742 0.760533
vt 0.792674 0.294035
vt 0.792957 0.272840
vt 0.925270 0.254714
vt 0.922865 0.293881
vt 0.403784 0.937477
vt 0.394960 0.909402
vt 0.473059 0.907096
vt 0.473866 0.917672
vt 0.584088 0.934866
vt 0.554024 0.850723
vt 0.554070 0.510606
vt 0.554032 0.493521
vt 0.640277 0.481090
vt 0.640288 0.510591
vt 0.792722 0.456738
vt 0.792551 0.332999
vt 0.922905 0.333515
vt 0.923085 0.456933
vt 0.708240 0.795751
vt 0.699251 0.774801
vt 0.770221 0.764588
vt 0.773888 0.787686
vt 0.876542 0.817969
vt 0.870773 0.792356
vt 0.947245 0.785746
vt 0.950060 0.808739
vt 0.724399 0.493792
vt 0.714237 0.523926
vt 0.693775 0.505501
vt 0.660419 0.558479
vt 0.647201 0.558810
vt 0.657248 0.539578
vt 0.976007 0.820363
vt 0.640442 0.766813
vt 0.533146 0.994743
vt 0.542924 0.979656
vt 0.549635 0.996462
vt 0.696084 0.925336
vt 0.837734 0.564218
vt 0.823688 0.560143
vt 0.833693 0.542999
vt 0.776920 0.534552
vt 0.788612 0.555734
vt 0.775622 0.556633
vt 0.954295 0.823962
vt 0.682392 0.831728
vt 0.715761 0.819235
vt 0.400090 0.802043
vt 0.467915 0.808693
vt 0.651841 0.673576
vt 0.668854 0.672925
vt 0.691066 0.671780
vt 0.758795 0.666970
vt 0.778524 0.665470
vt 0.794794 0.664202
vt 0.632620 0.624547
vt 0.554980 0.633668
vt 0.830540 0.667843
vt 0.847124 0.669403
vt 0.869175 0.675489
vt 0.938824 0.680699
vt 0.963003 0.674510
vt 0.976450 0.673838
vt 0.718611 0.292352
vt 0.717601 0.262171
vt 0.505163 0.510606
vt 0.508461 0.642749
vt 0.505166 0.484799
vt 0.498762 0.842623
vt 0.479132 0.806037
vt 0.338000 0.891342
vt 0.327867 0.917449
vt 0.358816 0.790851
vt 0.880831 0.843908
vt 0.840889 0.850214
vt 0.857630 0.537263
vt 0.866361 0.549273
vt 0.376476 0.675170
vt 0.418827 0.676525
vt 0.489546 0.699610
vt 0.554070 0.771640
vt 0.640284 0.752316
vt 0.505162 0.761165
vt 0.934749 0.546095
vt 0.960432 0.551042
vt 0.974502 0.550805
vn -0.017799 -0.999054 0.039677
vn -0.986594 -0.161826 0.021082
vn -0.935689 -0.155770 -0.316579
vn 0.006355 -0.985100 -0.171865
vn -0.041923 -0.051756 0.997779
vn -0.023306 -0.969606 0.243561
vn 0.103524 -0.967353 0.231322
vn 0.054399 -0.051781 0.997176
vn -0.965269 -0.058849 0.254543
vn -0.048453 0.005930 0.998808
vn -0.049091 0.139631 0.988986
vn -0.970967 0.136887 0.196175
vn 0.999633 -0.026726 -0.004337
vn 0.126443 -0.991415 0.033283
vn 0.117170 -0.978072 -0.172182
vn 0.950918 -0.039231 -0.306946
vn 0.051676 0.012746 0.998583
vn 0.946663 0.065676 0.315462
vn 0.939803 0.175818 0.293015
vn 0.051185 0.140748 0.988722
vn -0.980805 0.193380 -0.025016
vn -0.124631 0.992080 -0.015646
vn -0.113753 0.918755 -0.378086
vn -0.951786 0.016203 -0.306334
vn -0.114752 0.963589 0.241514
vn -0.013264 0.963521 0.267306
vn -0.003888 0.999955 0.008604
vn 0.953472 0.301147 0.014193
vn 0.937776 0.265983 -0.223226
vn -0.007600 0.939364 -0.342837
vn -0.060112 0.103119 -0.992851
vn -0.057938 -0.012397 -0.998243
vn -0.948563 -0.061605 -0.310537
vn 0.026672 0.129144 -0.991267
vn 0.950877 0.057492 -0.304182
vn 0.046371 -0.006066 -0.998906
vn -0.052112 -0.070796 -0.996129
vn 0.045947 -0.066198 -0.996748
vn 0.997999 0.062969 -0.005683
vn -0.997864 -0.063636 0.014739
vn -0.960137 -0.139654 0.242145
vn 0.953728 -0.030796 0.299091
vn 0.988199 -0.149295 0.034249
vn 0.111451 -0.993770 0.000322
vn 0.073350 -0.955925 -0.284302
vn 0.985813 -0.091783 -0.140528
vn 0.080470 -0.013492 0.996666
vn 0.994250 -0.021594 0.104889
vn 0.992918 0.078628 0.089062
vn 0.056170 0.100038 0.993397
vn -0.012160 -0.995522 0.093750
vn -0.023387 -0.121528 0.992312
vn -0.165493 -0.113734 0.979631
vn -0.202583 -0.975457 0.086278
vn 0.126962 0.991903 -0.003010
vn 0.995333 0.096466 0.002447
vn 0.963494 0.126017 -0.236219
vn 0.079025 0.974961 -0.207860
vn -0.021112 0.088370 0.995864
vn 0.007286 0.993194 0.116242
vn -0.156572 0.981699 0.108404
vn -0.149861 0.088190 0.984766
vn -0.223611 -0.973764 -0.042207
vn -0.987196 -0.149034 -0.056867
vn -0.910466 -0.178126 -0.373260
vn -0.173251 -0.943645 -0.281989
vn -0.997354 0.012421 0.071624
vn -0.198514 0.004093 0.980090
vn -0.985019 0.142543 0.097052
vn -0.990440 0.136825 -0.017515
vn -0.196476 0.980508 0.001296
vn -0.112076 0.971553 -0.208622
vn -0.970445 0.085186 -0.225787
vn -0.080475 -0.104230 -0.991292
vn 0.021804 -0.097837 -0.994964
vn -0.004181 -0.963772 -0.266694
vn -0.167653 -0.010240 -0.985793
vn -0.957652 -0.016492 -0.287456
vn -0.117596 0.087528 -0.989197
vn 0.014842 0.975056 -0.221462
vn 0.023372 0.100750 -0.994637
vn 0.982780 0.012913 -0.184326
vn 0.125338 0.012643 -0.992034
vn 0.095836 0.091127 -0.991217
vn -0.022517 -0.006673 0.999724
vn -0.999526 0.006038 -0.030191
vn 0.022503 0.006599 -0.999725
vn 0.999753 -0.012762 0.018189
vn 0.010078 0.999948 -0.001545
vn -0.009897 -0.999927 -0.007006
vn 0.979103 -0.160121 0.125371
vn 0.045634 -0.113264 0.992516
vn 0.085509 -0.991625 0.096785
vn 0.107624 0.986211 0.125718
vn -0.993680 -0.106097 0.036660
vn 0.096002 -0.116081 -0.988589
vn -0.011838 0.166211 -0.986019
vn -0.009473 0.998369 -0.056294
vn 0.000775 0.997745 -0.067113
vn 0.028679 0.181152 -0.983037
vn -0.997940 -0.007264 -0.063742
vn -0.357870 -0.018781 -0.933583
vn -0.379817 -0.178016 -0.907772
vn -0.992812 -0.116210 -0.028627
vn -0.225318 0.973637 -0.035548
vn -0.988904 0.144548 -0.034275
vn -0.962041 0.179324 0.205718
vn -0.290734 0.940081 0.178104
vn 0.001514 -0.998482 -0.055068
vn -0.021652 -0.154527 -0.987751
vn 0.028525 -0.157740 -0.987069
vn 0.012978 -0.998184 -0.058829
vn -0.991633 -0.124369 -0.034590
vn -0.305731 -0.951087 -0.044293
vn -0.249067 -0.935197 0.251738
vn -0.951697 -0.103555 0.289049
vn -0.059512 0.948998 0.309615
vn -0.030772 0.209932 0.977232
vn -0.001774 0.163920 0.986472
vn -0.007306 0.958955 0.283465
vn -0.420979 -0.000154 0.907070
vn -0.929314 0.015691 0.368958
vn -0.386130 -0.144428 0.911068
vn -0.022638 -0.120338 0.992475
vn -0.036137 -0.954330 0.296562
vn -0.000754 -0.961012 0.276506
vn -0.002155 -0.089537 0.995981
vn 0.228405 0.944957 0.234281
vn 0.950951 0.124472 0.283196
vn 0.974671 0.221381 -0.031730
vn 0.278807 0.959803 -0.032336
vn 0.967129 0.009201 0.254119
vn 0.369879 0.004689 0.929068
vn 0.324781 -0.033608 0.945192
vn 0.955300 -0.068463 0.287603
vn 0.250979 -0.940444 0.229293
vn 0.337556 -0.940407 -0.041129
vn 0.992157 -0.120675 -0.032582
vn 0.414061 -0.011274 -0.910179
vn 0.997576 0.004900 -0.069417
vn 0.994326 -0.103074 -0.026317
vn 0.448302 -0.190292 -0.873392
vn -0.999582 -0.007870 -0.027832
vn 0.000072 -0.001290 0.999999
vn -0.005052 -0.003490 0.999981
vn 0.999640 0.004116 -0.026524
vn -0.011840 -0.002676 -0.999926
vn 0.018532 -0.000284 -0.999828
vn 0.005951 -0.999564 -0.028918
vn 0.005951 -0.999579 -0.028392
vn -0.008030 0.999658 -0.024877
vn -0.005195 0.999675 -0.024970
vn -0.282153 0.163858 -0.945273
vn -0.986582 0.160583 -0.029474
vn -0.251939 0.967452 -0.023756
vn -0.273634 -0.961786 -0.009573
vn -0.438938 0.257929 0.860701
vn 0.346540 0.106400 0.931981
vn 0.235725 0.971819 -0.001322
vn 0.986411 0.161933 -0.027770
vn 0.349770 0.280059 -0.893996
vn 0.282788 -0.959181 -0.001891
vn -0.999979 -0.006451 -0.000852
vn -0.993170 -0.116679 -0.000206
vn -0.303667 -0.952778 -0.001209
vn 0.006623 -0.999977 -0.001246
vn 0.004970 -0.999987 -0.001248
vn 0.327669 -0.944792 -0.001191
vn 0.994571 -0.104037 -0.002097
vn 0.999978 0.006587 0.000064
vn 0.978176 0.207734 0.004220
vn 0.242441 0.970155 0.004711
vn -0.006981 0.999975 0.001206
vn -0.004331 0.999989 -0.001957
vn -0.258791 0.965926 0.003871
vn -0.986930 0.161140 0.001963
vn 0.225247 -0.974301 -0.001186
vn 0.997533 -0.057988 0.039562
vn 0.947336 -0.023380 0.319387
vn 0.133201 -0.961981 0.238432
vn 0.052478 -0.081745 -0.995271
vn 0.050132 -0.992936 -0.107538
vn -0.092017 -0.991724 -0.089536
vn -0.060913 -0.064972 -0.996026
vn 0.997840 0.029046 -0.058922
vn 0.158962 -0.003977 -0.987277
vn 0.149731 0.098358 -0.983822
vn 0.984346 0.167231 -0.055645
vn -0.992983 -0.114347 -0.030158
vn -0.121167 -0.992148 0.031011
vn -0.172245 -0.919334 0.353775
vn -0.983401 -0.068204 0.168139
vn -0.053831 -0.010496 -0.998495
vn -0.987559 -0.030536 -0.154256
vn -0.985954 0.079118 -0.147090
vn -0.048649 0.073403 -0.996115
vn 0.980434 0.182393 0.074048
vn 0.188747 0.980891 0.047186
vn 0.212940 0.861784 0.460418
vn 0.942842 0.140031 0.302390
vn -0.027771 0.989274 -0.143408
vn 0.029982 0.119724 -0.992354
vn -0.206978 0.961845 -0.178927
vn -0.207955 0.977894 -0.021872
vn -0.991373 0.123475 -0.043971
vn -0.984022 0.057297 0.168574
vn -0.140917 0.953361 0.266919
vn 0.057497 0.074875 0.995534
vn 0.063549 0.010375 0.997925
vn 0.951476 0.031079 0.306149
vn -0.026821 0.149440 0.988407
vn -0.005212 0.933529 0.358463
vn -0.127130 0.103692 0.986451
vn -0.982193 -0.027484 0.185855
vn -0.137135 0.004581 0.990542
vn -0.013907 -0.955903 0.293354
vn -0.049310 -0.067464 0.996502
vn -0.125400 -0.043180 0.991166
vn 0.043807 -0.007429 -0.999012
vn -0.024283 0.999702 0.002514
vn -0.043735 0.007438 0.999016
vn 0.033219 -0.999337 0.014934
vn -0.998937 -0.029872 -0.035103
vn 0.998597 0.029942 0.043675
vn 0.243907 -0.961333 -0.127856
vn 0.147712 -0.049741 -0.987779
vn 0.997776 -0.036982 -0.055464
vn -0.982189 -0.101051 -0.158408
vn 0.137300 0.986957 -0.084056
vn 0.078566 -0.041764 0.996034
vn -0.165066 -0.009642 -0.986235
vn -0.998338 -0.003458 -0.057527
vn -0.997640 0.006799 -0.068332
vn -0.179769 0.030960 -0.983222
vn 0.001401 -0.997887 -0.064961
vn 0.017799 -0.356833 -0.933998
vn 0.176868 -0.379760 -0.908020
vn 0.110333 -0.993451 -0.029706
vn -0.974916 -0.219472 -0.037016
vn -0.150391 -0.987983 -0.035669
vn -0.185301 -0.961207 0.204315
vn -0.942014 -0.285349 0.176597
vn 0.998540 -0.004364 -0.053844
vn 0.155610 -0.021364 -0.987588
vn 0.159121 0.028792 -0.986839
vn 0.998315 0.007106 -0.057592
vn 0.118506 -0.992313 -0.035658
vn 0.949304 -0.311335 -0.043505
vn 0.933388 -0.254938 0.252575
vn 0.097531 -0.952649 0.288005
vn -0.949716 -0.054238 0.308380
vn -0.211314 -0.030717 0.976936
vn -0.165142 -0.002004 0.986268
vn -0.959330 -0.001942 0.282282
vn -0.003468 -0.422082 0.906551
vn -0.021677 -0.929654 0.367795
vn 0.141006 -0.388097 0.910768
vn 0.118980 -0.024568 0.992593
vn 0.953732 -0.042182 0.297684
vn 0.960650 -0.006815 0.277680
vn 0.088297 -0.003906 0.996087
vn -0.943868 0.233741 0.233406
vn -0.119157 0.951328 0.284213
vn -0.215536 0.976010 -0.030802
vn -0.958085 0.284556 -0.033167
vn -0.003756 0.966855 0.255298
vn -0.003630 0.368763 0.929516
vn 0.034378 0.323418 0.945631
vn 0.073794 0.954522 0.288862
vn 0.941638 0.245094 0.230751
vn 0.942450 0.332000 -0.039564
vn 0.126619 0.991460 -0.031214
vn 0.014859 0.415100 -0.909655
vn 0.001124 0.997671 -0.068195
vn 0.109024 0.993726 -0.024967
vn 0.194032 0.448229 -0.872607
vn 0.001953 -0.999576 -0.029052
vn 0.000060 -0.001158 0.999999
vn 0.002229 -0.006296 0.999978
vn 0.001868 0.999678 -0.025299
vn 0.003836 -0.010632 -0.999936
vn 0.001625 0.019753 -0.999804
vn 0.999617 0.000034 -0.027688
vn 0.999631 0.000033 -0.027162
vn -0.999657 -0.002046 -0.026109
vn -0.999656 0.000788 -0.026199
vn -0.164371 -0.280016 -0.945819
vn -0.166417 -0.985572 -0.030884
vn -0.968904 -0.246144 -0.025250
vn 0.960151 -0.279344 -0.008734
vn -0.261597 -0.438447 0.859844
vn -0.105481 0.346027 0.932276
vn -0.970396 0.241509 -0.002220
vn -0.156024 0.987391 -0.026755
vn -0.276871 0.352524 -0.893906
vn 0.960849 0.277072 -0.000370
vn 0.000499 -0.999998 -0.002074
vn 0.110765 -0.993846 -0.001285
vn 0.950954 -0.309333 -0.000418
vn 1.000000 0.000670 -0.000015
vn 1.000000 -0.000984 -0.000019
vn 0.946727 0.322038 0.000368
vn 0.109959 0.993936 -0.000746
vn -0.000634 0.999999 0.001287
vn -0.201913 0.979390 0.005169
vn -0.968699 0.248208 0.003823
vn -0.999999 -0.001028 -0.000025
vn -0.999994 0.001626 -0.003185
vn -0.967453 -0.253038 0.002371
vn -0.167015 -0.985954 0.000551
vn 0.138784 0.990059 0.022851
vn 0.992219 0.121380 0.027719
vn 0.963155 0.078450 -0.257250
vn 0.086481 0.984360 -0.153479
vn -0.016696 0.096201 0.995222
vn 0.009003 0.995937 0.089606
vn -0.090692 0.993354 0.070867
vn -0.129843 0.070718 0.989009
vn 0.992392 -0.000729 0.123118
vn 0.092407 -0.006625 0.995699
vn 0.086347 -0.148983 0.985063
vn 0.974374 -0.191437 0.118099
vn -0.992548 0.116968 -0.034154
vn -0.105987 0.994235 -0.016263
vn -0.128177 0.958367 -0.255155
vn -0.969112 0.066000 -0.237627
vn -0.117517 -0.006395 0.993050
vn -0.996217 -0.000832 0.086902
vn -0.982933 -0.164670 0.082020
vn -0.115781 -0.135293 0.984018
vn 0.976675 -0.214491 -0.010029
vn 0.160059 -0.986425 -0.036714
vn 0.197743 -0.914372 -0.353300
vn 0.953166 -0.168196 -0.251364
vn -0.005014 -0.996185 0.087127
vn -0.031123 -0.183170 0.982589
vn -0.135941 -0.984755 0.108524
vn -0.126793 -0.991913 -0.005724
vn -0.978200 -0.206233 -0.024356
vn -0.963860 -0.125046 -0.235241
vn -0.069223 -0.974666 -0.212683
vn 0.134204 -0.094945 -0.986395
vn 0.126946 0.007196 -0.991884
vn 0.971219 0.001286 -0.238184
vn 0.040928 -0.182962 -0.982268
vn 0.034104 -0.961824 -0.271536
vn -0.057171 -0.133945 -0.989338
vn -0.968193 0.001615 -0.250201
vn -0.071571 0.006781 -0.997413
vn -0.016843 0.979594 -0.200278
vn 0.015445 0.109652 -0.993850
vn -0.062744 0.079383 -0.994868
vn -0.022620 -0.006788 0.999721
vn 0.004391 -0.999887 -0.014409
vn 0.022694 0.006775 -0.999720
vn 0.002681 0.999993 0.002607
vn -0.999518 0.000047 -0.031061
vn 0.999747 0.000000 0.022512
vn 0.147003 0.982500 0.114384
vn 0.083482 0.062305 0.994560
vn 0.987476 0.096933 0.124479
vn -0.990474 0.099706 0.094978
vn 0.114444 -0.991872 0.055604
vn 0.144285 0.081664 -0.986161
vn 0.023929 -0.189560 -0.981578
vn -0.002371 -0.995549 -0.094218
vn -0.284323 -0.956697 -0.062386
vn -0.219037 -0.106665 -0.969869
vn 0.997631 -0.013790 -0.067401
vn 0.124105 -0.010187 -0.992217
vn 0.100926 0.131088 -0.986220
vn 0.994010 0.098872 -0.046578
vn 0.094748 -0.995485 -0.005664
vn 0.992356 -0.123243 0.006374
vn 0.987040 -0.117862 0.108903
vn 0.088919 -0.987140 0.132845
vn -0.004287 0.996921 -0.078299
vn -0.020582 0.155897 -0.987559
vn -0.346041 0.192704 -0.918216
vn -0.202771 0.978573 -0.035752
vn 0.995921 0.089911 0.007642
vn 0.118661 0.992908 0.007268
vn 0.109922 0.987070 0.116664
vn 0.992478 0.081606 0.091253
vn -0.041042 -0.988429 0.146029
vn -0.054928 -0.225783 0.972628
vn -0.465182 -0.260425 0.846040
vn -0.269942 -0.957529 0.101337
vn 0.127515 -0.003022 0.991832
vn 0.990890 0.001262 0.134669
vn 0.156897 0.178220 0.971402
vn -0.000312 0.172986 0.984924
vn 0.006023 0.987179 0.159506
vn -0.205102 0.974625 0.089666
vn -0.286074 0.096580 0.953328
vn -0.993790 -0.095802 0.056604
vn -0.994995 -0.099592 -0.008102
vn -0.271757 -0.962334 -0.007902
vn -0.990849 -0.014044 0.134239
vn -0.372314 -0.041508 0.927178
vn -0.991862 0.087865 0.092141
vn -0.221037 0.975255 0.004606
vn -0.994833 0.101306 -0.006602
vn -0.279360 0.038064 -0.959432
vn -0.996518 0.015996 -0.081826
vn -0.994317 0.091297 -0.054756
vn 0.999944 -0.007693 0.007228
vn -0.018322 -0.012111 0.999759
vn -0.999945 0.007620 -0.007222
vn 0.001207 0.002549 -0.999996
vn -0.000824 0.999979 0.006404
vn -0.007755 -0.999949 -0.006461
vn 0.150986 -0.204129 -0.967230
vn 0.993132 -0.110330 -0.038945
vn 0.092276 -0.993149 -0.071695
vn 0.124057 0.990253 -0.063317
vn 0.074249 -0.169920 0.982657
vn -0.991781 -0.112630 -0.060706
vn -0.080926 -0.036068 -0.996067
vn -0.994861 -0.020161 -0.099222
vn -0.943483 0.317458 -0.095188
vn -0.055818 0.175414 -0.982911
vn -0.045679 -0.997572 -0.052572
vn -0.084678 -0.240056 -0.967059
vn 0.042048 -0.227868 -0.972784
vn 0.050450 -0.997001 -0.058682
vn -0.967204 -0.253998 0.001365
vn -0.048550 -0.998806 0.005408
vn -0.040731 -0.989466 0.138916
vn -0.960486 -0.196335 0.197278
vn 0.995948 0.004091 -0.089835
vn 0.063513 -0.029751 -0.997537
vn 0.055220 0.175667 -0.982900
vn 0.946712 0.306759 -0.098154
vn 0.051810 -0.998640 0.005883
vn 0.948741 -0.316020 0.004585
vn 0.948869 -0.293968 0.115019
vn 0.059415 -0.989240 0.133694
vn -0.966608 0.024654 0.255070
vn -0.061673 0.012112 0.998023
vn -0.055245 0.374810 0.925454
vn -0.948685 0.306600 0.077421
vn -0.053761 -0.244948 0.968045
vn 0.047505 -0.270774 0.961470
vn 0.059312 -0.012208 0.998165
vn 0.970590 -0.015605 0.240231
vn 0.952838 0.221944 0.206979
vn 0.051979 0.339451 0.939187
vn -0.052909 0.992493 0.110263
vn -0.058037 0.998301 -0.005140
vn -0.950383 0.311081 -0.000420
vn 0.035346 0.990786 0.130745
vn 0.952783 0.303647 -0.001633
vn 0.046464 0.998905 -0.005412
vn -0.055915 0.996395 -0.063797
vn 0.042239 0.996965 -0.065404
vn 0.999987 0.005114 -0.000212
vn -0.999900 -0.014168 -0.000494
vn -0.967181 -0.241311 -0.079558
vn 0.949704 -0.299304 -0.092082
vn 0.094490 0.995289 0.021704
vn 0.996122 0.085942 0.018849
vn 0.944668 0.077737 -0.318684
vn 0.069189 0.979427 -0.189570
vn 0.046464 0.066332 0.996715
vn 0.097861 0.969179 0.226089
vn -0.028776 0.976453 0.213805
vn -0.049572 0.073742 0.996045
vn 0.967114 -0.010875 0.254110
vn 0.048546 0.008343 0.998786
vn 0.038908 -0.125167 0.991372
vn 0.957724 -0.207490 0.199279
vn -0.994632 0.103325 -0.005509
vn -0.049917 0.998636 0.015349
vn -0.041838 0.980924 -0.189837
vn -0.945310 0.106605 -0.308260
vn -0.051811 0.009232 0.998614
vn -0.948692 0.012898 0.315937
vn -0.950327 -0.097830 0.295481
vn -0.061157 -0.118586 0.991059
vn 0.963042 -0.268543 -0.020853
vn 0.048072 -0.998841 0.002296
vn 0.042605 -0.931432 -0.361412
vn 0.947519 -0.094752 -0.305335
vn 0.040588 -0.965052 0.258896
vn -0.060578 -0.956727 0.284612
vn -0.072902 -0.996984 0.026600
vn -0.973772 -0.226737 0.018950
vn -0.955586 -0.197161 -0.219052
vn -0.064793 -0.943191 -0.325872
vn 0.051329 -0.125281 -0.990793
vn 0.058028 -0.010055 -0.998264
vn 0.950277 -0.017014 -0.310939
vn -0.037196 -0.144533 -0.988801
vn -0.952695 0.010230 -0.303756
vn -0.046459 -0.008369 -0.998885
vn 0.056705 0.048647 -0.997205
vn -0.041418 0.051582 -0.997810
vn -0.999892 0.013760 -0.005240
vn 0.999815 -0.012922 0.014282
vn 0.968193 0.069849 0.240257
vn -0.948340 0.109318 0.297828
vn -0.195707 -0.032682 -0.980118
vn -0.996125 -0.006002 -0.087742
vn -0.959256 0.276470 -0.058245
vn -0.114625 0.210996 -0.970743
vn -0.006488 -0.998181 -0.059945
vn -0.015634 -0.131549 -0.991186
vn 0.125492 -0.107238 -0.986282
vn 0.106275 -0.993537 -0.039884
vn -0.994736 -0.102458 0.001524
vn -0.115500 -0.993202 0.014501
vn -0.109497 -0.987083 0.116951
vn -0.985542 -0.095535 0.139928
vn 0.996331 0.011388 -0.084825
vn 0.149349 0.014444 -0.988679
vn 0.184078 0.340684 -0.921981
vn 0.976720 0.210036 -0.043626
vn 0.097679 -0.995114 0.014406
vn 0.993825 -0.110948 0.001671
vn 0.988626 -0.101441 0.111035
vn 0.089889 -0.991114 0.098042
vn -0.987753 0.034506 0.152161
vn -0.219913 0.060412 0.973647
vn -0.258553 0.469434 0.844264
vn -0.958919 0.263300 0.105580
vn 0.004375 -0.120161 0.992745
vn 0.009816 -0.989823 0.141967
vn 0.185703 -0.148296 0.971351
vn 0.179338 0.008964 0.983747
vn 0.988206 0.002771 0.153109
vn 0.973564 0.213268 0.081796
vn 0.100516 0.293886 0.950541
vn -0.103138 0.993415 0.049891
vn -0.107355 0.994111 -0.014795
vn -0.964443 0.264266 -0.003635
vn -0.020860 0.991682 0.127011
vn -0.038403 0.378862 0.924656
vn 0.080764 0.993167 0.084243
vn 0.973520 0.228575 -0.003383
vn 0.093543 0.995508 -0.014605
vn 0.029697 0.272509 -0.961695
vn 0.007739 0.995976 -0.089281
vn 0.083227 0.994557 -0.062687
vn 0.000109 -0.999893 0.014658
vn -0.005794 0.025657 0.999654
vn -0.000182 0.999893 -0.014651
vn -0.003903 -0.008618 -0.999955
vn 0.999963 0.008578 -0.000120
vn -1.000000 -0.000000 0.000000
vn -0.209197 -0.159738 -0.964739
vn -0.102874 -0.994214 -0.030894
vn -0.992846 -0.100458 -0.064537
vn 0.990755 -0.116889 -0.068852
vn -0.162987 -0.068253 0.984264
vn -0.120707 0.990405 -0.067288
vn 0.003326 -0.986029 -0.166542
vn 0.038667 -0.056059 -0.997678
vn 0.048952 -0.066802 -0.996565
vn 0.044488 -0.982746 -0.179530
vn -0.996654 -0.071029 -0.040439
vn -0.351527 -0.936176 0.001697
vn -0.381247 -0.910575 0.159700
vn -0.996996 -0.035911 0.068626
vn -0.178260 -0.036896 -0.983292
vn -0.980588 -0.041451 -0.191647
vn -0.953849 0.198743 -0.225110
vn -0.246765 0.176263 -0.952911
vn -0.045807 -0.055358 0.997415
vn -0.021794 -0.987930 0.153360
vn 0.028166 -0.986882 0.158968
vn -0.034315 -0.059036 0.997666
vn -0.996165 -0.041867 0.076833
vn -0.350507 -0.046812 0.935389
vn -0.295313 0.249629 0.922213
vn -0.957645 0.282061 0.057936
vn -0.016348 0.309460 -0.950772
vn -0.027844 0.977045 -0.211207
vn -0.001146 0.986482 -0.163863
vn 0.036464 0.283695 -0.958221
vn -0.427122 0.903972 -0.020008
vn -0.930173 0.362167 -0.060107
vn -0.399239 0.908180 0.125766
vn -0.035616 0.992247 0.119073
vn -0.083874 0.296001 0.951498
vn -0.048706 0.276201 0.959865
vn -0.013710 0.995912 0.089286
vn 0.271590 0.236230 -0.932971
vn 0.953718 0.290169 -0.078891
vn 0.984344 -0.024546 -0.174541
vn 0.324591 -0.030008 -0.945379
vn 0.964581 0.261177 0.037022
vn 0.362881 0.931746 0.012953
vn 0.315888 0.947528 0.049050
vn 0.948808 0.294550 0.114030
vn 0.204062 0.230833 0.951354
vn 0.292515 -0.038949 0.955467
vn 0.985467 -0.025374 0.167959
vn 0.419689 -0.907135 0.031093
vn 0.997150 -0.062129 0.042789
vn 0.988429 -0.019087 0.150482
vn 0.445065 -0.870153 0.211542
vn -0.998585 -0.035132 -0.039914
vn -0.007297 0.999973 0.001247
vn -0.012521 0.999917 0.003199
vn 0.998861 -0.019223 0.043668
vn -0.004646 -0.999987 0.002153
vn 0.025803 -0.999666 0.001215
vn -0.041619 -0.029177 0.998707
vn -0.041623 -0.028652 0.998722
vn 0.039940 -0.024631 -0.998898
vn 0.042773 -0.024703 -0.998779
vn -0.267084 -0.947258 -0.177113
vn -0.977538 -0.036628 -0.207552
vn -0.205231 -0.025302 -0.978387
vn -0.319212 -0.011863 0.947609
vn -0.432387 0.857551 -0.278653
vn 0.344409 0.934519 -0.089757
vn 0.281907 0.000695 -0.959441
vn 0.993200 -0.020518 -0.114601
vn 0.369279 -0.891333 -0.262980
vn 0.236626 -0.000118 0.971601
vn -0.999111 -0.008155 -0.041351
vn -0.997583 -0.007493 0.069077
vn -0.348841 -0.003716 0.937175
vn -0.041169 -0.001502 0.999151
vn -0.042822 -0.001516 0.999082
vn 0.282138 0.000915 0.959373
vn 0.988451 0.005133 0.151455
vn 0.999123 0.007368 0.041215
vn 0.986930 0.011425 -0.160744
vn 0.288492 0.006776 -0.957458
vn 0.040812 0.001459 -0.999166
vn 0.043483 -0.001685 -0.999053
vn -0.212350 0.002274 -0.977191
vn -0.978088 -0.005195 -0.208127
s 1
g pCube229
usemtl lambert5SG
f 42/16/1 33/12/2 19/7/3 21/11/4
f 2/51/5 1/50/6 6/49/7 5/52/8
f 32/13/9 25/18/10 8/19/11 7/14/12
f 40/28/13 41/38/14 22/39/15 24/29/16
f 26/36/17 27/26/18 12/27/19 11/37/20
f 35/9/21 36/10/22 14/5/23 13/1/24
f 9/57/25 8/61/11 11/62/20 10/58/26
f 37/32/27 38/22/28 18/25/29 17/33/30
f 13/1/24 15/2/31 30/3/32 31/4/33
f 15/59/31 14/56/23 17/55/30 16/60/34
f 16/30/34 18/25/29 28/24/35 29/31/36
f 21/43/4 20/44/37 23/45/38 22/46/15
f 25/63/10 26/64/17 11/65/20 8/66/11
f 36/53/22 37/54/27 17/55/30 14/56/23
f 15/69/31 16/70/34 29/71/36 30/72/32
f 21/43/4 22/46/15 41/47/14 42/48/1
f 38/22/28 39/23/39 28/24/35 18/25/29
f 31/4/33 34/8/40 35/9/21 13/1/24
f 1/20/6 2/21/5 3/17/41
f 4/34/42 5/42/8 6/41/7
f 7/14/12 8/19/11 9/15/25
f 10/35/26 11/37/20 12/27/19
f 13/1/24 14/5/23 15/2/31
f 16/30/34 17/33/30 18/25/29
f 19/7/3 20/6/37 21/11/4
f 22/39/15 23/40/38 24/29/16
f 2/67/5 5/68/8 26/64/17 25/63/10
f 5/42/8 4/34/42 27/26/18 26/36/17
f 39/23/39 40/28/13 24/29/16 28/24/35
f 29/31/36 28/24/35 24/29/16 23/40/38
f 30/72/32 29/71/36 23/73/38 20/74/37
f 31/4/33 30/3/32 20/6/37 19/7/3
f 19/7/3 33/12/2 34/8/40 31/4/33
f 3/17/41 2/21/5 25/18/10 32/13/9
f 34/8/40 33/12/2 3/17/41 32/13/9
f 35/9/21 34/8/40 32/13/9 7/14/12
f 7/14/12 9/15/25 36/10/22 35/9/21
f 9/57/25 10/58/26 37/54/27 36/53/22
f 10/35/26 12/27/19 38/22/28 37/32/27
f 27/26/18 39/23/39 38/22/28 12/27/19
f 4/34/42 40/28/13 39/23/39 27/26/18
f 4/34/42 6/41/7 41/38/14 40/28/13
f 42/48/1 41/47/14 6/49/7 1/50/6
f 1/20/6 3/17/41 33/12/2 42/16/1
s 8
f 74/75/43 67/76/44 61/77/45 63/78/46
f 96/79/47 85/80/48 48/81/49 47/82/50
f 84/83/51 75/84/52 50/85/53 49/86/54
f 72/87/55 73/88/56 64/89/57 66/90/58
f 76/91/59 77/92/60 54/93/61 53/94/62
f 68/95/63 69/96/64 56/97/65 55/98/66
f 93/99/67 94/100/68 53/101/62 52/102/69
f 70/103/70 71/104/71 60/105/72 59/106/73
f 55/98/66 57/107/74 81/108/75 82/109/76
f 90/110/77 91/111/78 59/112/73 58/113/79
f 58/114/79 60/105/72 79/115/80 80/116/81
f 87/117/82 88/118/83 65/119/84 64/120/57
f 94/121/68 95/122/85 76/123/59 53/124/62
f 91/111/78 92/125/86 70/126/70 59/112/73
f 89/127/87 90/128/77 58/129/79 80/130/81
f 86/131/88 87/117/82 64/120/57 73/132/56
f 71/104/71 78/133/89 79/115/80 60/105/72
f 82/109/76 83/134/90 68/95/63 55/98/66
f 43/135/91 44/136/92 45/137/93
f 46/138/94 47/139/50 48/140/49
f 49/86/54 50/85/53 51/141/95
f 52/142/69 53/94/62 54/93/61
f 55/98/66 56/97/65 57/107/74
f 58/114/79 59/106/73 60/105/72
f 61/77/45 62/143/96 63/78/46
f 64/89/57 65/144/84 66/90/58
f 68/95/63 83/134/90 84/83/51 49/86/54
f 49/86/54 51/141/95 69/96/64 68/95/63
f 92/125/86 93/99/67 52/102/69 70/126/70
f 52/142/69 54/93/61 71/104/71 70/103/70
f 77/92/60 78/133/89 71/104/71 54/93/61
f 46/138/94 48/140/49 73/88/56 72/87/55
f 85/80/48 86/131/88 73/132/56 48/81/49
f 43/135/91 45/137/93 67/76/44 74/75/43
f 95/122/85 96/145/47 47/146/50 76/123/59
f 47/139/50 46/138/94 77/92/60 76/91/59
f 46/138/94 72/87/55 78/133/89 77/92/60
f 79/115/80 78/133/89 72/87/55 66/90/58
f 80/116/81 79/115/80 66/90/58 65/144/84
f 88/147/83 89/127/87 80/130/81 65/148/84
f 82/109/76 81/108/75 62/143/96 61/77/45
f 61/77/45 67/76/44 83/134/90 82/109/76
f 84/83/51 83/134/90 67/76/44 45/137/93
f 45/137/93 44/136/92 75/84/52 84/83/51
f 74/149/43 86/131/88 85/80/48 43/150/91
f 63/151/46 87/117/82 86/131/88 74/149/43
f 63/151/46 62/152/96 88/118/83 87/117/82
f 81/153/75 89/127/87 88/147/83 62/154/96
f 57/155/74 90/128/77 89/127/87 81/153/75
f 57/156/74 56/157/65 91/111/78 90/110/77
f 69/158/64 92/125/86 91/111/78 56/157/65
f 51/159/95 93/99/67 92/125/86 69/158/64
f 51/159/95 50/160/53 94/100/68 93/99/67
f 75/161/52 95/122/85 94/121/68 50/162/53
f 44/163/92 96/145/47 95/122/85 75/161/52
f 44/164/92 43/150/91 85/80/48 96/79/47
s 18
f 128/165/97 121/166/98 162/167/99 151/168/100
f 150/169/101 139/170/102 102/171/103 101/172/104
f 138/173/105 129/174/106 104/175/107 103/176/108
f 126/177/109 127/178/110 153/179/111 154/180/112
f 130/181/113 131/182/114 108/183/115 107/184/116
f 122/185/117 123/186/118 159/187/119 160/188/120
f 147/189/121 148/190/122 107/191/116 106/192/123
f 124/193/124 125/194/125 156/195/126 157/196/127
f 109/197/128 111/198/129 135/199/130 136/200/131
f 144/201/132 145/202/133 113/203/134 112/204/135
f 112/205/135 114/206/136 133/207/137 134/208/138
f 141/209/139 142/210/140 119/211/141 118/212/142
f 148/213/122 149/214/143 130/215/113 107/216/116
f 157/196/127 158/217/144 146/218/145 124/193/124
f 143/219/146 144/220/132 112/221/135 134/222/138
f 140/223/147 152/224/148 153/225/111 127/226/110
f 125/227/125 132/228/149 155/229/150 156/230/126
f 160/231/120 161/232/151 137/233/152 122/234/117
f 97/235/153 98/236/154 99/237/155
f 100/238/156 101/239/104 102/240/103
f 103/176/108 104/175/107 105/241/157
f 106/192/123 107/191/116 108/242/115
f 109/243/128 110/244/158 111/245/129
f 112/204/135 113/203/134 114/246/136
f 115/247/159 116/248/160 117/249/161
f 118/250/142 119/251/141 120/252/162
f 122/234/117 137/233/152 138/173/105 103/176/108
f 103/176/108 105/241/157 123/253/118 122/234/117
f 146/218/145 147/189/121 106/192/123 124/193/124
f 106/254/123 108/183/115 125/227/125 124/255/124
f 131/182/114 132/228/149 125/227/125 108/183/115
f 100/238/156 102/240/103 127/178/110 126/177/109
f 139/170/102 140/223/147 127/226/110 102/171/103
f 97/235/153 99/237/155 121/166/98 128/165/97
f 149/214/143 164/256/163 165/257/164 130/215/113
f 165/258/164 166/259/165 131/182/114 130/181/113
f 166/259/165 167/260/166 132/228/149 131/182/114
f 167/260/166 168/261/167 155/229/150 132/228/149
f 134/208/138 133/207/137 169/262/168 170/263/169
f 170/264/169 171/265/170 143/219/146 134/222/138
f 136/200/131 135/199/130 172/266/171 173/267/172
f 161/232/151 174/268/173 175/269/174 137/233/152
f 138/173/105 137/233/152 175/269/174 176/270/175
f 176/270/175 163/271/176 129/174/106 138/173/105
f 128/165/97 140/223/147 139/170/102 97/235/153
f 151/168/100 152/224/148 140/223/147 128/165/97
f 117/272/161 116/273/160 142/210/140 141/209/139
f 135/274/130 143/219/146 171/265/170 172/275/171
f 111/276/129 144/220/132 143/219/146 135/274/130
f 111/245/129 110/244/158 145/202/133 144/201/132
f 123/186/118 146/218/145 158/217/144 159/187/119
f 105/277/157 147/189/121 146/218/145 123/186/118
f 105/277/157 104/278/107 148/190/122 147/189/121
f 129/279/106 149/214/143 148/213/122 104/280/107
f 163/281/176 164/256/163 149/214/143 129/279/106
f 98/236/154 97/235/153 139/170/102 150/169/101
f 117/272/161 141/209/139 152/224/148 151/168/100
f 153/225/111 152/224/148 141/209/139 118/212/142
f 154/180/112 153/179/111 118/250/142 120/252/162
f 133/207/137 155/229/150 168/261/167 169/262/168
f 156/230/126 155/229/150 133/207/137 114/206/136
f 157/196/127 156/195/126 114/246/136 113/203/134
f 145/202/133 158/217/144 157/196/127 113/203/134
f 159/187/119 158/217/144 145/202/133 110/244/158
f 160/231/120 159/282/119 110/283/158 109/197/128
f 136/200/131 161/232/151 160/231/120 109/197/128
f 173/267/172 174/268/173 161/232/151 136/200/131
f 151/284/100 162/285/99 115/247/159 117/249/161
f 98/286/154 150/287/101 164/256/163 163/281/176
f 165/257/164 164/256/163 150/287/101 101/288/104
f 101/239/104 100/238/156 166/259/165 165/258/164
f 100/238/156 126/177/109 167/260/166 166/259/165
f 154/180/112 168/261/167 167/260/166 126/177/109
f 169/262/168 168/261/167 154/180/112 120/252/162
f 170/263/169 169/262/168 120/252/162 119/251/141
f 142/289/140 171/265/170 170/264/169 119/290/141
f 172/275/171 171/265/170 142/289/140 116/291/160
f 173/267/172 172/266/171 116/248/160 115/247/159
f 115/247/159 162/285/99 174/268/173 173/267/172
f 175/269/174 174/268/173 162/285/99 121/292/98
f 176/270/175 175/269/174 121/292/98 99/293/155
f 99/293/155 98/294/154 163/271/176 176/270/175
s 30
f 208/295/177 201/296/178 195/297/179 197/298/180
f 230/299/181 219/300/182 182/301/183 181/302/184
f 218/303/185 209/304/186 184/305/187 183/306/188
f 206/307/189 207/308/190 198/309/191 200/310/192
f 210/311/193 211/312/194 188/313/195 187/314/196
f 202/315/197 203/316/198 190/317/199 189/318/200
f 227/319/201 228/320/202 187/321/196 186/322/203
f 204/323/204 205/324/205 194/325/206 193/326/207
f 189/318/200 191/327/208 215/328/209 216/329/210
f 224/330/211 225/331/212 193/332/207 192/333/213
f 192/334/213 194/325/206 213/335/214 214/336/215
f 221/337/216 222/338/217 199/339/218 198/340/191
f 228/341/202 229/342/219 210/343/193 187/344/196
f 225/331/212 226/345/220 204/346/204 193/332/207
f 223/347/221 224/348/211 192/349/213 214/350/215
f 220/351/222 221/337/216 198/340/191 207/352/190
f 205/324/205 212/353/223 213/335/214 194/325/206
f 216/329/210 217/354/224 202/315/197 189/318/200
f 177/355/225 178/356/226 179/357/227
f 180/358/228 181/359/184 182/360/183
f 183/306/188 184/305/187 185/361/229
f 186/362/203 187/314/196 188/313/195
f 189/318/200 190/317/199 191/327/208
f 192/334/213 193/326/207 194/325/206
f 195/297/179 196/363/230 197/298/180
f 198/309/191 199/364/218 200/310/192
f 202/315/197 217/354/224 218/303/185 183/306/188
f 183/306/188 185/361/229 203/316/198 202/315/197
f 226/345/220 227/319/201 186/322/203 204/346/204
f 186/362/203 188/313/195 205/324/205 204/323/204
f 211/312/194 212/353/223 205/324/205 188/313/195
f 180/358/228 182/360/183 207/308/190 206/307/189
f 219/300/182 220/351/222 207/352/190 182/301/183
f 177/355/225 179/357/227 201/296/178 208/295/177
f 229/342/219 230/365/181 181/366/184 210/343/193
f 181/359/184 180/358/228 211/312/194 210/311/193
f 180/358/228 206/307/189 212/353/223 211/312/194
f 213/335/214 212/353/223 206/307/189 200/310/192
f 214/336/215 213/335/214 200/310/192 199/364/218
f 222/367/217 223/347/221 214/350/215 199/368/218
f 216/329/210 215/328/209 196/363/230 195/297/179
f 195/297/179 201/296/178 217/354/224 216/329/210
f 218/303/185 217/354/224 201/296/178 179/357/227
f 179/357/227 178/356/226 209/304/186 218/303/185
f 208/369/177 220/351/222 219/300/182 177/370/225
f 197/371/180 221/337/216 220/351/222 208/369/177
f 197/371/180 196/372/230 222/338/217 221/337/216
f 215/373/209 223/347/221 222/367/217 196/374/230
f 191/375/208 224/348/211 223/347/221 215/373/209
f 191/376/208 190/377/199 225/331/212 224/330/211
f 203/378/198 226/345/220 225/331/212 190/377/199
f 185/379/229 227/319/201 226/345/220 203/378/198
f 185/379/229 184/380/187 228/320/202 227/319/201
f 209/381/186 229/342/219 228/341/202 184/382/187
f 178/383/226 230/365/181 229/342/219 209/381/186
f 178/384/226 177/370/225 219/300/182 230/299/181
s 40
f 262/385/231 255/386/232 296/387/233 285/388/234
f 284/389/235 273/390/236 236/391/237 235/392/238
f 272/393/239 263/394/240 238/395/241 237/396/242
f 260/397/243 261/398/244 287/399/245 288/400/246
f 264/401/247 265/402/248 242/403/249 241/404/250
f 256/405/251 257/406/252 293/407/253 294/408/254
f 281/409/255 282/410/256 241/411/250 240/412/257
f 258/413/258 259/414/259 290/415/260 291/416/261
f 243/417/262 245/418/263 269/419/264 270/420/265
f 278/421/266 279/422/267 247/423/268 246/424/269
f 246/425/269 248/426/270 267/427/271 268/428/272
f 275/429/273 276/430/274 253/431/275 252/432/276
f 282/433/256 283/434/277 264/435/247 241/436/250
f 291/416/261 292/437/278 280/438/279 258/413/258
f 277/439/280 278/440/266 246/441/269 268/442/272
f 274/443/281 286/444/282 287/445/245 261/446/244
f 259/447/259 266/448/283 289/449/284 290/450/260
f 294/451/254 295/452/285 271/453/286 256/454/251
f 231/455/287 232/456/288 233/457/289
f 234/458/290 235/459/238 236/460/237
f 237/396/242 238/395/241 239/461/291
f 240/412/257 241/411/250 242/462/249
f 243/463/262 244/464/292 245/465/263
f 246/424/269 247/423/268 248/466/270
f 249/467/293 250/468/294 251/469/295
f 252/470/276 253/471/275 254/472/296
f 256/454/251 271/453/286 272/393/239 237/396/242
f 237/396/242 239/461/291 257/473/252 256/454/251
f 280/438/279 281/409/255 240/412/257 258/413/258
f 240/474/257 242/403/249 259/447/259 258/475/258
f 265/402/248 266/448/283 259/447/259 242/403/249
f 234/458/290 236/460/237 261/398/244 260/397/243
f 273/390/236 274/443/281 261/446/244 236/391/237
f 231/455/287 233/457/289 255/386/232 262/385/231
f 283/434/277 298/476/297 299/477/298 264/435/247
f 299/478/298 300/479/299 265/402/248 264/401/247
f 300/479/299 301/480/300 266/448/283 265/402/248
f 301/480/300 302/481/301 289/449/284 266/448/283
f 268/428/272 267/427/271 303/482/302 304/483/303
f 304/484/303 305/485/304 277/439/280 268/442/272
f 270/420/265 269/419/264 306/486/305 307/487/306
f 295/452/285 308/488/307 309/489/308 271/453/286
f 272/393/239 271/453/286 309/489/308 310/490/309
f 310/490/309 297/491/310 263/394/240 272/393/239
f 262/385/231 274/443/281 273/390/236 231/455/287
f 285/388/234 286/444/282 274/443/281 262/385/231
f 251/492/295 250/493/294 276/430/274 275/429/273
f 269/494/264 277/439/280 305/485/304 306/495/305
f 245/496/263 278/440/266 277/439/280 269/494/264
f 245/465/263 244/464/292 279/422/267 278/421/266
f 257/406/252 280/438/279 292/437/278 293/407/253
f 239/497/291 281/409/255 280/438/279 257/406/252
f 239/497/291 238/498/241 282/410/256 281/409/255
f 263/499/240 283/434/277 282/433/256 238/500/241
f 297/501/310 298/476/297 283/434/277 263/499/240
f 232/456/288 231/455/287 273/390/236 284/389/235
f 251/492/295 275/429/273 286/444/282 285/388/234
f 287/445/245 286/444/282 275/429/273 252/432/276
f 288/400/246 287/399/245 252/470/276 254/472/296
f 267/427/271 289/449/284 302/481/301 303/482/302
f 290/450/260 289/449/284 267/427/271 248/426/270
f 291/416/261 290/415/260 248/466/270 247/423/268
f 279/422/267 292/437/278 291/416/261 247/423/268
f 293/407/253 292/437/278 279/422/267 244/464/292
f 294/451/254 293/502/253 244/503/292 243/417/262
f 270/420/265 295/452/285 294/451/254 243/417/262
f 307/487/306 308/488/307 295/452/285 270/420/265
f 285/504/234 296/505/233 249/467/293 251/469/295
f 232/506/288 284/507/235 298/476/297 297/501/310
f 299/477/298 298/476/297 284/507/235 235/508/238
f 235/459/238 234/458/290 300/479/299 299/478/298
f 234/458/290 260/397/243 301/480/300 300/479/299
f 288/400/246 302/481/301 301/480/300 260/397/243
f 303/482/302 302/481/301 288/400/246 254/472/296
f 304/483/303 303/482/302 254/472/296 253/471/275
f 276/509/274 305/485/304 304/484/303 253/510/275
f 306/495/305 305/485/304 276/509/274 250/511/294
f 307/487/306 306/486/305 250/468/294 249/467/293
f 249/467/293 296/505/233 308/488/307 307/487/306
f 309/489/308 308/488/307 296/505/233 255/512/232
f 310/490/309 309/489/308 255/512/232 233/513/289
f 233/513/289 232/514/288 297/491/310 310/490/309
s 52
f 342/515/311 335/516/312 329/517/313 331/518/314
f 364/519/315 353/520/316 316/521/317 315/522/318
f 352/523/319 343/524/320 318/525/321 317/526/322
f 340/527/323 341/528/324 332/529/325 334/530/326
f 344/531/327 345/532/328 322/533/329 321/534/330
f 336/535/331 337/536/332 324/537/333 323/538/334
f 361/539/335 362/540/336 321/541/330 320/542/337
f 338/543/338 339/544/339 328/545/340 327/546/341
f 323/538/334 325/547/342 349/548/343 350/549/344
f 358/550/345 359/551/346 327/552/341 326/553/347
f 326/554/347 328/545/340 347/555/348 348/556/349
f 355/557/350 356/558/351 333/559/352 332/560/325
f 362/561/336 363/562/353 344/563/327 321/564/330
f 359/551/346 360/565/354 338/566/338 327/552/341
f 357/567/355 358/568/345 326/569/347 348/570/349
f 354/571/356 355/557/350 332/560/325 341/572/324
f 339/544/339 346/573/357 347/555/348 328/545/340
f 350/549/344 351/574/358 336/535/331 323/538/334
f 311/575/359 312/576/360 313/577/361
f 314/578/362 315/579/318 316/580/317
f 317/526/322 318/525/321 319/581/363
f 320/582/337 321/534/330 322/533/329
f 323/538/334 324/537/333 325/547/342
f 326/554/347 327/546/341 328/545/340
f 329/517/313 330/583/364 331/518/314
f 332/529/325 333/584/352 334/530/326
f 336/535/331 351/574/358 352/523/319 317/526/322
f 317/526/322 319/581/363 337/536/332 336/535/331
f 360/565/354 361/539/335 320/542/337 338/566/338
f 320/582/337 322/533/329 339/544/339 338/543/338
f 345/532/328 346/573/357 339/544/339 322/533/329
f 314/578/362 316/580/317 341/528/324 340/527/323
f 353/520/316 354/571/356 341/572/324 316/521/317
f 311/575/359 313/577/361 335/516/312 342/515/311
f 363/562/353 364/585/315 315/586/318 344/563/327
f 315/579/318 314/578/362 345/532/328 344/531/327
f 314/578/362 340/527/323 346/573/357 345/532/328
f 347/555/348 346/573/357 340/527/323 334/530/326
f 348/556/349 347/555/348 334/530/326 333/584/352
f 356/587/351 357/567/355 348/570/349 333/588/352
f 350/549/344 349/548/343 330/583/364 329/517/313
f 329/517/313 335/516/312 351/574/358 350/549/344
f 352/523/319 351/574/358 335/516/312 313/577/361
f 313/577/361 312/576/360 343/524/320 352/523/319
f 342/589/311 354/571/356 353/520/316 311/590/359
f 331/591/314 355/557/350 354/571/356 342/589/311
f 331/591/314 330/592/364 356/558/351 355/557/350
f 349/593/343 357/567/355 356/587/351 330/594/364
f 325/595/342 358/568/345 357/567/355 349/593/343
f 325/596/342 324/597/333 359/551/346 358/550/345
f 337/598/332 360/565/354 359/551/346 324/597/333
f 319/599/363 361/539/335 360/565/354 337/598/332
f 319/599/363 318/600/321 362/540/336 361/539/335
f 343/601/320 363/562/353 362/561/336 318/602/321
f 312/603/360 364/585/315 363/562/353 343/601/320
f 312/604/360 311/590/359 353/520/316 364/519/315
s 62
f 396/605/365 389/606/366 383/607/367 385/608/368
f 418/609/369 407/610/370 370/611/371 369/612/372
f 406/613/373 397/614/374 372/615/375 371/616/376
f 394/617/377 395/618/378 386/619/379 388/620/380
f 398/621/381 399/622/382 376/623/383 375/624/384
f 390/625/385 391/626/386 378/627/387 377/628/388
f 415/629/389 416/630/390 375/631/384 374/632/391
f 392/633/392 393/634/393 382/635/394 381/636/395
f 377/628/388 379/637/396 403/638/397 404/639/398
f 412/640/399 413/641/400 381/642/395 380/643/401
f 380/644/401 382/635/394 401/645/402 402/646/403
f 409/647/404 410/648/405 387/649/406 386/650/379
f 416/651/390 417/652/407 398/653/381 375/654/384
f 413/641/400 414/655/408 392/656/392 381/642/395
f 411/657/409 412/658/399 380/659/401 402/660/403
f 408/661/410 409/647/404 386/650/379 395/662/378
f 393/634/393 400/663/411 401/645/402 382/635/394
f 404/639/398 405/664/412 390/625/385 377/628/388
f 365/665/413 366/666/414 367/667/415
f 368/668/416 369/669/372 370/670/371
f 371/616/376 372/615/375 373/671/417
f 374/672/391 375/624/384 376/623/383
f 377/628/388 378/627/387 379/637/396
f 380/644/401 381/636/395 382/635/394
f 383/607/367 384/673/418 385/608/368
f 386/619/379 387/674/406 388/620/380
f 390/625/385 405/664/412 406/613/373 371/616/376
f 371/616/376 373/671/417 391/626/386 390/625/385
f 414/655/408 415/629/389 374/632/391 392/656/392
f 374/672/391 376/623/383 393/634/393 392/633/392
f 399/622/382 400/663/411 393/634/393 376/623/383
f 368/668/416 370/670/371 395/618/378 394/617/377
f 407/610/370 408/661/410 395/662/378 370/611/371
f 365/665/413 367/667/415 389/606/366 396/605/365
f 417/652/407 418/675/369 369/676/372 398/653/381
f 369/669/372 368/668/416 399/622/382 398/621/381
f 368/668/416 394/617/377 400/663/411 399/622/382
f 401/645/402 400/663/411 394/617/377 388/620/380
f 402/646/403 401/645/402 388/620/380 387/674/406
f 410/677/405 411/657/409 402/660/403 387/678/406
f 404/639/398 403/638/397 384/673/418 383/607/367
f 383/607/367 389/606/366 405/664/412 404/639/398
f 406/613/373 405/664/412 389/606/366 367/667/415
f 367/667/415 366/666/414 397/614/374 406/613/373
f 396/679/365 408/661/410 407/610/370 365/680/413
f 385/681/368 409/647/404 408/661/410 396/679/365
f 385/681/368 384/682/418 410/648/405 409/647/404
f 403/683/397 411/657/409 410/677/405 384/684/418
f 379/685/396 412/658/399 411/657/409 403/683/397
f 379/686/396 378/687/387 413/641/400 412/640/399
f 391/688/386 414/655/408 413/641/400 378/687/387
f 373/689/417 415/629/389 414/655/408 391/688/386
f 373/689/417 372/690/375 416/630/390 415/629/389
f 397/691/374 417/652/407 416/651/390 372/692/375
f 366/693/414 418/675/369 417/652/407 397/691/374
f 366/694/414 365/680/413 407/610/370 418/609/369
s 72
f 460/695/419 451/696/420 437/697/421 439/698/422
f 420/699/423 419/700/424 424/701/425 423/702/426
f 450/703/427 443/704/428 426/705/429 425/706/430
f 458/707/431 459/708/432 440/709/433 442/710/434
f 444/711/435 445/712/436 430/713/437 429/714/438
f 453/715/439 454/716/440 432/717/441 431/718/442
f 427/719/443 426/720/429 429/721/438 428/722/444
f 455/723/445 456/724/446 436/725/447 435/726/448
f 431/718/442 433/727/449 448/728/450 449/729/451
f 433/730/449 432/731/441 435/732/448 434/733/452
f 434/734/452 436/725/447 446/735/453 447/736/454
f 439/737/422 438/738/455 441/739/456 440/740/433
f 443/741/428 444/742/435 429/743/438 426/744/429
f 454/745/440 455/746/445 435/732/448 432/731/441
f 433/747/449 434/748/452 447/749/454 448/750/450
f 439/737/422 440/740/433 459/751/432 460/752/419
f 456/724/446 457/753/457 446/735/453 436/725/447
f 449/729/451 452/754/458 453/715/439 431/718/442
f 419/755/424 420/756/423 421/757/459
f 422/758/460 423/759/426 424/760/425
f 425/706/430 426/705/429 427/761/443
f 428/762/444 429/714/438 430/713/437
f 431/718/442 432/717/441 433/727/449
f 434/734/452 435/726/448 436/725/447
f 437/697/421 438/763/455 439/698/422
f 440/709/433 441/764/456 442/710/434
f 420/765/423 423/766/426 444/742/435 443/741/428
f 423/759/426 422/758/460 445/712/436 444/711/435
f 457/753/457 458/707/431 442/710/434 446/735/453
f 447/736/454 446/735/453 442/710/434 441/764/456
f 448/750/450 447/749/454 441/767/456 438/768/455
f 449/729/451 448/728/450 438/763/455 437/697/421
f 437/697/421 451/696/420 452/754/458 449/729/451
f 421/757/459 420/756/423 443/704/428 450/703/427
f 452/754/458 451/696/420 421/757/459 450/703/427
f 453/715/439 452/754/458 450/703/427 425/706/430
f 425/706/430 427/761/443 454/716/440 453/715/439
f 427/719/443 428/722/444 455/746/445 454/745/440
f 428/762/444 430/713/437 456/724/446 455/723/445
f 445/712/436 457/753/457 456/724/446 430/713/437
f 422/758/460 458/707/431 457/753/457 445/712/436
f 422/758/460 424/760/425 459/708/432 458/707/431
f 460/752/419 459/751/432 424/701/425 419/700/424
f 419/755/424 421/757/459 451/696/420 460/695/419
s 79
f 502/769/461 493/770/462 479/771/463 481/772/464
f 462/773/465 461/774/466 466/775/467 465/776/468
f 492/777/469 485/778/470 468/779/471 467/780/472
f 500/781/473 501/782/474 482/783/475 484/784/476
f 486/785/477 487/786/478 472/787/479 471/788/480
f 495/789/481 496/790/482 474/791/483 473/792/484
f 469/793/485 468/794/471 471/795/480 470/796/486
f 497/797/487 498/798/488 478/799/489 477/800/490
f 473/792/484 475/801/491 490/802/492 491/803/493
f 475/804/491 474/805/483 477/806/490 476/807/494
f 476/808/494 478/799/489 488/809/495 489/810/496
f 481/811/464 480/812/497 483/813/498 482/814/475
f 485/815/470 486/816/477 471/817/480 468/818/471
f 496/819/482 497/820/487 477/806/490 474/805/483
f 475/821/491 476/822/494 489/823/496 490/824/492
f 481/811/464 482/814/475 501/825/474 502/826/461
f 498/798/488 499/827/499 488/809/495 478/799/489
f 491/803/493 494/828/500 495/789/481 473/792/484
f 461/829/466 462/830/465 463/831/501
f 464/832/502 465/833/468 466/834/467
f 467/780/472 468/779/471 469/835/485
f 470/836/486 471/788/480 472/787/479
f 473/792/484 474/791/483 475/801/491
f 476/808/494 477/800/490 478/799/489
f 479/771/463 480/837/497 481/772/464
f 482/783/475 483/838/498 484/784/476
f 462/839/465 465/840/468 486/816/477 485/815/470
f 465/833/468 464/832/502 487/786/478 486/785/477
f 499/827/499 500/781/473 484/784/476 488/809/495
f 489/810/496 488/809/495 484/784/476 483/838/498
f 490/824/492 489/823/496 483/841/498 480/842/497
f 491/803/493 490/802/492 480/837/497 479/771/463
f 479/771/463 493/770/462 494/828/500 491/803/493
f 463/831/501 462/830/465 485/778/470 492/777/469
f 494/828/500 493/770/462 463/831/501 492/777/469
f 495/789/481 494/828/500 492/777/469 467/780/472
f 467/780/472 469/835/485 496/790/482 495/789/481
f 469/793/485 470/796/486 497/820/487 496/819/482
f 470/836/486 472/787/479 498/798/488 497/797/487
f 487/786/478 499/827/499 498/798/488 472/787/479
f 464/832/502 500/781/473 499/827/499 487/786/478
f 464/832/502 466/834/467 501/782/474 500/781/473
f 502/826/461 501/825/474 466/775/467 461/774/466
f 461/829/466 463/831/501 493/770/462 502/769/461
s 86
f 534/843/503 527/844/504 521/845/505 523/846/506
f 556/847/507 545/848/508 508/849/509 507/850/510
f 544/851/511 535/852/512 510/853/513 509/854/514
f 532/855/515 533/856/516 524/857/517 526/858/518
f 536/859/519 537/860/520 514/861/521 513/862/522
f 528/863/523 529/864/524 516/865/525 515/866/526
f 553/867/527 554/868/528 513/869/522 512/870/529
f 530/871/530 531/872/531 520/873/532 519/874/533
f 515/866/526 517/875/534 541/876/535 542/877/536
f 550/878/537 551/879/538 519/880/533 518/881/539
f 518/882/539 520/873/532 539/883/540 540/884/541
f 547/885/542 548/886/543 525/887/544 524/888/517
f 554/889/528 555/890/545 536/891/519 513/892/522
f 551/879/538 552/893/546 530/894/530 519/880/533
f 549/895/547 550/896/537 518/897/539 540/898/541
f 546/899/548 547/885/542 524/888/517 533/900/516
f 531/872/531 538/901/549 539/883/540 520/873/532
f 542/877/536 543/902/550 528/863/523 515/866/526
f 503/903/551 504/904/552 505/905/553
f 506/906/554 507/907/510 508/908/509
f 509/854/514 510/853/513 511/909/555
f 512/910/529 513/862/522 514/861/521
f 515/866/526 516/865/525 517/875/534
f 518/882/539 519/874/533 520/873/532
f 521/845/505 522/911/556 523/846/506
f 524/857/517 525/912/544 526/858/518
f 528/863/523 543/902/550 544/851/511 509/854/514
f 509/854/514 511/909/555 529/864/524 528/863/523
f 552/893/546 553/867/527 512/870/529 530/894/530
f 512/910/529 514/861/521 531/872/531 530/871/530
f 537/860/520 538/901/549 531/872/531 514/861/521
f 506/906/554 508/908/509 533/856/516 532/855/515
f 545/848/508 546/899/548 533/900/516 508/849/509
f 503/903/551 505/905/553 527/844/504 534/843/503
f 555/890/545 556/913/507 507/914/510 536/891/519
f 507/907/510 506/906/554 537/860/520 536/859/519
f 506/906/554 532/855/515 538/901/549 537/860/520
f 539/883/540 538/901/549 532/855/515 526/858/518
f 540/884/541 539/883/540 526/858/518 525/912/544
f 548/915/543 549/895/547 540/898/541 525/916/544
f 542/877/536 541/876/535 522/911/556 521/845/505
f 521/845/505 527/844/504 543/902/550 542/877/536
f 544/851/511 543/902/550 527/844/504 505/905/553
f 505/905/553 504/904/552 535/852/512 544/851/511
f 534/917/503 546/899/548 545/848/508 503/918/551
f 523/919/506 547/885/542 546/899/548 534/917/503
f 523/919/506 522/920/556 548/886/543 547/885/542
f 541/921/535 549/895/547 548/915/543 522/922/556
f 517/923/534 550/896/537 549/895/547 541/921/535
f 517/924/534 516/925/525 551/879/538 550/878/537
f 529/926/524 552/893/546 551/879/538 516/925/525
f 511/927/555 553/867/527 552/893/546 529/926/524
f 511/927/555 510/928/513 554/868/528 553/867/527
f 535/929/512 555/890/545 554/889/528 510/930/513
f 504/931/552 556/913/507 555/890/545 535/929/512
f 504/932/552 503/918/551 545/848/508 556/847/507
s 96
f 588/933/557 581/934/558 622/935/559 611/936/560
f 610/937/561 599/938/562 562/939/563 561/940/564
f 598/941/565 589/942/566 564/943/567 563/944/568
f 586/945/569 587/946/570 613/947/571 614/948/572
f 590/949/573 591/950/574 568/951/575 567/952/576
f 582/953/577 583/954/578 619/955/579 620/956/580
f 607/957/581 608/958/582 567/959/576 566/960/583
f 584/961/584 585/962/585 616/963/586 617/964/587
f 569/965/588 571/966/589 595/967/590 596/968/591
f 604/969/592 605/970/593 573/971/594 572/972/595
f 572/973/595 574/974/596 593/975/597 594/976/598
f 601/977/599 602/978/600 579/979/601 578/980/602
f 608/981/582 609/982/603 590/983/573 567/984/576
f 617/964/587 618/985/604 606/986/605 584/961/584
f 603/987/606 604/988/592 572/989/595 594/990/598
f 600/991/607 612/992/608 613/993/571 587/994/570
f 585/995/585 592/996/609 615/997/610 616/998/586
f 620/999/580 621/1000/611 597/1001/612 582/1002/577
f 557/1003/613 558/1004/614 559/1005/615
f 560/1006/616 561/1007/564 562/1008/563
f 563/944/568 564/943/567 565/1009/617
f 566/960/583 567/959/576 568/1010/575
f 569/1011/588 570/1012/618 571/1013/589
f 572/972/595 573/971/594 574/1014/596
f 575/1015/619 576/1016/620 577/1017/621
f 578/1018/602 579/1019/601 580/1020/622
f 582/1002/577 597/1001/612 598/941/565 563/944/568
f 563/944/568 565/1009/617 583/1021/578 582/1002/577
f 606/986/605 607/957/581 566/960/583 584/961/584
f 566/1022/583 568/951/575 585/995/585 584/1023/584
f 591/950/574 592/996/609 585/995/585 568/951/575
f 560/1006/616 562/1008/563 587/946/570 586/945/569
f 599/938/562 600/991/607 587/994/570 562/939/563
f 557/1003/613 559/1005/615 581/934/558 588/933/557
f 609/982/603 624/1024/623 625/1025/624 590/983/573
f 625/1026/624 626/1027/625 591/950/574 590/949/573
f 626/1027/625 627/1028/626 592/996/609 591/950/574
f 627/1028/626 628/1029/627 615/997/610 592/996/609
f 594/976/598 593/975/597 629/1030/628 630/1031/629
f 630/1032/629 631/1033/630 603/987/606 594/990/598
f 596/968/591 595/967/590 632/1034/631 633/1035/632
f 621/1000/611 634/1036/633 635/1037/634 597/1001/612
f 598/941/565 597/1001/612 635/1037/634 636/1038/635
f 636/1038/635 623/1039/636 589/942/566 598/941/565
f 588/933/557 600/991/607 599/938/562 557/1003/613
f 611/936/560 612/992/608 600/991/607 588/933/557
f 577/1040/621 576/1041/620 602/978/600 601/977/599
f 595/1042/590 603/987/606 631/1033/630 632/1043/631
f 571/1044/589 604/988/592 603/987/606 595/1042/590
f 571/1013/589 570/1012/618 605/970/593 604/969/592
f 583/954/578 606/986/605 618/985/604 619/955/579
f 565/1045/617 607/957/581 606/986/605 583/954/578
f 565/1045/617 564/1046/567 608/958/582 607/957/581
f 589/1047/566 609/982/603 608/981/582 564/1048/567
f 623/1049/636 624/1024/623 609/982/603 589/1047/566
f 558/1004/614 557/1003/613 599/938/562 610/937/561
f 577/1040/621 601/977/599 612/992/608 611/936/560
f 613/993/571 612/992/608 601/977/599 578/980/602
f 614/948/572 613/947/571 578/1018/602 580/1020/622
f 593/975/597 615/997/610 628/1029/627 629/1030/628
f 616/998/586 615/997/610 593/975/597 574/974/596
f 617/964/587 616/963/586 574/1014/596 573/971/594
f 605/970/593 618/985/604 617/964/587 573/971/594
f 619/955/579 618/985/604 605/970/593 570/1012/618
f 620/999/580 619/1050/579 570/1051/618 569/965/588
f 596/968/591 621/1000/611 620/999/580 569/965/588
f 633/1035/632 634/1036/633 621/1000/611 596/968/591
f 611/1052/560 622/1053/559 575/1015/619 577/1017/621
f 558/1054/614 610/1055/561 624/1024/623 623/1049/636
f 625/1025/624 624/1024/623 610/1055/561 561/1056/564
f 561/1007/564 560/1006/616 626/1027/625 625/1026/624
f 560/1006/616 586/945/569 627/1028/626 626/1027/625
f 614/948/572 628/1029/627 627/1028/626 586/945/569
f 629/1030/628 628/1029/627 614/948/572 580/1020/622
f 630/1031/629 629/1030/628 580/1020/622 579/1019/601
f 602/1057/600 631/1033/630 630/1032/629 579/1058/601
f 632/1043/631 631/1033/630 602/1057/600 576/1059/620
f 633/1035/632 632/1034/631 576/1016/620 575/1015/619
f 575/1015/619 622/1053/559 634/1036/633 633/1035/632
f 635/1037/634 634/1036/633 622/1053/559 581/1060/558
f 636/1038/635 635/1037/634 581/1060/558 559/1061/615
f 559/1061/615 558/1062/614 623/1039/636 636/1038/635
