# This file uses centimeters as units for non-parametric coordinates.

mtllib TentTest2.mtl
g default
v -2.652692 0.005661 1.902074
v -1.401659 0.005661 3.059325
v -0.988430 0.052434 -2.569248
v 2.926702 0.052434 1.052392
v -0.924853 -0.069540 -2.637978
v 2.990279 -0.069540 0.983664
v -2.589116 -0.116313 1.833345
v -1.338084 -0.116313 2.990596
v -2.013993 0.005661 2.492895
v -1.950417 -0.116313 2.424164
v 1.739412 3.694141 -1.519522
v 1.675835 3.816116 -1.450793
v -1.778055 0.005661 2.711145
v 2.240812 2.501915 -0.780069
v 2.304390 2.379941 -0.848801
v -1.714478 -0.116313 2.642418
v -1.555439 0.005661 2.917075
v 2.665556 1.399704 -0.030106
v 2.729134 1.277730 -0.098835
v -1.491861 -0.116313 2.848346
v -2.468623 0.005661 2.072348
v -2.405046 -0.116313 2.003616
v 0.256688 1.350902 -2.385939
v 0.193110 1.472876 -2.317208
v -2.238713 0.005661 2.285020
v 0.993581 2.531187 -1.933805
v 1.057158 2.409212 -2.002535
v -2.175137 -0.116313 2.216291
v -1.763410 0.039210 -1.731464
v -0.508116 1.109064 -1.559155
v 0.114364 1.933248 -0.983338
v 0.722794 2.738828 -0.420519
v 1.361596 1.862345 0.170397
v 1.964329 1.035351 0.727947
v 2.151721 0.039210 1.890175
v 2.215298 -0.082764 1.821446
v 2.027906 0.913377 0.659218
v 1.425172 1.740371 0.101667
v 0.786371 2.616853 -0.489248
v 0.177941 1.811274 -1.052067
v -0.444540 0.987089 -1.627885
v -1.699833 -0.082764 -1.800194
v -2.266344 0.022859 -0.821459
v -1.550397 0.571277 -0.159180
v -0.998851 0.993762 0.351019
v -0.459756 1.406711 0.849702
v 0.106251 0.957417 1.373282
v 0.640301 0.533491 1.867294
v 1.283580 0.022859 2.462351
v 1.347158 -0.099116 2.393622
v 0.703877 0.411516 1.798565
v 0.169828 0.835441 1.304550
v -0.396179 1.284735 0.780974
v -0.935275 0.871787 0.282290
v -1.486820 0.449302 -0.227910
v -2.202766 -0.099116 -0.890188
v -2.357626 -0.152785 2.808861
v -2.272130 -0.274759 2.760406
v -2.586462 0.014819 0.322792
v -2.066504 0.306844 0.803772
v -1.620110 0.531811 1.216705
v -1.183792 0.751700 1.620318
v -0.725689 0.512458 2.044075
v -0.293455 0.286724 2.443908
v 0.167688 0.014819 2.870484
v 0.231266 -0.107155 2.801754
v -0.229878 0.164749 2.375179
v -0.662113 0.390483 1.975346
v -1.120214 0.629726 1.551586
v -1.556531 0.409837 1.147975
v -2.002928 0.184869 0.735043
v -2.522886 -0.107155 0.254063
v 0.615867 -0.369117 -0.117325
v 0.903118 -0.407013 -0.078482
v 1.392744 4.315545 -1.292029
v 1.679995 4.277649 -1.253186
v 1.420531 4.241228 -1.570025
v 1.707782 4.203331 -1.531182
v 0.643654 -0.443434 -0.395321
v 0.930905 -0.481330 -0.356477
v 0.729885 -0.366655 -0.032105
v 0.771447 -0.477814 -0.447912
v 1.548324 4.206848 -1.622616
v 1.506762 4.318006 -1.206810
v 1.328444 4.290240 -1.435465
v 1.514362 4.266467 -1.407318
v 1.770872 4.231873 -1.375639
v 0.993995 -0.452789 -0.200934
v 0.737485 -0.418194 -0.232614
v 0.551567 -0.394421 -0.260761
v 1.081068 2.222206 -0.799499
v 1.172410 2.224178 -0.731227
v 1.311192 2.191847 -0.768381
v 1.383996 2.155174 -0.866480
v 1.333453 2.132309 -0.991090
v 1.205707 2.135126 -1.064341
v 1.103329 2.162669 -1.022208
v 1.029556 2.201934 -0.914409
v 1.342387 3.066067 -1.369466
v 1.379168 3.081432 -1.396013
v 1.560265 2.986560 -1.148449
v 1.591495 2.999494 -1.169205
v 1.494574 2.997231 -1.098179
v 1.551702 3.076746 -1.149645
v 1.341064 3.050334 -1.304783
v 1.371862 3.136200 -1.345388
v 1.511590 2.985237 -1.282041
v 1.532502 3.006736 -1.303912
v 1.504059 3.067266 -1.266603
v 1.473742 2.981021 -1.221088
v 1.519080 3.058279 -0.940068
v 1.554473 3.068168 -0.957592
v 1.518558 3.120343 -0.998178
v 1.444356 3.047133 -0.953987
v 1.362390 3.174636 -0.837868
v 1.394129 3.194664 -0.830458
v 1.419174 3.186531 -0.916762
v 1.351709 3.117605 -0.896284
v 1.230692 3.253341 -0.836229
v 1.257012 3.277368 -0.839356
v 1.294007 3.273153 -0.905489
v 1.243320 3.187468 -0.895994
v 1.126632 3.294385 -0.928236
v 1.152933 3.321835 -0.930664
v 1.198252 3.302463 -0.971453
v 1.164730 3.220815 -0.978243
v 1.103995 3.273724 -1.078827
v 1.147399 3.284082 -1.120783
v 1.201075 3.263504 -1.118073
v 1.159753 3.199639 -1.082634
v 1.273676 3.100219 -1.257638
v 1.307201 3.176507 -1.297831
v 1.266225 3.163107 -1.340760
v 1.222856 3.151816 -1.304806
v 1.207578 3.158581 -1.173284
v 1.245661 3.224584 -1.216620
v 1.181172 3.242089 -1.218445
v 1.136187 3.233576 -1.171497
v 1.433901 3.002809 -1.351947
v 1.461169 3.021851 -1.375691
v 1.441193 3.080073 -1.333048
v 1.410683 2.993980 -1.289500
vt 0.478292 0.402118
vt 0.474863 0.326323
vt 0.521907 0.324607
vt 0.525071 0.394531
vt 0.386736 0.385399
vt 0.384213 0.329630
vt 0.430055 0.327958
vt 0.433219 0.397882
vt 0.566295 0.322988
vt 0.568819 0.378756
vt 0.614624 0.281956
vt 0.617413 0.343590
vt 0.326296 0.292475
vt 0.329085 0.354109
vt 0.337277 0.237464
vt 0.390003 0.235540
vt 0.430621 0.234058
vt 0.470323 0.232610
vt 0.512006 0.231089
vt 0.551336 0.229654
vt 0.598710 0.227926
vt 0.363996 0.179292
vt 0.402288 0.177895
vt 0.435162 0.176695
vt 0.467295 0.175523
vt 0.501031 0.174292
vt 0.532863 0.173131
vt 0.566824 0.171892
vt 0.480813 0.109884
vt 0.289999 0.275373
vt 0.258353 0.275373
vt 0.273159 0.222107
vt 0.317303 0.222107
vt 0.227870 0.336041
vt 0.238423 0.336041
vt 0.228691 0.275373
vt 0.236510 0.222107
vt 0.283147 0.134681
vt 0.329835 0.171251
vt 0.212594 0.336041
vt 0.196008 0.359481
vt 0.197254 0.275373
vt 0.197668 0.222107
vt 0.241785 0.134681
vt 0.283147 0.082660
vt 0.329835 0.113758
vt 0.196402 0.336041
vt 0.167312 0.275373
vt 0.160673 0.222107
vt 0.197947 0.134681
vt 0.241785 0.069456
vt 0.180981 0.336041
vt 0.136679 0.275373
vt 0.122823 0.222107
vt 0.156194 0.134681
vt 0.197947 0.063979
vt 0.165204 0.336041
vt 0.073692 0.222107
vt 0.100997 0.275373
vt 0.113477 0.134681
vt 0.156194 0.069456
vt 0.152572 0.336041
vt 0.061161 0.171251
vt 0.113477 0.082660
vt 0.061161 0.113758
vt 0.463438 0.110518
vt 0.460263 0.085464
vt 0.446888 0.111122
vt 0.429957 0.111739
vt 0.497208 0.109286
vt 0.508533 0.108873
vt 0.416401 0.112234
vt 0.029276 0.077374
vt 0.036776 0.083130
vt 0.112112 0.039418
vt 0.119612 0.045175
vt 0.179881 0.023303
vt 0.187380 0.029059
vt 0.260683 0.016618
vt 0.268183 0.022375
vt 0.058301 0.106652
vt 0.050546 0.101244
vt 0.048526 0.201375
vt 0.040771 0.195967
vt 0.052836 0.268272
vt 0.045082 0.262863
vt 0.070350 0.345598
vt 0.062595 0.340190
vt 0.898827 0.732532
vt 0.901203 0.575939
vt 0.911889 0.576063
vt 0.911977 0.732590
vt 0.805825 0.674788
vt 0.819321 0.689992
vt 0.833205 0.672230
vt 0.819468 0.667947
vt 0.930981 0.576291
vt 0.941566 0.576421
vt 0.948688 0.731706
vt 0.935544 0.732186
vt 0.831690 0.609198
vt 0.825051 0.627025
vt 0.811390 0.617616
vt 0.820601 0.610125
vt 0.923367 0.732503
vt 0.921130 0.576173
vt 0.873846 0.575632
vt 0.883689 0.575740
vt 0.877262 0.731907
vt 0.865099 0.731255
vt 0.810877 0.626808
vt 0.815390 0.638394
vt 0.854932 0.730615
vt 0.865652 0.575543
vt 0.808895 0.702563
vt 0.803685 0.687641
vt 0.892928 0.575844
vt 0.888645 0.732291
vt 0.821841 0.706044
vt 0.832983 0.702315
vt 0.837625 0.686351
vt 0.840919 0.636648
vt 0.845467 0.618580
vt 0.828329 0.641251
vt 0.892737 0.379385
vt 0.902972 0.379411
vt 0.916184 0.379650
vt 0.927626 0.379970
vt 0.939856 0.380494
vt 0.953059 0.381173
vt 0.858670 0.380061
vt 0.868907 0.379746
vt 0.881150 0.379461
vt 0.883378 0.155268
vt 0.884459 0.153171
vt 0.895801 0.160070
vt 0.893990 0.162924
vt 0.915075 0.243145
vt 0.907690 0.246931
vt 0.904789 0.237056
vt 0.912462 0.235046
vt 0.925299 0.153171
vt 0.924567 0.159577
vt 0.914693 0.166283
vt 0.913957 0.160070
vt 0.883181 0.161852
vt 0.891279 0.170689
vt 0.873901 0.154694
vt 0.875363 0.152027
vt 0.934395 0.152027
vt 0.932751 0.158308
vt 0.901841 0.228872
vt 0.909443 0.226752
vt 0.874887 0.160448
vt 0.904579 0.180579
vt 0.902328 0.183511
vt 0.909070 0.181138
vt 0.905179 0.180579
vt 0.918479 0.170689
vt 0.914490 0.186120
vt 0.895268 0.186120
vt 0.900228 0.203200
vt 0.896844 0.203686
vt 0.911886 0.194955
vt 0.909530 0.203200
vt 0.917833 0.197895
vt 0.891925 0.197895
vt 0.896838 0.242827
vt 0.895598 0.246211
vt 0.889405 0.236178
vt 0.891258 0.233677
vt 0.919863 0.205465
vt 0.919563 0.212679
vt 0.921332 0.250667
vt 0.915667 0.244720
vt 0.920662 0.237241
vt 0.927192 0.242691
vt 0.887694 0.213548
vt 0.884446 0.206098
vt 0.883418 0.224024
vt 0.885497 0.221421
vt 0.930392 0.206559
vt 0.931717 0.212783
vt 0.925577 0.227404
vt 0.931302 0.232161
vt 0.875437 0.213483
vt 0.874609 0.205149
vt 0.934320 0.213483
vt 0.942307 0.197249
vt 0.944022 0.202474
vt 0.938177 0.193870
vt 0.927266 0.221421
vt 0.933012 0.224377
vt 0.955588 0.205149
vt 0.951823 0.213483
vt 0.948679 0.202474
vt 0.953899 0.196710
vt 0.933605 0.223358
vt 0.941099 0.221421
vt 0.942515 0.229904
vt 0.935726 0.232274
vt 0.937918 0.162973
vt 0.940928 0.156881
vt 0.945833 0.169938
vt 0.940074 0.171456
vt 0.952659 0.156881
vt 0.954613 0.160399
vt 0.950463 0.174669
vt 0.948510 0.169938
vt 0.957753 0.164911
vt 0.955632 0.173827
vt 0.943455 0.241056
vt 0.937312 0.244255
vt 0.945195 0.186540
vt 0.940156 0.182609
vt 0.948706 0.192294
vt 0.946613 0.186540
vt 0.954046 0.185808
vt 0.943205 0.252317
vt 0.937459 0.255157
vt 0.946607 0.197249
vt 0.957559 0.152027
vt 0.959688 0.154694
vt 0.897431 0.223705
vt 0.904925 0.221421
vt 0.962271 0.160448
vn -0.340681 0.846219 0.409695
vn -0.348859 0.839631 0.416314
vn 0.214051 0.669058 0.711719
vn 0.289616 0.604322 0.742238
vn 0.545524 0.608862 -0.575926
vn 0.548359 0.608835 -0.573256
vn 0.902181 0.423200 0.083497
vn 0.903311 0.419010 0.091979
vn -0.214051 -0.669058 -0.711719
vn 0.348858 -0.839631 -0.416314
vn 0.340680 -0.846219 -0.409695
vn -0.289617 -0.604322 -0.742238
vn 0.718824 -0.678813 0.150016
vn 0.643823 -0.717539 0.265765
vn 0.670215 -0.669273 0.320757
vn 0.754681 -0.612531 0.235081
vn -0.224039 0.387180 -0.894370
vn -0.191247 0.404295 -0.894411
vn -0.153233 0.423279 -0.892947
vn -0.146140 0.426725 -0.892496
vn -0.670216 0.669273 -0.320756
vn -0.643822 0.717539 -0.265765
vn -0.718824 0.678813 -0.150016
vn -0.754681 0.612531 -0.235081
vn 0.328982 0.703722 0.629719
vn 0.379780 0.649977 0.658253
vn 0.908836 0.389369 0.149695
vn 0.910320 0.370361 0.184800
vn -0.328982 -0.703722 -0.629719
vn -0.379780 -0.649977 -0.658253
vn 0.327927 0.749982 0.574449
vn 0.470602 0.655665 0.590455
vn 0.910380 0.351658 0.218048
vn 0.910380 0.351658 0.218048
vn -0.327927 -0.749982 -0.574449
vn -0.470602 -0.655665 -0.590455
vn 0.615719 -0.672481 0.410681
vn 0.592416 -0.758580 0.271294
vn -0.254841 0.370467 -0.893202
vn -0.254841 0.370467 -0.893202
vn -0.592416 0.758580 -0.271294
vn -0.615719 0.672482 -0.410680
vn -0.554993 0.815467 -0.164304
vn -0.587434 0.799687 -0.124182
vn -0.653914 0.755222 -0.045128
vn -0.347405 0.841478 0.413792
vn 0.109161 0.748619 0.653952
vn 0.183287 0.792036 0.582309
vn 0.219840 0.808547 0.545822
vn -0.219839 -0.808547 -0.545822
vn -0.183287 -0.792037 -0.582309
vn -0.109160 -0.748619 -0.653952
vn 0.347405 -0.841478 -0.413792
vn 0.653914 -0.755222 0.045127
vn 0.587434 -0.799687 0.124182
vn 0.554993 -0.815467 0.164304
vn -0.483054 0.873405 -0.061823
vn -0.481227 0.876595 0.001119
vn -0.518049 0.850592 0.090105
vn -0.319367 0.873801 0.366711
vn -0.041670 0.846943 0.530048
vn 0.044905 0.870549 0.490029
vn 0.108502 0.865688 0.488683
vn -0.108502 -0.865688 -0.488683
vn -0.044905 -0.870549 -0.490029
vn 0.041670 -0.846944 -0.530047
vn 0.319367 -0.873801 -0.366711
vn 0.518049 -0.850592 -0.090105
vn 0.481227 -0.876596 -0.001119
vn 0.483054 -0.873406 0.061824
vn 0.218897 -0.946620 -0.236634
vn 0.218897 -0.946620 -0.236634
vn 0.218897 -0.946620 -0.236634
vn -0.144465 0.882578 0.447422
vn -0.312993 0.883607 0.348244
vn -0.218896 0.946620 0.236636
vn 0.218896 -0.946619 -0.236635
vn 0.218896 -0.946619 -0.236635
vn 0.218896 -0.946619 -0.236635
vn -0.428659 0.884882 0.182303
vn -0.399539 0.910127 0.109718
vn -0.218894 0.946620 0.236635
vn 0.218897 -0.946619 -0.236636
vn 0.218897 -0.946619 -0.236636
vn 0.218897 -0.946619 -0.236636
vn -0.072736 0.906864 0.415099
vn -0.218896 0.946620 0.236633
vn 0.218897 -0.946619 -0.236635
vn 0.218897 -0.946619 -0.236635
vn 0.218897 -0.946619 -0.236635
vn 0.002088 0.906648 0.421883
vn -0.218897 0.946618 0.236638
vn 0.218895 -0.946620 -0.236635
vn 0.218895 -0.946620 -0.236635
vn 0.218895 -0.946620 -0.236635
vn -0.404388 0.913844 0.036865
vn -0.218901 0.946618 0.236636
vn 0.218896 -0.946620 -0.236635
vn 0.218896 -0.946620 -0.236635
vn 0.218896 -0.946620 -0.236635
vn -0.218896 0.946620 0.236634
vn 0.058460 -0.900420 -0.431075
vn -0.006692 -0.904998 -0.425364
vn 0.135087 -0.871783 -0.470900
vn 0.323887 -0.874431 -0.361203
vn 0.452749 -0.874287 -0.175046
vn 0.417247 -0.903692 -0.096149
vn 0.408265 -0.912293 -0.032273
vn -0.087660 0.309140 0.946968
vn -0.095788 0.257010 0.961650
vn 0.561140 0.112563 0.820031
vn 0.570458 0.178695 0.801652
vn 0.106136 -0.191846 -0.975669
vn 0.158812 0.957660 -0.240138
vn 0.991342 -0.060949 0.116301
vn 0.737935 -0.202412 -0.643802
vn 0.727180 -0.277982 -0.627643
vn 0.096530 -0.257128 -0.961544
vn 0.971945 -0.183636 0.146975
vn -0.158813 -0.957660 0.240139
vn 0.087051 -0.308209 -0.947327
vn 0.716401 -0.337033 -0.610883
vn 0.982692 -0.129843 0.132128
vn -0.662739 -0.076886 -0.744893
vn -0.982547 0.129424 -0.133610
vn -0.974934 0.171066 -0.142269
vn -0.652435 -0.018695 -0.757614
vn -0.670078 -0.122839 -0.732056
vn -0.987570 0.096773 -0.123856
vn -0.774747 0.271640 0.570945
vn -0.765007 0.321917 0.557793
vn -0.103261 0.215046 0.971129
vn 0.551208 0.059547 0.832241
vn -0.780522 0.231029 0.580871
vn 0.150845 -0.973269 -0.173186
vn 0.834875 0.105781 -0.540180
vn 0.989749 0.050172 -0.133714
vn 0.257410 -0.947788 0.188251
vn -0.926447 -0.371782 0.058934
vn 0.087876 0.978181 -0.188256
vn 0.018596 0.999712 0.015144
vn -0.867311 -0.310822 0.388794
vn -0.220930 -0.874747 -0.431286
vn 0.526774 0.043098 -0.848912
vn 0.348768 0.896174 0.274288
vn -0.645244 -0.393271 0.654980
vn 0.925998 0.118632 0.358405
vn 0.200562 -0.752768 0.626989
vn 0.078581 0.909338 -0.408570
vn -0.801936 -0.578869 -0.147681
vn 0.596330 0.522363 0.609530
vn -0.123364 -0.518417 0.846183
vn 0.262510 0.707545 -0.656101
vn -0.556207 -0.754077 -0.349287
vn 0.247738 0.811957 0.528538
vn -0.543407 -0.342744 0.766313
vn 0.522816 0.599410 -0.606111
vn -0.399921 -0.875055 -0.272656
vn -0.106230 0.984750 0.137779
vn -0.910505 -0.066330 0.408143
vn 0.753838 0.536685 -0.379074
vn -0.162425 -0.984858 0.060612
vn -0.106014 0.943288 -0.314594
vn -0.999625 -0.025685 -0.009458
vn 0.919761 0.380067 0.097921
vn 0.003063 -0.958005 0.286734
vn -0.269125 -0.578528 0.769985
vn 0.589656 0.780428 0.207939
vn 0.735751 0.633126 0.240463
vn -0.024680 -0.802333 0.596366
vn 0.113359 0.219588 -0.968985
vn -0.256465 0.501131 -0.826495
vn -0.589600 -0.601613 -0.538920
vn -0.817801 -0.408764 -0.405110
vn 0.820183 0.523324 0.231153
vn -0.032848 -0.882761 0.468674
vn -0.247470 0.777657 -0.577934
vn -0.906882 -0.318612 -0.275774
s 1
g polySurface2
usemtl lambert3SG
f 12/1/1 32/2/2 33/3/3 14/4/4
s 2
f 11/79/5 12/80/6 14/78/7 15/77/8
s 3
f 38/44/9 39/50/10 11/56/11 15/51/12
f 40/55/13 41/60/14 23/64/15 27/61/16
s 2
f 23/84/17 24/83/18 26/85/19 27/86/20
s 1
f 24/5/21 30/6/22 31/7/23 26/8/24
f 14/4/4 33/3/3 34/9/25 18/10/26
s 2
f 15/77/8 14/78/7 18/76/27 19/75/28
s 3
f 37/38/29 38/44/9 15/51/12 19/45/30
s 1
f 18/10/26 34/9/25 35/11/31 4/12/32
s 2
f 19/75/28 18/76/27 4/74/33 6/73/34
s 3
f 36/39/35 37/38/29 19/45/30 6/46/36
f 5/65/37 23/64/15 41/60/14 42/63/38
s 2
f 3/81/39 24/83/18 23/84/17 5/82/40
s 1
f 29/13/41 30/6/22 24/5/21 3/14/42
f 26/8/24 31/7/23 32/2/2 12/1/1
s 2
f 27/86/20 26/85/19 12/87/6 11/88/5
s 3
f 39/50/10 40/55/13 27/61/16 11/56/11
s 1
f 43/15/43 44/16/44 30/6/22 29/13/41
f 31/7/23 30/6/22 44/16/44 45/17/45
f 32/2/2 31/7/23 45/17/45 46/18/46
f 33/3/3 32/2/2 46/18/46 47/19/47
f 34/9/25 33/3/3 47/19/47 48/20/48
f 35/11/31 34/9/25 48/20/48 49/21/49
s 3
f 50/33/50 51/32/51 37/38/29 36/39/35
f 51/32/51 52/37/52 38/44/9 37/38/29
f 52/37/52 53/43/53 39/50/10 38/44/9
f 53/43/53 54/49/54 40/55/13 39/50/10
f 54/49/54 55/54/55 41/60/14 40/55/13
f 42/63/38 41/60/14 55/54/55 56/58/56
s 1
f 59/22/57 60/23/58 44/16/44 43/15/43
f 45/17/45 44/16/44 60/23/58 61/24/59
f 46/18/46 45/17/45 61/24/59 62/25/60
f 47/19/47 46/18/46 62/25/60 63/26/61
f 48/20/48 47/19/47 63/26/61 64/27/62
f 49/21/49 48/20/48 64/27/62 65/28/63
s 3
f 66/30/64 67/31/65 51/32/51 50/33/50
f 67/31/65 68/36/66 52/37/52 51/32/51
f 68/36/66 69/42/67 53/43/53 52/37/52
f 69/42/67 70/48/68 54/49/54 53/43/53
f 70/48/68 71/53/69 55/54/55 54/49/54
f 56/58/56 55/54/55 71/53/69 72/59/70
s off
f 10/47/71 16/40/72 58/41/73
s 1
f 13/29/74 9/66/75 57/67/76
s off
f 22/57/77 28/52/78 58/41/79
s 1
f 25/68/80 21/69/81 57/67/82
s off
f 16/40/83 20/34/84 58/41/85
s 1
f 17/70/86 13/29/74 57/67/87
s off
f 20/34/88 8/35/89 58/41/90
s 1
f 2/71/91 17/70/86 57/67/92
s off
f 7/62/93 22/57/94 58/41/95
s 1
f 21/69/81 1/72/96 57/67/97
s off
f 28/52/98 10/47/99 58/41/100
s 1
f 9/66/75 25/68/80 57/67/101
f 1/72/96 21/69/81 60/23/58 59/22/57
f 61/24/59 60/23/58 21/69/81 25/68/80
f 62/25/60 61/24/59 25/68/80 9/66/75
f 63/26/61 62/25/60 9/66/75 13/29/74
f 64/27/62 63/26/61 13/29/74 17/70/86
f 65/28/63 64/27/62 17/70/86 2/71/91
s 3
f 20/34/102 67/31/65 66/30/64 8/35/103
f 16/40/104 68/36/66 67/31/65 20/34/102
f 10/47/105 69/42/67 68/36/66 16/40/104
f 28/52/106 70/48/68 69/42/67 10/47/105
f 22/57/107 71/53/69 70/48/68 28/52/106
f 72/59/70 71/53/69 22/57/107 7/62/108
s 7
f 84/89/109 92/90/110 93/91/111 76/92/112
f 83/93/113 86/94/114 87/95/115 78/96/116
f 95/97/117 96/98/118 83/99/113 78/100/116
f 88/101/119 89/102/120 82/103/121 80/104/122
f 87/105/115 94/106/123 95/97/117 78/100/116
f 97/107/124 98/108/125 85/109/126 77/110/127
f 79/111/128 82/103/121 89/102/120 90/112/129
f 77/110/127 83/113/113 96/114/118 97/107/124
f 85/115/126 86/94/114 83/93/113 77/116/127
f 91/117/130 92/90/110 84/89/109 75/118/131
f 75/119/131 84/120/109 86/94/114 85/115/126
f 87/95/115 86/94/114 84/120/109 76/121/112
f 93/91/111 94/106/123 87/105/115 76/92/112
f 81/122/132 89/102/120 88/101/119 74/123/133
f 90/112/129 89/102/120 81/122/132 73/124/134
f 85/109/126 98/108/125 91/117/130 75/118/131
f 73/125/134 81/126/132 92/90/110 91/117/130
f 93/91/111 92/90/110 81/126/132 74/127/133
f 74/127/133 88/128/119 94/106/123 93/91/111
f 95/97/117 94/106/123 88/128/119 80/129/122
f 82/130/121 96/98/118 95/97/117 80/129/122
f 97/107/124 96/114/118 82/131/121 79/132/128
f 79/132/128 90/133/129 98/108/125 97/107/124
f 91/117/130 98/108/125 90/133/129 73/125/134
s 11
f 107/134/135 108/135/136 102/136/137 101/137/138
f 103/138/139 104/139/140 109/140/141 110/141/142
f 108/142/136 109/143/141 104/144/140 102/145/137
f 110/146/142 107/134/135 101/137/138 103/147/139
f 139/148/143 140/149/144 108/135/136 107/134/135
f 140/150/144 141/151/145 109/143/141 108/142/136
f 110/141/142 109/140/141 141/152/145 142/153/146
f 142/154/146 139/148/143 107/134/135 110/146/142
f 101/137/138 102/136/137 112/155/147 111/156/148
f 102/145/137 104/144/140 113/157/149 112/158/147
f 104/144/140 103/159/139 114/160/150 113/157/149
f 103/147/139 101/137/138 111/156/148 114/161/150
f 111/156/148 112/155/147 116/162/151 115/163/152
f 112/158/147 113/157/149 117/164/153 116/165/151
f 113/157/149 114/160/150 118/166/154 117/164/153
f 114/161/150 111/156/148 115/163/152 118/167/154
f 115/168/152 116/169/151 120/170/155 119/171/156
f 116/165/151 117/164/153 121/172/157 120/173/155
f 117/174/153 118/175/154 122/176/158 121/177/157
f 118/167/154 115/163/152 119/178/156 122/179/158
f 119/171/156 120/170/155 124/180/159 123/181/160
f 120/173/155 121/172/157 125/182/161 124/183/159
f 121/177/157 122/176/158 126/184/162 125/185/161
f 122/179/158 119/178/156 123/186/160 126/187/162
f 123/188/160 124/183/159 128/189/163 127/190/164
f 124/183/159 125/182/161 129/191/165 128/189/163
f 125/185/161 126/184/162 130/192/166 129/193/165
f 126/194/162 123/195/160 127/196/164 130/197/166
f 105/198/167 106/199/168 132/200/169 131/201/170
f 106/202/168 100/203/171 133/204/172 132/205/169
f 100/206/171 99/207/173 134/208/174 133/209/172
f 99/207/173 105/210/167 131/211/170 134/208/174
f 131/201/170 132/200/169 136/212/175 135/213/176
f 132/205/169 133/204/172 137/214/177 136/215/175
f 133/209/172 134/208/174 138/216/178 137/217/177
f 134/208/174 131/211/170 135/218/176 138/216/178
f 135/213/176 136/212/175 129/219/165 130/220/166
f 136/215/175 137/214/177 128/189/163 129/191/165
f 137/217/177 138/216/178 127/196/164 128/221/163
f 138/216/178 135/218/176 130/197/166 127/196/164
f 99/207/173 100/206/171 140/222/144 139/223/143
f 100/203/171 106/202/168 141/151/145 140/150/144
f 142/153/146 141/152/145 106/224/168 105/225/167
f 105/210/167 99/207/173 139/223/143 142/226/146
