# This file uses centimeters as units for non-parametric coordinates.

mtllib TentTest.mtl
g default
v 2.924590 0.947017 -2.374283
v 2.965849 0.970650 -2.346389
v 2.878989 0.749449 -2.125462
v 2.912314 0.768519 -2.101179
v 2.783830 0.738589 -2.163059
v 2.830788 0.828335 -2.106984
v 2.867617 0.900954 -2.357219
v 2.884590 0.992818 -2.318888
v 2.981655 0.819658 -2.216439
v 3.005559 0.847494 -2.199222
v 2.921659 0.883050 -2.193561
v 2.900318 0.788345 -2.229838
v 2.612905 0.709350 -2.067372
v 2.647085 0.723832 -2.039135
v 2.639585 0.792107 -2.070128
v 2.586248 0.712840 -2.142128
v 2.358931 0.770587 -2.136575
v 2.361291 0.781507 -2.099794
v 2.465841 0.816024 -2.110394
v 2.437951 0.751861 -2.183517
v 2.237991 0.848142 -2.230147
v 2.245473 0.868258 -2.200744
v 2.335525 0.895001 -2.192415
v 2.336972 0.820602 -2.259407
v 2.244888 0.938306 -2.343291
v 2.249994 0.961016 -2.312650
v 2.327549 0.961258 -2.292404
v 2.353631 0.897157 -2.348678
v 2.389776 0.998345 -2.422776
v 2.452763 1.024908 -2.395904
v 2.493092 1.001488 -2.353189
v 2.463997 0.932012 -2.396250
v 2.755316 0.925545 -2.385899
v 2.778241 1.008739 -2.347810
v 2.802035 1.022191 -2.403427
v 2.745452 0.997850 -2.432664
v 2.602925 0.938550 -2.397781
v 2.636782 1.014112 -2.359768
v 2.590447 1.035319 -2.412704
v 2.520660 1.007952 -2.438677
v 2.994399 0.876341 -2.305184
v 3.025256 0.902494 -2.283691
v 2.942413 0.932687 -2.269281
v 2.922822 0.839119 -2.306382
v 2.736595 0.103040 2.295269
v 3.027725 0.085002 2.314651
v 3.174489 3.928508 -0.721941
v 3.465619 3.910471 -0.702559
v 3.178476 3.749213 -0.948687
v 3.469607 3.731175 -0.929305
v 2.740582 -0.076256 2.068523
v 3.031712 -0.094293 2.087905
v 2.858141 0.139866 2.359602
v 2.864105 -0.128311 2.020450
v 3.301999 3.697158 -0.996760
v 3.296036 3.965335 -0.657608
v 3.097759 3.847637 -0.835612
v 3.286446 3.837857 -0.820627
v 3.546162 3.819855 -0.805759
v 3.108268 -0.005614 2.211452
v 2.848552 0.012389 2.196582
v 2.659865 0.022169 2.181598
v 3.010919 2.206273 0.592952
v 3.108293 2.235776 0.644491
v 3.244151 2.191822 0.608480
v 3.308676 2.119228 0.525804
v 3.247345 2.048184 0.426828
v 3.113071 2.020932 0.372788
v 3.014113 2.062635 0.411300
v 2.949449 2.141485 0.501888
v 3.194815 0.762602 1.333912
v 3.240248 0.791487 1.322063
v 3.232676 0.843072 1.642321
v 3.269848 0.867749 1.633766
v 3.131946 0.823717 1.650430
v 3.185664 0.913671 1.601171
v 3.148083 0.757613 1.392650
v 3.168063 0.840270 1.338198
v 3.301533 0.797610 1.512174
v 3.327114 0.823767 1.494732
v 3.245514 0.864226 1.488389
v 3.222103 0.782184 1.547225
v 2.995854 0.909501 1.765957
v 3.035249 0.934304 1.763099
v 3.014708 0.953111 1.693081
v 2.949798 0.858290 1.726367
v 2.728876 0.936855 1.734086
v 2.740293 0.971590 1.745952
v 2.835286 0.966373 1.689529
v 2.793405 0.875487 1.704616
v 2.581835 0.932349 1.646019
v 2.595505 0.966080 1.645270
v 2.682264 0.973296 1.609010
v 2.670948 0.875885 1.629214
v 2.551311 0.898339 1.508578
v 2.562845 0.935015 1.507010
v 2.642755 0.937497 1.501265
v 2.657238 0.850413 1.514014
v 2.664548 0.848327 1.383713
v 2.730350 0.874461 1.364168
v 2.782318 0.886369 1.398182
v 2.747795 0.815753 1.434914
v 3.030731 0.769684 1.381620
v 3.056990 0.845854 1.332567
v 3.063817 0.806846 1.284901
v 3.003362 0.779128 1.299925
v 2.880277 0.794625 1.398197
v 2.917565 0.864211 1.352720
v 2.857229 0.844071 1.315939
v 2.785200 0.819316 1.338136
v 3.285653 0.761132 1.413846
v 3.319185 0.788381 1.398645
v 3.241357 0.832175 1.401305
v 3.219320 0.749887 1.458385
v -2.075360 0.043073 2.527519
v 2.792949 0.043073 2.527519
v -2.075360 3.830505 -0.148237
v 2.792949 3.830505 -0.148237
v -2.075360 3.774982 -0.241001
v 2.792949 3.774982 -0.241001
v -2.075360 -0.012449 2.434755
v 2.792949 -0.012449 2.434755
v -2.075360 3.925460 -0.365858
v 2.792949 3.925460 -0.365858
v 2.792949 3.817388 -0.362973
v -2.075360 3.817388 -0.362973
v -2.075360 3.829944 -0.545734
v 2.792949 3.829944 -0.545734
v 2.792949 3.748515 -0.474620
v -2.075360 3.748515 -0.474620
v -2.075360 0.034966 -3.111193
v 2.792949 0.034966 -3.111193
v 2.792949 -0.046463 -3.040079
v -2.075360 -0.046463 -3.040079
v 0.217501 0.043073 2.527519
v 0.217501 -0.012449 2.434755
v 0.217501 3.530660 -0.241001
v 0.217501 3.573066 -0.362973
v 0.217501 3.504192 -0.474620
v 0.217501 -0.046463 -3.040079
v 0.217501 0.034966 -3.111193
v 0.217501 3.585622 -0.545734
v 0.217501 3.681138 -0.365858
v 0.217501 3.586183 -0.148237
v 1.470184 0.043073 2.527519
v 1.470184 3.638220 -0.148237
v 1.470184 3.733175 -0.365858
v 1.470184 3.637659 -0.545734
v 1.470184 0.034966 -3.111193
v 1.470184 -0.046463 -3.040079
v 1.470184 3.556230 -0.474620
v 1.470184 3.625103 -0.362973
v 1.470184 3.582698 -0.241001
v 1.470184 -0.012449 2.434755
v -0.939245 0.043073 2.527519
v -0.939245 -0.012449 2.434755
v -0.939245 3.582698 -0.241001
v -0.939245 3.625103 -0.362973
v -0.939245 3.556230 -0.474620
v -0.939245 -0.046463 -3.040079
v -0.939245 0.034966 -3.111193
v -0.939245 3.637659 -0.545734
v -0.939245 3.733175 -0.365858
v -0.939245 3.638220 -0.148237
v -2.075360 2.337487 0.561376
v -0.939245 2.238851 0.561376
v 0.217501 2.212158 0.561376
v 1.470184 2.238851 0.561376
v 2.792949 2.337487 0.561376
v 2.792949 2.281965 0.468612
v 1.470184 2.183329 0.468611
v 0.217501 2.156636 0.468612
v -0.939245 2.183329 0.468611
v -2.075360 2.281965 0.468612
v -2.075360 2.174469 -1.433602
v -0.939245 2.066064 -1.433602
v 0.217501 2.036727 -1.433602
v 1.470184 2.066064 -1.433602
v 2.792949 2.174469 -1.433602
v 2.792949 2.093039 -1.362486
v 1.470184 1.984634 -1.362486
v 0.217501 1.955297 -1.362486
v -0.939245 1.984634 -1.362486
v -2.075360 2.093039 -1.362486
v -2.075360 0.979712 1.549797
v -0.939245 0.933369 1.549797
v 0.217501 0.920827 1.549797
v 1.470184 0.933369 1.549797
v 2.792949 0.979712 1.549797
v 2.792949 0.924190 1.457033
v 1.470184 0.877846 1.457032
v 0.217501 0.865305 1.457032
v -0.939245 0.877846 1.457032
v -2.075360 0.924190 1.457033
v 0.217501 1.175690 -2.065968
v -0.939245 1.192408 -2.065968
v -2.075360 1.254183 -2.065968
v -2.075360 1.172754 -1.994854
v -0.939245 1.110978 -1.994854
v 0.217501 1.094260 -1.994854
v 1.470184 1.110978 -1.994854
v 2.792949 1.172754 -1.994854
v 2.792949 1.254183 -2.065968
v 1.470184 1.192407 -2.065968
v 2.740589 3.581514 0.317986
v 2.866097 3.754128 0.118211
v 2.406932 -0.005677 -2.991131
v 2.532440 0.166937 -3.190906
v 2.667282 -0.103114 -2.911757
v 2.792791 0.069500 -3.111531
v 3.000939 3.484076 0.397360
v 3.126447 3.656691 0.197586
v 2.728915 3.678306 0.214238
v 3.118329 3.532565 0.332961
v 2.784672 -0.054626 -2.976156
v 2.395258 0.091115 -3.094879
v 2.497537 -0.098898 -2.899212
v 2.576122 0.014042 -3.029565
v 2.690847 0.166965 -3.206907
v 3.024504 3.754156 0.102209
v 2.909778 3.601232 0.279551
v 2.831194 3.488293 0.409905
v 2.599344 1.593819 -1.532917
v 2.589992 1.671360 -1.616032
v 2.699893 1.732104 -1.692962
v 2.826796 1.732126 -1.705781
v 2.908465 1.654044 -1.629373
v 2.901962 1.554604 -1.520920
v 2.807918 1.515759 -1.469328
v 2.671931 1.519137 -1.459278
v 3.246330 2.267888 0.101453
v 3.304649 2.306225 0.087107
v 3.301128 2.352149 0.503949
v 3.348861 2.384790 0.493750
v 3.171222 2.326005 0.515196
v 3.239159 2.445636 0.456333
v 3.187164 2.257371 0.177887
v 3.211433 2.367702 0.112531
v 3.387699 2.302279 0.331648
v 3.420261 2.337328 0.310307
v 3.314464 2.389447 0.306371
v 3.285847 2.279606 0.377494
v 2.997252 2.428442 0.672579
v 3.047972 2.460893 0.669696
v 3.019896 2.489547 0.580949
v 2.937196 2.364593 0.619105
v 2.651434 2.464115 0.638580
v 2.666246 2.508261 0.655904
v 2.787884 2.505761 0.580830
v 2.734551 2.387203 0.595287
v 2.459637 2.463037 0.527579
v 2.477109 2.506714 0.528512
v 2.588450 2.518913 0.480428
v 2.574756 2.391795 0.500454
v 2.417564 2.427789 0.348602
v 2.432243 2.475307 0.348711
v 2.535382 2.479387 0.339847
v 2.554822 2.366243 0.350397
v 2.561619 2.371985 0.181933
v 2.646118 2.407396 0.157065
v 2.713908 2.420906 0.200691
v 2.670419 2.327168 0.244243
v 3.035219 2.272920 0.166791
v 3.067747 2.374570 0.107859
v 3.075804 2.327327 0.043682
v 2.998131 2.290197 0.062504
v 2.840991 2.303096 0.192824
v 2.887880 2.396087 0.137860
v 2.809262 2.372075 0.090303
v 2.716763 2.338234 0.118807
v 3.365362 2.261419 0.202702
v 3.408242 2.297786 0.184163
v 3.307484 2.353653 0.191987
v 3.280608 2.243616 0.260800
v 3.090518 2.286308 -1.081170
v 3.138962 2.303927 -1.031983
v 2.832042 2.179029 -0.774924
v 2.870507 2.193910 -0.733128
v 2.736017 2.198221 -0.864904
v 2.819044 2.299000 -0.791816
v 2.995031 2.267988 -1.081205
v 3.053252 2.378853 -1.044428
v 3.019014 2.174453 -0.843404
v 3.055004 2.201137 -0.816258
v 2.982420 2.284193 -0.858189
v 2.917008 2.172992 -0.894218
v 2.497035 2.284094 -0.832624
v 2.532261 2.294862 -0.784904
v 2.575774 2.364203 -0.837669
v 2.497891 2.272316 -0.934621
v 2.282196 2.449754 -1.052667
v 2.277490 2.475098 -1.010195
v 2.415600 2.459814 -0.976575
v 2.374730 2.372379 -1.064860
v 2.230917 2.560434 -1.237678
v 2.239943 2.590934 -1.203007
v 2.350643 2.581054 -1.152952
v 2.333424 2.470178 -1.217431
v 2.333571 2.616264 -1.383933
v 2.341073 2.651331 -1.349474
v 2.418143 2.621929 -1.286797
v 2.429819 2.514969 -1.328197
v 2.556270 2.584154 -1.415849
v 2.630480 2.594227 -1.357507
v 2.644730 2.564498 -1.282711
v 2.588229 2.483113 -1.335240
v 2.897857 2.339148 -1.175787
v 2.957554 2.437196 -1.134720
v 3.012088 2.419716 -1.190719
v 2.947040 2.408174 -1.249041
v 2.743955 2.422916 -1.268575
v 2.811099 2.506987 -1.220716
v 2.792814 2.533187 -1.310149
v 2.710389 2.525827 -1.370694
v 3.099267 2.198752 -0.951868
v 3.140245 2.221805 -0.915893
v 3.062403 2.301605 -0.946013
v 2.999872 2.190538 -0.982342
v -2.488259 0.959408 1.633087
v -2.525826 0.986305 1.603016
v -2.444760 0.758796 1.386334
v -2.475004 0.780502 1.360296
v -2.353074 0.740263 1.429196
v -2.389368 0.833518 1.370971
v -2.434324 0.908881 1.619057
v -2.441612 1.001818 1.580251
v -2.546401 0.837090 1.471689
v -2.566962 0.866771 1.453278
v -2.480275 0.895414 1.452527
v -2.468754 0.799291 1.489517
v -2.179927 0.697275 1.343182
v -2.211169 0.714478 1.313127
v -2.199941 0.781921 1.344807
v -2.157355 0.698594 1.419339
v -1.926164 0.737738 1.426899
v -1.925545 0.748813 1.390095
v -2.027393 0.791686 1.394930
v -2.008972 0.725474 1.469217
v -1.804845 0.805242 1.527508
v -1.808998 0.825898 1.497821
v -1.895975 0.859847 1.484542
v -1.907228 0.785809 1.551003
v -1.810828 0.895668 1.640494
v -1.812336 0.918717 1.609718
v -1.888345 0.925240 1.585125
v -1.922672 0.863463 1.639542
v -1.954657 0.967246 1.711943
v -2.013664 0.998824 1.681679
v -2.053270 0.978748 1.636648
v -2.032376 0.907143 1.680963
v -2.322207 0.924294 1.654146
v -2.336134 1.009073 1.615206
v -2.361875 1.024407 1.669451
v -2.309195 0.995564 1.701725
v -2.170183 0.924913 1.674675
v -2.195610 1.002969 1.635159
v -2.150786 1.020353 1.690724
v -2.085025 0.987424 1.720470
v -2.559528 0.894619 1.559833
v -2.586900 0.923185 1.536751
v -2.501204 0.946568 1.527182
v -2.491379 0.851722 1.564899
v -2.984624 3.891661 -0.433916
v -2.992884 3.597394 -0.201376
v 3.637454 3.833897 -0.271793
v 3.629195 3.539630 -0.039253
v 3.642570 3.603808 -0.562776
v 3.634311 3.309541 -0.330236
v -2.979507 3.661572 -0.724899
v -2.987767 3.367306 -0.492359
v -2.989368 3.824809 -0.263953
v -2.981715 3.480658 -0.699186
v 3.640363 3.422894 -0.537063
v 3.632709 3.767044 -0.101831
v 3.642132 3.803346 -0.473759
v 3.636722 3.615039 -0.319907
v 3.629410 3.350112 -0.115597
v -2.992668 3.407877 -0.277720
v -2.985355 3.672803 -0.482030
v -2.979946 3.861111 -0.635882
v 0.450654 3.597349 -0.354268
v 0.446854 3.543793 -0.218106
v 0.444037 3.361605 -0.167974
v 0.444210 3.209778 -0.229135
v 0.448136 3.177275 -0.401088
v 0.452985 3.268085 -0.566782
v 0.454754 3.413020 -0.587381
v 0.454402 3.572875 -0.516067
v -2.561954 0.797488 -2.085258
v -2.605500 0.829958 -2.075862
v -2.575645 0.880760 -2.394940
v -2.611125 0.908367 -2.388386
v -2.476514 0.853310 -2.397436
v -2.525486 0.947320 -2.350877
v -2.512525 0.788730 -2.141285
v -2.528808 0.872733 -2.087670
v -2.655218 0.841026 -2.269100
v -2.679546 0.869168 -2.253011
v -2.595433 0.902885 -2.241884
v -2.575438 0.819216 -2.299680
v -2.327604 0.927788 -2.504698
v -2.364962 0.955700 -2.503956
v -2.346967 0.972781 -2.432804
v -2.288157 0.873014 -2.462805
v -2.061523 0.933426 -2.457674
v -2.069403 0.968971 -2.470006
v -2.167552 0.971467 -2.419063
v -2.132370 0.877487 -2.432177
v -1.920556 0.917024 -2.361465
v -1.931474 0.951752 -2.361334
v -2.019280 0.965972 -2.329998
v -2.014753 0.867964 -2.349978
v -1.900720 0.880653 -2.222676
v -1.909321 0.918143 -2.221594
v -1.988965 0.927090 -2.220360
v -2.009698 0.841465 -2.234306
v -2.024523 0.839978 -2.104637
v -2.088998 0.871357 -2.088719
v -2.137822 0.887434 -2.125560
v -2.107096 0.814254 -2.160607
v -2.395396 0.791255 -2.123590
v -2.418146 0.869302 -2.075749
v -2.430795 0.830975 -2.028724
v -2.372025 0.798452 -2.040437
v -2.242720 0.803927 -2.131529
v -2.276776 0.876305 -2.087911
v -2.220447 0.851344 -2.047874
v -2.149515 0.820836 -2.066081
v -2.647937 0.803381 -2.170201
v -2.679963 0.833257 -2.156793
v -2.598822 0.870602 -2.154852
v -2.580314 0.786799 -2.210974
v -2.104838 0.102976 -3.022218
v -2.394906 0.108580 -3.058095
v -2.402186 3.951344 -0.017029
v -2.692254 3.956949 -0.052905
v -2.433502 3.772961 0.208305
v -2.723571 3.778565 0.172428
v -2.136154 -0.075407 -2.796884
v -2.426222 -0.069803 -2.832761
v -2.219167 0.149527 -3.093143
v -2.266008 -0.117286 -2.756104
v -2.563356 3.731083 0.249086
v -2.516515 3.997895 -0.087954
v -2.338813 3.864524 0.100422
v -2.526519 3.870059 0.074760
v -2.785580 3.873155 0.045164
v -2.488231 0.024786 -2.960025
v -2.229171 0.021692 -2.930429
v -2.041465 0.016156 -2.904768
v -2.304189 2.221519 -1.328476
v -2.395781 2.258812 -1.385296
v -2.536570 2.226008 -1.357218
v -2.611335 2.158879 -1.278652
v -2.561658 2.083101 -1.176697
v -2.433306 2.045061 -1.115285
v -2.329277 2.078612 -1.147956
v -2.253419 2.151964 -1.234384
v -2.471790 2.307739 0.338828
v -2.515785 2.329224 0.287064
v -2.205901 2.179875 0.047179
v -2.240606 2.197822 0.003347
v -2.113891 2.191225 0.142526
v -2.184220 2.298398 0.065329
v -2.378254 2.281744 0.344171
v -2.425140 2.396961 0.304674
v -2.396209 2.190459 0.104969
v -2.428327 2.219971 0.075956
v -2.351757 2.296874 0.122301
v -2.297699 2.180741 0.161456
v -1.867303 2.257458 0.124190
v -1.898782 2.271044 0.074607
v -1.939465 2.343682 0.125147
v -1.874887 2.245788 0.225921
v -1.652586 2.405171 0.356774
v -1.643447 2.430051 0.314752
v -1.780212 2.426004 0.273315
v -1.751616 2.335546 0.363366
v -1.603090 2.511334 0.544891
v -1.607641 2.542465 0.509906
v -1.715763 2.541584 0.453634
v -1.711248 2.429678 0.518473
v -1.709014 2.575296 0.685370
v -1.711691 2.610856 0.650703
v -1.787211 2.587792 0.583639
v -1.809826 2.482130 0.623822
v -1.935030 2.561331 0.704509
v -2.004758 2.577381 0.642116
v -2.017103 2.548905 0.566499
v -1.970437 2.463210 0.621761
v -2.281160 2.344799 0.444416
v -2.330308 2.447361 0.400494
v -2.389162 2.434355 0.453243
v -2.328670 2.417582 0.515092
v -2.126493 2.415825 0.546132
v -2.183797 2.505059 0.494943
v -2.168551 2.529691 0.585386
v -2.090555 2.515679 0.650455
v -2.480250 2.221179 0.208837
v -2.517126 2.247476 0.170712
v -2.434918 2.320708 0.205546
v -2.383733 2.204941 0.244838
v -1.938047 3.643730 -0.906648
v -2.061443 3.817040 -0.706162
v -2.086000 -0.099984 2.238544
v -2.209397 0.073326 2.439031
v -2.347933 -0.172447 2.139969
v -2.471329 0.000863 2.340456
v -2.199980 3.571266 -1.005223
v -2.323376 3.744577 -0.804737
v -1.925092 3.734627 -0.797844
v -2.316874 3.626241 -0.945285
v -2.464827 -0.117473 2.199907
v -2.073045 -0.009087 2.347348
v -2.177933 -0.181450 2.137250
v -2.255131 -0.068326 2.268270
v -2.367990 0.085485 2.446042
v -2.220036 3.829199 -0.699150
v -2.107178 3.675388 -0.876922
v -2.029980 3.562263 -1.007942
v -2.064495 1.572082 0.850910
v -2.054116 1.644902 0.938076
v -2.163350 1.710925 1.011524
v -2.290403 1.720666 1.017142
v -2.373191 1.652873 0.932554
v -2.367982 1.558072 0.819957
v -2.274336 1.514030 0.771939
v -2.138144 1.506818 0.769761
v -2.561318 2.302000 -0.850780
v -2.617064 2.344935 -0.839575
v -2.586226 2.390423 -1.255337
v -2.631663 2.426823 -1.247700
v -2.458432 2.353842 -1.259349
v -2.519697 2.478583 -1.203869
v -2.498960 2.286725 -0.923797
v -2.517891 2.398659 -0.859410
v -2.686170 2.347729 -1.088431
v -2.716948 2.385301 -1.068803
v -2.607676 2.428679 -1.058658
v -2.584052 2.316881 -1.128555
v -2.268109 2.441851 -1.406183
v -2.316121 2.478304 -1.406021
v -2.290893 2.504590 -1.315699
v -2.216541 2.373347 -1.349696
v -1.923024 2.449394 -1.352544
v -1.933211 2.494595 -1.370474
v -2.058710 2.501956 -1.302402
v -2.014407 2.379467 -1.314368
v -1.738541 2.432784 -1.230894
v -1.752342 2.477732 -1.232611
v -1.864877 2.498910 -1.190837
v -1.860396 2.371101 -1.210641
v -1.709666 2.394244 -1.049990
v -1.720425 2.442795 -1.050710
v -1.823231 2.455215 -1.047667
v -1.851129 2.344018 -1.059817
v -1.866974 2.350292 -0.891981
v -1.949605 2.392431 -0.871763
v -2.013500 2.411388 -0.919085
v -1.975336 2.314435 -0.960542
v -2.347129 2.289915 -0.904066
v -2.374617 2.393866 -0.846599
v -2.390091 2.347431 -0.783198
v -2.314734 2.304132 -0.797773
v -2.149935 2.304259 -0.918949
v -2.192189 2.400742 -0.866295
v -2.118592 2.370441 -0.814484
v -2.027666 2.329219 -0.837874
v -2.674553 2.305195 -0.958619
v -2.715333 2.344915 -0.942364
v -2.610106 2.392437 -0.944229
v -2.588362 2.280585 -1.011918
vt 0.912462 0.235046
vt 0.904789 0.237056
vt 0.901841 0.228872
vt 0.909443 0.226752
vt 0.915075 0.243145
vt 0.907690 0.246931
vt 0.897431 0.223705
vt 0.904925 0.221421
vt 0.891258 0.233677
vt 0.889405 0.236178
vt 0.883418 0.224024
vt 0.885497 0.221421
vt 0.896838 0.242827
vt 0.895598 0.246211
vt 0.927192 0.242691
vt 0.920662 0.237241
vt 0.925577 0.227404
vt 0.931302 0.232161
vt 0.921332 0.250667
vt 0.915667 0.244720
vt 0.927266 0.221421
vt 0.933012 0.224377
vt 0.933605 0.223358
vt 0.941099 0.221421
vt 0.942515 0.229904
vt 0.935726 0.232274
vt 0.943455 0.241056
vt 0.937312 0.244255
vt 0.943205 0.252317
vt 0.937459 0.255157
vt 0.952659 0.156881
vt 0.954613 0.160399
vt 0.950463 0.174669
vt 0.948510 0.169938
vt 0.957559 0.152027
vt 0.959688 0.154694
vt 0.957753 0.164911
vt 0.955632 0.173827
vt 0.948706 0.192294
vt 0.946613 0.186540
vt 0.962271 0.160448
vt 0.954046 0.185808
vt 0.948679 0.202474
vt 0.946607 0.197249
vt 0.953899 0.196710
vt 0.955588 0.205149
vt 0.951823 0.213483
vt 0.883181 0.161852
vt 0.883378 0.155268
vt 0.893990 0.162924
vt 0.891279 0.170689
vt 0.874887 0.160448
vt 0.873901 0.154694
vt 0.884459 0.153171
vt 0.895801 0.160070
vt 0.902328 0.183511
vt 0.895268 0.186120
vt 0.875363 0.152027
vt 0.904579 0.180579
vt 0.896844 0.203686
vt 0.891925 0.197895
vt 0.900228 0.203200
vt 0.887694 0.213548
vt 0.884446 0.206098
vt 0.875437 0.213483
vt 0.874609 0.205149
vt 0.934395 0.152027
vt 0.932751 0.158308
vt 0.924567 0.159577
vt 0.925299 0.153171
vt 0.940928 0.156881
vt 0.937918 0.162973
vt 0.914693 0.166283
vt 0.913957 0.160070
vt 0.945833 0.169938
vt 0.940074 0.171456
vt 0.909070 0.181138
vt 0.905179 0.180579
vt 0.945195 0.186540
vt 0.940156 0.182609
vt 0.918479 0.170689
vt 0.914490 0.186120
vt 0.911886 0.194955
vt 0.909530 0.203200
vt 0.942307 0.197249
vt 0.938177 0.193870
vt 0.917833 0.197895
vt 0.919863 0.205465
vt 0.919563 0.212679
vt 0.931717 0.212783
vt 0.930392 0.206559
vt 0.934320 0.213483
vt 0.944022 0.202474
vt 0.898827 0.732532
vt 0.901203 0.575939
vt 0.911888 0.576063
vt 0.911977 0.732590
vt 0.805825 0.674788
vt 0.819321 0.689992
vt 0.833205 0.672230
vt 0.819468 0.667947
vt 0.930981 0.576291
vt 0.941566 0.576421
vt 0.948688 0.731706
vt 0.935544 0.732186
vt 0.831690 0.609198
vt 0.825051 0.627025
vt 0.811390 0.617616
vt 0.820601 0.610125
vt 0.923367 0.732503
vt 0.921130 0.576172
vt 0.873846 0.575632
vt 0.883689 0.575740
vt 0.877261 0.731907
vt 0.865099 0.731255
vt 0.810877 0.626808
vt 0.815390 0.638394
vt 0.854932 0.730615
vt 0.865652 0.575543
vt 0.808895 0.702563
vt 0.803685 0.687641
vt 0.892928 0.575844
vt 0.888645 0.732291
vt 0.821841 0.706044
vt 0.832983 0.702315
vt 0.837625 0.686351
vt 0.840918 0.636648
vt 0.845467 0.618580
vt 0.828329 0.641251
vt 0.892737 0.379385
vt 0.902972 0.379411
vt 0.916184 0.379650
vt 0.927626 0.379970
vt 0.939856 0.380494
vt 0.953059 0.381173
vt 0.858670 0.380061
vt 0.868907 0.379746
vt 0.881150 0.379461
vt 0.883378 0.155268
vt 0.884459 0.153171
vt 0.895801 0.160070
vt 0.893990 0.162924
vt 0.915075 0.243145
vt 0.907690 0.246931
vt 0.904789 0.237056
vt 0.912462 0.235046
vt 0.925299 0.153171
vt 0.924567 0.159577
vt 0.914693 0.166283
vt 0.913957 0.160070
vt 0.883181 0.161852
vt 0.891279 0.170689
vt 0.873901 0.154694
vt 0.875363 0.152027
vt 0.934395 0.152027
vt 0.932751 0.158308
vt 0.901841 0.228872
vt 0.909443 0.226752
vt 0.874887 0.160448
vt 0.904579 0.180579
vt 0.902328 0.183511
vt 0.909070 0.181138
vt 0.905179 0.180579
vt 0.918479 0.170689
vt 0.914490 0.186120
vt 0.895268 0.186120
vt 0.900228 0.203200
vt 0.896844 0.203686
vt 0.911886 0.194955
vt 0.909530 0.203200
vt 0.917833 0.197895
vt 0.891925 0.197895
vt 0.896838 0.242827
vt 0.895598 0.246211
vt 0.889405 0.236178
vt 0.891258 0.233677
vt 0.919863 0.205465
vt 0.919563 0.212679
vt 0.921332 0.250667
vt 0.915667 0.244720
vt 0.920662 0.237241
vt 0.927192 0.242691
vt 0.887694 0.213548
vt 0.884446 0.206098
vt 0.883418 0.224024
vt 0.885497 0.221421
vt 0.930392 0.206559
vt 0.931717 0.212783
vt 0.925577 0.227404
vt 0.931302 0.232161
vt 0.875437 0.213483
vt 0.874609 0.205149
vt 0.934320 0.213483
vt 0.942307 0.197249
vt 0.944022 0.202474
vt 0.938177 0.193870
vt 0.927266 0.221421
vt 0.933012 0.224377
vt 0.955588 0.205149
vt 0.951823 0.213483
vt 0.948679 0.202474
vt 0.953899 0.196710
vt 0.933605 0.223358
vt 0.941099 0.221421
vt 0.942515 0.229904
vt 0.935726 0.232274
vt 0.937918 0.162973
vt 0.940928 0.156881
vt 0.945833 0.169938
vt 0.940074 0.171456
vt 0.952659 0.156881
vt 0.954613 0.160399
vt 0.950463 0.174669
vt 0.948510 0.169938
vt 0.957753 0.164911
vt 0.955632 0.173827
vt 0.943455 0.241056
vt 0.937312 0.244255
vt 0.945195 0.186540
vt 0.940156 0.182609
vt 0.948706 0.192294
vt 0.946613 0.186540
vt 0.954046 0.185808
vt 0.943205 0.252317
vt 0.937459 0.255157
vt 0.946607 0.197249
vt 0.957559 0.152027
vt 0.959688 0.154694
vt 0.897431 0.223705
vt 0.904925 0.221421
vt 0.962271 0.160448
vt 0.427517 0.587405
vt 0.359337 0.587405
vt 0.360662 0.525246
vt 0.430099 0.525246
vt 0.120898 0.819412
vt 0.122222 0.881571
vt 0.054042 0.881571
vt 0.051460 0.819412
vt 0.703184 0.897319
vt 0.700827 0.893380
vt 0.764220 0.863250
vt 0.766578 0.867189
vt 0.873637 0.828803
vt 0.875995 0.824864
vt 0.939388 0.854994
vt 0.937031 0.858933
vt 0.028997 0.881571
vt 0.018199 0.881571
vt 0.018199 0.819412
vt 0.028997 0.819412
vt 0.766021 0.858071
vt 0.770610 0.857949
vt 0.222942 0.522235
vt 0.228994 0.522235
vt 0.228994 0.584394
vt 0.222942 0.584394
vt 0.943420 0.864234
vt 0.938831 0.864112
vt 0.037923 0.881571
vt 0.037923 0.819412
vt 0.763097 0.853331
vt 0.766554 0.850311
vt 0.217402 0.522235
vt 0.217402 0.584394
vt 0.939365 0.871872
vt 0.935907 0.868853
vt 0.382381 0.813550
vt 0.383210 0.875709
vt 0.340485 0.875709
vt 0.339029 0.813550
vt 0.696262 0.812612
vt 0.692805 0.815632
vt 0.653729 0.788781
vt 0.657187 0.785762
vt 0.081700 0.584394
vt 0.082529 0.522235
vt 0.125881 0.522235
vt 0.124425 0.584394
vt 0.865615 0.906551
vt 0.869073 0.909571
vt 0.829997 0.936421
vt 0.826540 0.933402
vt 0.120898 0.938970
vt 0.051460 0.938970
vt 0.228994 0.641793
vt 0.222942 0.641793
vt 0.217402 0.641793
vt 0.082529 0.641793
vt 0.125881 0.641793
vt 0.382381 0.933108
vt 0.339029 0.933108
vt 0.037923 0.938970
vt 0.028997 0.938970
vt 0.018199 0.938970
vt 0.430099 0.644804
vt 0.360662 0.644804
vt 0.365556 0.459609
vt 0.439641 0.459609
vt 0.018199 0.753776
vt 0.028997 0.753776
vt 0.037923 0.753776
vt 0.379315 0.747913
vt 0.333650 0.747913
vt 0.131260 0.456599
vt 0.085594 0.456599
vt 0.222942 0.456599
vt 0.217402 0.456599
vt 0.228994 0.456599
vt 0.116003 0.753776
vt 0.041919 0.753776
vt 0.041919 0.995345
vt 0.116003 0.995345
vt 0.228994 0.698168
vt 0.222942 0.698168
vt 0.217402 0.698168
vt 0.085594 0.698168
vt 0.131260 0.698168
vt 0.333650 0.989483
vt 0.379315 0.989483
vt 0.028997 0.995345
vt 0.037923 0.995345
vt 0.018199 0.995345
vt 0.365556 0.701179
vt 0.439641 0.701179
vt 0.298182 0.701179
vt 0.295883 0.644804
vt 0.295260 0.587405
vt 0.295883 0.525246
vt 0.298182 0.459609
vt 0.645533 0.939288
vt 0.643175 0.935349
vt 0.183377 0.753776
vt 0.185677 0.819412
vt 0.186299 0.881571
vt 0.185677 0.938970
vt 0.183377 0.995345
vt 0.815986 0.786834
vt 0.818343 0.782896
vt 0.251504 0.989483
vt 0.261045 0.933108
vt 0.263627 0.875709
vt 0.261045 0.813550
vt 0.251504 0.747913
vt 0.213406 0.456599
vt 0.203864 0.522235
vt 0.201282 0.584394
vt 0.203864 0.641793
vt 0.213406 0.698168
vt 0.251706 0.701179
vt 0.251706 0.644804
vt 0.251706 0.587405
vt 0.251706 0.525246
vt 0.251706 0.459609
vt 0.605763 0.980802
vt 0.603406 0.976863
vt 0.229854 0.819412
vt 0.229854 0.753776
vt 0.229854 0.881571
vt 0.229854 0.938970
vt 0.229854 0.995345
vt 0.776216 0.745320
vt 0.778573 0.741381
vt 0.439814 0.933108
vt 0.439814 0.875709
vt 0.439814 0.989483
vt 0.778229 0.980802
vt 0.774772 0.977782
vt 0.025096 0.641793
vt 0.025096 0.698168
vt 0.025096 0.584394
vt 0.025096 0.522235
vt 0.025096 0.456599
vt 0.601961 0.744401
vt 0.605419 0.741381
vt 0.439814 0.813550
vt 0.439814 0.747913
vt 0.898827 0.732532
vt 0.901203 0.575939
vt 0.911889 0.576063
vt 0.911977 0.732590
vt 0.805825 0.674788
vt 0.819321 0.689992
vt 0.833205 0.672230
vt 0.819468 0.667947
vt 0.930981 0.576291
vt 0.941566 0.576421
vt 0.948688 0.731706
vt 0.935544 0.732186
vt 0.831690 0.609198
vt 0.825051 0.627025
vt 0.811390 0.617616
vt 0.820601 0.610125
vt 0.923367 0.732503
vt 0.921130 0.576173
vt 0.873846 0.575632
vt 0.883689 0.575740
vt 0.877262 0.731907
vt 0.865099 0.731255
vt 0.810877 0.626808
vt 0.815390 0.638394
vt 0.854932 0.730615
vt 0.865652 0.575543
vt 0.808895 0.702563
vt 0.803685 0.687641
vt 0.892928 0.575844
vt 0.888645 0.732291
vt 0.821841 0.706044
vt 0.832983 0.702315
vt 0.837625 0.686351
vt 0.840919 0.636648
vt 0.845467 0.618580
vt 0.828329 0.641251
vt 0.892737 0.379385
vt 0.902972 0.379411
vt 0.916184 0.379650
vt 0.927626 0.379970
vt 0.939856 0.380494
vt 0.953059 0.381173
vt 0.858670 0.380061
vt 0.868907 0.379746
vt 0.881150 0.379461
vt 0.883378 0.155268
vt 0.884459 0.153171
vt 0.895801 0.160070
vt 0.893990 0.162924
vt 0.915075 0.243145
vt 0.907690 0.246931
vt 0.904788 0.237056
vt 0.912462 0.235046
vt 0.925299 0.153171
vt 0.924567 0.159577
vt 0.914693 0.166283
vt 0.913957 0.160070
vt 0.883181 0.161852
vt 0.891279 0.170689
vt 0.873901 0.154694
vt 0.875363 0.152027
vt 0.934395 0.152027
vt 0.932751 0.158308
vt 0.901841 0.228872
vt 0.909443 0.226752
vt 0.874887 0.160448
vt 0.904578 0.180579
vt 0.902328 0.183511
vt 0.909069 0.181139
vt 0.905179 0.180579
vt 0.918478 0.170689
vt 0.914490 0.186120
vt 0.895268 0.186120
vt 0.900228 0.203200
vt 0.896844 0.203686
vt 0.911886 0.194955
vt 0.909530 0.203200
vt 0.917833 0.197895
vt 0.891925 0.197895
vt 0.896838 0.242827
vt 0.895598 0.246211
vt 0.889405 0.236178
vt 0.891257 0.233677
vt 0.919863 0.205465
vt 0.919563 0.212679
vt 0.921332 0.250667
vt 0.915667 0.244720
vt 0.920661 0.237241
vt 0.927192 0.242691
vt 0.887694 0.213548
vt 0.884446 0.206098
vt 0.883418 0.224024
vt 0.885497 0.221421
vt 0.930392 0.206559
vt 0.931717 0.212783
vt 0.925577 0.227404
vt 0.931302 0.232161
vt 0.875437 0.213483
vt 0.874609 0.205149
vt 0.934320 0.213483
vt 0.942307 0.197249
vt 0.944022 0.202474
vt 0.938177 0.193870
vt 0.927266 0.221421
vt 0.933012 0.224377
vt 0.955588 0.205149
vt 0.951823 0.213483
vt 0.948679 0.202474
vt 0.953899 0.196710
vt 0.933605 0.223358
vt 0.941099 0.221421
vt 0.942515 0.229904
vt 0.935726 0.232274
vt 0.937919 0.162973
vt 0.940927 0.156881
vt 0.945833 0.169938
vt 0.940074 0.171456
vt 0.952659 0.156881
vt 0.954613 0.160399
vt 0.950463 0.174669
vt 0.948510 0.169938
vt 0.957753 0.164911
vt 0.955632 0.173827
vt 0.943455 0.241056
vt 0.937312 0.244255
vt 0.945195 0.186540
vt 0.940156 0.182609
vt 0.948706 0.192294
vt 0.946613 0.186540
vt 0.954046 0.185808
vt 0.943205 0.252317
vt 0.937459 0.255157
vt 0.946607 0.197249
vt 0.957559 0.152027
vt 0.959688 0.154694
vt 0.897431 0.223705
vt 0.904925 0.221421
vt 0.962271 0.160448
vt 0.883378 0.155268
vt 0.884459 0.153171
vt 0.895801 0.160070
vt 0.893990 0.162924
vt 0.915075 0.243145
vt 0.907690 0.246931
vt 0.904789 0.237056
vt 0.912462 0.235046
vt 0.925299 0.153171
vt 0.924567 0.159577
vt 0.914693 0.166283
vt 0.913957 0.160070
vt 0.883181 0.161852
vt 0.891279 0.170689
vt 0.873901 0.154694
vt 0.875363 0.152027
vt 0.934395 0.152027
vt 0.932751 0.158308
vt 0.901841 0.228872
vt 0.909443 0.226752
vt 0.874887 0.160448
vt 0.904579 0.180579
vt 0.902328 0.183511
vt 0.909070 0.181138
vt 0.905179 0.180579
vt 0.918479 0.170689
vt 0.914490 0.186120
vt 0.895268 0.186120
vt 0.900228 0.203200
vt 0.896844 0.203686
vt 0.911886 0.194955
vt 0.909530 0.203200
vt 0.917833 0.197895
vt 0.891925 0.197895
vt 0.896838 0.242827
vt 0.895598 0.246211
vt 0.889405 0.236178
vt 0.891258 0.233677
vt 0.919863 0.205465
vt 0.919563 0.212679
vt 0.921332 0.250667
vt 0.915667 0.244720
vt 0.920662 0.237241
vt 0.927192 0.242691
vt 0.887694 0.213548
vt 0.884446 0.206098
vt 0.883418 0.224024
vt 0.885497 0.221421
vt 0.930392 0.206559
vt 0.931717 0.212783
vt 0.925577 0.227404
vt 0.931302 0.232161
vt 0.875437 0.213483
vt 0.874609 0.205149
vt 0.934320 0.213483
vt 0.942307 0.197249
vt 0.944022 0.202474
vt 0.938177 0.193870
vt 0.927266 0.221421
vt 0.933012 0.224377
vt 0.955588 0.205149
vt 0.951823 0.213483
vt 0.948679 0.202474
vt 0.953899 0.196710
vt 0.933605 0.223358
vt 0.941099 0.221421
vt 0.942515 0.229904
vt 0.935726 0.232274
vt 0.937918 0.162973
vt 0.940928 0.156881
vt 0.945833 0.169938
vt 0.940074 0.171456
vt 0.952659 0.156881
vt 0.954613 0.160399
vt 0.950463 0.174669
vt 0.948510 0.169938
vt 0.957753 0.164911
vt 0.955632 0.173827
vt 0.943455 0.241056
vt 0.937312 0.244255
vt 0.945195 0.186540
vt 0.940156 0.182609
vt 0.948706 0.192294
vt 0.946613 0.186540
vt 0.954046 0.185808
vt 0.943205 0.252317
vt 0.937459 0.255157
vt 0.946607 0.197249
vt 0.957559 0.152027
vt 0.959688 0.154694
vt 0.897431 0.223705
vt 0.904925 0.221421
vt 0.962271 0.160448
vt 0.883378 0.155268
vt 0.884459 0.153171
vt 0.895801 0.160070
vt 0.893990 0.162924
vt 0.915075 0.243145
vt 0.907690 0.246931
vt 0.904789 0.237056
vt 0.912462 0.235046
vt 0.925299 0.153171
vt 0.924567 0.159577
vt 0.914693 0.166283
vt 0.913957 0.160070
vt 0.883181 0.161852
vt 0.891279 0.170689
vt 0.873901 0.154694
vt 0.875363 0.152027
vt 0.934395 0.152027
vt 0.932751 0.158308
vt 0.901841 0.228872
vt 0.909443 0.226752
vt 0.874887 0.160448
vt 0.904579 0.180579
vt 0.902328 0.183511
vt 0.909070 0.181138
vt 0.905179 0.180579
vt 0.918479 0.170689
vt 0.914490 0.186120
vt 0.895268 0.186120
vt 0.900228 0.203200
vt 0.896844 0.203686
vt 0.911886 0.194955
vt 0.909530 0.203200
vt 0.917833 0.197895
vt 0.891925 0.197895
vt 0.896838 0.242827
vt 0.895598 0.246211
vt 0.889405 0.236178
vt 0.891258 0.233677
vt 0.919863 0.205465
vt 0.919563 0.212679
vt 0.921332 0.250667
vt 0.915667 0.244720
vt 0.920662 0.237241
vt 0.927192 0.242691
vt 0.887694 0.213548
vt 0.884446 0.206098
vt 0.883418 0.224024
vt 0.885497 0.221421
vt 0.930392 0.206559
vt 0.931717 0.212783
vt 0.925577 0.227404
vt 0.931302 0.232161
vt 0.875437 0.213483
vt 0.874609 0.205149
vt 0.934320 0.213483
vt 0.942307 0.197249
vt 0.944022 0.202474
vt 0.938177 0.193870
vt 0.927266 0.221421
vt 0.933012 0.224377
vt 0.955588 0.205149
vt 0.951823 0.213483
vt 0.948679 0.202474
vt 0.953899 0.196710
vt 0.933605 0.223358
vt 0.941099 0.221421
vt 0.942515 0.229904
vt 0.935726 0.232274
vt 0.937918 0.162973
vt 0.940928 0.156881
vt 0.945833 0.169938
vt 0.940074 0.171456
vt 0.952659 0.156881
vt 0.954613 0.160399
vt 0.950463 0.174669
vt 0.948510 0.169938
vt 0.957753 0.164911
vt 0.955632 0.173827
vt 0.943455 0.241056
vt 0.937312 0.244255
vt 0.945195 0.186540
vt 0.940156 0.182609
vt 0.948706 0.192294
vt 0.946613 0.186540
vt 0.954046 0.185808
vt 0.943205 0.252317
vt 0.937459 0.255157
vt 0.946607 0.197249
vt 0.957559 0.152027
vt 0.959688 0.154694
vt 0.897431 0.223705
vt 0.904925 0.221421
vt 0.962271 0.160448
vt 0.898827 0.732532
vt 0.901203 0.575939
vt 0.911888 0.576063
vt 0.911977 0.732590
vt 0.805825 0.674788
vt 0.819321 0.689992
vt 0.833205 0.672230
vt 0.819468 0.667947
vt 0.930981 0.576291
vt 0.941566 0.576421
vt 0.948688 0.731706
vt 0.935544 0.732186
vt 0.831690 0.609198
vt 0.825051 0.627025
vt 0.811390 0.617616
vt 0.820601 0.610125
vt 0.923367 0.732503
vt 0.921130 0.576172
vt 0.873846 0.575632
vt 0.883689 0.575740
vt 0.877261 0.731907
vt 0.865099 0.731255
vt 0.810877 0.626808
vt 0.815390 0.638394
vt 0.854932 0.730615
vt 0.865652 0.575543
vt 0.808895 0.702563
vt 0.803685 0.687641
vt 0.892928 0.575844
vt 0.888645 0.732291
vt 0.821841 0.706044
vt 0.832983 0.702315
vt 0.837625 0.686351
vt 0.840918 0.636648
vt 0.845467 0.618580
vt 0.828329 0.641251
vt 0.892737 0.379385
vt 0.902972 0.379411
vt 0.916184 0.379650
vt 0.927626 0.379970
vt 0.939856 0.380494
vt 0.953059 0.381173
vt 0.858670 0.380061
vt 0.868907 0.379746
vt 0.881150 0.379461
vt 0.883378 0.155268
vt 0.884459 0.153171
vt 0.895801 0.160070
vt 0.893990 0.162924
vt 0.915075 0.243145
vt 0.907690 0.246931
vt 0.904789 0.237056
vt 0.912462 0.235046
vt 0.925299 0.153171
vt 0.924567 0.159577
vt 0.914693 0.166283
vt 0.913957 0.160070
vt 0.883181 0.161852
vt 0.891279 0.170689
vt 0.873901 0.154694
vt 0.875363 0.152027
vt 0.934395 0.152027
vt 0.932751 0.158308
vt 0.901841 0.228872
vt 0.909443 0.226752
vt 0.874887 0.160448
vt 0.904579 0.180579
vt 0.902328 0.183511
vt 0.909070 0.181138
vt 0.905179 0.180579
vt 0.918479 0.170689
vt 0.914490 0.186120
vt 0.895268 0.186120
vt 0.900228 0.203200
vt 0.896844 0.203686
vt 0.911886 0.194955
vt 0.909530 0.203200
vt 0.917833 0.197895
vt 0.891925 0.197895
vt 0.896838 0.242827
vt 0.895598 0.246211
vt 0.889405 0.236178
vt 0.891258 0.233677
vt 0.919863 0.205465
vt 0.919563 0.212679
vt 0.921332 0.250667
vt 0.915667 0.244720
vt 0.920662 0.237241
vt 0.927192 0.242691
vt 0.887694 0.213548
vt 0.884446 0.206098
vt 0.883418 0.224024
vt 0.885497 0.221421
vt 0.930392 0.206559
vt 0.931717 0.212783
vt 0.925577 0.227404
vt 0.931302 0.232161
vt 0.875437 0.213483
vt 0.874609 0.205149
vt 0.934320 0.213483
vt 0.942307 0.197249
vt 0.944022 0.202474
vt 0.938177 0.193870
vt 0.927266 0.221421
vt 0.933012 0.224377
vt 0.955588 0.205149
vt 0.951823 0.213483
vt 0.948679 0.202474
vt 0.953899 0.196710
vt 0.933605 0.223358
vt 0.941099 0.221421
vt 0.942515 0.229904
vt 0.935726 0.232274
vt 0.937918 0.162973
vt 0.940928 0.156881
vt 0.945833 0.169938
vt 0.940074 0.171456
vt 0.952659 0.156881
vt 0.954613 0.160399
vt 0.950463 0.174669
vt 0.948510 0.169938
vt 0.957753 0.164911
vt 0.955632 0.173827
vt 0.943455 0.241056
vt 0.937312 0.244255
vt 0.945195 0.186540
vt 0.940156 0.182609
vt 0.948706 0.192294
vt 0.946613 0.186540
vt 0.954046 0.185808
vt 0.943205 0.252317
vt 0.937459 0.255157
vt 0.946607 0.197249
vt 0.957559 0.152027
vt 0.959688 0.154694
vt 0.897431 0.223705
vt 0.904925 0.221421
vt 0.962271 0.160448
vt 0.898827 0.732532
vt 0.901203 0.575939
vt 0.911889 0.576063
vt 0.911977 0.732590
vt 0.805825 0.674788
vt 0.819321 0.689992
vt 0.833205 0.672230
vt 0.819468 0.667947
vt 0.930981 0.576291
vt 0.941566 0.576421
vt 0.948688 0.731706
vt 0.935544 0.732186
vt 0.831690 0.609198
vt 0.825051 0.627025
vt 0.811390 0.617616
vt 0.820601 0.610125
vt 0.923367 0.732503
vt 0.921130 0.576173
vt 0.873846 0.575632
vt 0.883689 0.575740
vt 0.877262 0.731907
vt 0.865099 0.731255
vt 0.810877 0.626808
vt 0.815390 0.638394
vt 0.854932 0.730615
vt 0.865652 0.575543
vt 0.808895 0.702563
vt 0.803685 0.687641
vt 0.892928 0.575844
vt 0.888645 0.732291
vt 0.821841 0.706044
vt 0.832983 0.702315
vt 0.837625 0.686351
vt 0.840919 0.636648
vt 0.845467 0.618580
vt 0.828329 0.641251
vt 0.892737 0.379385
vt 0.902972 0.379411
vt 0.916184 0.379650
vt 0.927626 0.379970
vt 0.939856 0.380494
vt 0.953059 0.381173
vt 0.858670 0.380061
vt 0.868907 0.379746
vt 0.881150 0.379461
vt 0.883378 0.155268
vt 0.884459 0.153171
vt 0.895801 0.160070
vt 0.893990 0.162924
vt 0.915075 0.243145
vt 0.907690 0.246931
vt 0.904789 0.237056
vt 0.912462 0.235046
vt 0.925299 0.153171
vt 0.924567 0.159577
vt 0.914693 0.166283
vt 0.913957 0.160070
vt 0.883181 0.161852
vt 0.891279 0.170689
vt 0.873901 0.154694
vt 0.875363 0.152027
vt 0.934395 0.152027
vt 0.932751 0.158308
vt 0.901841 0.228872
vt 0.909443 0.226752
vt 0.874887 0.160448
vt 0.904579 0.180579
vt 0.902328 0.183511
vt 0.909070 0.181138
vt 0.905179 0.180579
vt 0.918479 0.170689
vt 0.914490 0.186120
vt 0.895268 0.186120
vt 0.900228 0.203200
vt 0.896844 0.203686
vt 0.911886 0.194955
vt 0.909530 0.203200
vt 0.917833 0.197895
vt 0.891925 0.197895
vt 0.896838 0.242827
vt 0.895598 0.246211
vt 0.889405 0.236178
vt 0.891258 0.233677
vt 0.919863 0.205465
vt 0.919563 0.212679
vt 0.921332 0.250667
vt 0.915667 0.244720
vt 0.920662 0.237241
vt 0.927192 0.242691
vt 0.887694 0.213548
vt 0.884446 0.206098
vt 0.883418 0.224024
vt 0.885497 0.221421
vt 0.930392 0.206559
vt 0.931717 0.212783
vt 0.925577 0.227404
vt 0.931302 0.232161
vt 0.875437 0.213483
vt 0.874609 0.205149
vt 0.934320 0.213483
vt 0.942307 0.197249
vt 0.944022 0.202474
vt 0.938177 0.193870
vt 0.927266 0.221421
vt 0.933012 0.224377
vt 0.955588 0.205149
vt 0.951823 0.213483
vt 0.948679 0.202474
vt 0.953899 0.196710
vt 0.933605 0.223358
vt 0.941099 0.221421
vt 0.942515 0.229904
vt 0.935726 0.232274
vt 0.937918 0.162973
vt 0.940928 0.156881
vt 0.945833 0.169938
vt 0.940074 0.171456
vt 0.952659 0.156881
vt 0.954613 0.160399
vt 0.950463 0.174669
vt 0.948510 0.169938
vt 0.957753 0.164911
vt 0.955632 0.173827
vt 0.943455 0.241056
vt 0.937312 0.244255
vt 0.945195 0.186540
vt 0.940156 0.182609
vt 0.948706 0.192294
vt 0.946613 0.186540
vt 0.954046 0.185808
vt 0.943205 0.252317
vt 0.937459 0.255157
vt 0.946607 0.197249
vt 0.957559 0.152027
vt 0.959688 0.154694
vt 0.897431 0.223705
vt 0.904925 0.221421
vt 0.962271 0.160448
vt 0.898827 0.732532
vt 0.901203 0.575939
vt 0.911889 0.576063
vt 0.911977 0.732590
vt 0.805825 0.674788
vt 0.819321 0.689992
vt 0.833205 0.672230
vt 0.819468 0.667947
vt 0.930981 0.576291
vt 0.941566 0.576421
vt 0.948688 0.731706
vt 0.935544 0.732186
vt 0.831690 0.609198
vt 0.825051 0.627025
vt 0.811390 0.617616
vt 0.820601 0.610125
vt 0.923367 0.732503
vt 0.921130 0.576173
vt 0.873846 0.575632
vt 0.883689 0.575740
vt 0.877262 0.731907
vt 0.865099 0.731255
vt 0.810877 0.626808
vt 0.815390 0.638394
vt 0.854932 0.730615
vt 0.865652 0.575543
vt 0.808895 0.702563
vt 0.803685 0.687641
vt 0.892928 0.575844
vt 0.888645 0.732291
vt 0.821841 0.706044
vt 0.832983 0.702315
vt 0.837625 0.686351
vt 0.840919 0.636648
vt 0.845467 0.618580
vt 0.828329 0.641251
vt 0.892737 0.379385
vt 0.902972 0.379411
vt 0.916184 0.379650
vt 0.927626 0.379970
vt 0.939856 0.380494
vt 0.953059 0.381173
vt 0.858670 0.380061
vt 0.868907 0.379746
vt 0.881150 0.379461
vt 0.883378 0.155268
vt 0.884459 0.153171
vt 0.895801 0.160070
vt 0.893990 0.162924
vt 0.915075 0.243145
vt 0.907690 0.246931
vt 0.904789 0.237056
vt 0.912462 0.235046
vt 0.925299 0.153171
vt 0.924567 0.159577
vt 0.914693 0.166283
vt 0.913957 0.160070
vt 0.883181 0.161852
vt 0.891279 0.170689
vt 0.873901 0.154694
vt 0.875363 0.152027
vt 0.934395 0.152027
vt 0.932751 0.158308
vt 0.901841 0.228872
vt 0.909443 0.226752
vt 0.874887 0.160448
vt 0.904579 0.180579
vt 0.902328 0.183511
vt 0.909070 0.181138
vt 0.905179 0.180579
vt 0.918479 0.170689
vt 0.914490 0.186120
vt 0.895268 0.186120
vt 0.900228 0.203200
vt 0.896844 0.203686
vt 0.911886 0.194955
vt 0.909530 0.203200
vt 0.917833 0.197895
vt 0.891925 0.197895
vt 0.896838 0.242827
vt 0.895598 0.246211
vt 0.889405 0.236178
vt 0.891258 0.233677
vt 0.919863 0.205465
vt 0.919563 0.212679
vt 0.921332 0.250667
vt 0.915667 0.244720
vt 0.920662 0.237241
vt 0.927192 0.242691
vt 0.887694 0.213548
vt 0.884446 0.206098
vt 0.883418 0.224024
vt 0.885497 0.221421
vt 0.930392 0.206559
vt 0.931717 0.212783
vt 0.925577 0.227404
vt 0.931302 0.232161
vt 0.875437 0.213483
vt 0.874609 0.205149
vt 0.934320 0.213483
vt 0.942307 0.197249
vt 0.944022 0.202474
vt 0.938177 0.193870
vt 0.927266 0.221421
vt 0.933012 0.224377
vt 0.955588 0.205149
vt 0.951823 0.213483
vt 0.948679 0.202474
vt 0.953899 0.196710
vt 0.933605 0.223358
vt 0.941099 0.221421
vt 0.942515 0.229904
vt 0.935726 0.232274
vt 0.937918 0.162973
vt 0.940928 0.156881
vt 0.945833 0.169938
vt 0.940074 0.171456
vt 0.952659 0.156881
vt 0.954613 0.160399
vt 0.950463 0.174669
vt 0.948510 0.169938
vt 0.957753 0.164911
vt 0.955632 0.173827
vt 0.943455 0.241056
vt 0.937312 0.244255
vt 0.945195 0.186540
vt 0.940156 0.182609
vt 0.948706 0.192294
vt 0.946613 0.186540
vt 0.954046 0.185808
vt 0.943205 0.252317
vt 0.937459 0.255157
vt 0.946607 0.197249
vt 0.957559 0.152027
vt 0.959688 0.154694
vt 0.897431 0.223705
vt 0.904925 0.221421
vt 0.962271 0.160448
vn 0.522166 -0.817057 -0.244461
vn 0.707254 0.326590 0.627002
vn 0.480355 0.047305 0.875798
vn 0.294850 -0.955522 0.006397
vn -0.248673 -0.263426 -0.932078
vn -0.191201 0.921964 0.336786
vn -0.322655 0.873696 0.364072
vn -0.483536 -0.423940 -0.765812
vn 0.521174 -0.550825 -0.651896
vn 0.852546 0.487927 0.187333
vn -0.321983 0.643077 0.694822
vn -0.561455 -0.671802 -0.483167
vn 0.082187 -0.149258 0.985377
vn -0.072264 -0.981163 0.179156
vn -0.038829 0.986414 0.159623
vn 0.015022 -0.337147 -0.941332
vn -0.351555 0.112361 0.929400
vn -0.429509 -0.901674 0.050055
vn 0.278086 0.941743 0.189180
vn 0.291327 -0.450836 -0.843727
vn -0.564533 0.435504 0.701169
vn -0.642191 -0.694025 -0.325453
vn 0.378995 0.813947 0.440287
vn 0.296773 -0.621959 -0.724633
vn -0.487020 0.833047 0.262381
vn -0.649978 -0.202778 -0.732400
vn 0.334650 0.625788 0.704556
vn 0.227185 -0.871608 -0.434382
vn -0.146257 0.985333 0.087912
vn -0.378829 0.073498 -0.922544
vn 0.138839 0.183924 0.973086
vn 0.166444 -0.972311 -0.164036
vn -0.401624 -0.908313 -0.116898
vn -0.193635 0.535717 0.821896
vn -0.105779 0.360541 0.926726
vn -0.111636 -0.993449 -0.024434
vn 0.663269 0.718907 -0.207960
vn 0.275856 0.875987 -0.395665
vn 0.335235 -0.194924 -0.921749
vn 0.090935 -0.080326 -0.992612
vn -0.027681 0.262921 0.964420
vn -0.004435 -0.991899 -0.126950
vn 0.015353 0.979580 -0.200470
vn -0.051832 -0.059409 -0.996887
vn -0.009255 0.662083 0.749374
vn -0.013457 0.620160 0.784360
vn 0.632569 0.433693 0.641690
vn 0.636937 0.486970 0.597639
vn 0.019320 -0.566020 -0.824165
vn 0.089516 0.782020 -0.616792
vn 0.999722 -0.005365 0.022949
vn 0.680280 -0.440330 -0.585942
vn 0.674710 -0.503150 -0.540005
vn 0.014211 -0.620224 -0.784296
vn 0.989188 -0.105584 0.101781
vn -0.089516 -0.782020 0.616792
vn 0.008572 -0.661376 -0.750005
vn 0.668400 -0.550594 -0.500087
vn 0.995899 -0.062193 0.065701
vn -0.727914 -0.371318 -0.576424
vn -0.995880 0.061216 -0.066899
vn -0.991111 0.095937 -0.092172
vn -0.721641 -0.323049 -0.612269
vn -0.731801 -0.408316 -0.545660
vn -0.998390 0.035183 -0.044485
vn -0.727233 0.474450 0.496013
vn -0.721192 0.515294 0.462984
vn -0.017992 0.585473 0.810492
vn 0.626374 0.389962 0.674971
vn -0.730100 0.441188 0.521830
vn 0.494580 -0.776309 0.390813
vn 0.824756 0.562709 -0.055999
vn 0.694505 0.624665 0.357011
vn 0.354246 -0.627026 0.693792
vn -0.471594 -0.839623 -0.269504
vn -0.159513 0.854677 -0.494048
vn -0.274824 0.869092 -0.411280
vn -0.640442 -0.767995 0.004230
vn 0.364113 -0.929890 -0.052216
vn 0.833632 0.295162 -0.466837
vn -0.167988 0.984971 -0.040149
vn -0.620809 -0.686343 0.378853
vn 0.356176 0.658559 0.662901
vn 0.050389 -0.445560 0.893833
vn -0.065821 0.730376 -0.679867
vn -0.215588 -0.937036 -0.274746
vn -0.094371 0.848998 0.519900
vn -0.333252 -0.435733 0.836110
vn 0.249656 0.671544 -0.697639
vn 0.084320 -0.978134 -0.190118
vn -0.384030 0.905388 0.181092
vn -0.654054 -0.563762 0.504366
vn 0.423716 0.770999 -0.475422
vn 0.134189 -0.990883 0.011991
vn -0.457155 0.793871 -0.400972
vn -0.807270 -0.578922 -0.114737
vn 0.466275 0.868945 -0.165897
vn 0.164010 -0.905861 0.390533
vn -0.188264 0.692650 -0.696270
vn -0.618458 -0.604885 -0.501622
vn 0.383020 0.841948 0.380026
vn 0.186116 -0.747187 0.638022
vn -0.351142 -0.573935 0.739795
vn -0.002611 0.996030 0.088985
vn 0.122810 0.955574 0.267949
vn -0.041564 -0.604002 0.795899
vn 0.528256 0.161963 -0.833495
vn 0.094168 0.178772 -0.979374
vn 0.086777 -0.890483 -0.446666
vn -0.175246 -0.833621 -0.523799
vn 0.215074 0.911955 0.349402
vn 0.033521 -0.700948 0.712424
vn -0.110672 0.437881 -0.892195
vn -0.314979 -0.799631 -0.511253
vn 0.000010 0.528235 0.849098
vn -0.000001 0.535376 0.844614
vn -0.026640 0.528798 0.848330
vn -0.040633 0.519090 0.853753
vn 0.026640 -0.528798 -0.848330
vn 0.000001 -0.535376 -0.844614
vn -0.000012 -0.501504 -0.865156
vn 0.037732 -0.492484 -0.869503
vn 1.000000 0.000001 0.000000
vn 1.000000 0.000001 0.000000
vn 1.000000 0.000001 0.000000
vn 1.000000 0.000001 0.000000
vn -1.000000 0.000001 0.000000
vn -1.000000 0.000001 0.000000
vn -1.000000 0.000001 0.000000
vn -1.000000 0.000001 0.000000
vn 0.000017 0.916549 0.399922
vn -0.087717 0.913017 0.398380
vn 1.000000 -0.000004 0.000000
vn 1.000000 -0.000004 0.000000
vn 0.090175 -0.940696 -0.327047
vn -0.000015 -0.944543 -0.328388
vn -1.000000 0.000000 0.000000
vn -1.000000 0.000000 0.000000
vn 0.000012 0.540425 -0.841392
vn 0.000019 0.883204 -0.468989
vn -0.084729 0.880028 -0.467302
vn -0.042102 0.532996 -0.845070
vn 1.000000 0.000000 0.000000
vn 1.000000 0.000000 0.000000
vn 1.000000 0.000000 0.000000
vn 1.000000 0.000000 0.000000
vn 0.040157 -0.514672 0.856446
vn 0.081809 -0.848235 0.523264
vn -0.000021 -0.851087 0.525025
vn -0.000013 -0.521962 0.852969
vn -1.000000 0.000001 0.000000
vn -1.000000 0.000001 0.000000
vn -1.000000 0.000001 0.000000
vn -1.000000 0.000001 0.000000
vn -0.015926 0.633235 -0.773795
vn -0.000001 0.639836 -0.768512
vn -0.000004 0.531331 -0.847164
vn -0.031528 0.524659 -0.850728
vn 1.000000 0.000000 0.000000
vn 1.000000 0.000000 0.000000
vn 1.000000 0.000000 0.000000
vn 1.000000 0.000000 0.000000
vn 0.000001 -0.639836 0.768511
vn 0.015926 -0.633236 0.773795
vn 0.031528 -0.524659 0.850728
vn 0.000004 -0.531332 0.847164
vn -1.000000 0.000000 0.000000
vn -1.000000 0.000000 0.000000
vn -1.000000 0.000000 0.000000
vn -1.000000 0.000000 0.000000
vn -0.029900 -0.529131 -0.848013
vn -0.042556 -0.492403 -0.869326
vn -0.101407 -0.939675 -0.326693
vn -0.092133 -0.847468 0.522791
vn -0.045297 -0.514594 0.856237
vn -0.017877 -0.633487 0.773547
vn -0.035357 -0.524921 0.850416
vn 0.017877 0.633486 -0.773547
vn 0.035357 0.524921 -0.850416
vn 0.047456 0.532824 -0.844895
vn 0.095381 0.879177 -0.466851
vn 0.098694 0.912075 0.397968
vn 0.045769 0.518866 0.853630
vn 0.029900 0.529131 0.848013
vn -0.040892 0.517962 0.854426
vn -0.062269 0.522919 0.850105
vn -0.132068 0.908522 0.396417
vn -0.127343 0.876014 -0.465170
vn -0.063914 0.534461 -0.842773
vn -0.024559 0.625679 -0.779694
vn -0.048549 0.515423 -0.855560
vn 0.048549 -0.515423 0.855560
vn 0.024559 -0.625679 0.779694
vn 0.122783 -0.844648 0.521051
vn 0.060410 -0.513535 0.855940
vn 0.056953 -0.492264 -0.868581
vn 0.136028 -0.935765 -0.325330
vn 0.040892 -0.517962 -0.854426
vn -0.066451 -0.492919 -0.867534
vn -0.047657 -0.517291 -0.854482
vn -0.157857 -0.932701 -0.324267
vn -0.142573 -0.842395 0.519658
vn -0.070423 -0.513847 0.854986
vn -0.028638 -0.625454 0.779735
vn -0.056569 -0.514891 0.855387
vn 0.056569 0.514891 -0.855387
vn 0.028638 0.625454 -0.779736
vn 0.147838 0.873499 -0.463835
vn 0.074561 0.535059 -0.841518
vn 0.072735 0.524011 0.848601
vn 0.153291 0.905718 0.395193
vn 0.047657 0.517291 0.854482
vn 0.028025 0.657257 0.753145
vn 0.017524 0.664475 0.747105
vn -0.000001 0.669663 0.742665
vn -0.015614 0.664254 0.747344
vn -0.024047 0.657509 0.753063
vn 1.000000 0.000000 0.000000
vn 1.000000 0.000000 0.000000
vn 0.024047 -0.657509 -0.753063
vn 0.015614 -0.664254 -0.747344
vn 0.000001 -0.669663 -0.742665
vn -0.017524 -0.664475 -0.747105
vn -0.028025 -0.657257 -0.753145
vn -1.000000 0.000000 0.000000
vn -1.000000 0.000000 0.000000
vn 0.014902 0.730629 0.682613
vn 0.009454 0.736232 0.676663
vn 0.000000 0.741755 0.670671
vn -0.008414 0.736039 0.676887
vn -0.012799 0.730650 0.682632
vn 1.000000 0.000000 0.000000
vn 1.000000 0.000000 0.000000
vn 0.008414 -0.736039 -0.676887
vn 0.012799 -0.730650 -0.682632
vn 0.000000 -0.741755 -0.670671
vn -0.009454 -0.736232 -0.676663
vn -0.014902 -0.730629 -0.682613
vn -1.000000 0.000000 0.000000
vn -1.000000 0.000000 0.000000
vn 0.011411 0.666645 -0.745288
vn 0.000000 0.672886 -0.739746
vn 0.017953 0.660342 -0.750751
vn -1.000000 0.000000 0.000000
vn -1.000000 0.000000 0.000000
vn -0.011411 -0.666645 0.745288
vn -0.017953 -0.660342 0.750751
vn -0.000000 -0.672886 0.739746
vn 0.010156 -0.666429 0.745499
vn 0.015420 -0.660370 0.750782
vn 1.000000 0.000000 0.000000
vn 1.000000 0.000000 0.000000
vn -0.010156 0.666429 -0.745499
vn -0.015420 0.660370 -0.750782
vn -0.903114 0.296179 -0.310908
vn -0.900420 0.337251 -0.274783
vn -0.410377 0.638653 -0.650932
vn -0.414484 0.586263 -0.696060
vn 0.893712 -0.386003 0.228650
vn -0.068207 -0.733310 -0.676464
vn 0.422599 0.537107 -0.730018
vn 0.948795 0.085878 -0.303996
vn 0.957273 0.142895 -0.251416
vn 0.900747 -0.336788 0.274278
vn 0.431882 0.631408 -0.644051
vn 0.068207 0.733309 0.676465
vn 0.902768 -0.297294 0.310847
vn 0.959441 0.188816 -0.209338
vn 0.430035 0.590220 -0.683162
vn 0.287694 -0.663695 0.690465
vn -0.428641 -0.590724 0.683602
vn -0.432667 -0.621275 0.653312
vn 0.282393 -0.706888 0.648508
vn 0.290065 -0.627625 0.722460
vn -0.427363 -0.564647 0.706070
vn -0.933771 -0.191832 0.302114
vn -0.936222 -0.230041 0.265649
vn -0.896861 0.368558 -0.244553
vn -0.406309 0.678130 -0.612416
vn -0.930196 -0.160470 0.330128
vn 0.503882 -0.792381 0.343855
vn 0.821446 0.568832 -0.040700
vn 0.697481 0.609503 0.376864
vn 0.367740 -0.659061 0.656053
vn -0.472334 -0.827456 -0.303671
vn -0.170815 0.877432 -0.448259
vn -0.284861 0.887142 -0.363089
vn -0.637128 -0.770381 -0.024107
vn 0.367064 -0.924341 -0.104197
vn 0.824931 0.322127 -0.464459
vn -0.172651 0.984914 0.011652
vn -0.611915 -0.707394 0.353771
vn 0.363891 0.626460 0.689297
vn 0.066338 -0.489274 0.869604
vn -0.079560 0.762999 -0.641484
vn -0.216044 -0.923233 -0.317750
vn -0.089637 0.821577 0.563006
vn -0.318205 -0.478465 0.818424
vn 0.235839 0.706672 -0.667080
vn 0.085330 -0.967026 -0.239957
vn -0.384844 0.893352 0.231985
vn -0.643679 -0.591381 0.485743
vn 0.412976 0.795787 -0.442915
vn 0.138437 -0.989582 -0.039539
vn -0.466696 0.810609 -0.353706
vn -0.806594 -0.576434 -0.130883
vn 0.460017 0.878403 -0.129588
vn 0.173885 -0.923375 0.342260
vn -0.202088 0.725542 -0.657837
vn -0.623812 -0.582170 -0.521476
vn 0.385508 0.823840 0.415537
vn 0.199245 -0.777119 0.596982
vn -0.337046 -0.611782 0.715628
vn -0.005303 0.990336 0.138586
vn 0.123095 0.941631 0.313334
vn -0.026499 -0.643089 0.765333
vn 0.514351 0.205863 -0.832504
vn 0.077946 0.227792 -0.970585
vn 0.083373 -0.866693 -0.491826
vn -0.180068 -0.807344 -0.561935
vn 0.216813 0.894462 0.391062
vn 0.047657 -0.735388 0.675969
vn -0.126554 0.481227 -0.867413
vn -0.319723 -0.774708 -0.545531
vn 0.138784 -0.985666 0.095921
vn 0.563889 0.208711 0.799043
vn 0.173969 0.121546 0.977221
vn -0.188027 -0.948260 0.255831
vn -0.060831 -0.414717 -0.907915
vn 0.161229 0.981666 0.101674
vn 0.020640 0.996388 0.082374
vn -0.379660 -0.418921 -0.824841
vn 0.376436 -0.871864 -0.313287
vn 0.886382 0.166133 0.432119
vn -0.178991 0.891310 0.416569
vn -0.639500 -0.524061 -0.562494
vn -0.282536 0.129837 0.950429
vn -0.558818 -0.782589 0.274368
vn 0.369987 0.928986 -0.009696
vn 0.130506 -0.580723 -0.803573
vn -0.512901 0.505212 0.694042
vn -0.786502 -0.617549 0.006914
vn 0.608202 0.780143 0.146516
vn 0.283501 -0.754937 -0.591353
vn -0.479623 0.801255 0.357703
vn -0.763079 -0.466760 -0.447040
vn 0.562759 0.704459 0.432482
vn 0.175938 -0.872158 -0.456494
vn -0.107056 0.991909 -0.068236
vn -0.428940 -0.152447 -0.890377
vn 0.363663 0.633833 0.682646
vn -0.079884 -0.979724 -0.183736
vn 0.299630 0.946913 -0.116526
vn -0.019998 -0.067086 -0.997547
vn -0.079699 0.397969 0.913930
vn -0.254764 -0.965540 0.053186
vn -0.717924 -0.683227 -0.133365
vn -0.156282 0.786625 0.597325
vn -0.192136 0.630851 0.751739
vn -0.538929 -0.838967 0.075430
vn 0.945841 0.322838 -0.034081
vn 0.744913 0.550007 -0.377620
vn 0.459392 -0.569439 -0.681688
vn 0.326072 -0.398457 -0.857268
vn -0.181589 0.527029 0.830221
vn -0.418351 -0.907983 0.023443
vn 0.516281 0.796137 -0.315628
vn 0.216512 -0.328032 -0.919520
vn -0.599545 -0.772074 0.210827
vn -0.641856 0.382806 -0.664440
vn -0.424555 0.086060 -0.901303
vn -0.370322 -0.928499 -0.027427
vn 0.173338 -0.282701 0.943416
vn 0.283912 0.903447 -0.321214
vn 0.412367 0.844689 -0.341253
vn 0.403492 -0.461716 0.789945
vn -0.600114 -0.506798 0.618885
vn -0.798303 0.555382 -0.232944
vn 0.411789 0.614883 -0.672569
vn 0.477003 -0.715073 0.511017
vn -0.038020 -0.142110 -0.989120
vn 0.002713 -0.983792 -0.179291
vn 0.127459 0.980028 -0.152643
vn -0.095554 -0.334821 0.937424
vn 0.411586 0.083515 -0.907536
vn 0.357325 -0.933503 -0.029857
vn -0.189845 0.961174 -0.200259
vn -0.374172 -0.425757 0.823849
vn 0.636726 0.388345 -0.666159
vn 0.564487 -0.743761 0.358014
vn -0.286372 0.841972 -0.457247
vn -0.386682 -0.595878 0.703851
vn 0.566879 0.790859 -0.230629
vn 0.588904 -0.254759 0.767001
vn -0.242483 0.650837 -0.719453
vn -0.321177 -0.850340 0.416853
vn 0.230210 0.970247 -0.074989
vn 0.330645 0.042574 0.942794
vn -0.068147 0.194564 -0.978520
vn -0.253560 -0.955633 0.149909
vn 0.319580 -0.937860 0.135228
vn 0.282589 0.518269 -0.807181
vn 0.186934 0.350785 -0.917609
vn 0.029365 -0.999227 0.026141
vn -0.613672 0.770271 0.173464
vn -0.226086 0.895454 0.383468
vn -0.401593 -0.167127 0.900440
vn -0.153232 -0.072695 0.985513
vn 0.103457 0.259813 -0.960101
vn -0.082998 -0.988999 0.122443
vn 0.052584 0.977604 0.203776
vn -0.009714 -0.063413 0.997940
vn -0.003864 0.631300 0.775529
vn -0.014101 0.609741 0.792475
vn -0.024816 -0.045521 0.998655
vn 0.038750 -0.020092 0.999047
vn 0.110090 -0.605958 -0.787842
vn 0.999662 -0.008720 0.024473
vn 0.089780 -0.772554 0.628570
vn 0.125174 -0.977849 -0.167757
vn -0.004499 -0.985741 -0.168210
vn 0.013490 -0.631861 -0.774964
vn -0.125841 -0.771932 0.623125
vn -0.999663 0.008720 -0.024474
vn -0.075027 -0.605636 -0.792197
vn -0.124529 -0.976854 -0.173921
vn -0.021837 -0.792065 0.610046
vn 0.025546 0.153104 -0.987880
vn 0.022138 0.777211 -0.628851
vn 0.008150 0.792144 -0.610279
vn 0.065161 0.174770 -0.982451
vn -0.011096 0.174627 -0.984572
vn 0.034595 0.791353 -0.610380
vn 0.006230 0.995115 0.098523
vn -0.010915 0.995364 0.095554
vn -0.022349 0.630632 0.775760
vn -0.083367 -0.020000 0.996318
vn 0.022367 0.995085 0.096468
vn -0.532798 -0.733698 -0.421680
vn -0.778389 0.627669 0.011911
vn -0.620361 0.678870 -0.392795
vn -0.363911 -0.596269 -0.715564
vn 0.386113 -0.875064 0.291855
vn 0.199859 0.838947 0.506186
vn 0.320462 0.843974 0.430129
vn 0.575440 -0.817350 0.028422
vn -0.440494 -0.897340 0.027299
vn -0.832140 0.361722 0.420358
vn 0.244549 0.968127 0.054091
vn 0.583733 -0.734377 -0.346332
vn -0.263611 0.685247 -0.678930
vn -0.035529 -0.440013 -0.897288
vn 0.086043 0.722643 0.685845
vn 0.123184 -0.951421 0.282179
vn 0.192030 0.838566 -0.509835
vn 0.343762 -0.461296 -0.817944
vn -0.233658 0.689559 0.685501
vn -0.173784 -0.968090 0.180559
vn 0.465636 0.871305 -0.154956
vn 0.633843 -0.614893 -0.469202
vn -0.386230 0.802789 0.454265
vn -0.212988 -0.976758 -0.024099
vn 0.496401 0.754232 0.429790
vn 0.750003 -0.642412 0.157488
vn -0.403122 0.903859 0.143287
vn -0.214338 -0.889599 -0.403327
vn 0.203906 0.675124 0.708964
vn 0.538093 -0.652993 0.532970
vn -0.291524 0.870207 -0.397183
vn -0.209480 -0.729657 -0.650937
vn 0.344930 -0.600494 -0.721409
vn 0.088191 0.992545 -0.084122
vn -0.029747 0.962381 -0.270069
vn 0.037613 -0.605385 -0.795044
vn -0.559806 0.204227 0.803062
vn -0.134745 0.185815 0.973302
vn -0.183679 -0.880527 0.436961
vn 0.077291 -0.845077 0.529028
vn -0.120471 0.926380 -0.356801
vn -0.049676 -0.695930 -0.716390
vn 0.094987 0.427477 0.899022
vn 0.219801 -0.822518 0.524550
vn 0.105217 0.659157 -0.744608
vn 0.107991 0.617033 -0.779493
vn -0.558042 0.483508 -0.674396
vn -0.560575 0.536964 -0.630417
vn -0.111702 -0.562596 0.819151
vn -0.060785 0.786700 0.614335
vn -0.993970 0.075633 -0.079399
vn -0.745769 -0.383779 0.544557
vn -0.742703 -0.446843 0.498721
vn -0.108742 -0.617035 0.779387
vn -0.987125 -0.025111 -0.157970
vn 0.060785 -0.786701 -0.614335
vn -0.104516 -0.658508 0.745281
vn -0.738000 -0.494641 0.459006
vn -0.992339 0.018682 -0.122128
vn 0.661663 -0.429061 0.614905
vn 0.992173 -0.019653 0.123318
vn 0.988802 0.015340 0.148440
vn 0.657294 -0.380442 0.650560
vn 0.664283 -0.466252 0.584240
vn 0.993835 -0.045805 0.100962
vn 0.790155 0.413983 -0.451966
vn 0.785575 0.455182 -0.419143
vn 0.111179 0.582092 -0.805486
vn -0.553528 0.439418 -0.707473
vn 0.791781 0.380599 -0.477732
vn -0.212384 -0.971185 -0.108130
vn -0.498976 0.253703 -0.828648
vn -0.107915 0.135239 -0.984919
vn 0.124916 -0.960374 -0.249155
vn -0.024452 -0.418280 0.907989
vn -0.075290 0.991500 -0.106112
vn 0.064709 0.994785 -0.078833
vn 0.297185 -0.448299 0.843036
vn -0.462859 -0.838506 0.287521
vn -0.844128 0.237386 -0.480724
vn 0.273803 0.873882 -0.401699
vn 0.562118 -0.574138 0.595305
vn 0.345510 0.106524 -0.932350
vn 0.508342 -0.825284 -0.245958
vn -0.293598 0.955904 -0.006951
vn -0.222366 -0.568244 0.792245
vn 0.590579 0.462004 -0.661641
vn 0.733107 -0.679228 0.034683
vn -0.533835 0.826845 -0.177051
vn -0.376678 -0.729493 0.570924
vn 0.562347 0.759771 -0.326364
vn 0.696270 -0.527038 0.487277
vn -0.478533 0.747727 -0.460337
vn -0.271477 -0.855040 0.441823
vn 0.182883 0.979978 0.078725
vn 0.364062 -0.186692 0.912472
vn -0.271944 0.661207 -0.699179
vn -0.010150 -0.982975 0.183458
vn -0.228189 0.968072 0.103760
vn -0.042051 -0.068485 0.996766
vn 0.163281 0.390206 -0.906134
vn 0.178446 -0.983004 -0.043140
vn 0.651604 -0.739135 0.170564
vn 0.252983 0.771381 -0.583927
vn 0.284813 0.613213 -0.736784
vn 0.472720 -0.879865 -0.048721
vn -0.917041 0.398391 -0.017912
vn -0.718190 0.608539 0.337466
vn -0.541826 -0.530356 0.652033
vn -0.405278 -0.370735 0.835647
vn 0.270367 0.510587 -0.816212
vn 0.344203 -0.938887 -0.003945
vn -0.467256 0.835340 0.289619
vn -0.294087 -0.309417 0.904308
vn 0.903189 0.208170 0.375387
vn 0.905898 0.250865 0.341198
vn 0.419223 0.574231 0.703215
vn 0.416492 0.519757 0.745914
vn -0.905815 -0.301971 -0.297173
vn -0.030246 -0.765307 0.642954
vn -0.422392 0.537129 0.730121
vn -0.955721 0.149072 0.253723
vn -0.956529 0.208833 0.203570
vn -0.906218 -0.250399 -0.340690
vn -0.419072 0.635543 0.648432
vn 0.030246 0.765307 -0.642954
vn -0.902936 -0.209309 -0.375361
vn -0.952559 0.256576 0.163708
vn -0.422813 0.592669 0.685546
vn -0.296723 -0.607374 -0.736921
vn 0.421412 -0.593039 -0.686088
vn 0.421205 -0.625110 -0.657133
vn -0.297354 -0.652649 -0.696871
vn -0.294333 -0.569866 -0.767216
vn 0.423534 -0.565986 -0.707304
vn 0.932359 -0.253443 -0.257823
vn 0.929613 -0.293282 -0.223170
vn 0.906626 0.283650 0.312365
vn 0.420583 0.615554 0.666486
vn 0.932944 -0.220699 -0.284444
vn -0.546016 -0.748962 -0.375396
vn -0.773734 0.633503 -0.003148
vn -0.623425 0.663997 -0.412854
vn -0.382068 -0.627110 -0.678791
vn 0.385899 -0.862997 0.326065
vn 0.215539 0.860713 0.461212
vn 0.334640 0.861152 0.382666
vn 0.570344 -0.819459 0.056519
vn -0.445929 -0.891570 0.079055
vn -0.821167 0.387890 0.418600
vn 0.252119 0.967693 0.002639
vn 0.571760 -0.754638 -0.321889
vn -0.272391 0.653877 -0.705867
vn -0.056306 -0.482292 -0.874199
vn 0.104527 0.754048 0.648449
vn 0.122319 -0.937698 0.325209
vn 0.187545 0.811615 -0.553270
vn 0.324331 -0.502668 -0.801333
vn -0.215335 0.723453 0.655932
vn -0.176716 -0.956935 0.230318
vn 0.468357 0.859243 -0.205776
vn 0.620230 -0.641578 -0.451322
vn -0.371697 0.826625 0.422530
vn -0.220032 -0.975116 0.027115
vn 0.509929 0.770141 0.383218
vn 0.748616 -0.639878 0.173581
vn -0.394072 0.912779 0.107434
vn -0.228317 -0.906256 -0.355770
vn 0.222501 0.706785 0.671527
vn 0.544132 -0.630787 0.553198
vn -0.293452 0.852361 -0.432859
vn -0.227291 -0.758425 -0.610844
vn 0.326473 -0.637074 -0.698250
vn 0.093221 0.986652 -0.133519
vn -0.028587 0.948509 -0.315459
vn 0.017728 -0.643124 -0.765557
vn -0.542363 0.246851 0.803061
vn -0.114142 0.233357 0.965669
vn -0.180926 -0.857092 0.482347
vn 0.082054 -0.819278 0.567495
vn -0.121257 0.909086 -0.398572
vn -0.068593 -0.729112 -0.680948
vn 0.115702 0.469395 0.875375
vn 0.224596 -0.798060 0.559157
s 1
g pCube91
usemtl lambert3SG
f 9/49/1 10/54/2 4/55/3 3/50/4
f 5/5/5 6/6/6 11/2/7 12/1/8
f 10/70/2 11/69/7 6/73/6 4/74/3
f 12/48/8 9/49/1 3/50/4 5/51/5
f 41/53/9 42/58/10 10/54/2 9/49/1
f 42/67/10 43/68/11 11/69/7 10/70/2
f 12/1/8 11/2/7 43/3/11 44/4/12
f 44/52/12 41/53/9 9/49/1 12/48/8
f 3/50/4 4/55/3 14/59/13 13/56/14
f 4/74/3 6/73/6 15/77/15 14/78/13
f 6/73/6 5/81/5 16/82/16 15/77/15
f 5/51/5 3/50/4 13/56/14 16/57/16
f 13/56/14 14/59/13 18/62/17 17/60/18
f 14/78/13 15/77/15 19/83/19 18/84/17
f 15/77/15 16/82/16 20/87/20 19/83/19
f 16/57/16 13/56/14 17/60/18 20/61/20
f 17/13/18 18/14/17 22/10/21 21/9/22
f 18/84/17 19/83/19 23/88/23 22/89/21
f 19/19/19 20/20/20 24/16/24 23/15/23
f 20/61/20 17/60/18 21/63/22 24/64/24
f 21/9/22 22/10/21 26/11/25 25/12/26
f 22/89/21 23/88/23 27/91/27 26/90/25
f 23/15/23 24/16/24 28/17/28 27/18/27
f 24/64/24 21/63/22 25/65/26 28/66/28
f 25/92/26 26/90/25 30/85/29 29/93/30
f 26/90/25 27/91/27 31/86/31 30/85/29
f 27/18/27 28/17/28 32/21/32 31/22/31
f 28/46/28 25/47/26 29/43/30 32/45/32
f 7/23/33 8/24/34 34/25/35 33/26/36
f 8/72/34 2/71/37 35/75/38 34/76/35
f 2/31/37 1/32/39 36/33/40 35/34/38
f 1/32/39 7/37/33 33/38/36 36/33/40
f 33/26/36 34/25/35 38/27/41 37/28/42
f 34/76/35 35/75/38 39/79/43 38/80/41
f 35/34/38 36/33/40 40/39/44 39/40/43
f 36/33/40 33/38/36 37/42/42 40/39/44
f 37/28/42 38/27/41 31/29/31 32/30/32
f 38/80/41 39/79/43 30/85/29 31/86/31
f 39/40/43 40/39/44 29/43/30 30/44/29
f 40/39/44 37/42/42 32/45/32 29/43/30
f 1/32/39 2/31/37 42/35/10 41/36/9
f 2/71/37 8/72/34 43/68/11 42/67/10
f 44/4/12 43/3/11 8/7/34 7/8/33
f 7/37/33 1/32/39 41/36/9 44/41/12
s 3
f 56/94/45 64/95/46 65/96/47 48/97/48
f 55/98/49 58/99/50 59/100/51 50/101/52
f 67/102/53 68/103/54 55/104/49 50/105/52
f 60/106/55 61/107/56 54/108/57 52/109/58
f 59/110/51 66/111/59 67/102/53 50/105/52
f 69/112/60 70/113/61 57/114/62 49/115/63
f 51/116/64 54/108/57 61/107/56 62/117/65
f 49/115/63 55/118/49 68/119/54 69/112/60
f 57/120/62 58/99/50 55/98/49 49/121/63
f 63/122/66 64/95/46 56/94/45 47/123/67
f 47/124/67 56/125/45 58/99/50 57/120/62
f 59/100/51 58/99/50 56/125/45 48/126/48
f 65/96/47 66/111/59 59/110/51 48/97/48
f 53/127/68 61/107/56 60/106/55 46/128/69
f 62/117/65 61/107/56 53/127/68 45/129/70
f 57/114/62 70/113/61 63/122/66 47/123/67
f 45/130/70 53/131/68 64/95/46 63/122/66
f 65/96/47 64/95/46 53/131/68 46/132/69
f 46/132/69 60/133/55 66/111/59 65/96/47
f 67/102/53 66/111/59 60/133/55 52/134/58
f 54/135/57 68/103/54 67/102/53 52/134/58
f 69/112/60 68/119/54 54/136/57 51/137/64
f 51/137/64 62/138/65 70/113/61 69/112/60
f 63/122/66 70/113/61 62/138/65 45/130/70
s 7
f 79/139/71 80/140/72 74/141/73 73/142/74
f 75/143/75 76/144/76 81/145/77 82/146/78
f 80/147/72 81/148/77 76/149/76 74/150/73
f 82/151/78 79/139/71 73/142/74 75/152/75
f 111/153/79 112/154/80 80/140/72 79/139/71
f 112/155/80 113/156/81 81/148/77 80/147/72
f 82/146/78 81/145/77 113/157/81 114/158/82
f 114/159/82 111/153/79 79/139/71 82/151/78
f 73/142/74 74/141/73 84/160/83 83/161/84
f 74/150/73 76/149/76 85/162/85 84/163/83
f 76/149/76 75/164/75 86/165/86 85/162/85
f 75/152/75 73/142/74 83/161/84 86/166/86
f 83/161/84 84/160/83 88/167/87 87/168/88
f 84/163/83 85/162/85 89/169/89 88/170/87
f 85/162/85 86/165/86 90/171/90 89/169/89
f 86/166/86 83/161/84 87/168/88 90/172/90
f 87/173/88 88/174/87 92/175/91 91/176/92
f 88/170/87 89/169/89 93/177/93 92/178/91
f 89/179/89 90/180/90 94/181/94 93/182/93
f 90/172/90 87/168/88 91/183/92 94/184/94
f 91/176/92 92/175/91 96/185/95 95/186/96
f 92/178/91 93/177/93 97/187/97 96/188/95
f 93/182/93 94/181/94 98/189/98 97/190/97
f 94/184/94 91/183/92 95/191/96 98/192/98
f 95/193/96 96/188/95 100/194/99 99/195/100
f 96/188/95 97/187/97 101/196/101 100/194/99
f 97/190/97 98/189/98 102/197/102 101/198/101
f 98/199/98 95/200/96 99/201/100 102/202/102
f 77/203/103 78/204/104 104/205/105 103/206/106
f 78/207/104 72/208/107 105/209/108 104/210/105
f 72/211/107 71/212/109 106/213/110 105/214/108
f 71/212/109 77/215/103 103/216/106 106/213/110
f 103/206/106 104/205/105 108/217/111 107/218/112
f 104/210/105 105/209/108 109/219/113 108/220/111
f 105/214/108 106/213/110 110/221/114 109/222/113
f 106/213/110 103/216/106 107/223/112 110/221/114
f 107/218/112 108/217/111 101/224/101 102/225/102
f 108/220/111 109/219/113 100/194/99 101/196/101
f 109/222/113 110/221/114 99/201/100 100/226/99
f 110/221/114 107/223/112 102/202/102 99/201/100
f 71/212/109 72/211/107 112/227/80 111/228/79
f 72/208/107 78/207/104 113/156/81 112/155/80
f 114/158/82 113/157/81 78/229/104 77/230/103
f 77/215/103 71/212/109 111/228/79 114/231/82
s 9
f 144/232/115 167/233/116 168/234/117 146/235/118
s 10
f 171/236/119 172/237/120 137/238/121 153/239/122
s 11
f 169/240/123 170/241/124 120/242/125 118/243/126
s 12
f 174/244/127 165/245/128 117/246/129 119/247/130
s 9
f 143/248/131 144/249/115 146/250/118 147/251/132
s 11
f 118/243/126 120/242/125 125/252/133 124/253/134
s 10
f 152/254/135 153/255/122 137/256/121 138/257/136
s 12
f 119/247/130 117/246/129 123/258/137 126/259/138
s 13
f 142/260/139 143/248/140 147/251/141 148/261/142
s 14
f 124/253/143 125/252/144 129/262/145 128/263/146
s 15
f 151/264/147 152/254/148 138/257/149 139/265/150
s 16
f 126/259/151 123/258/152 127/266/153 130/267/154
s 13
f 204/268/155 195/269/156 177/270/157 178/271/158
s 14
f 179/272/159 180/273/160 202/274/161 203/275/162
s 15
f 200/276/163 201/277/164 181/278/165 182/279/166
s 16
f 184/280/167 175/281/168 197/282/169 198/283/170
s 10
f 172/237/120 173/284/171 157/285/172 137/238/121
f 138/257/136 137/256/121 157/286/172 158/287/173
s 15
f 139/265/150 138/257/149 158/287/174 159/288/175
f 199/289/176 200/276/163 182/279/166 183/290/177
s 13
f 195/269/156 196/291/178 176/292/179 177/270/157
f 162/293/180 163/294/181 143/248/140 142/260/139
s 9
f 163/294/182 164/295/183 144/249/115 143/248/131
f 164/296/183 166/297/184 167/233/116 144/232/115
f 146/235/118 168/234/117 169/298/185 118/299/186
f 147/251/132 146/250/118 118/300/186 124/301/187
s 13
f 148/261/142 147/251/141 124/301/188 128/302/189
f 203/303/190 204/268/155 178/271/158 179/304/191
s 15
f 180/305/192 181/278/165 201/277/164 202/306/193
f 125/307/194 152/254/148 151/264/147 129/308/195
s 10
f 120/309/196 153/255/122 152/254/135 125/307/197
f 170/310/198 171/236/119 153/239/122 120/311/196
f 119/312/199 157/285/172 173/284/171 174/313/200
f 158/287/173 157/286/172 119/314/199 126/315/201
s 15
f 159/288/175 158/287/174 126/315/202 130/316/203
f 198/317/204 199/289/176 183/290/177 184/318/205
s 13
f 175/319/206 176/292/179 196/291/178 197/320/207
f 123/321/208 163/294/181 162/293/180 127/322/209
s 9
f 117/323/210 164/295/183 163/294/182 123/321/211
f 165/324/212 166/297/184 164/296/183 117/325/210
f 185/326/213 186/327/214 166/297/184 165/324/212
f 167/233/116 166/297/184 186/327/214 187/328/215
f 168/234/117 167/233/116 187/328/215 188/329/216
f 169/298/185 168/234/117 188/329/216 189/330/217
s 11
f 189/331/218 190/332/219 170/241/124 169/240/123
s 10
f 190/333/220 191/334/221 171/236/119 170/310/198
f 191/334/221 192/335/222 172/237/120 171/236/119
f 192/335/222 193/336/223 173/284/171 172/237/120
f 174/313/200 173/284/171 193/336/223 194/337/224
s 12
f 194/338/225 185/339/226 165/245/128 174/244/127
s 13
f 127/340/209 162/341/180 176/292/179 175/319/206
f 177/270/157 176/292/179 162/341/180 142/342/139
f 178/271/158 177/270/157 142/342/139 148/343/142
f 179/304/191 178/271/158 148/343/142 128/344/189
s 14
f 128/263/146 129/262/145 180/273/160 179/272/159
s 15
f 129/345/195 151/346/147 181/278/165 180/305/192
f 182/279/166 181/278/165 151/346/147 139/347/150
f 183/290/177 182/279/166 139/347/150 159/348/175
f 184/318/205 183/290/177 159/348/175 130/349/203
s 16
f 130/267/154 127/266/153 175/281/168 184/280/167
s 9
f 115/350/227 155/351/228 186/327/214 185/326/213
f 187/328/215 186/327/214 155/351/228 135/352/229
f 188/329/216 187/328/215 135/352/229 145/353/230
f 189/330/217 188/329/216 145/353/230 116/354/231
s 11
f 116/355/232 122/356/233 190/332/219 189/331/218
s 10
f 154/357/234 191/334/221 190/333/220 122/358/235
f 136/359/236 192/335/222 191/334/221 154/357/234
f 156/360/237 193/336/223 192/335/222 136/359/236
f 194/337/224 193/336/223 156/360/237 121/361/238
s 12
f 121/362/239 115/363/240 185/339/226 194/338/225
s 13
f 161/364/241 196/291/178 195/269/156 141/365/242
f 197/320/207 196/291/178 161/364/241 131/366/243
s 16
f 198/283/170 197/282/169 131/367/244 134/368/245
s 15
f 160/369/246 199/289/176 198/317/204 134/370/247
f 140/371/248 200/276/163 199/289/176 160/369/246
f 150/372/249 201/277/164 200/276/163 140/371/248
f 202/306/193 201/277/164 150/372/249 133/373/250
s 14
f 203/275/162 202/274/161 133/374/251 132/375/252
s 13
f 149/376/253 204/268/155 203/303/190 132/377/254
f 141/365/242 195/269/156 204/268/155 149/376/253
s 19
f 216/378/255 224/379/256 225/380/257 208/381/258
f 215/382/259 218/383/260 219/384/261 210/385/262
f 227/386/263 228/387/264 215/388/259 210/389/262
f 220/390/265 221/391/266 214/392/267 212/393/268
f 219/394/261 226/395/269 227/386/263 210/389/262
f 229/396/270 230/397/271 217/398/272 209/399/273
f 211/400/274 214/392/267 221/391/266 222/401/275
f 209/399/273 215/402/259 228/403/264 229/396/270
f 217/404/272 218/383/260 215/382/259 209/405/273
f 223/406/276 224/379/256 216/378/255 207/407/277
f 207/408/277 216/409/255 218/383/260 217/404/272
f 219/384/261 218/383/260 216/409/255 208/410/258
f 225/380/257 226/395/269 219/394/261 208/381/258
f 213/411/278 221/391/266 220/390/265 206/412/279
f 222/401/275 221/391/266 213/411/278 205/413/280
f 217/398/272 230/397/271 223/406/276 207/407/277
f 205/414/280 213/415/278 224/379/256 223/406/276
f 225/380/257 224/379/256 213/415/278 206/416/279
f 206/416/279 220/417/265 226/395/269 225/380/257
f 227/386/263 226/395/269 220/417/265 212/418/268
f 214/419/267 228/387/264 227/386/263 212/418/268
f 229/396/270 228/403/264 214/420/267 211/421/274
f 211/421/274 222/422/275 230/397/271 229/396/270
f 223/406/276 230/397/271 222/422/275 205/414/280
s 23
f 239/423/281 240/424/282 234/425/283 233/426/284
f 235/427/285 236/428/286 241/429/287 242/430/288
f 240/431/282 241/432/287 236/433/286 234/434/283
f 242/435/288 239/423/281 233/426/284 235/436/285
f 271/437/289 272/438/290 240/424/282 239/423/281
f 272/439/290 273/440/291 241/432/287 240/431/282
f 242/430/288 241/429/287 273/441/291 274/442/292
f 274/443/292 271/437/289 239/423/281 242/435/288
f 233/426/284 234/425/283 244/444/293 243/445/294
f 234/434/283 236/433/286 245/446/295 244/447/293
f 236/433/286 235/448/285 246/449/296 245/446/295
f 235/436/285 233/426/284 243/445/294 246/450/296
f 243/445/294 244/444/293 248/451/297 247/452/298
f 244/447/293 245/446/295 249/453/299 248/454/297
f 245/446/295 246/449/296 250/455/300 249/453/299
f 246/450/296 243/445/294 247/452/298 250/456/300
f 247/457/298 248/458/297 252/459/301 251/460/302
f 248/454/297 249/453/299 253/461/303 252/462/301
f 249/463/299 250/464/300 254/465/304 253/466/303
f 250/456/300 247/452/298 251/467/302 254/468/304
f 251/460/302 252/459/301 256/469/305 255/470/306
f 252/462/301 253/461/303 257/471/307 256/472/305
f 253/466/303 254/465/304 258/473/308 257/474/307
f 254/468/304 251/467/302 255/475/306 258/476/308
f 255/477/306 256/472/305 260/478/309 259/479/310
f 256/472/305 257/471/307 261/480/311 260/478/309
f 257/474/307 258/473/308 262/481/312 261/482/311
f 258/483/308 255/484/306 259/485/310 262/486/312
f 237/487/313 238/488/314 264/489/315 263/490/316
f 238/491/314 232/492/317 265/493/318 264/494/315
f 232/495/317 231/496/319 266/497/320 265/498/318
f 231/496/319 237/499/313 263/500/316 266/497/320
f 263/490/316 264/489/315 268/501/321 267/502/322
f 264/494/315 265/493/318 269/503/323 268/504/321
f 265/498/318 266/497/320 270/505/324 269/506/323
f 266/497/320 263/500/316 267/507/322 270/505/324
f 267/502/322 268/501/321 261/508/311 262/509/312
f 268/504/321 269/503/323 260/478/309 261/480/311
f 269/506/323 270/505/324 259/485/310 260/510/309
f 270/505/324 267/507/322 262/486/312 259/485/310
f 231/496/319 232/495/317 272/511/290 271/512/289
f 232/492/317 238/491/314 273/440/291 272/439/290
f 274/442/292 273/441/291 238/513/314 237/514/313
f 237/499/313 231/496/319 271/512/289 274/515/292
s 25
f 283/516/325 284/517/326 278/518/327 277/519/328
f 279/520/329 280/521/330 285/522/331 286/523/332
f 284/524/326 285/525/331 280/526/330 278/527/327
f 286/528/332 283/516/325 277/519/328 279/529/329
f 315/530/333 316/531/334 284/517/326 283/516/325
f 316/532/334 317/533/335 285/525/331 284/524/326
f 286/523/332 285/522/331 317/534/335 318/535/336
f 318/536/336 315/530/333 283/516/325 286/528/332
f 277/519/328 278/518/327 288/537/337 287/538/338
f 278/527/327 280/526/330 289/539/339 288/540/337
f 280/526/330 279/541/329 290/542/340 289/539/339
f 279/529/329 277/519/328 287/538/338 290/543/340
f 287/538/338 288/537/337 292/544/341 291/545/342
f 288/540/337 289/539/339 293/546/343 292/547/341
f 289/539/339 290/542/340 294/548/344 293/546/343
f 290/543/340 287/538/338 291/545/342 294/549/344
f 291/550/342 292/551/341 296/552/345 295/553/346
f 292/547/341 293/546/343 297/554/347 296/555/345
f 293/556/343 294/557/344 298/558/348 297/559/347
f 294/549/344 291/545/342 295/560/346 298/561/348
f 295/553/346 296/552/345 300/562/349 299/563/350
f 296/555/345 297/554/347 301/564/351 300/565/349
f 297/559/347 298/558/348 302/566/352 301/567/351
f 298/561/348 295/560/346 299/568/350 302/569/352
f 299/570/350 300/565/349 304/571/353 303/572/354
f 300/565/349 301/564/351 305/573/355 304/571/353
f 301/567/351 302/566/352 306/574/356 305/575/355
f 302/576/352 299/577/350 303/578/354 306/579/356
f 281/580/357 282/581/358 308/582/359 307/583/360
f 282/584/358 276/585/361 309/586/362 308/587/359
f 276/588/361 275/589/363 310/590/364 309/591/362
f 275/589/363 281/592/357 307/593/360 310/590/364
f 307/583/360 308/582/359 312/594/365 311/595/366
f 308/587/359 309/586/362 313/596/367 312/597/365
f 309/591/362 310/590/364 314/598/368 313/599/367
f 310/590/364 307/593/360 311/600/366 314/598/368
f 311/595/366 312/594/365 305/601/355 306/602/356
f 312/597/365 313/596/367 304/571/353 305/573/355
f 313/599/367 314/598/368 303/578/354 304/603/353
f 314/598/368 311/600/366 306/579/356 303/578/354
f 275/589/363 276/588/361 316/604/334 315/605/333
f 276/585/361 282/584/358 317/533/335 316/532/334
f 318/535/336 317/534/335 282/606/358 281/607/357
f 281/592/357 275/589/363 315/605/333 318/608/336
s 27
f 327/609/369 328/610/370 322/611/371 321/612/372
f 323/613/373 324/614/374 329/615/375 330/616/376
f 328/617/370 329/618/375 324/619/374 322/620/371
f 330/621/376 327/609/369 321/612/372 323/622/373
f 359/623/377 360/624/378 328/610/370 327/609/369
f 360/625/378 361/626/379 329/618/375 328/617/370
f 330/616/376 329/615/375 361/627/379 362/628/380
f 362/629/380 359/623/377 327/609/369 330/621/376
f 321/612/372 322/611/371 332/630/381 331/631/382
f 322/620/371 324/619/374 333/632/383 332/633/381
f 324/619/374 323/634/373 334/635/384 333/632/383
f 323/622/373 321/612/372 331/631/382 334/636/384
f 331/631/382 332/630/381 336/637/385 335/638/386
f 332/633/381 333/632/383 337/639/387 336/640/385
f 333/632/383 334/635/384 338/641/388 337/639/387
f 334/636/384 331/631/382 335/638/386 338/642/388
f 335/643/386 336/644/385 340/645/389 339/646/390
f 336/640/385 337/639/387 341/647/391 340/648/389
f 337/649/387 338/650/388 342/651/392 341/652/391
f 338/642/388 335/638/386 339/653/390 342/654/392
f 339/646/390 340/645/389 344/655/393 343/656/394
f 340/648/389 341/647/391 345/657/395 344/658/393
f 341/652/391 342/651/392 346/659/396 345/660/395
f 342/654/392 339/653/390 343/661/394 346/662/396
f 343/663/394 344/658/393 348/664/397 347/665/398
f 344/658/393 345/657/395 349/666/399 348/664/397
f 345/660/395 346/659/396 350/667/400 349/668/399
f 346/669/396 343/670/394 347/671/398 350/672/400
f 325/673/401 326/674/402 352/675/403 351/676/404
f 326/677/402 320/678/405 353/679/406 352/680/403
f 320/681/405 319/682/407 354/683/408 353/684/406
f 319/682/407 325/685/401 351/686/404 354/683/408
f 351/676/404 352/675/403 356/687/409 355/688/410
f 352/680/403 353/679/406 357/689/411 356/690/409
f 353/684/406 354/683/408 358/691/412 357/692/411
f 354/683/408 351/686/404 355/693/410 358/691/412
f 355/688/410 356/687/409 349/694/399 350/695/400
f 356/690/409 357/689/411 348/664/397 349/666/399
f 357/692/411 358/691/412 347/671/398 348/696/397
f 358/691/412 355/693/410 350/672/400 347/671/398
f 319/682/407 320/681/405 360/697/378 359/698/377
f 320/678/405 326/677/402 361/626/379 360/625/378
f 362/628/380 361/627/379 326/699/402 325/700/401
f 325/685/401 319/682/407 359/698/377 362/701/380
s 29
f 374/702/413 382/703/414 383/704/415 366/705/416
f 373/706/417 376/707/418 377/708/419 368/709/420
f 385/710/421 386/711/422 373/712/417 368/713/420
f 378/714/423 379/715/424 372/716/425 370/717/426
f 377/718/419 384/719/427 385/710/421 368/713/420
f 387/720/428 388/721/429 375/722/430 367/723/431
f 369/724/432 372/716/425 379/715/424 380/725/433
f 367/723/431 373/726/417 386/727/422 387/720/428
f 375/728/430 376/707/418 373/706/417 367/729/431
f 381/730/434 382/703/414 374/702/413 365/731/435
f 365/732/435 374/733/413 376/707/418 375/728/430
f 377/708/419 376/707/418 374/733/413 366/734/416
f 383/704/415 384/719/427 377/718/419 366/705/416
f 371/735/436 379/715/424 378/714/423 364/736/437
f 380/725/433 379/715/424 371/735/436 363/737/438
f 375/722/430 388/721/429 381/730/434 365/731/435
f 363/738/438 371/739/436 382/703/414 381/730/434
f 383/704/415 382/703/414 371/739/436 364/740/437
f 364/740/437 378/741/423 384/719/427 383/704/415
f 385/710/421 384/719/427 378/741/423 370/742/426
f 372/743/425 386/711/422 385/710/421 370/742/426
f 387/720/428 386/727/422 372/744/425 369/745/432
f 369/745/432 380/746/433 388/721/429 387/720/428
f 381/730/434 388/721/429 380/746/433 363/738/438
s 33
f 397/747/439 398/748/440 392/749/441 391/750/442
f 393/751/443 394/752/444 399/753/445 400/754/446
f 398/755/440 399/756/445 394/757/444 392/758/441
f 400/759/446 397/747/439 391/750/442 393/760/443
f 429/761/447 430/762/448 398/748/440 397/747/439
f 430/763/448 431/764/449 399/756/445 398/755/440
f 400/754/446 399/753/445 431/765/449 432/766/450
f 432/767/450 429/761/447 397/747/439 400/759/446
f 391/750/442 392/749/441 402/768/451 401/769/452
f 392/758/441 394/757/444 403/770/453 402/771/451
f 394/757/444 393/772/443 404/773/454 403/770/453
f 393/760/443 391/750/442 401/769/452 404/774/454
f 401/769/452 402/768/451 406/775/455 405/776/456
f 402/771/451 403/770/453 407/777/457 406/778/455
f 403/770/453 404/773/454 408/779/458 407/777/457
f 404/774/454 401/769/452 405/776/456 408/780/458
f 405/781/456 406/782/455 410/783/459 409/784/460
f 406/778/455 407/777/457 411/785/461 410/786/459
f 407/787/457 408/788/458 412/789/462 411/790/461
f 408/780/458 405/776/456 409/791/460 412/792/462
f 409/784/460 410/783/459 414/793/463 413/794/464
f 410/786/459 411/785/461 415/795/465 414/796/463
f 411/790/461 412/789/462 416/797/466 415/798/465
f 412/792/462 409/791/460 413/799/464 416/800/466
f 413/801/464 414/796/463 418/802/467 417/803/468
f 414/796/463 415/795/465 419/804/469 418/802/467
f 415/798/465 416/797/466 420/805/470 419/806/469
f 416/807/466 413/808/464 417/809/468 420/810/470
f 395/811/471 396/812/472 422/813/473 421/814/474
f 396/815/472 390/816/475 423/817/476 422/818/473
f 390/819/475 389/820/477 424/821/478 423/822/476
f 389/820/477 395/823/471 421/824/474 424/821/478
f 421/814/474 422/813/473 426/825/479 425/826/480
f 422/818/473 423/817/476 427/827/481 426/828/479
f 423/822/476 424/821/478 428/829/482 427/830/481
f 424/821/478 421/824/474 425/831/480 428/829/482
f 425/826/480 426/825/479 419/832/469 420/833/470
f 426/828/479 427/827/481 418/802/467 419/804/469
f 427/830/481 428/829/482 417/809/468 418/834/467
f 428/829/482 425/831/480 420/810/470 417/809/468
f 389/820/477 390/819/475 430/835/448 429/836/447
f 390/816/475 396/815/472 431/764/449 430/763/448
f 432/766/450 431/765/449 396/837/472 395/838/471
f 395/823/471 389/820/477 429/836/447 432/839/450
s 35
f 444/840/483 452/841/484 453/842/485 436/843/486
f 443/844/487 446/845/488 447/846/489 438/847/490
f 455/848/491 456/849/492 443/850/487 438/851/490
f 448/852/493 449/853/494 442/854/495 440/855/496
f 447/856/489 454/857/497 455/848/491 438/851/490
f 457/858/498 458/859/499 445/860/500 437/861/501
f 439/862/502 442/854/495 449/853/494 450/863/503
f 437/861/501 443/864/487 456/865/492 457/858/498
f 445/866/500 446/845/488 443/844/487 437/867/501
f 451/868/504 452/841/484 444/840/483 435/869/505
f 435/870/505 444/871/483 446/845/488 445/866/500
f 447/846/489 446/845/488 444/871/483 436/872/486
f 453/842/485 454/857/497 447/856/489 436/843/486
f 441/873/506 449/853/494 448/852/493 434/874/507
f 450/863/503 449/853/494 441/873/506 433/875/508
f 445/860/500 458/859/499 451/868/504 435/869/505
f 433/876/508 441/877/506 452/841/484 451/868/504
f 453/842/485 452/841/484 441/877/506 434/878/507
f 434/878/507 448/879/493 454/857/497 453/842/485
f 455/848/491 454/857/497 448/879/493 440/880/496
f 442/881/495 456/849/492 455/848/491 440/880/496
f 457/858/498 456/865/492 442/882/495 439/883/502
f 439/883/502 450/884/503 458/859/499 457/858/498
f 451/868/504 458/859/499 450/884/503 433/876/508
s 39
f 467/885/509 468/886/510 462/887/511 461/888/512
f 463/889/513 464/890/514 469/891/515 470/892/516
f 468/893/510 469/894/515 464/895/514 462/896/511
f 470/897/516 467/885/509 461/888/512 463/898/513
f 499/899/517 500/900/518 468/886/510 467/885/509
f 500/901/518 501/902/519 469/894/515 468/893/510
f 470/892/516 469/891/515 501/903/519 502/904/520
f 502/905/520 499/899/517 467/885/509 470/897/516
f 461/888/512 462/887/511 472/906/521 471/907/522
f 462/896/511 464/895/514 473/908/523 472/909/521
f 464/895/514 463/910/513 474/911/524 473/908/523
f 463/898/513 461/888/512 471/907/522 474/912/524
f 471/907/522 472/906/521 476/913/525 475/914/526
f 472/909/521 473/908/523 477/915/527 476/916/525
f 473/908/523 474/911/524 478/917/528 477/915/527
f 474/912/524 471/907/522 475/914/526 478/918/528
f 475/919/526 476/920/525 480/921/529 479/922/530
f 476/916/525 477/915/527 481/923/531 480/924/529
f 477/925/527 478/926/528 482/927/532 481/928/531
f 478/918/528 475/914/526 479/929/530 482/930/532
f 479/922/530 480/921/529 484/931/533 483/932/534
f 480/924/529 481/923/531 485/933/535 484/934/533
f 481/928/531 482/927/532 486/935/536 485/936/535
f 482/930/532 479/929/530 483/937/534 486/938/536
f 483/939/534 484/934/533 488/940/537 487/941/538
f 484/934/533 485/933/535 489/942/539 488/940/537
f 485/936/535 486/935/536 490/943/540 489/944/539
f 486/945/536 483/946/534 487/947/538 490/948/540
f 465/949/541 466/950/542 492/951/543 491/952/544
f 466/953/542 460/954/545 493/955/546 492/956/543
f 460/957/545 459/958/547 494/959/548 493/960/546
f 459/958/547 465/961/541 491/962/544 494/959/548
f 491/952/544 492/951/543 496/963/549 495/964/550
f 492/956/543 493/955/546 497/965/551 496/966/549
f 493/960/546 494/959/548 498/967/552 497/968/551
f 494/959/548 491/962/544 495/969/550 498/967/552
f 495/964/550 496/963/549 489/970/539 490/971/540
f 496/966/549 497/965/551 488/940/537 489/942/539
f 497/968/551 498/967/552 487/947/538 488/972/537
f 498/967/552 495/969/550 490/948/540 487/947/538
f 459/958/547 460/957/545 500/973/518 499/974/517
f 460/954/545 466/953/542 501/902/519 500/901/518
f 502/904/520 501/903/519 466/975/542 465/976/541
f 465/961/541 459/958/547 499/974/517 502/977/520
s 41
f 514/978/553 522/979/554 523/980/555 506/981/556
f 513/982/557 516/983/558 517/984/559 508/985/560
f 525/986/561 526/987/562 513/988/557 508/989/560
f 518/990/563 519/991/564 512/992/565 510/993/566
f 517/994/559 524/995/567 525/986/561 508/989/560
f 527/996/568 528/997/569 515/998/570 507/999/571
f 509/1000/572 512/992/565 519/991/564 520/1001/573
f 507/999/571 513/1002/557 526/1003/562 527/996/568
f 515/1004/570 516/983/558 513/982/557 507/1005/571
f 521/1006/574 522/979/554 514/978/553 505/1007/575
f 505/1008/575 514/1009/553 516/983/558 515/1004/570
f 517/984/559 516/983/558 514/1009/553 506/1010/556
f 523/980/555 524/995/567 517/994/559 506/981/556
f 511/1011/576 519/991/564 518/990/563 504/1012/577
f 520/1001/573 519/991/564 511/1011/576 503/1013/578
f 515/998/570 528/997/569 521/1006/574 505/1007/575
f 503/1014/578 511/1015/576 522/979/554 521/1006/574
f 523/980/555 522/979/554 511/1015/576 504/1016/577
f 504/1016/577 518/1017/563 524/995/567 523/980/555
f 525/986/561 524/995/567 518/1017/563 510/1018/566
f 512/1019/565 526/987/562 525/986/561 510/1018/566
f 527/996/568 526/1003/562 512/1020/565 509/1021/572
f 509/1021/572 520/1022/573 528/997/569 527/996/568
f 521/1006/574 528/997/569 520/1022/573 503/1014/578
s 45
f 537/1023/579 538/1024/580 532/1025/581 531/1026/582
f 533/1027/583 534/1028/584 539/1029/585 540/1030/586
f 538/1031/580 539/1032/585 534/1033/584 532/1034/581
f 540/1035/586 537/1023/579 531/1026/582 533/1036/583
f 569/1037/587 570/1038/588 538/1024/580 537/1023/579
f 570/1039/588 571/1040/589 539/1032/585 538/1031/580
f 540/1030/586 539/1029/585 571/1041/589 572/1042/590
f 572/1043/590 569/1037/587 537/1023/579 540/1035/586
f 531/1026/582 532/1025/581 542/1044/591 541/1045/592
f 532/1034/581 534/1033/584 543/1046/593 542/1047/591
f 534/1033/584 533/1048/583 544/1049/594 543/1046/593
f 533/1036/583 531/1026/582 541/1045/592 544/1050/594
f 541/1045/592 542/1044/591 546/1051/595 545/1052/596
f 542/1047/591 543/1046/593 547/1053/597 546/1054/595
f 543/1046/593 544/1049/594 548/1055/598 547/1053/597
f 544/1050/594 541/1045/592 545/1052/596 548/1056/598
f 545/1057/596 546/1058/595 550/1059/599 549/1060/600
f 546/1054/595 547/1053/597 551/1061/601 550/1062/599
f 547/1063/597 548/1064/598 552/1065/602 551/1066/601
f 548/1056/598 545/1052/596 549/1067/600 552/1068/602
f 549/1060/600 550/1059/599 554/1069/603 553/1070/604
f 550/1062/599 551/1061/601 555/1071/605 554/1072/603
f 551/1066/601 552/1065/602 556/1073/606 555/1074/605
f 552/1068/602 549/1067/600 553/1075/604 556/1076/606
f 553/1077/604 554/1072/603 558/1078/607 557/1079/608
f 554/1072/603 555/1071/605 559/1080/609 558/1078/607
f 555/1074/605 556/1073/606 560/1081/610 559/1082/609
f 556/1083/606 553/1084/604 557/1085/608 560/1086/610
f 535/1087/611 536/1088/612 562/1089/613 561/1090/614
f 536/1091/612 530/1092/615 563/1093/616 562/1094/613
f 530/1095/615 529/1096/617 564/1097/618 563/1098/616
f 529/1096/617 535/1099/611 561/1100/614 564/1097/618
f 561/1090/614 562/1089/613 566/1101/619 565/1102/620
f 562/1094/613 563/1093/616 567/1103/621 566/1104/619
f 563/1098/616 564/1097/618 568/1105/622 567/1106/621
f 564/1097/618 561/1100/614 565/1107/620 568/1105/622
f 565/1102/620 566/1101/619 559/1108/609 560/1109/610
f 566/1104/619 567/1103/621 558/1078/607 559/1080/609
f 567/1106/621 568/1105/622 557/1085/608 558/1110/607
f 568/1105/622 565/1107/620 560/1086/610 557/1085/608
f 529/1096/617 530/1095/615 570/1111/588 569/1112/587
f 530/1092/615 536/1091/612 571/1040/589 570/1039/588
f 572/1042/590 571/1041/589 536/1113/612 535/1114/611
f 535/1099/611 529/1096/617 569/1112/587 572/1115/590
