# This file uses centimeters as units for non-parametric coordinates.

mtllib Waterfall.mtl
g default
v 16.904907 -4.614182 7.468278
v 22.950104 -4.614182 7.468278
v 14.899839 124.564842 1.027869
v 24.955172 124.564842 1.027869
v 14.899839 125.960052 0.055877
v 24.955172 125.960052 0.055877
v 14.899839 126.732719 -1.267370
v 24.955172 126.732719 -1.267370
v 14.899839 126.732735 -29.658463
v 24.955172 126.732735 -29.658463
v 15.680093 67.423286 0.497082
v 24.174917 67.423286 0.497082
v 15.680093 64.265129 8.100086
v 24.174917 64.265129 8.100086
v 15.680093 63.004650 8.701402
v 24.174917 63.004650 8.701402
v 15.680093 68.502785 0.265237
v 24.174917 68.502785 0.265237
v 15.680093 64.882217 6.728915
v 24.174917 64.882217 6.728915
v 15.680093 66.740204 1.210551
v 24.174917 66.740204 1.210551
v -8.773671 -4.614182 7.468278
v 8.773671 -4.614182 7.468278
v -11.065192 124.564842 1.027869
v 11.065192 124.564842 1.027869
v -11.065192 125.960052 0.055877
v 11.065192 125.960052 0.055877
v -11.065192 126.732719 -1.267370
v 11.065192 126.732719 -1.267370
v -11.065192 126.732735 -29.658463
v 11.065192 126.732735 -29.658463
v -10.206278 67.423286 0.497082
v 10.206278 67.423286 0.497082
v -10.206278 64.265129 8.100086
v 10.206278 64.265129 8.100086
v -10.206278 63.004650 8.701402
v 10.206278 63.004650 8.701402
v -10.206278 68.502785 0.265237
v 10.206278 68.502785 0.265237
v -10.206278 64.882217 6.728915
v 10.206278 64.882217 6.728915
v -10.206278 66.740204 1.210551
v 10.206278 66.740204 1.210551
v 12.853456 126.732735 -29.658463
v 12.853456 126.732719 -1.999660
v -10.000851 110.093376 0.831009
v 10.390285 110.093376 0.831009
v -11.046610 88.099442 0.531817
v 9.075428 88.099442 0.531817
v -9.014814 49.093086 8.447705
v 10.614187 49.093086 8.447705
v -7.941852 27.814751 8.059665
v 9.583964 27.814751 8.059665
v 16.865894 34.932217 8.189462
v 24.004517 34.932217 8.189462
v 16.476974 19.010916 7.899115
v 24.416962 19.010916 7.899115
v 15.057942 82.927788 0.506596
v 24.790365 86.245422 0.506596
v 15.597952 104.097977 0.733985
v 24.126629 100.945358 0.733985
vt 0.000000 0.000000
vt 1.000000 0.000000
vt 0.000000 1.000000
vt 1.000000 1.000000
vt 0.000000 0.000000
vt 1.000000 0.000000
vt 1.000000 1.000000
vt 0.000000 1.000000
vt 0.000000 0.000000
vt 1.000000 0.000000
vt 1.000000 1.000000
vt 0.000000 1.000000
vt 0.000000 0.000000
vt 1.000000 0.000000
vt 1.000000 1.000000
vt 0.000000 1.000000
vt 0.000000 0.620286
vt 1.000000 0.620286
vt 0.000000 0.610739
vt 1.000000 0.610739
vt 0.000000 0.599845
vt 1.000000 0.599845
vt 0.000000 0.629023
vt 1.000000 0.629023
vt 0.000000 0.612198
vt 1.000000 0.612198
vt 0.000000 0.618785
vt 1.000000 0.618785
vt 0.000000 0.629023
vt 1.000000 0.629023
vt 1.000000 1.000000
vt 0.000000 1.000000
vt 0.000000 0.000000
vt 1.000000 0.000000
vt 1.000000 1.000000
vt 0.000000 1.000000
vt 0.000000 0.000000
vt 1.000000 0.000000
vt 1.000000 1.000000
vt 0.000000 1.000000
vt 0.000000 0.000000
vt 1.000000 0.000000
vt 1.000000 1.000000
vt 0.000000 1.000000
vt 0.000000 0.618785
vt 1.000000 0.618785
vt 1.000000 0.620286
vt 0.000000 0.620286
vt 0.000000 0.599845
vt 1.000000 0.599845
vt 1.000000 0.610739
vt 0.000000 0.610739
vt 0.000000 0.000000
vt 1.000000 0.000000
vt 1.000000 0.612198
vt 0.000000 0.612198
vt 0.533656 1.000000
vt 0.533656 0.000000
vt 0.000000 0.904238
vt 1.000000 0.904238
vt 0.000000 0.758699
vt 1.000000 0.758699
vt 0.000000 0.476436
vt 1.000000 0.476436
vt 0.000000 0.287676
vt 1.000000 0.287676
vt 0.000000 0.350815
vt 1.000000 0.350815
vt 0.000000 0.209578
vt 1.000000 0.209578
vt 0.000000 0.746430
vt 1.000000 0.746430
vt 0.000000 0.857042
vt 1.000000 0.857042
vn -0.001462 -0.013107 0.999913
vn -0.000937 -0.012964 0.999916
vn -0.002111 0.033118 0.999449
vn -0.002112 0.033091 0.999450
vn 0.000000 0.726990 0.686648
vn 0.000000 0.726990 0.686648
vn 0.000000 0.999662 0.025995
vn -0.000000 0.999744 0.022607
vn 0.000000 1.000000 0.000000
vn -0.000000 1.000000 0.000000
vn 0.000000 0.925979 0.377574
vn 0.000000 0.925979 0.377574
vn 0.000000 0.472638 0.881257
vn 0.000000 0.472638 0.881257
vn 0.000000 0.005413 0.999985
vn 0.000000 0.004893 0.999988
vn 0.000000 0.724320 0.689464
vn 0.000000 0.724320 0.689464
vn 0.000000 -0.018233 0.999834
vn 0.000000 -0.018233 0.999834
vn 0.002574 -0.001753 0.999995
vn 0.002575 -0.001818 0.999995
vn 0.000000 0.941112 0.338096
vn 0.000000 0.941112 0.338096
vn 0.000000 -0.013602 0.999908
vn 0.000000 -0.013602 0.999908
vn 0.000000 0.052895 0.998600
vn 0.000000 0.053969 0.998543
vn 0.000000 0.726990 0.686648
vn 0.000000 0.726990 0.686648
vn 0.000000 0.999698 0.024586
vn 0.000000 0.999662 0.025995
vn 0.000000 1.000000 0.000000
vn 0.000000 1.000000 0.000000
vn 0.000000 0.925979 0.377574
vn 0.000000 0.925979 0.377574
vn 0.000000 0.472639 0.881256
vn 0.000000 0.472639 0.881256
vn 0.000000 0.025835 0.999666
vn 0.000000 0.022939 0.999737
vn 0.000000 0.724320 0.689464
vn 0.000000 0.724320 0.689464
vn 0.000000 -0.018233 0.999834
vn 0.000000 -0.018233 0.999834
vn 0.000000 -0.001167 0.999999
vn 0.000000 -0.001901 0.999998
vn 0.000000 0.941112 0.338096
vn 0.000000 0.941112 0.338096
vn 0.000000 1.000000 0.000001
vn 0.000000 1.000000 0.000001
vn 0.000000 -0.013602 0.999908
vn 0.000000 -0.013602 0.999907
vn 0.000000 -0.018233 0.999834
vn 0.000000 -0.018233 0.999834
vn 0.000000 -0.018233 0.999834
vn 0.000000 -0.018233 0.999834
vn 0.000000 -0.018233 0.999834
vn 0.000000 -0.018233 0.999834
vn 0.000000 -0.018233 0.999834
vn 0.000000 -0.018233 0.999834
vn 0.001078 -0.013534 0.999908
vn 0.001625 -0.014020 0.999900
s 1
g pPlane3
usemtl initialShadingGroup
f 61/73/1 62/74/2 4/4/3 3/3/4
f 3/5/4 4/6/3 6/7/5 5/8/6
f 5/9/6 6/10/5 8/11/7 7/12/8
f 7/13/8 8/14/7 10/15/9 9/16/10
f 21/27/11 22/28/12 12/18/13 11/17/14
f 15/21/15 16/22/16 14/20/17 13/19/18
f 55/67/19 56/68/20 16/22/16 15/21/15
f 11/17/14 12/18/13 18/24/21 17/23/22
f 13/19/18 14/20/17 20/26/23 19/25/24
f 19/25/24 20/26/23 22/28/12 21/27/11
f 47/59/25 48/60/26 26/31/27 25/32/28
f 25/33/28 26/34/27 28/35/29 27/36/30
f 27/37/30 28/38/29 30/39/31 29/40/32
f 29/41/32 30/42/31 32/43/33 31/44/34
f 43/45/35 44/46/36 34/47/37 33/48/38
f 37/49/39 38/50/40 36/51/41 35/52/42
f 51/63/43 52/64/44 38/50/40 37/49/39
f 33/48/38 34/47/37 40/30/45 39/29/46
f 35/52/42 36/51/41 42/55/47 41/56/48
f 41/56/48 42/55/47 44/46/36 43/45/35
f 7/13/8 9/16/10 45/57/49 46/58/50
f 46/58/50 45/57/49 32/43/33 30/42/31
f 49/61/51 50/62/52 48/60/26 47/59/25
f 39/29/46 40/30/45 50/62/52 49/61/51
f 53/65/53 54/66/54 52/64/44 51/63/43
f 23/53/55 24/54/56 54/66/54 53/65/53
f 57/69/57 58/70/58 56/68/20 55/67/19
f 1/1/59 2/2/60 58/70/58 57/69/57
f 17/23/22 18/24/21 60/72/61 59/71/62
f 59/71/62 60/72/61 62/74/2 61/73/1
