# This file uses centimeters as units for non-parametric coordinates.

mtllib M_CliffRock.mtl
g default
v -6.667692 15.435872 4.343255
v -6.667692 15.812272 -3.459901
v -1.400887 15.812272 -4.930728
v -1.400887 15.435872 3.574183
v -1.472118 18.470021 1.146673
v 1.675160 15.379155 0.064736
v -8.573286 15.551692 1.081977
v -1.402751 19.061232 -1.814159
v -8.014750 15.683884 -1.938215
v -3.284722 15.812272 -4.510942
v -3.944224 18.597798 -1.944305
v -3.980041 18.010499 1.018094
v -3.974679 15.435872 4.343255
v -7.177227 13.191241 4.418080
v -1.400889 12.071255 3.574183
v 0.629013 12.071255 1.593054
v -1.446805 11.532511 -5.377641
v -3.691774 10.731969 -4.957855
v -6.670460 12.008538 -3.779363
v -8.993496 13.048936 1.108473
v -4.329130 8.084490 4.343255
v -1.400880 8.811282 3.659389
v 0.602632 7.701411 2.292398
v -8.493340 6.754980 -2.245195
v -11.618441 7.552135 7.686649
v -7.043418 7.701411 7.744782
v -11.532429 4.333448 0.256631
v -13.161793 4.188152 2.908333
v -7.203279 -0.156290 7.744782
v -11.532394 -0.156290 0.256448
v -13.502205 -0.156290 3.514830
v -11.532413 3.074628 0.530119
v -13.269934 2.259718 3.059555
v -7.454793 5.259352 7.744782
v -6.195909 5.259352 6.140025
v -1.400886 4.287115 6.626970
v -5.847483 -0.156290 5.966960
v -1.400886 -0.156290 7.251139
v -8.791760 11.634849 6.011160
v -10.393966 11.912269 2.137688
v -9.656972 6.178909 -0.741271
v -2.763361 -0.156290 7.088213
v -2.763361 4.287115 6.455781
v -2.798123 8.675554 3.899807
v -2.763358 12.353028 3.917587
v -2.763356 15.435872 3.844557
v -2.817035 18.254460 1.079832
v -2.747668 18.845669 -1.881000
v -2.763353 15.812272 -4.714429
v -2.809272 10.975685 -5.161344
v 0.108171 -0.156290 6.444043
v 0.108172 4.287115 5.809304
v -0.101425 8.312127 3.044594
v -0.506216 12.071255 2.997709
v -0.667939 15.435872 2.997709
v -0.399449 18.693379 1.203503
v -0.026932 19.337033 -1.741999
v 0.457451 15.925913 -4.377313
v 0.654702 12.191321 -4.824226
v 7.726946 12.864428 1.879830
v 8.508427 13.045359 -2.316785
v 8.116434 15.553210 -2.262323
v 4.072062 12.586671 4.822526
v 7.947632 13.187991 -5.024149
v 6.650584 15.789570 -4.340623
v 4.438183 7.401564 5.868972
v 9.195450 8.290099 1.954481
v 9.846996 7.024108 -1.645046
v 8.960735 7.247282 -5.257275
v 4.647365 4.530421 5.803720
v 10.765313 3.817278 -2.773952
v 9.801639 3.745073 -5.487856
v 5.708208 -0.046714 6.957263
v 12.187298 0.279251 -2.472213
v 9.650805 0.241203 -5.843851
v 3.427864 16.142481 -5.818980
v 3.710636 8.365928 -6.247955
v 3.662383 15.432418 1.521013
v 2.497602 12.342652 4.052569
v 1.311787 12.057913 -5.728921
v 1.188009 16.130133 -5.327664
v -5.903854 17.094212 3.792851
v -6.117680 16.672085 4.083913
v -4.083168 17.430104 3.880660
v -3.987424 17.043761 4.191856
v -5.864909 18.459229 -2.863605
v -6.021821 18.164326 -3.239640
v -3.213230 18.781104 -4.133751
v -3.131530 19.078454 -3.745179
v -7.608977 17.375241 0.776254
v -7.945926 16.991410 0.788318
v -0.194090 18.174737 2.375084
v -0.503967 18.490187 2.155266
v 1.009385 18.652608 0.785786
v 0.625388 18.937806 0.631071
v -1.381300 19.504735 -4.024508
v -1.301009 19.242028 -4.443633
v 0.145990 19.701031 -3.405613
v 0.254178 19.438637 -3.818385
v -1.487267 17.631827 3.563306
v -1.616141 18.034848 3.245317
v -0.886914 17.782960 3.021986
v -0.840888 18.319535 2.646493
v -7.352534 17.657214 -2.149585
v -7.038224 18.011635 -1.943374
v 1.758777 19.364472 -1.702923
v 1.344216 19.627793 -1.750809
v 1.487971 19.893124 -2.794694
v 1.999200 19.699589 -3.049362
v -2.703394 19.258500 -3.859302
v -2.651698 18.991563 -4.299703
v -2.839903 17.375838 3.762626
v -2.872275 17.783654 3.437685
v 1.250126 4.454942 4.587896
v 1.716125 -0.165456 4.614733
v 0.251240 9.934401 1.916918
v -0.308273 10.233040 3.020636
v -1.400885 10.477130 3.615849
v -2.780358 10.554743 3.908893
v -3.964049 10.817121 4.449406
v -5.535096 10.087927 6.197137
v -6.887485 9.794306 7.761246
v -11.332657 9.234992 7.322824
v -12.807990 9.462702 2.785676
v -10.832185 10.166726 -0.533247
v -9.145990 8.933444 -1.645038
v -6.670460 8.460223 -3.912392
v 3.592673 10.663126 -6.125676
v 8.308718 11.052924 -5.138147
v 8.971994 10.964905 -2.362510
v 8.254051 10.744103 1.916334
v 4.060101 10.051153 5.503401
v 2.363828 9.928931 4.394921
v -6.069407 9.236203 -4.448418
v -4.932695 15.812272 -3.995926
v -4.671923 18.460768 -3.700240
v -4.551159 18.756848 -3.318179
v -5.551148 18.293362 -1.943822
v -5.864794 17.680566 0.892490
v -5.028774 17.255654 4.171449
v -5.093811 16.850724 4.472188
v -5.474245 15.435872 4.679648
v -6.067244 13.307007 4.818353
v -7.255812 11.989001 6.126814
v -9.196165 9.503816 8.606199
v -10.387781 5.470837 8.787245
v -9.678188 3.642605 8.788892
v -9.689363 -0.156290 8.885792
v -13.566631 6.115298 5.726277
v -13.238909 9.375392 5.464272
v -9.779635 11.805899 3.622886
v -8.542685 13.103499 2.899916
v -8.088224 15.507283 2.854889
v -7.490521 16.868973 2.574388
v -7.200781 17.267487 2.455349
v -5.544241 17.517644 2.020752
v -4.019583 17.787961 2.115682
v -2.838216 18.073941 1.983899
v -1.527341 18.303164 1.951352
v -0.568709 18.550038 1.756786
v 0.192361 18.766179 1.501688
v 0.547939 18.469380 1.681366
v 1.127698 15.350163 1.233507
v 3.010883 15.389088 2.565545
v 6.036347 12.757929 3.979128
v 6.356760 10.478408 4.197840
v 7.082168 6.329585 3.661144
v 6.970106 3.497862 4.476629
v 8.504401 0.061753 5.593563
v -12.440077 -0.156290 1.278723
v -12.302147 3.052668 1.260507
v -12.241665 5.618340 0.969591
v -12.019005 9.756352 0.847982
v -9.859398 12.256524 0.825438
v -9.042420 13.317542 -0.121054
v -8.632496 15.606831 -0.177751
v -7.990597 17.269120 -0.437087
v -7.663091 17.640683 -0.358108
v -5.733972 17.936165 -0.290541
v -3.965101 18.255463 -0.217528
v -2.788102 18.501053 -0.155137
v -1.443185 18.716618 -0.088296
v -0.244072 18.961850 -0.025072
v 0.925213 19.225602 -0.091848
v 1.321958 18.949528 0.018308
v 1.864133 15.567076 -0.177751
v 4.318412 15.604809 1.035017
v 8.781219 12.939896 -0.317847
v 9.281821 10.836200 -0.315641
v 10.195526 8.861552 -0.313335
v 4.856600 15.986298 -5.813517
v 5.309123 12.979666 -6.225906
v 5.523026 10.805863 -6.327563
v 6.806585 8.534435 -6.434064
v 4.832852 17.098420 -1.596555
v 4.266982 17.355023 -3.909122
v 2.175984 17.571355 -3.357787
v 2.437416 17.351899 -1.863295
v -1.431461 16.213132 3.570333
v -0.745445 16.266625 3.006302
v 0.342418 16.464787 1.858177
v 0.922492 16.581135 1.392027
v 1.439509 16.563901 0.319952
v -1.365535 17.026232 -4.758321
v -2.723833 16.937581 -4.567636
v -3.259418 16.863087 -4.377435
v -4.840395 16.749707 -3.891268
v -6.439086 16.644780 -3.381940
v -7.780358 16.382344 -2.013029
v -8.405295 16.195197 -0.269543
v -8.351233 16.061280 0.978036
v -7.876667 15.989253 2.755606
v -6.473015 15.873431 4.251461
v -5.339590 15.936661 4.606218
v -3.979190 16.004986 4.289668
v -2.790450 16.122523 3.815557
v 6.362239 16.874495 -1.994934
v 6.680683 15.491385 0.709805
v -14.631110 3.498995 6.745395
v -14.279293 5.144784 6.479842
v -13.874454 3.706890 3.661898
v -14.221079 2.140343 3.984218
v -14.874512 0.014167 7.050765
v -14.457720 0.014167 4.439492
v -13.478121 3.483109 9.707668
v -10.633703 2.736120 9.713554
v -11.004309 3.968536 9.229183
v -13.117953 5.999356 9.533400
v -13.732393 0.014167 9.894241
v -10.644877 0.014167 9.810455
v 9.288418 4.372050 4.002761
v 9.574697 2.544637 5.028500
v 13.252865 3.045528 3.486802
v 11.213009 6.575425 2.522593
v 12.040712 6.717895 0.399362
v 11.594563 4.932437 -0.902699
v 14.174392 3.129071 1.370005
v 12.301226 2.784804 -1.179294
v 10.054663 -0.015626 5.663394
v 13.359865 0.004258 4.129335
v 14.368917 0.003701 2.116228
v 13.128220 0.036735 -1.046347
v -5.575422 7.845455 6.245759
v -5.560009 7.402663 6.140025
v -5.306884 7.756577 5.881280
v -2.744977 7.887940 6.499370
v -2.798131 8.212144 6.225881
v -1.400886 8.183593 6.684370
v -1.400886 8.507171 6.403915
v 0.108171 7.694001 5.840565
v 0.052816 8.033278 5.555846
v 1.546778 7.699906 3.712988
v 1.212645 7.596652 3.316077
v 1.356693 7.317308 3.655983
v -5.195451 13.397933 4.624022
v -4.770748 13.151282 4.540077
v -4.678082 13.502388 4.498042
v -5.982281 12.282645 6.222710
v -5.585450 11.973755 6.242267
v -11.106461 10.614623 7.034860
v -10.803804 10.985438 6.866148
v -9.072669 11.275906 8.085938
v -9.102642 10.915131 8.464437
v -8.526148 13.624123 -1.524414
v -8.297041 13.775139 -1.952073
v -8.380713 13.250973 -1.846764
v -9.117849 12.344525 -1.631778
v -9.238468 12.656392 -1.214768
v -10.800644 12.040732 -0.544371
v -10.545616 12.382744 -0.277792
v -11.846662 11.280224 0.753855
v -11.458725 11.750280 0.748346
v -12.533239 10.785130 2.631383
v -12.182185 11.205790 2.532178
v -12.983818 10.650359 5.260336
v -12.648512 11.018803 5.073588
v -6.935162 11.448676 7.774260
v -7.134974 11.801829 7.484149
v -4.740282 13.063129 4.536653
v 7.197711 14.992024 1.241019
v 6.932947 15.329253 1.015941
v 8.165508 15.414725 -0.404096
v 0.484938 15.201192 1.735791
v 0.665721 14.875889 1.576683
v 0.836008 15.136029 1.436226
v 2.320101 14.749636 3.018284
v 2.533474 15.134808 2.794467
v 4.238226 14.752894 3.523335
v 4.222751 15.056372 3.124066
v 5.548630 15.004916 2.575950
v 5.898498 14.674786 2.756091
v 4.381383 16.762110 0.904157
v 4.457202 17.082284 0.535947
v 6.523745 16.732739 0.146479
v 6.656885 16.409070 0.489266
v 7.943968 16.236920 -0.528222
v 7.563146 16.571273 -0.696379
v 7.753932 16.418597 -2.312549
v 7.370786 16.726828 -2.257644
v 6.108144 17.128274 -4.123065
v 6.423886 16.805264 -4.347449
v 4.486212 17.496018 -5.374613
v 4.613158 17.187218 -5.768191
v 0.260553 17.923525 -4.194698
v 0.787668 17.801091 -4.111429
v 0.400975 17.475514 -4.223857
v 1.153582 17.643283 -5.234285
v 1.537862 17.964595 -5.045188
v 1.852150 17.360509 -0.146400
v 1.945992 16.999150 -0.222661
v 2.033742 17.336623 -0.568319
v 3.181296 17.766686 -5.331475
v 3.202921 17.466111 -5.732303
v -1.272892 10.021285 -10.095675
v -1.288325 8.131013 -10.297104
v -4.343994 9.648501 -9.564864
v -3.618393 9.797320 -9.814106
v -3.623363 8.107707 -9.969767
v -4.344335 8.103424 -9.705552
v -5.799247 8.109353 -9.277534
v -7.791860 6.294696 -7.695579
v -8.577106 3.761253 -5.192690
v -1.319717 4.641975 -10.562584
v -3.622528 4.624009 -10.234200
v -4.344355 4.619656 -9.969757
v -5.799303 4.625964 -9.541706
v -7.857997 4.555589 -7.910996
v -8.512812 2.826967 -5.565278
v -1.334063 0.072285 -10.826849
v -4.343483 0.058401 -10.282043
v -3.617973 0.061559 -10.531214
v -5.798348 0.064315 -9.852583
v -7.672366 -0.019694 -7.919693
v -8.650253 -0.106438 -5.312047
v -8.858602 6.387280 -3.734665
v -6.986938 8.486632 -4.742457
v -5.518027 9.303187 -5.997256
v 1.334501 10.365239 -8.567423
v 1.539281 6.126248 -8.685948
v 0.732344 2.615268 -9.032099
v 0.784167 0.118335 -9.861715
v -1.460649 11.588908 -6.493897
v -4.115321 10.741347 -6.035798
v -3.162341 11.023379 -6.255075
v -11.259544 4.863990 -1.607963
v -12.277863 2.790735 -1.943243
v -12.207241 3.353585 -0.857632
v -11.675504 4.563983 -0.857552
v -12.277852 -0.135297 -1.943297
v -12.207222 -0.135297 -0.857735
v -10.725483 4.960450 -2.972552
v -11.743809 2.472085 -2.972552
v -11.743809 -0.301684 -2.972552
v -11.110873 2.653073 -3.792790
v -10.063232 4.707157 -4.035428
v -9.254926 3.958530 -4.654882
v -9.871621 2.680786 -4.603582
v -11.122438 -0.122002 -3.770305
v -9.905138 -0.096768 -4.538423
v -7.848928 7.245711 -2.115306
v -7.883877 7.765902 -2.071957
v -7.666592 7.495386 -2.309470
v -8.185976 7.202021 -2.949760
v -7.986204 7.500668 -2.985553
v -8.516502 7.852780 -5.520786
v -8.682830 7.511157 -5.573775
v -7.608927 8.302413 -7.391116
v -7.534101 8.532291 -7.122935
v -5.705598 9.346697 -9.224109
v -5.773780 9.419015 -8.856586
v 1.251475 11.409797 -8.567423
v 1.238109 11.708575 -8.303902
v -1.383089 11.717348 -9.826479
v -1.361229 11.471671 -10.095675
v -3.702477 10.890804 -9.814106
v -3.675798 11.141888 -9.558113
v -4.757717 10.855907 -9.303682
v -4.713816 10.615914 -9.564864
v -5.380692 10.455998 -8.957964
v -5.615536 10.146744 -9.135532
v -5.093885 10.316174 -6.003405
v -5.329007 10.042398 -5.997256
v -5.838333 9.989713 -4.395483
v -5.839212 10.579947 -4.330320
v -5.556100 10.241660 -4.443423
v 3.207838 12.064818 -6.088966
v 3.603633 12.263507 -6.136131
v 3.501708 11.828254 -6.138610
v 7.296149 6.220996 -9.007808
v 8.464751 3.652203 -9.491518
v 5.886878 2.961214 -10.527035
v 5.792126 6.100615 -9.711514
v 5.792130 0.232221 -11.060624
v 7.614453 0.290481 -10.147318
v 10.274474 3.047088 -7.102227
v 8.589136 5.698544 -6.937500
v 8.999328 0.296317 -7.356549
v 3.499674 2.441600 -10.178013
v 2.843844 4.949842 -9.432194
v 3.682495 0.208540 -10.272160
vt 0.774586 0.270899
vt 0.731207 0.271214
vt 0.727775 0.261495
vt 0.691059 0.312741
vt 0.777504 0.305481
vt 0.719295 0.268821
vt 0.720808 0.229602
vt 0.772835 0.230890
vt 0.790459 0.272599
vt 0.796424 0.303710
vt 0.698695 0.263935
vt 0.705783 0.254458
vt 0.696695 0.208092
vt 0.714704 0.201659
vt 0.771582 0.202262
vt 0.786206 0.232976
vt 0.610419 0.315765
vt 0.588492 0.279336
vt 0.819432 0.275703
vt 0.830957 0.300476
vt 0.688871 0.178269
vt 0.715944 0.160947
vt 0.770572 0.161970
vt 0.783163 0.204624
vt 0.810612 0.236784
vt 0.594640 0.273939
vt 0.645179 0.326744
vt 0.628054 0.327946
vt 0.837659 0.291930
vt 0.827487 0.271016
vt 0.686454 0.144516
vt 0.717938 0.126445
vt 0.768950 0.128145
vt 0.781526 0.164226
vt 0.804301 0.208935
vt 0.819057 0.234989
vt 0.582818 0.274924
vt 0.629577 0.363146
vt 0.646376 0.363146
vt 0.611020 0.334629
vt 0.682567 0.090240
vt 0.778894 0.130231
vt 0.801518 0.168345
vt 0.813024 0.209209
vt 0.621174 0.264236
vt 0.571666 0.277876
vt 0.558574 0.243697
vt 0.588612 0.294701
vt 0.581825 0.293888
vt 0.652598 0.363285
vt 0.650905 0.327833
vt 0.648748 0.434467
vt 0.632209 0.428128
vt 0.797044 0.134039
vt 0.810575 0.171050
vt 0.563309 0.311726
vt 0.530883 0.294406
vt 0.528691 0.263394
vt 0.596615 0.352317
vt 0.588851 0.353522
vt 0.655776 0.430431
vt 0.630566 0.436480
vt 0.806637 0.140654
vt 0.503630 0.344861
vt 0.525126 0.318561
vt 0.474332 0.294406
vt 0.481573 0.271013
vt 0.516633 0.221019
vt 0.521873 0.246340
vt 0.612057 0.388728
vt 0.606833 0.394823
vt 0.664864 0.438288
vt 0.659410 0.444224
vt 0.561205 0.401742
vt 0.478445 0.313047
vt 0.415076 0.271015
vt 0.411294 0.294406
vt 0.494365 0.246342
vt 0.488025 0.214803
vt 0.602445 0.437694
vt 0.521682 0.406638
vt 0.482397 0.353328
vt 0.508113 0.332639
vt 0.479075 0.331473
vt 0.415378 0.312536
vt 0.415076 0.246344
vt 0.487526 0.198204
vt 0.545834 0.204816
vt 0.414599 0.221023
vt 0.523281 0.443698
vt 0.417703 0.406835
vt 0.415732 0.347574
vt 0.415951 0.329992
vt 0.513331 0.160755
vt 0.469505 0.157319
vt 0.639876 0.207579
vt 0.649202 0.238969
vt 0.414599 0.197790
vt 0.419612 0.450763
vt 0.633202 0.163543
vt 0.414599 0.146972
vt 0.466792 0.136305
vt 0.502394 0.143630
vt 0.674507 0.209718
vt 0.691791 0.239222
vt 0.663256 0.167049
vt 0.557128 0.096714
vt 0.631218 0.102668
vt 0.418472 0.125958
vt 0.497669 0.073553
vt 0.535072 0.079588
vt 0.699564 0.233164
vt 0.685190 0.209844
vt 0.672816 0.169304
vt 0.660193 0.107303
vt 0.628027 0.060431
vt 0.589782 0.052162
vt 0.418472 0.066614
vt 0.554493 0.010193
vt 0.497308 0.006232
vt 0.668566 0.111547
vt 0.659381 0.066975
vt 0.418472 0.001992
vt 0.634136 0.031264
vt 0.666210 0.034486
vt 0.667808 0.070809
vt 0.674409 0.043088
vt 0.415678 0.828082
vt 0.416916 0.771088
vt 0.478444 0.774329
vt 0.462910 0.833453
vt 0.373448 0.824934
vt 0.371488 0.768691
vt 0.417955 0.723807
vt 0.481035 0.725807
vt 0.463065 0.856536
vt 0.416820 0.847749
vt 0.336060 0.815328
vt 0.321543 0.766976
vt 0.371437 0.720882
vt 0.376269 0.843620
vt 0.401650 0.634247
vt 0.483742 0.639319
vt 0.496383 0.837924
vt 0.495353 0.865216
vt 0.415572 0.854754
vt 0.457966 0.863877
vt 0.301629 0.808118
vt 0.273834 0.764555
vt 0.320713 0.718789
vt 0.341176 0.822992
vt 0.371385 0.676006
vt 0.380090 0.851218
vt 0.353145 0.847532
vt 0.348133 0.826677
vt 0.427306 0.561368
vt 0.488982 0.559727
vt 0.268863 0.712751
vt 0.319846 0.663019
vt 0.355188 0.627288
vt 0.384779 0.586712
vt 0.391065 0.537904
vt 0.420448 0.480962
vt 0.497073 0.480098
vt 0.525671 0.543865
vt 0.521927 0.604122
vt 0.281060 0.618463
vt 0.306935 0.624050
vt 0.333129 0.545728
vt 0.388044 0.475451
vt 0.531451 0.481350
vt 0.579970 0.557617
vt 0.568978 0.615996
vt 0.510486 0.668571
vt 0.230885 0.642826
vt 0.239193 0.703041
vt 0.285022 0.543829
vt 0.316170 0.474700
vt 0.594874 0.481218
vt 0.232368 0.577575
vt 0.262527 0.554109
vt 0.270420 0.474713
vt 0.870856 0.083153
vt 0.845772 0.089940
vt 0.845228 0.046284
vt 0.862322 0.032405
vt 0.878216 0.131715
vt 0.846293 0.131715
vt 0.846293 0.208180
vt 0.878588 0.195454
vt 0.832245 0.095487
vt 0.833192 0.131715
vt 0.833192 0.208180
vt 0.874972 0.202847
vt 0.846098 0.227060
vt 0.833280 0.225845
vt 0.881780 0.201366
vt 0.872191 0.231564
vt 0.833439 0.258086
vt 0.845742 0.261521
vt 0.860443 0.270424
vt 0.886387 0.206233
vt 0.882784 0.234208
vt 0.876209 0.277121
vt 0.907149 0.233816
vt 0.912949 0.206891
vt 0.896562 0.281285
vt 0.918460 0.211162
vt 0.917747 0.251920
vt 0.914004 0.288033
vt 0.919480 0.243708
vt 0.927336 0.251377
vt 0.956766 0.251724
vt 0.953121 0.297463
vt 0.990730 0.256712
vt 0.983721 0.305079
vt 0.208434 0.856653
vt 0.206997 0.829401
vt 0.246017 0.824467
vt 0.247657 0.855734
vt 0.179077 0.832933
vt 0.180368 0.857310
vt 0.246217 0.793306
vt 0.208515 0.802828
vt 0.297890 0.855246
vt 0.283824 0.820537
vt 0.249176 0.886299
vt 0.209953 0.887218
vt 0.192086 0.809642
vt 0.181887 0.887875
vt 0.162081 0.858565
vt 0.166503 0.836779
vt 0.269940 0.790039
vt 0.206012 0.793812
vt 0.245129 0.783884
vt 0.294135 0.885293
vt 0.307415 0.853422
vt 0.293205 0.818078
vt 0.250614 0.913492
vt 0.211371 0.913966
vt 0.172300 0.819483
vt 0.188570 0.800915
vt 0.183290 0.914306
vt 0.161341 0.888357
vt 0.146283 0.842965
vt 0.132674 0.860584
vt 0.275728 0.778420
vt 0.291541 0.895023
vt 0.304144 0.884118
vt 0.250603 0.950011
vt 0.213031 0.954166
vt 0.157447 0.835308
vt 0.168217 0.811402
vt 0.186145 0.957139
vt 0.158346 0.915205
vt 0.128302 0.889131
vt 0.125447 0.857655
vt 0.137749 0.844011
vt 0.281837 0.927285
vt 0.300372 0.896879
vt 0.214566 0.998008
vt 0.250593 0.983807
vt 0.152451 0.828266
vt 0.188786 0.996778
vt 0.160504 0.949854
vt 0.118235 0.916650
vt 0.120917 0.888395
vt 0.271507 0.957142
vt 0.290520 0.930030
vt 0.150627 0.987501
vt 0.111626 0.938140
vt 0.111163 0.914474
vt 0.280052 0.960708
vt 0.120230 0.958027
vt 0.104792 0.939618
vt 0.113616 0.962886
vt 0.978741 0.208219
vt 0.952180 0.220661
vt 0.921907 0.177863
vt 0.945646 0.163057
vt 0.947573 0.227290
vt 0.916705 0.188713
vt 0.921671 0.120190
vt 0.957124 0.088729
vt 0.956691 0.148148
vt 0.984252 0.203924
vt 0.944381 0.231160
vt 0.911618 0.193562
vt 0.909214 0.150322
vt 0.952009 0.082712
vt 0.917577 0.112239
vt 0.964082 0.094462
vt 0.900141 0.149970
vt 0.989396 0.060718
vt 0.351021 0.156884
vt 0.317057 0.150943
vt 0.310995 0.096503
vt 0.363551 0.109364
vt 0.287627 0.160117
vt 0.262531 0.105041
vt 0.320049 0.061746
vt 0.389369 0.171386
vt 0.368149 0.188435
vt 0.254163 0.106764
vt 0.279772 0.162111
vt 0.271383 0.058076
vt 0.326019 0.038826
vt 0.368413 0.067521
vt 0.370704 0.197223
vt 0.393667 0.180119
vt 0.396856 0.104381
vt 0.395876 0.134037
vt 0.263592 0.055050
vt 0.290537 0.034454
vt 0.404985 0.133546
vt 0.405801 0.101496
vt 0.286716 0.025800
vt 0.373512 0.060345
vt 0.497369 0.934976
vt 0.550232 0.934976
vt 0.540154 0.969770
vt 0.505201 0.991991
vt 0.555696 0.903222
vt 0.493323 0.903222
vt 0.499321 0.997743
vt 0.491154 0.933768
vt 0.486950 0.903222
vt 0.512597 0.870185
vt 0.569668 0.873690
vt 0.506126 0.868927
vt 0.586762 0.857690
vt 0.563498 0.843826
vt 0.555773 0.840553
vt 0.201834 0.661438
vt 0.172891 0.663618
vt 0.131601 0.619094
vt 0.175637 0.632771
vt 0.219715 0.697770
vt 0.199903 0.693354
vt 0.137985 0.666246
vt 0.092259 0.646815
vt 0.130920 0.610492
vt 0.180178 0.626177
vt 0.210852 0.660994
vt 0.229367 0.699678
vt 0.174677 0.702451
vt 0.115534 0.720522
vt 0.050335 0.687554
vt 0.101573 0.754275
vt 0.060933 0.745310
vt 0.085380 0.642981
vt 0.042715 0.683309
vt 0.113721 0.784098
vt 0.077375 0.785850
vt 0.127833 0.830464
vt 0.098126 0.809170
vt 0.130574 0.839941
vt 0.092330 0.815229
vt 0.533399 0.753695
vt 0.520822 0.705936
vt 0.541382 0.691003
vt 0.558767 0.754010
vt 0.599902 0.692677
vt 0.634504 0.752247
vt 0.528483 0.784659
vt 0.553340 0.792683
vt 0.549565 0.647913
vt 0.605891 0.692374
vt 0.640622 0.751751
vt 0.628405 0.804352
vt 0.523859 0.804715
vt 0.548357 0.814341
vt 0.550693 0.641234
vt 0.634223 0.804958
vt 0.622623 0.828940
vt 0.547620 0.836580
vt 0.512168 0.847084
vt 0.628559 0.827942
vt 0.614766 0.843098
vt 0.014029 0.710426
vt 0.036739 0.750354
vt 0.024304 0.804453
vt 0.001978 0.768042
vt 0.021293 0.695061
vt 0.043931 0.731490
vt 0.070121 0.778871
vt 0.064309 0.843852
vt 0.794430 0.506041
vt 0.798913 0.590914
vt 0.751153 0.605887
vt 0.752197 0.508624
vt 0.811033 0.501400
vt 0.813846 0.593946
vt 0.720190 0.618541
vt 0.721233 0.508624
vt 0.753000 0.481035
vt 0.793146 0.470825
vt 0.810250 0.467012
vt 0.861936 0.501119
vt 0.856936 0.593789
vt 0.700134 0.624080
vt 0.709384 0.508624
vt 0.722131 0.483050
vt 0.789955 0.460643
vt 0.856824 0.471038
vt 0.865931 0.589274
vt 0.657765 0.635223
vt 0.671932 0.508624
vt 0.709960 0.484743
vt 0.723771 0.436371
vt 0.754467 0.430678
vt 0.789810 0.426210
vt 0.801934 0.463425
vt 0.894406 0.504669
vt 0.888873 0.477377
vt 0.904690 0.572998
vt 0.863614 0.599166
vt 0.651330 0.627535
vt 0.674030 0.487320
vt 0.711009 0.441154
vt 0.964653 0.568264
vt 0.935177 0.509140
vt 0.651350 0.640949
vt 0.632502 0.508624
vt 0.632439 0.595068
vt 0.637698 0.489704
vt 0.677859 0.448434
vt 0.833486 0.468646
vt 0.829468 0.420280
vt 0.972860 0.616786
vt 0.909551 0.622401
vt 0.865682 0.625644
vt 0.647180 0.455171
vt 0.987678 0.703274
vt 0.938722 0.674022
vt 0.868362 0.677851
vt 0.814362 0.632414
vt 0.812475 0.608675
vt 0.949848 0.726597
vt 0.915667 0.729333
vt 0.819016 0.728751
vt 0.755106 0.640231
vt 0.753098 0.607269
vt 0.976406 0.784976
vt 0.917820 0.800680
vt 0.848664 0.755486
vt 0.754755 0.683190
vt 0.915667 0.862700
vt 0.957082 0.861376
vt 0.863568 0.812489
vt 0.800677 0.808542
vt 0.754042 0.762482
vt 0.701688 0.683720
vt 0.701801 0.645321
vt 0.867723 0.863238
vt 0.801855 0.865288
vt 0.753716 0.866334
vt 0.701707 0.762891
vt 0.685311 0.648703
vt 0.685303 0.683817
vt 0.701811 0.866578
vt 0.685303 0.762990
vt 0.652239 0.683682
vt 0.654367 0.655562
vt 0.685323 0.866650
vt 0.652237 0.762846
vt 0.652259 0.866515
vt 0.356537 0.395941
vt 0.312596 0.411926
vt 0.286475 0.368412
vt 0.356537 0.368412
vt 0.310222 0.423684
vt 0.302613 0.413340
vt 0.304617 0.414032
vt 0.280072 0.337448
vt 0.356537 0.337448
vt 0.372142 0.369028
vt 0.369471 0.396043
vt 0.356537 0.430020
vt 0.308156 0.443497
vt 0.251570 0.395699
vt 0.245607 0.368798
vt 0.234998 0.431403
vt 0.277856 0.432547
vt 0.243843 0.337448
vt 0.374201 0.338143
vt 0.393078 0.396230
vt 0.400625 0.370152
vt 0.367918 0.426960
vt 0.305525 0.468722
vt 0.356537 0.457143
vt 0.202900 0.369202
vt 0.189468 0.403996
vt 0.182015 0.426217
vt 0.228325 0.462138
vt 0.265923 0.463221
vt 0.205985 0.337448
vt 0.406443 0.339411
vt 0.388691 0.421374
vt 0.366481 0.452718
vt 0.184035 0.432320
vt 0.180762 0.465682
vt 0.253797 0.512480
vt 0.221724 0.514605
vt 0.194641 0.307916
vt 0.238296 0.312617
vt 0.384631 0.444643
vt 0.173972 0.431969
vt 0.130069 0.541686
vt 0.177369 0.569654
vt 0.215614 0.563160
vt 0.088520 0.525560
vt 0.125263 0.475031
vt 0.125263 0.446421
vt 0.142080 0.603733
vt 0.095928 0.555698
vt 0.067919 0.547275
vt 0.002186 0.525814
vt 0.002186 0.469315
vt 0.002186 0.438503
vt 0.103168 0.368412
vt 0.185001 0.367994
vt 0.084896 0.611918
vt 0.006060 0.547529
vt 0.002186 0.368412
vt 0.191720 0.337448
vt 0.103168 0.337448
vt 0.006060 0.617697
vt 0.002186 0.337448
vt 0.103168 0.303153
vt 0.180593 0.303153
vt 0.002186 0.303153
vt 0.106982 0.277201
vt 0.172033 0.274779
vt 0.001978 0.266610
vt 0.173947 0.204748
vt 0.108697 0.199994
vt 0.004676 0.175885
vt 0.180728 0.270459
vt 0.007141 0.112338
vt 0.085231 0.147207
vt 0.234163 0.213341
vt 0.231385 0.251890
vt 0.178381 0.278052
vt 0.005383 0.077107
vt 0.063568 0.088015
vt 0.286240 0.248850
vt 0.291785 0.213069
vt 0.005835 0.001992
vt 0.074951 0.004424
vt 0.149585 0.144660
vt 0.105098 0.094521
vt 0.280072 0.291316
vt 0.231509 0.299902
vt 0.243872 0.161146
vt 0.295677 0.168428
vt 0.340941 0.252884
vt 0.341015 0.209292
vt 0.180762 0.291916
vt 0.155172 0.050782
vt 0.194140 0.096633
vt 0.343810 0.290482
vt 0.339240 0.171561
vt 0.215760 0.052451
vt 0.254081 0.080479
vt 0.242468 0.143080
vt 0.199846 0.185020
vt 0.799907 0.045893
vt 0.816659 0.025293
vt 0.827951 0.149948
vt 0.799268 0.123414
vt 0.727273 0.126995
vt 0.728131 0.071219
vt 0.754431 0.069788
vt 0.759819 0.125135
vt 0.725553 0.017534
vt 0.746408 0.018074
vt 0.712193 0.044692
vt 0.718590 0.104372
vt 0.703185 0.099888
vt 0.684816 0.082875
vt 0.901335 0.059198
vt 0.904717 0.075688
vt 0.882731 0.084093
vt 0.876484 0.061109
vt 0.911576 0.106632
vt 0.893394 0.104586
vt 0.896245 0.005894
vt 0.863283 0.007901
vn -0.184250 0.964810 0.187598
vn -0.196303 0.961195 0.193828
vn -0.205244 0.960362 0.188626
vn -0.182591 0.964568 0.190444
vn 0.381398 0.016503 0.924264
vn 0.377021 0.017279 0.926044
vn 0.702443 0.019557 0.711471
vn 0.689613 0.020925 0.723876
vn 0.252718 0.112721 -0.960952
vn 0.247175 0.112011 -0.962475
vn 0.017071 0.106666 -0.994148
vn 0.077907 0.112386 -0.990606
vn -0.815265 0.137262 -0.562586
vn -0.741459 0.074302 -0.666872
vn -0.932730 0.162336 -0.321967
vn -0.217178 0.105399 -0.970425
vn -0.230717 0.098591 -0.968013
vn -0.293372 0.106344 -0.950065
vn -0.296322 0.109335 -0.948810
vn -0.194114 0.963204 0.185899
vn -0.193508 0.962892 0.188130
vn -0.185939 0.964323 0.188435
vn -0.188436 0.964041 0.187394
vn 0.299882 0.013593 0.953880
vn 0.314041 0.000204 0.949409
vn 0.282122 0.017260 0.959223
vn 0.271737 0.011727 0.962300
vn -0.959456 0.218476 0.178081
vn -0.967927 0.173419 0.181780
vn -0.868285 0.175621 0.463939
vn -0.847684 0.219771 0.482838
vn 0.922902 0.289653 -0.253681
vn 0.947444 0.246880 -0.203469
vn 0.732243 0.257623 -0.630437
vn 0.699780 0.306091 -0.645458
vn -0.633039 0.040479 -0.773061
vn -0.549801 0.111645 -0.827801
vn -0.014794 0.082864 0.996451
vn -0.116340 0.081741 0.989840
vn 0.219681 0.002990 0.975567
vn -0.004946 0.067913 0.997679
vn 0.146205 0.053690 0.987796
vn 0.502492 -0.060890 0.862435
vn 0.524103 -0.017473 0.851476
vn 0.289458 -0.030067 0.956718
vn 0.290434 -0.002236 0.956892
vn 0.352258 0.003994 0.935894
vn 0.345873 -0.052121 0.936833
vn 0.743033 0.125716 0.657342
vn 0.700763 0.057512 0.711072
vn 0.341890 0.025621 0.939391
vn 0.333595 0.026867 0.942334
vn 0.616149 0.130044 0.776820
vn 0.620962 0.102454 0.777116
vn 0.733934 0.191800 0.651578
vn 0.773303 0.198921 0.602024
vn 0.955992 0.195776 -0.218520
vn 0.951148 0.282893 0.123649
vn 0.950608 0.310338 0.005877
vn 0.939287 0.233674 -0.251270
vn 0.803091 0.181009 -0.567698
vn 0.902964 0.229978 -0.362997
vn 0.314727 0.056160 -0.947519
vn 0.630806 0.056751 -0.773863
vn 0.587537 0.033966 -0.808484
vn 0.289620 0.060472 -0.955229
vn -0.297660 0.036157 -0.953987
vn -0.167642 0.047447 -0.984706
vn -0.188145 0.082102 -0.978704
vn -0.300769 0.074411 -0.950790
vn -0.530884 0.099150 -0.841625
vn -0.530935 0.140619 -0.835664
vn -0.852050 0.021263 -0.523028
vn -0.853211 0.040400 -0.519999
vn -0.619240 -0.021955 -0.784895
vn -0.660029 -0.058703 -0.748943
vn -0.994638 0.101504 0.019822
vn -0.972107 0.149253 0.180916
vn -0.960589 0.080179 -0.266160
vn -0.943813 0.037737 -0.328320
vn 0.395443 0.021278 0.918244
vn 0.585355 -0.000185 0.810777
vn 0.191185 0.424149 0.885182
vn 0.194559 0.322124 0.926490
vn 0.614237 0.374735 0.694468
vn 0.494798 0.567252 0.658332
vn 0.729641 0.329185 -0.599384
vn 0.816366 0.567293 -0.108289
vn 0.944803 0.313939 -0.093757
vn 0.805355 0.225062 -0.548407
vn 0.894920 0.226857 -0.384257
vn 0.892881 0.222661 -0.391389
vn 0.551645 0.079972 -0.830236
vn 0.239256 0.056063 -0.969337
vn -0.187861 0.067342 -0.979885
vn -0.300706 0.067730 -0.951309
vn -0.524902 0.049696 -0.849711
vn -0.800867 0.030092 -0.598086
vn -0.952790 -0.002852 -0.303617
vn -0.966742 0.052213 -0.250368
vn -0.816532 0.055981 -0.574579
vn -0.840028 0.002038 -0.542538
vn -0.727650 -0.005549 -0.685926
vn -0.982285 0.130360 0.134619
vn -0.905382 0.421666 0.049811
vn -0.888717 0.237426 -0.392188
vn -0.936986 0.057638 -0.344580
vn -0.458588 -0.036967 -0.887880
vn -0.505942 -0.084606 -0.858408
vn 0.779063 -0.029967 0.626229
vn 0.740108 -0.166566 0.651533
vn -0.724366 0.666103 -0.177767
vn -0.957368 0.167528 -0.235332
vn -0.965926 0.127093 0.225464
vn -0.796637 0.600256 0.071156
vn 0.241746 0.252444 0.936926
vn 0.596088 0.219238 0.772408
vn 0.991672 0.122102 -0.040965
vn 0.854244 0.130534 -0.503217
vn 0.854704 0.158095 -0.494457
vn 0.854704 0.158095 -0.494457
vn 0.187354 0.098518 -0.977340
vn 0.553943 0.130227 -0.822307
vn -0.299794 0.064421 -0.951826
vn -0.184697 0.061583 -0.980864
vn -0.540436 0.032608 -0.840753
vn -0.821356 -0.000623 -0.570415
vn -0.947801 -0.016454 -0.318439
vn -0.977748 -0.000002 -0.209785
vn -0.951018 -0.011459 0.308923
vn -0.838622 0.029772 -0.543899
vn -0.722050 0.042854 -0.690513
vn -0.983609 0.082932 0.160111
vn -0.950336 0.030843 -0.309694
vn 0.415029 0.020390 0.909580
vn 0.621684 0.028054 0.782766
vn 0.790728 0.034032 0.611220
vn -0.184937 0.066676 0.980486
vn -0.164672 0.040863 0.985502
vn -0.167632 0.024340 0.985549
vn -0.209758 0.038109 0.977011
vn 0.618745 0.106011 0.778406
vn 0.649543 0.073268 0.756787
vn 0.220895 0.070592 0.972739
vn 0.212315 0.136943 0.967558
vn 0.799506 -0.067071 0.596902
vn 0.772963 0.003267 0.634443
vn 0.743235 -0.036522 0.668033
vn -0.372697 0.905143 0.204485
vn -0.547863 0.787824 0.281389
vn -0.633364 0.762390 0.132707
vn -0.401303 0.906476 0.131365
vn -0.547081 0.017218 -0.836903
vn -0.588003 0.034890 -0.808106
vn -0.586424 0.035160 -0.809241
vn -0.717574 0.615327 -0.326284
vn -0.844893 0.159683 -0.510546
vn -0.846646 -0.000382 -0.532156
vn 0.842074 0.081904 0.533106
vn 0.850835 0.162395 0.499708
vn 0.778885 0.015270 0.626981
vn 0.753659 0.017883 0.657023
vn 0.297554 0.199398 -0.933650
vn 0.266717 0.169817 -0.948696
vn -0.065763 0.089520 -0.993812
vn -0.140011 0.078315 -0.987048
vn 0.199354 0.088015 -0.975967
vn 0.332578 0.144083 -0.932004
vn -0.078528 0.025815 -0.996578
vn -0.080321 0.023353 -0.996495
vn 0.422370 0.602823 -0.676911
vn 0.700933 0.162544 -0.694459
vn 0.080694 0.196489 -0.977180
vn -0.000650 0.569680 -0.821866
vn 0.088157 0.124550 -0.988289
vn 0.632070 -0.040595 -0.773847
vn -0.626648 0.224837 0.746164
vn -0.659224 0.095532 0.745854
vn 0.073889 0.111625 0.991000
vn 0.002913 0.336417 0.941709
vn -0.198259 0.081983 -0.976715
vn -0.085270 0.991058 0.102628
vn -0.110938 0.986421 0.121105
vn 0.003488 0.979834 0.199780
vn 0.014713 0.984740 0.173407
vn -0.757158 0.147711 0.636313
vn -0.778909 0.127123 0.614118
vn -0.800929 0.032023 -0.597902
vn -0.800543 0.029946 -0.598527
vn -0.443982 0.060112 -0.894017
vn -0.407279 0.071161 -0.910527
vn 0.112244 0.983526 0.141696
vn 0.103196 0.992452 0.066254
vn 0.132209 0.989587 0.056905
vn 0.132805 0.984118 0.117790
vn -0.114934 0.634956 0.763951
vn -0.025424 0.304980 0.952019
vn 0.255199 0.239761 0.936690
vn 0.103848 0.623595 0.774819
vn -0.740841 0.500809 0.447600
vn -0.643650 0.637157 0.423964
vn -0.743672 0.635713 0.206935
vn -0.855226 0.482960 0.187985
vn 0.185367 0.231972 0.954897
vn 0.036876 0.625954 0.778988
vn -0.466284 0.773430 -0.429401
vn -0.496509 0.328682 -0.803398
vn -0.781589 0.363305 -0.507078
vn -0.647186 0.719957 -0.250623
vn -0.336304 0.292540 -0.895165
vn -0.338412 0.791939 -0.508241
vn -0.362879 0.777843 -0.513107
vn -0.341774 0.280241 -0.897026
vn -0.285211 0.800913 -0.526491
vn -0.209470 0.276875 -0.937797
vn -0.895791 0.423467 -0.135037
vn -0.737873 0.674881 -0.008910
vn 0.650210 0.150459 0.744707
vn 0.344884 0.680635 0.646367
vn 0.417847 0.591135 0.689902
vn 0.656014 0.135297 0.742523
vn 0.377889 0.771456 0.511915
vn 0.763595 0.208298 0.611175
vn 0.823494 0.237536 0.515204
vn 0.429206 0.793382 0.431656
vn 0.459526 0.809610 0.365194
vn 0.827365 0.379822 0.413766
vn 0.905950 0.375030 0.196488
vn 0.478168 0.823841 0.304370
vn -0.041345 0.846376 -0.530979
vn 0.089205 0.299795 -0.949824
vn 0.097749 0.857100 -0.505791
vn 0.324569 0.360688 -0.874391
vn 0.281049 0.940482 -0.191062
vn 0.786492 0.370422 -0.494184
vn 0.342291 0.193716 0.919408
vn 0.190088 0.608995 0.770060
vn 0.371928 0.034740 0.927611
vn 0.691755 0.035354 0.721266
vn 0.822361 0.122027 0.555726
vn 0.910054 0.285531 0.300456
vn -0.830019 0.258677 -0.494121
vn -0.931096 0.336531 -0.140738
vn -0.201384 0.136519 -0.969952
vn -0.313275 0.130742 -0.940620
vn 0.293947 0.078982 0.952553
vn 0.253046 0.047454 0.966290
vn -0.193403 0.962851 0.188449
vn -0.187986 0.964965 0.183041
vn -0.188480 0.963889 0.188130
vn -0.187157 0.964114 0.188298
vn -0.180961 0.965403 0.187747
vn -0.207857 0.962006 0.177030
vn -0.194507 0.963672 0.183039
vn -0.183663 0.964926 0.187579
vn 0.814069 0.056740 0.577989
vn 0.858915 0.078892 0.506006
vn -0.867454 0.430465 0.249447
vn -0.773817 0.435191 0.460234
vn 0.955440 0.245729 0.163557
vn 0.832219 0.247562 -0.496110
vn -0.179867 0.964590 0.192910
vn -0.205535 0.959537 0.192469
vn -0.221304 0.959133 0.176320
vn -0.184556 0.964617 0.188292
vn -0.531445 0.190574 -0.825377
vn -0.309524 0.142093 -0.940215
vn -0.171838 0.965918 0.193581
vn -0.172274 0.965786 0.193852
vn -0.174933 0.966164 0.189539
vn -0.167170 0.970028 0.176352
vn -0.160891 0.971686 0.173036
vn -0.030143 0.181054 0.983011
vn 0.082929 0.140540 -0.986596
vn 0.777241 0.078160 0.624329
vn 0.737726 0.086796 0.669498
vn 0.689086 0.016906 0.724482
vn -0.156745 0.961209 0.226955
vn -0.190221 0.971844 0.139050
vn -0.209739 0.958951 0.190845
vn -0.193776 0.961580 0.194462
vn -0.214053 0.956682 0.197335
vn 0.407607 0.220404 -0.886159
vn 0.099380 0.102136 0.989794
vn -0.605136 0.033474 0.795418
vn -0.474878 0.127650 0.870745
vn -0.069492 0.151963 0.985940
vn -0.446956 0.073886 0.891500
vn -0.434385 0.043352 0.899683
vn -0.023673 0.223771 0.974354
vn 0.343847 0.043338 0.938025
vn 0.303027 0.041075 0.952096
vn -0.781868 -0.015622 -0.623249
vn -0.792770 -0.022813 -0.609093
vn -0.700471 0.014358 -0.713536
vn -0.083425 0.019115 -0.996331
vn 0.949166 0.240784 0.202748
vn 0.565670 0.308206 0.764870
vn 0.790828 0.266661 0.550893
vn -0.788045 0.043447 0.614083
vn -0.787569 0.047230 0.614414
vn -0.324539 0.102829 -0.940266
vn -0.581704 0.067866 -0.810565
vn -0.308466 0.111768 -0.944646
vn -0.166566 0.968772 0.183677
vn -0.161519 0.960115 0.228235
vn -0.167728 0.966663 0.193467
vn -0.149804 0.975782 0.159400
vn -0.158637 0.971791 0.174516
vn -0.386831 0.619318 0.683233
vn -0.523563 0.448593 0.724324
vn -0.548389 0.378000 0.745913
vn -0.620720 0.158946 0.767751
vn -0.574711 0.195154 0.794747
vn -0.231572 0.905134 0.356522
vn -0.174197 0.800277 0.573770
vn -0.416217 0.803543 0.425538
vn -0.291441 0.928197 0.231328
vn -0.603303 0.194058 0.773542
vn -0.613475 0.201887 0.763472
vn -0.620025 0.142062 0.771613
vn 0.265088 0.074558 0.961337
vn 0.248802 0.267893 0.930769
vn -0.492332 0.541254 0.681655
vn -0.607092 0.086010 0.789963
vn 0.256798 0.038725 0.965689
vn -0.532705 0.616579 0.579704
vn -0.152911 0.967748 0.200207
vn -0.158172 0.970337 0.182833
vn -0.177485 0.968060 0.177087
vn -0.193516 0.962947 0.187842
vn -0.172956 0.966708 0.188578
vn -0.210067 0.960127 0.184467
vn -0.216230 0.959740 0.179286
vn 0.528727 0.296174 0.795442
vn 0.483206 0.379975 0.788753
vn -0.893564 0.012545 -0.448762
vn -0.894807 0.021353 -0.445943
vn -0.808624 0.575531 -0.122028
vn -0.475597 0.872846 0.109301
vn -0.966633 0.206210 -0.151977
vn -0.978787 0.171115 -0.112674
vn -0.916315 0.390641 0.088122
vn 0.001375 0.926825 0.375490
vn -0.177535 0.948292 0.263105
vn 0.932191 0.037036 -0.360066
vn 0.791196 0.473663 -0.386849
vn 0.889574 -0.217102 -0.401903
vn 0.720837 0.037712 0.692078
vn 0.816641 0.054896 0.574529
vn 0.859852 0.060820 0.506908
vn 0.264075 0.119270 -0.957099
vn 0.280787 0.173099 -0.944032
vn 0.161310 0.984271 0.072040
vn -0.768272 0.636789 -0.065255
vn -0.817470 0.305638 -0.488190
vn -0.702516 -0.039449 -0.710574
vn -0.695435 -0.071543 -0.715019
vn 0.544536 0.145130 0.826086
vn 0.320093 0.403314 0.857251
vn -0.380257 0.769632 0.512905
vn 0.691477 0.019093 0.722146
vn 0.169334 0.435139 0.884297
vn 0.012535 0.336645 0.941548
vn 0.397332 0.602352 0.692315
vn 0.688387 0.346558 -0.637198
vn 0.746843 0.657360 -0.100517
vn 0.763612 0.334156 -0.552483
vn -0.081126 0.254297 0.963718
vn 0.797826 0.247421 -0.549780
vn -0.246735 0.896238 0.368617
vn -0.114739 0.042770 0.992475
vn -0.130724 0.069120 0.989006
vn -0.208467 0.941059 0.266363
vn 0.213687 0.068885 0.974470
vn 0.122892 0.962155 0.243221
vn 0.662629 0.085219 0.744084
vn 0.484844 0.857484 0.172183
vn 0.828426 0.161816 0.536215
vn 0.545278 0.836561 0.053277
vn -0.190872 0.971254 0.142241
vn -0.245437 0.960037 0.134500
vn 0.430328 0.901802 0.039645
vn 0.374633 0.922663 0.091346
vn -0.147439 0.977932 0.148026
vn 0.479516 0.877493 -0.008447
vn 0.731856 0.241021 0.637414
vn 0.188750 0.736323 0.649771
vn 0.074974 0.832237 0.549327
vn 0.739218 0.184195 0.647788
vn -0.058352 0.927706 0.368724
vn 0.537183 0.161002 0.827957
vn -0.599566 0.335611 0.726558
vn -0.269878 0.930233 0.248662
vn -0.355906 0.919547 0.166626
vn -0.891848 0.348136 0.288806
vn -0.104282 0.233873 0.966659
vn -0.247356 0.908242 0.337508
vn -0.821146 0.470206 -0.323460
vn -0.428850 0.053633 -0.901782
vn -0.698140 0.662925 -0.270428
vn -0.642350 0.126699 -0.755867
vn -0.343886 0.938658 0.025757
vn -0.862451 0.193314 -0.467769
vn -0.446729 0.892696 0.059383
vn -0.935628 0.273904 -0.222659
vn -0.415508 0.908470 0.045120
vn 0.791643 0.042640 0.609494
vn 0.777262 0.138103 0.613833
vn 0.799115 -0.071344 0.596930
vn 0.948238 0.265944 0.173548
vn 0.620353 -0.010205 0.784256
vn 0.698877 0.030685 0.714584
vn 0.761048 0.000942 0.648695
vn 0.748435 0.383950 0.540766
vn 0.241359 0.895932 0.372897
vn 0.174438 0.929222 0.325758
vn 0.545917 0.481380 0.685746
vn -0.406525 0.754045 0.515901
vn -0.722366 0.176484 0.668611
vn -0.602586 0.279151 0.747640
vn -0.259084 0.793744 0.550314
vn 0.021257 0.521476 0.853001
vn 0.066387 0.831351 0.551768
vn -0.162182 0.298601 0.940497
vn 0.092273 0.970960 0.220733
vn 0.037811 0.987526 0.152849
vn -0.387121 0.298677 0.872313
vn 0.357720 0.358212 0.862392
vn 0.223793 0.953618 0.201317
vn 0.822363 0.438595 0.362428
vn 0.359797 0.923354 0.134032
vn 0.846078 0.430284 -0.314655
vn 0.328873 0.944373 0.001540
vn 0.704225 0.373876 -0.603559
vn 0.289501 0.955985 -0.047772
vn 0.365424 0.307063 -0.878736
vn 0.254144 0.959349 -0.122722
vn -0.126553 0.220004 -0.967255
vn 0.138045 0.988041 -0.068687
vn -0.797896 0.186242 -0.573303
vn -0.037619 0.995894 0.082345
vn 0.029070 0.998592 -0.044377
vn -0.480827 0.210013 -0.851293
vn 0.130017 0.906994 0.400572
vn 0.346571 0.195341 0.917459
vn 0.605569 0.235946 0.760010
vn -0.427229 0.084998 0.900139
vn -0.191901 0.121689 0.973841
vn -0.680675 0.125790 -0.721705
vn -0.630584 0.459145 -0.625740
vn -0.475314 0.295924 -0.828556
vn -0.544869 0.050576 -0.836995
vn -0.660566 -0.005399 -0.750749
vn -0.546377 -0.019750 -0.837306
vn -0.251267 0.967651 -0.022716
vn -0.198466 0.974960 -0.100322
vn -0.087062 0.993739 -0.070027
vn -0.178927 0.983862 0.000285
vn -0.533337 0.836223 0.127602
vn -0.626326 0.778934 -0.031265
vn -0.416608 0.905500 0.080674
vn -0.463843 0.877831 0.119427
vn -0.281183 0.957694 0.061306
vn -0.301553 0.947719 0.104377
vn -0.269319 0.960411 0.071254
vn -0.316059 0.945684 0.076078
vn 0.724636 0.058988 -0.686602
vn 0.723052 0.061053 -0.688090
vn -0.256324 0.181557 -0.949387
vn -0.248166 0.418847 -0.873488
vn -0.257812 0.146305 -0.955054
vn -0.892313 0.031329 0.450328
vn -0.820016 0.511105 0.257576
vn -0.593615 0.798030 -0.103783
vn -0.880910 -0.019272 0.472892
vn -0.610186 0.768075 -0.194251
vn -0.623906 0.672866 -0.397483
vn -0.499758 0.312379 -0.807875
vn -0.560374 0.039957 -0.827275
vn -0.551789 -0.029948 -0.833446
vn -0.290993 0.108005 -0.950609
vn -0.734298 0.660137 0.158193
vn -0.539739 0.806958 0.239793
vn -0.568245 0.794747 0.213250
vn -0.923165 0.376441 0.077843
vn -0.570951 0.810806 0.128873
vn -0.963659 0.093364 -0.250289
vn -0.474925 0.878834 0.045787
vn -0.837767 0.142652 -0.527064
vn -0.492310 0.869857 -0.031288
vn 0.603812 0.173617 -0.777990
vn 0.024850 0.988882 -0.146612
vn 0.234162 0.903003 -0.360212
vn 0.710265 0.169742 -0.683163
vn 0.223628 0.179522 -0.957999
vn -0.134801 0.985998 -0.098170
vn -0.188535 0.147775 -0.970885
vn -0.272558 0.961889 -0.021940
vn -0.361289 0.168273 -0.917145
vn -0.349771 0.936676 0.017266
vn -0.875668 0.309832 -0.370417
vn -0.564815 0.823627 0.051219
vn -0.916412 0.399114 -0.029937
vn -0.480651 0.875114 0.056128
vn -0.882871 0.379146 -0.277105
vn -0.464836 0.883737 -0.054182
vn -0.988348 0.151667 -0.012892
vn -0.735620 0.669392 0.103812
vn -0.964061 0.259811 -0.055539
vn -0.916003 0.268364 -0.298194
vn -0.969648 0.131942 -0.205852
vn -0.966690 0.242072 0.083135
vn -0.589520 0.066466 -0.805015
vn -0.079153 0.749644 -0.657091
vn 0.317991 0.745255 -0.586070
vn 0.777516 0.489424 -0.394883
vn 0.965772 0.196665 -0.169134
vn 0.975147 -0.221325 -0.010207
vn -0.313530 0.174176 -0.933468
vn -0.229587 0.570031 -0.788895
vn -0.258536 0.172791 -0.950422
s 1
g pCube1
usemtl lambert2SG
f 182/217/1 183/218/2 57/219/3 8/220/4
s 2
f 4/193/5 15/192/6 54/188/7 55/189/8
f 58/388/9 59/389/10 17/390/11 3/391/12
f 9/1/13 265/2/14 264/3/15
f 49/395/16 50/394/17 18/401/18 10/402/19
s 1
f 11/239/20 180/240/21 181/228/22 48/227/23
s 2
f 13/468/24 257/469/25 45/470/26 46/471/27
f 7/15/28 20/14/29 152/22/30 153/23/31
s 8
f 62/128/32 61/129/33 64/130/34 65/131/35
s 2
f 19/4/36 265/2/14 9/1/13 2/5/37
f 142/479/38 143/480/39 255/472/40 13/468/24
f 145/504/41 146/509/42 26/502/43 122/495/44
f 44/492/45 119/482/46 120/481/47 21/493/48
f 53/505/49 117/506/50 118/485/51 22/497/52
s 8
f 166/158/53 167/167/54 67/159/55 131/150/56
f 130/134/57 189/140/58 190/152/59 68/142/60
f 129/135/61 130/134/57 68/142/60 69/143/62
s 15
f 314/442/63 338/437/64 339/441/65 315/447/66
f 316/459/67 317/454/68 318/453/69 319/460/70
f 320/463/71 369/464/72 316/459/67 319/460/70
s 2
f 172/88/73 173/96/74 125/97/75 27/68/76
f 149/107/77 150/108/78 124/100/79 28/94/80
f 146/509/42 147/512/81 34/513/82 26/502/43
s 19
f 231/552/83 232/546/84 233/550/85 234/560/86
f 236/161/87 235/160/88 237/169/89 238/162/90
s 8
f 69/143/62 68/142/60 71/156/91 72/157/92
s 15
f 339/441/65 340/451/93 323/452/94 315/447/66
f 318/453/69 324/458/95 325/462/96 319/460/70
f 326/466/97 320/463/71 319/460/70 325/462/96
f 327/81/98 328/82/99 322/64/100 321/74/101
s 2
f 171/87/102 172/88/73 27/68/76 32/79/103
s 22
f 219/110/104 220/111/105 221/103/106 222/102/107
s 2
f 125/564/75 126/565/108 41/566/109 27/567/76
f 34/513/82 35/514/110 244/508/111 26/502/43
s 23
f 345/58/112 346/67/113 347/78/114 348/69/115
s 19
f 232/546/84 239/545/116 240/549/117 233/550/85
f 238/162/90 237/169/89 241/178/118 242/170/119
s 8
f 72/157/92 71/156/91 74/163/120 75/164/121
s 15
f 329/457/122 323/452/94 340/451/93 341/456/123
f 330/465/124 325/462/96 324/458/95 331/461/125
f 332/467/126 326/466/97 325/462/96 330/465/124
f 333/91/127 334/92/128 328/82/99 327/81/98
s 23
f 347/78/114 346/67/113 349/76/129 350/86/130
s 2
f 170/98/131 171/87/102 32/79/103 30/89/132
s 22
f 223/118/133 219/110/104 222/102/107 224/109/134
s 2
f 147/512/81 148/518/135 29/519/136 34/513/82
f 37/520/137 35/514/110 34/513/82 29/519/136
s 24
f 42/525/138 43/521/139 35/514/140 37/520/141
f 51/532/142 52/530/143 36/527/144 38/529/145
s 2
f 245/494/146 121/483/147 243/501/148
f 151/31/149 152/22/150 20/14/151 40/21/152
f 126/45/108 361/26/153 360/37/154 24/46/155 41/47/109
s 23
f 351/57/156 352/66/157 346/67/113 345/58/112
f 349/76/129 346/67/113 352/66/157 353/77/158
s 24
f 36/527/144 43/521/139 42/525/138 38/529/145
s 2
f 118/485/51 119/482/46 44/492/45 22/497/52
f 46/471/27 45/470/26 15/475/6 4/476/5
s 1
f 48/227/23 181/228/22 182/217/1 8/220/4
s 2
f 17/390/11 50/394/17 49/395/16 3/391/12
s 15
f 315/447/66 318/453/69 317/454/68 314/442/63
f 323/452/94 324/458/95 318/453/69 315/447/66
f 331/461/125 324/458/95 323/452/94 329/457/122
s 2
f 116/183/159 117/184/50 53/185/49 23/186/160
f 55/189/8 54/188/7 16/187/161 284/190/162
s 8
f 191/414/163 192/416/164 387/406/165 76/399/166
f 193/431/167 194/435/168 77/436/169 128/432/170
s 28
f 389/439/171 390/444/172 391/445/173 392/440/174
f 393/448/175 391/445/173 390/444/172 394/449/176
s 8
f 79/547/177 133/543/178 132/542/179 63/548/180
f 386/400/181 76/399/166 387/406/165
f 6/277/182 163/278/183 164/279/184 78/280/185
f 16/553/186 116/554/187 133/543/178 79/547/177
f 59/389/188 58/388/189 81/392/190 80/393/191
f 197/295/192 198/296/193 195/297/194 196/298/195
s 2
f 140/271/196 141/275/197 85/272/198 84/266/199
f 154/43/200 155/55/201 90/44/202 91/35/203
f 84/266/199 85/272/198 112/267/204 113/256/205
f 86/29/206 87/20/207 104/19/208 105/30/209
f 136/269/210 137/259/211 89/248/212 88/260/213
f 88/260/213 89/248/212 110/236/214 111/249/215
f 177/25/216 178/36/217 105/30/209 104/19/208
f 92/263/218 93/252/219 103/245/220 102/258/221
f 161/241/222 162/253/223 94/242/224 95/229/225
f 184/224/226 185/234/227 106/235/228 107/223/229
f 96/225/230 97/237/231 111/249/215 110/236/214
f 97/237/231 96/225/230 98/226/232 99/238/233
f 99/238/233 98/226/232 108/233/234 109/247/235
f 100/257/236 101/246/237 113/256/205 112/267/204
f 101/246/237 100/257/236 102/258/221 103/245/220
f 107/223/229 106/235/228 109/247/235 108/233/234
f 100/199/236 199/196/238 200/195/239 102/200/221
f 185/210/227 309/209/240 311/212/241
f 104/19/208 209/9/242 210/16/243 177/25/216
f 205/403/244 206/409/245 88/420/213 111/410/215
f 85/487/198 215/478/246 216/477/247 112/488/204
s 1
f 12/243/248 157/255/249 158/244/250 47/230/251
f 159/231/252 160/232/253 56/221/254 5/222/255
s 2
f 162/204/223 202/203/256 203/205/257 94/207/224
f 91/35/203 211/24/258 212/34/259 154/43/200
f 106/214/228 198/213/260 197/215/261 109/216/235
s 1
f 96/225/262 8/220/4 57/219/3 98/226/263
f 89/248/264 11/239/20 48/227/23 110/236/265
s 2
f 208/10/266 209/9/242 104/19/208 87/20/207
f 206/409/245 207/419/267 136/427/210 88/420/213
s 1
f 137/259/268 138/250/269 11/239/20 89/248/264
f 138/250/269 179/251/270 180/240/21 11/239/20
f 139/254/271 156/265/272 157/255/249 12/243/248
s 2
f 141/499/197 214/489/273 215/478/246 85/487/198
f 112/488/204 216/477/247 199/486/238 100/498/236
s 1
f 47/230/251 158/244/250 159/231/252 5/222/255
f 110/236/265 48/227/23 8/220/4 96/225/262
s 2
f 204/396/274 205/403/244 111/410/215 97/411/231
s 24
f 114/533/275 52/530/143 51/532/142 115/535/276
s 2
f 102/200/221 200/195/239 201/198/277 92/201/218
s 1
f 95/229/278 56/221/254 160/232/253 161/241/279
f 107/223/280 57/219/3 183/218/2 184/224/281
f 98/226/263 57/219/3 107/223/280 108/233/282
s 2
f 197/428/261 305/413/283 99/412/233 109/429/235
s 8
f 66/536/284 252/539/285 254/534/286
f 70/537/287 114/533/288 115/535/289 73/538/290
s 2
f 16/187/161 54/188/7 117/184/50 116/183/159
f 118/191/51 117/184/50 54/188/7 15/192/6
f 15/475/6 45/470/26 119/482/46 118/485/51
f 279/473/291 45/470/26 257/469/25 256/474/292
f 127/17/293 362/18/294 266/6/295 19/4/36
s 8
f 192/416/164 193/431/167 128/432/170 388/417/296
f 64/130/34 61/129/33 130/134/57 129/135/61
f 61/129/33 188/133/297 189/140/58 130/134/57
f 165/149/298 166/158/53 131/150/56 60/139/299
f 133/543/178 116/554/187 23/559/300 253/544/301
f 132/542/179 133/543/178 252/539/285 66/536/284
s 15
f 327/81/98 326/90/97 332/99/126 333/91/127
f 321/74/101 320/80/71 326/90/97 327/81/98
s 2
f 19/425/36 384/418/302 383/423/303
f 2/424/37 135/408/304 384/418/302 19/425/36
f 87/433/207 136/427/210 207/419/267 208/426/266
f 87/273/207 86/268/206 137/259/211 136/269/210
s 1
f 105/262/305 138/250/269 137/259/268 86/268/306
f 178/261/307 179/251/270 138/250/269 105/262/305
f 155/270/308 156/265/272 139/254/271 90/264/309
s 2
f 82/274/310 83/276/311 141/275/197 140/271/196
f 213/500/312 214/489/273 141/499/197 83/507/311
f 14/490/313 143/480/39 142/479/38 1/491/314
f 144/335/315 143/339/316 14/346/317 39/340/318
f 25/510/319 146/509/42 145/504/41 123/511/320
s 22
f 225/523/321 226/517/322 227/516/323 228/515/324
f 229/528/325 230/524/326 226/517/322 225/523/321
f 225/120/321 219/110/104 223/118/133 229/123/325
f 228/119/324 220/111/105 219/110/104 225/120/321
s 2
f 123/116/320 150/108/78 149/107/77 25/117/319
f 14/32/317 152/22/150 151/31/149 39/41/318
f 153/23/31 152/22/30 14/32/313 1/33/314
f 154/43/200 212/34/259 213/42/312 83/54/311
f 83/54/311 82/63/327 155/55/201 154/43/200
s 1
f 82/274/328 140/271/329 156/265/272 155/270/308
f 157/255/249 156/265/272 140/271/329 84/266/330
f 158/244/250 157/255/249 84/266/330 113/256/331
f 159/231/252 158/244/250 113/256/331 101/246/332
f 103/245/333 160/232/253 159/231/252 101/246/332
f 161/241/279 160/232/253 103/245/333 93/252/334
s 2
f 93/252/219 92/263/218 162/253/223 161/241/222
f 201/198/277 202/203/256 162/204/223 92/201/218
s 8
f 132/542/179 166/555/53 165/556/298 63/548/180
f 66/175/284 167/167/54 166/158/53 132/176/179
f 70/180/287 168/181/335 167/167/54 66/175/284
f 73/538/290 169/540/336 168/541/335 70/537/287
s 2
f 33/95/337 171/87/102 170/98/131 31/101/338
f 28/94/80 172/88/73 171/87/102 33/95/337
f 124/100/79 173/96/74 172/88/73 28/94/80
f 20/14/151 175/7/339 174/13/340 40/21/152
f 176/8/341 175/7/342 20/14/29 7/15/28
f 177/25/216 210/16/243 211/24/343 91/35/203
f 91/35/203 90/44/202 178/36/217 177/25/216
s 1
f 90/264/309 139/254/271 179/251/270 178/261/307
f 180/240/21 179/251/270 139/254/271 12/243/248
f 181/228/22 180/240/21 12/243/248 47/230/251
f 182/217/1 181/228/22 47/230/251 5/222/255
f 56/221/254 183/218/2 182/217/1 5/222/255
f 184/224/281 183/218/2 56/221/254 95/229/278
s 2
f 95/229/225 94/242/224 185/234/227 184/224/226
f 94/207/224 203/205/257 309/209/240 185/210/227
s 8
f 187/285/344 186/286/345 6/277/182 78/280/185
f 189/140/58 188/133/297 60/139/299 131/150/56
f 190/152/59 189/140/58 131/150/56 67/159/55
s 19
f 237/169/89 235/160/88 234/168/86 233/177/85
f 241/178/118 237/169/89 233/177/85 240/182/117
s 8
f 64/421/34 192/416/164 191/414/163 65/422/35
f 129/430/61 193/431/167 192/416/164 64/421/34
f 69/434/62 194/435/168 193/431/167 129/430/61
s 28
f 395/165/346 390/172/172 389/173/171 396/166/347
f 394/179/176 390/172/172 395/165/346 397/171/348
s 2
f 200/195/239 199/196/238 4/193/5 55/189/8
f 201/198/277 200/195/239 55/189/8 283/194/349
f 203/205/257 202/203/256 163/202/350 6/206/351
f 306/397/352 204/396/274 304/404/353
f 49/395/16 205/403/244 204/396/274 3/391/12
f 10/402/19 206/409/245 205/403/244 49/395/16
f 135/408/304 207/419/267 206/409/245 10/402/19
f 208/426/266 207/419/267 135/408/304 2/424/37
f 2/5/37 9/1/13 209/9/242 208/10/266
f 210/16/243 209/9/242 9/1/13 176/8/341
f 211/24/343 210/16/243 176/8/341 7/15/28
f 212/34/259 211/24/258 7/15/28 153/23/31
f 213/42/312 212/34/259 153/23/31 1/33/314
f 1/491/314 142/479/38 214/489/273 213/500/312
f 215/478/246 214/489/273 142/479/38 13/468/24
f 216/477/247 215/478/246 13/468/24 46/471/27
f 199/486/238 216/477/247 46/471/27 4/476/5
s 8
f 196/298/195 195/297/194 217/301/354
s 22
f 149/107/355 28/94/356 221/103/106 220/111/105
f 28/94/356 33/95/357 222/102/107 221/103/106
f 33/95/357 31/101/358 224/109/134 222/102/107
f 147/512/359 146/509/360 227/516/323 226/517/322
f 146/509/360 25/510/361 228/515/324 227/516/323
f 148/518/362 147/512/359 226/517/322 230/524/326
f 25/117/361 149/107/355 220/111/105 228/119/324
s 19
f 167/551/363 168/541/364 232/546/84 231/552/83
f 67/561/365 167/551/363 231/552/83 234/560/86
f 68/142/366 190/152/367 235/160/88 236/161/87
f 71/156/368 68/142/366 236/161/87 238/162/90
f 168/541/364 169/540/369 239/545/116 232/546/84
f 74/163/370 71/156/368 238/162/90 242/170/119
f 190/152/367 67/159/365 234/168/86 235/160/88
s 2
f 243/501/148 121/483/147 122/495/44 26/502/43
s 24
f 245/322/371 244/325/372 246/326/373 247/319/374
f 247/319/374 246/326/373 248/327/375 249/324/376
f 249/324/376 248/327/375 250/330/377 251/328/378
f 251/328/378 250/330/377 254/333/379 253/332/380
f 43/521/139 246/522/373 244/508/372 35/514/140
f 52/530/143 250/531/377 248/526/375 36/527/144
f 247/319/374 44/320/381 21/321/382 245/322/371
f 251/328/378 53/329/383 22/323/384 249/324/376
f 248/526/375 246/522/373 43/521/139 36/527/144
f 22/323/385 44/320/381 247/319/374 249/324/376
f 23/331/386 53/329/383 251/328/378 253/332/380
f 114/533/275 254/534/379 250/531/377 52/530/143
s 2
f 243/501/148 244/508/111 245/494/146
s 8
f 252/539/285 253/544/301 254/534/286
s 2
f 256/345/387 255/338/388 258/334/389 259/344/390
f 259/344/390 258/334/389 278/337/391 277/343/392
f 260/351/393 261/341/394 276/348/395 275/352/396
f 261/126/394 260/122/393 263/125/397 262/127/398
f 262/336/398 263/342/397 277/343/392 278/337/391
f 264/3/399 266/6/295 267/11/400 268/12/401
f 268/355/401 267/357/400 269/358/402 270/356/403
f 270/112/403 269/105/402 271/104/404 272/113/405
f 272/113/405 271/104/404 273/106/406 274/114/407
f 274/114/407 273/106/406 275/115/396 276/121/395
f 258/334/389 144/335/315 262/336/398 278/337/391
f 272/354/405 174/353/340 268/355/401 270/356/403
f 276/348/395 151/347/149 40/349/152 274/350/407
f 258/334/389 255/338/388 143/339/316 144/335/315
f 174/13/340 175/7/339 264/3/399 268/12/401
f 121/483/147 120/481/408 279/473/409 256/474/387 259/484/390
f 122/495/44 121/483/147 259/484/390 277/496/392
f 263/503/397 145/504/41 122/495/44 277/496/392
f 150/108/78 275/115/396 273/106/406 124/100/79
f 173/96/74 271/104/404 269/105/402 125/97/75
f 267/11/400 126/45/108 125/97/75 269/105/402
f 267/568/400 266/569/295 361/570/153 126/571/108
f 262/336/398 144/335/315 39/340/318 261/341/394
f 123/116/320 145/124/41 263/125/397 260/122/393
f 260/122/393 275/115/396 150/108/78 123/116/320
f 39/340/318 151/347/149 276/348/395 261/341/394
f 273/106/406 271/104/404 173/96/74 124/100/79
f 40/349/152 174/353/340 272/354/405 274/350/407
f 255/472/40 256/474/292 257/469/25
f 264/3/399 265/2/14 266/6/295
f 21/493/410 120/481/408 121/483/147 245/494/146
f 26/502/43 244/508/111 243/501/148
s 8
f 133/543/178 253/544/301 252/539/285
f 66/536/284 254/534/286 114/533/288 70/537/287
s 2
f 13/468/24 255/472/40 257/469/25
f 120/481/47 119/482/46 45/470/26 279/473/291
f 9/1/13 264/3/15 175/7/342 176/8/341
f 19/4/36 266/6/295 265/2/14
s 8
f 282/132/411 188/133/297 61/129/33 62/128/32
s 2
f 283/194/349 285/197/412 201/198/277
f 304/404/353 204/396/274 97/411/231 99/412/233
f 310/211/413 309/209/240 186/208/414
s 8
f 280/290/415 281/284/416 290/283/417 291/291/418
f 281/151/416 280/138/415 282/132/411
f 285/281/419 284/287/420 286/288/421 287/282/422
f 287/282/422 286/288/421 288/293/423 289/289/424
f 289/289/424 288/293/423 291/291/418 290/283/417
f 292/304/425 293/300/426 311/299/427 310/305/428
f 293/300/426 292/304/425 295/313/429 294/306/430
f 294/306/430 295/313/429 296/317/431 297/314/432
f 297/153/432 296/141/431 298/137/433 299/146/434
f 299/146/434 298/137/433 301/136/435 300/147/436
f 300/308/436 301/318/435 303/316/437 302/311/438
f 302/311/438 303/316/437 313/315/439 312/312/440
f 306/309/441 305/303/442 308/302/443 307/310/444
f 307/310/444 308/302/443 312/312/440 313/315/439
f 291/148/418 165/149/298 60/139/299 280/138/415
f 217/301/354 294/306/430 297/314/432 299/307/434
f 78/280/185 164/279/184 290/283/417 281/284/416
f 286/557/421 79/547/177 63/548/180 288/558/423
f 196/298/195 217/301/354 299/307/434 300/308/436
f 302/311/438 196/298/195 300/308/436
f 286/557/421 284/562/420 16/553/186 79/547/177
f 308/302/443 305/303/442 197/295/192 196/298/195
f 198/296/193 311/299/427 293/300/426 195/297/194
f 164/279/184 163/278/183 285/281/419 287/282/422
f 290/283/417 164/279/184 287/282/422 289/289/424
f 63/548/180 165/556/298 291/563/418 288/558/423
f 281/284/416 282/294/411 218/292/445
f 280/138/415 60/139/299 188/133/297 282/132/411
f 308/302/443 196/298/195 302/311/438 312/312/440
f 295/154/429 218/155/446 282/132/447 296/141/431
f 62/128/32 65/131/35 301/136/435 298/137/433
f 65/131/35 191/144/163 303/145/437 301/136/435
f 81/392/190 58/388/189 306/397/441 307/398/444
f 186/572/448 187/573/449 292/574/425 310/575/428
f 191/414/163 76/399/166 313/405/439 303/415/437
f 76/399/166 81/392/190 307/398/444 313/405/439
f 195/297/194 293/300/426 294/306/430 217/301/354
f 187/573/449 218/576/446 295/577/429 292/574/425
f 281/284/416 218/292/445 187/285/344 78/280/185
f 282/132/411 62/128/32 298/137/433 296/141/431
s 2
f 283/194/349 284/190/162 285/197/412
f 304/404/353 305/413/283 306/397/352
f 309/209/240 310/211/413 311/212/241
f 99/412/233 305/413/283 304/404/353
f 3/391/12 204/396/274 306/397/352 58/388/9
f 186/208/414 309/209/240 203/205/257 6/206/351
f 185/210/227 311/212/241 198/213/260 106/214/228
f 201/198/277 285/197/412 163/202/350 202/203/256
f 55/189/8 284/190/162 283/194/349
s 23
f 354/75/450 355/65/451 356/83/452 357/84/453
f 358/85/454 354/75/450 357/84/453 359/93/455
s 15
f 17/359/456 59/360/457 80/361/458 342/362/459
s 23
f 353/77/158 352/66/157 354/75/450 358/85/454
f 352/66/157 351/57/156 355/65/451 354/75/450
s 15
f 127/17/460 134/28/461 337/38/462 336/40/463
f 18/371/464 50/365/465 344/366/466 343/372/467
f 50/365/465 17/359/456 342/362/459 344/366/466
f 339/441/65 338/437/64 128/432/468 77/436/469
s 28
f 392/440/174 391/445/173 398/450/470 399/446/471
f 400/455/472 398/450/470 391/445/173 393/448/175
s 23
f 32/79/473 27/68/474 348/69/115 347/78/114
f 27/68/474 41/47/475 345/58/112 348/69/115
f 30/89/476 32/79/473 347/78/114 350/86/130
f 41/47/475 24/46/477 351/57/156 345/58/112
f 335/578/478 322/579/479 356/580/452 355/581/451
f 322/64/479 328/82/480 357/84/453 356/83/452
f 328/82/480 334/92/481 359/93/455 357/84/453
f 24/46/477 335/56/478 355/65/451 351/57/156
s 2
f 385/407/482 135/408/304 10/402/19 18/401/18
s 15
f 360/37/483 362/18/484 364/48/485 363/49/486
f 363/49/486 364/48/485 365/59/487 366/60/488
f 366/60/488 365/59/487 368/70/489 367/71/490
f 367/71/490 368/70/489 370/53/491 369/62/72
f 371/368/492 372/363/493 386/367/494 388/373/495
f 372/363/493 371/368/492 374/369/496 373/364/497
f 373/364/497 374/369/496 375/374/498 376/370/499
f 376/370/499 375/374/498 378/378/500 377/375/501
f 377/72/501 378/73/500 380/52/502 379/61/503
f 379/61/503 380/52/502 382/39/504 381/50/505
f 381/50/505 382/39/504 383/27/506 385/51/507
f 321/74/101 322/64/100 366/60/488 367/71/490
f 367/71/490 369/62/72 320/80/71 321/74/101
f 342/362/459 80/361/458 372/363/493 373/364/497
f 343/372/467 344/366/466 376/370/499 377/375/501
f 381/376/505 343/372/467 377/375/501 379/379/503
f 335/56/508 363/49/486 366/60/488 322/64/100
f 364/380/485 336/381/463 368/382/489 365/383/487
f 344/366/466 342/362/459 373/364/497 376/370/499
f 336/381/463 337/386/462 370/387/491 368/382/489
f 24/46/509 360/37/483 363/49/486 335/56/508
f 364/380/485 362/384/484 127/385/460 336/381/463
f 381/376/505 385/377/507 18/371/464 343/372/467
f 372/363/493 80/361/458 386/367/494
f 338/437/64 314/442/63 374/443/496 371/438/492
f 317/582/68 316/583/67 378/584/500 375/585/498
f 314/588/63 317/582/68 375/585/498 374/589/496
f 337/38/510 134/28/511 383/27/506 382/39/504
f 128/432/468 338/437/64 371/438/492 388/417/495
f 369/62/512 370/53/513 380/52/502
s 2
f 360/37/154 361/26/153 362/18/294
f 383/423/303 384/418/302 385/407/482
s 8
f 386/400/181 387/406/165 388/417/296
s 15
f 316/583/67 369/586/72 380/587/502 378/584/500
s 2
f 266/6/295 362/18/294 361/26/153
f 19/4/36 383/27/303 134/28/514 127/17/293
f 385/407/482 384/418/302 135/408/304
s 8
f 80/393/191 81/392/190 76/399/166 386/400/181
f 192/416/164 388/417/296 387/406/165
s 15
f 380/52/502 370/53/513 337/38/510 382/39/504
s 28
f 77/436/515 194/435/516 389/439/171 392/440/174
f 194/174/516 69/143/517 396/166/347 389/173/171
f 69/143/517 72/157/518 395/165/346 396/166/347
f 72/157/518 75/164/519 397/171/348 395/165/346
f 340/451/520 339/441/521 399/446/471 398/450/470
f 339/441/521 77/436/515 392/440/174 399/446/471
f 341/456/522 340/451/520 398/450/470 400/455/472
