# This file uses centimeters as units for non-parametric coordinates.

mtllib M_Palm2.mtl
g default
v 4.125362 13.461140 0.931130
v 8.538263 16.136187 -9.743542
v -0.826703 12.841941 -1.329140
v 3.586197 15.516993 -12.003810
v 1.381976 14.843342 -0.395646
v 5.794873 17.518396 -11.070316
v 5.040059 16.349295 -1.864102
v 2.296673 17.731501 -3.190877
v 0.087998 15.730101 -4.124372
v 6.280330 17.389635 -4.866429
v 3.536944 18.771847 -6.193206
v 1.328269 16.770443 -7.126702
v 7.497146 17.464540 -7.552886
v 4.753755 18.846750 -8.879660
v 2.545080 16.845345 -9.813157
v -3.204433 13.773258 3.145843
v 11.174651 6.614943 12.089290
v 1.107019 13.117989 -4.144281
v 15.486109 5.959670 4.799166
v 0.561779 15.512705 0.029703
v 14.940873 8.354389 8.973151
v 2.271542 14.738455 6.297632
v 6.037759 16.477900 3.181494
v 6.582994 14.083181 -0.992492
v 6.529709 13.086615 8.964431
v 10.295931 14.826063 5.848293
v 10.841166 12.431344 1.674309
v 9.665855 10.492388 11.052363
v 13.432073 12.231837 7.936222
v 13.977308 9.837118 3.762237
v 1.030270 12.634397 5.503174
v -9.480650 1.720792 -6.127330
v 5.914824 15.145891 -1.405843
v -4.596097 4.232282 -13.036347
v 1.523540 15.576221 1.012859
v -8.987390 4.662617 -10.617650
v -4.272849 12.064847 1.546923
v -3.779588 15.006672 -2.943396
v 0.611705 14.576338 -5.362095
v -7.594217 9.265471 -1.818823
v -7.100952 12.207294 -6.309142
v -2.709659 11.776965 -8.727841
v -9.580267 5.852395 -4.463613
v -9.087006 8.794217 -8.953928
v -4.695708 8.363885 -11.372630
v 4.116797 13.489229 0.940647
v 8.529698 16.164278 -9.734024
v -0.835264 12.870033 -1.319623
v 3.577632 15.545084 -11.994293
v 1.373411 14.871435 -0.386128
v 5.786308 17.546488 -11.060799
v 5.031499 16.377388 -1.854584
v 2.288108 17.759592 -3.181358
v 0.079433 15.758192 -4.114854
v 6.271769 17.417728 -4.856912
v 3.528378 18.799938 -6.183688
v 1.319703 16.798534 -7.117183
v 7.488580 17.492632 -7.543367
v 4.745190 18.874844 -8.870142
v 2.536515 16.873436 -9.803638
v 1.055219 12.591510 5.506538
v -9.455702 1.677898 -6.123966
v 5.939773 15.102999 -1.402479
v -4.571148 4.189390 -13.032984
v 1.548489 15.533329 1.016222
v -8.962440 4.619724 -10.614285
v -4.247900 12.021955 1.550287
v -3.754639 14.963779 -2.940032
v 0.636654 14.533445 -5.358731
v -7.569269 9.222578 -1.815460
v -7.075998 12.164403 -6.305778
v -2.684711 11.734068 -8.724477
v -9.555318 5.809501 -4.460249
v -9.062052 8.751325 -8.950566
v -4.670759 8.320991 -11.369267
v -2.051934 13.370036 -1.074528
v -2.971869 15.070862 10.623296
v 3.385711 12.973107 -0.536333
v 2.465770 14.673933 11.161490
v 0.899409 14.863237 -0.567644
v -0.020531 16.564066 11.130181
v -2.172219 16.010735 2.088332
v 0.779124 17.503941 2.595219
v 3.265426 15.613810 2.626528
v -2.444263 16.775858 5.401207
v 0.507080 18.269064 5.908094
v 2.993382 16.378931 5.939403
v -2.746988 16.600586 8.330529
v 0.204355 18.093794 8.837415
v 2.690656 16.203661 8.868725
v -2.055641 13.340878 -1.065088
v -2.975577 15.041700 10.632737
v 3.382003 12.943952 -0.526893
v 2.462063 14.644775 11.170931
v 0.895702 14.834080 -0.558204
v -0.024238 16.534906 11.139621
v -2.175926 15.981577 2.097772
v 0.775417 17.474783 2.604659
v 3.261719 15.584650 2.635968
v -2.447970 16.746698 5.410648
v 0.503373 18.239904 5.917534
v 2.989675 16.349771 5.948843
v -2.750695 16.571428 8.339971
v 0.200648 18.064634 8.846856
v 2.686949 16.174501 8.878165
v -1.741720 13.687710 -3.419042
v -9.966891 10.519233 9.648908
v 4.417854 13.308327 0.449531
v -3.807318 10.139853 13.517483
v 1.023298 15.521769 -0.455768
v -7.201874 12.353294 12.612183
v -4.396394 15.565849 0.991936
v -1.631382 17.399912 3.955210
v 1.763180 15.186470 4.860510
v -6.814784 15.022114 4.789194
v -4.049771 16.856174 7.752470
v -0.655210 14.642738 8.657770
v -8.798986 13.472340 7.796473
v -6.033969 15.306404 10.759748
v -2.639413 13.092964 11.665046
v -1.743693 13.646791 -3.421516
v -9.968865 10.478312 9.646437
v 4.415881 13.267408 0.447057
v -3.809291 10.098931 13.515009
v 1.021324 15.480848 -0.458242
v -7.203848 12.312373 12.609709
v -4.398367 15.524929 0.989462
v -1.633350 17.358990 3.952736
v 1.761206 15.145548 4.858037
v -6.816757 14.981192 4.786720
v -4.051745 16.815254 7.749996
v -0.657184 14.601814 8.655296
v -8.800960 13.431419 7.793999
v -6.035943 15.265484 10.757275
v -2.641386 13.052044 11.662572
v -3.784822 13.179852 1.903640
v 1.273941 3.598726 -12.995049
v 4.419964 14.241451 3.906648
v 9.478726 4.660324 -10.992043
v 0.758916 15.538446 0.997337
v 5.817679 5.957314 -13.901350
v -2.265356 13.175267 -4.318019
v 2.278382 15.533859 -5.224327
v 5.939425 14.236866 -2.315018
v -0.853978 10.787370 -8.833783
v 3.689765 13.145958 -9.740093
v 7.350808 11.848964 -6.830780
v 0.317306 7.661376 -11.974849
v 4.861044 10.019969 -12.881155
v 8.522091 8.722975 -9.971844
v -0.360590 13.852596 4.195558
v 12.488124 5.223446 1.210195
v -1.583885 14.381765 -2.965005
v 11.264824 5.752614 -5.950367
v 0.711580 15.631489 0.261592
v 13.560293 7.002336 -2.723771
v 5.036935 13.691835 3.261575
v 6.109105 15.470728 -0.672391
v 3.813635 14.221003 -3.898988
v 8.932885 11.523202 2.435735
v 10.005059 13.302094 -1.498231
v 7.709595 12.052371 -4.724827
v 11.629526 8.754076 1.770407
v 12.701700 10.532969 -2.163558
v 10.406231 9.283244 -5.390155
v -2.423595 12.724033 1.402713
v 6.112694 14.421011 13.670746
v 3.332543 12.444331 -2.482693
v 11.868836 14.141306 9.785341
v 0.854314 14.730001 -0.400710
v 9.390607 16.426985 11.867327
v -0.015367 15.952473 4.738041
v 3.262546 17.958443 2.934619
v 5.740770 15.672768 0.852636
v 2.387593 16.791769 8.237546
v 5.665506 18.797743 6.434126
v 8.143731 16.512066 4.352142
v 4.461470 16.451580 11.334440
v 7.739383 18.457554 9.531019
v 10.217607 16.171877 7.449034
v -2.419249 12.686578 1.413298
v 6.117040 14.383554 13.681333
v 3.336884 12.406875 -2.472108
v 11.873178 14.103849 9.795927
v 0.858660 14.692545 -0.390123
v 9.394953 16.389526 11.877912
v -0.011021 15.915012 4.748626
v 3.266891 17.920986 2.945205
v 5.745116 15.635307 0.863221
v 2.391934 16.754313 8.248132
v 5.669852 18.760283 6.444712
v 8.148077 16.474609 4.362729
v 4.465816 16.414124 11.345026
v 7.743729 18.420095 9.541607
v 10.221953 16.134422 7.459621
v -3.785085 13.224225 1.885429
v 1.273673 3.643098 -13.013261
v 4.419701 14.285824 3.888432
v 9.478458 4.704696 -11.010255
v 0.758653 15.582817 0.979123
v 5.817416 6.001690 -13.919566
v -2.265619 13.219639 -4.336235
v 2.278119 15.578232 -5.242540
v 5.939162 14.281237 -2.333232
v -0.854241 10.831742 -8.851998
v 3.689502 13.190331 -9.758304
v 7.350545 11.893340 -6.848995
v 0.317042 7.705749 -11.993060
v 4.860781 10.064342 -12.899370
v 8.521829 8.767346 -9.990059
v 5.427873 13.470898 0.210736
v 1.516070 10.343311 -14.735170
v -1.635634 13.465273 1.987531
v -5.547437 10.337687 -12.958373
v 1.472746 15.506088 0.139573
v -2.439057 12.378501 -14.806331
v 4.171915 15.364082 -4.776234
v 0.216787 17.399273 -4.847397
v -2.891592 15.358454 -2.999440
v 3.073776 14.830532 -9.143483
v -0.881351 16.865726 -9.214647
v -3.989730 14.824907 -7.366688
v 2.195323 13.287400 -12.640574
v -1.759799 15.322596 -12.711739
v -4.868178 13.281776 -10.863776
v 2.053867 13.354005 -4.184289
v -13.395306 10.587205 -2.724164
v 2.642079 13.504951 3.073902
v -12.807094 10.738152 4.534029
v 1.375286 15.494093 -0.343764
v -14.073887 12.727295 1.116362
v -3.030525 15.364805 -3.814062
v -3.709111 17.504896 0.026464
v -2.442313 15.515753 3.444130
v -7.529356 14.935305 -3.440539
v -8.207942 17.075394 0.399987
v -6.941139 15.086252 3.817653
v -11.155367 13.476019 -3.116333
v -11.833948 15.616108 0.724192
v -10.567150 13.626966 4.141859
v 0.502166 14.908541 -4.944517
v -10.780581 5.792943 1.296750
v 4.643032 13.690865 0.938454
v -6.639716 4.575268 7.179722
v 1.351343 15.685591 -0.639222
v -9.931404 6.570000 5.602047
v -4.013204 14.524294 -1.845799
v -3.164031 15.301353 2.459496
v 0.127662 13.306622 4.037169
v -7.421127 12.214880 0.074936
v -6.571955 12.991937 4.380232
v -3.280266 10.997207 5.957907
v -9.871852 9.360997 1.209225
v -9.022679 10.138055 5.514522
v -5.730981 8.143321 7.092195
v 6.010367 13.272912 -1.179621
v -0.009753 1.487209 11.752020
v -2.099952 15.023918 -3.242960
v -8.120071 3.238214 9.688677
v 1.506950 15.651114 -0.024973
v -4.513174 3.865413 12.906666
v 4.242410 12.277520 4.924924
v -0.261007 14.655722 6.079571
v -3.867909 14.028526 2.861583
v 2.559532 9.210362 8.936893
v -1.943889 11.588567 10.091549
v -5.550786 10.961368 6.873550
v 1.143409 5.636396 11.470244
v -3.360008 8.014600 12.624887
v -6.966906 7.387403 9.406898
v 5.428958 13.429880 0.211437
v 1.517155 10.302289 -14.734468
v -1.634548 13.424252 1.988233
v -5.546347 10.296665 -12.957671
v 1.473831 15.465065 0.140276
v -2.437967 12.337479 -14.805628
v 4.173000 15.323055 -4.775534
v 0.217872 17.358250 -4.846694
v -2.890507 15.317430 -2.998739
v 3.074862 14.789511 -9.142780
v -0.880266 16.824705 -9.213945
v -3.988645 14.783886 -7.365988
v 2.196414 13.246378 -12.639871
v -1.758714 15.281572 -12.711036
v -4.867093 13.240754 -10.863076
v 0.491683 14.944946 -4.928547
v -10.791059 5.829351 1.312720
v 4.632549 13.727272 0.954424
v -6.650198 4.611678 7.195692
v 1.340860 15.722000 -0.623252
v -9.941892 6.606407 5.618017
v -4.023686 14.560707 -1.829829
v -3.174513 15.337763 2.475466
v 0.117176 13.343030 4.053138
v -7.431609 12.251291 0.090906
v -6.582441 13.028347 4.396202
v -3.290748 11.033615 5.973877
v -9.882334 9.397405 1.225195
v -9.033156 10.174463 5.530492
v -5.741463 8.179731 7.108165
v 2.053867 13.312964 -4.184289
v -13.395306 10.546162 -2.724164
v 2.642079 13.463911 3.073902
v -12.807094 10.697108 4.534029
v 1.375286 15.453049 -0.343764
v -14.073887 12.686252 1.116362
v -3.030525 15.323763 -3.814062
v -3.709111 17.463852 0.026464
v -2.442313 15.474709 3.444130
v -7.529356 14.894262 -3.440539
v -8.207942 17.034351 0.399987
v -6.941139 15.045208 3.817653
v -11.155367 13.434977 -3.116333
v -11.833948 15.575066 0.724192
v -10.567150 13.585922 4.141859
v 6.009136 13.232140 -1.205256
v -0.010984 1.446434 11.726385
v -2.101178 14.983145 -3.268595
v -8.121298 3.197439 9.663042
v 1.505719 15.610338 -0.050608
v -4.514400 3.824636 12.881031
v 4.241179 12.236745 4.899290
v -0.262238 14.614948 6.053936
v -3.869135 13.987749 2.835949
v 2.558301 9.169587 8.911259
v -1.945115 11.547789 10.065914
v -5.552018 10.920594 6.847920
v 1.142178 5.595620 11.444611
v -3.361239 7.973823 12.599252
v -6.968136 7.346628 9.381268
v -0.376851 13.814926 4.196417
v 12.471863 5.185771 1.211054
v -1.600151 14.344095 -2.964145
v 11.248563 5.714940 -5.949508
v 0.695318 15.593813 0.262452
v 13.544027 6.964664 -2.722911
v 5.020673 13.654163 3.262434
v 6.092848 15.433052 -0.671532
v 3.797379 14.183329 -3.898128
v 8.916624 11.485530 2.436594
v 9.988793 13.264418 -1.497372
v 7.693334 12.014694 -4.723968
v 11.613265 8.716404 1.771267
v 12.685434 10.495294 -2.162699
v 10.389970 9.245572 -5.389296
v -3.215907 13.726812 3.144386
v 11.163177 6.568491 12.087833
v 1.095546 13.071540 -4.145738
v 15.474626 5.913221 4.797709
v 0.550306 15.466257 0.028247
v 14.929399 8.307938 8.971695
v 2.260063 14.692003 6.296175
v 6.026285 16.431450 3.180039
v 6.571516 14.036730 -0.993946
v 6.518235 13.040166 8.962975
v 10.284457 14.779615 5.846838
v 10.829687 12.384893 1.672853
v 9.654378 10.445937 11.050907
v 13.420599 12.185389 7.934768
v 13.965830 9.790667 3.760780
v 3.509975 11.817881 -2.804680
v -8.371673 13.034509 -11.947925
v -0.606675 13.205638 2.620728
v -12.488323 14.422264 -6.522515
v 1.284912 14.643940 -0.550032
v -10.596736 15.860573 -9.693278
v 0.525052 14.849859 -5.845098
v -1.700007 17.675922 -3.590451
v -3.591599 16.237614 -0.419691
v -2.792267 15.535891 -8.537666
v -5.017330 18.361956 -6.283020
v -6.908917 16.923645 -3.112259
v -5.806757 15.082533 -10.709017
v -8.031821 17.908596 -8.454370
v -9.923408 16.470285 -5.283607
v 2.253880 13.456177 4.680395
v 16.841923 9.979243 -3.853848
v -1.783785 12.972125 -2.177642
v 12.804258 9.495189 -10.711885
v 1.050370 15.426153 0.392608
v 15.638413 11.949224 -8.141635
v 7.046998 15.508186 1.713613
v 5.843493 17.478167 -2.574175
v 3.009337 15.024134 -5.144423
v 11.311884 14.910706 -0.755164
v 10.108378 16.880690 -5.042953
v 7.274223 14.426655 -7.613202
v 14.761327 13.213000 -2.666193
v 13.557817 15.182983 -6.953980
v 10.723658 12.728949 -9.524231
v 2.253029 13.500940 4.676652
v 16.841074 10.024008 -3.857590
v -1.784635 13.016888 -2.181385
v 12.803408 9.539953 -10.715625
v 1.049520 15.470917 0.388866
v 15.637568 11.993988 -8.145377
v 7.046152 15.552950 1.709871
v 5.842642 17.522930 -2.577918
v 3.008487 15.068897 -5.148166
v 11.311038 14.955471 -0.758906
v 10.107533 16.925453 -5.046696
v 7.273373 14.471418 -7.616944
v 14.760477 13.257765 -2.669936
v 13.556967 15.227747 -6.957724
v 10.722812 12.773713 -9.527973
v -3.843609 14.219246 -0.483038
v 0.874014 5.890995 13.343529
v 3.350627 13.595510 -3.214687
v 8.068251 5.267259 10.611880
v 0.659845 15.613455 -0.375524
v 5.377468 7.285205 13.451046
v -1.764004 14.478668 4.934688
v 2.739450 15.872875 5.042204
v 5.430227 13.854931 2.203038
v -0.360078 12.499505 9.084061
v 4.143372 13.893715 9.191582
v 6.834154 11.875768 6.352414
v 0.551659 9.791216 12.103667
v 5.055109 11.185427 12.211186
v 7.745891 9.167480 9.372018
v -3.852573 14.178318 -0.494753
v 0.865050 5.850067 13.331816
v 3.341662 13.554581 -3.226403
v 8.059286 5.226331 10.600164
v 0.650881 15.572525 -0.387239
v 5.368504 7.244277 13.439328
v -1.772969 14.437738 4.922972
v 2.730485 15.831947 5.030489
v 5.421262 13.814001 2.191323
v -0.369042 12.458576 9.072345
v 4.134407 13.852787 9.179866
v 6.825189 11.834840 6.340698
v 0.542694 9.750288 12.091951
v 5.046144 11.144496 12.199471
v 7.736926 9.126552 9.360303
v 3.111096 12.824224 2.659922
v 13.802103 17.694479 -3.720783
v -0.096796 13.121923 -2.610939
v 10.594215 17.992178 -8.991643
v 1.307896 14.905977 0.081048
v 11.998903 19.776236 -6.299655
v 5.592567 16.532740 1.359134
v 3.789372 18.614498 -1.219738
v 2.384680 16.830439 -3.911726
v 8.586535 18.219820 -0.367730
v 6.783340 20.301580 -2.946604
v 5.378647 18.517519 -5.638592
v 11.401943 18.776106 -2.049793
v 9.598748 20.857864 -4.628664
v 8.194056 19.073803 -7.320653
v 3.126253 12.794548 2.649865
v 13.817261 17.664799 -3.730840
v -0.081639 13.092248 -2.620995
v 10.609373 17.962498 -9.001699
v 1.323053 14.876303 0.070992
v 12.014065 19.746555 -6.309711
v 5.607729 16.503059 1.349078
v 3.804530 18.584820 -1.229795
v 2.399837 16.800758 -3.921783
v 8.601692 18.190140 -0.377786
v 6.798497 20.271900 -2.956660
v 5.393805 18.487839 -5.648647
v 11.417105 18.746428 -2.059849
v 9.613905 20.828186 -4.638721
v 8.209213 19.044128 -7.330709
v -1.008791 12.706551 -2.725332
v -11.561171 16.911278 5.024628
v 2.788516 13.067849 2.356390
v -7.763864 17.272573 10.106349
v 0.978761 14.884684 -0.202107
v -9.573613 19.089411 7.547853
v -3.621772 16.333666 -1.030668
v -1.634215 18.511805 1.492557
v 0.175535 16.694962 4.051054
v -6.601235 17.844482 1.088316
v -4.613683 20.022619 3.611540
v -2.803929 18.205778 6.170038
v -9.339006 18.206167 3.108397
v -7.351454 20.384304 5.631621
v -5.541704 18.567467 8.190118
v -1.021590 12.674932 -2.714450
v -11.573969 16.879658 5.035511
v 2.775717 13.036231 2.367272
v -7.776663 17.240953 10.117231
v 0.965967 14.853064 -0.191225
v -9.586408 19.057795 7.558735
v -3.634566 16.302046 -1.019785
v -1.647013 18.480183 1.503440
v 0.162736 16.663342 4.061937
v -6.614029 17.812862 1.099198
v -4.626477 19.990999 3.622423
v -2.816727 18.174158 6.180921
v -9.351805 18.174547 3.119279
v -7.364253 20.352686 5.642504
v -5.554503 18.535845 8.201001
v 3.522003 11.855146 -2.804045
v -8.359645 13.071777 -11.947289
v -0.594647 13.242901 2.621363
v -12.476295 14.459532 -6.521880
v 1.296944 14.681208 -0.549396
v -10.584703 15.897840 -9.692643
v 0.537084 14.887125 -5.844464
v -1.687979 17.713188 -3.589816
v -3.579566 16.274881 -0.419055
v -2.780239 15.573156 -8.537031
v -5.005298 18.399221 -6.282385
v -6.896889 16.960913 -3.111624
v -5.794729 15.119799 -10.708383
v -8.019789 17.945862 -8.453733
v -9.911380 16.507553 -5.282972
v 3.234415 -9.155533 -1.477516
v 2.653416 -9.646264 -1.033404
v 2.322611 -9.479537 -0.381139
v 2.307520 -9.542866 0.350087
v 2.611132 -9.536800 1.015445
v 3.173311 -9.462542 1.483152
v 3.882715 -9.248409 1.660577
v 4.598835 -9.137550 1.512573
v 5.179834 -9.223850 1.068459
v 5.510639 -9.418287 0.416195
v 5.525730 -9.418287 -0.315032
v 5.222118 -9.263533 -0.980390
v 4.659939 -9.128273 -1.448096
v 3.950535 -9.141903 -1.625518
v 3.300776 -6.559877 -1.177979
v 2.836906 -6.660012 -0.829252
v 2.588778 -6.758192 -0.312928
v 2.617250 -6.860767 0.268925
v 2.872646 -6.850478 0.800315
v 3.256205 -6.623328 1.175171
v 3.818712 -6.503304 1.321411
v 4.129028 -5.810429 1.204618
v 4.503958 -5.514531 0.854374
v 4.741682 -5.393450 0.337874
v 4.850937 -5.594024 -0.241630
v 4.629560 -5.679189 -0.772441
v 4.301397 -6.028271 -1.146353
v 3.839600 -6.369967 -1.290875
v 1.574619 -3.778011 -1.072727
v 1.242224 -4.021292 -0.761081
v 1.170626 -4.425128 -0.299819
v 1.100956 -4.301031 0.212887
v 1.197828 -4.009679 0.679252
v 1.518780 -3.779759 1.008822
v 1.977699 -3.565070 1.135793
v 2.391710 -3.277932 1.032660
v 2.775246 -3.190125 0.722255
v 2.823555 -2.734385 0.260412
v 2.837345 -2.733953 -0.253688
v 2.717455 -2.974009 -0.720629
v 2.354973 -3.113940 -1.008925
v 1.947100 -3.400886 -1.134588
v -1.387283 -1.835766 -1.092527
v -1.712662 -2.029182 -0.801469
v -1.971527 -1.952671 -0.342789
v -1.981380 -1.952671 0.134598
v -1.858816 -1.728792 0.567423
v -1.545723 -1.535376 0.871658
v -1.026405 -1.529212 0.988650
v -0.626135 -1.288026 0.890637
v -0.407118 -0.903085 0.597384
v -0.221077 -0.795746 0.170928
v -0.176924 -0.883177 -0.305751
v -0.247158 -1.176132 -0.737496
v -0.692604 -1.096502 -1.044463
v -1.088491 -1.337688 -1.158908
v -2.814001 1.826388 -0.980283
v -3.160711 1.798259 -0.722916
v -3.399952 1.538389 -0.345605
v -3.382940 1.688329 0.079007
v -3.185236 1.798259 0.465337
v -2.863926 1.742086 0.736490
v -2.470900 1.599286 0.839009
v -2.061476 1.529240 0.753053
v -1.754084 1.328547 0.494873
v -1.508352 1.626204 0.117698
v -1.499599 1.626204 -0.306385
v -1.701941 1.489278 -0.692810
v -2.023252 1.545450 -0.963963
v -2.404579 1.756342 -1.066239
v -2.635118 5.084248 -0.843905
v -2.925165 5.132807 -0.622621
v -3.060482 5.222048 -0.298044
v -3.014261 5.334295 0.065540
v -2.915476 5.202076 0.393644
v -2.776508 4.960596 0.621433
v -2.574116 4.591633 0.704839
v -2.134407 4.606249 0.631756
v -1.858253 4.519461 0.410186
v -1.722939 4.430222 0.085608
v -1.755262 4.356203 -0.277688
v -1.973312 4.342537 -0.608253
v -2.164412 4.571636 -0.837119
v -2.354967 4.866602 -0.920280
v -0.236780 7.610403 -0.724880
v -0.479967 7.699253 -0.526483
v -0.594551 7.839380 -0.242299
v -0.614153 7.790586 0.083549
v -0.509184 7.659409 0.379659
v -0.274389 7.570560 0.587918
v 0.026823 7.477568 0.666733
v 0.335749 7.402456 0.600510
v 0.578936 7.313608 0.402115
v 0.718607 7.268003 0.111055
v 0.653576 7.198423 -0.166811
v 0.493845 7.086697 -0.513776
v 0.325956 7.429178 -0.720657
v 0.086843 7.590431 -0.798188
v 0.675680 10.425259 -0.704197
v 0.423037 10.543327 -0.511041
v 0.279186 10.570827 -0.227356
v 0.272623 10.570827 0.090672
v 0.404644 10.543327 0.380051
v 0.649103 10.387337 0.583467
v 0.957582 10.440010 0.660631
v 1.268984 10.566902 0.596261
v 1.521627 10.472950 0.403104
v 1.665478 10.280193 0.119418
v 1.672041 10.469612 -0.198610
v 1.540018 10.465866 -0.487989
v 1.295559 10.566902 -0.691404
v 0.987080 10.433674 -0.768568
v 1.012592 13.648579 -0.615757
v 0.794956 13.648579 -0.449428
v 0.671040 13.648579 -0.205139
v 0.665388 13.648579 0.068722
v 0.779119 13.648579 0.317914
v 0.989708 13.648579 0.493081
v 1.255445 13.648579 0.559532
v 1.523697 13.648579 0.504102
v 1.741333 13.648579 0.337772
v 1.865250 13.648579 0.093485
v 1.870901 13.648579 -0.180376
v 1.757170 13.648579 -0.429570
v 1.546581 13.648579 -0.604737
v 1.280844 13.648579 -0.671188
v 1.098743 13.925224 -0.426996
v 0.954475 13.925224 -0.316737
v 0.872335 13.925224 -0.154804
v 0.868587 13.925224 0.026733
v 0.943979 13.925224 0.191919
v 1.083574 13.925224 0.308035
v 1.259726 13.925224 0.352083
v 1.437546 13.925224 0.315340
v 1.581814 13.925224 0.205083
v 1.663956 13.925224 0.043149
v 1.667702 13.925224 -0.138388
v 1.592312 13.925224 -0.303573
v 1.452715 13.925224 -0.419691
v 1.276564 13.925224 -0.463738
v 1.268145 14.068935 -0.055827
v 2.301277 -12.403879 -2.167321
v 1.457064 -12.403879 -1.522127
v 2.395140 -10.044088 -1.253762
v 3.098042 -9.454247 -1.791059
v 0.976391 -12.403879 -0.574532
v 1.994925 -9.832855 -0.464644
v 0.954466 -12.403879 0.487774
v 1.976667 -9.845146 0.420003
v 1.395630 -12.403879 1.454391
v 2.343981 -9.837808 1.224962
v 2.212507 -12.403879 2.133871
v 3.024117 -9.582020 1.790802
v 3.243301 -12.403879 2.391631
v 3.882362 -9.365028 2.005452
v 4.283852 -12.403879 2.176620
v 4.748735 -9.251308 1.826395
v 5.128069 -12.403879 1.531424
v 5.451637 -9.335316 1.289100
v 5.608738 -12.403879 0.583831
v 5.851851 -9.528481 0.499981
v 5.630662 -12.403879 -0.478476
v 5.870108 -9.707716 -0.384667
v 5.189499 -12.403879 -1.445096
v 5.502794 -9.554235 -1.189626
v 4.372623 -12.403879 -2.124572
v 4.822659 -9.421268 -1.755466
v 3.341827 -12.403879 -2.382334
v 3.964413 -9.437757 -1.970116
v 2.740955 -6.870173 -1.007012
v 3.357201 -6.866163 -1.429251
v 2.423603 -6.953495 -0.380781
v 2.480009 -7.126064 0.325621
v 2.817612 -7.174558 0.970887
v 3.284569 -6.902329 1.425767
v 3.953054 -6.725727 1.602977
v 4.291157 -5.800383 1.460602
v 4.753935 -5.458584 1.035747
v 5.042393 -5.311662 0.409021
v 5.234993 -5.687172 -0.293132
v 4.969313 -5.796988 -0.937172
v 4.557753 -6.191148 -1.391108
v 4.096470 -6.823816 -1.564784
v 1.279074 -4.280992 -0.870165
v 1.663008 -4.002587 -1.229286
v 1.177710 -4.704359 -0.339069
v 1.105936 -4.580328 0.251992
v 1.176262 -4.152502 0.788407
v 1.546131 -3.887538 1.168206
v 2.067215 -3.629116 1.314331
v 2.596855 -3.415277 1.196790
v 3.031927 -3.292344 0.838907
v 3.110004 -2.817075 0.307232
v 3.125898 -2.816578 -0.285224
v 2.980028 -3.076044 -0.823525
v 2.568628 -3.251019 -1.162051
v 2.098589 -3.581698 -1.306866
v -1.199240 -2.285660 -1.294299
v -1.593828 -2.520218 -0.941333
v -1.976465 -2.251918 -0.393682
v -1.988413 -2.251918 0.185246
v -1.830053 -2.005209 0.710334
v -1.450367 -1.770652 1.079280
v -0.846842 -1.713189 1.220615
v -0.361431 -1.420700 1.101755
v -0.073206 -0.994617 0.746592
v 0.152405 -0.864449 0.229429
v 0.198654 -0.951880 -0.348791
v 0.092625 -1.267667 -0.872800
v -0.419416 -1.229176 -1.244477
v -0.899511 -1.521664 -1.383265
v -2.933752 1.636577 -1.161752
v -3.349699 1.620152 -0.850687
v -3.649469 1.244020 -0.394964
v -3.605610 1.560822 0.118623
v -3.366154 1.696872 0.585474
v -2.977879 1.628993 0.913137
v -2.513521 1.394876 1.036803
v -2.018774 1.310233 0.932932
v -1.642141 1.097836 0.621054
v -1.341797 1.477324 0.165344
v -1.331221 1.477324 -0.347119
v -1.601282 1.163157 -0.814602
v -1.989557 1.231036 -1.142266
v -2.439003 1.551933 -1.265624
v -2.803900 5.036118 -1.003181
v -3.215519 4.964582 -0.740037
v -3.373014 5.080296 -0.350755
v -3.203083 5.333714 0.093280
v -3.074419 5.192144 0.488468
v -2.885885 4.924314 0.763998
v -2.711838 4.393261 0.859686
v -2.222212 4.407009 0.772842
v -1.841803 4.404875 0.509055
v -1.684309 4.289160 0.119773
v -1.753424 4.139082 -0.317330
v -1.967512 4.204027 -0.714280
v -2.208179 4.459476 -0.990886
v -2.466211 4.776108 -1.093159
v -0.416447 7.400185 -0.895827
v -0.716532 7.518860 -0.648272
v -0.824739 7.822124 -0.291323
v -0.845194 7.774975 0.115055
v -0.747211 7.487148 0.483530
v -0.456581 7.370523 0.743052
v -0.045450 7.392925 0.841919
v 0.304182 7.168665 0.758475
v 0.604269 7.049992 0.510919
v 0.775990 6.986921 0.147889
v 0.711811 6.915695 -0.210509
v 0.521566 6.818472 -0.630613
v 0.322182 7.280993 -0.888252
v 0.012968 7.477793 -0.985015
v 0.617727 10.276905 -0.830434
v 0.316038 10.439312 -0.599780
v 0.144262 10.466084 -0.261024
v 0.136425 10.466084 0.118743
v 0.294077 10.393665 0.464300
v 0.585993 10.289658 0.707205
v 0.954357 10.343967 0.799349
v 1.326210 10.421818 0.722483
v 1.627899 10.329174 0.491828
v 1.799675 10.137146 0.153070
v 1.807512 10.326565 -0.226697
v 1.649860 10.322094 -0.572252
v 1.357943 10.421818 -0.815157
v 0.989580 10.286953 -0.907301
vt 0.879370 0.630405
vt 0.992438 0.630992
vt 0.993169 0.473756
vt 0.880100 0.473168
vt 0.757717 0.629902
vt 0.758448 0.472666
vt 0.880900 0.301129
vt 0.759248 0.300627
vt 0.993968 0.301717
vt 0.881569 0.157170
vt 0.759917 0.156667
vt 0.994637 0.157758
vt 0.882281 0.003841
vt 0.760629 0.003338
vt 0.995350 0.004429
vt 0.879370 0.630405
vt 0.880100 0.473168
vt 0.993169 0.473756
vt 0.992438 0.630992
vt 0.757717 0.629902
vt 0.758448 0.472666
vt 0.759248 0.300627
vt 0.880900 0.301129
vt 0.993968 0.301717
vt 0.759917 0.156667
vt 0.881569 0.157170
vt 0.994637 0.157758
vt 0.760629 0.003338
vt 0.882281 0.003841
vt 0.995350 0.004429
vt 0.879370 0.630405
vt 0.992438 0.630992
vt 0.993169 0.473756
vt 0.880100 0.473168
vt 0.757717 0.629902
vt 0.758448 0.472666
vt 0.880900 0.301129
vt 0.759248 0.300627
vt 0.993968 0.301717
vt 0.881569 0.157170
vt 0.759917 0.156667
vt 0.994637 0.157758
vt 0.882281 0.003841
vt 0.760629 0.003338
vt 0.995350 0.004429
vt 0.879370 0.630405
vt 0.880100 0.473168
vt 0.993169 0.473756
vt 0.992438 0.630992
vt 0.757717 0.629902
vt 0.758448 0.472666
vt 0.759248 0.300627
vt 0.880900 0.301129
vt 0.993968 0.301717
vt 0.759917 0.156667
vt 0.881569 0.157170
vt 0.994637 0.157758
vt 0.760629 0.003338
vt 0.882281 0.003841
vt 0.995350 0.004429
vt 0.879370 0.630405
vt 0.880100 0.473168
vt 0.993169 0.473756
vt 0.992438 0.630992
vt 0.757717 0.629902
vt 0.758448 0.472666
vt 0.759248 0.300627
vt 0.880900 0.301129
vt 0.993968 0.301717
vt 0.759917 0.156667
vt 0.881569 0.157170
vt 0.994637 0.157758
vt 0.760629 0.003338
vt 0.882281 0.003841
vt 0.995350 0.004429
vt 0.879370 0.630405
vt 0.880100 0.473168
vt 0.993169 0.473756
vt 0.992438 0.630992
vt 0.757717 0.629902
vt 0.758448 0.472666
vt 0.759248 0.300627
vt 0.880900 0.301129
vt 0.993968 0.301717
vt 0.759917 0.156667
vt 0.881569 0.157170
vt 0.994637 0.157758
vt 0.760629 0.003338
vt 0.882281 0.003841
vt 0.995350 0.004429
vt 0.879370 0.630405
vt 0.992438 0.630992
vt 0.993169 0.473756
vt 0.880100 0.473168
vt 0.757717 0.629902
vt 0.758448 0.472666
vt 0.880900 0.301129
vt 0.759248 0.300627
vt 0.993968 0.301717
vt 0.881569 0.157170
vt 0.759917 0.156667
vt 0.994637 0.157758
vt 0.882281 0.003841
vt 0.760629 0.003338
vt 0.995350 0.004429
vt 0.879370 0.630405
vt 0.880100 0.473168
vt 0.993169 0.473756
vt 0.992438 0.630992
vt 0.757717 0.629902
vt 0.758448 0.472666
vt 0.759248 0.300627
vt 0.880900 0.301129
vt 0.993968 0.301717
vt 0.759917 0.156667
vt 0.881569 0.157170
vt 0.994637 0.157758
vt 0.760629 0.003338
vt 0.882281 0.003841
vt 0.995350 0.004429
vt 0.879370 0.630405
vt 0.992438 0.630992
vt 0.993169 0.473756
vt 0.880100 0.473168
vt 0.757717 0.629902
vt 0.758448 0.472666
vt 0.880900 0.301129
vt 0.759248 0.300627
vt 0.993968 0.301717
vt 0.881569 0.157170
vt 0.759917 0.156667
vt 0.994637 0.157758
vt 0.882281 0.003841
vt 0.760629 0.003338
vt 0.995350 0.004429
vt 0.879370 0.630405
vt 0.880100 0.473168
vt 0.993169 0.473756
vt 0.992438 0.630992
vt 0.757717 0.629902
vt 0.758448 0.472666
vt 0.759248 0.300627
vt 0.880900 0.301129
vt 0.993968 0.301717
vt 0.759917 0.156667
vt 0.881569 0.157170
vt 0.994637 0.157758
vt 0.760629 0.003338
vt 0.882281 0.003841
vt 0.995350 0.004429
vt 0.879370 0.630405
vt 0.880100 0.473168
vt 0.993169 0.473756
vt 0.992438 0.630992
vt 0.757717 0.629902
vt 0.758448 0.472666
vt 0.759248 0.300627
vt 0.880900 0.301129
vt 0.993968 0.301717
vt 0.759917 0.156667
vt 0.881569 0.157170
vt 0.994637 0.157758
vt 0.760629 0.003338
vt 0.882281 0.003841
vt 0.995350 0.004429
vt 0.879370 0.630405
vt 0.880100 0.473168
vt 0.993169 0.473756
vt 0.992438 0.630992
vt 0.757717 0.629902
vt 0.758448 0.472666
vt 0.759248 0.300627
vt 0.880900 0.301129
vt 0.993968 0.301717
vt 0.759917 0.156667
vt 0.881569 0.157170
vt 0.994637 0.157758
vt 0.760629 0.003338
vt 0.882281 0.003841
vt 0.995350 0.004429
vt 0.879370 0.630405
vt 0.992438 0.630992
vt 0.993169 0.473756
vt 0.880100 0.473168
vt 0.757717 0.629902
vt 0.758448 0.472666
vt 0.880900 0.301129
vt 0.759248 0.300627
vt 0.993968 0.301717
vt 0.881569 0.157170
vt 0.759917 0.156667
vt 0.994637 0.157758
vt 0.882281 0.003841
vt 0.760629 0.003338
vt 0.995350 0.004429
vt 0.879370 0.630405
vt 0.992438 0.630992
vt 0.993169 0.473756
vt 0.880100 0.473168
vt 0.757717 0.629902
vt 0.758448 0.472666
vt 0.880900 0.301129
vt 0.759248 0.300627
vt 0.993968 0.301717
vt 0.881569 0.157170
vt 0.759917 0.156667
vt 0.994637 0.157758
vt 0.882281 0.003841
vt 0.760629 0.003338
vt 0.995350 0.004429
vt 0.879370 0.630405
vt 0.880100 0.473168
vt 0.993169 0.473756
vt 0.992438 0.630992
vt 0.757717 0.629902
vt 0.758448 0.472666
vt 0.759248 0.300627
vt 0.880900 0.301129
vt 0.993968 0.301717
vt 0.759917 0.156667
vt 0.881569 0.157170
vt 0.994637 0.157758
vt 0.760629 0.003338
vt 0.882281 0.003841
vt 0.995350 0.004429
vt 0.879370 0.630405
vt 0.880100 0.473168
vt 0.993169 0.473756
vt 0.992438 0.630992
vt 0.757717 0.629902
vt 0.758448 0.472666
vt 0.759248 0.300627
vt 0.880900 0.301129
vt 0.993968 0.301717
vt 0.759917 0.156667
vt 0.881569 0.157170
vt 0.994637 0.157758
vt 0.760629 0.003338
vt 0.882281 0.003841
vt 0.995350 0.004429
vt 0.879370 0.630405
vt 0.992438 0.630992
vt 0.993169 0.473756
vt 0.880100 0.473168
vt 0.757717 0.629902
vt 0.758448 0.472666
vt 0.880900 0.301129
vt 0.759248 0.300627
vt 0.993968 0.301717
vt 0.881569 0.157170
vt 0.759917 0.156667
vt 0.994637 0.157758
vt 0.882281 0.003841
vt 0.760629 0.003338
vt 0.995350 0.004429
vt 0.879370 0.630405
vt 0.992438 0.630992
vt 0.993169 0.473756
vt 0.880100 0.473168
vt 0.757717 0.629902
vt 0.758448 0.472666
vt 0.880900 0.301129
vt 0.759248 0.300627
vt 0.993968 0.301717
vt 0.881569 0.157170
vt 0.759917 0.156667
vt 0.994637 0.157758
vt 0.882281 0.003841
vt 0.760629 0.003338
vt 0.995350 0.004429
vt 0.879370 0.630405
vt 0.992438 0.630992
vt 0.993169 0.473756
vt 0.880100 0.473168
vt 0.757717 0.629902
vt 0.758448 0.472666
vt 0.880900 0.301129
vt 0.759248 0.300627
vt 0.993968 0.301717
vt 0.881569 0.157170
vt 0.759917 0.156667
vt 0.994637 0.157758
vt 0.882281 0.003841
vt 0.760629 0.003338
vt 0.995350 0.004429
vt 0.879370 0.630405
vt 0.880100 0.473168
vt 0.993169 0.473756
vt 0.992438 0.630992
vt 0.757717 0.629902
vt 0.758448 0.472666
vt 0.759248 0.300627
vt 0.880900 0.301129
vt 0.993968 0.301717
vt 0.759917 0.156667
vt 0.881569 0.157170
vt 0.994637 0.157758
vt 0.760629 0.003338
vt 0.882281 0.003841
vt 0.995350 0.004429
vt 0.879370 0.630405
vt 0.992438 0.630992
vt 0.993169 0.473756
vt 0.880100 0.473168
vt 0.757717 0.629902
vt 0.758448 0.472666
vt 0.880900 0.301129
vt 0.759248 0.300627
vt 0.993968 0.301717
vt 0.881569 0.157170
vt 0.759917 0.156667
vt 0.994637 0.157758
vt 0.882281 0.003841
vt 0.760629 0.003338
vt 0.995350 0.004429
vt 0.879370 0.630405
vt 0.880100 0.473168
vt 0.993169 0.473756
vt 0.992438 0.630992
vt 0.757717 0.629902
vt 0.758448 0.472666
vt 0.759248 0.300627
vt 0.880900 0.301129
vt 0.993968 0.301717
vt 0.759917 0.156667
vt 0.881569 0.157170
vt 0.994637 0.157758
vt 0.760629 0.003338
vt 0.882281 0.003841
vt 0.995350 0.004429
vt 0.879370 0.630405
vt 0.992438 0.630992
vt 0.993169 0.473756
vt 0.880100 0.473168
vt 0.757717 0.629902
vt 0.758448 0.472666
vt 0.880900 0.301129
vt 0.759248 0.300627
vt 0.993968 0.301717
vt 0.881569 0.157170
vt 0.759917 0.156667
vt 0.994637 0.157758
vt 0.882281 0.003841
vt 0.760629 0.003338
vt 0.995350 0.004429
vt 0.879370 0.630405
vt 0.992438 0.630992
vt 0.993169 0.473756
vt 0.880100 0.473168
vt 0.757717 0.629902
vt 0.758448 0.472666
vt 0.880900 0.301129
vt 0.759248 0.300627
vt 0.993968 0.301717
vt 0.881569 0.157170
vt 0.759917 0.156667
vt 0.994637 0.157758
vt 0.882281 0.003841
vt 0.760629 0.003338
vt 0.995350 0.004429
vt 0.879370 0.630405
vt 0.992438 0.630992
vt 0.993169 0.473756
vt 0.880100 0.473168
vt 0.757717 0.629902
vt 0.758448 0.472666
vt 0.880900 0.301129
vt 0.759248 0.300627
vt 0.993968 0.301717
vt 0.881569 0.157170
vt 0.759917 0.156667
vt 0.994637 0.157758
vt 0.882281 0.003841
vt 0.760629 0.003338
vt 0.995350 0.004429
vt 0.879370 0.630405
vt 0.992438 0.630992
vt 0.993169 0.473756
vt 0.880100 0.473168
vt 0.757717 0.629902
vt 0.758448 0.472666
vt 0.880900 0.301129
vt 0.759248 0.300627
vt 0.993968 0.301717
vt 0.881569 0.157170
vt 0.759917 0.156667
vt 0.994637 0.157758
vt 0.882281 0.003841
vt 0.760629 0.003338
vt 0.995350 0.004429
vt 0.879370 0.630405
vt 0.880100 0.473168
vt 0.993169 0.473756
vt 0.992438 0.630992
vt 0.757717 0.629902
vt 0.758448 0.472666
vt 0.759248 0.300627
vt 0.880900 0.301129
vt 0.993968 0.301717
vt 0.759917 0.156667
vt 0.881569 0.157170
vt 0.994637 0.157758
vt 0.760629 0.003338
vt 0.882281 0.003841
vt 0.995350 0.004429
vt 0.879370 0.630405
vt 0.880100 0.473168
vt 0.993169 0.473756
vt 0.992438 0.630992
vt 0.757717 0.629902
vt 0.758448 0.472666
vt 0.759248 0.300627
vt 0.880900 0.301129
vt 0.993968 0.301717
vt 0.759917 0.156667
vt 0.881569 0.157170
vt 0.994637 0.157758
vt 0.760629 0.003338
vt 0.882281 0.003841
vt 0.995350 0.004429
vt 0.879370 0.630405
vt 0.992438 0.630992
vt 0.993169 0.473756
vt 0.880100 0.473168
vt 0.757717 0.629902
vt 0.758448 0.472666
vt 0.880900 0.301129
vt 0.759248 0.300627
vt 0.993968 0.301717
vt 0.881569 0.157170
vt 0.759917 0.156667
vt 0.994637 0.157758
vt 0.882281 0.003841
vt 0.760629 0.003338
vt 0.995350 0.004429
vt 0.879370 0.630405
vt 0.880100 0.473168
vt 0.993169 0.473756
vt 0.992438 0.630992
vt 0.757717 0.629902
vt 0.758448 0.472666
vt 0.759248 0.300627
vt 0.880900 0.301129
vt 0.993968 0.301717
vt 0.759917 0.156667
vt 0.881569 0.157170
vt 0.994637 0.157758
vt 0.760629 0.003338
vt 0.882281 0.003841
vt 0.995350 0.004429
vt 0.879370 0.630405
vt 0.992438 0.630992
vt 0.993169 0.473756
vt 0.880100 0.473168
vt 0.757717 0.629902
vt 0.758448 0.472666
vt 0.880900 0.301129
vt 0.759248 0.300627
vt 0.993968 0.301717
vt 0.881569 0.157170
vt 0.759917 0.156667
vt 0.994637 0.157758
vt 0.882281 0.003841
vt 0.760629 0.003338
vt 0.995350 0.004429
vt 0.879370 0.630405
vt 0.880100 0.473168
vt 0.993169 0.473756
vt 0.992438 0.630992
vt 0.757717 0.629902
vt 0.758448 0.472666
vt 0.759248 0.300627
vt 0.880900 0.301129
vt 0.993968 0.301717
vt 0.759917 0.156667
vt 0.881569 0.157170
vt 0.994637 0.157758
vt 0.760629 0.003338
vt 0.882281 0.003841
vt 0.995350 0.004429
vt 0.879370 0.630405
vt 0.992438 0.630992
vt 0.993169 0.473756
vt 0.880100 0.473168
vt 0.757717 0.629902
vt 0.758448 0.472666
vt 0.880900 0.301129
vt 0.759248 0.300627
vt 0.993968 0.301717
vt 0.881569 0.157170
vt 0.759917 0.156667
vt 0.994637 0.157758
vt 0.882281 0.003841
vt 0.760629 0.003338
vt 0.995350 0.004429
vt 0.879370 0.630405
vt 0.880100 0.473168
vt 0.993169 0.473756
vt 0.992438 0.630992
vt 0.757717 0.629902
vt 0.758448 0.472666
vt 0.759248 0.300627
vt 0.880900 0.301129
vt 0.993968 0.301717
vt 0.759917 0.156667
vt 0.881569 0.157170
vt 0.994637 0.157758
vt 0.760629 0.003338
vt 0.882281 0.003841
vt 0.995350 0.004429
vt 0.217748 0.008640
vt 0.186070 0.008640
vt 0.170958 0.094500
vt 0.196518 0.115961
vt 0.145587 0.008640
vt 0.141830 0.102185
vt 0.100655 0.008640
vt 0.104412 0.101738
vt 0.060173 0.008640
vt 0.075314 0.097751
vt 0.028477 0.008640
vt 0.048304 0.107058
vt 0.005566 0.008640
vt 0.022451 0.119207
vt 0.418345 0.992883
vt 0.395334 0.992900
vt 0.379433 0.885831
vt 0.400702 0.881383
vt 0.360837 0.992925
vt 0.349811 0.888936
vt 0.318734 0.992956
vt 0.314752 0.892704
vt 0.272003 0.992991
vt 0.275837 0.894051
vt 0.229900 0.993022
vt 0.240772 0.888445
vt 0.197788 0.993046
vt 0.213529 0.883585
vt 0.172211 0.993065
vt 0.189692 0.884208
vt 0.240843 0.008640
vt 0.223958 0.116561
vt 0.166451 0.108974
vt 0.161333 0.206975
vt 0.181524 0.202398
vt 0.189398 0.126829
vt 0.138586 0.115041
vt 0.134458 0.208830
vt 0.107657 0.112736
vt 0.109525 0.206540
vt 0.079791 0.112957
vt 0.085616 0.199687
vt 0.056827 0.115659
vt 0.063337 0.201560
vt 0.037032 0.123450
vt 0.039501 0.197304
vt 0.365760 0.873062
vt 0.363389 0.795536
vt 0.382911 0.802631
vt 0.385534 0.877115
vt 0.340346 0.876247
vt 0.335326 0.778079
vt 0.311371 0.883404
vt 0.307374 0.777407
vt 0.279204 0.883428
vt 0.282142 0.786976
vt 0.250219 0.877770
vt 0.259067 0.788900
vt 0.227184 0.872824
vt 0.236753 0.795721
vt 0.204848 0.873340
vt 0.207368 0.807395
vt 0.206907 0.192710
vt 0.209377 0.127325
vt 0.176552 0.213329
vt 0.157562 0.216903
vt 0.159778 0.308832
vt 0.181268 0.313004
vt 0.135413 0.217253
vt 0.137417 0.294297
vt 0.110830 0.213277
vt 0.108825 0.299963
vt 0.088681 0.209638
vt 0.087485 0.313241
vt 0.069673 0.211293
vt 0.065977 0.316828
vt 0.051290 0.206766
vt 0.042281 0.319199
vt 0.370643 0.793097
vt 0.352328 0.774643
vt 0.355418 0.680574
vt 0.379929 0.679696
vt 0.331023 0.770373
vt 0.331518 0.683200
vt 0.307987 0.769820
vt 0.309995 0.666174
vt 0.282426 0.778048
vt 0.280258 0.666196
vt 0.259390 0.777413
vt 0.257940 0.673392
vt 0.240478 0.784011
vt 0.238545 0.672894
vt 0.219614 0.788395
vt 0.212285 0.677426
vt 0.195119 0.211539
vt 0.202087 0.321573
vt 0.156760 0.394553
vt 0.175691 0.397351
vt 0.177013 0.322944
vt 0.157880 0.319247
vt 0.135365 0.408575
vt 0.135527 0.304975
vt 0.110878 0.408575
vt 0.110716 0.310641
vt 0.091955 0.414682
vt 0.088362 0.319830
vt 0.073007 0.417480
vt 0.069212 0.322944
vt 0.051506 0.411368
vt 0.050778 0.323221
vt 0.345516 0.584704
vt 0.370266 0.586746
vt 0.371089 0.675646
vt 0.352731 0.671744
vt 0.324269 0.573929
vt 0.331284 0.674847
vt 0.307790 0.570917
vt 0.308023 0.658088
vt 0.282325 0.574383
vt 0.282219 0.658108
vt 0.259387 0.583621
vt 0.258975 0.665039
vt 0.240526 0.575355
vt 0.242032 0.664060
vt 0.219684 0.578889
vt 0.221115 0.667991
vt 0.194903 0.419269
vt 0.193590 0.330922
vt 0.150611 0.532516
vt 0.167789 0.535628
vt 0.169088 0.415032
vt 0.152836 0.412725
vt 0.131082 0.517239
vt 0.133217 0.418631
vt 0.112283 0.528935
vt 0.113025 0.418631
vt 0.095893 0.534504
vt 0.094833 0.424466
vt 0.078698 0.534504
vt 0.078563 0.426773
vt 0.057823 0.529830
vt 0.061157 0.420049
vt 0.343498 0.467291
vt 0.363607 0.467276
vt 0.360222 0.577999
vt 0.342934 0.575110
vt 0.324086 0.472687
vt 0.324472 0.564828
vt 0.306246 0.460710
vt 0.305551 0.563551
vt 0.283703 0.460727
vt 0.284553 0.567013
vt 0.266588 0.470297
vt 0.265639 0.575973
vt 0.249556 0.470310
vt 0.249563 0.567210
vt 0.226167 0.461530
vt 0.229714 0.570127
vt 0.188586 0.535628
vt 0.185252 0.427950
vt 0.148927 0.642667
vt 0.161630 0.649102
vt 0.163098 0.543195
vt 0.148251 0.540083
vt 0.132331 0.644063
vt 0.132090 0.529338
vt 0.113706 0.653295
vt 0.114153 0.534874
vt 0.100444 0.648939
vt 0.097992 0.540083
vt 0.085279 0.643286
vt 0.083127 0.540083
vt 0.065139 0.632561
vt 0.066223 0.537397
vt 0.335156 0.355377
vt 0.355922 0.363672
vt 0.354866 0.459651
vt 0.338102 0.459663
vt 0.317848 0.351211
vt 0.321113 0.465057
vt 0.303122 0.352630
vt 0.304296 0.452826
vt 0.287346 0.357395
vt 0.285641 0.452839
vt 0.271606 0.358508
vt 0.268838 0.459111
vt 0.256683 0.354065
vt 0.254230 0.459122
vt 0.233691 0.347833
vt 0.234897 0.453892
vt 0.181270 0.648356
vt 0.180186 0.543195
vt 0.146808 0.741329
vt 0.161199 0.739891
vt 0.157488 0.655814
vt 0.144216 0.652842
vt 0.131622 0.745324
vt 0.130375 0.653705
vt 0.114423 0.743553
vt 0.115044 0.658233
vt 0.098930 0.740145
vt 0.101258 0.655596
vt 0.084530 0.738789
vt 0.088068 0.649997
vt 0.067796 0.743411
vt 0.071805 0.641195
vt 0.336480 0.256589
vt 0.353076 0.251876
vt 0.348982 0.354970
vt 0.332751 0.347442
vt 0.319962 0.258051
vt 0.317396 0.345941
vt 0.303844 0.258764
vt 0.303002 0.346822
vt 0.288146 0.261972
vt 0.287059 0.349915
vt 0.269850 0.267297
vt 0.272724 0.353999
vt 0.255715 0.252813
vt 0.259855 0.349609
vt 0.236560 0.248757
vt 0.241188 0.342995
vt 0.178441 0.746589
vt 0.174058 0.653148
vt 0.142273 0.854165
vt 0.155952 0.848256
vt 0.154128 0.748987
vt 0.141865 0.749894
vt 0.131153 0.855139
vt 0.129750 0.753815
vt 0.115090 0.855139
vt 0.115956 0.751978
vt 0.104145 0.852505
vt 0.103529 0.748394
vt 0.090449 0.848720
vt 0.091248 0.747487
vt 0.070435 0.850696
vt 0.075266 0.747026
vt 0.330542 0.141172
vt 0.350251 0.143676
vt 0.345304 0.248236
vt 0.329499 0.248034
vt 0.314767 0.144583
vt 0.315194 0.248959
vt 0.301959 0.151301
vt 0.302270 0.249336
vt 0.286387 0.144362
vt 0.290113 0.252476
vt 0.273995 0.145864
vt 0.275005 0.258014
vt 0.260600 0.142215
vt 0.263077 0.247482
vt 0.239050 0.145851
vt 0.244704 0.244027
vt 0.175974 0.848622
vt 0.170607 0.751274
vt 0.139349 0.970933
vt 0.150235 0.970933
vt 0.154017 0.853654
vt 0.141967 0.857950
vt 0.128913 0.970933
vt 0.129847 0.858950
vt 0.117330 0.970933
vt 0.116395 0.858950
vt 0.106893 0.970933
vt 0.104276 0.857950
vt 0.095991 0.970933
vt 0.092209 0.852274
vt 0.080500 0.970933
vt 0.076302 0.854191
vt 0.324400 0.022431
vt 0.339694 0.022419
vt 0.344146 0.140156
vt 0.328417 0.135512
vt 0.311528 0.022440
vt 0.314336 0.138970
vt 0.300674 0.022448
vt 0.301737 0.146052
vt 0.288627 0.022457
vt 0.287741 0.139112
vt 0.277772 0.022465
vt 0.275137 0.139259
vt 0.267285 0.022473
vt 0.263436 0.135560
vt 0.249426 0.022486
vt 0.245148 0.140462
vt 0.165909 0.970933
vt 0.170106 0.853960
vt 0.133878 0.980998
vt 0.142329 0.980998
vt 0.126960 0.980998
vt 0.119282 0.980998
vt 0.112364 0.980998
vt 0.103896 0.980998
vt 0.089274 0.980998
vt 0.316170 0.012285
vt 0.330560 0.012274
vt 0.305830 0.012293
vt 0.298635 0.012298
vt 0.290650 0.012304
vt 0.283455 0.012309
vt 0.275499 0.012315
vt 0.258545 0.012328
vt 0.157134 0.980998
vt 0.126016 0.986227
vt 0.293870 0.007028
vn 0.368561 -0.704129 -0.606931
vn 0.703677 -0.596491 -0.386053
vn 0.705461 -0.667850 -0.237279
vn 0.294958 -0.861574 -0.413146
vn -0.002476 -0.695045 -0.718962
vn -0.098682 -0.784068 -0.612780
vn 0.170041 -0.979616 -0.106950
vn -0.301007 -0.900016 -0.315225
vn 0.638992 -0.760133 0.117844
vn 0.006033 -0.972753 0.231765
vn -0.460514 -0.887213 0.027929
vn 0.494345 -0.750285 0.438970
vn -0.096134 -0.870719 0.482293
vn -0.527596 -0.814038 0.242868
vn 0.379024 -0.700378 0.604823
vn -0.089952 0.985269 -0.145442
vn 0.132020 0.991201 -0.009601
vn 0.284662 0.847079 -0.448805
vn 0.124230 0.867583 -0.481526
vn -0.276333 0.941747 0.191708
vn -0.166529 0.932854 0.319455
vn 0.093115 0.817238 0.568728
vn 0.418178 0.892617 0.168413
vn 0.613634 0.716817 -0.331098
vn 0.339806 0.584386 0.736903
vn 0.662898 0.665757 0.342540
vn 0.846599 0.501825 -0.177321
vn 0.470873 0.394277 0.789192
vn 0.802018 0.424464 0.420236
vn 0.935924 0.344090 -0.075156
vn -0.234909 0.955711 0.177296
vn 0.010626 0.987633 -0.156426
vn -0.069789 0.952577 -0.296188
vn -0.435393 0.899998 0.020894
vn -0.428023 0.776812 0.461909
vn -0.573063 0.712937 0.404128
vn -0.654142 0.730698 -0.195394
vn -0.834438 0.498515 0.234938
vn -0.241965 0.779364 -0.577966
vn -0.802970 0.447495 -0.393686
vn -0.976671 0.212365 0.031843
vn -0.374021 0.515710 -0.770812
vn -0.825258 0.193721 -0.530491
vn -0.994969 0.015843 -0.098918
vn -0.430868 0.328125 -0.840647
vn -0.368561 0.704129 0.606931
vn -0.294958 0.861574 0.413146
vn -0.705461 0.667850 0.237278
vn -0.703678 0.596491 0.386053
vn 0.002476 0.695045 0.718962
vn 0.098682 0.784068 0.612780
vn 0.301006 0.900016 0.315225
vn -0.170041 0.979616 0.106950
vn -0.638992 0.760133 -0.117843
vn 0.460514 0.887213 -0.027929
vn -0.006033 0.972753 -0.231765
vn -0.494346 0.750285 -0.438970
vn 0.527596 0.814038 -0.242869
vn 0.096134 0.870719 -0.482293
vn -0.379024 0.700378 -0.604824
vn 0.234909 -0.955711 -0.177296
vn 0.435393 -0.899998 -0.020894
vn 0.069789 -0.952577 0.296188
vn -0.010626 -0.987633 0.156426
vn 0.428023 -0.776812 -0.461908
vn 0.573063 -0.712937 -0.404128
vn 0.834438 -0.498516 -0.234938
vn 0.654142 -0.730698 0.195394
vn 0.241965 -0.779364 0.577966
vn 0.976671 -0.212365 -0.031842
vn 0.802970 -0.447495 0.393686
vn 0.374021 -0.515711 0.770812
vn 0.994969 -0.015843 0.098918
vn 0.825258 -0.193722 0.530491
vn 0.430868 -0.328125 0.840647
vn 0.121660 0.764195 -0.633407
vn 0.105773 0.903942 -0.414368
vn 0.559871 0.729967 -0.392036
vn 0.514437 0.667785 -0.537976
vn -0.264829 0.735240 -0.623930
vn -0.326581 0.810535 -0.486188
vn -0.429365 0.893439 -0.131955
vn 0.078932 0.993976 -0.076037
vn 0.605182 0.795603 -0.027776
vn -0.470797 0.848486 0.241706
vn 0.031537 0.954881 0.295310
vn 0.570681 0.755992 0.320623
vn -0.462461 0.757822 0.460256
vn 0.019370 0.830812 0.556216
vn 0.516604 0.687990 0.509696
vn -0.121660 -0.764195 0.633407
vn -0.514437 -0.667785 0.537976
vn -0.559871 -0.729967 0.392036
vn -0.105773 -0.903942 0.414368
vn 0.264829 -0.735240 0.623930
vn 0.326581 -0.810535 0.486188
vn -0.078932 -0.993976 0.076037
vn 0.429365 -0.893439 0.131954
vn -0.605182 -0.795603 0.027776
vn -0.031537 -0.954881 -0.295310
vn 0.470797 -0.848486 -0.241706
vn -0.570681 -0.755992 -0.320623
vn -0.019369 -0.830812 -0.556216
vn 0.462461 -0.757822 -0.460257
vn -0.516604 -0.687990 -0.509696
vn 0.226629 0.937823 -0.262921
vn 0.090337 0.994726 -0.048572
vn 0.515210 0.846078 0.136785
vn 0.550522 0.834476 -0.023987
vn -0.111774 0.888282 -0.445490
vn -0.240511 0.909671 -0.338604
vn -0.500093 0.863321 -0.067702
vn -0.096995 0.964189 0.246841
vn 0.385101 0.787441 0.481283
vn -0.688424 0.693236 0.213300
vn -0.290752 0.800096 0.524699
vn 0.212675 0.631224 0.745872
vn -0.757015 0.534833 0.375342
vn -0.388927 0.595012 0.703347
vn 0.097309 0.500966 0.859979
vn -0.226629 -0.937823 0.262920
vn -0.550522 -0.834476 0.023987
vn -0.515211 -0.846078 -0.136785
vn -0.090337 -0.994726 0.048571
vn 0.111774 -0.888283 0.445489
vn 0.240511 -0.909671 0.338603
vn 0.096995 -0.964190 -0.246841
vn 0.500093 -0.863321 0.067702
vn -0.385101 -0.787441 -0.481283
vn 0.290751 -0.800097 -0.524699
vn 0.688424 -0.693236 -0.213300
vn -0.212676 -0.631224 -0.745872
vn 0.388927 -0.595012 -0.703347
vn 0.757015 -0.534833 -0.375342
vn -0.097309 -0.500966 -0.859979
vn 0.117939 -0.992582 0.029535
vn 0.056835 -0.958250 0.280228
vn -0.377626 -0.923787 0.063368
vn -0.284194 -0.956302 -0.068701
vn 0.475819 -0.871747 0.116848
vn 0.485682 -0.828237 0.279528
vn 0.457498 -0.646932 0.610061
vn -0.036694 -0.810429 0.584687
vn -0.548061 -0.759111 0.351256
vn 0.363737 -0.372687 0.853698
vn -0.123997 -0.540560 0.832118
vn -0.639322 -0.506128 0.578880
vn 0.277767 -0.171933 0.945137
vn -0.206102 -0.283702 0.936502
vn -0.656258 -0.325472 0.680731
vn 0.040691 0.997150 0.063524
vn 0.294198 0.955501 0.021587
vn 0.106222 0.899440 -0.423939
vn -0.031143 0.939309 -0.341656
vn 0.101561 0.895780 0.432741
vn 0.262352 0.850408 0.456046
vn 0.590478 0.662709 0.460600
vn 0.601324 0.797869 -0.042605
vn 0.401628 0.720812 -0.564911
vn 0.834509 0.379802 0.399181
vn 0.848793 0.519642 -0.097582
vn 0.629928 0.459519 -0.626125
vn 0.927606 0.173049 0.331062
vn 0.953464 0.256908 -0.157810
vn 0.729186 0.276640 -0.625906
vn -0.316832 0.785519 -0.531581
vn -0.190797 0.918402 -0.346603
vn 0.174995 0.759942 -0.625991
vn 0.047565 0.700332 -0.712231
vn -0.608388 0.742736 -0.279655
vn -0.568908 0.811908 -0.130954
vn -0.423182 0.881149 0.210936
vn 0.003259 0.997882 -0.064966
vn 0.441401 0.816855 -0.371365
vn -0.216621 0.824271 0.523117
vn 0.203696 0.946713 0.249486
vn 0.637160 0.766270 -0.082814
vn -0.070115 0.727843 0.682150
vn 0.361695 0.815001 0.452713
vn 0.716576 0.691116 0.094222
vn 0.316832 -0.785519 0.531580
vn -0.047565 -0.700332 0.712231
vn -0.174995 -0.759942 0.625991
vn 0.190797 -0.918402 0.346603
vn 0.608388 -0.742736 0.279654
vn 0.568908 -0.811908 0.130954
vn -0.003259 -0.997882 0.064966
vn 0.423182 -0.881149 -0.210935
vn -0.441401 -0.816856 0.371365
vn -0.203695 -0.946713 -0.249486
vn 0.216621 -0.824272 -0.523117
vn -0.637160 -0.766270 0.082814
vn -0.361695 -0.815001 -0.452714
vn 0.070115 -0.727843 -0.682150
vn -0.716576 -0.691116 -0.094222
vn -0.117939 0.992582 -0.029535
vn 0.284194 0.956302 0.068701
vn 0.377626 0.923787 -0.063368
vn -0.056835 0.958250 -0.280227
vn -0.475819 0.871747 -0.116848
vn -0.485682 0.828237 -0.279528
vn 0.036694 0.810429 -0.584687
vn -0.457498 0.646932 -0.610061
vn 0.548060 0.759111 -0.351256
vn 0.123997 0.540560 -0.832118
vn -0.363737 0.372687 -0.853698
vn 0.639322 0.506128 -0.578880
vn 0.206102 0.283702 -0.936502
vn -0.277768 0.171933 -0.945137
vn 0.656258 0.325471 -0.680730
vn 0.080506 0.938424 0.335975
vn 0.022776 0.995796 0.088720
vn -0.411808 0.870699 0.268883
vn -0.320744 0.855883 0.405694
vn 0.443399 0.869322 0.218349
vn 0.456218 0.888392 0.051233
vn 0.437595 0.839108 -0.323124
vn -0.062622 0.966071 -0.250571
vn -0.573551 0.816764 -0.062743
vn 0.356259 0.669553 -0.651751
vn -0.137641 0.802179 -0.581002
vn -0.653324 0.661248 -0.368672
vn 0.278694 0.513222 -0.811746
vn -0.209114 0.598469 -0.773373
vn -0.662583 0.529646 -0.529583
vn 0.364504 0.930079 -0.045711
vn 0.112392 0.993181 -0.030982
vn 0.215793 0.876567 0.430191
vn 0.365392 0.857007 0.363357
vn 0.306833 0.853418 -0.421343
vn 0.144558 0.874998 -0.462041
vn -0.228712 0.832636 -0.504389
vn -0.236886 0.971535 -0.002153
vn -0.139020 0.832613 0.536125
vn -0.569776 0.670940 -0.474547
vn -0.578567 0.815364 0.021030
vn -0.457145 0.684520 0.567848
vn -0.743648 0.519478 -0.420868
vn -0.784369 0.616937 0.064457
vn -0.620141 0.555981 0.553453
vn -0.039559 -0.982957 -0.179531
vn -0.266774 -0.828992 -0.491531
vn -0.172675 -0.770380 -0.613757
vn 0.176454 -0.932318 -0.315669
vn 0.179213 -0.973740 0.140401
vn 0.338897 -0.935282 0.101964
vn 0.443636 -0.763737 -0.468928
vn 0.656703 -0.754120 0.006583
vn 0.054196 -0.562884 -0.824757
vn 0.673145 -0.480379 -0.562238
vn 0.880913 -0.464665 -0.089884
vn 0.262045 -0.294459 -0.919036
vn 0.769809 -0.210837 -0.602446
vn 0.958072 -0.247546 -0.144291
vn 0.370689 -0.117010 -0.921357
vn 0.154005 0.967139 0.202301
vn -0.245068 0.965641 0.086480
vn -0.344741 0.915363 0.207998
vn 0.081916 0.893581 0.441365
vn 0.503399 0.817727 0.279128
vn 0.505261 0.746923 0.432224
vn -0.028924 0.700601 0.712967
vn 0.457391 0.513701 0.725882
vn -0.532363 0.711957 0.457938
vn -0.135920 0.396831 0.907772
vn 0.343931 0.206548 0.915996
vn -0.641902 0.428339 0.635993
vn -0.231653 0.129856 0.964092
vn 0.246957 -0.002828 0.969022
vn -0.669593 0.233969 0.704914
vn -0.080506 -0.938424 -0.335974
vn 0.320744 -0.855883 -0.405694
vn 0.411807 -0.870699 -0.268883
vn -0.022776 -0.995796 -0.088720
vn -0.443399 -0.869323 -0.218348
vn -0.456218 -0.888392 -0.051233
vn 0.062622 -0.966071 0.250571
vn -0.437595 -0.839108 0.323124
vn 0.573551 -0.816764 0.062743
vn 0.137641 -0.802179 0.581002
vn -0.356259 -0.669553 0.651750
vn 0.653324 -0.661248 0.368673
vn 0.209114 -0.598468 0.773374
vn -0.278695 -0.513223 0.811746
vn 0.662583 -0.529646 0.529584
vn 0.039559 0.982957 0.179531
vn -0.176453 0.932318 0.315669
vn 0.172675 0.770380 0.613757
vn 0.266775 0.828992 0.491532
vn -0.179213 0.973741 -0.140400
vn -0.338896 0.935282 -0.101964
vn -0.656704 0.754120 -0.006583
vn -0.443636 0.763737 0.468928
vn -0.054196 0.562884 0.824757
vn -0.880913 0.464665 0.089884
vn -0.673145 0.480379 0.562238
vn -0.262045 0.294459 0.919036
vn -0.958072 0.247546 0.144290
vn -0.769809 0.210838 0.602446
vn -0.370689 0.117011 0.921357
vn -0.364504 -0.930079 0.045711
vn -0.365391 -0.857007 -0.363357
vn -0.215793 -0.876567 -0.430191
vn -0.112392 -0.993181 0.030982
vn -0.306833 -0.853419 0.421343
vn -0.144558 -0.874998 0.462041
vn 0.236886 -0.971535 0.002153
vn 0.228712 -0.832636 0.504388
vn 0.139019 -0.832613 -0.536125
vn 0.578567 -0.815364 -0.021030
vn 0.569776 -0.670940 0.474547
vn 0.457145 -0.684519 -0.567848
vn 0.784369 -0.616937 -0.064457
vn 0.743648 -0.519478 0.420868
vn 0.620141 -0.555981 -0.553453
vn -0.154005 -0.967138 -0.202301
vn -0.081916 -0.893581 -0.441365
vn 0.344742 -0.915363 -0.207998
vn 0.245069 -0.965641 -0.086480
vn -0.503399 -0.817727 -0.279128
vn -0.505261 -0.746923 -0.432224
vn -0.457391 -0.513701 -0.725882
vn 0.028923 -0.700600 -0.712967
vn 0.532362 -0.711957 -0.457938
vn -0.343931 -0.206548 -0.915996
vn 0.135920 -0.396831 -0.907772
vn 0.641901 -0.428339 -0.635994
vn -0.246957 0.002828 -0.969022
vn 0.231653 -0.129855 -0.964093
vn 0.669592 -0.233968 -0.704915
vn -0.040692 -0.997151 -0.063523
vn 0.031143 -0.939309 0.341656
vn -0.106222 -0.899440 0.423939
vn -0.294199 -0.955500 -0.021587
vn -0.101561 -0.895780 -0.432740
vn -0.262352 -0.850408 -0.456046
vn -0.601324 -0.797869 0.042605
vn -0.590479 -0.662709 -0.460599
vn -0.401629 -0.720812 0.564911
vn -0.848793 -0.519643 0.097582
vn -0.834509 -0.379802 -0.399180
vn -0.629929 -0.459520 0.626124
vn -0.953465 -0.256908 0.157810
vn -0.927606 -0.173049 -0.331061
vn -0.729186 -0.276640 0.625906
vn 0.089951 -0.985269 0.145442
vn -0.124231 -0.867582 0.481526
vn -0.284662 -0.847078 0.448806
vn -0.132020 -0.991201 0.009601
vn 0.276333 -0.941747 -0.191708
vn 0.166529 -0.932854 -0.319455
vn -0.418178 -0.892617 -0.168412
vn -0.093114 -0.817238 -0.568728
vn -0.613634 -0.716817 0.331099
vn -0.662898 -0.665757 -0.342540
vn -0.339806 -0.584385 -0.736903
vn -0.846599 -0.501824 0.177322
vn -0.802018 -0.424464 -0.420236
vn -0.470872 -0.394277 -0.789193
vn -0.935924 -0.344089 0.075157
vn -0.566794 -0.790547 -0.231904
vn -0.276377 -0.802437 -0.528877
vn -0.135447 -0.869402 -0.475178
vn -0.402830 -0.912541 -0.070683
vn -0.750151 -0.656147 0.082132
vn -0.671711 -0.706543 0.222712
vn -0.136641 -0.979455 0.148315
vn -0.429364 -0.745158 0.510281
vn 0.192032 -0.931770 -0.308106
vn 0.161928 -0.915459 0.368393
vn -0.125153 -0.677089 0.725181
vn 0.477501 -0.871651 -0.110532
vn 0.393162 -0.783491 0.481213
vn 0.076393 -0.584380 0.807876
vn 0.619816 -0.784625 0.013846
vn 0.325852 -0.937516 -0.121999
vn 0.503145 -0.830691 0.238323
vn 0.397890 -0.841731 0.364927
vn 0.106467 -0.994298 0.006085
vn 0.109148 -0.891278 -0.440124
vn -0.054240 -0.913034 -0.404260
vn -0.195866 -0.963594 0.182000
vn -0.409516 -0.867149 -0.283460
vn 0.123680 -0.782278 0.610528
vn -0.496355 -0.799472 0.338344
vn -0.706657 -0.696981 -0.121875
vn -0.151735 -0.625948 0.764961
vn -0.666504 -0.594186 0.450239
vn -0.842716 -0.538251 -0.010758
vn -0.307169 -0.495933 0.812218
vn -0.325852 0.937516 0.121999
vn -0.106467 0.994298 -0.006085
vn -0.397890 0.841731 -0.364927
vn -0.503146 0.830691 -0.238322
vn -0.109148 0.891278 0.440124
vn 0.054240 0.913034 0.404260
vn 0.409516 0.867149 0.283459
vn 0.195866 0.963594 -0.182000
vn -0.123680 0.782278 -0.610528
vn 0.706657 0.696981 0.121874
vn 0.496355 0.799472 -0.338345
vn 0.151735 0.625949 -0.764961
vn 0.842716 0.538251 0.010758
vn 0.666505 0.594186 -0.450239
vn 0.307169 0.495933 -0.812218
vn 0.062491 0.995470 -0.071654
vn 0.148783 0.973626 0.172960
vn 0.538480 0.838291 -0.085481
vn 0.435780 0.875405 -0.209192
vn -0.296535 0.952583 0.068213
vn -0.292577 0.926943 0.234893
vn -0.253735 0.774951 0.578852
vn 0.253858 0.839696 0.480069
vn 0.713499 0.671906 0.198649
vn -0.174842 0.499317 0.848594
vn 0.325450 0.570880 0.753776
vn 0.788862 0.417942 0.450579
vn -0.113223 0.292496 0.949540
vn 0.374063 0.308899 0.874447
vn 0.784726 0.245755 0.569043
vn -0.062491 -0.995470 0.071654
vn -0.435780 -0.875405 0.209192
vn -0.538480 -0.838291 0.085481
vn -0.148783 -0.973627 -0.172960
vn 0.296535 -0.952583 -0.068212
vn 0.292577 -0.926943 -0.234893
vn -0.253858 -0.839696 -0.480069
vn 0.253735 -0.774951 -0.578852
vn -0.713499 -0.671906 -0.198649
vn -0.325450 -0.570880 -0.753776
vn 0.174842 -0.499317 -0.848594
vn -0.788862 -0.417942 -0.450580
vn -0.374063 -0.308899 -0.874447
vn 0.113222 -0.292496 -0.949540
vn -0.784726 -0.245755 -0.569043
vn -0.668944 0.601019 0.437367
vn -0.506299 0.786361 0.353974
vn -0.743183 0.666892 -0.054172
vn -0.821408 0.567945 0.052222
vn -0.421973 0.538245 0.729542
vn -0.286473 0.637671 0.715058
vn 0.042261 0.791656 0.609504
vn -0.237254 0.950756 0.199431
vn -0.494709 0.820727 -0.285779
vn 0.365429 0.832468 0.416483
vn 0.086979 0.996116 0.013720
vn -0.196210 0.861403 -0.468494
vn 0.542975 0.797212 0.263879
vn 0.314493 0.936597 -0.154530
vn -0.006581 0.835121 -0.550026
vn 0.668944 -0.601020 -0.437367
vn 0.821408 -0.567945 -0.052221
vn 0.743183 -0.666892 0.054172
vn 0.506299 -0.786361 -0.353975
vn 0.421972 -0.538246 -0.729542
vn 0.286472 -0.637672 -0.715058
vn 0.237254 -0.950756 -0.199432
vn -0.042261 -0.791656 -0.609504
vn 0.494710 -0.820727 0.285778
vn -0.086979 -0.996116 -0.013720
vn -0.365429 -0.832468 -0.416483
vn 0.196209 -0.861403 0.468494
vn -0.314494 -0.936597 0.154529
vn -0.542975 -0.797212 -0.263878
vn 0.006580 -0.835122 0.550026
vn 0.588503 0.649139 -0.481958
vn 0.424978 0.822698 -0.377574
vn 0.707218 0.706993 0.001799
vn 0.779855 0.615372 -0.114643
vn 0.317687 0.579509 -0.750496
vn 0.179036 0.670587 -0.719902
vn -0.145605 0.802749 -0.578268
vn 0.163912 0.967472 -0.192695
vn 0.474785 0.840504 0.261020
vn -0.449871 0.820117 -0.353588
vn -0.142383 0.989497 0.024954
vn 0.194019 0.859410 0.473045
vn -0.609270 0.770941 -0.185578
vn -0.348556 0.912846 0.212652
vn 0.015100 0.820255 0.571798
vn -0.588503 -0.649139 0.481958
vn -0.779855 -0.615372 0.114643
vn -0.707218 -0.706993 -0.001799
vn -0.424978 -0.822698 0.377574
vn -0.317687 -0.579510 0.750496
vn -0.179036 -0.670587 0.719902
vn -0.163913 -0.967471 0.192695
vn 0.145605 -0.802749 0.578268
vn -0.474786 -0.840504 -0.261020
vn 0.142383 -0.989497 -0.024953
vn 0.449871 -0.820117 0.353589
vn -0.194019 -0.859410 -0.473045
vn 0.348555 -0.912846 -0.212652
vn 0.609270 -0.770941 0.185579
vn -0.015101 -0.820255 -0.571798
vn 0.566795 0.790547 0.231904
vn 0.402830 0.912542 0.070683
vn 0.135447 0.869402 0.475179
vn 0.276377 0.802437 0.528877
vn 0.750151 0.656147 -0.082132
vn 0.671711 0.706543 -0.222713
vn 0.429364 0.745158 -0.510281
vn 0.136642 0.979455 -0.148316
vn -0.192032 0.931770 0.308105
vn 0.125153 0.677089 -0.725181
vn -0.161928 0.915459 -0.368393
vn -0.477501 0.871651 0.110531
vn -0.076393 0.584381 -0.807876
vn -0.393162 0.783491 -0.481213
vn -0.619816 0.784625 -0.013847
vn -0.453384 0.249114 -0.855795
vn -0.749008 0.334708 -0.571802
vn -0.727356 0.326709 -0.603502
vn -0.344126 0.218961 -0.913035
vn -0.897946 0.373997 -0.231991
vn -0.898039 0.374005 -0.231618
vn -0.911811 0.368283 0.181574
vn -0.909412 0.367677 0.194380
vn -0.771591 0.327064 0.545598
vn -0.744313 0.318623 0.586922
vn -0.480887 0.245052 0.841842
vn -0.401678 0.223448 0.888102
vn -0.055323 0.140517 0.988531
vn 0.031891 0.120956 0.992145
vn 0.391585 0.045249 0.919029
vn 0.442136 0.035069 0.896262
vn 0.751946 -0.028215 0.658621
vn 0.760488 -0.029964 0.648660
vn 0.961904 -0.073872 0.263217
vn 0.957560 -0.072861 0.278873
vn 0.975119 -0.076763 -0.207966
vn 0.978297 -0.077555 -0.192146
vn 0.777080 -0.029912 -0.628691
vn 0.786470 -0.032076 -0.616795
vn 0.426808 0.047494 -0.903095
vn 0.467054 0.038954 -0.883371
vn -0.009809 0.139867 -0.990122
vn 0.051275 0.127000 -0.990577
vn -0.789972 0.035939 -0.612088
vn -0.757611 0.036262 -0.651698
vn -0.403593 0.036384 -0.914215
vn -0.450264 0.036587 -0.892146
vn -0.971625 0.045396 -0.232129
vn -0.966182 0.044406 -0.254009
vn -0.966550 0.067988 0.247303
vn -0.972063 0.066765 0.225023
vn -0.807942 0.069991 0.585090
vn -0.788959 0.068384 0.610629
vn -0.507286 0.048042 0.860438
vn -0.424486 0.042524 0.904435
vn -0.057462 0.030682 0.997876
vn 0.075445 0.029759 0.996706
vn 0.488724 0.057501 0.870541
vn 0.582023 0.068630 0.810271
vn 0.810463 0.094530 0.578113
vn 0.816496 0.095199 0.569449
vn 0.960418 0.100594 0.259768
vn 0.948954 0.101651 0.298584
vn 0.990009 0.088539 -0.109744
vn 0.992514 0.089605 -0.082992
vn 0.841787 0.064953 -0.535889
vn 0.852126 0.066009 -0.519157
vn 0.535002 0.038329 -0.843981
vn 0.612673 0.044122 -0.789104
vn 0.023204 0.028248 -0.999332
vn 0.101755 0.025662 -0.994478
vn -0.291088 -0.200953 -0.935353
vn -0.611794 -0.414960 -0.673437
vn -0.602971 -0.408894 -0.685004
vn -0.307257 -0.211617 -0.927799
vn -0.799767 -0.541445 -0.259249
vn -0.795054 -0.538434 -0.279243
vn -0.808567 -0.529796 0.255999
vn -0.804981 -0.526381 0.273731
vn -0.654641 -0.413716 0.632680
vn -0.641731 -0.404849 0.651367
vn -0.371396 -0.229029 0.899784
vn -0.391745 -0.241901 0.887705
vn -0.051988 -0.028992 0.998227
vn -0.044079 -0.024084 0.998738
vn 0.299341 0.195183 0.933969
vn 0.307982 0.200941 0.929930
vn 0.637531 0.417773 0.647317
vn 0.646078 0.423250 0.635172
vn 0.823738 0.524845 0.214462
vn 0.828086 0.526694 0.192005
vn 0.824884 0.513094 -0.237277
vn 0.831812 0.518095 -0.199167
vn 0.666883 0.409830 -0.622339
vn 0.672991 0.413701 -0.613135
vn 0.357969 0.216949 -0.908180
vn 0.368774 0.223628 -0.902217
vn 0.052694 0.023493 -0.998334
vn 0.059447 0.027866 -0.997842
vn -0.429478 -0.770706 -0.470702
vn -0.131005 -0.372168 -0.918874
vn -0.094924 -0.308965 -0.946324
vn -0.397349 -0.741868 -0.540135
vn -0.543400 -0.835708 -0.079422
vn -0.534945 -0.835433 -0.126039
vn -0.532420 -0.793832 0.293869
vn -0.537486 -0.800268 0.265856
vn -0.433488 -0.660040 0.613543
vn -0.425693 -0.649208 0.630329
vn -0.322406 -0.505600 0.800264
vn -0.258475 -0.416876 0.871438
vn -0.064466 -0.136779 0.988502
vn 0.039667 0.018775 0.999037
vn 0.253840 0.329035 0.909561
vn 0.303687 0.399274 0.865075
vn 0.444010 0.598970 0.666401
vn 0.450713 0.608615 0.653028
vn 0.551163 0.772236 0.316023
vn 0.551341 0.772587 0.314852
vn 0.548649 0.792678 -0.265793
vn 0.545403 0.787612 -0.286711
vn 0.468357 0.649953 -0.598501
vn 0.477476 0.671007 -0.567245
vn 0.252993 0.262341 -0.931220
vn 0.350142 0.426839 -0.833792
vn 0.076617 -0.020097 -0.996858
vn 0.101002 0.017933 -0.994725
vn -0.659252 -0.319784 -0.680533
vn -0.447803 -0.218467 -0.867032
vn -0.442231 -0.216212 -0.870450
vn -0.653725 -0.316592 -0.687323
vn -0.873691 -0.430504 -0.226560
vn -0.861656 -0.424882 -0.277532
vn -0.847483 -0.396553 0.352872
vn -0.859579 -0.407050 0.308924
vn -0.739798 -0.335329 0.583312
vn -0.738376 -0.334713 0.585464
vn -0.544175 -0.253262 0.799832
vn -0.453627 -0.217366 0.864277
vn -0.140867 -0.080105 0.986782
vn 0.001555 -0.009876 0.999950
vn 0.307187 0.152386 0.939369
vn 0.367029 0.188572 0.910895
vn 0.660126 0.363856 0.657147
vn 0.661193 0.364382 0.655782
vn 0.850124 0.436575 0.294434
vn 0.844162 0.434925 0.313417
vn 0.860559 0.431857 -0.270070
vn 0.837256 0.422924 -0.346609
vn 0.682906 0.354426 -0.638766
vn 0.694523 0.359997 -0.622928
vn 0.385834 0.171936 -0.906405
vn 0.487626 0.237829 -0.840035
vn -0.095545 -0.070444 -0.992929
vn -0.019476 -0.035359 -0.999185
vn -0.754202 -0.007336 -0.656602
vn -0.456126 -0.009481 -0.889865
vn -0.418836 -0.009559 -0.908012
vn -0.773833 -0.007086 -0.633350
vn -0.998845 0.016705 -0.045051
vn -0.995578 0.014362 -0.092833
vn -0.953790 0.032351 0.298727
vn -0.961695 0.031217 0.272337
vn -0.877852 0.027315 0.478153
vn -0.852502 0.022859 0.522224
vn -0.699087 0.001865 0.715034
vn -0.564171 -0.008943 0.825610
vn -0.117462 -0.010413 0.993023
vn 0.029373 -0.002414 0.999566
vn 0.402431 0.013747 0.915347
vn 0.453677 0.015516 0.891031
vn 0.744722 0.029556 0.666720
vn 0.754979 0.030239 0.655051
vn 0.960125 0.057617 0.273571
vn 0.963781 0.058732 0.260146
vn 0.955430 0.085006 -0.282714
vn 0.949062 0.085088 -0.303384
vn 0.784857 0.064794 -0.616280
vn 0.804233 0.068655 -0.590336
vn 0.436027 0.018240 -0.899749
vn 0.589255 0.035922 -0.807148
vn -0.127120 -0.007078 -0.991862
vn 0.065764 -0.002188 -0.997833
vn -0.565175 0.507980 -0.650025
vn -0.302242 0.263489 -0.916091
vn -0.375265 0.335400 -0.864109
vn -0.578758 0.518796 -0.629198
vn -0.719839 0.633575 -0.283576
vn -0.708273 0.624236 -0.329665
vn -0.731760 0.645341 0.219233
vn -0.727826 0.642364 0.240080
vn -0.573098 0.510506 0.641048
vn -0.568027 0.505858 0.649194
vn -0.309280 0.247676 0.918152
vn -0.333099 0.271909 0.902835
vn 0.040027 -0.085892 0.995500
vn -0.062336 0.008913 0.998015
vn 0.325366 -0.351925 0.877659
vn 0.253941 -0.285079 0.924253
vn 0.574393 -0.580276 0.577367
vn 0.548795 -0.557290 0.623099
vn 0.689225 -0.678602 0.253906
vn 0.692572 -0.681180 0.237357
vn 0.713326 -0.696126 -0.081086
vn 0.706475 -0.690966 -0.153163
vn 0.561884 -0.553885 -0.614409
vn 0.534727 -0.527539 -0.660128
vn 0.283354 -0.284715 -0.915777
vn 0.304290 -0.304738 -0.902520
vn 0.085611 -0.099266 -0.991371
vn 0.017065 -0.036559 -0.999186
vn -0.732722 0.197399 -0.651270
vn -0.395283 0.089350 -0.914204
vn -0.420949 0.097746 -0.901803
vn -0.711772 0.190848 -0.675987
vn -0.932509 0.260134 -0.250515
vn -0.931603 0.259850 -0.254156
vn -0.941315 0.262356 0.212358
vn -0.933717 0.259912 0.246208
vn -0.759032 0.203814 0.618329
vn -0.742404 0.198499 0.639870
vn -0.417951 0.091573 0.903843
vn -0.441312 0.099389 0.891833
vn 0.053180 -0.061559 0.996686
vn -0.022116 -0.037664 0.999046
vn 0.432291 -0.179216 0.883745
vn 0.398177 -0.168855 0.901634
vn 0.680597 -0.259846 0.685031
vn 0.696342 -0.265344 0.666859
vn 0.918265 -0.343949 0.196186
vn 0.921762 -0.345180 0.176652
vn 0.902977 -0.335455 -0.268521
vn 0.900786 -0.334537 -0.276893
vn 0.762467 -0.286643 -0.580068
vn 0.776579 -0.291455 -0.558551
vn 0.479003 -0.191771 -0.856609
vn 0.480075 -0.192102 -0.855935
vn 0.091691 -0.069280 -0.993375
vn 0.021481 -0.046606 -0.998682
vn -0.746813 0.138469 -0.650459
vn -0.396229 0.105437 -0.912078
vn -0.394675 0.067121 -0.916366
vn -0.740341 0.101219 -0.664568
vn -0.956201 0.159293 -0.245570
vn -0.961123 0.123905 -0.246760
vn -0.965479 0.160375 0.205256
vn -0.970193 0.125041 0.207581
vn -0.770424 0.140830 0.621783
vn -0.759657 0.103465 0.642041
vn -0.434027 0.109107 0.894269
vn -0.433732 0.071354 0.898212
vn -0.016160 0.074365 0.997100
vn -0.085342 0.039114 0.995584
vn 0.425220 0.036367 0.904359
vn 0.400601 -0.005667 0.916235
vn 0.770785 0.005255 0.637073
vn 0.793743 -0.041684 0.606823
vn 0.970815 -0.011662 0.239547
vn 0.967539 -0.056978 0.246215
vn 0.978472 -0.012802 -0.205981
vn 0.981815 -0.059386 -0.180312
vn 0.798027 0.002506 -0.602617
vn 0.801734 -0.043984 -0.596061
vn 0.462049 0.032100 -0.886273
vn 0.438777 -0.010336 -0.898537
vn 0.027146 0.069571 -0.997208
vn -0.034669 0.033439 -0.998839
vn -0.531244 0.722851 -0.441889
vn -0.286905 0.722852 -0.628626
vn -0.670362 0.722852 -0.167631
vn -0.676708 0.722852 0.139828
vn -0.549023 0.722853 0.419593
vn -0.312598 0.722852 0.616253
vn -0.014259 0.722852 0.690856
vn 0.286905 0.722852 0.628626
vn 0.531243 0.722851 0.441890
vn 0.670363 0.722852 0.167628
vn 0.676708 0.722851 -0.139829
vn 0.549023 0.722852 -0.419593
vn 0.312596 0.722851 -0.616255
vn 0.014258 0.722852 -0.690855
vn -0.000000 1.000000 -0.000001
vn -0.673772 0.641926 -0.366009
vn -0.458516 0.735210 -0.499229
vn -0.533018 0.717076 -0.449104
vn -0.662123 0.644368 -0.382600
vn -0.670401 0.703372 -0.236287
vn -0.664981 0.700599 -0.258769
vn -0.668817 0.729494 0.143252
vn -0.667904 0.729808 0.145893
vn -0.547833 0.785808 0.287026
vn -0.553717 0.782028 0.286057
vn -0.395316 0.874940 0.279652
vn -0.401197 0.871764 0.281190
vn -0.187812 0.934055 0.303757
vn -0.195894 0.933264 0.301071
vn 0.103613 0.957436 0.269408
vn 0.105919 0.957488 0.268324
vn 0.319057 0.945443 0.065882
vn 0.323285 0.944692 0.055177
vn 0.437513 0.896111 -0.074614
vn 0.442335 0.893677 -0.075380
vn 0.581543 0.805687 -0.112590
vn 0.579218 0.807475 -0.111759
vn 0.576822 0.763981 -0.289152
vn 0.587462 0.764082 -0.266584
vn 0.328130 0.771572 -0.544984
vn 0.342736 0.771588 -0.535896
vn -0.001270 0.758702 -0.651437
vn -0.000808 0.758711 -0.651426
vn -0.633939 0.614811 -0.469180
vn -0.377038 0.529155 -0.760156
vn -0.332681 0.512421 -0.791674
vn -0.610166 0.607869 -0.508127
vn -0.799937 0.598486 -0.043757
vn -0.800364 0.598058 -0.041769
vn -0.822330 0.485171 0.297292
vn -0.819596 0.472816 0.323586
vn -0.777905 0.413078 0.473530
vn -0.773614 0.411287 0.482041
vn -0.578217 0.523831 0.625513
vn -0.542465 0.543796 0.640326
vn -0.573528 0.511055 0.640225
vn -0.551652 0.524902 0.648196
vn -0.636222 0.620720 0.458180
vn -0.639902 0.614327 0.461658
vn -0.354151 0.917359 0.181742
vn -0.349410 0.920316 0.175872
vn -0.123475 0.976157 -0.178527
vn -0.109181 0.973430 -0.201282
vn 0.114413 0.937910 -0.327467
vn 0.127185 0.940291 -0.315717
vn 0.070410 0.890265 -0.449968
vn 0.065956 0.887387 -0.456283
vn -0.163788 0.638627 -0.751883
vn -0.176997 0.616782 -0.766976
vn -0.245507 0.489124 -0.836950
vn -0.245444 0.489258 -0.836889
vn -0.879704 0.085131 -0.467839
vn -0.615515 0.271300 -0.739958
vn -0.623843 0.265014 -0.735247
vn -0.911361 0.059515 -0.407283
vn -0.986666 -0.024327 -0.160929
vn -0.987385 -0.023992 -0.156507
vn -0.999488 0.031914 0.002206
vn -0.999082 0.013646 -0.040619
vn -0.934169 0.245569 0.258890
vn -0.935527 0.242875 0.256518
vn -0.657989 0.574796 0.486477
vn -0.613535 0.612020 0.499006
vn -0.368521 0.722974 0.584380
vn -0.327636 0.727636 0.602661
vn -0.042320 0.820219 0.570482
vn 0.007261 0.835531 0.549395
vn 0.094432 0.794948 0.599284
vn 0.098538 0.799769 0.592165
vn 0.176743 0.916639 0.358518
vn 0.148437 0.886636 0.437999
vn 0.233484 0.943555 -0.234925
vn 0.229400 0.939600 -0.254021
vn 0.145334 0.845140 -0.514409
vn 0.147238 0.846413 -0.511768
vn -0.050824 0.712884 -0.699438
vn -0.024562 0.733460 -0.679289
vn -0.337099 0.488320 -0.804927
vn -0.344434 0.482653 -0.805240
vn -0.766916 0.026621 -0.641196
vn -0.631745 0.119407 -0.765924
vn -0.647173 0.096479 -0.756213
vn -0.734132 0.033438 -0.678183
vn -0.955946 0.014995 -0.293161
vn -0.924477 0.013027 -0.381017
vn -0.990976 0.036532 0.128969
vn -0.992334 0.035382 0.118412
vn -0.881483 0.148930 0.448116
vn -0.878977 0.151142 0.452278
vn -0.576416 0.415715 0.703510
vn -0.446188 0.512367 0.733755
vn -0.216390 0.652508 0.726229
vn -0.221642 0.658912 0.718825
vn -0.200405 0.674358 0.710689
vn -0.199539 0.674529 0.710770
vn -0.024149 0.850097 0.526073
vn -0.031068 0.843903 0.535595
vn 0.157620 0.983811 0.085274
vn 0.160512 0.985128 0.061302
vn 0.124039 0.932274 -0.339824
vn 0.112888 0.920520 -0.374030
vn 0.155680 0.916822 -0.367697
vn 0.136174 0.904932 -0.403181
vn -0.020499 0.842061 -0.538993
vn 0.079838 0.904507 -0.418919
vn -0.448541 0.402727 -0.797886
vn -0.463603 0.382055 -0.799441
vn -0.594809 0.759841 -0.262379
vn -0.218621 0.749501 -0.624862
vn -0.237988 0.752675 -0.613875
vn -0.656750 0.737958 -0.155233
vn -0.701450 0.701940 -0.123487
vn -0.695627 0.704158 -0.142356
vn -0.571942 0.804522 -0.160085
vn -0.592257 0.778130 -0.209154
vn -0.359405 0.905056 0.227379
vn -0.378322 0.904094 0.198713
vn -0.028360 0.820970 0.570266
vn -0.016108 0.815363 0.578726
vn 0.202332 0.685466 0.699427
vn 0.208212 0.681393 0.701678
vn 0.487206 0.620266 0.614736
vn 0.517515 0.613792 0.596186
vn 0.535346 0.586848 0.607466
vn 0.567776 0.582373 0.581784
vn 0.553842 0.727348 0.405246
vn 0.512311 0.703806 0.492132
vn 0.657082 0.671237 -0.343050
vn 0.647609 0.650260 -0.397196
vn 0.604861 0.487888 -0.629371
vn 0.610704 0.472481 -0.635454
vn 0.567753 0.472202 -0.674301
vn 0.579226 0.464959 -0.669559
vn 0.254073 0.628658 -0.735008
vn 0.299403 0.611372 -0.732518
vn -0.291285 0.890551 -0.349388
vn 0.074761 0.865393 -0.495486
vn -0.026049 0.895466 -0.444367
vn -0.303437 0.882514 -0.359298
vn -0.289498 0.884209 -0.366560
vn -0.303613 0.877088 -0.372205
vn -0.110462 0.991577 -0.067619
vn -0.134360 0.983920 -0.117684
vn 0.207551 0.877693 0.431946
vn 0.228445 0.863759 0.449147
vn 0.467435 0.572735 0.673409
vn 0.494290 0.513883 0.701143
vn 0.331682 0.478665 0.812937
vn 0.337537 0.476348 0.811888
vn 0.386825 0.484451 0.784649
vn 0.240464 0.523875 0.817149
vn 0.772104 0.386495 0.504458
vn 0.711196 0.397816 0.579606
vn 0.974385 0.221279 0.040129
vn 0.977054 0.211829 0.022210
vn 0.938406 0.161504 -0.305469
vn 0.912904 0.180575 -0.366059
vn 0.848589 0.259099 -0.461263
vn 0.848985 0.269929 -0.454272
vn 0.793919 0.340453 -0.503771
vn 0.788870 0.342662 -0.510164
vn 0.567385 0.552674 -0.610430
vn 0.551402 0.567223 -0.611730
vn -0.182142 0.766502 -0.615873
vn -0.214182 0.763194 -0.609640
vn -0.221648 0.755270 -0.616798
vn -0.192650 0.760958 -0.619539
vn -0.107822 0.950506 -0.291398
vn -0.108841 0.944830 -0.308949
vn -0.126650 0.918958 0.373466
vn -0.129168 0.913375 0.386085
vn -0.216522 0.774602 0.594231
vn -0.223347 0.769557 0.598246
vn -0.179107 0.761368 0.623089
vn -0.199043 0.756027 0.623543
vn 0.207475 0.700028 0.683312
vn 0.142532 0.725484 0.673319
vn 0.574483 0.452954 0.681764
vn 0.568620 0.458867 0.682725
vn 0.798077 0.294504 0.525680
vn 0.792966 0.296958 0.531997
vn 0.966238 0.231776 0.112530
vn 0.970067 0.229718 0.078732
vn 0.912544 0.229968 -0.338199
vn 0.891879 0.243131 -0.381365
vn 0.888790 0.260342 -0.377192
vn 0.886603 0.260732 -0.382038
vn 0.796936 0.423409 -0.430833
vn 0.829945 0.387019 -0.401756
vn 0.194038 0.757788 -0.622982
vn 0.097976 0.777403 -0.621325
vn -0.359686 0.772316 -0.523598
vn -0.170102 0.689573 -0.703956
vn -0.169554 0.687404 -0.706207
vn -0.327970 0.763515 -0.556310
vn -0.571901 0.802211 -0.171428
vn -0.570428 0.802202 -0.176305
vn -0.605182 0.772715 0.191485
vn -0.604120 0.770761 0.202402
vn -0.427213 0.739529 0.520178
vn -0.381788 0.737829 0.556639
vn -0.234542 0.757549 0.609188
vn -0.236102 0.760648 0.604707
vn -0.158066 0.768836 0.619602
vn -0.172572 0.775128 0.607779
vn 0.289859 0.744796 0.601049
vn 0.284107 0.745400 0.603044
vn 0.679758 0.680234 0.274245
vn 0.714036 0.674324 0.188255
vn 0.734732 0.653796 0.180886
vn 0.734633 0.653798 0.181278
vn 0.707193 0.707000 -0.005319
vn 0.708624 0.701441 0.076376
vn 0.632576 0.678450 -0.373568
vn 0.635782 0.679385 -0.366358
vn 0.293091 0.716612 -0.632902
vn 0.277080 0.716291 -0.640433
vn -0.115593 0.666921 -0.736107
vn -0.124236 0.668585 -0.733184
s 1
g polySurface93
usemtl lambert5SG
f 5/1/1 3/2/2 9/3/3 8/4/4
f 1/5/5 5/1/1 8/4/4 7/6/6
f 8/4/4 11/7/7 10/8/8 7/6/6
f 9/3/3 12/9/9 11/7/7 8/4/4
f 11/7/7 14/10/10 13/11/11 10/8/8
f 12/9/9 15/12/12 14/10/10 11/7/7
f 14/10/10 6/13/13 2/14/14 13/11/11
f 15/12/12 4/15/15 6/13/13 14/10/10
s 2
f 20/16/16 23/17/17 24/18/18 18/19/19
f 16/20/20 22/21/21 23/17/17 20/16/16
f 23/17/17 22/21/21 25/22/22 26/23/23
f 24/18/18 23/17/17 26/23/23 27/24/24
f 26/23/23 25/22/22 28/25/25 29/26/26
f 27/24/24 26/23/23 29/26/26 30/27/27
f 29/26/26 28/25/25 17/28/28 21/29/29
f 30/27/27 29/26/26 21/29/29 19/30/30
s 3
f 35/31/31 33/32/32 39/33/33 38/34/34
f 31/35/35 35/31/31 38/34/34 37/36/36
f 38/34/34 41/37/37 40/38/38 37/36/36
f 39/33/33 42/39/39 41/37/37 38/34/34
f 41/37/37 44/40/40 43/41/41 40/38/38
f 42/39/39 45/42/42 44/40/40 41/37/37
f 44/40/40 36/43/43 32/44/44 43/41/41
f 45/42/42 34/45/45 36/43/43 44/40/40
s 4
f 50/46/46 53/47/47 54/48/48 48/49/49
f 46/50/50 52/51/51 53/47/47 50/46/46
f 53/47/47 52/51/51 55/52/52 56/53/53
f 54/48/48 53/47/47 56/53/53 57/54/54
f 56/53/53 55/52/52 58/55/55 59/56/56
f 57/54/54 56/53/53 59/56/56 60/57/57
f 59/56/56 58/55/55 47/58/58 51/59/59
f 60/57/57 59/56/56 51/59/59 49/60/60
s 5
f 65/61/61 68/62/62 69/63/63 63/64/64
f 61/65/65 67/66/66 68/62/62 65/61/61
f 68/62/62 67/66/66 70/67/67 71/68/68
f 69/63/63 68/62/62 71/68/68 72/69/69
f 71/68/68 70/67/67 73/70/70 74/71/71
f 72/69/69 71/68/68 74/71/71 75/72/72
f 74/71/71 73/70/70 62/73/73 66/74/74
f 75/72/72 74/71/71 66/74/74 64/75/75
s 6
f 80/76/76 83/77/77 84/78/78 78/79/79
f 76/80/80 82/81/81 83/77/77 80/76/76
f 83/77/77 82/81/81 85/82/82 86/83/83
f 84/78/78 83/77/77 86/83/83 87/84/84
f 86/83/83 85/82/82 88/85/85 89/86/86
f 87/84/84 86/83/83 89/86/86 90/87/87
f 89/86/86 88/85/85 77/88/88 81/89/89
f 90/87/87 89/86/86 81/89/89 79/90/90
s 7
f 95/91/91 93/92/92 99/93/93 98/94/94
f 91/95/95 95/91/91 98/94/94 97/96/96
f 98/94/94 101/97/97 100/98/98 97/96/96
f 99/93/93 102/99/99 101/97/97 98/94/94
f 101/97/97 104/100/100 103/101/101 100/98/98
f 102/99/99 105/102/102 104/100/100 101/97/97
f 104/100/100 96/103/103 92/104/104 103/101/101
f 105/102/102 94/105/105 96/103/103 104/100/100
s 8
f 110/106/106 113/107/107 114/108/108 108/109/109
f 106/110/110 112/111/111 113/107/107 110/106/106
f 113/107/107 112/111/111 115/112/112 116/113/113
f 114/108/108 113/107/107 116/113/113 117/114/114
f 116/113/113 115/112/112 118/115/115 119/116/116
f 117/114/114 116/113/113 119/116/116 120/117/117
f 119/116/116 118/115/115 107/118/118 111/119/119
f 120/117/117 119/116/116 111/119/119 109/120/120
s 9
f 125/121/121 123/122/122 129/123/123 128/124/124
f 121/125/125 125/121/121 128/124/124 127/126/126
f 128/124/124 131/127/127 130/128/128 127/126/126
f 129/123/123 132/129/129 131/127/127 128/124/124
f 131/127/127 134/130/130 133/131/131 130/128/128
f 132/129/129 135/132/132 134/130/130 131/127/127
f 134/130/130 126/133/133 122/134/134 133/131/131
f 135/132/132 124/135/135 126/133/133 134/130/130
s 10
f 140/136/136 143/137/137 144/138/138 138/139/139
f 136/140/140 142/141/141 143/137/137 140/136/136
f 143/137/137 142/141/141 145/142/142 146/143/143
f 144/138/138 143/137/137 146/143/143 147/144/144
f 146/143/143 145/142/142 148/145/145 149/146/146
f 147/144/144 146/143/143 149/146/146 150/147/147
f 149/146/146 148/145/145 137/148/148 141/149/149
f 150/147/147 149/146/146 141/149/149 139/150/150
s 11
f 155/151/151 158/152/152 159/153/153 153/154/154
f 151/155/155 157/156/156 158/152/152 155/151/151
f 158/152/152 157/156/156 160/157/157 161/158/158
f 159/153/153 158/152/152 161/158/158 162/159/159
f 161/158/158 160/157/157 163/160/160 164/161/161
f 162/159/159 161/158/158 164/161/161 165/162/162
f 164/161/161 163/160/160 152/163/163 156/164/164
f 165/162/162 164/161/161 156/164/164 154/165/165
s 12
f 170/166/166 173/167/167 174/168/168 168/169/169
f 166/170/170 172/171/171 173/167/167 170/166/166
f 173/167/167 172/171/171 175/172/172 176/173/173
f 174/168/168 173/167/167 176/173/173 177/174/174
f 176/173/173 175/172/172 178/175/175 179/176/176
f 177/174/174 176/173/173 179/176/176 180/177/177
f 179/176/176 178/175/175 167/178/178 171/179/179
f 180/177/177 179/176/176 171/179/179 169/180/180
s 13
f 185/181/181 183/182/182 189/183/183 188/184/184
f 181/185/185 185/181/181 188/184/184 187/186/186
f 188/184/184 191/187/187 190/188/188 187/186/186
f 189/183/183 192/189/189 191/187/187 188/184/184
f 191/187/187 194/190/190 193/191/191 190/188/188
f 192/189/189 195/192/192 194/190/190 191/187/187
f 194/190/190 186/193/193 182/194/194 193/191/191
f 195/192/192 184/195/195 186/193/193 194/190/190
s 14
f 200/196/196 198/197/197 204/198/198 203/199/199
f 196/200/200 200/196/196 203/199/199 202/201/201
f 203/199/199 206/202/202 205/203/203 202/201/201
f 204/198/198 207/204/204 206/202/202 203/199/199
f 206/202/202 209/205/205 208/206/206 205/203/203
f 207/204/204 210/207/207 209/205/205 206/202/202
f 209/205/205 201/208/208 197/209/209 208/206/206
f 210/207/207 199/210/210 201/208/208 209/205/205
s 15
f 215/211/211 218/212/212 219/213/213 213/214/214
f 211/215/215 217/216/216 218/212/212 215/211/211
f 218/212/212 217/216/216 220/217/217 221/218/218
f 219/213/213 218/212/212 221/218/218 222/219/219
f 221/218/218 220/217/217 223/220/220 224/221/221
f 222/219/219 221/218/218 224/221/221 225/222/222
f 224/221/221 223/220/220 212/223/223 216/224/224
f 225/222/222 224/221/221 216/224/224 214/225/225
s 16
f 230/226/226 233/227/227 234/228/228 228/229/229
f 226/230/230 232/231/231 233/227/227 230/226/226
f 233/227/227 232/231/231 235/232/232 236/233/233
f 234/228/228 233/227/227 236/233/233 237/234/234
f 236/233/233 235/232/232 238/235/235 239/236/236
f 237/234/234 236/233/233 239/236/236 240/237/237
f 239/236/236 238/235/235 227/238/238 231/239/239
f 240/237/237 239/236/236 231/239/239 229/240/240
s 17
f 245/241/241 243/242/242 249/243/243 248/244/244
f 241/245/245 245/241/241 248/244/244 247/246/246
f 248/244/244 251/247/247 250/248/248 247/246/246
f 249/243/243 252/249/249 251/247/247 248/244/244
f 251/247/247 254/250/250 253/251/251 250/248/248
f 252/249/249 255/252/252 254/250/250 251/247/247
f 254/250/250 246/253/253 242/254/254 253/251/251
f 255/252/252 244/255/255 246/253/253 254/250/250
s 18
f 260/256/256 258/257/257 264/258/258 263/259/259
f 256/260/260 260/256/256 263/259/259 262/261/261
f 263/259/259 266/262/262 265/263/263 262/261/261
f 264/258/258 267/264/264 266/262/262 263/259/259
f 266/262/262 269/265/265 268/266/266 265/263/263
f 267/264/264 270/267/267 269/265/265 266/262/262
f 269/265/265 261/268/268 257/269/269 268/266/266
f 270/267/267 259/270/270 261/268/268 269/265/265
s 19
f 275/271/271 273/272/272 279/273/273 278/274/274
f 271/275/275 275/271/271 278/274/274 277/276/276
f 278/274/274 281/277/277 280/278/278 277/276/276
f 279/273/273 282/279/279 281/277/277 278/274/274
f 281/277/277 284/280/280 283/281/281 280/278/278
f 282/279/279 285/282/282 284/280/280 281/277/277
f 284/280/280 276/283/283 272/284/284 283/281/281
f 285/282/282 274/285/285 276/283/283 284/280/280
s 20
f 290/286/286 293/287/287 294/288/288 288/289/289
f 286/290/290 292/291/291 293/287/287 290/286/286
f 293/287/287 292/291/291 295/292/292 296/293/293
f 294/288/288 293/287/287 296/293/293 297/294/294
f 296/293/293 295/292/292 298/295/295 299/296/296
f 297/294/294 296/293/293 299/296/296 300/297/297
f 299/296/296 298/295/295 287/298/298 291/299/299
f 300/297/297 299/296/296 291/299/299 289/300/300
s 21
f 305/301/301 303/302/302 309/303/303 308/304/304
f 301/305/305 305/301/301 308/304/304 307/306/306
f 308/304/304 311/307/307 310/308/308 307/306/306
f 309/303/303 312/309/309 311/307/307 308/304/304
f 311/307/307 314/310/310 313/311/311 310/308/308
f 312/309/309 315/312/312 314/310/310 311/307/307
f 314/310/310 306/313/313 302/314/314 313/311/311
f 315/312/312 304/315/315 306/313/313 314/310/310
s 22
f 320/316/316 323/317/317 324/318/318 318/319/319
f 316/320/320 322/321/321 323/317/317 320/316/316
f 323/317/317 322/321/321 325/322/322 326/323/323
f 324/318/318 323/317/317 326/323/323 327/324/324
f 326/323/323 325/322/322 328/325/325 329/326/326
f 327/324/324 326/323/323 329/326/326 330/327/327
f 329/326/326 328/325/325 317/328/328 321/329/329
f 330/327/327 329/326/326 321/329/329 319/330/330
s 23
f 335/331/331 333/332/332 339/333/333 338/334/334
f 331/335/335 335/331/331 338/334/334 337/336/336
f 338/334/334 341/337/337 340/338/338 337/336/336
f 339/333/333 342/339/339 341/337/337 338/334/334
f 341/337/337 344/340/340 343/341/341 340/338/338
f 342/339/339 345/342/342 344/340/340 341/337/337
f 344/340/340 336/343/343 332/344/344 343/341/341
f 345/342/342 334/345/345 336/343/343 344/340/340
s 24
f 350/346/346 348/347/347 354/348/348 353/349/349
f 346/350/350 350/346/346 353/349/349 352/351/351
f 353/349/349 356/352/352 355/353/353 352/351/351
f 354/348/348 357/354/354 356/352/352 353/349/349
f 356/352/352 359/355/355 358/356/356 355/353/353
f 357/354/354 360/357/357 359/355/355 356/352/352
f 359/355/355 351/358/358 347/359/359 358/356/356
f 360/357/357 349/360/360 351/358/358 359/355/355
s 25
f 365/361/361 363/362/362 369/363/363 368/364/364
f 361/365/365 365/361/361 368/364/364 367/366/366
f 368/364/364 371/367/367 370/368/368 367/366/366
f 369/363/363 372/369/369 371/367/367 368/364/364
f 371/367/367 374/370/370 373/371/371 370/368/368
f 372/369/369 375/372/372 374/370/370 371/367/367
f 374/370/370 366/373/373 362/374/374 373/371/371
f 375/372/372 364/375/375 366/373/373 374/370/370
s 26
f 380/376/376 378/377/377 384/378/378 383/379/379
f 376/380/380 380/376/376 383/379/379 382/381/381
f 383/379/379 386/382/382 385/383/383 382/381/381
f 384/378/378 387/384/384 386/382/382 383/379/379
f 386/382/382 389/385/385 388/386/386 385/383/383
f 387/384/384 390/387/387 389/385/385 386/382/382
f 389/385/385 381/388/388 377/389/389 388/386/386
f 390/387/387 379/390/390 381/388/388 389/385/385
s 27
f 395/391/391 398/392/392 399/393/393 393/394/394
f 391/395/395 397/396/396 398/392/392 395/391/391
f 398/392/392 397/396/396 400/397/397 401/398/398
f 399/393/393 398/392/392 401/398/398 402/399/399
f 401/398/398 400/397/397 403/400/400 404/401/401
f 402/399/399 401/398/398 404/401/401 405/402/402
f 404/401/401 403/400/400 392/403/403 396/404/404
f 405/402/402 404/401/401 396/404/404 394/405/405
s 28
f 410/406/406 413/407/407 414/408/408 408/409/409
f 406/410/410 412/411/411 413/407/407 410/406/406
f 413/407/407 412/411/411 415/412/412 416/413/413
f 414/408/408 413/407/407 416/413/413 417/414/414
f 416/413/413 415/412/412 418/415/415 419/416/416
f 417/414/414 416/413/413 419/416/416 420/417/417
f 419/416/416 418/415/415 407/418/418 411/419/419
f 420/417/417 419/416/416 411/419/419 409/420/420
s 29
f 425/421/421 423/422/422 429/423/423 428/424/424
f 421/425/425 425/421/421 428/424/424 427/426/426
f 428/424/424 431/427/427 430/428/428 427/426/426
f 429/423/423 432/429/429 431/427/427 428/424/424
f 431/427/427 434/430/430 433/431/431 430/428/428
f 432/429/429 435/432/432 434/430/430 431/427/427
f 434/430/430 426/433/433 422/434/434 433/431/431
f 435/432/432 424/435/435 426/433/433 434/430/430
s 30
f 440/436/436 443/437/437 444/438/438 438/439/439
f 436/440/440 442/441/441 443/437/437 440/436/436
f 443/437/437 442/441/441 445/442/442 446/443/443
f 444/438/438 443/437/437 446/443/443 447/444/444
f 446/443/443 445/442/442 448/445/445 449/446/446
f 447/444/444 446/443/443 449/446/446 450/447/447
f 449/446/446 448/445/445 437/448/448 441/449/449
f 450/447/447 449/446/446 441/449/449 439/450/450
s 31
f 455/451/451 453/452/452 459/453/453 458/454/454
f 451/455/455 455/451/451 458/454/454 457/456/456
f 458/454/454 461/457/457 460/458/458 457/456/456
f 459/453/453 462/459/459 461/457/457 458/454/454
f 461/457/457 464/460/460 463/461/461 460/458/458
f 462/459/459 465/462/462 464/460/460 461/457/457
f 464/460/460 456/463/463 452/464/464 463/461/461
f 465/462/462 454/465/465 456/463/463 464/460/460
s 32
f 470/466/466 473/467/467 474/468/468 468/469/469
f 466/470/470 472/471/471 473/467/467 470/466/466
f 473/467/467 472/471/471 475/472/472 476/473/473
f 474/468/468 473/467/467 476/473/473 477/474/474
f 476/473/473 475/472/472 478/475/475 479/476/476
f 477/474/474 476/473/473 479/476/476 480/477/477
f 479/476/476 478/475/475 467/478/478 471/479/479
f 480/477/477 479/476/476 471/479/479 469/480/480
s 33
f 485/481/481 483/482/482 489/483/483 488/484/484
f 481/485/485 485/481/481 488/484/484 487/486/486
f 488/484/484 491/487/487 490/488/488 487/486/486
f 489/483/483 492/489/489 491/487/487 488/484/484
f 491/487/487 494/490/490 493/491/491 490/488/488
f 492/489/489 495/492/492 494/490/490 491/487/487
f 494/490/490 486/493/493 482/494/494 493/491/491
f 495/492/492 484/495/495 486/493/493 494/490/490
s 34
f 500/496/496 503/497/497 504/498/498 498/499/499
f 496/500/500 502/501/501 503/497/497 500/496/496
f 503/497/497 502/501/501 505/502/502 506/503/503
f 504/498/498 503/497/497 506/503/503 507/504/504
f 506/503/503 505/502/502 508/505/505 509/506/506
f 507/504/504 506/503/503 509/506/506 510/507/507
f 509/506/506 508/505/505 497/508/508 501/509/509
f 510/507/507 509/506/506 501/509/509 499/510/510
s 35
f 652/511/511 653/512/512 654/513/513 655/514/514
f 653/512/512 656/515/515 657/516/516 654/513/513
f 656/515/515 658/517/517 659/518/518 657/516/516
f 658/517/517 660/519/519 661/520/520 659/518/518
f 660/519/519 662/521/521 663/522/522 661/520/520
f 662/521/521 664/523/523 665/524/524 663/522/522
f 664/525/523 666/526/525 667/527/526 665/528/524
f 666/526/525 668/529/527 669/530/528 667/527/526
f 668/529/527 670/531/529 671/532/530 669/530/528
f 670/531/529 672/533/531 673/534/532 671/532/530
f 672/533/531 674/535/533 675/536/534 673/534/532
f 674/535/533 676/537/535 677/538/536 675/536/534
f 676/537/535 678/539/537 679/540/538 677/538/536
f 678/541/537 652/511/511 655/514/514 679/542/538
s 36
f 512/543/539 680/544/540 681/545/541 511/546/542
f 513/547/543 682/548/544 680/544/540 512/543/539
f 514/549/545 683/550/546 682/548/544 513/547/543
f 515/551/547 684/552/548 683/550/546 514/549/545
f 516/553/549 685/554/550 684/552/548 515/551/547
f 517/555/551 686/556/552 685/554/550 516/553/549
f 518/557/553 687/558/554 686/559/552 517/560/551
f 519/561/555 688/562/556 687/558/554 518/557/553
f 520/563/557 689/564/558 688/562/556 519/561/555
f 521/565/559 690/566/560 689/564/558 520/563/557
f 522/567/561 691/568/562 690/566/560 521/565/559
f 523/569/563 692/570/564 691/568/562 522/567/561
f 524/571/565 693/572/566 692/570/564 523/569/563
f 511/546/542 681/545/541 693/573/566 524/574/565
s 37
f 525/575/567 526/576/568 694/577/569 695/578/570
f 526/576/568 527/579/571 696/580/572 694/577/569
f 527/579/571 528/581/573 697/582/574 696/580/572
f 528/581/573 529/583/575 698/584/576 697/582/574
f 529/583/575 530/585/577 699/586/578 698/584/576
f 530/585/577 531/587/579 700/588/580 699/586/578
f 531/589/579 532/590/581 701/591/582 700/592/580
f 532/590/581 533/593/583 702/594/584 701/591/582
f 533/593/583 534/595/585 703/596/586 702/594/584
f 534/595/585 535/597/587 704/598/588 703/596/586
f 535/597/587 536/599/589 705/600/590 704/598/588
f 536/599/589 537/601/591 706/602/592 705/600/590
f 537/601/591 538/603/593 707/604/594 706/602/592
f 538/605/593 525/575/567 695/578/570 707/606/594
s 38
f 709/607/595 708/608/596 539/609/597 540/610/598
f 710/611/599 709/607/595 540/610/598 541/612/600
f 711/613/601 710/611/599 541/612/600 542/614/602
f 712/615/603 711/613/601 542/614/602 543/616/604
f 713/617/605 712/615/603 543/616/604 544/618/606
f 714/619/607 713/617/605 544/618/606 545/620/608
f 715/621/609 714/622/607 545/623/608 546/624/610
f 716/625/611 715/621/609 546/624/610 547/626/612
f 717/627/613 716/625/611 547/626/612 548/628/614
f 718/629/615 717/627/613 548/628/614 549/630/616
f 719/631/617 718/629/615 549/630/616 550/632/618
f 720/633/619 719/631/617 550/632/618 551/634/620
f 721/635/621 720/633/619 551/634/620 552/636/622
f 539/609/597 708/608/596 721/637/621 552/638/622
s 39
f 723/639/623 722/640/624 553/641/625 554/642/626
f 724/643/627 723/639/623 554/642/626 555/644/628
f 725/645/629 724/643/627 555/644/628 556/646/630
f 726/647/631 725/645/629 556/646/630 557/648/632
f 727/649/633 726/647/631 557/648/632 558/650/634
f 728/651/635 727/649/633 558/650/634 559/652/636
f 729/653/637 728/654/635 559/655/636 560/656/638
f 730/657/639 729/653/637 560/656/638 561/658/640
f 731/659/641 730/657/639 561/658/640 562/660/642
f 732/661/643 731/659/641 562/660/642 563/662/644
f 733/663/645 732/661/643 563/662/644 564/664/646
f 734/665/647 733/663/645 564/664/646 565/666/648
f 735/667/649 734/665/647 565/666/648 566/668/650
f 553/641/625 722/640/624 735/669/649 566/670/650
s 40
f 737/671/651 736/672/652 567/673/653 568/674/654
f 738/675/655 737/671/651 568/674/654 569/676/656
f 739/677/657 738/675/655 569/676/656 570/678/658
f 740/679/659 739/677/657 570/678/658 571/680/660
f 741/681/661 740/679/659 571/680/660 572/682/662
f 742/683/663 741/681/661 572/682/662 573/684/664
f 743/685/665 742/686/663 573/687/664 574/688/666
f 744/689/667 743/685/665 574/688/666 575/690/668
f 745/691/669 744/689/667 575/690/668 576/692/670
f 746/693/671 745/691/669 576/692/670 577/694/672
f 747/695/673 746/693/671 577/694/672 578/696/674
f 748/697/675 747/695/673 578/696/674 579/698/676
f 749/699/677 748/697/675 579/698/676 580/700/678
f 567/673/653 736/672/652 749/701/677 580/702/678
s 41
f 751/703/679 750/704/680 581/705/681 582/706/682
f 752/707/683 751/703/679 582/706/682 583/708/684
f 753/709/685 752/707/683 583/708/684 584/710/686
f 754/711/687 753/709/685 584/710/686 585/712/688
f 755/713/689 754/711/687 585/712/688 586/714/690
f 756/715/691 755/713/689 586/714/690 587/716/692
f 757/717/693 756/718/691 587/719/692 588/720/694
f 758/721/695 757/717/693 588/720/694 589/722/696
f 759/723/697 758/721/695 589/722/696 590/724/698
f 760/725/699 759/723/697 590/724/698 591/726/700
f 761/727/701 760/725/699 591/726/700 592/728/702
f 762/729/703 761/727/701 592/728/702 593/730/704
f 763/731/705 762/729/703 593/730/704 594/732/706
f 581/705/681 750/704/680 763/733/705 594/734/706
s 42
f 765/735/707 764/736/708 595/737/709 596/738/710
f 766/739/711 765/735/707 596/738/710 597/740/712
f 767/741/713 766/739/711 597/740/712 598/742/714
f 768/743/715 767/741/713 598/742/714 599/744/716
f 769/745/717 768/743/715 599/744/716 600/746/718
f 770/747/719 769/745/717 600/746/718 601/748/720
f 771/749/721 770/750/719 601/751/720 602/752/722
f 772/753/723 771/749/721 602/752/722 603/754/724
f 773/755/725 772/753/723 603/754/724 604/756/726
f 774/757/727 773/755/725 604/756/726 605/758/728
f 775/759/729 774/757/727 605/758/728 606/760/730
f 776/761/731 775/759/729 606/760/730 607/762/732
f 777/763/733 776/761/731 607/762/732 608/764/734
f 595/737/709 764/736/708 777/765/733 608/766/734
s 43
f 624/767/735 623/768/736 609/769/737 610/770/738
f 625/771/739 624/767/735 610/770/738 611/772/740
f 626/773/741 625/771/739 611/772/740 612/774/742
f 627/775/743 626/773/741 612/774/742 613/776/744
f 628/777/745 627/775/743 613/776/744 614/778/746
f 629/779/747 628/777/745 614/778/746 615/780/748
f 630/781/749 629/782/747 615/783/748 616/784/750
f 631/785/751 630/781/749 616/784/750 617/786/752
f 632/787/753 631/785/751 617/786/752 618/788/754
f 633/789/755 632/787/753 618/788/754 619/790/756
f 634/791/757 633/789/755 619/790/756 620/792/758
f 635/793/759 634/791/757 620/792/758 621/794/760
f 636/795/761 635/793/759 621/794/760 622/796/762
f 609/769/737 623/768/736 636/797/761 622/798/762
f 623/768/736 624/767/735 638/799/763 637/800/764
f 624/767/735 625/771/739 639/801/765 638/799/763
f 625/771/739 626/773/741 640/802/766 639/801/765
f 626/773/741 627/775/743 641/803/767 640/802/766
f 627/775/743 628/777/745 642/804/768 641/803/767
f 628/777/745 629/779/747 643/805/769 642/804/768
f 629/782/747 630/781/749 644/806/770 643/807/769
f 630/781/749 631/785/751 645/808/771 644/806/770
f 631/785/751 632/787/753 646/809/772 645/808/771
f 632/787/753 633/789/755 647/810/773 646/809/772
f 633/789/755 634/791/757 648/811/774 647/810/773
f 634/791/757 635/793/759 649/812/775 648/811/774
f 635/793/759 636/795/761 650/813/776 649/812/775
f 636/797/761 623/768/736 637/800/764 650/814/776
f 637/800/764 638/799/763 651/815/777
f 638/799/763 639/801/765 651/815/777
f 639/801/765 640/802/766 651/815/777
f 640/802/766 641/803/767 651/815/777
f 641/803/767 642/804/768 651/815/777
f 642/804/768 643/805/769 651/815/777
f 643/807/769 644/806/770 651/816/777
f 644/806/770 645/808/771 651/816/777
f 645/808/771 646/809/772 651/816/777
f 646/809/772 647/810/773 651/816/777
f 647/810/773 648/811/774 651/816/777
f 648/811/774 649/812/775 651/816/777
f 649/812/775 650/813/776 651/816/777
f 650/814/776 637/800/764 651/815/777
s 44
f 512/543/778 511/546/779 655/514/780 654/513/781
f 513/547/782 512/543/778 654/513/781 657/516/783
f 514/549/784 513/547/782 657/516/783 659/518/785
f 515/551/786 514/549/784 659/518/785 661/520/787
f 516/553/788 515/551/786 661/520/787 663/522/789
f 517/555/790 516/553/788 663/522/789 665/524/791
f 518/557/792 517/560/790 665/528/791 667/527/793
f 519/561/794 518/557/792 667/527/793 669/530/795
f 520/563/796 519/561/794 669/530/795 671/532/797
f 521/565/798 520/563/796 671/532/797 673/534/799
f 522/567/800 521/565/798 673/534/799 675/536/801
f 523/569/802 522/567/800 675/536/801 677/538/803
f 524/571/804 523/569/802 677/538/803 679/540/805
f 511/546/779 524/574/804 679/542/805 655/514/780
s 45
f 526/576/806 525/575/807 681/545/808 680/544/809
f 527/579/810 526/576/806 680/544/809 682/548/811
f 528/581/812 527/579/810 682/548/811 683/550/813
f 529/583/814 528/581/812 683/550/813 684/552/815
f 530/585/816 529/583/814 684/552/815 685/554/817
f 531/587/818 530/585/816 685/554/817 686/556/819
f 532/590/820 531/589/818 686/559/819 687/558/821
f 533/593/822 532/590/820 687/558/821 688/562/823
f 534/595/824 533/593/822 688/562/823 689/564/825
f 535/597/826 534/595/824 689/564/825 690/566/827
f 536/599/828 535/597/826 690/566/827 691/568/829
f 537/601/830 536/599/828 691/568/829 692/570/831
f 538/603/832 537/601/830 692/570/831 693/572/833
f 525/575/807 538/605/832 693/573/833 681/545/808
s 46
f 540/610/834 539/609/835 695/578/836 694/577/837
f 541/612/838 540/610/834 694/577/837 696/580/839
f 542/614/840 541/612/838 696/580/839 697/582/841
f 543/616/842 542/614/840 697/582/841 698/584/843
f 544/618/844 543/616/842 698/584/843 699/586/845
f 545/620/846 544/618/844 699/586/845 700/588/847
f 546/624/848 545/623/846 700/592/847 701/591/849
f 547/626/850 546/624/848 701/591/849 702/594/851
f 548/628/852 547/626/850 702/594/851 703/596/853
f 549/630/854 548/628/852 703/596/853 704/598/855
f 550/632/856 549/630/854 704/598/855 705/600/857
f 551/634/858 550/632/856 705/600/857 706/602/859
f 552/636/860 551/634/858 706/602/859 707/604/861
f 539/609/835 552/638/860 707/606/861 695/578/836
s 47
f 554/642/862 553/641/863 708/608/864 709/607/865
f 555/644/866 554/642/862 709/607/865 710/611/867
f 556/646/868 555/644/866 710/611/867 711/613/869
f 557/648/870 556/646/868 711/613/869 712/615/871
f 558/650/872 557/648/870 712/615/871 713/617/873
f 559/652/874 558/650/872 713/617/873 714/619/875
f 560/656/876 559/655/874 714/622/875 715/621/877
f 561/658/878 560/656/876 715/621/877 716/625/879
f 562/660/880 561/658/878 716/625/879 717/627/881
f 563/662/882 562/660/880 717/627/881 718/629/883
f 564/664/884 563/662/882 718/629/883 719/631/885
f 565/666/886 564/664/884 719/631/885 720/633/887
f 566/668/888 565/666/886 720/633/887 721/635/889
f 553/641/863 566/670/888 721/637/889 708/608/864
s 48
f 568/674/890 567/673/891 722/640/892 723/639/893
f 569/676/894 568/674/890 723/639/893 724/643/895
f 570/678/896 569/676/894 724/643/895 725/645/897
f 571/680/898 570/678/896 725/645/897 726/647/899
f 572/682/900 571/680/898 726/647/899 727/649/901
f 573/684/902 572/682/900 727/649/901 728/651/903
f 574/688/904 573/687/902 728/654/903 729/653/905
f 575/690/906 574/688/904 729/653/905 730/657/907
f 576/692/908 575/690/906 730/657/907 731/659/909
f 577/694/910 576/692/908 731/659/909 732/661/911
f 578/696/912 577/694/910 732/661/911 733/663/913
f 579/698/914 578/696/912 733/663/913 734/665/915
f 580/700/916 579/698/914 734/665/915 735/667/917
f 567/673/891 580/702/916 735/669/917 722/640/892
s 49
f 582/706/918 581/705/919 736/672/920 737/671/921
f 583/708/922 582/706/918 737/671/921 738/675/923
f 584/710/924 583/708/922 738/675/923 739/677/925
f 585/712/926 584/710/924 739/677/925 740/679/927
f 586/714/928 585/712/926 740/679/927 741/681/929
f 587/716/930 586/714/928 741/681/929 742/683/931
f 588/720/932 587/719/930 742/686/931 743/685/933
f 589/722/934 588/720/932 743/685/933 744/689/935
f 590/724/936 589/722/934 744/689/935 745/691/937
f 591/726/938 590/724/936 745/691/937 746/693/939
f 592/728/940 591/726/938 746/693/939 747/695/941
f 593/730/942 592/728/940 747/695/941 748/697/943
f 594/732/944 593/730/942 748/697/943 749/699/945
f 581/705/919 594/734/944 749/701/945 736/672/920
s 50
f 596/738/946 595/737/947 750/704/948 751/703/949
f 597/740/950 596/738/946 751/703/949 752/707/951
f 598/742/952 597/740/950 752/707/951 753/709/953
f 599/744/954 598/742/952 753/709/953 754/711/955
f 600/746/956 599/744/954 754/711/955 755/713/957
f 601/748/958 600/746/956 755/713/957 756/715/959
f 602/752/960 601/751/958 756/718/959 757/717/961
f 603/754/962 602/752/960 757/717/961 758/721/963
f 604/756/964 603/754/962 758/721/963 759/723/965
f 605/758/966 604/756/964 759/723/965 760/725/967
f 606/760/968 605/758/966 760/725/967 761/727/969
f 607/762/970 606/760/968 761/727/969 762/729/971
f 608/764/972 607/762/970 762/729/971 763/731/973
f 595/737/947 608/766/972 763/733/973 750/704/948
s 51
f 610/770/974 609/769/975 764/736/976 765/735/977
f 611/772/978 610/770/974 765/735/977 766/739/979
f 612/774/980 611/772/978 766/739/979 767/741/981
f 613/776/982 612/774/980 767/741/981 768/743/983
f 614/778/984 613/776/982 768/743/983 769/745/985
f 615/780/986 614/778/984 769/745/985 770/747/987
f 616/784/988 615/783/986 770/750/987 771/749/989
f 617/786/990 616/784/988 771/749/989 772/753/991
f 618/788/992 617/786/990 772/753/991 773/755/993
f 619/790/994 618/788/992 773/755/993 774/757/995
f 620/792/996 619/790/994 774/757/995 775/759/997
f 621/794/998 620/792/996 775/759/997 776/761/999
f 622/796/1000 621/794/998 776/761/999 777/763/1001
f 609/769/975 622/798/1000 777/765/1001 764/736/976
