# This file uses centimeters as units for non-parametric coordinates.

mtllib M_Rock.mtl
g default
v -0.551800 -0.800995 -0.515555
v -0.593801 0.017557 1.008075
v -0.208681 -0.786732 1.696529
v -0.087641 1.506684 -0.648936
v -0.073408 -1.142032 -0.450150
v 0.224540 -1.449353 -0.337904
v 0.319280 -0.334059 1.623473
v -0.832679 1.026455 0.885840
v -1.364477 -0.896042 0.485073
v -1.241455 -0.910623 0.708977
v -0.090216 -0.825507 -0.752841
v -0.252486 1.587650 1.142511
v -0.088996 1.248505 1.396749
v 0.675345 1.004238 0.224643
v 0.330701 -1.492817 0.724247
v 1.231648 -1.427926 0.137223
v 0.550365 -0.400451 -0.738660
v -0.731286 0.602523 -0.790425
v -0.934766 -0.632596 -0.692409
v -0.868633 1.360856 0.684691
v -0.793991 0.594146 0.706360
v -1.252923 -0.993327 0.679841
v -0.679759 -1.279111 0.023953
v 0.459864 -1.289253 -0.710046
v 0.318957 -0.436150 -0.811716
v -1.134568 -0.612570 0.666638
v -0.445952 1.723589 0.903771
v -0.455721 -1.584468 0.828548
v -0.080319 -1.727875 0.816026
v -0.791738 0.350366 -0.539890
v 0.387199 -1.486445 -0.375582
v 0.329823 -1.892349 0.204443
v 0.406191 -1.929915 0.304886
v -0.611603 -1.673690 0.450751
v 0.180594 -1.968122 0.413194
v 0.574960 -1.796291 0.312809
v -0.492163 -1.709098 0.495461
v 0.089422 -1.901226 0.587240
v 0.944033 -1.730776 0.026671
v -1.145202 -0.021880 0.421522
v -1.259871 -0.431868 0.347227
v -1.087130 0.341650 0.411918
v -1.163911 -0.439258 0.006615
v -1.082694 0.317494 0.222661
v -0.875948 0.137661 -0.363822
v 0.398415 -0.275007 1.616783
v 0.379833 -0.182698 1.672319
v 0.188292 -0.138253 1.806147
v 0.095034 -0.294175 1.804512
v 0.134236 -0.038272 1.830054
v 0.091421 0.366387 1.745057
v -0.145442 -0.712501 1.701210
v -0.181706 0.152099 1.531302
v -0.298157 -0.307144 1.500343
v -0.558205 -0.263892 1.180462
v 0.497761 0.638143 1.281200
v 0.149482 1.688673 -0.425175
v -0.015203 1.676476 -0.360649
v -0.372380 1.452757 -0.298704
v -0.197473 1.737555 0.171296
v -0.099165 1.747032 0.285220
v 0.087640 1.574506 0.465099
v -0.258517 1.767665 0.520252
v -0.630790 1.547232 0.507198
v 1.211125 -0.311041 -0.539814
v 1.190073 -0.460317 -0.142426
v 0.898881 0.081650 0.223280
v 0.797534 0.405968 0.197439
v 1.009375 0.779905 -0.813019
v 0.987410 0.976364 -0.909162
v 0.920788 0.709144 -0.873124
v 0.874426 1.083664 -0.968426
v 0.863885 -0.877221 -0.796978
v 0.686894 -0.643735 -0.757771
v 0.810578 -0.838877 -0.806651
v 0.746651 0.806733 0.600707
v 0.697236 0.794255 0.980360
v 0.776856 0.775379 0.791727
v 0.822588 -1.176731 0.581082
v 0.826976 -0.898845 0.736912
v 1.091090 -0.577782 0.771517
v -0.728326 0.861277 -0.796943
v -0.657881 -0.587683 -0.799696
v -0.678414 -0.659415 -0.686225
v -0.692533 -0.692571 -0.650014
v -0.701581 -0.686720 -0.702234
v -0.896286 0.636947 0.644194
v -0.771513 0.770433 0.847904
v -0.760813 -1.420331 1.203815
v -0.801907 -1.338792 1.254034
v -0.978693 -1.199666 1.098468
v -0.680037 -0.590354 1.190208
v -1.188778 -1.015245 0.826422
v -0.969538 -1.126883 1.127716
v -0.930931 -1.478600 0.365636
v -0.954411 -1.458853 0.447823
v -0.942756 -1.020307 -0.144188
v -1.093134 -1.316321 0.284358
v -1.180311 -1.229019 0.258626
v -0.814740 -0.793901 -0.504237
v -1.131443 -1.125643 0.675543
v -1.029775 -0.674728 -0.554043
v -1.352500 -0.937629 0.549054
v -0.667502 -0.708784 -0.602878
v -0.239730 -1.349181 -0.136867
v 0.415479 -1.156861 -0.787346
v 0.366363 -1.110543 -0.822376
v 0.096486 -0.796002 -0.921433
v -0.234014 -0.574838 -1.012321
v -0.439560 -0.611737 -0.832774
v 1.035974 0.388254 -0.743453
v 0.874761 -0.400301 -0.727580
v 0.852319 0.236608 -0.769629
v 1.058061 0.454532 -0.718034
v -0.765541 -0.109893 0.746184
v -0.610524 0.265900 0.932925
v 0.712788 -0.233595 1.355954
v 1.025903 -0.455284 0.890107
v 1.009725 -0.470008 0.922430
v 0.772392 -0.255118 1.264384
v -0.730614 0.357400 -0.775455
v -0.770078 -0.426570 -0.946135
v -0.769789 -0.170326 -0.862265
v -0.659689 0.480061 -0.910164
v -0.296276 1.493144 1.203844
v -0.332567 1.634247 1.107387
v 0.430472 1.072320 1.042034
v -0.814816 1.307258 0.818406
v -0.229663 1.488514 1.223856
v -0.176643 1.364965 1.347538
v -0.149469 1.218870 1.417581
v -0.445792 0.933368 1.217854
v 0.493148 0.882207 1.154735
v -0.083643 1.147745 1.491086
v -0.130969 1.105507 1.481011
v 0.496280 1.354990 -0.194423
v 0.700846 0.935147 0.554388
v 0.735427 0.977959 -0.064390
v 0.794142 0.792909 -0.096041
v 0.748201 0.751199 0.316313
v -0.020681 -1.691305 0.867221
v 0.074682 -1.441329 0.977742
v -0.377428 -1.348461 1.508891
v -0.380085 -1.230413 1.578584
v -0.305672 -0.984285 1.642643
v 0.505707 -0.769536 1.023629
v -0.113523 -0.739587 1.678883
v -0.880238 1.338300 0.558925
v -0.707530 1.292073 0.050301
v -0.803025 1.087583 -0.089484
v -1.044608 1.028513 0.463797
v -0.843601 0.850443 -0.298701
v -1.105559 0.777158 0.462587
v -0.804285 0.709401 -0.506125
v -0.989292 1.200604 0.586405
v 0.011436 1.227389 -1.126211
v -0.133191 0.897055 -1.196961
v -0.212184 0.861030 -1.194222
v 0.267227 0.682743 -1.041349
v -0.239275 0.752489 -1.191764
v -0.126074 0.664205 -1.162315
v -0.346257 0.429335 -1.188736
v -0.429503 1.189357 -0.750111
v 0.962857 -1.734914 0.098044
v 1.080018 -1.232055 -0.451793
v 1.087569 -1.690840 0.004816
v 1.201035 -1.583750 -0.022452
v 1.302973 -1.332008 -0.133554
v 1.264873 -1.266148 0.231580
v 1.237163 -1.000353 0.442636
v 1.289688 -1.070394 0.226949
v 1.335363 -1.040025 -0.193627
v 1.142075 -1.027440 -0.513933
v 1.226356 -0.863731 0.515246
v 1.326996 -0.858915 -0.264875
v 1.308197 -0.863231 -0.366435
v 0.868135 -1.721134 0.185376
v 0.595922 -1.334362 -0.643982
v 1.136976 -0.660686 0.713365
v -0.481685 -0.105884 -1.169845
v -0.510234 -0.133131 -1.161614
v -0.434483 0.249669 -1.170663
v -0.383896 -0.447962 -1.096868
v -0.393258 0.253564 -1.179047
v 0.195147 0.007357 -0.868147
v 0.496947 0.216864 -0.812365
v -0.546608 -0.324185 -1.163609
v -0.552942 -0.262663 -1.169725
v 0.283545 -1.681791 -0.070883
v -0.480894 -1.670845 0.371273
v -1.166459 0.119208 0.358332
v -1.112069 0.344705 0.356776
v -0.918078 0.616682 -0.118818
v 0.324379 -0.090724 1.713387
v 0.552565 -0.204917 1.521868
v -0.549572 1.668097 0.829497
v 0.865317 0.331415 -0.039966
v 0.955829 1.045819 -0.931213
v 0.916102 1.094292 -0.919114
v 0.944970 0.976197 -0.954392
v 0.806183 -0.544572 -0.751221
v 0.754134 0.842325 0.847404
v 0.775467 0.398954 0.990554
v -0.726389 -1.521073 0.843883
v -1.184865 -1.222929 0.353556
v -1.228269 -0.639401 0.075121
v 0.130993 -0.711603 -0.914618
v 0.616079 -1.087630 -0.792696
v 1.137881 0.006758 -0.609318
v 0.500807 -0.041768 -0.763399
v -0.731164 0.427637 0.715129
v 0.788436 0.576317 0.806712
v 0.822882 0.055308 1.059022
v 0.797789 0.326566 0.407095
v -0.636549 0.075316 -0.998499
v -1.002223 -0.610093 -0.606767
v -0.957985 -0.591037 -0.713805
v -0.383533 1.370673 1.199808
v -0.079282 0.813701 1.577909
v 0.671916 0.934360 0.887146
v 0.754997 0.550745 0.369985
v -0.322027 -1.123455 1.581346
v -1.101422 0.628958 0.391034
v 0.322517 1.575107 -0.897933
v -0.634525 0.921477 -0.862894
v -0.630940 1.042520 -0.686140
v 0.111135 1.426134 -1.014918
v 0.197836 -1.959211 0.460419
v 0.646227 -1.831924 0.167848
v -0.034080 -0.572094 1.748939
v 0.019040 0.473625 1.691412
v -0.459805 0.204631 1.180271
v 0.698368 -0.108695 1.346894
v 0.053860 0.580430 1.674301
v -0.210644 -0.660802 1.672094
v -0.062107 1.750884 0.153364
v 0.834096 -1.278497 -0.586483
v -0.589797 -0.647546 -0.690570
v -0.710604 0.842729 0.966511
v -0.268264 -0.859359 1.652703
v -1.022550 -1.418036 0.361337
v -1.322516 -1.078673 0.332316
v -1.314859 -0.560193 0.431171
v -0.797914 -1.511961 0.780908
v -1.330166 -0.983534 0.560127
v -0.674953 -0.845682 -0.438954
v -0.197351 -0.499801 -1.018220
v 1.170102 -0.283787 -0.575881
v -0.980174 0.341495 0.512128
v 0.811084 -0.215400 1.228991
v 0.914091 -0.297414 1.085000
v 0.478151 1.144138 0.810246
v -0.070241 1.026515 1.528402
v 0.097376 0.688176 1.624080
v -0.193716 -1.544901 1.143625
v -0.576219 -1.414169 1.400462
v -0.505692 -1.369844 1.476583
v -0.374213 -1.097523 1.588098
v -0.929492 1.078741 0.758215
v 0.277610 1.575487 -0.920682
v 0.160992 1.412668 -1.040437
v 0.007177 1.173663 -1.150156
v 0.424591 1.491230 -0.940873
v 0.244553 0.928598 -1.104745
v 1.027198 -1.710346 -0.012154
v 1.166949 -1.612663 0.050353
v 0.949161 -0.966309 -0.725135
v 0.614489 -1.836525 0.233804
v -1.203453 -0.087153 0.360353
v -0.113812 1.770630 0.085980
v 0.568485 1.150050 0.321650
v 1.197493 -0.244768 -0.528196
v 0.820615 0.967023 -0.369063
v -0.760756 0.907503 -0.611544
v -0.665107 -0.661825 -0.657089
v -0.629883 -0.647753 -0.639704
v -0.744849 -0.604533 -0.780996
v -0.659541 0.543435 0.902176
v -1.080805 0.637974 0.464293
v -1.121996 -1.307509 0.329487
v 0.416693 -1.297264 -0.678850
v 0.508137 -0.828048 -0.844670
v 0.844850 -0.118967 -0.732447
v -0.739395 0.056478 -0.831275
v -0.253845 -0.966892 1.641447
v -0.927922 1.299877 0.649832
v 0.821989 1.187125 -0.958591
v 0.276710 -0.215298 -0.812006
v -0.291609 -1.777712 0.477642
v 0.884085 -1.771163 0.084455
v 0.716979 -1.789928 0.228302
v 0.128469 -0.375128 1.754395
v -0.315189 0.620310 1.350194
v 0.057122 1.716204 -0.353959
v 0.109575 1.687117 -0.471218
v -0.003924 1.735014 -0.150671
v -0.150421 1.758230 0.218991
v 0.626144 1.173842 -0.116903
v -0.188217 1.779605 0.360707
v -0.377234 1.697611 0.426569
v -0.191486 1.742958 0.596912
v 0.992753 0.797032 -0.744980
v 0.845981 -1.012306 -0.759851
v 0.741023 0.668901 0.644053
v 0.710088 -0.765043 0.842245
v 1.061013 -0.601184 0.816438
v 0.777161 -0.771359 0.799499
v -0.765397 0.781402 -0.758743
v -0.775200 0.700501 0.777773
v -0.851613 0.896018 0.843408
v -0.870473 -1.322117 1.164569
v -1.102620 -1.094150 0.897102
v -1.075000 -1.071783 0.992220
v -1.031270 -0.984573 1.020720
v -0.849054 -1.570379 0.504836
v -1.288622 -1.145381 0.285015
v -1.250615 -1.128358 0.158840
v -1.157131 -0.896228 -0.177852
v -1.198097 -0.926901 -0.107636
v -1.119991 -0.766714 -0.345750
v -0.802190 -1.597885 0.452052
v -0.503334 -0.676931 -0.642157
v -0.049213 -0.712944 -0.948552
v -0.054110 -0.667698 -0.964426
v 0.976553 -0.383230 -0.688255
v -0.854457 -0.411680 0.811954
v -0.723683 0.219762 0.708344
v -0.521191 0.677031 1.122848
v 0.828341 -0.283025 1.220381
v 0.925320 -0.350379 1.074599
v 0.828766 0.297287 0.799586
v 0.883907 0.018085 0.862439
v -0.752534 0.689052 -0.694944
v -0.828490 -0.425970 -0.893390
v -0.011107 0.825337 1.620309
v -0.135927 1.615358 0.911793
v 0.540544 -1.072441 0.820553
v -0.625915 -1.379735 1.383361
v -1.050513 1.065491 0.552216
v -0.935954 0.905903 0.066171
v -0.804691 1.454853 0.717974
v 0.279458 1.616990 -0.840763
v -0.147292 1.000865 -1.173352
v 0.257790 1.628130 -0.764272
v 0.890041 -1.503014 -0.354462
v 1.230143 -1.481922 0.111971
v 1.345380 -0.981086 -0.295254
v -0.278941 0.654646 -1.202835
v 0.581070 -1.843984 0.193864
v 0.118223 -1.948880 0.488919
v -1.236446 -0.426459 0.438219
v -1.143896 -0.377731 0.536506
v 0.013814 -0.417867 1.799624
v -0.017244 -0.341728 1.783600
v 0.086299 -0.141391 1.825570
v 0.073686 0.083663 1.798775
v -0.111369 -0.579907 1.745465
v -0.104931 -0.484906 1.734068
v -0.353257 1.762257 0.704394
v -0.274001 1.779970 0.666272
v 0.169015 1.637341 -0.735311
v 0.195393 1.669160 -0.654380
v 1.252013 -0.616346 -0.493620
v 1.106820 0.179610 -0.641635
v 0.883217 1.144029 -0.939266
v -0.936787 0.845608 0.706318
v -1.054093 -1.172005 0.085506
v -1.346469 -0.831247 0.387244
v -0.771051 -1.623619 0.514237
v 0.059633 -0.818511 -0.892692
v 0.257351 -0.978989 -0.883971
v 1.090450 0.196269 -0.670341
v -0.780741 0.011276 0.689148
v 0.750968 -0.397857 1.171429
v 0.880968 -0.357177 1.105886
v 0.932348 -0.119071 0.771212
v -0.658218 -0.330272 -1.087917
v -0.426793 1.694682 0.984416
v -0.356007 1.732796 0.951562
v 0.019426 1.339834 1.183177
v -0.000033 1.010926 1.518865
v 0.734439 0.867529 0.222643
v -0.673486 1.560462 0.827141
v -0.152290 -1.632578 0.997985
v -0.357333 -1.501657 1.275644
v -0.442501 -1.400473 1.482897
v -0.270006 -1.510089 1.254712
v -0.446450 -1.454596 1.402148
v -0.381067 -1.445715 1.413150
v -0.643415 -1.255686 1.395476
v -0.220347 -0.886267 1.650210
v -0.117286 -0.967028 1.513584
v -0.179470 -0.798134 1.694444
v -1.015971 1.120546 0.571098
v -0.985027 1.186677 0.640660
v -0.436037 0.644057 -1.105604
v 0.662521 1.339473 -0.874284
v 1.082371 -1.662182 -0.063734
v 1.222933 -1.456674 -0.131740
v 1.326019 -1.234313 -0.185837
v 1.302242 -1.071658 -0.310565
v 1.321202 -0.730979 -0.383483
v 1.264261 -0.934218 -0.422785
v 0.784709 -1.793449 0.144126
v -0.509731 -0.294608 -1.175762
v -0.690509 0.792333 -0.869112
vt 0.295899 0.567410
vt 0.270391 0.600583
vt 0.244727 0.580782
vt 0.267762 0.656066
vt 0.298882 0.649315
vt 0.252058 0.682949
vt 0.528351 0.106522
vt 0.554012 0.093018
vt 0.513076 0.173891
vt 0.495378 0.864037
vt 0.526665 0.864810
vt 0.503594 0.871127
vt 0.495725 0.932840
vt 0.477351 0.926324
vt 0.517471 0.923329
vt 0.682355 0.567339
vt 0.704206 0.575319
vt 0.698844 0.600356
vt 0.755529 0.636453
vt 0.742149 0.664297
vt 0.738075 0.590885
vt 0.521138 0.552032
vt 0.556404 0.535039
vt 0.541263 0.616393
vt 0.555988 0.647196
vt 0.503344 0.653743
vt 0.409706 0.559660
vt 0.463082 0.563404
vt 0.431456 0.569054
vt 0.571070 0.474611
vt 0.563802 0.467630
vt 0.582697 0.458702
vt 0.587206 0.451879
vt 0.600062 0.451900
vt 0.584205 0.469725
vt 0.571775 0.486032
vt 0.573575 0.475601
vt 0.290284 0.534170
vt 0.331336 0.546018
vt 0.273523 0.539954
vt 0.355525 0.549588
vt 0.365108 0.560195
vt 0.336446 0.551555
vt 0.350309 0.543987
vt 0.341656 0.539473
vt 0.595762 0.691694
vt 0.574996 0.697612
vt 0.585190 0.688414
vt 0.567402 0.708654
vt 0.562020 0.701859
vt 0.583275 0.708512
vt 0.569447 0.719385
vt 0.562453 0.731900
vt 0.394798 0.795089
vt 0.414740 0.775147
vt 0.407502 0.782385
vt 0.565522 0.244592
vt 0.575075 0.235043
vt 0.572404 0.238651
vt 0.563151 0.252337
vt 0.560970 0.249723
vt 0.426387 0.216794
vt 0.422249 0.225739
vt 0.418221 0.209683
vt 0.409813 0.208363
vt 0.434783 0.219510
vt 0.434821 0.232066
vt 0.438239 0.226175
vt 0.575810 0.031856
vt 0.590290 0.051019
vt 0.583470 0.050749
vt 0.189285 0.710488
vt 0.195890 0.707120
vt 0.205928 0.716485
vt 0.181167 0.702990
vt 0.162773 0.607136
vt 0.195006 0.618346
vt 0.162296 0.629156
vt 0.155482 0.574776
vt 0.168320 0.573489
vt 0.161477 0.642982
vt 0.161350 0.651187
vt 0.153693 0.645056
vt 0.144992 0.608685
vt 0.133160 0.570480
vt 0.145600 0.664554
vt 0.152523 0.673678
vt 0.151456 0.678879
vt 0.464117 0.558947
vt 0.457850 0.534704
vt 0.496865 0.560110
vt 0.486916 0.513438
vt 0.524934 0.509636
vt 0.544298 0.529365
vt 0.449076 0.503688
vt 0.454931 0.519191
vt 0.529730 0.452572
vt 0.559549 0.502854
vt 0.522926 0.014849
vt 0.522586 0.006305
vt 0.547632 0.021855
vt 0.492244 0.808377
vt 0.505848 0.772764
vt 0.537780 0.772804
vt 0.529835 0.742409
vt 0.486968 0.721850
vt 0.540348 0.676967
vt 0.484117 0.263846
vt 0.507831 0.295552
vt 0.458380 0.261458
vt 0.540769 0.211610
vt 0.541578 0.254200
vt 0.509055 0.258716
vt 0.456036 0.274244
vt 0.469040 0.317213
vt 0.442138 0.279786
vt 0.469445 0.301047
vt 0.439271 0.202555
vt 0.442026 0.195231
vt 0.460403 0.121065
vt 0.548073 0.904308
vt 0.573585 0.914833
vt 0.559255 0.925903
vt 0.666611 0.647784
vt 0.687647 0.653889
vt 0.669089 0.674891
vt 0.623940 0.659070
vt 0.621118 0.617994
vt 0.641929 0.647327
vt 0.285593 0.683523
vt 0.260128 0.699024
vt 0.344129 0.684887
vt 0.306971 0.705069
vt 0.225753 0.725317
vt 0.229569 0.729812
vt 0.225588 0.730043
vt 0.243006 0.735060
vt 0.233232 0.737513
vt 0.605419 0.137820
vt 0.616579 0.118876
vt 0.619573 0.180805
vt 0.580405 0.173273
vt 0.594895 0.178429
vt 0.584523 0.179905
vt 0.565532 0.151354
vt 0.587920 0.122318
vt 0.597437 0.081880
vt 0.602624 0.077794
vt 0.606696 0.083983
vt 0.613374 0.337838
vt 0.620350 0.358162
vt 0.608570 0.379130
vt 0.605368 0.422840
vt 0.616963 0.393766
vt 0.621433 0.390701
vt 0.364937 0.584811
vt 0.338211 0.594308
vt 0.344810 0.572506
vt 0.410335 0.598684
vt 0.455281 0.612880
vt 0.408432 0.697940
vt 0.490496 0.328209
vt 0.525240 0.326004
vt 0.525654 0.331261
vt 0.475055 0.408216
vt 0.502465 0.398772
vt 0.475390 0.315585
vt 0.549057 0.282352
vt 0.273696 0.618512
vt 0.230386 0.606535
vt 0.323875 0.631433
vt 0.303137 0.637365
vt 0.294802 0.594597
vt 0.278398 0.639700
vt 0.284552 0.647397
vt 0.300209 0.642778
vt 0.217657 0.648754
vt 0.228339 0.658885
vt 0.208869 0.655079
vt 0.336486 0.624374
vt 0.330668 0.626750
vt 0.316229 0.636561
vt 0.511819 0.096166
vt 0.529364 0.088101
vt 0.529968 0.094162
vt 0.554826 0.085163
vt 0.455521 0.099142
vt 0.449665 0.100774
vt 0.450928 0.089625
vt 0.497446 0.086540
vt 0.486143 0.096256
vt 0.558007 0.064192
vt 0.528388 0.073666
vt 0.476163 0.865461
vt 0.470475 0.863613
vt 0.470946 0.849342
vt 0.489043 0.859733
vt 0.495529 0.849635
vt 0.455979 0.877179
vt 0.444915 0.886452
vt 0.443753 0.882696
vt 0.510712 0.892491
vt 0.474331 0.875308
vt 0.533761 0.872742
vt 0.447672 0.891807
vt 0.462409 0.882475
vt 0.458693 0.925990
vt 0.558762 0.881492
vt 0.482908 0.824947
vt 0.480854 0.804945
vt 0.734613 0.572653
vt 0.722420 0.570415
vt 0.745978 0.596305
vt 0.751873 0.595098
vt 0.750814 0.614749
vt 0.741322 0.587452
vt 0.796394 0.661199
vt 0.782132 0.598460
vt 0.806891 0.629024
vt 0.759533 0.632740
vt 0.765561 0.639522
vt 0.778968 0.658439
vt 0.683042 0.615244
vt 0.803212 0.680229
vt 0.791491 0.684120
vt 0.767604 0.682474
vt 0.771184 0.674789
vt 0.772099 0.683655
vt 0.471697 0.565887
vt 0.420619 0.584156
vt 0.563955 0.406735
vt 0.582880 0.452733
vt 0.524468 0.443999
vt 0.589731 0.443670
vt 0.578890 0.395093
vt 0.560349 0.477129
vt 0.332812 0.555989
vt 0.341723 0.558967
vt 0.337003 0.562478
vt 0.359936 0.561953
vt 0.340915 0.563653
vt 0.602859 0.702217
vt 0.588116 0.711369
vt 0.605973 0.692195
vt 0.423913 0.765974
vt 0.397859 0.792028
vt 0.566843 0.243662
vt 0.580219 0.229895
vt 0.567348 0.242766
vt 0.377411 0.812476
vt 0.593894 0.216219
vt 0.591674 0.218439
vt 0.583682 0.226463
vt 0.402089 0.192663
vt 0.433455 0.194624
vt 0.436106 0.189449
vt 0.424723 0.205323
vt 0.412117 0.186750
vt 0.413004 0.196407
vt 0.401767 0.209728
vt 0.389895 0.195044
vt 0.574991 0.064595
vt 0.563000 0.041752
vt 0.569758 0.037689
vt 0.184784 0.728158
vt 0.168452 0.717643
vt 0.170383 0.703371
vt 0.206598 0.736087
vt 0.158281 0.685541
vt 0.143340 0.684553
vt 0.170154 0.698634
vt 0.169652 0.645244
vt 0.177652 0.651535
vt 0.167753 0.648520
vt 0.154004 0.635869
vt 0.165956 0.672804
vt 0.149132 0.648306
vt 0.144190 0.616324
vt 0.138333 0.593018
vt 0.142883 0.658890
vt 0.197413 0.659086
vt 0.194940 0.655279
vt 0.202747 0.682579
vt 0.194550 0.677127
vt 0.183293 0.657112
vt 0.253530 0.528095
vt 0.241513 0.540299
vt 0.257001 0.525157
vt 0.243013 0.517660
vt 0.245914 0.512424
vt 0.264458 0.520562
vt 0.277852 0.508523
vt 0.305434 0.564847
vt 0.287806 0.551416
vt 0.294758 0.556563
vt 0.307187 0.519022
vt 0.323502 0.530890
vt 0.315241 0.556480
vt 0.523020 0.545118
vt 0.452299 0.465153
vt 0.456557 0.039684
vt 0.464335 0.077542
vt 0.447149 0.064930
vt 0.498877 0.008303
vt 0.555561 0.015735
vt 0.481656 0.789848
vt 0.478540 0.795762
vt 0.467186 0.774621
vt 0.466661 0.767658
vt 0.472677 0.769933
vt 0.552099 0.746146
vt 0.503134 0.745904
vt 0.452442 0.737143
vt 0.452191 0.741024
vt 0.466101 0.795733
vt 0.555542 0.257584
vt 0.556937 0.225109
vt 0.615700 0.907804
vt 0.618141 0.901649
vt 0.619648 0.908576
vt 0.616277 0.885204
vt 0.606544 0.894261
vt 0.592180 0.834973
vt 0.610048 0.831347
vt 0.609386 0.900606
vt 0.617583 0.925743
vt 0.599433 0.905688
vt 0.605204 0.931757
vt 0.601358 0.893124
vt 0.602239 0.898329
vt 0.596112 0.871862
vt 0.586062 0.882002
vt 0.593190 0.889301
vt 0.584406 0.886729
vt 0.576348 0.885501
vt 0.578197 0.880811
vt 0.571304 0.879431
vt 0.571635 0.873180
vt 0.579303 0.823980
vt 0.553988 0.862394
vt 0.555136 0.820118
vt 0.592779 0.932178
vt 0.562509 0.794550
vt 0.558591 0.874405
vt 0.543398 0.866998
vt 0.553998 0.672680
vt 0.577358 0.663446
vt 0.599297 0.676238
vt 0.668812 0.574122
vt 0.681436 0.584183
vt 0.316275 0.700137
vt 0.225548 0.713497
vt 0.226138 0.705979
vt 0.233921 0.705910
vt 0.305339 0.727613
vt 0.220636 0.711821
vt 0.221425 0.716164
vt 0.212349 0.712227
vt 0.227192 0.719632
vt 0.229613 0.736407
vt 0.231796 0.741927
vt 0.239189 0.745774
vt 0.236865 0.745922
vt 0.235576 0.741261
vt 0.219505 0.680785
vt 0.198704 0.703507
vt 0.592276 0.155878
vt 0.588582 0.083458
vt 0.588404 0.094347
vt 0.566807 0.088994
vt 0.593011 0.081981
vt 0.593245 0.066838
vt 0.613839 0.396904
vt 0.612644 0.393435
vt 0.599665 0.323451
vt 0.611953 0.320253
vt 0.576815 0.362880
vt 0.584933 0.360657
vt 0.592489 0.375841
vt 0.596098 0.374236
vt 0.574910 0.353313
vt 0.568366 0.350533
vt 0.560975 0.363349
vt 0.561524 0.344247
vt 0.324663 0.639856
vt 0.311005 0.643801
vt 0.330648 0.632569
vt 0.349539 0.629131
vt 0.342026 0.620382
vt 0.362498 0.614919
vt 0.353606 0.623872
vt 0.341271 0.626272
vt 0.372823 0.613782
vt 0.359992 0.634328
vt 0.363961 0.636421
vt 0.393509 0.668567
vt 0.375724 0.644593
vt 0.389730 0.646884
vt 0.398120 0.695355
vt 0.395904 0.608189
vt 0.400782 0.596544
vt 0.409380 0.588173
vt 0.402365 0.582742
vt 0.544670 0.335390
vt 0.296476 0.638615
vt 0.266393 0.652846
vt 0.216049 0.658756
vt 0.262332 0.658620
vt 0.257266 0.666017
vt 0.458158 0.090424
vt 0.246969 0.679887
vt 0.488484 0.868310
vt 0.445561 0.826526
vt 0.468466 0.872693
vt 0.454706 0.883036
vt 0.473599 0.902977
vt 0.740692 0.572096
vt 0.441824 0.891455
vt 0.765069 0.578649
vt 0.761792 0.642624
vt 0.757852 0.647562
vt 0.712049 0.673895
vt 0.764176 0.652873
vt 0.769603 0.665457
vt 0.764100 0.670006
vt 0.776061 0.677782
vt 0.573604 0.475443
vt 0.563009 0.484120
vt 0.592637 0.443137
vt 0.591139 0.446147
vt 0.553205 0.048291
vt 0.536366 0.041079
vt 0.594198 0.215916
vt 0.588818 0.221296
vt 0.434155 0.239230
vt 0.171079 0.572475
vt 0.602199 0.062841
vt 0.597826 0.049901
vt 0.596258 0.076878
vt 0.605247 0.074593
vt 0.191028 0.703323
vt 0.166625 0.690798
vt 0.183888 0.651430
vt 0.129874 0.572685
vt 0.132219 0.598806
vt 0.126965 0.600932
vt 0.191642 0.659026
vt 0.180983 0.564709
vt 0.172599 0.559987
vt 0.494285 0.450788
vt 0.201977 0.514152
vt 0.196788 0.540248
vt 0.192097 0.517467
vt 0.222955 0.503970
vt 0.228518 0.501538
vt 0.453584 0.448620
vt 0.488170 0.033796
vt 0.499336 0.045110
vt 0.474639 0.788453
vt 0.517546 0.036862
vt 0.440164 0.244757
vt 0.442878 0.238266
vt 0.443962 0.254529
vt 0.620746 0.918278
vt 0.634997 0.677243
vt 0.639333 0.589815
vt 0.242002 0.690410
vt 0.217245 0.716625
vt 0.207747 0.712424
vt 0.243953 0.747584
vt 0.620532 0.382150
vt 0.607049 0.404147
vt 0.564754 0.328404
vt 0.578217 0.323934
vt 0.605037 0.386317
vt 0.620200 0.399067
vt 0.383467 0.609334
vt 0.392813 0.596179
vt 0.472374 0.322242
vt 0.456161 0.334892
vt 0.568908 0.298241
vt 0.488059 0.320477
vt 0.442494 0.353894
vt 0.441504 0.346075
vt 0.691479 0.680418
vt 0.804166 0.591070
vt 0.785781 0.684833
vt 0.430322 0.722105
vt 0.598195 0.449041
vt 0.322441 0.570103
vt 0.578784 0.724771
vt 0.592076 0.713053
vt 0.386002 0.803885
vt 0.390776 0.799111
vt 0.426519 0.763368
vt 0.428353 0.761534
vt 0.566797 0.248118
vt 0.601576 0.208538
vt 0.434509 0.187204
vt 0.149022 0.665270
vt 0.133800 0.623829
vt 0.138199 0.569164
vt 0.443342 0.493949
vt 0.450975 0.008533
vt 0.465241 0.003464
vt 0.295250 0.730921
vt 0.593931 0.435201
vt 0.590653 0.322292
vt 0.620911 0.330958
vt 0.403654 0.678311
vt 0.441453 0.373614
vt 0.443864 0.097588
vt 0.484874 0.842892
vt 0.476573 0.840368
vt 0.738774 0.678792
vt 0.730720 0.676315
vt 0.762151 0.680604
vt 0.560766 0.496401
vt 0.564565 0.736090
vt 0.393793 0.796094
vt 0.599689 0.210424
vt 0.436627 0.205383
vt 0.438513 0.198593
vt 0.395546 0.186407
vt 0.609012 0.073081
vt 0.610427 0.067088
vt 0.547151 0.712637
vt 0.447072 0.789564
vt 0.432274 0.725517
vt 0.575579 0.928617
vt 0.622221 0.904382
vt 0.653531 0.619814
vt 0.250198 0.748106
vt 0.264421 0.743318
vt 0.612721 0.179034
vt 0.614611 0.179739
vt 0.615336 0.083485
vt 0.385814 0.575278
vt 0.393237 0.561689
vt 0.453395 0.417347
vt 0.441968 0.325184
vt 0.446920 0.305052
vt 0.439957 0.900227
vt 0.440525 0.885669
vt 0.735622 0.566972
vt 0.730281 0.565686
vt 0.561760 0.483380
vt 0.415750 0.222394
vt 0.614451 0.074469
vt 0.139982 0.652929
vt 0.134123 0.660078
vt 0.658072 0.597001
vt 0.239908 0.700704
vt 0.338625 0.566058
vt 0.580096 0.029921
vt 0.584225 0.725298
vt 0.580243 0.728193
vt 0.156040 0.705121
vt 0.186892 0.558537
vt 0.440519 0.106712
vt 0.440792 0.105816
vt 0.453526 0.105436
vt 0.713553 0.573761
vt 0.754006 0.678293
vt 0.562058 0.248056
vt 0.601846 0.817582
vt 0.373220 0.566310
vt 0.445885 0.077174
vn -0.477412 -0.670317 -0.568114
vn -0.477412 -0.670317 -0.568114
vn -0.477412 -0.670317 -0.568114
vn 0.501399 -0.573999 0.647399
vn 0.501399 -0.573999 0.647399
vn 0.501399 -0.573999 0.647399
vn -0.918709 0.143601 -0.367904
vn -0.918709 0.143601 -0.367904
vn -0.918709 0.143601 -0.367904
vn -0.115905 0.192409 0.974446
vn -0.115905 0.192409 0.974446
vn -0.115905 0.192409 0.974446
vn -0.861792 0.181198 0.473795
vn -0.861792 0.181198 0.473795
vn -0.861792 0.181198 0.473795
vn 0.679861 0.717859 0.149891
vn 0.679861 0.717859 0.149891
vn 0.679861 0.717859 0.149891
vn 0.616403 0.774503 0.142101
vn 0.616403 0.774503 0.142101
vn 0.616403 0.774503 0.142101
vn 0.919030 0.248108 0.306310
vn 0.919030 0.248108 0.306310
vn 0.919030 0.248108 0.306310
vn 0.936412 0.306304 0.171202
vn 0.936412 0.306304 0.171202
vn 0.630714 -0.032901 -0.775317
vn 0.630714 -0.032901 -0.775317
vn 0.630714 -0.032901 -0.775317
vn 0.676175 -0.261490 -0.688774
vn 0.676175 -0.261490 -0.688774
vn 0.676175 -0.261490 -0.688774
vn 0.842086 0.467992 0.268095
vn 0.842086 0.467992 0.268095
vn 0.920077 0.229194 0.317692
vn 0.126303 0.048201 -0.990820
vn 0.126303 0.048201 -0.990820
vn 0.126303 0.048201 -0.990820
vn 0.466221 0.087404 -0.880340
vn 0.466221 0.087404 -0.880340
vn 0.466221 0.087404 -0.880340
vn 0.338688 0.127895 -0.932166
vn 0.300099 0.180900 -0.936598
vn 0.999243 -0.036802 0.012601
vn 0.999243 -0.036802 0.012601
vn 0.999243 -0.036802 0.012601
vn 0.969017 0.145203 -0.199804
vn 0.969017 0.145203 -0.199804
vn 0.964810 0.036500 -0.260403
vn 0.988529 0.067702 0.135004
vn 0.427904 -0.604406 0.672006
vn 0.427904 -0.604406 0.672006
vn 0.427904 -0.604406 0.672006
vn -0.961481 0.054599 -0.269395
vn -0.961481 0.054599 -0.269395
vn -0.961481 0.054599 -0.269395
vn -0.978832 -0.015100 -0.204107
vn -0.978832 -0.015100 -0.204107
vn 0.124799 -0.982496 -0.138299
vn 0.124799 -0.982496 -0.138299
vn 0.124799 -0.982496 -0.138299
vn 0.271501 -0.939203 0.210201
vn 0.051001 -0.848324 -0.527015
vn 0.051001 -0.848324 -0.527015
vn -0.025100 -0.681907 -0.731008
vn -0.680188 -0.135598 0.720387
vn -0.680188 -0.135598 0.720387
vn -0.680188 -0.135598 0.720387
vn -0.647275 -0.058998 0.759970
vn -0.647275 -0.058998 0.759970
vn -0.647275 -0.058998 0.759970
vn -0.724845 -0.176411 0.665942
vn -0.308099 -0.718298 -0.623798
vn -0.308099 -0.718298 -0.623798
vn -0.308099 -0.718298 -0.623798
vn -0.055100 -0.836298 -0.545499
vn -0.055100 -0.836298 -0.545499
vn -0.607684 -0.793880 0.021799
vn -0.607684 -0.793880 0.021799
vn -0.607684 -0.793880 0.021799
vn -0.347202 -0.752005 -0.560303
vn -0.347202 -0.752005 -0.560303
vn -0.810700 -0.091300 0.578300
vn -0.810700 -0.091300 0.578300
vn -0.810700 -0.091300 0.578300
vn 0.517383 -0.040999 -0.854771
vn 0.225608 -0.106004 -0.968434
vn 0.225608 -0.106004 -0.968434
vn 0.225608 -0.106004 -0.968434
vn 0.128807 -0.229912 -0.964650
vn -0.860400 -0.096500 0.500400
vn -0.860400 -0.096500 0.500400
vn 0.846244 0.214011 0.487925
vn 0.846244 0.214011 0.487925
vn 0.967853 0.244713 -0.058103
vn 0.967853 0.244713 -0.058103
vn -0.878525 0.251207 -0.406312
vn -0.878525 0.251207 -0.406312
vn -0.878525 0.251207 -0.406312
vn -0.965804 0.074300 -0.248401
vn -0.965804 0.074300 -0.248401
vn -0.260506 -0.742417 -0.617214
vn -0.458089 -0.524487 -0.717682
vn -0.900397 0.295199 -0.319599
vn -0.900397 0.295199 -0.319599
vn -0.900397 0.295199 -0.319599
vn -0.744271 -0.028399 0.667274
vn -0.744271 -0.028399 0.667274
vn -0.744271 -0.028399 0.667274
vn 0.822500 0.566100 0.055000
vn 0.822500 0.566100 0.055000
vn 0.822500 0.566100 0.055000
vn 0.967037 0.219008 0.129905
vn 0.967037 0.219008 0.129905
vn 0.554307 -0.504206 0.662208
vn 0.554307 -0.504206 0.662208
vn 0.491970 -0.420274 0.762453
vn 0.491970 -0.420274 0.762453
vn 0.091200 -0.075100 0.992997
vn 0.091200 -0.075100 0.992997
vn 0.091200 -0.075100 0.992997
vn 0.591507 -0.500306 0.632308
vn 0.591507 -0.500306 0.632308
vn -0.788909 0.552406 -0.269203
vn -0.788909 0.552406 -0.269203
vn -0.788909 0.552406 -0.269203
vn -0.931816 -0.285005 -0.224704
vn -0.960656 0.105095 -0.257088
vn -0.789018 0.592214 -0.163504
vn -0.789018 0.592214 -0.163504
vn -0.789018 0.592214 -0.163504
vn -0.533536 0.717549 -0.447731
vn -0.533536 0.717549 -0.447731
vn -0.533536 0.717549 -0.447731
vn 0.588788 0.806783 0.049299
vn 0.588788 0.806783 0.049299
vn 0.474307 -0.572708 -0.668609
vn 0.474307 -0.572708 -0.668609
vn 0.474307 -0.572708 -0.668609
vn 0.949464 0.287389 0.126195
vn 0.949464 0.287389 0.126195
vn 0.949464 0.287389 0.126195
vn -0.201496 0.024500 -0.979183
vn -0.201496 0.024500 -0.979183
vn -0.201496 0.024500 -0.979183
vn 0.416486 -0.075897 -0.905969
vn 0.416486 -0.075897 -0.905969
vn -0.832571 0.072297 -0.549181
vn -0.832571 0.072297 -0.549181
vn -0.397014 -0.733926 -0.551120
vn -0.397014 -0.733926 -0.551120
vn 0.023399 -0.838575 -0.544284
vn 0.023399 -0.838575 -0.544284
vn 0.023399 -0.838575 -0.544284
vn 0.091299 -0.820095 -0.564897
vn 0.489892 -0.652989 0.577591
vn 0.489892 -0.652989 0.577591
vn -0.245211 -0.866740 -0.434320
vn -0.245211 -0.866740 -0.434320
vn -0.245211 -0.866740 -0.434320
vn -0.020001 -0.866533 -0.498719
vn -0.020001 -0.866533 -0.498719
vn 0.277711 -0.958339 0.066803
vn -0.885036 0.216309 0.412217
vn -0.885036 0.216309 0.412217
vn -0.885036 0.216309 0.412217
vn -0.910963 -0.052898 0.409083
vn -0.935494 0.219999 -0.276498
vn -0.935494 0.219999 -0.276498
vn -0.935494 0.219999 -0.276498
vn -0.790084 0.147497 0.594988
vn -0.790084 0.147497 0.594988
vn -0.693334 -0.120706 0.710435
vn -0.693334 -0.120706 0.710435
vn 0.583828 -0.239211 0.775837
vn 0.583828 -0.239211 0.775837
vn 0.583828 -0.239211 0.775837
vn 0.538979 0.091196 0.837368
vn 0.538979 0.091196 0.837368
vn 0.211706 -0.460913 0.861824
vn 0.211706 -0.460913 0.861824
vn 0.211706 -0.460913 0.861824
vn -0.721022 0.109403 0.684221
vn -0.721022 0.109403 0.684221
vn -0.721022 0.109403 0.684221
vn -0.693406 0.170001 0.700206
vn -0.693406 0.170001 0.700206
vn -0.693406 0.170001 0.700206
vn -0.719239 0.062603 0.691937
vn 0.724297 0.132700 0.676597
vn 0.724297 0.132700 0.676597
vn 0.591478 0.804770 0.049998
vn -0.454593 0.863987 -0.216497
vn -0.454593 0.863987 -0.216497
vn -0.454593 0.863987 -0.216497
vn -0.415412 0.821924 -0.389711
vn -0.641606 0.710506 -0.289003
vn -0.641606 0.710506 -0.289003
vn -0.543771 0.788858 -0.286385
vn 0.608929 -0.728034 0.314915
vn 0.608929 -0.728034 0.314915
vn 0.776886 0.614889 0.135498
vn -0.596193 0.789491 -0.145798
vn -0.596193 0.789491 -0.145798
vn 0.490826 0.825845 0.277615
vn 0.490826 0.825845 0.277615
vn 0.490826 0.825845 0.277615
vn 0.976423 0.179904 0.119303
vn 0.937269 0.307090 0.164995
vn 0.256205 -0.321706 -0.911518
vn 0.256205 -0.321706 -0.911518
vn 0.209205 0.009700 -0.977824
vn 0.209205 0.009700 -0.977824
vn 0.467517 -0.497018 -0.731027
vn 0.758393 0.648294 0.067499
vn 0.758393 0.648294 0.067499
vn 0.172801 -0.378801 0.909203
vn 0.172801 -0.378801 0.909203
vn -0.867001 -0.020100 -0.497901
vn -0.919432 0.312511 -0.238708
vn -0.919432 0.312511 -0.238708
vn 0.528588 -0.653085 -0.542287
vn -0.700145 -0.594638 -0.395225
vn 0.800841 -0.443522 -0.402420
vn 0.225205 -0.878319 -0.421709
vn -0.168700 -0.670902 -0.722102
vn -0.168700 -0.670902 -0.722102
vn -0.683510 -0.498608 0.533108
vn -0.683510 -0.498608 0.533108
vn -0.683510 -0.498608 0.533108
vn -0.731496 0.421198 0.536197
vn -0.731496 0.421198 0.536197
vn -0.916770 -0.013500 0.399187
vn -0.737501 0.346801 0.579501
vn -0.745484 0.162597 0.646386
vn -0.667215 -0.684815 -0.293006
vn -0.667215 -0.684815 -0.293006
vn -0.667215 -0.684815 -0.293006
vn -0.628290 -0.723188 -0.286795
vn -0.692306 -0.650906 0.311503
vn -0.924747 -0.192889 -0.328081
vn -0.924747 -0.192889 -0.328081
vn -0.720391 -0.462894 -0.516494
vn -0.969809 -0.242702 0.023800
vn -0.363613 -0.910932 -0.194907
vn -0.363613 -0.910932 -0.194907
vn -0.392621 -0.861745 0.321317
vn -0.392621 -0.861745 0.321317
vn -0.764418 -0.587514 0.265506
vn -0.502193 -0.649791 -0.570592
vn -0.502193 -0.649791 -0.570592
vn -0.013900 -0.332291 -0.943074
vn -0.013900 -0.332291 -0.943074
vn -0.013900 -0.332291 -0.943074
vn 0.290693 0.154396 -0.944277
vn 0.290693 0.154396 -0.944277
vn -0.376988 -0.626181 -0.682479
vn -0.376988 -0.626181 -0.682479
vn 0.207690 -0.440379 -0.873459
vn 0.242992 0.210693 -0.946870
vn 0.242992 0.210693 -0.946870
vn 0.147104 -0.492614 -0.857725
vn 0.777997 -0.018400 -0.627998
vn -0.620278 0.361187 0.696275
vn 0.781963 -0.254788 0.568873
vn 0.781963 -0.254788 0.568873
vn 0.579811 -0.036901 0.813915
vn 0.579811 -0.036901 0.813915
vn 0.954325 0.290407 0.070202
vn 0.954325 0.290407 0.070202
vn 0.687511 -0.465908 0.557009
vn -0.293505 0.875615 0.383606
vn -0.293505 0.875615 0.383606
vn 0.489713 0.801321 0.343609
vn 0.591497 0.708997 0.383998
vn 0.606504 0.715604 0.346502
vn 0.271002 0.831405 0.485103
vn -0.637507 0.361804 0.680208
vn -0.637507 0.361804 0.680208
vn -0.650604 0.339702 0.679204
vn 0.034500 0.638691 0.768689
vn -0.552403 0.368902 0.747504
vn 0.579797 0.600197 0.550997
vn 0.579797 0.600197 0.550997
vn 0.089500 0.444098 0.891497
vn 0.089500 0.444098 0.891497
vn -0.500104 0.359303 0.787907
vn 0.194890 0.308184 0.931150
vn 0.194890 0.308184 0.931150
vn 0.194890 0.308184 0.931150
vn 0.631272 0.366184 0.683670
vn 0.631272 0.366184 0.683670
vn 0.631272 0.366184 0.683670
vn 0.740396 0.253599 0.622496
vn 0.330192 0.285893 0.899577
vn 0.330192 0.285893 0.899577
vn 0.982730 0.182806 -0.028701
vn 0.750205 0.627304 0.209001
vn 0.000900 -0.926211 0.377005
vn 0.000900 -0.926211 0.377005
vn 0.000900 -0.926211 0.377005
vn 0.536274 -0.349983 0.768063
vn -0.255491 -0.797273 0.546882
vn -0.255491 -0.797273 0.546882
vn -0.255491 -0.797273 0.546882
vn 0.670495 -0.464396 0.578596
vn 0.055299 -0.096599 0.993786
vn 0.055299 -0.096599 0.993786
vn -0.095604 -0.410717 0.906737
vn -0.095604 -0.410717 0.906737
vn -0.095604 -0.410717 0.906737
vn -0.207904 -0.946917 0.245204
vn -0.207904 -0.946917 0.245204
vn -0.873215 0.397807 -0.281505
vn -0.958884 0.233296 -0.161597
vn -0.958884 0.233296 -0.161597
vn -0.958884 0.233296 -0.161597
vn -0.815772 0.355288 0.456384
vn -0.815772 0.355288 0.456384
vn 0.236300 0.860098 -0.452099
vn 0.236300 0.860098 -0.452099
vn -0.616377 0.655476 -0.436384
vn -0.088103 0.209506 -0.973830
vn -0.088103 0.209506 -0.973830
vn -0.088103 0.209506 -0.973830
vn -0.326298 0.406297 -0.853494
vn -0.126506 0.203609 -0.970845
vn -0.027500 -0.015800 -0.999497
vn 0.245596 -0.135298 -0.959884
vn 0.255897 0.005600 -0.966688
vn 0.440296 -0.503495 0.743393
vn 0.440296 -0.503495 0.743393
vn 0.500605 -0.587706 0.635607
vn 0.500605 -0.587706 0.635607
vn 0.524894 -0.568594 -0.633393
vn 0.524894 -0.568594 -0.633393
vn 0.598190 -0.722188 -0.347294
vn 0.598190 -0.722188 -0.347294
vn 0.934424 -0.350509 0.063202
vn 0.934424 -0.350509 0.063202
vn 0.969405 -0.125601 0.210901
vn 0.457685 -0.497384 0.736976
vn 0.955967 -0.114796 0.270091
vn 0.955967 -0.114796 0.270091
vn 0.989349 0.090504 0.114006
vn 0.963628 0.191406 -0.186505
vn 0.963628 0.191406 -0.186505
vn 0.829094 -0.073200 -0.554296
vn -0.199192 -0.000700 -0.979960
vn 0.151190 -0.882641 -0.445070
vn 0.214804 -0.971018 0.104802
vn -0.250595 -0.897381 0.363193
vn -0.373309 -0.873021 0.313807
vn -0.373309 -0.873021 0.313807
vn -0.760637 0.197110 0.618530
vn -0.326613 -0.884134 0.334113
vn 0.189306 -0.123404 0.974133
vn 0.538688 -0.593286 0.598186
vn 0.135305 -0.127705 0.982539
vn -0.056901 0.122701 0.990811
vn -0.711407 0.133901 0.689906
vn -0.291807 0.925824 -0.240206
vn 0.071700 0.991107 0.112101
vn 0.071700 0.991107 0.112101
vn 0.182693 0.971162 0.153194
vn 0.182693 0.971162 0.153194
vn 0.182693 0.971162 0.153194
vn -0.163697 0.979785 0.114998
vn -0.767185 -0.258595 0.586989
vn -0.767185 -0.258595 0.586989
vn -0.159697 -0.904085 -0.396393
vn -0.691410 0.295404 0.659309
vn -0.691410 0.295404 0.659309
vn -0.789081 -0.585486 0.185896
vn -0.789081 -0.585486 0.185896
vn -0.552289 -0.832584 0.042199
vn -0.557406 -0.827808 -0.063501
vn 0.298289 -0.152795 -0.942166
vn 0.174994 -0.161895 -0.971168
vn 0.174994 -0.161895 -0.971168
vn -0.607520 0.274609 0.745325
vn -0.607520 0.274609 0.745325
vn 0.842419 0.149003 0.517811
vn -0.586627 0.065103 0.807237
vn 0.105397 -0.863173 0.493785
vn -0.367518 -0.614330 0.698234
vn -0.596509 -0.160903 0.786312
vn 0.566778 0.796870 -0.209192
vn -0.567601 0.267600 -0.778601
vn -0.189293 0.666175 -0.721373
vn 0.700895 -0.457997 -0.546796
vn 0.964531 -0.056702 -0.257808
vn 0.045201 -0.427412 -0.902926
vn 0.045201 -0.427412 -0.902926
vn -0.074602 0.086802 -0.993428
vn 0.943197 0.326399 0.062000
vn 0.283596 -0.511892 -0.810888
vn -0.817760 -0.275986 0.505075
vn 0.234306 0.358810 -0.903524
vn 0.947133 0.295910 0.124004
vn -0.951679 0.153997 -0.265694
vn 0.466901 -0.385001 0.796102
vn 0.466901 -0.385001 0.796102
vn 0.850512 0.509507 0.130502
vn 0.686614 -0.223505 -0.691814
vn 0.586381 -0.504084 0.634080
s 1
g rock__1_:Mesh
usemtl rock__1_:Material
f 281/1/1 6/2/2 5/3/3
f 228/4/4 36/5/5 141/6/6
f 44/7/7 223/8/8 45/9/9
f 50/10/10 51/11/11 356/12/12
f 2/13/13 55/14/14 232/15/15
f 365/16/16 397/17/17 136/18/18
f 236/19/19 62/20/20 57/21/21
f 364/22/22 114/23/23 197/24/24
f 68/25/25 67/26/26 197/24/24
f 267/27/27 65/28/28 363/29/29
f 69/30/30 71/31/31 70/32/32
f 198/33/33 273/34/34 70/32/32
f 273/35/34 197/36/24 302/37/35
f 282/38/36 75/39/37 371/40/38
f 325/41/39 248/42/40 73/43/41
f 112/44/42 325/41/39 73/43/41
f 73/43/41 75/39/37 201/45/43
f 76/46/44 304/47/45 140/48/46
f 212/49/47 331/50/48 304/47/45
f 304/47/45 78/51/49 212/49/47
f 212/52/47 78/51/49 203/53/50
f 307/54/51 119/55/52 375/56/53
f 193/57/54 154/58/55 333/59/56
f 333/59/56 18/60/57 121/61/58
f 84/62/59 238/63/60 275/64/61
f 276/65/62 275/64/61 238/63/60
f 277/66/63 83/67/64 84/62/59
f 277/66/63 122/68/65 83/67/64
f 239/69/66 8/70/67 310/71/68
f 94/72/69 90/73/70 390/74/71
f 94/72/69 91/75/72 90/73/70
f 97/76/73 23/77/74 367/78/75
f 100/79/76 246/80/77 97/76/73
f 99/81/78 205/82/79 316/83/80
f 318/84/81 102/85/82 97/76/73
f 97/76/73 102/85/82 100/79/76
f 103/86/83 22/87/84 10/88/85
f 248/89/40 325/90/39 209/91/86
f 283/92/87 113/93/88 111/94/89
f 201/95/43 283/92/87 112/96/42
f 186/97/90 71/98/31 113/93/88
f 116/99/91 232/100/15 278/101/92
f 233/102/93 213/103/94 203/104/50
f 331/105/48 376/106/95 214/107/96
f 123/108/97 215/109/98 334/110/99
f 30/111/100 121/112/58 284/113/101
f 122/114/65 187/115/102 83/116/64
f 377/117/103 187/115/102 122/114/65
f 217/118/104 216/119/105 43/120/106
f 293/121/107 132/122/108 328/123/109
f 14/124/110 271/125/111 137/126/112
f 140/127/46 139/128/113 382/129/114
f 141/6/6 15/130/115 142/131/116
f 15/130/115 79/132/117 337/133/118
f 144/134/119 222/135/120 258/136/121
f 392/137/122 285/138/123 222/135/120
f 150/139/124 149/140/125 226/141/126
f 154/142/55 308/143/127 333/144/56
f 193/145/54 340/146/128 154/142/55
f 155/147/129 286/148/130 148/149/131
f 163/150/132 4/151/133 227/152/134
f 397/153/17 342/154/135 344/155/136
f 165/156/137 345/157/138 237/158/139
f 175/159/140 66/160/141 179/161/142
f 180/162/143 182/163/144 184/164/145
f 288/165/146 180/162/143 185/166/147
f 188/167/148 215/109/98 124/168/149
f 6/2/2 281/1/1 189/169/150
f 6/2/2 189/169/150 105/170/151
f 290/171/152 229/172/153 31/173/154
f 229/172/153 32/174/155 31/173/154
f 36/5/5 33/175/156 268/176/157
f 190/177/158 289/178/159 34/179/160
f 15/130/115 141/6/6 36/5/5
f 265/180/161 39/181/162 31/173/154
f 268/176/157 229/172/153 404/182/163
f 191/183/164 42/184/165 192/185/166
f 279/186/167 192/185/166 42/184/165
f 41/187/168 206/188/169 243/189/170
f 40/190/171 191/183/164 269/191/172
f 191/183/164 43/120/106 269/191/172
f 191/183/164 44/7/7 45/9/9
f 44/7/7 191/183/164 192/185/166
f 87/192/173 279/186/167 249/193/174
f 49/194/175 292/195/176 7/196/177
f 50/10/10 48/197/178 194/198/179
f 230/199/180 52/200/181 147/201/182
f 53/202/183 354/203/184 231/204/185
f 235/205/186 358/206/187 92/207/188
f 53/202/183 219/208/189 293/121/107
f 232/15/15 53/202/183 293/121/107
f 293/121/107 328/123/109 232/15/15
f 233/102/93 195/209/190 117/210/191
f 362/211/192 57/21/21 397/212/17
f 294/213/193 58/214/194 296/215/195
f 58/214/194 294/213/193 295/216/196
f 64/217/197 59/218/198 149/219/125
f 58/214/194 59/218/198 270/220/199
f 296/215/195 58/214/194 270/220/199
f 60/221/200 270/220/199 300/222/201
f 298/223/202 136/18/18 271/125/111
f 64/217/197 341/224/203 196/225/204
f 336/226/205 360/227/206 379/228/207
f 66/160/141 65/28/28 272/229/208
f 65/28/28 66/160/141 402/230/209
f 159/231/210 200/232/211 186/233/90
f 69/30/30 70/32/32 302/37/35
f 72/234/212 200/232/211 264/235/213
f 111/236/89 71/31/31 69/30/30
f 303/237/214 267/238/27 237/239/139
f 65/240/28 73/43/41 248/42/40
f 267/238/27 73/43/41 65/240/28
f 73/43/41 201/45/43 112/44/42
f 237/239/139 267/238/27 165/241/137
f 304/47/45 76/46/44 78/51/49
f 220/242/215 202/243/216 137/244/112
f 306/245/217 307/54/51 80/246/218
f 306/245/217 119/55/52 307/54/51
f 18/247/57 406/248/219 124/249/149
f 307/54/51 337/250/118 80/246/218
f 274/251/220 82/252/221 308/253/127
f 238/63/60 84/62/59 83/67/64
f 276/65/62 104/254/222 275/64/61
f 217/118/104 19/255/223 216/256/105
f 275/64/61 86/257/224 84/62/59
f 104/254/222 100/258/76 85/259/225
f 276/65/62 322/260/226 1/261/227
f 366/262/228 309/263/229 88/264/230
f 310/71/68 366/262/228 88/264/230
f 92/265/188 326/266/231 314/267/232
f 314/267/232 235/268/186 92/265/188
f 22/87/84 93/269/233 10/88/85
f 10/88/85 314/267/232 26/270/234
f 94/72/69 314/267/232 313/271/235
f 98/272/236 241/273/237 280/274/238
f 316/83/80 317/275/239 99/81/78
f 316/83/80 205/82/79 101/276/240
f 242/277/241 319/278/242 317/275/239
f 102/85/82 318/84/81 320/279/243
f 9/280/244 242/277/241 103/86/83
f 369/281/245 321/282/246 34/179/160
f 204/283/247 244/284/248 369/281/245
f 244/284/248 101/276/240 96/285/249
f 370/286/250 371/40/38 11/287/251
f 108/288/252 323/289/253 324/290/254
f 207/291/255 324/290/254 25/292/256
f 24/293/257 281/1/1 107/294/258
f 24/293/257 107/294/258 106/295/259
f 17/296/260 74/297/261 282/38/36
f 106/295/259 107/294/258 208/298/262
f 111/94/89 114/23/23 372/299/263
f 325/90/39 112/96/42 283/92/87
f 17/300/260 283/92/87 201/95/43
f 326/301/231 352/302/264 26/303/234
f 116/99/91 2/304/13 232/100/15
f 328/305/109 278/101/92 232/100/15
f 250/306/265 117/210/191 120/307/266
f 375/308/53 330/309/267 251/310/268
f 212/311/47 203/104/50 331/105/48
f 376/106/95 332/312/269 118/313/270
f 330/309/267 119/314/52 118/313/270
f 117/210/191 374/315/271 120/307/266
f 124/168/149 121/112/58 18/316/57
f 334/110/99 122/114/65 217/118/104
f 121/112/58 30/111/100 333/317/56
f 123/108/97 334/110/99 217/118/104
f 378/318/272 379/319/207 27/320/273
f 336/321/205 379/319/207 12/322/274
f 12/322/274 127/323/275 336/321/205
f 336/321/205 127/323/275 252/324/276
f 379/319/207 126/325/277 12/322/274
f 383/326/278 218/327/279 126/325/277
f 218/327/279 383/326/278 128/328/280
f 129/329/281 12/322/274 126/325/277
f 126/325/277 218/327/279 125/330/282
f 380/331/283 13/332/284 127/323/275
f 130/333/285 131/334/286 13/332/284
f 135/335/287 131/334/286 218/327/279
f 134/336/288 253/337/289 381/338/290
f 133/339/291 254/340/292 56/341/293
f 132/122/108 135/335/287 8/342/67
f 77/343/294 56/341/293 233/102/93
f 254/340/292 335/344/295 234/345/296
f 68/25/25 197/24/24 139/128/113
f 214/346/96 221/347/297 304/348/45
f 298/223/202 199/349/298 136/18/18
f 136/18/18 199/349/298 365/350/16
f 79/132/117 80/351/218 337/133/118
f 389/352/299 385/353/300 387/354/301
f 142/131/116 337/133/118 305/355/302
f 388/356/303 386/357/304 256/358/305
f 389/352/299 388/356/303 385/353/300
f 143/359/306 387/354/301 392/137/122
f 145/360/307 285/138/123 240/361/308
f 222/135/120 145/360/307 258/136/121
f 393/362/309 3/363/310 391/364/311
f 204/283/247 28/365/312 89/366/313
f 150/139/124 152/367/314 340/146/128
f 150/139/124 308/143/127 152/367/314
f 339/368/315 151/369/316 153/370/317
f 394/371/318 339/368/315 259/372/319
f 224/373/320 260/374/321 342/154/135
f 163/150/132 225/375/322 226/376/126
f 157/377/323 343/378/324 262/379/325
f 262/379/325 343/378/324 156/380/326
f 158/381/327 343/378/324 157/377/323
f 262/379/325 264/235/213 157/377/323
f 160/382/328 158/381/327 157/377/323
f 161/383/329 157/377/323 264/235/213
f 160/382/328 161/383/329 348/384/330
f 159/231/210 264/235/213 200/232/211
f 177/385/331 79/132/117 291/386/332
f 177/385/331 164/387/333 266/388/334
f 265/180/161 164/387/333 39/181/162
f 398/389/335 165/156/137 399/390/336
f 398/389/335 167/391/337 166/392/338
f 168/393/339 346/394/340 167/391/337
f 16/395/341 346/394/340 168/393/339
f 170/396/342 79/132/117 177/385/331
f 169/397/343 171/398/344 170/396/342
f 79/132/117 170/396/342 306/399/217
f 175/159/140 171/398/344 172/400/345
f 175/159/140 347/401/346 176/402/347
f 176/402/347 347/401/346 403/403/348
f 182/163/144 188/167/148 124/168/149
f 182/163/144 162/404/349 184/164/145
f 185/166/147 184/164/145 162/404/349
f 6/2/2 105/170/151 5/3/3
f 32/174/155 189/169/150 31/173/154
f 349/405/350 33/175/156 32/174/155
f 228/4/4 35/406/351 33/175/156
f 28/365/312 369/281/245 37/407/352
f 39/181/162 290/171/152 31/173/154
f 350/408/353 38/409/354 289/178/159
f 40/190/171 351/410/355 352/302/264
f 29/411/356 28/365/312 289/178/159
f 243/189/170 351/410/355 41/187/168
f 243/189/170 352/302/264 351/410/355
f 48/197/178 355/412/357 49/194/175
f 146/413/358 374/315/271 7/196/177
f 49/194/175 355/412/357 353/414/359
f 355/412/357 356/12/12 354/203/184
f 353/414/359 358/206/187 230/199/180
f 254/340/292 234/345/296 51/11/11
f 231/204/185 51/11/11 234/345/296
f 353/414/359 230/199/180 292/195/176
f 357/415/360 230/199/180 358/206/187
f 54/416/361 358/206/187 53/202/183
f 358/206/187 354/203/184 53/202/183
f 235/205/186 52/200/181 357/415/360
f 295/216/196 57/21/21 362/211/192
f 58/214/194 295/216/196 361/417/362
f 3/418/310 52/200/181 235/205/186
f 58/214/194 4/419/133 59/218/198
f 62/20/20 136/18/18 57/21/21
f 296/215/195 236/19/19 57/21/21
f 270/220/199 297/420/363 61/421/364
f 60/221/200 297/420/363 270/220/199
f 62/20/20 252/422/276 136/18/18
f 299/423/365 63/424/366 301/425/367
f 360/227/206 359/426/368 379/228/207
f 295/216/196 362/211/192 361/417/362
f 65/28/28 402/230/209 363/29/29
f 66/160/141 67/26/26 179/161/142
f 69/30/30 302/427/35 114/428/23
f 72/234/212 365/429/16 199/430/298
f 199/430/298 198/33/33 72/234/212
f 72/234/212 198/33/33 200/232/211
f 73/43/41 303/237/214 208/298/262
f 371/40/38 208/298/262 107/294/258
f 70/32/32 200/232/211 198/33/33
f 406/248/219 18/247/57 308/253/127
f 21/431/369 211/432/370 309/263/229
f 82/252/221 225/433/322 406/434/219
f 238/63/60 83/67/64 110/435/371
f 86/257/224 277/66/63 84/62/59
f 278/101/92 239/69/66 88/264/230
f 97/76/73 246/436/77 23/77/74
f 128/437/280 8/70/67 218/438/279
f 395/439/372 20/440/373 286/148/130
f 311/441/374 312/442/375 101/276/240
f 313/271/235 312/442/375 91/75/72
f 312/442/375 311/441/374 91/75/72
f 96/285/249 241/273/237 95/443/376
f 99/81/78 98/272/236 280/274/238
f 216/444/105 206/445/169 43/446/106
f 102/85/82 320/279/243 216/444/105
f 369/281/245 315/447/377 321/282/246
f 1/448/227 246/436/77 104/449/222
f 210/450/378 288/165/146 185/166/147 186/97/90
f 371/40/38 107/294/258 11/287/251
f 282/38/36 371/40/38 108/288/252
f 364/22/22 372/299/263 114/23/23
f 110/451/371 322/452/226 238/453/60
f 324/290/254 109/454/379 247/455/380
f 283/92/87 210/450/378 113/93/88
f 210/450/378 283/92/87 17/300/260
f 17/456/260 288/165/146 210/450/378
f 352/302/264 115/457/381 373/458/382
f 272/229/208 248/89/40 209/91/86
f 329/459/383 251/310/268 250/306/265
f 249/193/174 40/190/171 327/460/384
f 21/431/369 87/192/173 249/193/174
f 374/315/271 329/459/383 120/307/266
f 250/306/265 251/310/268 213/103/94
f 375/308/53 329/459/383 374/315/271
f 122/114/65 334/110/99 377/117/103
f 123/108/97 45/9/9 284/113/101
f 86/461/224 19/462/223 277/463/63
f 378/318/272 196/464/204 383/326/278
f 378/318/272 27/320/273 196/464/204
f 380/331/283 130/333/285 13/332/284
f 12/322/274 130/333/285 380/331/283
f 131/334/286 134/336/288 13/332/284
f 253/337/289 219/208/189 335/344/295
f 382/129/114 137/126/112 76/465/44
f 335/344/295 254/340/292 381/338/290
f 197/24/24 273/466/34 139/128/113
f 141/6/6 384/467/385 29/411/356
f 384/467/385 385/353/300 28/365/312
f 386/357/304 257/468/386 256/358/305
f 386/357/304 144/134/119 257/468/386
f 387/354/301 143/359/306 389/352/299
f 338/469/387 257/468/386 390/74/71
f 256/358/305 257/468/386 338/469/387
f 143/359/306 386/357/304 389/352/299
f 392/137/122 147/470/182 393/362/309
f 338/469/387 390/74/71 90/73/70
f 259/372/319 366/262/228 8/70/67
f 366/262/228 153/370/317 279/186/167
f 344/155/136 342/154/135 361/471/362
f 342/154/135 260/374/321 361/471/362
f 260/374/321 227/152/134 361/471/362
f 395/439/372 394/371/318 259/372/319
f 397/153/17 263/472/388 224/373/320
f 224/373/320 263/472/388 260/374/321
f 158/381/327 396/473/389 406/474/219
f 227/152/134 260/374/321 261/475/390
f 163/150/132 227/152/134 225/375/322
f 156/380/326 261/475/390 262/379/325
f 227/152/134 261/475/390 156/380/326
f 362/476/192 397/153/17 344/155/136
f 16/395/341 168/393/339 169/397/343
f 265/180/161 398/389/335 166/392/338
f 345/157/138 398/389/335 265/180/161
f 167/391/337 346/394/340 266/388/334
f 168/393/339 399/390/336 400/477/391
f 172/400/345 400/477/391 401/478/392
f 363/29/29 402/230/209 403/403/348
f 172/400/345 347/401/346 175/159/140
f 290/171/152 164/387/333 404/182/163
f 404/182/163 177/385/331 291/386/332
f 170/396/342 179/161/142 306/399/217
f 187/115/102 405/479/393 183/480/394
f 124/168/149 406/481/219 182/163/144
f 406/481/219 396/473/389 182/163/144
f 181/482/395 405/479/393 188/167/148
f 405/479/393 187/115/102 188/167/148
f 187/115/102 183/480/394 83/116/64
f 247/483/380 109/484/379 183/480/394
f 1/448/227 105/170/151 23/77/74
f 190/177/158 23/77/74 105/170/151
f 105/170/151 189/169/150 190/177/158
f 36/5/5 268/176/157 291/386/332
f 229/172/153 268/176/157 349/405/350
f 32/174/155 190/177/158 189/169/150
f 35/406/351 190/177/158 32/174/155
f 228/4/4 141/6/6 38/409/354
f 281/1/1 24/293/257 31/173/154
f 223/8/8 193/145/54 45/9/9
f 194/198/179 254/340/292 51/11/11
f 50/10/10 194/198/179 51/11/11
f 231/204/185 356/12/12 51/11/11
f 4/419/133 58/214/194 361/417/362
f 60/221/200 300/222/201 299/423/365
f 252/422/276 220/485/215 271/125/111
f 59/218/198 226/486/126 149/219/125
f 27/487/273 359/426/368 196/225/204
f 209/91/86 364/22/22 197/24/24
f 272/229/208 209/91/86 66/160/141
f 66/160/141 209/91/86 197/24/24
f 67/26/26 68/25/25 214/107/96
f 376/106/95 81/488/396 67/26/26
f 200/232/211 71/31/31 186/233/90
f 273/34/34 198/33/33 199/430/298
f 71/31/31 200/232/211 70/32/32
f 273/34/34 199/430/298 298/489/202
f 178/490/397 208/298/262 303/237/214
f 371/40/38 75/39/37 73/43/41
f 201/45/43 75/39/37 74/297/261
f 74/297/261 75/39/37 282/38/36
f 78/51/49 76/46/44 137/244/112
f 202/243/216 203/53/50 78/51/49
f 77/491/294 203/53/50 202/243/216
f 220/492/215 77/491/294 202/243/216
f 305/493/302 307/54/51 375/494/53
f 81/495/396 306/245/217 179/496/142
f 305/493/302 337/250/118 307/54/51
f 18/60/57 333/59/56 308/497/127
f 308/253/127 82/252/221 406/248/219
f 274/251/220 308/253/127 150/498/124
f 216/256/105 19/255/223 102/499/82
f 366/262/228 279/186/167 87/192/173
f 311/441/374 244/284/248 89/366/313
f 91/75/72 94/72/69 313/271/235
f 204/283/247 89/366/313 244/284/248
f 98/272/236 367/78/75 95/443/376
f 205/82/79 280/274/238 101/276/240
f 280/274/238 205/82/79 99/81/78
f 369/281/245 244/284/248 315/447/377
f 103/86/83 245/500/398 22/87/84
f 319/278/242 206/501/169 320/279/243
f 100/79/76 102/85/82 19/502/223
f 5/3/3 11/287/251 281/1/1
f 109/454/379 324/290/254 323/289/253
f 209/91/86 325/90/39 372/299/263
f 325/90/39 283/92/87 372/299/263
f 71/98/31 111/94/89 113/93/88
f 201/95/43 74/503/261 17/300/260
f 2/304/13 116/99/91 327/460/384
f 92/504/188 115/457/381 326/301/231
f 55/505/14 115/457/381 92/504/188
f 211/432/370 116/99/91 278/101/92
f 116/99/91 211/432/370 327/460/384
f 213/103/94 251/310/268 118/313/270
f 213/103/94 118/313/270 332/312/269
f 215/109/98 123/108/97 284/113/101
f 334/110/99 215/109/98 377/117/103
f 125/330/282 218/327/279 130/333/285
f 134/336/288 127/323/275 13/332/284
f 127/323/275 134/336/288 133/339/291
f 381/338/290 133/339/291 134/336/288
f 219/208/189 132/122/108 293/121/107
f 133/339/291 56/341/293 77/343/294
f 253/337/289 135/335/287 219/208/189
f 271/125/111 220/485/215 137/126/112
f 68/25/25 139/128/113 221/347/297
f 140/127/46 304/348/45 221/347/297
f 387/354/301 142/131/116 146/506/358
f 305/355/302 146/506/358 142/131/116
f 150/139/124 151/369/316 155/147/129
f 394/371/318 151/369/316 339/368/315
f 154/142/55 152/367/314 308/143/127
f 340/146/128 152/367/314 154/142/55
f 223/8/8 153/370/317 340/146/128
f 279/186/167 153/370/317 223/8/8
f 20/440/373 148/149/131 286/148/130
f 342/154/135 397/153/17 224/373/320
f 287/507/399 261/475/390 263/472/388
f 72/234/212 262/379/325 287/507/399
f 156/380/326 225/508/322 227/152/134
f 225/508/322 156/380/326 343/378/324
f 4/151/133 163/150/132 59/509/198
f 262/379/325 72/234/212 264/235/213
f 403/403/348 347/401/346 401/478/392
f 172/400/345 401/478/392 347/401/346
f 174/510/400 175/159/140 179/161/142
f 405/479/393 247/483/380 183/480/394
f 247/483/380 405/479/393 288/165/146
f 180/162/143 288/165/146 405/479/393
f 247/483/380 288/165/146 324/511/254
f 185/166/147 161/383/329 186/97/90
f 178/490/397 31/173/154 24/293/257
f 31/173/154 189/169/150 281/1/1
f 349/405/350 32/174/155 229/172/153
f 349/405/350 268/176/157 33/175/156
f 37/407/352 34/179/160 289/178/159
f 79/132/117 15/130/115 291/386/332
f 36/5/5 291/386/332 15/130/115
f 229/172/153 290/171/152 404/182/163
f 95/443/376 34/179/160 321/282/246
f 190/177/158 34/179/160 95/443/376
f 23/77/74 246/436/77 1/448/227
f 40/190/171 42/184/165 191/183/164
f 40/190/171 249/193/174 42/184/165
f 279/186/167 223/8/8 192/185/166
f 368/512/401 243/189/170 206/188/169
f 42/184/165 249/193/174 279/186/167
f 191/183/164 45/9/9 43/120/106
f 123/108/97 43/120/106 45/9/9
f 45/9/9 193/145/54 30/111/100
f 47/513/402 48/197/178 46/514/403
f 195/209/190 194/198/179 47/513/402
f 254/340/292 194/198/179 56/341/293
f 7/196/177 292/195/176 146/413/358
f 357/415/360 52/200/181 230/199/180
f 356/12/12 231/204/185 354/203/184
f 235/205/186 357/415/360 358/206/187
f 92/207/188 358/206/187 54/416/361
f 54/416/361 232/15/15 55/14/14
f 335/344/295 231/204/185 234/345/296
f 57/21/21 295/216/196 294/213/193
f 59/218/198 64/217/197 270/220/199
f 61/421/364 297/420/363 299/423/365
f 299/423/365 297/420/363 60/221/200
f 236/19/19 61/421/364 62/20/20
f 300/222/201 270/220/199 64/217/197
f 359/426/368 360/227/206 63/424/366
f 301/425/367 63/424/366 360/227/206
f 359/426/368 300/222/201 196/225/204
f 336/515/205 252/516/276 62/20/20
f 336/517/205 301/425/367 360/227/206
f 302/37/35 70/32/32 273/35/34
f 302/37/35 197/36/24 114/518/23
f 78/51/49 137/244/112 202/243/216
f 203/53/50 77/491/294 233/519/93
f 80/246/218 79/520/117 306/245/217
f 226/521/126 225/433/322 82/252/221
f 100/258/76 19/255/223 86/257/224
f 104/254/222 276/65/62 1/261/227
f 85/259/225 275/64/61 104/254/222
f 85/259/225 86/257/224 275/64/61
f 122/522/65 19/255/223 217/523/104
f 85/259/225 100/258/76 86/257/224
f 104/254/222 246/524/77 100/258/76
f 239/69/66 310/71/68 88/264/230
f 8/70/67 366/262/228 310/71/68
f 8/70/67 128/437/280 259/372/319
f 341/525/203 128/437/280 383/526/278
f 341/525/203 20/440/373 128/437/280
f 90/73/70 311/441/374 89/366/313
f 91/75/72 311/441/374 90/73/70
f 94/72/69 235/268/186 314/267/232
f 312/442/375 22/87/84 101/276/240
f 312/442/375 93/269/233 22/87/84
f 235/268/186 94/72/69 240/361/308
f 96/285/249 95/443/376 315/447/377
f 315/447/377 95/443/376 321/282/246
f 98/272/236 95/443/376 241/273/237
f 99/81/78 367/78/75 98/272/236
f 96/285/249 101/276/240 280/274/238
f 96/285/249 280/274/238 241/273/237
f 319/278/242 318/84/81 317/275/239
f 320/279/243 318/84/81 319/278/242
f 103/86/83 242/277/241 245/500/398
f 316/83/80 245/500/398 242/277/241
f 95/443/376 367/78/75 23/77/74
f 315/447/377 244/284/248 96/285/249
f 178/490/397 24/293/257 208/298/262
f 106/295/259 208/298/262 24/293/257
f 107/294/258 281/1/1 11/287/251
f 108/288/252 371/40/38 370/286/250
f 370/286/250 11/287/251 323/289/253
f 108/288/252 207/291/255 282/38/36
f 370/286/250 323/289/253 108/288/252
f 11/287/251 322/452/226 323/289/253
f 110/451/371 109/454/379 323/289/253
f 108/288/252 324/290/254 207/291/255
f 17/296/260 282/38/36 207/291/255
f 111/94/89 372/299/263 283/92/87
f 113/93/88 210/450/378 186/97/90
f 115/457/381 2/304/13 327/460/384
f 115/457/381 327/460/384 373/458/382
f 115/457/381 352/302/264 326/301/231
f 250/306/265 233/102/93 117/210/191
f 213/103/94 233/102/93 250/306/265
f 375/308/53 251/310/268 329/459/383
f 332/312/269 331/105/48 213/103/94
f 213/103/94 331/105/48 203/104/50
f 118/313/270 251/310/268 330/309/267
f 119/314/52 330/309/267 375/308/53
f 376/106/95 331/105/48 332/312/269
f 304/527/45 331/105/48 214/107/96
f 146/413/358 305/528/302 374/315/271
f 81/488/396 118/313/270 306/529/217
f 188/167/148 377/117/103 215/109/98
f 284/113/101 124/168/149 215/109/98
f 284/113/101 121/112/58 124/168/149
f 43/120/106 123/108/97 217/118/104
f 125/330/282 129/329/281 126/325/277
f 8/342/67 135/335/287 218/327/279
f 135/335/287 253/337/289 134/336/288
f 239/530/66 328/123/109 132/122/108
f 133/339/291 381/338/290 254/340/292
f 27/320/273 379/319/207 359/531/368
f 298/223/202 14/124/110 138/532/404
f 382/129/114 138/532/404 14/124/110
f 139/128/113 138/532/404 382/129/114
f 68/25/25 221/347/297 214/107/96
f 337/133/118 142/131/116 15/130/115
f 385/353/300 388/356/303 256/358/305
f 28/365/312 385/353/300 256/358/305
f 389/352/299 386/357/304 388/356/303
f 392/137/122 387/354/301 146/506/358
f 222/135/120 143/359/306 392/137/122
f 391/364/311 285/138/123 392/137/122
f 285/138/123 145/360/307 222/135/120
f 141/6/6 29/411/356 38/409/354
f 146/506/358 230/533/180 147/470/182
f 292/534/176 230/533/180 146/506/358
f 391/364/311 3/363/310 240/361/308
f 89/366/313 28/365/312 256/358/305
f 149/140/125 150/139/124 148/149/131
f 150/139/124 155/147/129 148/149/131
f 274/535/220 150/139/124 82/536/221
f 340/146/128 151/369/316 150/139/124
f 341/525/203 64/537/197 148/149/131
f 149/140/125 148/149/131 64/537/197
f 395/439/372 286/148/130 155/147/129
f 394/371/318 395/439/372 155/147/129
f 260/374/321 263/472/388 261/475/390
f 264/235/213 159/231/210 161/383/329
f 162/404/349 348/384/330 161/383/329
f 227/152/134 4/151/133 361/471/362
f 40/190/171 269/191/172 351/410/355
f 265/180/161 166/392/338 164/387/333
f 346/394/340 177/385/331 266/388/334
f 167/391/337 266/388/334 166/392/338
f 168/393/339 167/391/337 399/390/336
f 169/397/343 170/396/342 177/385/331
f 172/400/345 171/398/344 400/477/391
f 169/397/343 400/477/391 171/398/344
f 169/397/343 168/393/339 400/477/391
f 403/403/348 173/538/405 267/539/27
f 267/539/27 363/29/29 403/403/348
f 401/478/392 173/538/405 403/403/348
f 174/510/400 170/396/342 171/398/344
f 175/159/140 176/402/347 402/230/209
f 345/157/138 265/180/161 31/173/154
f 182/163/144 396/473/389 348/384/330
f 182/163/144 348/384/330 162/404/349
f 159/231/210 186/233/90 161/383/329
f 25/540/256 324/511/254 288/165/146
f 183/480/394 110/541/371 83/542/64
f 36/5/5 228/4/4 33/175/156
f 35/406/351 228/4/4 350/408/353
f 350/408/353 228/4/4 38/409/354
f 350/408/353 289/178/159 35/406/351
f 190/177/158 35/406/351 289/178/159
f 37/407/352 369/281/245 34/179/160
f 41/187/168 351/410/355 269/191/172
f 29/411/356 289/178/159 38/409/354
f 28/365/312 204/283/247 369/281/245
f 46/514/403 48/197/178 49/194/175
f 46/514/403 49/194/175 7/196/177
f 48/197/178 50/10/10 355/412/357
f 117/210/191 46/514/403 374/315/271
f 7/196/177 374/315/271 46/514/403
f 46/514/403 195/209/190 47/513/402
f 292/195/176 49/194/175 353/414/359
f 47/513/402 194/198/179 48/197/178
f 353/414/359 355/412/357 354/203/184
f 50/10/10 356/12/12 355/412/357
f 353/414/359 354/203/184 358/206/187
f 219/208/189 231/204/185 335/344/295
f 53/202/183 231/204/185 219/208/189
f 194/198/179 233/102/93 56/341/293
f 240/543/308 3/418/310 235/205/186
f 393/544/309 52/200/181 3/418/310
f 147/201/182 52/200/181 393/544/309
f 294/213/193 296/215/195 57/21/21
f 296/215/195 270/220/199 236/19/19
f 299/423/365 301/425/367 61/421/364
f 62/20/20 61/421/364 301/425/367
f 61/421/364 236/19/19 270/220/199
f 361/545/362 362/211/192 344/546/136
f 179/161/142 67/26/26 81/488/396
f 272/229/208 65/28/28 248/89/40
f 397/153/17 365/429/16 287/507/399
f 111/547/89 69/30/30 114/428/23
f 287/507/399 365/429/16 72/234/212
f 303/237/214 73/43/41 267/238/27
f 211/432/370 278/101/92 309/263/229
f 238/63/60 322/548/226 276/65/62
f 21/431/369 366/262/228 87/192/173
f 21/431/369 309/263/229 366/262/228
f 328/305/109 239/69/66 278/101/92
f 196/549/204 341/525/203 383/526/278
f 128/437/280 20/440/373 395/439/372
f 128/437/280 395/439/372 259/372/319
f 93/269/233 313/271/235 314/267/232
f 313/271/235 93/269/233 312/442/375
f 145/360/307 390/74/71 258/136/121
f 317/275/239 97/76/73 367/78/75
f 317/275/239 316/83/80 242/277/241
f 101/276/240 22/87/84 316/83/80
f 242/277/241 9/280/244 368/550/401
f 216/444/105 320/279/243 206/445/169
f 9/280/244 103/86/83 243/551/170
f 32/174/155 33/175/156 35/406/351
f 323/289/253 322/452/226 110/451/371
f 105/170/151 322/452/226 5/3/3
f 11/287/251 5/3/3 322/452/226
f 364/22/22 209/91/86 372/299/263
f 25/540/256 288/165/146 17/456/260
f 2/304/13 115/457/381 55/505/14
f 211/432/370 249/193/174 327/460/384
f 327/460/384 40/190/171 373/458/382
f 329/459/383 250/306/265 120/307/266
f 119/314/52 306/529/217 118/313/270
f 81/488/396 376/106/95 118/313/270
f 277/463/63 19/462/223 122/114/65
f 379/319/207 378/318/272 126/325/277
f 12/322/274 129/329/281 130/333/285
f 125/330/282 130/333/285 129/329/281
f 135/335/287 134/336/288 131/334/286
f 381/338/290 253/337/289 335/344/295
f 137/126/112 382/129/114 14/124/110
f 138/532/404 273/552/34 298/223/202
f 28/365/312 29/411/356 384/467/385
f 382/129/114 76/465/44 140/127/46
f 141/6/6 142/131/116 255/553/406
f 141/6/6 255/553/406 384/467/385
f 384/467/385 387/354/301 385/353/300
f 255/553/406 142/131/116 387/354/301
f 255/553/406 387/354/301 384/467/385
f 143/359/306 144/134/119 386/357/304
f 257/468/386 144/134/119 390/74/71
f 285/138/123 391/364/311 240/361/308
f 392/137/122 146/506/358 147/470/182
f 391/364/311 392/137/122 393/362/309
f 90/73/70 89/366/313 338/469/387
f 390/74/71 145/360/307 94/72/69
f 240/361/308 94/72/69 145/360/307
f 338/469/387 89/366/313 256/358/305
f 339/368/315 153/370/317 259/372/319
f 366/262/228 259/372/319 153/370/317
f 160/382/328 348/384/330 396/473/389
f 397/153/17 287/507/399 263/472/388
f 164/387/333 166/392/338 266/388/334
f 39/181/162 164/387/333 290/171/152
f 16/395/341 169/397/343 177/385/331
f 398/389/335 399/390/336 167/391/337
f 165/156/137 400/477/391 399/390/336
f 173/538/405 401/478/392 400/477/391
f 173/538/405 400/477/391 165/156/137
f 402/230/209 176/402/347 403/403/348
f 402/230/209 66/160/141 175/159/140
f 268/176/157 404/182/163 291/386/332
f 404/182/163 164/387/333 177/385/331
f 170/396/342 174/510/400 179/161/142
f 31/173/154 178/490/397 345/157/138
f 178/490/397 303/554/214 237/158/139
f 182/163/144 180/162/143 181/482/395
f 180/162/143 184/164/145 185/166/147
f 162/404/349 161/383/329 185/166/147
f 377/117/103 188/167/148 187/115/102
f 181/482/395 180/162/143 405/479/393
f 182/163/144 181/482/395 188/167/148
f 183/480/394 109/484/379 110/541/371
f 28/365/312 37/407/352 289/178/159
f 192/185/166 223/8/8 44/7/7
f 299/423/365 300/222/201 63/424/366
f 67/26/26 214/107/96 376/106/95
f 197/24/24 67/26/26 66/160/141
f 8/70/67 239/69/66 132/555/108
f 220/492/215 127/556/275 133/557/291
f 311/441/374 101/276/240 244/284/248
f 314/267/232 326/558/231 26/270/234
f 1/559/227 322/452/226 105/170/151
f 378/318/272 383/326/278 126/325/277
f 298/223/202 271/125/111 14/124/110
f 221/347/297 139/128/113 140/127/46
f 394/371/318 155/147/129 151/369/316
f 151/369/316 340/146/128 153/370/317
f 340/146/128 193/145/54 223/8/8
f 161/383/329 160/382/328 157/377/323
f 206/188/169 319/560/242 368/561/401
f 269/191/172 43/120/106 41/187/168
f 206/562/169 41/187/168 43/120/106
f 54/416/361 53/202/183 232/15/15
f 55/14/14 92/207/188 54/416/361
f 136/18/18 397/563/17 57/21/21
f 301/425/367 336/564/205 62/20/20
f 300/222/201 359/426/368 63/424/366
f 196/225/204 300/222/201 64/217/197
f 30/565/100 193/57/54 333/59/56
f 317/275/239 318/84/81 97/76/73
f 23/77/74 190/177/158 95/443/376
f 207/291/255 25/292/256 17/296/260
f 21/431/369 249/193/174 211/432/370
f 305/528/302 375/308/53 374/315/271
f 127/323/275 220/566/215 252/324/276
f 130/333/285 218/327/279 131/334/286
f 135/335/287 132/122/108 219/208/189
f 139/128/113 273/466/34 138/532/404
f 226/141/126 82/536/221 150/139/124
f 158/381/327 406/474/219 225/508/322
f 158/381/327 225/508/322 343/378/324
f 165/156/137 398/389/335 345/157/138
f 171/398/344 175/159/140 174/510/400
f 46/514/403 117/210/191 195/209/190
f 233/102/93 194/198/179 195/209/190
f 208/298/262 371/40/38 73/43/41
f 309/263/229 278/101/92 88/264/230
f 367/78/75 99/81/78 317/275/239
f 245/500/398 316/83/80 22/87/84
f 243/551/170 368/550/401 9/280/244
f 103/86/83 10/88/85 243/551/170
f 352/302/264 373/458/382 40/190/171
f 45/9/9 30/111/100 284/113/101
f 144/134/119 143/359/306 222/135/120
f 258/136/121 390/74/71 144/134/119
f 396/473/389 158/381/327 160/382/328
f 226/376/126 59/509/198 163/150/132
f 346/394/340 16/395/341 177/385/331
f 165/156/137 267/567/27 173/538/405
f 261/475/390 287/507/399 262/379/325
f 237/158/139 345/157/138 178/490/397
f 271/125/111 136/18/18 252/422/276
f 220/492/215 133/557/291 77/491/294
f 319/278/242 242/277/241 368/550/401
f 380/331/283 127/323/275 12/322/274
f 20/440/373 341/525/203 148/149/131
f 93/269/233 314/267/232 10/88/85
f 243/189/170 10/568/85 26/303/234 352/302/264
