# This file uses centimeters as units for non-parametric coordinates.

mtllib M_Bridge2.mtl
g default
v 1.184237 -0.072321 -2.943708
v 1.176076 0.216632 -2.944326
v 1.113564 -0.061363 3.115664
v 1.105403 0.227590 3.115047
v -0.031006 -0.093717 3.102373
v -0.039168 0.195236 3.101755
v 0.039667 -0.104674 -2.956999
v 0.031506 0.184279 -2.957617
v 0.485441 1.126961 3.327601
v 0.432740 1.126961 3.380302
v 0.432740 1.074259 3.327601
v 0.432740 1.804620 3.327601
v 0.432740 1.751919 3.380302
v 0.485441 1.751919 3.327601
v -9.255584 1.074259 3.327601
v -9.255584 1.126961 3.380302
v -9.308286 1.126961 3.327601
v -9.308286 1.751919 3.327601
v -9.255584 1.751919 3.380302
v -9.255584 1.804620 3.327601
v -9.255584 1.074259 2.692671
v -9.308286 1.126961 2.692671
v -9.255584 1.126961 2.639970
v -9.255584 1.751919 2.639970
v -9.308286 1.751919 2.692671
v -9.255584 1.804620 2.692671
v 0.432740 1.074259 2.692671
v 0.432740 1.126961 2.639970
v 0.485441 1.126961 2.692671
v 0.485441 1.751919 2.692671
v 0.432740 1.751919 2.639970
v 0.432740 1.804620 2.692671
v -4.832007 1.158653 3.342760
v -4.832007 1.720227 3.342760
v -4.832007 1.767583 3.295403
v -4.832007 1.767583 2.724869
v -4.832007 1.720227 2.677512
v -4.832007 1.158653 2.677512
v -4.832007 1.111296 2.724869
v -4.832007 1.111296 3.295403
v 10.192930 1.727453 -2.779504
v 10.140229 1.779940 -2.774754
v 10.140229 1.722703 -2.727017
v 10.140229 1.788522 -3.454406
v 10.140229 1.836260 -3.397170
v 10.192930 1.783773 -3.401919
v 0.451905 1.722703 -2.727017
v 0.451905 1.779940 -2.774754
v 0.399204 1.727453 -2.779504
v 0.399204 1.783773 -3.401919
v 0.451905 1.836260 -3.397170
v 0.451905 1.788522 -3.454406
v 0.451905 1.090357 -2.784236
v 0.399204 1.095106 -2.836723
v 0.451905 1.042619 -2.841472
v 0.451905 1.098940 -3.463888
v 0.399204 1.151427 -3.459138
v 0.451905 1.156176 -3.511625
v 10.140229 1.090357 -2.784236
v 10.140229 1.042619 -2.841472
v 10.192930 1.095106 -2.836723
v 10.192930 1.151427 -3.459138
v 10.140229 1.098940 -3.463888
v 10.140229 1.156176 -3.511625
v 4.875483 1.745406 -2.809700
v 4.875483 1.796014 -3.368990
v 4.875483 1.753118 -3.420421
v 4.875483 1.184905 -3.471837
v 4.875483 1.133474 -3.428941
v 4.875483 1.082865 -2.869652
v 4.875483 1.125761 -2.818221
v 4.875483 1.693974 -2.766805
v 0.538159 0.077791 -3.243558
v 0.538751 0.077791 -2.882736
v 0.538159 1.606639 -3.243558
v 0.538751 1.606639 -2.882736
v 0.947664 1.606639 -3.244230
v 0.948256 1.606639 -2.883408
v 0.947664 0.077791 -3.244230
v 0.948256 0.077791 -2.883408
v 10.192930 1.727453 3.349953
v 10.140229 1.779940 3.354703
v 10.140229 1.722703 3.402440
v 10.140229 1.788522 2.675051
v 10.140229 1.836260 2.732287
v 10.192930 1.783773 2.727538
v 0.451905 1.722703 3.402440
v 0.451905 1.779940 3.354703
v 0.399204 1.727453 3.349953
v 0.399204 1.783773 2.727538
v 0.451905 1.836260 2.732287
v 0.451905 1.788522 2.675051
v 0.451905 1.090357 3.345221
v 0.399204 1.095106 3.292734
v 0.451905 1.042619 3.287985
v 0.451905 1.098940 2.665569
v 0.399204 1.151427 2.670319
v 0.451905 1.156176 2.617832
v 10.140229 1.090357 3.345221
v 10.140229 1.042619 3.287985
v 10.192930 1.095106 3.292734
v 10.192930 1.151427 2.670319
v 10.140229 1.098940 2.665569
v 10.140229 1.156176 2.617832
v 4.875483 1.745406 3.319757
v 4.875483 1.796014 2.760467
v 4.875483 1.753118 2.709036
v 4.875483 1.184905 2.657620
v 4.875483 1.133474 2.700516
v 4.875483 1.082865 3.259805
v 4.875483 1.125761 3.311236
v 4.875483 1.693974 3.362652
v -6.511594 -0.072321 3.119364
v -6.503417 0.216632 3.119727
v -6.629946 -0.061363 -2.939265
v -6.621769 0.227590 -2.938902
v -5.485518 -0.093717 -2.961679
v -5.477341 0.195236 -2.961317
v -5.367165 -0.104674 3.096949
v -5.358989 0.184279 3.097312
v -6.674352 0.216542 3.111479
v -6.682354 -0.072405 3.113945
v -6.633729 0.163693 -2.947948
v -6.641730 -0.125254 -2.945482
v -7.778369 0.195321 -2.955898
v -7.786370 -0.093627 -2.953432
v -7.818993 0.248170 3.103529
v -7.826994 -0.040778 3.105996
v -8.371023 0.077791 2.780974
v -8.370432 0.077791 3.141796
v -8.371023 1.606639 2.780974
v -8.370432 1.606639 3.141796
v -7.961519 1.606639 2.780303
v -7.960927 1.606639 3.141124
v -7.961519 0.077791 2.780303
v -7.960927 0.077791 3.141124
v 0.485441 1.126961 -2.801857
v 0.432740 1.126961 -2.749155
v 0.432740 1.074259 -2.801857
v 0.432740 1.804620 -2.801857
v 0.432740 1.751919 -2.749155
v 0.485441 1.751919 -2.801857
v -9.255584 1.074259 -2.801857
v -9.255584 1.126961 -2.749155
v -9.308286 1.126961 -2.801857
v -9.308286 1.751919 -2.801857
v -9.255584 1.751919 -2.749155
v -9.255584 1.804620 -2.801857
v -9.255584 1.074259 -3.436786
v -9.308286 1.126961 -3.436786
v -9.255584 1.126961 -3.489487
v -9.255584 1.751919 -3.489487
v -9.308286 1.751919 -3.436786
v -9.255584 1.804620 -3.436786
v 0.432740 1.074259 -3.436786
v 0.432740 1.126961 -3.489487
v 0.485441 1.126961 -3.436786
v 0.485441 1.751919 -3.436786
v 0.432740 1.751919 -3.489487
v 0.432740 1.804620 -3.436786
v -4.832007 1.158653 -2.786698
v -4.832007 1.720227 -2.786698
v -4.832007 1.767583 -2.834054
v -4.832007 1.767583 -3.404589
v -4.832007 1.720227 -3.451945
v -4.832007 1.158653 -3.451945
v -4.832007 1.111296 -3.404589
v -4.832007 1.111296 -2.834054
v -1.412632 -0.072321 3.117900
v -1.404457 0.216632 3.118286
v -1.513980 -0.061363 -2.941037
v -1.505805 0.227590 -2.940651
v -0.369493 -0.093717 -2.960239
v -0.361318 0.195236 -2.959853
v -0.268146 -0.104674 3.098698
v -0.259971 0.184279 3.099084
v 3.625653 0.216542 3.111479
v 3.617651 -0.072405 3.113945
v 3.666276 0.163693 -2.947948
v 3.658275 -0.125254 -2.945482
v 2.521636 0.195321 -2.955898
v 2.513634 -0.093627 -2.953432
v 2.481012 0.248170 3.103529
v 2.473011 -0.040778 3.105996
v 2.934094 0.205470 -2.729845
v 2.981272 0.181981 -2.677144
v 3.004760 0.229159 -2.729845
v 2.679247 -0.424652 -2.729845
v 2.702735 -0.377474 -2.677144
v 2.655558 -0.353986 -2.729845
v 11.677637 -4.088806 -2.729845
v 11.654148 -4.135983 -2.677144
v 11.701326 -4.159472 -2.729845
v 11.422790 -4.718927 -2.729845
v 11.375612 -4.695439 -2.677144
v 11.352124 -4.742617 -2.729845
v 11.677637 -4.088806 -3.364775
v 11.701326 -4.159472 -3.364775
v 11.654148 -4.135983 -3.417476
v 11.375612 -4.695439 -3.417476
v 11.422790 -4.718927 -3.364775
v 11.352124 -4.742617 -3.364775
v 3.004760 0.229159 -3.364775
v 2.981272 0.181981 -3.417476
v 2.934094 0.205470 -3.364775
v 2.655558 -0.353986 -3.364775
v 2.702735 -0.377474 -3.417476
v 2.679247 -0.424652 -3.364775
v 7.680088 -2.192821 -2.714686
v 7.429801 -2.695536 -2.714686
v 7.408695 -2.737928 -2.762043
v 7.408695 -2.737928 -3.332577
v 7.429801 -2.695536 -3.379934
v 7.680088 -2.192821 -3.379934
v 7.701194 -2.150428 -3.332577
v 7.701194 -2.150428 -2.762043
v 2.934094 0.205470 3.261086
v 2.981272 0.181981 3.313787
v 3.004760 0.229159 3.261086
v 2.679247 -0.424652 3.261086
v 2.702735 -0.377474 3.313787
v 2.655558 -0.353986 3.261086
v 11.677637 -4.088806 3.261086
v 11.654148 -4.135983 3.313787
v 11.701326 -4.159472 3.261086
v 11.422790 -4.718927 3.261086
v 11.375612 -4.695439 3.313787
v 11.352124 -4.742617 3.261086
v 11.677637 -4.088806 2.626156
v 11.701326 -4.159472 2.626156
v 11.654148 -4.135983 2.573455
v 11.375612 -4.695439 2.573455
v 11.422790 -4.718927 2.626156
v 11.352124 -4.742617 2.626156
v 3.004760 0.229159 2.626156
v 2.981272 0.181981 2.573455
v 2.934094 0.205470 2.626156
v 2.655558 -0.353986 2.626156
v 2.702735 -0.377474 2.573455
v 2.679247 -0.424652 2.626156
v 7.680088 -2.192821 3.276245
v 7.429801 -2.695536 3.276245
v 7.408695 -2.737928 3.228889
v 7.408695 -2.737928 2.658354
v 7.429801 -2.695536 2.610998
v 7.680088 -2.192821 2.610998
v 7.701194 -2.150428 2.658354
v 7.701194 -2.150428 3.228889
v -2.323292 -0.293560 -2.729845
v -2.371051 -0.315844 -2.677144
v -2.348767 -0.363602 -2.729845
v -2.657588 0.298256 -2.729845
v -2.635304 0.250498 -2.677144
v -2.587546 0.272782 -2.729845
v -11.128397 -4.460152 -2.729845
v -11.150681 -4.412394 -2.677144
v -11.198439 -4.434678 -2.729845
v -11.462692 -3.868335 -2.729845
v -11.414934 -3.846052 -2.677144
v -11.437218 -3.798293 -2.729845
v -11.128397 -4.460152 -3.364775
v -11.198439 -4.434678 -3.364775
v -11.150681 -4.412394 -3.417476
v -11.414934 -3.846052 -3.417476
v -11.462692 -3.868335 -3.364775
v -11.437218 -3.798293 -3.364775
v -2.348767 -0.363602 -3.364775
v -2.371051 -0.315844 -3.417476
v -2.323292 -0.293560 -3.364775
v -2.587546 0.272782 -3.364775
v -2.635304 0.250498 -3.417476
v -2.657588 0.298256 -3.364775
v -7.155403 -2.513237 -2.714686
v -7.392856 -2.004334 -2.714686
v -7.412879 -1.961419 -2.762043
v -7.412879 -1.961419 -3.332577
v -7.392856 -2.004334 -3.379934
v -7.155403 -2.513237 -3.379934
v -7.135379 -2.556151 -3.332577
v -7.135379 -2.556151 -2.762043
v -2.323292 -0.181176 3.327601
v -2.371051 -0.203460 3.380302
v -2.348767 -0.251218 3.327601
v -2.657588 0.410640 3.327601
v -2.635304 0.362882 3.380302
v -2.587546 0.385166 3.327601
v -11.128397 -4.347767 3.327601
v -11.150681 -4.300009 3.380302
v -11.198439 -4.322293 3.327601
v -11.462692 -3.755951 3.327601
v -11.414934 -3.733667 3.380302
v -11.437218 -3.685909 3.327601
v -11.128397 -4.347767 2.692671
v -11.198439 -4.322293 2.692671
v -11.150681 -4.300009 2.639970
v -11.414934 -3.733667 2.639970
v -11.462692 -3.755951 2.692671
v -11.437218 -3.685909 2.692671
v -2.348767 -0.251218 2.692671
v -2.371051 -0.203460 2.639970
v -2.323292 -0.181176 2.692671
v -2.587546 0.385166 2.692671
v -2.635304 0.362882 2.639970
v -2.657588 0.410640 2.692671
v -7.155403 -2.400852 3.342760
v -7.392856 -1.891949 3.342760
v -7.412879 -1.849035 3.295403
v -7.412879 -1.849035 2.724869
v -7.392856 -1.891949 2.677512
v -7.155403 -2.400852 2.677512
v -7.135379 -2.443767 2.724869
v -7.135379 -2.443767 3.295403
v 10.192930 0.346031 3.349953
v 10.140229 0.398518 3.354703
v 10.140229 0.341281 3.402440
v 10.140229 0.407101 2.675051
v 10.140229 0.454838 2.732287
v 10.192930 0.402351 2.727538
v 0.451905 0.341281 3.402440
v 0.451905 0.398518 3.354703
v 0.399204 0.346031 3.349953
v 0.399204 0.402351 2.727538
v 0.451905 0.454838 2.732287
v 0.451905 0.407101 2.675051
v 0.451905 -0.291065 3.345221
v 0.399204 -0.286316 3.292734
v 0.451905 -0.338802 3.287985
v 0.451905 -0.282482 2.665569
v 0.399204 -0.229995 2.670319
v 0.451905 -0.225246 2.617832
v 10.140229 -0.291065 3.345221
v 10.140229 -0.338802 3.287985
v 10.192930 -0.286316 3.292734
v 10.192930 -0.229995 2.670319
v 10.140229 -0.282482 2.665569
v 10.140229 -0.225246 2.617832
v 4.875483 0.363984 3.319757
v 4.875483 0.414592 2.760467
v 4.875483 0.371696 2.709036
v 4.875483 -0.196517 2.657620
v 4.875483 -0.247948 2.700516
v 4.875483 -0.298556 3.259805
v 4.875483 -0.255661 3.311236
v 4.875483 0.312552 3.362652
v -3.873021 0.173858 -2.975137
v -3.864668 -0.115084 -2.973278
v -4.156521 0.204605 3.077944
v -4.148168 -0.084337 3.079803
v -3.013148 0.237999 3.131325
v -3.004796 -0.050943 3.133184
v -2.729649 0.207252 -2.921756
v -2.721296 -0.081690 -2.919897
v 0.485441 -0.254461 3.327601
v 0.432740 -0.254461 3.380302
v 0.432740 -0.307162 3.327601
v 0.432740 0.423199 3.327601
v 0.432740 0.370497 3.380302
v 0.485441 0.370497 3.327601
v -9.255584 -0.307162 3.327601
v -9.255584 -0.254461 3.380302
v -9.308286 -0.254461 3.327601
v -9.308286 0.370497 3.327601
v -9.255584 0.370497 3.380302
v -9.255584 0.423199 3.327601
v -9.255584 -0.307162 2.692671
v -9.308286 -0.254461 2.692671
v -9.255584 -0.254461 2.639970
v -9.255584 0.370497 2.639970
v -9.308286 0.370497 2.692671
v -9.255584 0.423199 2.692671
v 0.432740 -0.307162 2.692671
v 0.432740 -0.254461 2.639970
v 0.485441 -0.254461 2.692671
v 0.485441 0.370497 2.692671
v 0.432740 0.370497 2.639970
v 0.432740 0.423199 2.692671
v -4.832007 -0.222769 3.342760
v -4.832007 0.338805 3.342760
v -4.832007 0.386162 3.295403
v -4.832007 0.386162 2.724869
v -4.832007 0.338805 2.677512
v -4.832007 -0.222769 2.677512
v -4.832007 -0.270125 2.724869
v -4.832007 -0.270125 3.295403
v -1.614033 0.216542 3.111479
v -1.622035 -0.072405 3.113945
v -1.573409 0.163693 -2.947948
v -1.581411 -0.125254 -2.945482
v -2.718050 0.195321 -2.955898
v -2.726051 -0.093627 -2.953432
v -2.758674 0.248170 3.103529
v -2.766675 -0.040778 3.105996
v 6.426985 0.173858 -2.975137
v 6.435338 -0.115084 -2.973278
v 6.143485 0.204605 3.077944
v 6.151838 -0.084337 3.079803
v 7.286858 0.237999 3.131325
v 7.295210 -0.050943 3.133184
v 7.570357 0.207252 -2.921756
v 7.578710 -0.081690 -2.919897
v 9.447342 0.077791 -3.243558
v 9.447934 0.077791 -2.882736
v 9.447342 1.606639 -3.243558
v 9.447934 1.606639 -2.882736
v 9.856847 1.606639 -3.244230
v 9.857439 1.606639 -2.883408
v 9.856847 0.077791 -3.244230
v 9.857439 0.077791 -2.883408
v -8.933341 0.173858 -2.975137
v -8.924988 -0.115084 -2.973278
v -9.216841 0.204605 3.077944
v -9.208488 -0.084337 3.079803
v -8.073468 0.237999 3.131325
v -8.065115 -0.050943 3.133184
v -7.789968 0.207252 -2.921756
v -7.781615 -0.081690 -2.919897
v 0.485441 -0.254461 -2.801857
v 0.432740 -0.254461 -2.749155
v 0.432740 -0.307162 -2.801857
v 0.432740 0.423199 -2.801857
v 0.432740 0.370497 -2.749155
v 0.485441 0.370497 -2.801857
v -9.255584 -0.307162 -2.801857
v -9.255584 -0.254461 -2.749155
v -9.308286 -0.254461 -2.801857
v -9.308286 0.370497 -2.801857
v -9.255584 0.370497 -2.749155
v -9.255584 0.423199 -2.801857
v -9.255584 -0.307162 -3.436786
v -9.308286 -0.254461 -3.436786
v -9.255584 -0.254461 -3.489487
v -9.255584 0.370497 -3.489487
v -9.308286 0.370497 -3.436786
v -9.255584 0.423199 -3.436786
v 0.432740 -0.307162 -3.436786
v 0.432740 -0.254461 -3.489487
v 0.485441 -0.254461 -3.436786
v 0.485441 0.370497 -3.436786
v 0.432740 0.370497 -3.489487
v 0.432740 0.423199 -3.436786
v -4.832007 -0.222769 -2.786698
v -4.832007 0.338805 -2.786698
v -4.832007 0.386162 -2.834054
v -4.832007 0.386162 -3.404589
v -4.832007 0.338805 -3.451945
v -4.832007 -0.222769 -3.451945
v -4.832007 -0.270125 -3.404589
v -4.832007 -0.270125 -2.834054
v 1.366665 0.173858 -2.975137
v 1.375018 -0.115084 -2.973278
v 1.083165 0.204605 3.077944
v 1.091518 -0.084337 3.079803
v 2.226538 0.237999 3.131325
v 2.234890 -0.050943 3.133184
v 2.510037 0.207252 -2.921756
v 2.518390 -0.081690 -2.919897
v 9.103249 -0.072321 3.136087
v 9.111432 0.216632 3.136154
v 8.765709 -0.061363 -2.914290
v 8.773893 0.227590 -2.914223
v 9.908577 -0.093717 -2.978107
v 9.916761 0.195236 -2.978040
v 10.246116 -0.104674 3.072270
v 10.254300 0.184279 3.072337
v 8.685972 0.216542 3.111479
v 8.677971 -0.072405 3.113945
v 8.726596 0.163693 -2.947948
v 8.718595 -0.125254 -2.945482
v 7.581956 0.195321 -2.955898
v 7.573955 -0.093627 -2.953432
v 7.541332 0.248170 3.103529
v 7.533331 -0.040778 3.105996
v 10.192930 0.346031 -2.779504
v 10.140229 0.398518 -2.774754
v 10.140229 0.341281 -2.727017
v 10.140229 0.407101 -3.454406
v 10.140229 0.454838 -3.397170
v 10.192930 0.402351 -3.401919
v 0.451905 0.341281 -2.727017
v 0.451905 0.398518 -2.774754
v 0.399204 0.346031 -2.779504
v 0.399204 0.402351 -3.401919
v 0.451905 0.454838 -3.397170
v 0.451905 0.407101 -3.454406
v 0.451905 -0.291065 -2.784236
v 0.399204 -0.286316 -2.836723
v 0.451905 -0.338802 -2.841472
v 0.451905 -0.282482 -3.463888
v 0.399204 -0.229995 -3.459138
v 0.451905 -0.225246 -3.511625
v 10.140229 -0.291065 -2.784236
v 10.140229 -0.338802 -2.841472
v 10.192930 -0.286316 -2.836723
v 10.192930 -0.229995 -3.459138
v 10.140229 -0.282482 -3.463888
v 10.140229 -0.225246 -3.511625
v 4.875483 0.363984 -2.809700
v 4.875483 0.414592 -3.368990
v 4.875483 0.371696 -3.420421
v 4.875483 -0.196517 -3.471837
v 4.875483 -0.247948 -3.428941
v 4.875483 -0.298556 -2.869652
v 4.875483 -0.255661 -2.818221
v 4.875483 0.312552 -2.766805
v 4.992751 0.077791 -3.243558
v 4.993343 0.077791 -2.882736
v 4.992751 1.606639 -3.243558
v 4.993343 1.606639 -2.882736
v 5.402256 1.606639 -3.244230
v 5.402847 1.606639 -2.883408
v 5.402256 0.077791 -3.244230
v 5.402847 0.077791 -2.883408
v 0.538159 0.077791 2.780974
v 0.538751 0.077791 3.141796
v 0.538159 1.606639 2.780974
v 0.538751 1.606639 3.141796
v 0.947664 1.606639 2.780303
v 0.948256 1.606639 3.141124
v 0.947664 0.077791 2.780303
v 0.948256 0.077791 3.141124
v -3.916432 0.077791 -3.243558
v -3.915840 0.077791 -2.882736
v -3.916432 1.606639 -3.243558
v -3.915840 1.606639 -2.882736
v -3.506927 1.606639 -3.244230
v -3.506336 1.606639 -2.883408
v -3.506927 0.077791 -3.244230
v -3.506336 0.077791 -2.883408
v -3.916432 0.077791 2.780974
v -3.915840 0.077791 3.141796
v -3.916432 1.606639 2.780974
v -3.915840 1.606639 3.141796
v -3.506927 1.606639 2.780303
v -3.506336 1.606639 3.141124
v -3.506927 0.077791 2.780303
v -3.506336 0.077791 3.141124
v 4.992751 0.077791 2.780974
v 4.993343 0.077791 3.141796
v 4.992751 1.606639 2.780974
v 4.993343 1.606639 3.141796
v 5.402256 1.606639 2.780303
v 5.402847 1.606639 3.141124
v 5.402256 0.077791 2.780303
v 5.402847 0.077791 3.141124
v -8.371023 0.077791 -3.243558
v -8.370432 0.077791 -2.882736
v -8.371023 1.606639 -3.243558
v -8.370432 1.606639 -2.882736
v -7.961519 1.606639 -3.244230
v -7.960927 1.606639 -2.883408
v -7.961519 0.077791 -3.244230
v -7.960927 0.077791 -2.883408
v 9.447342 0.077791 2.780974
v 9.447934 0.077791 3.141796
v 9.447342 1.606639 2.780974
v 9.447934 1.606639 3.141796
v 9.856847 1.606639 2.780303
v 9.857439 1.606639 3.141124
v 9.856847 0.077791 2.780303
v 9.857439 0.077791 3.141124
vt 0.379249 0.162425
vt 0.403904 0.162426
vt 0.403904 0.539123
vt 0.379249 0.539124
vt 0.378863 0.560216
vt 0.294202 0.560213
vt 0.294203 0.539123
vt 0.519471 0.539123
vt 0.487805 0.539123
vt 0.487805 0.162426
vt 0.519471 0.162426
vt 0.294202 0.162427
vt 0.294202 0.141337
vt 0.378863 0.141334
vt 0.276567 0.212032
vt 0.281308 0.212032
vt 0.281308 0.268386
vt 0.276567 0.268386
vt 0.088923 0.276427
vt 0.088923 0.273064
vt 0.145149 0.273064
vt 0.145149 0.276427
vt 0.079504 0.567192
vt 0.088923 0.567192
vt 0.088923 0.894668
vt 0.079504 0.894668
vt 0.215599 0.212032
vt 0.220340 0.212032
vt 0.220341 0.268386
vt 0.215599 0.268386
vt 0.145149 0.567192
vt 0.154568 0.567192
vt 0.154568 0.894668
vt 0.145149 0.894668
vt 0.281309 0.959062
vt 0.276567 0.959062
vt 0.276567 0.902708
vt 0.281309 0.902708
vt 0.088923 0.898031
vt 0.145149 0.898031
vt 0.220341 0.959063
vt 0.215600 0.959063
vt 0.215599 0.902709
vt 0.220341 0.902709
vt 0.281308 0.894668
vt 0.276567 0.894668
vt 0.276567 0.567192
vt 0.281309 0.567192
vt 0.220341 0.894668
vt 0.210922 0.894668
vt 0.210922 0.567192
vt 0.220341 0.567192
vt 0.276567 0.276427
vt 0.220341 0.276427
vt 0.023149 0.567193
vt 0.023150 0.894669
vt 0.079504 0.276427
vt 0.154568 0.276427
vt 0.281309 0.276427
vt 0.210922 0.276427
vt 0.023149 0.276428
vt 0.276567 0.212032
vt 0.281308 0.212032
vt 0.281308 0.268386
vt 0.276567 0.268386
vt 0.088923 0.276427
vt 0.088923 0.273064
vt 0.145149 0.273064
vt 0.145149 0.276427
vt 0.079504 0.567192
vt 0.088923 0.567192
vt 0.088923 0.894668
vt 0.079504 0.894668
vt 0.215599 0.212032
vt 0.220340 0.212032
vt 0.220341 0.268386
vt 0.215599 0.268386
vt 0.145149 0.567192
vt 0.154568 0.567192
vt 0.154568 0.894668
vt 0.145149 0.894668
vt 0.281309 0.959062
vt 0.276567 0.959062
vt 0.276567 0.902708
vt 0.281309 0.902708
vt 0.088923 0.898031
vt 0.145149 0.898031
vt 0.220341 0.959063
vt 0.215600 0.959063
vt 0.215599 0.902709
vt 0.220341 0.902709
vt 0.281308 0.894668
vt 0.276567 0.894668
vt 0.276567 0.567192
vt 0.281309 0.567192
vt 0.220341 0.894668
vt 0.210922 0.894668
vt 0.210922 0.567192
vt 0.220341 0.567192
vt 0.276567 0.276427
vt 0.220341 0.276427
vt 0.023149 0.567193
vt 0.023150 0.894669
vt 0.079504 0.276427
vt 0.154568 0.276427
vt 0.281309 0.276427
vt 0.210922 0.276427
vt 0.023149 0.276428
vt 0.060113 0.047188
vt 0.088497 0.047188
vt 0.088497 0.201583
vt 0.060113 0.201583
vt 0.145264 0.229966
vt 0.116880 0.229966
vt 0.116880 0.201583
vt 0.145264 0.201583
vt 0.116880 0.047188
vt 0.145264 0.047188
vt 0.116880 0.018804
vt 0.145264 0.018804
vt 0.031730 0.047188
vt 0.031730 0.201583
vt 0.276567 0.212032
vt 0.281308 0.212032
vt 0.281308 0.268386
vt 0.276567 0.268386
vt 0.088923 0.276427
vt 0.088923 0.273064
vt 0.145149 0.273064
vt 0.145149 0.276427
vt 0.079504 0.567192
vt 0.088923 0.567192
vt 0.088923 0.894668
vt 0.079504 0.894668
vt 0.215599 0.212032
vt 0.220340 0.212032
vt 0.220341 0.268386
vt 0.215599 0.268386
vt 0.145149 0.567192
vt 0.154568 0.567192
vt 0.154568 0.894668
vt 0.145149 0.894668
vt 0.281309 0.959062
vt 0.276567 0.959062
vt 0.276567 0.902708
vt 0.281309 0.902708
vt 0.088923 0.898031
vt 0.145149 0.898031
vt 0.220341 0.959063
vt 0.215600 0.959063
vt 0.215599 0.902709
vt 0.220341 0.902709
vt 0.281308 0.894668
vt 0.276567 0.894668
vt 0.276567 0.567192
vt 0.281309 0.567192
vt 0.220341 0.894668
vt 0.210922 0.894668
vt 0.210922 0.567192
vt 0.220341 0.567192
vt 0.276567 0.276427
vt 0.220341 0.276427
vt 0.023149 0.567193
vt 0.023150 0.894669
vt 0.079504 0.276427
vt 0.154568 0.276427
vt 0.281309 0.276427
vt 0.210922 0.276427
vt 0.023149 0.276428
vt 0.379249 0.162425
vt 0.403904 0.162426
vt 0.403904 0.539123
vt 0.379249 0.539124
vt 0.378863 0.560216
vt 0.294202 0.560213
vt 0.294203 0.539123
vt 0.519471 0.539123
vt 0.487805 0.539123
vt 0.487805 0.162426
vt 0.519471 0.162426
vt 0.294202 0.162427
vt 0.294202 0.141337
vt 0.378863 0.141334
vt 0.379249 0.162425
vt 0.403904 0.162426
vt 0.403904 0.539123
vt 0.379249 0.539124
vt 0.378863 0.560216
vt 0.294202 0.560213
vt 0.294203 0.539123
vt 0.519471 0.539123
vt 0.487805 0.539123
vt 0.487805 0.162426
vt 0.519471 0.162426
vt 0.294202 0.162427
vt 0.294202 0.141337
vt 0.378863 0.141334
vt 0.060113 0.047188
vt 0.088497 0.047188
vt 0.088497 0.201583
vt 0.060113 0.201583
vt 0.145264 0.229966
vt 0.116880 0.229966
vt 0.116880 0.201583
vt 0.145264 0.201583
vt 0.116880 0.047188
vt 0.145264 0.047188
vt 0.116880 0.018804
vt 0.145264 0.018804
vt 0.031730 0.047188
vt 0.031730 0.201583
vt 0.276567 0.212032
vt 0.281308 0.212032
vt 0.281308 0.268386
vt 0.276567 0.268386
vt 0.088923 0.276427
vt 0.088923 0.273064
vt 0.145149 0.273064
vt 0.145149 0.276427
vt 0.079504 0.567192
vt 0.088923 0.567192
vt 0.088923 0.894668
vt 0.079504 0.894668
vt 0.215599 0.212032
vt 0.220340 0.212032
vt 0.220341 0.268386
vt 0.215599 0.268386
vt 0.145149 0.567192
vt 0.154568 0.567192
vt 0.154568 0.894668
vt 0.145149 0.894668
vt 0.281309 0.959062
vt 0.276567 0.959062
vt 0.276567 0.902708
vt 0.281309 0.902708
vt 0.088923 0.898031
vt 0.145149 0.898031
vt 0.220341 0.959063
vt 0.215600 0.959063
vt 0.215599 0.902709
vt 0.220341 0.902709
vt 0.281308 0.894668
vt 0.276567 0.894668
vt 0.276567 0.567192
vt 0.281309 0.567192
vt 0.220341 0.894668
vt 0.210922 0.894668
vt 0.210922 0.567192
vt 0.220341 0.567192
vt 0.276567 0.276427
vt 0.220341 0.276427
vt 0.023149 0.567193
vt 0.023150 0.894669
vt 0.079504 0.276427
vt 0.154568 0.276427
vt 0.281309 0.276427
vt 0.210922 0.276427
vt 0.023149 0.276428
vt 0.379249 0.162425
vt 0.403904 0.162426
vt 0.403904 0.539123
vt 0.379249 0.539124
vt 0.378863 0.560216
vt 0.294202 0.560213
vt 0.294203 0.539123
vt 0.519471 0.539123
vt 0.487805 0.539123
vt 0.487805 0.162426
vt 0.519471 0.162426
vt 0.294202 0.162427
vt 0.294202 0.141337
vt 0.378863 0.141334
vt 0.379249 0.162425
vt 0.403904 0.162426
vt 0.403904 0.539123
vt 0.379249 0.539124
vt 0.378863 0.560216
vt 0.294202 0.560213
vt 0.294203 0.539123
vt 0.519471 0.539123
vt 0.487805 0.539123
vt 0.487805 0.162426
vt 0.519471 0.162426
vt 0.294202 0.162427
vt 0.294202 0.141337
vt 0.378863 0.141334
vt 0.276567 0.212032
vt 0.281308 0.212032
vt 0.281308 0.268386
vt 0.276567 0.268386
vt 0.088923 0.276427
vt 0.088923 0.273064
vt 0.145149 0.273064
vt 0.145149 0.276427
vt 0.079504 0.567192
vt 0.088923 0.567192
vt 0.088923 0.894668
vt 0.079504 0.894668
vt 0.215599 0.212032
vt 0.220340 0.212032
vt 0.220341 0.268386
vt 0.215599 0.268386
vt 0.145149 0.567192
vt 0.154568 0.567192
vt 0.154568 0.894668
vt 0.145149 0.894668
vt 0.281309 0.959062
vt 0.276567 0.959062
vt 0.276567 0.902708
vt 0.281309 0.902708
vt 0.088923 0.898031
vt 0.145149 0.898031
vt 0.220341 0.959063
vt 0.215600 0.959063
vt 0.215599 0.902709
vt 0.220341 0.902709
vt 0.281308 0.894668
vt 0.276567 0.894668
vt 0.276567 0.567192
vt 0.281309 0.567192
vt 0.220341 0.894668
vt 0.210922 0.894668
vt 0.210922 0.567192
vt 0.220341 0.567192
vt 0.276567 0.276427
vt 0.220341 0.276427
vt 0.023149 0.567193
vt 0.023150 0.894669
vt 0.079504 0.276427
vt 0.154568 0.276427
vt 0.281309 0.276427
vt 0.210922 0.276427
vt 0.023149 0.276428
vt 0.276567 0.212032
vt 0.281308 0.212032
vt 0.281308 0.268386
vt 0.276567 0.268386
vt 0.088923 0.276427
vt 0.088923 0.273064
vt 0.145149 0.273064
vt 0.145149 0.276427
vt 0.079504 0.567192
vt 0.088923 0.567192
vt 0.088923 0.894668
vt 0.079504 0.894668
vt 0.215599 0.212032
vt 0.220340 0.212032
vt 0.220341 0.268386
vt 0.215599 0.268386
vt 0.145149 0.567192
vt 0.154568 0.567192
vt 0.154568 0.894668
vt 0.145149 0.894668
vt 0.281309 0.959062
vt 0.276567 0.959062
vt 0.276567 0.902708
vt 0.281309 0.902708
vt 0.088923 0.898031
vt 0.145149 0.898031
vt 0.220341 0.959063
vt 0.215600 0.959063
vt 0.215599 0.902709
vt 0.220341 0.902709
vt 0.281308 0.894668
vt 0.276567 0.894668
vt 0.276567 0.567192
vt 0.281309 0.567192
vt 0.220341 0.894668
vt 0.210922 0.894668
vt 0.210922 0.567192
vt 0.220341 0.567192
vt 0.276567 0.276427
vt 0.220341 0.276427
vt 0.023149 0.567193
vt 0.023150 0.894669
vt 0.079504 0.276427
vt 0.154568 0.276427
vt 0.281309 0.276427
vt 0.210922 0.276427
vt 0.023149 0.276428
vt 0.276567 0.212032
vt 0.281308 0.212032
vt 0.281308 0.268386
vt 0.276567 0.268386
vt 0.088923 0.276427
vt 0.088923 0.273064
vt 0.145149 0.273064
vt 0.145149 0.276427
vt 0.079504 0.567192
vt 0.088923 0.567192
vt 0.088923 0.894668
vt 0.079504 0.894668
vt 0.215599 0.212032
vt 0.220340 0.212032
vt 0.220341 0.268386
vt 0.215599 0.268386
vt 0.145149 0.567192
vt 0.154568 0.567192
vt 0.154568 0.894668
vt 0.145149 0.894668
vt 0.281309 0.959062
vt 0.276567 0.959062
vt 0.276567 0.902708
vt 0.281309 0.902708
vt 0.088923 0.898031
vt 0.145149 0.898031
vt 0.220341 0.959063
vt 0.215600 0.959063
vt 0.215599 0.902709
vt 0.220341 0.902709
vt 0.281308 0.894668
vt 0.276567 0.894668
vt 0.276567 0.567192
vt 0.281309 0.567192
vt 0.220341 0.894668
vt 0.210922 0.894668
vt 0.210922 0.567192
vt 0.220341 0.567192
vt 0.276567 0.276427
vt 0.220341 0.276427
vt 0.023149 0.567193
vt 0.023150 0.894669
vt 0.079504 0.276427
vt 0.154568 0.276427
vt 0.281309 0.276427
vt 0.210922 0.276427
vt 0.023149 0.276428
vt 0.276567 0.212032
vt 0.281308 0.212032
vt 0.281308 0.268386
vt 0.276567 0.268386
vt 0.088923 0.276427
vt 0.088923 0.273064
vt 0.145149 0.273064
vt 0.145149 0.276427
vt 0.079504 0.567192
vt 0.088923 0.567192
vt 0.088923 0.894668
vt 0.079504 0.894668
vt 0.215599 0.212032
vt 0.220340 0.212032
vt 0.220341 0.268386
vt 0.215599 0.268386
vt 0.145149 0.567192
vt 0.154568 0.567192
vt 0.154568 0.894668
vt 0.145149 0.894668
vt 0.281309 0.959062
vt 0.276567 0.959062
vt 0.276567 0.902708
vt 0.281309 0.902708
vt 0.088923 0.898031
vt 0.145149 0.898031
vt 0.220341 0.959063
vt 0.215600 0.959063
vt 0.215599 0.902709
vt 0.220341 0.902709
vt 0.281308 0.894668
vt 0.276567 0.894668
vt 0.276567 0.567192
vt 0.281309 0.567192
vt 0.220341 0.894668
vt 0.210922 0.894668
vt 0.210922 0.567192
vt 0.220341 0.567192
vt 0.276567 0.276427
vt 0.220341 0.276427
vt 0.023149 0.567193
vt 0.023150 0.894669
vt 0.079504 0.276427
vt 0.154568 0.276427
vt 0.281309 0.276427
vt 0.210922 0.276427
vt 0.023149 0.276428
vt 0.276567 0.212032
vt 0.281308 0.212032
vt 0.281308 0.268386
vt 0.276567 0.268386
vt 0.088923 0.276427
vt 0.088923 0.273064
vt 0.145149 0.273064
vt 0.145149 0.276427
vt 0.079504 0.567192
vt 0.088923 0.567192
vt 0.088923 0.894668
vt 0.079504 0.894668
vt 0.215599 0.212032
vt 0.220340 0.212032
vt 0.220341 0.268386
vt 0.215599 0.268386
vt 0.145149 0.567192
vt 0.154568 0.567192
vt 0.154568 0.894668
vt 0.145149 0.894668
vt 0.281309 0.959062
vt 0.276567 0.959062
vt 0.276567 0.902708
vt 0.281309 0.902708
vt 0.088923 0.898031
vt 0.145149 0.898031
vt 0.220341 0.959063
vt 0.215600 0.959063
vt 0.215599 0.902709
vt 0.220341 0.902709
vt 0.281308 0.894668
vt 0.276567 0.894668
vt 0.276567 0.567192
vt 0.281309 0.567192
vt 0.220341 0.894668
vt 0.210922 0.894668
vt 0.210922 0.567192
vt 0.220341 0.567192
vt 0.276567 0.276427
vt 0.220341 0.276427
vt 0.023149 0.567193
vt 0.023150 0.894669
vt 0.079504 0.276427
vt 0.154568 0.276427
vt 0.281309 0.276427
vt 0.210922 0.276427
vt 0.023149 0.276428
vt 0.379249 0.162425
vt 0.403904 0.162426
vt 0.403904 0.539123
vt 0.379249 0.539124
vt 0.378863 0.560216
vt 0.294202 0.560213
vt 0.294203 0.539123
vt 0.519471 0.539123
vt 0.487805 0.539123
vt 0.487805 0.162426
vt 0.519471 0.162426
vt 0.294202 0.162427
vt 0.294202 0.141337
vt 0.378863 0.141334
vt 0.276567 0.212032
vt 0.281308 0.212032
vt 0.281308 0.268386
vt 0.276567 0.268386
vt 0.088923 0.276427
vt 0.088923 0.273064
vt 0.145149 0.273064
vt 0.145149 0.276427
vt 0.079504 0.567192
vt 0.088923 0.567192
vt 0.088923 0.894668
vt 0.079504 0.894668
vt 0.215599 0.212032
vt 0.220340 0.212032
vt 0.220341 0.268386
vt 0.215599 0.268386
vt 0.145149 0.567192
vt 0.154568 0.567192
vt 0.154568 0.894668
vt 0.145149 0.894668
vt 0.281309 0.959062
vt 0.276567 0.959062
vt 0.276567 0.902708
vt 0.281309 0.902708
vt 0.088923 0.898031
vt 0.145149 0.898031
vt 0.220341 0.959063
vt 0.215600 0.959063
vt 0.215599 0.902709
vt 0.220341 0.902709
vt 0.281308 0.894668
vt 0.276567 0.894668
vt 0.276567 0.567192
vt 0.281309 0.567192
vt 0.220341 0.894668
vt 0.210922 0.894668
vt 0.210922 0.567192
vt 0.220341 0.567192
vt 0.276567 0.276427
vt 0.220341 0.276427
vt 0.023149 0.567193
vt 0.023150 0.894669
vt 0.079504 0.276427
vt 0.154568 0.276427
vt 0.281309 0.276427
vt 0.210922 0.276427
vt 0.023149 0.276428
vt 0.379249 0.162425
vt 0.403904 0.162426
vt 0.403904 0.539123
vt 0.379249 0.539124
vt 0.378863 0.560216
vt 0.294202 0.560213
vt 0.294203 0.539123
vt 0.519471 0.539123
vt 0.487805 0.539123
vt 0.487805 0.162426
vt 0.519471 0.162426
vt 0.294202 0.162427
vt 0.294202 0.141337
vt 0.378863 0.141334
vt 0.379249 0.162425
vt 0.403904 0.162426
vt 0.403904 0.539123
vt 0.379249 0.539124
vt 0.378863 0.560216
vt 0.294202 0.560213
vt 0.294203 0.539123
vt 0.519471 0.539123
vt 0.487805 0.539123
vt 0.487805 0.162426
vt 0.519471 0.162426
vt 0.294202 0.162427
vt 0.294202 0.141337
vt 0.378863 0.141334
vt 0.060113 0.047188
vt 0.088497 0.047188
vt 0.088497 0.201583
vt 0.060113 0.201583
vt 0.145264 0.229966
vt 0.116880 0.229966
vt 0.116880 0.201583
vt 0.145264 0.201583
vt 0.116880 0.047188
vt 0.145264 0.047188
vt 0.116880 0.018804
vt 0.145264 0.018804
vt 0.031730 0.047188
vt 0.031730 0.201583
vt 0.379249 0.162425
vt 0.403904 0.162426
vt 0.403904 0.539123
vt 0.379249 0.539124
vt 0.378863 0.560216
vt 0.294202 0.560213
vt 0.294203 0.539123
vt 0.519471 0.539123
vt 0.487805 0.539123
vt 0.487805 0.162426
vt 0.519471 0.162426
vt 0.294202 0.162427
vt 0.294202 0.141337
vt 0.378863 0.141334
vt 0.276567 0.212032
vt 0.281308 0.212032
vt 0.281308 0.268386
vt 0.276567 0.268386
vt 0.088923 0.276427
vt 0.088923 0.273064
vt 0.145149 0.273064
vt 0.145149 0.276427
vt 0.079504 0.567192
vt 0.088923 0.567192
vt 0.088923 0.894668
vt 0.079504 0.894668
vt 0.215599 0.212032
vt 0.220340 0.212032
vt 0.220341 0.268386
vt 0.215599 0.268386
vt 0.145149 0.567192
vt 0.154568 0.567192
vt 0.154568 0.894668
vt 0.145149 0.894668
vt 0.281309 0.959062
vt 0.276567 0.959062
vt 0.276567 0.902708
vt 0.281309 0.902708
vt 0.088923 0.898031
vt 0.145149 0.898031
vt 0.220341 0.959063
vt 0.215600 0.959063
vt 0.215599 0.902709
vt 0.220341 0.902709
vt 0.281308 0.894668
vt 0.276567 0.894668
vt 0.276567 0.567192
vt 0.281309 0.567192
vt 0.220341 0.894668
vt 0.210922 0.894668
vt 0.210922 0.567192
vt 0.220341 0.567192
vt 0.276567 0.276427
vt 0.220341 0.276427
vt 0.023149 0.567193
vt 0.023150 0.894669
vt 0.079504 0.276427
vt 0.154568 0.276427
vt 0.281309 0.276427
vt 0.210922 0.276427
vt 0.023149 0.276428
vt 0.379249 0.162425
vt 0.403904 0.162426
vt 0.403904 0.539123
vt 0.379249 0.539124
vt 0.378863 0.560216
vt 0.294202 0.560213
vt 0.294203 0.539123
vt 0.519471 0.539123
vt 0.487805 0.539123
vt 0.487805 0.162426
vt 0.519471 0.162426
vt 0.294202 0.162427
vt 0.294202 0.141337
vt 0.378863 0.141334
vt 0.379249 0.162425
vt 0.403904 0.162426
vt 0.403904 0.539123
vt 0.379249 0.539124
vt 0.378863 0.560216
vt 0.294202 0.560213
vt 0.294203 0.539123
vt 0.519471 0.539123
vt 0.487805 0.539123
vt 0.487805 0.162426
vt 0.519471 0.162426
vt 0.294202 0.162427
vt 0.294202 0.141337
vt 0.378863 0.141334
vt 0.379249 0.162425
vt 0.403904 0.162426
vt 0.403904 0.539123
vt 0.379249 0.539124
vt 0.378863 0.560216
vt 0.294202 0.560213
vt 0.294203 0.539123
vt 0.519471 0.539123
vt 0.487805 0.539123
vt 0.487805 0.162426
vt 0.519471 0.162426
vt 0.294202 0.162427
vt 0.294202 0.141337
vt 0.378863 0.141334
vt 0.276567 0.212032
vt 0.281308 0.212032
vt 0.281308 0.268386
vt 0.276567 0.268386
vt 0.088923 0.276427
vt 0.088923 0.273064
vt 0.145149 0.273064
vt 0.145149 0.276427
vt 0.079504 0.567192
vt 0.088923 0.567192
vt 0.088923 0.894668
vt 0.079504 0.894668
vt 0.215599 0.212032
vt 0.220340 0.212032
vt 0.220341 0.268386
vt 0.215599 0.268386
vt 0.145149 0.567192
vt 0.154568 0.567192
vt 0.154568 0.894668
vt 0.145149 0.894668
vt 0.281309 0.959062
vt 0.276567 0.959062
vt 0.276567 0.902708
vt 0.281309 0.902708
vt 0.088923 0.898031
vt 0.145149 0.898031
vt 0.220341 0.959063
vt 0.215600 0.959063
vt 0.215599 0.902709
vt 0.220341 0.902709
vt 0.281308 0.894668
vt 0.276567 0.894668
vt 0.276567 0.567192
vt 0.281309 0.567192
vt 0.220341 0.894668
vt 0.210922 0.894668
vt 0.210922 0.567192
vt 0.220341 0.567192
vt 0.276567 0.276427
vt 0.220341 0.276427
vt 0.023149 0.567193
vt 0.023150 0.894669
vt 0.079504 0.276427
vt 0.154568 0.276427
vt 0.281309 0.276427
vt 0.210922 0.276427
vt 0.023149 0.276428
vt 0.060113 0.047188
vt 0.088497 0.047188
vt 0.088497 0.201583
vt 0.060113 0.201583
vt 0.145264 0.229966
vt 0.116880 0.229966
vt 0.116880 0.201583
vt 0.145264 0.201583
vt 0.116880 0.047188
vt 0.145264 0.047188
vt 0.116880 0.018804
vt 0.145264 0.018804
vt 0.031730 0.047188
vt 0.031730 0.201583
vt 0.060113 0.047188
vt 0.088497 0.047188
vt 0.088497 0.201583
vt 0.060113 0.201583
vt 0.145264 0.229966
vt 0.116880 0.229966
vt 0.116880 0.201583
vt 0.145264 0.201583
vt 0.116880 0.047188
vt 0.145264 0.047188
vt 0.116880 0.018804
vt 0.145264 0.018804
vt 0.031730 0.047188
vt 0.031730 0.201583
vt 0.060113 0.047188
vt 0.088497 0.047188
vt 0.088497 0.201583
vt 0.060113 0.201583
vt 0.145264 0.229966
vt 0.116880 0.229966
vt 0.116880 0.201583
vt 0.145264 0.201583
vt 0.116880 0.047188
vt 0.145264 0.047188
vt 0.116880 0.018804
vt 0.145264 0.018804
vt 0.031730 0.047188
vt 0.031730 0.201583
vt 0.060113 0.047188
vt 0.088497 0.047188
vt 0.088497 0.201583
vt 0.060113 0.201583
vt 0.145264 0.229966
vt 0.116880 0.229966
vt 0.116880 0.201583
vt 0.145264 0.201583
vt 0.116880 0.047188
vt 0.145264 0.047188
vt 0.116880 0.018804
vt 0.145264 0.018804
vt 0.031730 0.047188
vt 0.031730 0.201583
vt 0.060113 0.047188
vt 0.088497 0.047188
vt 0.088497 0.201583
vt 0.060113 0.201583
vt 0.145264 0.229966
vt 0.116880 0.229966
vt 0.116880 0.201583
vt 0.145264 0.201583
vt 0.116880 0.047188
vt 0.145264 0.047188
vt 0.116880 0.018804
vt 0.145264 0.018804
vt 0.031730 0.047188
vt 0.031730 0.201583
vt 0.060113 0.047188
vt 0.088497 0.047188
vt 0.088497 0.201583
vt 0.060113 0.201583
vt 0.145264 0.229966
vt 0.116880 0.229966
vt 0.116880 0.201583
vt 0.145264 0.201583
vt 0.116880 0.047188
vt 0.145264 0.047188
vt 0.116880 0.018804
vt 0.145264 0.018804
vt 0.031730 0.047188
vt 0.031730 0.201583
vt 0.060113 0.047188
vt 0.088497 0.047188
vt 0.088497 0.201583
vt 0.060113 0.201583
vt 0.145264 0.229966
vt 0.116880 0.229966
vt 0.116880 0.201583
vt 0.145264 0.201583
vt 0.116880 0.047188
vt 0.145264 0.047188
vt 0.116880 0.018804
vt 0.145264 0.018804
vt 0.031730 0.047188
vt 0.031730 0.201583
vn 0.999533 0.028256 0.011607
vn 0.999533 0.028256 0.011607
vn 0.999533 0.028256 0.011607
vn 0.999533 0.028256 0.011607
vn -0.011663 0.001808 0.999930
vn -0.011663 0.001808 0.999930
vn -0.011663 0.001808 0.999930
vn -0.011663 0.001808 0.999930
vn -0.999533 -0.028255 -0.011607
vn -0.999533 -0.028255 -0.011607
vn -0.999533 -0.028255 -0.011607
vn -0.999533 -0.028255 -0.011607
vn 0.011663 -0.001809 -0.999930
vn 0.011663 -0.001809 -0.999930
vn 0.011663 -0.001809 -0.999930
vn 0.011663 -0.001809 -0.999930
vn -0.028231 0.999599 -0.002137
vn -0.028231 0.999599 -0.002137
vn -0.028231 0.999599 -0.002137
vn -0.028231 0.999599 -0.002137
vn 0.028231 -0.999599 0.002137
vn 0.028231 -0.999599 0.002137
vn 0.028231 -0.999599 0.002137
vn 0.028231 -0.999599 0.002137
vn 0.994637 -0.073693 0.072567
vn 0.002505 -0.997092 0.076170
vn 0.002505 -0.997092 -0.076170
vn 0.994637 -0.073693 -0.072567
vn 0.002402 -0.077274 0.997007
vn 0.994637 0.073693 0.072567
vn 0.002402 0.077274 0.997007
vn 0.000003 -0.997096 0.076154
vn 0.000003 -0.077279 0.997010
vn -0.002861 -0.077225 0.997010
vn -0.002983 -0.997094 0.076123
vn 0.002505 0.997092 0.076170
vn 0.994637 0.073693 -0.072567
vn 0.002505 0.997092 -0.076170
vn 0.000003 0.077279 0.997010
vn 0.000003 0.997096 0.076153
vn -0.002983 0.997094 0.076123
vn -0.002861 0.077225 0.997010
vn -0.994637 -0.073694 0.072568
vn -0.994637 -0.073694 -0.072568
vn -0.002983 -0.997094 -0.076123
vn -0.994637 0.073694 0.072568
vn -0.002983 0.997094 -0.076123
vn -0.994637 0.073694 -0.072568
vn -0.002861 -0.077224 -0.997010
vn 0.000003 -0.077279 -0.997010
vn 0.000003 -0.997096 -0.076154
vn -0.002861 0.077224 -0.997010
vn 0.000003 0.997096 -0.076153
vn 0.000003 0.077279 -0.997010
vn 0.002402 -0.077274 -0.997007
vn 0.002402 0.077274 -0.997007
vn 0.994637 0.065631 0.079932
vn 0.002505 -0.013997 0.999899
vn 0.002505 -0.165717 0.986170
vn 0.994637 -0.078913 0.066853
vn 0.002402 0.985986 0.166809
vn 0.994637 0.078913 -0.066853
vn 0.002402 0.999914 0.012889
vn 0.000003 -0.014014 0.999902
vn 0.000003 0.985988 0.166814
vn -0.002861 0.985993 0.166760
vn -0.002983 -0.014044 0.999897
vn 0.002505 0.165717 -0.986170
vn 0.994637 -0.065631 -0.079932
vn 0.002505 0.013997 -0.999899
vn 0.000003 0.999917 0.012884
vn 0.000003 0.165701 -0.986176
vn -0.002983 0.165670 -0.986177
vn -0.002861 0.999912 0.012939
vn -0.994637 0.065631 0.079933
vn -0.994637 -0.078913 0.066854
vn -0.002983 -0.165670 0.986177
vn -0.994637 0.078913 -0.066854
vn -0.002983 0.014044 -0.999897
vn -0.994637 -0.065631 -0.079933
vn -0.002861 -0.999912 -0.012939
vn 0.000003 -0.999917 -0.012885
vn 0.000003 -0.165701 0.986176
vn -0.002861 -0.985994 -0.166759
vn 0.000003 0.014014 -0.999902
vn 0.000003 -0.985988 -0.166814
vn 0.002402 -0.999914 -0.012890
vn 0.002402 -0.985986 -0.166808
vn -0.999999 0.000000 0.001640
vn -0.999999 0.000000 0.001640
vn -0.999999 0.000000 0.001640
vn -0.999999 0.000000 0.001640
vn 0.000000 1.000000 -0.000000
vn 0.000000 1.000000 -0.000000
vn 0.000000 1.000000 -0.000000
vn 0.000000 1.000000 -0.000000
vn 0.999999 0.000000 -0.001641
vn 0.999999 0.000000 -0.001641
vn 0.999999 0.000000 -0.001641
vn 0.999999 0.000000 -0.001641
vn 0.000000 -1.000000 0.000000
vn 0.000000 -1.000000 0.000000
vn 0.000000 -1.000000 0.000000
vn 0.000000 -1.000000 0.000000
vn 0.001641 0.000000 0.999999
vn 0.001641 0.000000 0.999999
vn 0.001641 0.000000 0.999999
vn 0.001641 0.000000 0.999999
vn -0.001640 0.000000 -0.999999
vn -0.001640 0.000000 -0.999999
vn -0.001640 0.000000 -0.999999
vn -0.001640 0.000000 -0.999999
vn 0.994637 0.065630 0.079932
vn 0.002505 -0.013997 0.999899
vn 0.002505 -0.165717 0.986170
vn 0.994637 -0.078913 0.066853
vn 0.002402 0.985986 0.166809
vn 0.994637 0.078913 -0.066853
vn 0.002402 0.999914 0.012889
vn 0.000003 -0.014014 0.999902
vn 0.000003 0.985988 0.166814
vn -0.002861 0.985993 0.166760
vn -0.002983 -0.014044 0.999897
vn 0.002505 0.165717 -0.986170
vn 0.994637 -0.065631 -0.079932
vn 0.002505 0.013997 -0.999899
vn 0.000003 0.999917 0.012884
vn 0.000003 0.165701 -0.986176
vn -0.002983 0.165670 -0.986177
vn -0.002861 0.999912 0.012939
vn -0.994637 0.065631 0.079933
vn -0.994637 -0.078913 0.066854
vn -0.002983 -0.165670 0.986177
vn -0.994637 0.078913 -0.066854
vn -0.002983 0.014044 -0.999897
vn -0.994637 -0.065631 -0.079933
vn -0.002861 -0.999912 -0.012939
vn 0.000003 -0.999917 -0.012885
vn 0.000003 -0.165701 0.986176
vn -0.002861 -0.985994 -0.166759
vn 0.000003 0.014014 -0.999902
vn 0.000003 -0.985988 -0.166814
vn 0.002402 -0.999914 -0.012890
vn 0.002402 -0.985986 -0.166808
vn -0.999409 0.028256 0.019574
vn -0.999409 0.028256 0.019574
vn -0.999409 0.028256 0.019574
vn -0.999409 0.028256 0.019574
vn -0.019531 0.001808 -0.999808
vn -0.019531 0.001808 -0.999808
vn -0.019531 0.001808 -0.999808
vn -0.019531 0.001808 -0.999808
vn 0.999409 -0.028256 -0.019574
vn 0.999409 -0.028256 -0.019574
vn 0.999409 -0.028256 -0.019574
vn 0.999409 -0.028256 -0.019574
vn 0.019531 -0.001809 0.999808
vn 0.019531 -0.001809 0.999808
vn 0.019531 -0.001809 0.999808
vn 0.019531 -0.001809 0.999808
vn 0.028284 0.999599 0.001255
vn 0.028284 0.999599 0.001255
vn 0.028284 0.999599 0.001255
vn 0.028284 0.999599 0.001255
vn -0.028284 -0.999599 -0.001255
vn -0.028284 -0.999599 -0.001255
vn -0.028284 -0.999599 -0.001255
vn -0.028284 -0.999599 -0.001255
vn 0.999594 -0.027624 0.006942
vn 0.999594 -0.027624 0.006942
vn 0.999594 -0.027624 0.006942
vn 0.999594 -0.027624 0.006942
vn 0.006704 -0.008721 -0.999940
vn 0.006704 -0.008721 -0.999940
vn 0.006704 -0.008721 -0.999940
vn 0.006704 -0.008721 -0.999940
vn -0.999594 0.027622 -0.006942
vn -0.999594 0.027622 -0.006942
vn -0.999594 0.027622 -0.006942
vn -0.999594 0.027622 -0.006942
vn -0.006704 0.008721 0.999940
vn -0.006704 0.008721 0.999940
vn -0.006704 0.008721 0.999940
vn -0.006704 0.008721 0.999940
vn -0.027679 -0.999581 0.008533
vn -0.027679 -0.999581 0.008533
vn -0.027679 -0.999581 0.008533
vn -0.027679 -0.999581 0.008533
vn 0.027679 0.999581 -0.008533
vn 0.027679 0.999581 -0.008533
vn 0.027679 0.999581 -0.008533
vn 0.027679 0.999581 -0.008533
vn -0.999999 0.000000 0.001639
vn -0.999999 0.000000 0.001639
vn -0.999999 0.000000 0.001639
vn -0.999999 0.000000 0.001639
vn 0.000000 1.000000 0.000000
vn 0.000000 1.000000 0.000000
vn 0.000000 1.000000 0.000000
vn 0.000000 1.000000 0.000000
vn 0.999999 0.000000 -0.001640
vn 0.999999 0.000000 -0.001640
vn 0.999999 0.000000 -0.001640
vn 0.999999 0.000000 -0.001640
vn 0.000000 -1.000000 0.000000
vn 0.000000 -1.000000 0.000000
vn 0.000000 -1.000000 0.000000
vn 0.000000 -1.000000 0.000000
vn 0.001640 0.000000 0.999999
vn 0.001640 0.000000 0.999999
vn 0.001640 0.000000 0.999999
vn 0.001640 0.000000 0.999999
vn -0.001640 0.000000 -0.999999
vn -0.001640 0.000000 -0.999999
vn -0.001640 0.000000 -0.999999
vn -0.001640 0.000000 -0.999999
vn 0.994637 -0.073693 0.072567
vn 0.002505 -0.997092 0.076170
vn 0.002505 -0.997092 -0.076170
vn 0.994637 -0.073693 -0.072567
vn 0.002402 -0.077274 0.997007
vn 0.994637 0.073693 0.072567
vn 0.002402 0.077274 0.997007
vn 0.000003 -0.997096 0.076154
vn 0.000003 -0.077279 0.997010
vn -0.002861 -0.077225 0.997010
vn -0.002983 -0.997094 0.076123
vn 0.002505 0.997092 0.076170
vn 0.994637 0.073693 -0.072567
vn 0.002505 0.997092 -0.076170
vn 0.000003 0.077279 0.997010
vn 0.000003 0.997096 0.076153
vn -0.002983 0.997094 0.076123
vn -0.002861 0.077225 0.997010
vn -0.994637 -0.073694 0.072568
vn -0.994637 -0.073694 -0.072568
vn -0.002983 -0.997094 -0.076123
vn -0.994637 0.073694 0.072568
vn -0.002983 0.997094 -0.076123
vn -0.994637 0.073694 -0.072568
vn -0.002861 -0.077224 -0.997010
vn 0.000003 -0.077279 -0.997010
vn 0.000003 -0.997096 -0.076154
vn -0.002861 0.077224 -0.997010
vn 0.000003 0.997096 -0.076153
vn 0.000003 0.077279 -0.997010
vn 0.002402 -0.077274 -0.997007
vn 0.002402 0.077274 -0.997007
vn -0.999460 0.028255 0.016769
vn -0.999460 0.028255 0.016769
vn -0.999460 0.028255 0.016769
vn -0.999460 0.028255 0.016769
vn -0.016724 0.001808 -0.999859
vn -0.016724 0.001808 -0.999858
vn -0.016724 0.001808 -0.999859
vn -0.016724 0.001808 -0.999859
vn 0.999460 -0.028255 -0.016769
vn 0.999460 -0.028255 -0.016769
vn 0.999460 -0.028255 -0.016769
vn 0.999460 -0.028255 -0.016769
vn 0.016724 -0.001808 0.999859
vn 0.016724 -0.001808 0.999859
vn 0.016724 -0.001808 0.999859
vn 0.016724 -0.001808 0.999859
vn 0.028280 0.999599 0.001335
vn 0.028280 0.999599 0.001335
vn 0.028280 0.999599 0.001335
vn 0.028280 0.999599 0.001335
vn -0.028280 -0.999599 -0.001335
vn -0.028280 -0.999599 -0.001335
vn -0.028280 -0.999599 -0.001335
vn -0.028280 -0.999599 -0.001335
vn 0.999594 -0.027621 0.006942
vn 0.999594 -0.027621 0.006942
vn 0.999594 -0.027621 0.006942
vn 0.999594 -0.027621 0.006942
vn 0.006704 -0.008721 -0.999940
vn 0.006704 -0.008721 -0.999940
vn 0.006704 -0.008721 -0.999940
vn 0.006704 -0.008721 -0.999940
vn -0.999594 0.027623 -0.006942
vn -0.999594 0.027623 -0.006942
vn -0.999594 0.027623 -0.006942
vn -0.999594 0.027623 -0.006942
vn -0.006704 0.008721 0.999940
vn -0.006704 0.008721 0.999940
vn -0.006704 0.008721 0.999940
vn -0.006704 0.008721 0.999940
vn -0.027679 -0.999581 0.008533
vn -0.027679 -0.999581 0.008533
vn -0.027679 -0.999581 0.008533
vn -0.027679 -0.999581 0.008533
vn 0.027679 0.999581 -0.008533
vn 0.027679 0.999581 -0.008533
vn 0.027679 0.999581 -0.008533
vn 0.027679 0.999581 -0.008533
vn -0.857544 0.509267 0.072566
vn 0.442149 0.893702 0.076170
vn 0.442149 0.893701 -0.076170
vn -0.857544 0.509267 -0.072566
vn 0.032289 0.070246 0.997007
vn -0.923232 0.377329 0.072567
vn -0.036591 -0.068104 0.997007
vn 0.444391 0.892590 0.076153
vn 0.034440 0.069181 0.997010
vn 0.036979 0.067856 0.997010
vn 0.447063 0.891258 0.076123
vn -0.446634 -0.891469 0.076170
vn -0.923232 0.377329 -0.072567
vn -0.446634 -0.891469 -0.076169
vn -0.034445 -0.069179 0.997010
vn -0.444396 -0.892588 0.076153
vn -0.441722 -0.893917 0.076123
vn -0.031857 -0.070406 0.997010
vn 0.923232 -0.377328 0.072567
vn 0.923232 -0.377328 -0.072567
vn 0.447063 0.891257 -0.076123
vn 0.857544 -0.509266 0.072567
vn -0.441722 -0.893917 -0.076123
vn 0.857544 -0.509266 -0.072567
vn 0.036980 0.067855 -0.997010
vn 0.034440 0.069180 -0.997010
vn 0.444391 0.892590 -0.076153
vn -0.031857 -0.070406 -0.997010
vn -0.444396 -0.892588 -0.076153
vn -0.034445 -0.069178 -0.997010
vn 0.032290 0.070245 -0.997007
vn -0.036590 -0.068104 -0.997007
vn -0.857544 0.509267 0.072566
vn 0.442149 0.893702 0.076170
vn 0.442149 0.893702 -0.076170
vn -0.857544 0.509267 -0.072566
vn 0.032290 0.070246 0.997007
vn -0.923232 0.377329 0.072567
vn -0.036591 -0.068104 0.997007
vn 0.444391 0.892590 0.076153
vn 0.034440 0.069181 0.997010
vn 0.036979 0.067856 0.997010
vn 0.447063 0.891258 0.076123
vn -0.446634 -0.891469 0.076170
vn -0.923232 0.377329 -0.072567
vn -0.446634 -0.891469 -0.076170
vn -0.034445 -0.069178 0.997010
vn -0.444396 -0.892588 0.076153
vn -0.441722 -0.893917 0.076123
vn -0.031857 -0.070406 0.997010
vn 0.923232 -0.377328 0.072567
vn 0.923232 -0.377328 -0.072567
vn 0.447063 0.891258 -0.076123
vn 0.857544 -0.509266 0.072567
vn -0.441722 -0.893917 -0.076123
vn 0.857544 -0.509266 -0.072567
vn 0.036979 0.067855 -0.997010
vn 0.034440 0.069180 -0.997010
vn 0.444391 0.892590 -0.076153
vn -0.031857 -0.070406 -0.997010
vn -0.444396 -0.892588 -0.076153
vn -0.034444 -0.069178 -0.997010
vn 0.032289 0.070245 -0.997007
vn -0.036590 -0.068104 -0.997007
vn 0.932508 0.353785 0.072567
vn 0.423874 -0.902513 0.076170
vn 0.423874 -0.902513 -0.076170
vn 0.932508 0.353785 -0.072567
vn 0.034851 -0.069011 0.997007
vn 0.870188 0.487348 0.072567
vn -0.030497 0.071043 0.997007
vn 0.421608 -0.903575 0.076153
vn 0.032679 -0.070030 0.997010
vn 0.030060 -0.071192 0.997010
vn 0.418901 -0.904835 0.076123
vn -0.419334 0.904631 0.076169
vn 0.870188 0.487348 -0.072567
vn -0.419334 0.904631 -0.076169
vn -0.032674 0.070032 0.997010
vn -0.421603 0.903577 0.076153
vn -0.424308 0.902312 0.076124
vn -0.035246 0.068772 0.997010
vn -0.870188 -0.487347 0.072566
vn -0.870188 -0.487347 -0.072566
vn 0.418902 -0.904835 -0.076123
vn -0.932508 -0.353785 0.072566
vn -0.424309 0.902312 -0.076124
vn -0.932508 -0.353785 -0.072566
vn 0.030060 -0.071191 -0.997010
vn 0.032679 -0.070029 -0.997010
vn 0.421608 -0.903575 -0.076153
vn -0.035246 0.068771 -0.997010
vn -0.421604 0.903577 -0.076153
vn -0.032674 0.070032 -0.997010
vn 0.034851 -0.069010 -0.997007
vn -0.030497 0.071042 -0.997007
vn 0.932508 0.353785 0.072567
vn 0.423874 -0.902513 0.076170
vn 0.423874 -0.902513 -0.076170
vn 0.932508 0.353785 -0.072567
vn 0.034851 -0.069011 0.997007
vn 0.870188 0.487347 0.072567
vn -0.030497 0.071043 0.997007
vn 0.421608 -0.903575 0.076153
vn 0.032679 -0.070030 0.997010
vn 0.030060 -0.071192 0.997010
vn 0.418901 -0.904835 0.076123
vn -0.419334 0.904631 0.076169
vn 0.870188 0.487348 -0.072567
vn -0.419334 0.904631 -0.076169
vn -0.032674 0.070032 0.997010
vn -0.421603 0.903577 0.076153
vn -0.424308 0.902312 0.076123
vn -0.035246 0.068772 0.997010
vn -0.870188 -0.487347 0.072567
vn -0.870188 -0.487347 -0.072567
vn 0.418902 -0.904835 -0.076123
vn -0.932508 -0.353785 0.072567
vn -0.424308 0.902312 -0.076123
vn -0.932508 -0.353785 -0.072567
vn 0.030060 -0.071191 -0.997010
vn 0.032679 -0.070029 -0.997010
vn 0.421608 -0.903575 -0.076153
vn -0.035246 0.068771 -0.997010
vn -0.421603 0.903577 -0.076153
vn -0.032674 0.070032 -0.997010
vn 0.034851 -0.069010 -0.997007
vn -0.030497 0.071042 -0.997007
vn 0.994637 0.065631 0.079932
vn 0.002505 -0.013997 0.999899
vn 0.002505 -0.165717 0.986170
vn 0.994637 -0.078913 0.066853
vn 0.002402 0.985986 0.166809
vn 0.994637 0.078913 -0.066853
vn 0.002402 0.999914 0.012889
vn 0.000003 -0.014014 0.999902
vn 0.000003 0.985988 0.166814
vn -0.002861 0.985993 0.166760
vn -0.002983 -0.014044 0.999897
vn 0.002505 0.165717 -0.986170
vn 0.994637 -0.065631 -0.079932
vn 0.002505 0.013997 -0.999899
vn 0.000003 0.999917 0.012884
vn 0.000003 0.165701 -0.986176
vn -0.002983 0.165670 -0.986177
vn -0.002861 0.999912 0.012939
vn -0.994637 0.065631 0.079933
vn -0.994637 -0.078913 0.066854
vn -0.002983 -0.165670 0.986177
vn -0.994637 0.078913 -0.066854
vn -0.002983 0.014044 -0.999897
vn -0.994637 -0.065631 -0.079933
vn -0.002861 -0.999912 -0.012939
vn 0.000003 -0.999917 -0.012885
vn 0.000003 -0.165701 0.986176
vn -0.002861 -0.985994 -0.166759
vn 0.000003 0.014014 -0.999902
vn 0.000003 -0.985988 -0.166814
vn 0.002402 -0.999914 -0.012890
vn 0.002402 -0.985986 -0.166808
vn -0.998487 -0.029164 -0.046617
vn -0.998487 -0.029164 -0.046617
vn -0.998487 -0.029164 -0.046617
vn -0.998487 -0.029164 -0.046617
vn -0.046784 0.005074 0.998892
vn -0.046783 0.005074 0.998892
vn -0.046784 0.005074 0.998892
vn -0.046784 0.005074 0.998892
vn 0.998487 0.029164 0.046617
vn 0.998487 0.029164 0.046617
vn 0.998487 0.029164 0.046617
vn 0.998487 0.029164 0.046617
vn 0.046784 -0.005074 -0.998892
vn 0.046784 -0.005074 -0.998892
vn 0.046784 -0.005074 -0.998892
vn 0.046784 -0.005074 -0.998892
vn 0.028894 -0.999562 0.006431
vn 0.028894 -0.999562 0.006431
vn 0.028894 -0.999562 0.006431
vn 0.028894 -0.999562 0.006431
vn -0.028894 0.999562 -0.006431
vn -0.028894 0.999562 -0.006431
vn -0.028894 0.999562 -0.006431
vn -0.028894 0.999562 -0.006431
vn 0.994637 -0.073693 0.072567
vn 0.002505 -0.997092 0.076170
vn 0.002505 -0.997092 -0.076170
vn 0.994637 -0.073693 -0.072567
vn 0.002402 -0.077274 0.997007
vn 0.994637 0.073693 0.072567
vn 0.002402 0.077274 0.997007
vn 0.000003 -0.997096 0.076153
vn 0.000003 -0.077279 0.997010
vn -0.002861 -0.077225 0.997010
vn -0.002983 -0.997094 0.076123
vn 0.002505 0.997092 0.076170
vn 0.994637 0.073693 -0.072567
vn 0.002505 0.997092 -0.076170
vn 0.000003 0.077279 0.997010
vn 0.000003 0.997096 0.076153
vn -0.002983 0.997094 0.076123
vn -0.002861 0.077225 0.997010
vn -0.994637 -0.073694 0.072568
vn -0.994637 -0.073694 -0.072568
vn -0.002983 -0.997094 -0.076123
vn -0.994637 0.073694 0.072568
vn -0.002983 0.997094 -0.076123
vn -0.994637 0.073694 -0.072568
vn -0.002861 -0.077224 -0.997010
vn 0.000003 -0.077279 -0.997010
vn 0.000003 -0.997096 -0.076153
vn -0.002861 0.077224 -0.997010
vn 0.000003 0.997096 -0.076153
vn 0.000003 0.077279 -0.997010
vn 0.002402 -0.077274 -0.997007
vn 0.002402 0.077274 -0.997007
vn 0.999594 -0.027622 0.006942
vn 0.999594 -0.027622 0.006942
vn 0.999594 -0.027622 0.006942
vn 0.999594 -0.027622 0.006942
vn 0.006704 -0.008721 -0.999940
vn 0.006704 -0.008721 -0.999940
vn 0.006704 -0.008721 -0.999940
vn 0.006704 -0.008721 -0.999940
vn -0.999594 0.027621 -0.006942
vn -0.999594 0.027621 -0.006942
vn -0.999594 0.027621 -0.006942
vn -0.999594 0.027621 -0.006942
vn -0.006704 0.008721 0.999940
vn -0.006704 0.008721 0.999940
vn -0.006704 0.008721 0.999940
vn -0.006704 0.008721 0.999940
vn -0.027679 -0.999581 0.008533
vn -0.027679 -0.999581 0.008533
vn -0.027679 -0.999581 0.008533
vn -0.027679 -0.999581 0.008533
vn 0.027679 0.999581 -0.008533
vn 0.027679 0.999581 -0.008533
vn 0.027679 0.999581 -0.008533
vn 0.027679 0.999581 -0.008533
vn -0.998487 -0.029164 -0.046617
vn -0.998487 -0.029164 -0.046617
vn -0.998487 -0.029164 -0.046617
vn -0.998487 -0.029164 -0.046617
vn -0.046784 0.005074 0.998892
vn -0.046784 0.005074 0.998892
vn -0.046784 0.005074 0.998892
vn -0.046784 0.005074 0.998892
vn 0.998487 0.029164 0.046617
vn 0.998487 0.029164 0.046617
vn 0.998487 0.029164 0.046617
vn 0.998487 0.029164 0.046617
vn 0.046784 -0.005074 -0.998892
vn 0.046784 -0.005074 -0.998892
vn 0.046784 -0.005074 -0.998892
vn 0.046784 -0.005074 -0.998892
vn 0.028894 -0.999562 0.006431
vn 0.028894 -0.999562 0.006431
vn 0.028894 -0.999562 0.006431
vn 0.028894 -0.999562 0.006431
vn -0.028894 0.999562 -0.006431
vn -0.028894 0.999562 -0.006431
vn -0.028894 0.999562 -0.006431
vn -0.028894 0.999562 -0.006431
vn -0.999999 0.000000 0.001641
vn -0.999999 0.000000 0.001641
vn -0.999999 0.000000 0.001641
vn -0.999999 0.000000 0.001641
vn 0.000000 1.000000 0.000000
vn 0.000000 1.000000 0.000000
vn 0.000000 1.000000 0.000000
vn 0.000000 1.000000 0.000000
vn 0.999999 0.000000 -0.001641
vn 0.999999 0.000000 -0.001641
vn 0.999999 0.000000 -0.001641
vn 0.999999 0.000000 -0.001641
vn 0.000000 -1.000000 0.000000
vn 0.000000 -1.000000 0.000000
vn 0.000000 -1.000000 0.000000
vn 0.000000 -1.000000 0.000000
vn 0.001641 0.000000 0.999999
vn 0.001641 0.000000 0.999999
vn 0.001641 0.000000 0.999999
vn 0.001641 0.000000 0.999999
vn -0.001640 0.000000 -0.999999
vn -0.001640 0.000000 -0.999999
vn -0.001640 0.000000 -0.999999
vn -0.001640 0.000000 -0.999999
vn -0.998487 -0.029162 -0.046617
vn -0.998487 -0.029162 -0.046617
vn -0.998487 -0.029162 -0.046617
vn -0.998487 -0.029162 -0.046617
vn -0.046784 0.005074 0.998892
vn -0.046784 0.005074 0.998892
vn -0.046784 0.005074 0.998892
vn -0.046784 0.005074 0.998892
vn 0.998487 0.029166 0.046617
vn 0.998487 0.029166 0.046617
vn 0.998487 0.029166 0.046617
vn 0.998487 0.029166 0.046617
vn 0.046784 -0.005074 -0.998892
vn 0.046784 -0.005074 -0.998892
vn 0.046784 -0.005074 -0.998892
vn 0.046784 -0.005074 -0.998892
vn 0.028894 -0.999562 0.006431
vn 0.028894 -0.999562 0.006431
vn 0.028894 -0.999562 0.006431
vn 0.028894 -0.999562 0.006431
vn -0.028894 0.999562 -0.006431
vn -0.028894 0.999562 -0.006431
vn -0.028894 0.999562 -0.006431
vn -0.028894 0.999562 -0.006431
vn 0.994637 -0.073693 0.072567
vn 0.002505 -0.997092 0.076170
vn 0.002505 -0.997092 -0.076170
vn 0.994637 -0.073693 -0.072567
vn 0.002402 -0.077274 0.997007
vn 0.994637 0.073693 0.072567
vn 0.002402 0.077274 0.997007
vn 0.000003 -0.997096 0.076153
vn 0.000003 -0.077279 0.997010
vn -0.002861 -0.077225 0.997010
vn -0.002983 -0.997094 0.076123
vn 0.002505 0.997092 0.076170
vn 0.994637 0.073693 -0.072567
vn 0.002505 0.997092 -0.076170
vn 0.000003 0.077279 0.997010
vn 0.000003 0.997096 0.076153
vn -0.002983 0.997094 0.076123
vn -0.002861 0.077225 0.997010
vn -0.994637 -0.073694 0.072568
vn -0.994637 -0.073694 -0.072568
vn -0.002983 -0.997094 -0.076123
vn -0.994637 0.073694 0.072568
vn -0.002983 0.997094 -0.076123
vn -0.994637 0.073694 -0.072568
vn -0.002861 -0.077224 -0.997010
vn 0.000003 -0.077279 -0.997010
vn 0.000003 -0.997096 -0.076153
vn -0.002861 0.077224 -0.997010
vn 0.000003 0.997096 -0.076153
vn 0.000003 0.077279 -0.997010
vn 0.002402 -0.077274 -0.997007
vn 0.002402 0.077274 -0.997007
vn -0.998487 -0.029164 -0.046617
vn -0.998487 -0.029164 -0.046617
vn -0.998487 -0.029164 -0.046617
vn -0.998487 -0.029164 -0.046617
vn -0.046784 0.005074 0.998892
vn -0.046784 0.005074 0.998892
vn -0.046784 0.005074 0.998892
vn -0.046783 0.005074 0.998892
vn 0.998487 0.029164 0.046617
vn 0.998487 0.029164 0.046617
vn 0.998487 0.029164 0.046617
vn 0.998487 0.029164 0.046617
vn 0.046784 -0.005074 -0.998892
vn 0.046784 -0.005074 -0.998892
vn 0.046784 -0.005074 -0.998892
vn 0.046784 -0.005074 -0.998892
vn 0.028894 -0.999562 0.006431
vn 0.028894 -0.999562 0.006431
vn 0.028894 -0.999562 0.006431
vn 0.028894 -0.999562 0.006431
vn -0.028894 0.999562 -0.006431
vn -0.028894 0.999562 -0.006431
vn -0.028894 0.999562 -0.006431
vn -0.028894 0.999562 -0.006431
vn -0.998046 0.028256 0.055730
vn -0.998046 0.028256 0.055730
vn -0.998046 0.028256 0.055730
vn -0.998046 0.028256 0.055730
vn -0.055702 0.001808 -0.998446
vn -0.055702 0.001808 -0.998446
vn -0.055702 0.001808 -0.998446
vn -0.055702 0.001808 -0.998446
vn 0.998046 -0.028256 -0.055730
vn 0.998046 -0.028256 -0.055730
vn 0.998046 -0.028256 -0.055730
vn 0.998046 -0.028256 -0.055730
vn 0.055701 -0.001809 0.998446
vn 0.055701 -0.001809 0.998446
vn 0.055701 -0.001809 0.998446
vn 0.055701 -0.001809 0.998446
vn 0.028311 0.999599 0.000231
vn 0.028311 0.999599 0.000231
vn 0.028311 0.999599 0.000231
vn 0.028311 0.999599 0.000231
vn -0.028311 -0.999599 -0.000231
vn -0.028311 -0.999599 -0.000231
vn -0.028311 -0.999599 -0.000231
vn -0.028311 -0.999599 -0.000231
vn 0.999594 -0.027620 0.006942
vn 0.999594 -0.027620 0.006942
vn 0.999594 -0.027620 0.006942
vn 0.999594 -0.027620 0.006942
vn 0.006704 -0.008721 -0.999940
vn 0.006704 -0.008721 -0.999940
vn 0.006704 -0.008721 -0.999940
vn 0.006704 -0.008721 -0.999940
vn -0.999594 0.027620 -0.006942
vn -0.999594 0.027620 -0.006942
vn -0.999594 0.027620 -0.006942
vn -0.999594 0.027620 -0.006942
vn -0.006704 0.008721 0.999940
vn -0.006704 0.008721 0.999940
vn -0.006704 0.008721 0.999940
vn -0.006704 0.008721 0.999940
vn -0.027679 -0.999581 0.008533
vn -0.027679 -0.999581 0.008533
vn -0.027679 -0.999581 0.008533
vn -0.027679 -0.999581 0.008533
vn 0.027679 0.999581 -0.008533
vn 0.027679 0.999581 -0.008533
vn 0.027679 0.999581 -0.008533
vn 0.027679 0.999581 -0.008533
vn 0.994637 0.065630 0.079932
vn 0.002505 -0.013997 0.999899
vn 0.002505 -0.165717 0.986170
vn 0.994637 -0.078913 0.066853
vn 0.002402 0.985986 0.166809
vn 0.994637 0.078913 -0.066853
vn 0.002402 0.999914 0.012889
vn 0.000003 -0.014014 0.999902
vn 0.000003 0.985988 0.166814
vn -0.002861 0.985993 0.166760
vn -0.002983 -0.014044 0.999897
vn 0.002505 0.165717 -0.986170
vn 0.994637 -0.065631 -0.079932
vn 0.002505 0.013997 -0.999899
vn 0.000003 0.999917 0.012884
vn 0.000003 0.165701 -0.986176
vn -0.002983 0.165670 -0.986177
vn -0.002861 0.999912 0.012939
vn -0.994637 0.065631 0.079933
vn -0.994637 -0.078913 0.066854
vn -0.002983 -0.165670 0.986177
vn -0.994637 0.078913 -0.066854
vn -0.002983 0.014044 -0.999897
vn -0.994637 -0.065631 -0.079933
vn -0.002861 -0.999912 -0.012939
vn 0.000003 -0.999917 -0.012885
vn 0.000003 -0.165701 0.986176
vn -0.002861 -0.985994 -0.166759
vn 0.000003 0.014014 -0.999902
vn 0.000003 -0.985988 -0.166814
vn 0.002402 -0.999914 -0.012890
vn 0.002402 -0.985986 -0.166808
vn -0.999999 0.000000 0.001640
vn -0.999999 0.000000 0.001640
vn -0.999999 0.000000 0.001640
vn -0.999999 0.000000 0.001640
vn 0.000000 1.000000 0.000000
vn 0.000000 1.000000 0.000000
vn 0.000000 1.000000 0.000000
vn 0.000000 1.000000 0.000000
vn 0.999999 0.000000 -0.001640
vn 0.999999 0.000000 -0.001640
vn 0.999999 0.000000 -0.001640
vn 0.999999 0.000000 -0.001640
vn 0.000000 -1.000000 0.000000
vn 0.000000 -1.000000 0.000000
vn 0.000000 -1.000000 0.000000
vn 0.000000 -1.000000 0.000000
vn 0.001641 0.000000 0.999999
vn 0.001641 0.000000 0.999999
vn 0.001641 0.000000 0.999999
vn 0.001641 0.000000 0.999999
vn -0.001640 0.000000 -0.999999
vn -0.001640 0.000000 -0.999999
vn -0.001640 0.000000 -0.999999
vn -0.001640 0.000000 -0.999999
vn -0.999999 0.000000 0.001640
vn -0.999999 0.000000 0.001640
vn -0.999999 0.000000 0.001640
vn -0.999999 0.000000 0.001640
vn 0.000000 1.000000 -0.000000
vn 0.000000 1.000000 -0.000000
vn 0.000000 1.000000 -0.000000
vn 0.000000 1.000000 -0.000000
vn 0.999999 0.000000 -0.001641
vn 0.999999 0.000000 -0.001641
vn 0.999999 0.000000 -0.001641
vn 0.999999 0.000000 -0.001641
vn 0.000000 -1.000000 0.000000
vn 0.000000 -1.000000 0.000000
vn 0.000000 -1.000000 0.000000
vn 0.000000 -1.000000 0.000000
vn 0.001640 0.000000 0.999999
vn 0.001640 0.000000 0.999999
vn 0.001640 0.000000 0.999999
vn 0.001640 0.000000 0.999999
vn -0.001640 0.000000 -0.999999
vn -0.001640 0.000000 -0.999999
vn -0.001640 0.000000 -0.999999
vn -0.001640 0.000000 -0.999999
vn -0.999999 0.000000 0.001641
vn -0.999999 0.000000 0.001641
vn -0.999999 0.000000 0.001641
vn -0.999999 0.000000 0.001641
vn 0.000000 1.000000 0.000000
vn 0.000000 1.000000 0.000000
vn 0.000000 1.000000 0.000000
vn 0.000000 1.000000 0.000000
vn 0.999999 0.000000 -0.001640
vn 0.999999 0.000000 -0.001640
vn 0.999999 0.000000 -0.001640
vn 0.999999 0.000000 -0.001640
vn 0.000000 -1.000000 0.000000
vn 0.000000 -1.000000 0.000000
vn 0.000000 -1.000000 0.000000
vn 0.000000 -1.000000 0.000000
vn 0.001641 0.000000 0.999999
vn 0.001641 0.000000 0.999999
vn 0.001641 0.000000 0.999999
vn 0.001641 0.000000 0.999999
vn -0.001640 0.000000 -0.999999
vn -0.001640 0.000000 -0.999999
vn -0.001640 0.000000 -0.999999
vn -0.001640 0.000000 -0.999999
vn -0.999999 0.000000 0.001641
vn -0.999999 0.000000 0.001641
vn -0.999999 0.000000 0.001641
vn -0.999999 0.000000 0.001641
vn 0.000000 1.000000 0.000000
vn 0.000000 1.000000 0.000000
vn 0.000000 1.000000 0.000000
vn 0.000000 1.000000 0.000000
vn 0.999999 0.000000 -0.001640
vn 0.999999 0.000000 -0.001640
vn 0.999999 0.000000 -0.001640
vn 0.999999 0.000000 -0.001640
vn 0.000000 -1.000000 0.000000
vn 0.000000 -1.000000 0.000000
vn 0.000000 -1.000000 0.000000
vn 0.000000 -1.000000 0.000000
vn 0.001640 0.000000 0.999999
vn 0.001640 0.000000 0.999999
vn 0.001640 0.000000 0.999999
vn 0.001640 0.000000 0.999999
vn -0.001640 0.000000 -0.999999
vn -0.001640 0.000000 -0.999999
vn -0.001640 0.000000 -0.999999
vn -0.001640 0.000000 -0.999999
vn -0.999999 0.000000 0.001640
vn -0.999999 0.000000 0.001640
vn -0.999999 0.000000 0.001640
vn -0.999999 0.000000 0.001640
vn 0.000000 1.000000 0.000000
vn 0.000000 1.000000 0.000000
vn 0.000000 1.000000 0.000000
vn 0.000000 1.000000 0.000000
vn 0.999999 0.000000 -0.001640
vn 0.999999 0.000000 -0.001640
vn 0.999999 0.000000 -0.001640
vn 0.999999 0.000000 -0.001640
vn 0.000000 -1.000000 0.000000
vn 0.000000 -1.000000 0.000000
vn 0.000000 -1.000000 0.000000
vn 0.000000 -1.000000 0.000000
vn 0.001640 0.000000 0.999999
vn 0.001640 0.000000 0.999999
vn 0.001640 0.000000 0.999999
vn 0.001640 0.000000 0.999999
vn -0.001640 0.000000 -0.999999
vn -0.001640 0.000000 -0.999999
vn -0.001640 0.000000 -0.999999
vn -0.001640 0.000000 -0.999999
vn -0.999999 0.000000 0.001639
vn -0.999999 0.000000 0.001639
vn -0.999999 0.000000 0.001639
vn -0.999999 0.000000 0.001639
vn 0.000000 1.000000 0.000000
vn 0.000000 1.000000 0.000000
vn 0.000000 1.000000 0.000000
vn 0.000000 1.000000 0.000000
vn 0.999999 0.000000 -0.001640
vn 0.999999 0.000000 -0.001640
vn 0.999999 0.000000 -0.001640
vn 0.999999 0.000000 -0.001640
vn 0.000000 -1.000000 0.000000
vn 0.000000 -1.000000 0.000000
vn 0.000000 -1.000000 0.000000
vn 0.000000 -1.000000 0.000000
vn 0.001641 0.000000 0.999999
vn 0.001641 0.000000 0.999999
vn 0.001641 0.000000 0.999999
vn 0.001641 0.000000 0.999999
vn -0.001640 0.000000 -0.999999
vn -0.001640 0.000000 -0.999999
vn -0.001640 0.000000 -0.999999
vn -0.001640 0.000000 -0.999999
vn -0.999999 0.000000 0.001641
vn -0.999999 0.000000 0.001641
vn -0.999999 0.000000 0.001641
vn -0.999999 0.000000 0.001641
vn 0.000000 1.000000 0.000000
vn 0.000000 1.000000 0.000000
vn 0.000000 1.000000 0.000000
vn 0.000000 1.000000 0.000000
vn 0.999999 0.000000 -0.001641
vn 0.999999 0.000000 -0.001641
vn 0.999999 0.000000 -0.001641
vn 0.999999 0.000000 -0.001641
vn 0.000000 -1.000000 0.000000
vn 0.000000 -1.000000 0.000000
vn 0.000000 -1.000000 0.000000
vn 0.000000 -1.000000 0.000000
vn 0.001640 0.000000 0.999999
vn 0.001640 0.000000 0.999999
vn 0.001640 0.000000 0.999999
vn 0.001640 0.000000 0.999999
vn -0.001640 0.000000 -0.999999
vn -0.001640 0.000000 -0.999999
vn -0.001640 0.000000 -0.999999
vn -0.001640 0.000000 -0.999999
s off
g polySurface443
usemtl lambert6SG
f 1/1/1 2/2/2 4/3/3 3/4/4
f 3/4/5 4/5/6 6/6/7 5/7/8
f 5/8/9 6/9/10 8/10/11 7/11/12
f 7/12/13 8/13/14 2/14/15 1/1/16
f 2/2/17 8/10/18 6/9/19 4/3/20
f 7/12/21 1/1/22 3/4/23 5/7/24
s 1
f 9/15/25 11/16/26 27/17/27 29/18/28
f 10/19/29 9/20/25 14/21/30 13/22/31
f 40/23/32 33/24/33 16/25/34 15/26/35
f 12/27/36 14/28/30 30/29/37 32/30/38
f 34/31/39 35/32/40 20/33/41 19/34/42
f 15/35/35 17/36/43 22/37/44 21/38/45
f 17/39/43 16/25/34 19/34/42 18/40/46
f 18/41/46 20/42/41 26/43/47 25/44/48
f 21/45/45 23/46/49 38/47/50 39/48/51
f 23/46/49 22/37/44 25/44/48 24/49/52
f 24/49/52 26/50/47 36/51/53 37/52/54
f 29/18/28 28/53/55 31/54/56 30/29/37
f 33/24/33 34/31/39 19/34/42 16/25/34
f 17/36/43 18/41/46 25/44/48 22/37/44
f 23/46/49 24/49/52 37/52/54 38/47/50
f 29/18/28 30/29/37 14/28/30 9/15/25
f 35/32/40 36/51/53 26/50/47 20/33/41
f 39/55/51 40/23/32 15/26/35 21/56/45
f 9/20/25 10/19/29 11/57/26
f 12/58/36 13/22/31 14/21/30
f 15/26/35 16/25/34 17/39/43
f 18/40/46 19/34/42 20/33/41
f 21/38/45 22/37/44 23/46/49
f 24/49/52 25/44/48 26/43/47
f 27/59/27 28/53/55 29/18/28
f 30/29/37 31/54/56 32/60/38
f 10/19/29 13/22/31 34/31/39 33/24/33
f 13/22/31 12/58/36 35/32/40 34/31/39
f 12/58/36 32/60/38 36/51/53 35/32/40
f 37/52/54 36/51/53 32/60/38 31/54/56
f 38/47/50 37/52/54 31/54/56 28/53/55
f 39/48/51 38/47/50 28/53/55 27/59/27
f 27/61/27 11/57/26 40/23/32 39/55/51
f 11/57/26 10/19/29 33/24/33 40/23/32
s 4
f 41/62/57 43/63/58 59/64/59 61/65/60
f 42/66/61 41/67/57 46/68/62 45/69/63
f 72/70/64 65/71/65 48/72/66 47/73/67
f 44/74/68 46/75/62 62/76/69 64/77/70
f 66/78/71 67/79/72 52/80/73 51/81/74
f 47/82/67 49/83/75 54/84/76 53/85/77
f 49/86/75 48/72/66 51/81/74 50/87/78
f 50/88/78 52/89/73 58/90/79 57/91/80
f 53/92/77 55/93/81 70/94/82 71/95/83
f 55/93/81 54/84/76 57/91/80 56/96/84
f 56/96/84 58/97/79 68/98/85 69/99/86
f 61/65/60 60/100/87 63/101/88 62/76/69
f 65/71/65 66/78/71 51/81/74 48/72/66
f 49/83/75 50/88/78 57/91/80 54/84/76
f 55/93/81 56/96/84 69/99/86 70/94/82
f 61/65/60 62/76/69 46/75/62 41/62/57
f 67/79/72 68/98/85 58/97/79 52/80/73
f 71/102/83 72/70/64 47/73/67 53/103/77
f 41/67/57 42/66/61 43/104/58
f 44/105/68 45/69/63 46/68/62
f 47/73/67 48/72/66 49/86/75
f 50/87/78 51/81/74 52/80/73
f 53/85/77 54/84/76 55/93/81
f 56/96/84 57/91/80 58/90/79
f 59/106/59 60/100/87 61/65/60
f 62/76/69 63/101/88 64/107/70
f 42/66/61 45/69/63 66/78/71 65/71/65
f 45/69/63 44/105/68 67/79/72 66/78/71
f 44/105/68 64/107/70 68/98/85 67/79/72
f 69/99/86 68/98/85 64/107/70 63/101/88
f 70/94/82 69/99/86 63/101/88 60/100/87
f 71/95/83 70/94/82 60/100/87 59/106/59
f 59/108/59 43/104/58 72/70/64 71/102/83
f 43/104/58 42/66/61 65/71/65 72/70/64
s off
f 73/109/89 74/110/90 76/111/91 75/112/92
f 75/113/93 76/114/94 78/115/95 77/116/96
f 77/116/97 78/115/98 80/117/99 79/118/100
f 79/118/101 80/117/102 74/119/103 73/120/104
f 74/110/105 80/117/106 78/115/107 76/111/108
f 79/121/109 73/109/110 75/112/111 77/122/112
s 7
f 81/123/113 83/124/114 99/125/115 101/126/116
f 82/127/117 81/128/113 86/129/118 85/130/119
f 112/131/120 105/132/121 88/133/122 87/134/123
f 84/135/124 86/136/118 102/137/125 104/138/126
f 106/139/127 107/140/128 92/141/129 91/142/130
f 87/143/123 89/144/131 94/145/132 93/146/133
f 89/147/131 88/133/122 91/142/130 90/148/134
f 90/149/134 92/150/129 98/151/135 97/152/136
f 93/153/133 95/154/137 110/155/138 111/156/139
f 95/154/137 94/145/132 97/152/136 96/157/140
f 96/157/140 98/158/135 108/159/141 109/160/142
f 101/126/116 100/161/143 103/162/144 102/137/125
f 105/132/121 106/139/127 91/142/130 88/133/122
f 89/144/131 90/149/134 97/152/136 94/145/132
f 95/154/137 96/157/140 109/160/142 110/155/138
f 101/126/116 102/137/125 86/136/118 81/123/113
f 107/140/128 108/159/141 98/158/135 92/141/129
f 111/163/139 112/131/120 87/134/123 93/164/133
f 81/128/113 82/127/117 83/165/114
f 84/166/124 85/130/119 86/129/118
f 87/134/123 88/133/122 89/147/131
f 90/148/134 91/142/130 92/141/129
f 93/146/133 94/145/132 95/154/137
f 96/157/140 97/152/136 98/151/135
f 99/167/115 100/161/143 101/126/116
f 102/137/125 103/162/144 104/168/126
f 82/127/117 85/130/119 106/139/127 105/132/121
f 85/130/119 84/166/124 107/140/128 106/139/127
f 84/166/124 104/168/126 108/159/141 107/140/128
f 109/160/142 108/159/141 104/168/126 103/162/144
f 110/155/138 109/160/142 103/162/144 100/161/143
f 111/156/139 110/155/138 100/161/143 99/167/115
f 99/169/115 83/165/114 112/131/120 111/163/139
f 83/165/114 82/127/117 105/132/121 112/131/120
s off
f 113/170/145 114/171/146 116/172/147 115/173/148
f 115/173/149 116/174/150 118/175/151 117/176/152
f 117/177/153 118/178/154 120/179/155 119/180/156
f 119/181/157 120/182/158 114/183/159 113/170/160
f 114/171/161 120/179/162 118/178/163 116/172/164
f 119/181/165 113/170/166 115/173/167 117/176/168
f 121/184/169 122/185/170 124/186/171 123/187/172
f 123/187/173 124/188/174 126/189/175 125/190/176
f 125/191/177 126/192/178 128/193/179 127/194/180
f 127/195/181 128/196/182 122/197/183 121/184/184
f 122/185/185 128/193/186 126/192/187 124/186/188
f 127/195/189 121/184/190 123/187/191 125/190/192
f 129/198/193 130/199/194 132/200/195 131/201/196
f 131/202/197 132/203/198 134/204/199 133/205/200
f 133/205/201 134/204/202 136/206/203 135/207/204
f 135/207/205 136/206/206 130/208/207 129/209/208
f 130/199/209 136/206/210 134/204/211 132/200/212
f 135/210/213 129/198/214 131/201/215 133/211/216
s 10
f 137/212/217 139/213/218 155/214/219 157/215/220
f 138/216/221 137/217/217 142/218/222 141/219/223
f 168/220/224 161/221/225 144/222/226 143/223/227
f 140/224/228 142/225/222 158/226/229 160/227/230
f 162/228/231 163/229/232 148/230/233 147/231/234
f 143/232/227 145/233/235 150/234/236 149/235/237
f 145/236/235 144/222/226 147/231/234 146/237/238
f 146/238/238 148/239/233 154/240/239 153/241/240
f 149/242/237 151/243/241 166/244/242 167/245/243
f 151/243/241 150/234/236 153/241/240 152/246/244
f 152/246/244 154/247/239 164/248/245 165/249/246
f 157/215/220 156/250/247 159/251/248 158/226/229
f 161/221/225 162/228/231 147/231/234 144/222/226
f 145/233/235 146/238/238 153/241/240 150/234/236
f 151/243/241 152/246/244 165/249/246 166/244/242
f 157/215/220 158/226/229 142/225/222 137/212/217
f 163/229/232 164/248/245 154/247/239 148/230/233
f 167/252/243 168/220/224 143/223/227 149/253/237
f 137/217/217 138/216/221 139/254/218
f 140/255/228 141/219/223 142/218/222
f 143/223/227 144/222/226 145/236/235
f 146/237/238 147/231/234 148/230/233
f 149/235/237 150/234/236 151/243/241
f 152/246/244 153/241/240 154/240/239
f 155/256/219 156/250/247 157/215/220
f 158/226/229 159/251/248 160/257/230
f 138/216/221 141/219/223 162/228/231 161/221/225
f 141/219/223 140/255/228 163/229/232 162/228/231
f 140/255/228 160/257/230 164/248/245 163/229/232
f 165/249/246 164/248/245 160/257/230 159/251/248
f 166/244/242 165/249/246 159/251/248 156/250/247
f 167/245/243 166/244/242 156/250/247 155/256/219
f 155/258/219 139/254/218 168/220/224 167/252/243
f 139/254/218 138/216/221 161/221/225 168/220/224
s off
f 169/259/249 170/260/250 172/261/251 171/262/252
f 171/262/253 172/263/254 174/264/255 173/265/256
f 173/266/257 174/267/258 176/268/259 175/269/260
f 175/270/261 176/271/262 170/272/263 169/259/264
f 170/260/265 176/268/266 174/267/267 172/261/268
f 175/270/269 169/259/270 171/262/271 173/265/272
f 177/273/273 178/274/274 180/275/275 179/276/276
f 179/276/277 180/277/278 182/278/279 181/279/280
f 181/280/281 182/281/282 184/282/283 183/283/284
f 183/284/285 184/285/286 178/286/287 177/273/288
f 178/274/289 184/282/290 182/281/291 180/275/292
f 183/284/293 177/273/294 179/276/295 181/279/296
s 13
f 185/287/297 187/288/298 203/289/299 205/290/300
f 186/291/301 185/292/297 190/293/302 189/294/303
f 216/295/304 209/296/305 192/297/306 191/298/307
f 188/299/308 190/300/302 206/301/309 208/302/310
f 210/303/311 211/304/312 196/305/313 195/306/314
f 191/307/307 193/308/315 198/309/316 197/310/317
f 193/311/315 192/297/306 195/306/314 194/312/318
f 194/313/318 196/314/313 202/315/319 201/316/320
f 197/317/317 199/318/321 214/319/322 215/320/323
f 199/318/321 198/309/316 201/316/320 200/321/324
f 200/321/324 202/322/319 212/323/325 213/324/326
f 205/290/300 204/325/327 207/326/328 206/301/309
f 209/296/305 210/303/311 195/306/314 192/297/306
f 193/308/315 194/313/318 201/316/320 198/309/316
f 199/318/321 200/321/324 213/324/326 214/319/322
f 205/290/300 206/301/309 190/300/302 185/287/297
f 211/304/312 212/323/325 202/322/319 196/305/313
f 215/327/323 216/295/304 191/298/307 197/328/317
f 185/292/297 186/291/301 187/329/298
f 188/330/308 189/294/303 190/293/302
f 191/298/307 192/297/306 193/311/315
f 194/312/318 195/306/314 196/305/313
f 197/310/317 198/309/316 199/318/321
f 200/321/324 201/316/320 202/315/319
f 203/331/299 204/325/327 205/290/300
f 206/301/309 207/326/328 208/332/310
f 186/291/301 189/294/303 210/303/311 209/296/305
f 189/294/303 188/330/308 211/304/312 210/303/311
f 188/330/308 208/332/310 212/323/325 211/304/312
f 213/324/326 212/323/325 208/332/310 207/326/328
f 214/319/322 213/324/326 207/326/328 204/325/327
f 215/320/323 214/319/322 204/325/327 203/331/299
f 203/333/299 187/329/298 216/295/304 215/327/323
f 187/329/298 186/291/301 209/296/305 216/295/304
s 16
f 217/334/329 219/335/330 235/336/331 237/337/332
f 218/338/333 217/339/329 222/340/334 221/341/335
f 248/342/336 241/343/337 224/344/338 223/345/339
f 220/346/340 222/347/334 238/348/341 240/349/342
f 242/350/343 243/351/344 228/352/345 227/353/346
f 223/354/339 225/355/347 230/356/348 229/357/349
f 225/358/347 224/344/338 227/353/346 226/359/350
f 226/360/350 228/361/345 234/362/351 233/363/352
f 229/364/349 231/365/353 246/366/354 247/367/355
f 231/365/353 230/356/348 233/363/352 232/368/356
f 232/368/356 234/369/351 244/370/357 245/371/358
f 237/337/332 236/372/359 239/373/360 238/348/341
f 241/343/337 242/350/343 227/353/346 224/344/338
f 225/355/347 226/360/350 233/363/352 230/356/348
f 231/365/353 232/368/356 245/371/358 246/366/354
f 237/337/332 238/348/341 222/347/334 217/334/329
f 243/351/344 244/370/357 234/369/351 228/352/345
f 247/374/355 248/342/336 223/345/339 229/375/349
f 217/339/329 218/338/333 219/376/330
f 220/377/340 221/341/335 222/340/334
f 223/345/339 224/344/338 225/358/347
f 226/359/350 227/353/346 228/352/345
f 229/357/349 230/356/348 231/365/353
f 232/368/356 233/363/352 234/362/351
f 235/378/331 236/372/359 237/337/332
f 238/348/341 239/373/360 240/379/342
f 218/338/333 221/341/335 242/350/343 241/343/337
f 221/341/335 220/377/340 243/351/344 242/350/343
f 220/377/340 240/379/342 244/370/357 243/351/344
f 245/371/358 244/370/357 240/379/342 239/373/360
f 246/366/354 245/371/358 239/373/360 236/372/359
f 247/367/355 246/366/354 236/372/359 235/378/331
f 235/380/331 219/376/330 248/342/336 247/374/355
f 219/376/330 218/338/333 241/343/337 248/342/336
s 19
f 249/381/361 251/382/362 267/383/363 269/384/364
f 250/385/365 249/386/361 254/387/366 253/388/367
f 280/389/368 273/390/369 256/391/370 255/392/371
f 252/393/372 254/394/366 270/395/373 272/396/374
f 274/397/375 275/398/376 260/399/377 259/400/378
f 255/401/371 257/402/379 262/403/380 261/404/381
f 257/405/379 256/391/370 259/400/378 258/406/382
f 258/407/382 260/408/377 266/409/383 265/410/384
f 261/411/381 263/412/385 278/413/386 279/414/387
f 263/412/385 262/403/380 265/410/384 264/415/388
f 264/415/388 266/416/383 276/417/389 277/418/390
f 269/384/364 268/419/391 271/420/392 270/395/373
f 273/390/369 274/397/375 259/400/378 256/391/370
f 257/402/379 258/407/382 265/410/384 262/403/380
f 263/412/385 264/415/388 277/418/390 278/413/386
f 269/384/364 270/395/373 254/394/366 249/381/361
f 275/398/376 276/417/389 266/416/383 260/399/377
f 279/421/387 280/389/368 255/392/371 261/422/381
f 249/386/361 250/385/365 251/423/362
f 252/424/372 253/388/367 254/387/366
f 255/392/371 256/391/370 257/405/379
f 258/406/382 259/400/378 260/399/377
f 261/404/381 262/403/380 263/412/385
f 264/415/388 265/410/384 266/409/383
f 267/425/363 268/419/391 269/384/364
f 270/395/373 271/420/392 272/426/374
f 250/385/365 253/388/367 274/397/375 273/390/369
f 253/388/367 252/424/372 275/398/376 274/397/375
f 252/424/372 272/426/374 276/417/389 275/398/376
f 277/418/390 276/417/389 272/426/374 271/420/392
f 278/413/386 277/418/390 271/420/392 268/419/391
f 279/414/387 278/413/386 268/419/391 267/425/363
f 267/427/363 251/423/362 280/389/368 279/421/387
f 251/423/362 250/385/365 273/390/369 280/389/368
s 22
f 281/428/393 283/429/394 299/430/395 301/431/396
f 282/432/397 281/433/393 286/434/398 285/435/399
f 312/436/400 305/437/401 288/438/402 287/439/403
f 284/440/404 286/441/398 302/442/405 304/443/406
f 306/444/407 307/445/408 292/446/409 291/447/410
f 287/448/403 289/449/411 294/450/412 293/451/413
f 289/452/411 288/438/402 291/447/410 290/453/414
f 290/454/414 292/455/409 298/456/415 297/457/416
f 293/458/413 295/459/417 310/460/418 311/461/419
f 295/459/417 294/450/412 297/457/416 296/462/420
f 296/462/420 298/463/415 308/464/421 309/465/422
f 301/431/396 300/466/423 303/467/424 302/442/405
f 305/437/401 306/444/407 291/447/410 288/438/402
f 289/449/411 290/454/414 297/457/416 294/450/412
f 295/459/417 296/462/420 309/465/422 310/460/418
f 301/431/396 302/442/405 286/441/398 281/428/393
f 307/445/408 308/464/421 298/463/415 292/446/409
f 311/468/419 312/436/400 287/439/403 293/469/413
f 281/433/393 282/432/397 283/470/394
f 284/471/404 285/435/399 286/434/398
f 287/439/403 288/438/402 289/452/411
f 290/453/414 291/447/410 292/446/409
f 293/451/413 294/450/412 295/459/417
f 296/462/420 297/457/416 298/456/415
f 299/472/395 300/466/423 301/431/396
f 302/442/405 303/467/424 304/473/406
f 282/432/397 285/435/399 306/444/407 305/437/401
f 285/435/399 284/471/404 307/445/408 306/444/407
f 284/471/404 304/473/406 308/464/421 307/445/408
f 309/465/422 308/464/421 304/473/406 303/467/424
f 310/460/418 309/465/422 303/467/424 300/466/423
f 311/461/419 310/460/418 300/466/423 299/472/395
f 299/474/395 283/470/394 312/436/400 311/468/419
f 283/470/394 282/432/397 305/437/401 312/436/400
s 25
f 313/475/425 315/476/426 331/477/427 333/478/428
f 314/479/429 313/480/425 318/481/430 317/482/431
f 344/483/432 337/484/433 320/485/434 319/486/435
f 316/487/436 318/488/430 334/489/437 336/490/438
f 338/491/439 339/492/440 324/493/441 323/494/442
f 319/495/435 321/496/443 326/497/444 325/498/445
f 321/499/443 320/485/434 323/494/442 322/500/446
f 322/501/446 324/502/441 330/503/447 329/504/448
f 325/505/445 327/506/449 342/507/450 343/508/451
f 327/506/449 326/497/444 329/504/448 328/509/452
f 328/509/452 330/510/447 340/511/453 341/512/454
f 333/478/428 332/513/455 335/514/456 334/489/437
f 337/484/433 338/491/439 323/494/442 320/485/434
f 321/496/443 322/501/446 329/504/448 326/497/444
f 327/506/449 328/509/452 341/512/454 342/507/450
f 333/478/428 334/489/437 318/488/430 313/475/425
f 339/492/440 340/511/453 330/510/447 324/493/441
f 343/515/451 344/483/432 319/486/435 325/516/445
f 313/480/425 314/479/429 315/517/426
f 316/518/436 317/482/431 318/481/430
f 319/486/435 320/485/434 321/499/443
f 322/500/446 323/494/442 324/493/441
f 325/498/445 326/497/444 327/506/449
f 328/509/452 329/504/448 330/503/447
f 331/519/427 332/513/455 333/478/428
f 334/489/437 335/514/456 336/520/438
f 314/479/429 317/482/431 338/491/439 337/484/433
f 317/482/431 316/518/436 339/492/440 338/491/439
f 316/518/436 336/520/438 340/511/453 339/492/440
f 341/512/454 340/511/453 336/520/438 335/514/456
f 342/507/450 341/512/454 335/514/456 332/513/455
f 343/508/451 342/507/450 332/513/455 331/519/427
f 331/521/427 315/517/426 344/483/432 343/515/451
f 315/517/426 314/479/429 337/484/433 344/483/432
s off
f 345/522/457 346/523/458 348/524/459 347/525/460
f 347/525/461 348/526/462 350/527/463 349/528/464
f 349/529/465 350/530/466 352/531/467 351/532/468
f 351/533/469 352/534/470 346/535/471 345/522/472
f 346/523/473 352/531/474 350/530/475 348/524/476
f 351/533/477 345/522/478 347/525/479 349/528/480
s 28
f 353/536/481 355/537/482 371/538/483 373/539/484
f 354/540/485 353/541/481 358/542/486 357/543/487
f 384/544/488 377/545/489 360/546/490 359/547/491
f 356/548/492 358/549/486 374/550/493 376/551/494
f 378/552/495 379/553/496 364/554/497 363/555/498
f 359/556/491 361/557/499 366/558/500 365/559/501
f 361/560/499 360/546/490 363/555/498 362/561/502
f 362/562/502 364/563/497 370/564/503 369/565/504
f 365/566/501 367/567/505 382/568/506 383/569/507
f 367/567/505 366/558/500 369/565/504 368/570/508
f 368/570/508 370/571/503 380/572/509 381/573/510
f 373/539/484 372/574/511 375/575/512 374/550/493
f 377/545/489 378/552/495 363/555/498 360/546/490
f 361/557/499 362/562/502 369/565/504 366/558/500
f 367/567/505 368/570/508 381/573/510 382/568/506
f 373/539/484 374/550/493 358/549/486 353/536/481
f 379/553/496 380/572/509 370/571/503 364/554/497
f 383/576/507 384/544/488 359/547/491 365/577/501
f 353/541/481 354/540/485 355/578/482
f 356/579/492 357/543/487 358/542/486
f 359/547/491 360/546/490 361/560/499
f 362/561/502 363/555/498 364/554/497
f 365/559/501 366/558/500 367/567/505
f 368/570/508 369/565/504 370/564/503
f 371/580/483 372/574/511 373/539/484
f 374/550/493 375/575/512 376/581/494
f 354/540/485 357/543/487 378/552/495 377/545/489
f 357/543/487 356/579/492 379/553/496 378/552/495
f 356/579/492 376/581/494 380/572/509 379/553/496
f 381/573/510 380/572/509 376/581/494 375/575/512
f 382/568/506 381/573/510 375/575/512 372/574/511
f 383/569/507 382/568/506 372/574/511 371/580/483
f 371/582/483 355/578/482 384/544/488 383/576/507
f 355/578/482 354/540/485 377/545/489 384/544/488
s off
f 385/583/513 386/584/514 388/585/515 387/586/516
f 387/586/517 388/587/518 390/588/519 389/589/520
f 389/590/521 390/591/522 392/592/523 391/593/524
f 391/594/525 392/595/526 386/596/527 385/583/528
f 386/584/529 392/592/530 390/591/531 388/585/532
f 391/594/533 385/583/534 387/586/535 389/589/536
f 393/597/537 394/598/538 396/599/539 395/600/540
f 395/600/541 396/601/542 398/602/543 397/603/544
f 397/604/545 398/605/546 400/606/547 399/607/548
f 399/608/549 400/609/550 394/610/551 393/597/552
f 394/598/553 400/606/554 398/605/555 396/599/556
f 399/608/557 393/597/558 395/600/559 397/603/560
f 401/611/561 402/612/562 404/613/563 403/614/564
f 403/615/565 404/616/566 406/617/567 405/618/568
f 405/618/569 406/617/570 408/619/571 407/620/572
f 407/620/573 408/619/574 402/621/575 401/622/576
f 402/612/577 408/619/578 406/617/579 404/613/580
f 407/623/581 401/611/582 403/614/583 405/624/584
f 409/625/585 410/626/586 412/627/587 411/628/588
f 411/628/589 412/629/590 414/630/591 413/631/592
f 413/632/593 414/633/594 416/634/595 415/635/596
f 415/636/597 416/637/598 410/638/599 409/625/600
f 410/626/601 416/634/602 414/633/603 412/627/604
f 415/636/605 409/625/606 411/628/607 413/631/608
s 31
f 417/639/609 419/640/610 435/641/611 437/642/612
f 418/643/613 417/644/609 422/645/614 421/646/615
f 448/647/616 441/648/617 424/649/618 423/650/619
f 420/651/620 422/652/614 438/653/621 440/654/622
f 442/655/623 443/656/624 428/657/625 427/658/626
f 423/659/619 425/660/627 430/661/628 429/662/629
f 425/663/627 424/649/618 427/658/626 426/664/630
f 426/665/630 428/666/625 434/667/631 433/668/632
f 429/669/629 431/670/633 446/671/634 447/672/635
f 431/670/633 430/661/628 433/668/632 432/673/636
f 432/673/636 434/674/631 444/675/637 445/676/638
f 437/642/612 436/677/639 439/678/640 438/653/621
f 441/648/617 442/655/623 427/658/626 424/649/618
f 425/660/627 426/665/630 433/668/632 430/661/628
f 431/670/633 432/673/636 445/676/638 446/671/634
f 437/642/612 438/653/621 422/652/614 417/639/609
f 443/656/624 444/675/637 434/674/631 428/657/625
f 447/679/635 448/647/616 423/650/619 429/680/629
f 417/644/609 418/643/613 419/681/610
f 420/682/620 421/646/615 422/645/614
f 423/650/619 424/649/618 425/663/627
f 426/664/630 427/658/626 428/657/625
f 429/662/629 430/661/628 431/670/633
f 432/673/636 433/668/632 434/667/631
f 435/683/611 436/677/639 437/642/612
f 438/653/621 439/678/640 440/684/622
f 418/643/613 421/646/615 442/655/623 441/648/617
f 421/646/615 420/682/620 443/656/624 442/655/623
f 420/682/620 440/684/622 444/675/637 443/656/624
f 445/676/638 444/675/637 440/684/622 439/678/640
f 446/671/634 445/676/638 439/678/640 436/677/639
f 447/672/635 446/671/634 436/677/639 435/683/611
f 435/685/611 419/681/610 448/647/616 447/679/635
f 419/681/610 418/643/613 441/648/617 448/647/616
s off
f 449/686/641 450/687/642 452/688/643 451/689/644
f 451/689/645 452/690/646 454/691/647 453/692/648
f 453/693/649 454/694/650 456/695/651 455/696/652
f 455/697/653 456/698/654 450/699/655 449/686/656
f 450/687/657 456/695/658 454/694/659 452/688/660
f 455/697/661 449/686/662 451/689/663 453/692/664
f 457/700/665 458/701/666 460/702/667 459/703/668
f 459/703/669 460/704/670 462/705/671 461/706/672
f 461/707/673 462/708/674 464/709/675 463/710/676
f 463/711/677 464/712/678 458/713/679 457/700/680
f 458/701/681 464/709/682 462/708/683 460/702/684
f 463/711/685 457/700/686 459/703/687 461/706/688
f 465/714/689 466/715/690 468/716/691 467/717/692
f 467/717/693 468/718/694 470/719/695 469/720/696
f 469/721/697 470/722/698 472/723/699 471/724/700
f 471/725/701 472/726/702 466/727/703 465/714/704
f 466/715/705 472/723/706 470/722/707 468/716/708
f 471/725/709 465/714/710 467/717/711 469/720/712
s 34
f 473/728/713 475/729/714 491/730/715 493/731/716
f 474/732/717 473/733/713 478/734/718 477/735/719
f 504/736/720 497/737/721 480/738/722 479/739/723
f 476/740/724 478/741/718 494/742/725 496/743/726
f 498/744/727 499/745/728 484/746/729 483/747/730
f 479/748/723 481/749/731 486/750/732 485/751/733
f 481/752/731 480/738/722 483/747/730 482/753/734
f 482/754/734 484/755/729 490/756/735 489/757/736
f 485/758/733 487/759/737 502/760/738 503/761/739
f 487/759/737 486/750/732 489/757/736 488/762/740
f 488/762/740 490/763/735 500/764/741 501/765/742
f 493/731/716 492/766/743 495/767/744 494/742/725
f 497/737/721 498/744/727 483/747/730 480/738/722
f 481/749/731 482/754/734 489/757/736 486/750/732
f 487/759/737 488/762/740 501/765/742 502/760/738
f 493/731/716 494/742/725 478/741/718 473/728/713
f 499/745/728 500/764/741 490/763/735 484/746/729
f 503/768/739 504/736/720 479/739/723 485/769/733
f 473/733/713 474/732/717 475/770/714
f 476/771/724 477/735/719 478/734/718
f 479/739/723 480/738/722 481/752/731
f 482/753/734 483/747/730 484/746/729
f 485/751/733 486/750/732 487/759/737
f 488/762/740 489/757/736 490/756/735
f 491/772/715 492/766/743 493/731/716
f 494/742/725 495/767/744 496/773/726
f 474/732/717 477/735/719 498/744/727 497/737/721
f 477/735/719 476/771/724 499/745/728 498/744/727
f 476/771/724 496/773/726 500/764/741 499/745/728
f 501/765/742 500/764/741 496/773/726 495/767/744
f 502/760/738 501/765/742 495/767/744 492/766/743
f 503/761/739 502/760/738 492/766/743 491/772/715
f 491/774/715 475/770/714 504/736/720 503/768/739
f 475/770/714 474/732/717 497/737/721 504/736/720
s off
f 505/775/745 506/776/746 508/777/747 507/778/748
f 507/779/749 508/780/750 510/781/751 509/782/752
f 509/782/753 510/781/754 512/783/755 511/784/756
f 511/784/757 512/783/758 506/785/759 505/786/760
f 506/776/761 512/783/762 510/781/763 508/777/764
f 511/787/765 505/775/766 507/778/767 509/788/768
f 513/789/769 514/790/770 516/791/771 515/792/772
f 515/793/773 516/794/774 518/795/775 517/796/776
f 517/796/777 518/795/778 520/797/779 519/798/780
f 519/798/781 520/797/782 514/799/783 513/800/784
f 514/790/785 520/797/786 518/795/787 516/791/788
f 519/801/789 513/789/790 515/792/791 517/802/792
f 521/803/793 522/804/794 524/805/795 523/806/796
f 523/807/797 524/808/798 526/809/799 525/810/800
f 525/810/801 526/809/802 528/811/803 527/812/804
f 527/812/805 528/811/806 522/813/807 521/814/808
f 522/804/809 528/811/810 526/809/811 524/805/812
f 527/815/813 521/803/814 523/806/815 525/816/816
f 529/817/817 530/818/818 532/819/819 531/820/820
f 531/821/821 532/822/822 534/823/823 533/824/824
f 533/824/825 534/823/826 536/825/827 535/826/828
f 535/826/829 536/825/830 530/827/831 529/828/832
f 530/818/833 536/825/834 534/823/835 532/819/836
f 535/829/837 529/817/838 531/820/839 533/830/840
f 537/831/841 538/832/842 540/833/843 539/834/844
f 539/835/845 540/836/846 542/837/847 541/838/848
f 541/838/849 542/837/850 544/839/851 543/840/852
f 543/840/853 544/839/854 538/841/855 537/842/856
f 538/832/857 544/839/858 542/837/859 540/833/860
f 543/843/861 537/831/862 539/834/863 541/844/864
f 545/845/865 546/846/866 548/847/867 547/848/868
f 547/849/869 548/850/870 550/851/871 549/852/872
f 549/852/873 550/851/874 552/853/875 551/854/876
f 551/854/877 552/853/878 546/855/879 545/856/880
f 546/846/881 552/853/882 550/851/883 548/847/884
f 551/857/885 545/845/886 547/848/887 549/858/888
f 553/859/889 554/860/890 556/861/891 555/862/892
f 555/863/893 556/864/894 558/865/895 557/866/896
f 557/866/897 558/865/898 560/867/899 559/868/900
f 559/868/901 560/867/902 554/869/903 553/870/904
f 554/860/905 560/867/906 558/865/907 556/861/908
f 559/871/909 553/859/910 555/862/911 557/872/912
