# This file uses centimeters as units for non-parametric coordinates.

mtllib M_FlowerPink.mtl
g default
v 0.089642 0.006973 -0.034799
v -0.074211 -0.000704 0.009182
v 0.135477 0.139564 0.159106
v -0.028376 0.131887 0.203087
v 0.106801 0.083449 0.042476
v -0.057052 0.075772 0.086457
v 0.089846 0.004165 -0.034528
v -0.074006 -0.003512 0.009453
v 0.135681 0.136756 0.159377
v -0.028172 0.129079 0.203358
v 0.107005 0.080641 0.042747
v -0.056848 0.072964 0.086728
v 0.032927 -0.002294 -0.088116
v -0.026435 0.008696 0.070617
v 0.223673 0.128146 -0.025814
v 0.164311 0.139137 0.132920
v 0.109434 0.073301 -0.064739
v 0.050072 0.084291 0.093995
v 0.033131 -0.005102 -0.087846
v -0.026231 0.005888 0.070888
v 0.223877 0.125338 -0.025543
v 0.164516 0.136328 0.133191
v 0.109638 0.070493 -0.064468
v 0.050276 0.081483 0.094266
v -0.028721 0.005260 0.082264
v 0.060140 0.005260 -0.088313
v -0.255226 0.096051 -0.035732
v -0.166365 0.096051 -0.206309
v -0.124502 0.067509 0.032368
v -0.035641 0.067509 -0.138210
v -0.028339 0.002086 0.082463
v 0.060522 0.002086 -0.088114
v -0.254844 0.092877 -0.035533
v -0.165983 0.092877 -0.206110
v -0.124120 0.064335 0.032567
v -0.035259 0.064335 -0.138011
v -0.092310 0.004501 0.001663
v 0.111502 0.004501 0.001663
v -0.092310 0.136225 -0.253579
v 0.111502 0.136225 -0.253579
v -0.092310 0.085253 -0.102871
v 0.111502 0.085253 -0.102871
v -0.092310 0.001107 0.001663
v 0.111502 0.001107 0.001663
v -0.092310 0.132830 -0.253579
v 0.111502 0.132830 -0.253579
v -0.092310 0.081858 -0.102871
v 0.111502 0.081858 -0.102871
v 0.070625 0.015822 0.067041
v -0.039818 -0.007234 -0.088726
v -0.134784 0.138387 0.194540
v -0.245227 0.115331 0.038772
v -0.015327 0.091131 0.116836
v -0.125770 0.068075 -0.038931
v 0.070856 0.012642 0.067348
v -0.039587 -0.010414 -0.088420
v -0.134553 0.135206 0.194847
v -0.244996 0.112150 0.039079
v -0.015095 0.087950 0.117143
v -0.125539 0.064895 -0.038625
v -0.044490 0.007439 -0.071734
v 0.053228 0.000635 0.066996
v 0.133874 0.112060 -0.192238
v 0.231592 0.105255 -0.053508
v 0.029505 0.072597 -0.120658
v 0.127223 0.065793 0.018072
v -0.044610 0.004614 -0.071788
v 0.053108 -0.002191 0.066942
v 0.133754 0.109234 -0.192292
v 0.231472 0.102430 -0.053562
v 0.029385 0.069772 -0.120712
v 0.127103 0.062967 0.018017
vt 0.520814 0.795366
vt 0.587481 0.795366
vt 0.520814 0.906945
vt 0.587481 0.906945
vt 0.520814 0.843035
vt 0.587481 0.843035
vt 0.520814 0.843035
vt 0.520814 0.906945
vt 0.587481 0.906945
vt 0.587481 0.843035
vt 0.520814 0.795366
vt 0.587481 0.795366
vt 0.520814 0.843035
vt 0.587481 0.843035
vt 0.587481 0.906945
vt 0.520814 0.906945
vt 0.520814 0.795366
vt 0.587481 0.795366
vt 0.520814 0.843035
vt 0.520814 0.906945
vt 0.587481 0.906945
vt 0.587481 0.843035
vt 0.520814 0.795366
vt 0.587481 0.795366
vt 0.520814 0.843035
vt 0.587481 0.843035
vt 0.587481 0.906945
vt 0.520814 0.906945
vt 0.520814 0.795366
vt 0.587481 0.795366
vt 0.520814 0.843035
vt 0.520814 0.906945
vt 0.587481 0.906945
vt 0.587481 0.843035
vt 0.520814 0.795366
vt 0.587481 0.795366
vt 0.520814 0.843035
vt 0.587481 0.843035
vt 0.587481 0.906945
vt 0.520814 0.906945
vt 0.520814 0.795366
vt 0.587481 0.795366
vt 0.520814 0.843035
vt 0.520814 0.906945
vt 0.587481 0.906945
vt 0.587481 0.843035
vt 0.520814 0.795366
vt 0.587481 0.795366
vt 0.520814 0.843035
vt 0.587481 0.843035
vt 0.587481 0.906945
vt 0.520814 0.906945
vt 0.520814 0.795366
vt 0.587481 0.795366
vt 0.520814 0.843035
vt 0.520814 0.906945
vt 0.587481 0.906945
vt 0.587481 0.843035
vt 0.520814 0.795366
vt 0.587481 0.795366
vt 0.520814 0.843035
vt 0.587481 0.843035
vt 0.587481 0.906945
vt 0.520814 0.906945
vt 0.520814 0.795366
vt 0.587481 0.795366
vt 0.520814 0.843035
vt 0.520814 0.906945
vt 0.587481 0.906945
vt 0.587481 0.843035
vt 0.520814 0.795366
vt 0.587481 0.795366
vn -0.180099 0.831286 -0.525858
vn -0.180099 0.831286 -0.525858
vn -0.149397 0.904862 -0.398630
vn -0.149397 0.904862 -0.398630
vn -0.211681 0.717758 -0.663336
vn -0.211681 0.717758 -0.663336
vn 0.180099 -0.831287 0.525858
vn 0.149397 -0.904862 0.398630
vn 0.149397 -0.904862 0.398630
vn 0.180099 -0.831287 0.525858
vn 0.211681 -0.717758 0.663336
vn 0.211681 -0.717758 0.663336
vn -0.492572 0.835924 -0.242084
vn -0.492572 0.835924 -0.242084
vn -0.367695 0.908101 -0.200381
vn -0.367695 0.908101 -0.200381
vn -0.628215 0.723940 -0.285057
vn -0.628215 0.723940 -0.285057
vn 0.492572 -0.835924 0.242084
vn 0.367695 -0.908101 0.200381
vn 0.367695 -0.908101 0.200381
vn 0.492572 -0.835924 0.242084
vn 0.628215 -0.723940 0.285057
vn 0.628215 -0.723940 0.285057
vn 0.297062 0.942235 0.154752
vn 0.297062 0.942234 0.154752
vn 0.168602 0.981763 0.087832
vn 0.168602 0.981763 0.087832
vn 0.442881 0.866387 0.230715
vn 0.442881 0.866387 0.230715
vn -0.297063 -0.942234 -0.154752
vn -0.168602 -0.981763 -0.087832
vn -0.168602 -0.981763 -0.087832
vn -0.297063 -0.942234 -0.154752
vn -0.442882 -0.866387 -0.230715
vn -0.442881 -0.866387 -0.230715
vn 0.000000 0.888641 0.458604
vn 0.000000 0.888641 0.458604
vn 0.000000 0.947286 0.320388
vn 0.000000 0.947286 0.320388
vn 0.000000 0.791375 0.611331
vn 0.000000 0.791375 0.611331
vn 0.000000 -0.888641 -0.458604
vn 0.000000 -0.947286 -0.320388
vn 0.000000 -0.947286 -0.320388
vn 0.000000 -0.888641 -0.458604
vn 0.000000 -0.791375 -0.611331
vn 0.000000 -0.791375 -0.611331
vn 0.309821 0.883836 -0.350492
vn 0.309821 0.883836 -0.350492
vn 0.192869 0.941574 -0.276116
vn 0.192869 0.941574 -0.276116
vn 0.441395 0.787808 -0.429568
vn 0.441395 0.787808 -0.429568
vn -0.309821 -0.883836 0.350492
vn -0.192869 -0.941574 0.276116
vn -0.192869 -0.941574 0.276116
vn -0.309821 -0.883836 0.350492
vn -0.441396 -0.787808 0.429568
vn -0.441396 -0.787808 0.429568
vn -0.336918 0.898503 0.281387
vn -0.336918 0.898503 0.281387
vn -0.221541 0.953823 0.202831
vn -0.221541 0.953823 0.202831
vn -0.465783 0.804947 0.367568
vn -0.465783 0.804947 0.367568
vn 0.336918 -0.898503 -0.281387
vn 0.221541 -0.953823 -0.202832
vn 0.221541 -0.953823 -0.202832
vn 0.336918 -0.898503 -0.281387
vn 0.465783 -0.804947 -0.367568
vn 0.465783 -0.804947 -0.367568
s 1
g pPlane65
usemtl lambert2SG
f 5/5/1 6/6/2 4/4/3 3/3/4
f 1/1/5 2/2/6 6/6/2 5/5/1
s 2
f 11/7/7 9/8/8 10/9/9 12/10/10
f 7/11/11 11/7/7 12/10/10 8/12/12
s 3
f 17/13/13 18/14/14 16/15/15 15/16/16
f 13/17/17 14/18/18 18/14/14 17/13/13
s 4
f 23/19/19 21/20/20 22/21/21 24/22/22
f 19/23/23 23/19/19 24/22/22 20/24/24
s 5
f 29/25/25 30/26/26 28/27/27 27/28/28
f 25/29/29 26/30/30 30/26/26 29/25/25
s 6
f 35/31/31 33/32/32 34/33/33 36/34/34
f 31/35/35 35/31/31 36/34/34 32/36/36
s 7
f 41/37/37 42/38/38 40/39/39 39/40/40
f 37/41/41 38/42/42 42/38/38 41/37/37
s 8
f 47/43/43 45/44/44 46/45/45 48/46/46
f 43/47/47 47/43/43 48/46/46 44/48/48
s 9
f 53/49/49 54/50/50 52/51/51 51/52/52
f 49/53/53 50/54/54 54/50/50 53/49/49
s 10
f 59/55/55 57/56/56 58/57/57 60/58/58
f 55/59/59 59/55/55 60/58/58 56/60/60
s 11
f 65/61/61 66/62/62 64/63/63 63/64/64
f 61/65/65 62/66/66 66/62/62 65/61/61
s 12
f 71/67/67 69/68/68 70/69/69 72/70/70
f 67/71/71 71/67/67 72/70/70 68/72/72
