# This file uses centimeters as units for non-parametric coordinates.

mtllib BaseSmall.mtl
g default
v -0.229552 0.032997 1.396641
v 0.224302 0.032997 1.396641
v -0.116100 0.834842 1.396641
v -0.229552 0.721712 1.396641
v -0.377842 0.389928 3.687057
v -0.487698 0.275282 3.683134
v -0.382875 0.271329 3.796557
v 0.224302 0.721712 1.396641
v 0.110850 0.834842 1.396641
v 0.482334 0.274500 3.682271
v 0.371638 0.390019 3.686219
v 0.379429 0.272936 3.796557
v -0.383570 0.032997 3.891100
v -0.486992 0.032997 3.772313
v 0.481741 0.032997 3.772313
v 0.378321 0.032997 3.891100
v -0.445932 0.032997 3.269906
v -0.446526 0.540332 3.274415
v -0.336097 0.654736 3.277712
v 0.330044 0.654813 3.277008
v 0.441179 0.539675 3.273690
v 0.440681 0.032997 3.269906
v 0.224302 0.032997 -1.198708
v -0.229552 0.032997 -1.198708
v 0.110850 0.834842 -1.198708
v 0.224302 0.721712 -1.198708
v 0.372593 0.389928 -3.489124
v 0.482448 0.275282 -3.485201
v 0.377626 0.271329 -3.598624
v -0.229552 0.721712 -1.198708
v -0.116100 0.834842 -1.198708
v -0.487583 0.274500 -3.484339
v -0.376886 0.390019 -3.488286
v -0.384678 0.272936 -3.598624
v 0.378321 0.032997 -3.693167
v 0.481743 0.032997 -3.574380
v -0.486992 0.032997 -3.574379
v -0.383570 0.032997 -3.693167
v 0.440682 0.032997 -3.071973
v 0.441275 0.540332 -3.076482
v 0.330847 0.654736 -3.079779
v -0.335293 0.654813 -3.079075
v -0.446429 0.539675 -3.075757
v -0.445931 0.032997 -3.071973
v 1.236716 0.032997 0.253349
v 1.236716 0.032997 -0.200506
v 1.236716 0.834842 0.139897
v 1.236716 0.721712 0.253349
v 3.527132 0.389928 0.401640
v 3.523208 0.275282 0.511494
v 3.636632 0.271329 0.406672
v 1.236716 0.721712 -0.200506
v 1.236716 0.834842 -0.087054
v 3.522346 0.274500 -0.458537
v 3.526294 0.390019 -0.347841
v 3.636632 0.272936 -0.355632
v 3.731175 0.032997 0.407367
v 3.612388 0.032997 0.510789
v 3.612388 0.032997 -0.457945
v 3.731175 0.032997 -0.354523
v 3.109980 0.032997 0.469729
v 3.114490 0.540332 0.470322
v 3.117787 0.654736 0.359893
v 3.117082 0.654813 -0.306247
v 3.113764 0.539675 -0.417383
v 3.109980 0.032997 -0.416885
v -1.172267 0.032997 -0.220004
v -1.172267 0.032997 0.233851
v -1.172267 0.834842 -0.106552
v -1.172267 0.721712 -0.220004
v -3.462682 0.389928 -0.368295
v -3.458759 0.275282 -0.478149
v -3.572182 0.271329 -0.373327
v -1.172267 0.721712 0.233851
v -1.172267 0.834842 0.120399
v -3.457896 0.274500 0.491882
v -3.461843 0.390019 0.381186
v -3.572182 0.272936 0.388977
v -3.666726 0.032997 -0.374022
v -3.547938 0.032997 -0.477444
v -3.547938 0.032997 0.491290
v -3.666726 0.032997 0.387868
v -3.045531 0.032997 -0.436384
v -3.050040 0.540332 -0.436977
v -3.053337 0.654736 -0.326548
v -3.052632 0.654813 0.339592
v -3.049314 0.539675 0.450728
v -3.045531 0.032997 0.450230
v 1.963085 0.153380 -0.623412
v 1.665891 0.153380 -1.206689
v 1.202999 0.153380 -1.669580
v 0.619722 0.153380 -1.966775
v -0.026845 0.153380 -2.069181
v -0.673413 0.153380 -1.966775
v -1.256690 0.153380 -1.669580
v -1.719581 0.153380 -1.206689
v -2.016775 0.153380 -0.623412
v -2.119182 0.153380 0.023156
v -2.016775 0.153380 0.669723
v -1.719581 0.153380 1.253000
v -1.256690 0.153380 1.715891
v -0.673412 0.153380 2.013086
v -0.026845 0.153380 2.115492
v 0.619722 0.153380 2.013086
v 1.202999 0.153380 1.715891
v 1.665890 0.153380 1.253000
v 1.963084 0.153380 0.669723
v 2.065491 0.153380 0.023156
v 1.963085 0.974355 -0.623412
v 1.665891 0.974355 -1.206689
v 1.202999 0.974355 -1.669580
v 0.619722 0.974355 -1.966775
v -0.026845 0.974355 -2.069181
v -0.673413 0.974355 -1.966775
v -1.256690 0.974355 -1.669580
v -1.719581 0.974355 -1.206689
v -2.016775 0.974355 -0.623412
v -2.119182 0.974355 0.023156
v -2.016775 0.974355 0.669723
v -1.719581 0.974355 1.253000
v -1.256690 0.974355 1.715891
v -0.673412 0.974355 2.013086
v -0.026845 0.974355 2.115492
v 0.619722 0.974355 2.013086
v 1.202999 0.974355 1.715891
v 1.665890 0.974355 1.253000
v 1.963084 0.974355 0.669723
v 2.065491 0.974355 0.023156
v 1.825955 1.107288 -0.578856
v 1.549242 1.107288 -1.121937
v 1.118248 1.107288 -1.552931
v 0.575166 1.107288 -1.829645
v -0.026845 1.107288 -1.924993
v -0.628857 1.107288 -1.829645
v -1.171938 1.107288 -1.552931
v -1.602931 1.107288 -1.121937
v -1.879645 1.107288 -0.578855
v -1.974993 1.107288 0.023156
v -1.879645 1.107288 0.625167
v -1.602931 1.107288 1.168248
v -1.171938 1.107288 1.599242
v -0.628857 1.107288 1.875956
v -0.026845 1.107288 1.971303
v 0.575166 1.107288 1.875956
v 1.118247 1.107288 1.599241
v 1.549240 1.107288 1.168248
v 1.825954 1.107288 0.625167
v 1.921302 1.107288 0.023156
v 1.469214 1.221927 -0.462944
v 1.245780 1.221927 -0.901460
v -0.026845 1.221927 0.023156
v 0.897770 1.221927 -1.249469
v 0.459254 1.221927 -1.472904
v -0.026845 1.221927 -1.549896
v -0.512945 1.221927 -1.472904
v -0.951461 1.221927 -1.249469
v -1.299470 1.221927 -0.901460
v -1.522904 1.221927 -0.462944
v -1.599896 1.221927 0.023156
v -1.522904 1.221927 0.509255
v -1.299469 1.221927 0.947771
v -0.951461 1.221927 1.295780
v -0.512944 1.221927 1.519215
v -0.026845 1.221927 1.596207
v 0.459254 1.221927 1.519215
v 0.897770 1.221927 1.295780
v 1.245779 1.221927 0.947771
v 1.469213 1.221927 0.509255
v 1.546206 1.221927 0.023156
vt 0.830450 0.432181
vt 0.830404 0.463090
vt 0.783501 0.463020
vt 0.775809 0.455283
vt 0.775832 0.439827
vt 0.783547 0.432112
vt 0.770292 0.489632
vt 0.770268 0.473401
vt 0.822154 0.473477
vt 0.822206 0.489818
vt 0.763144 0.490649
vt 0.763225 0.473390
vt 0.829205 0.490722
vt 0.829198 0.473488
vt 0.770620 0.494427
vt 0.821661 0.494513
vt 0.818805 0.517461
vt 0.773440 0.517385
vt 0.788339 0.647138
vt 0.803795 0.647148
vt 0.780612 0.647133
vt 0.765921 0.519243
vt 0.811521 0.647153
vt 0.826375 0.519333
vt 0.841905 0.433066
vt 0.948831 0.433224
vt 0.949046 0.462183
vt 0.841847 0.472378
vt 0.977509 0.433266
vt 0.972398 0.447089
vt 0.841845 0.473675
vt 0.948972 0.484225
vt 0.948713 0.513146
vt 0.841787 0.512987
vt 0.972271 0.499396
vt 0.977390 0.513188
vt 0.830450 0.432181
vt 0.830404 0.463090
vt 0.783501 0.463020
vt 0.775809 0.455283
vt 0.775832 0.439827
vt 0.783547 0.432112
vt 0.788339 0.647138
vt 0.780612 0.647133
vt 0.765921 0.519243
vt 0.773440 0.517385
vt 0.770620 0.494427
vt 0.770292 0.489632
vt 0.822206 0.489818
vt 0.821661 0.494513
vt 0.763144 0.490649
vt 0.763225 0.473390
vt 0.770268 0.473401
vt 0.811521 0.647153
vt 0.803795 0.647148
vt 0.818805 0.517461
vt 0.826375 0.519333
vt 0.829205 0.490722
vt 0.822154 0.473477
vt 0.829198 0.473488
vt 0.841905 0.433066
vt 0.948831 0.433224
vt 0.949046 0.462183
vt 0.841847 0.472378
vt 0.841845 0.473675
vt 0.948972 0.484225
vt 0.948713 0.513146
vt 0.841787 0.512987
vt 0.977509 0.433266
vt 0.972398 0.447089
vt 0.972271 0.499396
vt 0.977390 0.513188
vt 0.830450 0.432181
vt 0.830404 0.463090
vt 0.783501 0.463020
vt 0.775809 0.455283
vt 0.775832 0.439827
vt 0.783547 0.432112
vt 0.788339 0.647138
vt 0.780612 0.647133
vt 0.765921 0.519243
vt 0.773440 0.517385
vt 0.770620 0.494427
vt 0.770292 0.489632
vt 0.822206 0.489818
vt 0.821661 0.494513
vt 0.763144 0.490649
vt 0.763225 0.473390
vt 0.770268 0.473401
vt 0.811521 0.647153
vt 0.803795 0.647148
vt 0.818805 0.517461
vt 0.826375 0.519333
vt 0.829205 0.490722
vt 0.822154 0.473477
vt 0.829198 0.473488
vt 0.841905 0.433066
vt 0.948831 0.433224
vt 0.949046 0.462183
vt 0.841847 0.472378
vt 0.841845 0.473675
vt 0.948972 0.484225
vt 0.948713 0.513146
vt 0.841787 0.512987
vt 0.977509 0.433266
vt 0.972398 0.447089
vt 0.972271 0.499396
vt 0.977390 0.513188
vt 0.830450 0.432181
vt 0.830404 0.463090
vt 0.783501 0.463020
vt 0.775809 0.455283
vt 0.775832 0.439827
vt 0.783547 0.432112
vt 0.788339 0.647138
vt 0.780612 0.647133
vt 0.765921 0.519243
vt 0.773440 0.517385
vt 0.770620 0.494427
vt 0.770292 0.489632
vt 0.822206 0.489818
vt 0.821661 0.494513
vt 0.763144 0.490649
vt 0.763225 0.473390
vt 0.770268 0.473401
vt 0.811521 0.647153
vt 0.803795 0.647148
vt 0.818805 0.517461
vt 0.826375 0.519333
vt 0.829205 0.490722
vt 0.822154 0.473477
vt 0.829198 0.473488
vt 0.841905 0.433066
vt 0.948831 0.433224
vt 0.949046 0.462183
vt 0.841847 0.472378
vt 0.841845 0.473675
vt 0.948972 0.484225
vt 0.948713 0.513146
vt 0.841787 0.512987
vt 0.977509 0.433266
vt 0.972398 0.447089
vt 0.972271 0.499396
vt 0.977390 0.513188
vt 0.123538 0.463047
vt 0.123470 0.504768
vt 0.069053 0.502639
vt 0.069121 0.460918
vt 0.123402 0.546488
vt 0.068985 0.544360
vt 0.123334 0.588209
vt 0.068917 0.586080
vt 0.123266 0.629930
vt 0.068849 0.627801
vt 0.123198 0.671650
vt 0.068781 0.669521
vt 0.123130 0.713371
vt 0.068713 0.711242
vt 0.123062 0.755091
vt 0.068645 0.752963
vt 0.122995 0.796812
vt 0.068577 0.794683
vt 0.122927 0.838532
vt 0.068509 0.836404
vt 0.124286 0.004121
vt 0.124218 0.045841
vt 0.069800 0.043713
vt 0.069868 0.001992
vt 0.124150 0.087562
vt 0.069732 0.085433
vt 0.124082 0.129283
vt 0.069665 0.127154
vt 0.124014 0.171003
vt 0.069597 0.168874
vt 0.123946 0.212724
vt 0.069529 0.210595
vt 0.123878 0.254444
vt 0.069461 0.252316
vt 0.123810 0.296165
vt 0.069393 0.294036
vt 0.123742 0.337885
vt 0.069325 0.335757
vt 0.123674 0.379606
vt 0.069257 0.377477
vt 0.123606 0.421327
vt 0.069189 0.419198
vt 0.672301 0.912899
vt 0.643424 0.900405
vt 0.697305 0.815491
vt 0.619821 0.879599
vt 0.603803 0.852517
vt 0.596938 0.821811
vt 0.599897 0.790487
vt 0.612391 0.761610
vt 0.633198 0.738007
vt 0.660279 0.721989
vt 0.690985 0.715123
vt 0.722310 0.718083
vt 0.751187 0.730577
vt 0.774789 0.751384
vt 0.790807 0.778465
vt 0.797673 0.809171
vt 0.794713 0.840496
vt 0.782219 0.869372
vt 0.761413 0.892975
vt 0.734331 0.908993
vt 0.703625 0.915859
vt 0.656666 0.992441
vt 0.603974 0.971222
vt 0.622566 0.937272
vt 0.663856 0.954407
vt 0.560419 0.934759
vt 0.588591 0.908216
vt 0.530262 0.886622
vt 0.565259 0.870083
vt 0.516457 0.831521
vt 0.554852 0.826606
vt 0.520355 0.774852
vt 0.558389 0.782042
vt 0.541574 0.722160
vt 0.575524 0.740752
vt 0.578037 0.678604
vt 0.604581 0.706777
vt 0.626174 0.648448
vt 0.642713 0.683444
vt 0.681275 0.634643
vt 0.686190 0.673037
vt 0.737945 0.638541
vt 0.730755 0.676575
vt 0.790636 0.659760
vt 0.772045 0.693710
vt 0.834192 0.696222
vt 0.806019 0.722766
vt 0.864348 0.744360
vt 0.829352 0.760899
vt 0.878153 0.799461
vt 0.839759 0.804376
vt 0.874255 0.856130
vt 0.836221 0.848940
vt 0.853037 0.908822
vt 0.819086 0.890231
vt 0.816574 0.952378
vt 0.790030 0.924205
vt 0.768436 0.982534
vt 0.751897 0.947538
vt 0.713336 0.996339
vt 0.708421 0.957945
vn 0.000000 0.000000 -1.000000
vn 0.000000 0.000000 -1.000000
vn 0.000000 0.000000 -1.000000
vn 0.000000 0.000000 -1.000000
vn 0.000000 0.000000 -1.000000
vn 0.000000 0.000000 -1.000000
vn -0.712610 0.701392 -0.015389
vn -0.712610 0.701392 -0.015389
vn -0.713957 0.696158 0.075028
vn -0.714067 0.699273 0.033568
vn 0.000258 0.800956 0.598724
vn -0.000384 0.494519 0.869167
vn -0.000384 0.494344 0.869266
vn 0.000257 0.800717 0.599043
vn -0.707702 0.292184 0.643262
vn -0.707924 0.511352 0.487199
vn -0.719100 0.248111 0.649104
vn -0.719100 0.248111 0.649104
vn 0.712637 0.701370 -0.015121
vn 0.712637 0.701370 -0.015121
vn 0.714083 0.699234 0.034023
vn 0.713955 0.696098 0.075603
vn 0.710906 0.510433 0.483808
vn 0.714510 0.290844 0.636306
vn 0.725278 0.244224 0.643682
vn 0.725278 0.244224 0.643682
vn -0.993392 -0.000060 -0.114768
vn -0.993700 -0.001609 -0.112065
vn -0.993592 -0.001061 -0.113023
vn -0.993392 -0.000060 -0.114768
vn -0.000010 0.995448 0.095308
vn 0.000154 0.969841 0.243738
vn 0.000153 0.969919 0.243429
vn -0.000010 0.995448 0.095308
vn 0.993393 -0.000050 -0.114764
vn 0.993592 -0.001043 -0.113025
vn 0.993700 -0.001593 -0.112060
vn 0.993393 -0.000050 -0.114764
vn -0.000388 0.367664 0.929959
vn -0.000388 0.367664 0.929959
vn -0.676849 0.639172 0.365151
vn 0.677199 0.639573 0.363797
vn -0.995551 -0.012277 -0.093422
vn -0.995551 -0.012277 -0.093422
vn 0.995553 -0.012220 -0.093403
vn 0.995553 -0.012220 -0.093403
vn 0.000000 -0.000000 1.000000
vn 0.000000 -0.000000 1.000000
vn 0.000000 -0.000000 1.000000
vn 0.000000 -0.000000 1.000000
vn 0.000000 -0.000000 1.000000
vn 0.000000 -0.000000 1.000000
vn 0.712611 0.701391 0.015389
vn 0.712611 0.701391 0.015389
vn 0.713959 0.696156 -0.075027
vn 0.714068 0.699271 -0.033567
vn -0.000259 0.800956 -0.598724
vn 0.000384 0.494519 -0.869167
vn 0.000384 0.494344 -0.869266
vn -0.000257 0.800717 -0.599043
vn 0.707704 0.292185 -0.643260
vn 0.707927 0.511350 -0.487196
vn 0.719101 0.248113 -0.649103
vn 0.719101 0.248113 -0.649103
vn -0.712636 0.701372 0.015121
vn -0.712636 0.701372 0.015121
vn -0.714081 0.699236 -0.034024
vn -0.713953 0.696100 -0.075604
vn -0.710903 0.510436 -0.483811
vn -0.714507 0.290848 -0.636307
vn -0.725275 0.244227 -0.643684
vn -0.725275 0.244227 -0.643684
vn 0.993392 -0.000059 0.114768
vn 0.993700 -0.001608 0.112065
vn 0.993592 -0.001060 0.113022
vn 0.993392 -0.000059 0.114768
vn 0.000010 0.995448 -0.095308
vn -0.000154 0.969841 -0.243739
vn -0.000153 0.969919 -0.243429
vn 0.000010 0.995448 -0.095308
vn -0.993393 -0.000050 0.114764
vn -0.993592 -0.001043 0.113025
vn -0.993700 -0.001593 0.112060
vn -0.993393 -0.000050 0.114764
vn 0.000388 0.367663 -0.929959
vn 0.000388 0.367663 -0.929959
vn 0.676854 0.639169 -0.365147
vn -0.677195 0.639575 -0.363800
vn 0.995551 -0.012275 0.093424
vn 0.995551 -0.012275 0.093424
vn -0.995553 -0.012218 0.093403
vn -0.995553 -0.012218 0.093403
vn -1.000000 -0.000000 0.000000
vn -1.000000 -0.000000 0.000000
vn -1.000000 -0.000000 0.000000
vn -1.000000 -0.000000 0.000000
vn -1.000000 -0.000000 0.000000
vn -1.000000 -0.000000 0.000000
vn -0.015389 0.701393 0.712609
vn -0.015389 0.701393 0.712609
vn 0.075028 0.696158 0.713958
vn 0.033567 0.699273 0.714066
vn 0.598724 0.800956 -0.000259
vn 0.869166 0.494520 0.000384
vn 0.869266 0.494344 0.000384
vn 0.599043 0.800717 -0.000257
vn 0.643259 0.292184 0.707705
vn 0.487197 0.511351 0.707927
vn 0.649101 0.248113 0.719102
vn 0.649101 0.248113 0.719102
vn -0.015121 0.701371 -0.712636
vn -0.015121 0.701371 -0.712636
vn 0.034024 0.699235 -0.714082
vn 0.075604 0.696100 -0.713953
vn 0.483809 0.510435 -0.710904
vn 0.636307 0.290847 -0.714508
vn 0.643684 0.244226 -0.725276
vn 0.643684 0.244226 -0.725276
vn -0.114768 -0.000060 0.993392
vn -0.112065 -0.001609 0.993700
vn -0.113022 -0.001061 0.993592
vn -0.114768 -0.000060 0.993392
vn 0.095308 0.995448 0.000010
vn 0.243739 0.969841 -0.000154
vn 0.243429 0.969919 -0.000153
vn 0.095308 0.995448 0.000010
vn -0.114764 -0.000050 -0.993393
vn -0.113025 -0.001043 -0.993592
vn -0.112060 -0.001593 -0.993700
vn -0.114764 -0.000050 -0.993393
vn 0.929959 0.367664 0.000388
vn 0.929959 0.367664 0.000388
vn 0.365149 0.639169 0.676852
vn 0.363798 0.639574 -0.677197
vn -0.093424 -0.012277 0.995551
vn -0.093424 -0.012277 0.995551
vn -0.093403 -0.012218 -0.995553
vn -0.093403 -0.012218 -0.995553
vn 1.000000 0.000000 0.000000
vn 1.000000 0.000000 0.000000
vn 1.000000 0.000000 0.000000
vn 1.000000 0.000000 0.000000
vn 1.000000 0.000000 0.000000
vn 1.000000 0.000000 0.000000
vn 0.015389 0.701393 -0.712609
vn 0.015389 0.701393 -0.712609
vn -0.075028 0.696158 -0.713957
vn -0.033567 0.699273 -0.714066
vn -0.598724 0.800955 0.000259
vn -0.869165 0.494522 -0.000384
vn -0.869265 0.494347 -0.000384
vn -0.599044 0.800716 0.000257
vn -0.643262 0.292187 -0.707701
vn -0.487199 0.511352 -0.707924
vn -0.649104 0.248115 -0.719099
vn -0.649104 0.248115 -0.719099
vn 0.015121 0.701371 0.712636
vn 0.015121 0.701371 0.712636
vn -0.034024 0.699235 0.714082
vn -0.075604 0.696100 0.713953
vn -0.483810 0.510435 0.710903
vn -0.636308 0.290849 0.714506
vn -0.643685 0.244228 0.725274
vn -0.643685 0.244228 0.725274
vn 0.114768 -0.000060 -0.993392
vn 0.112065 -0.001609 -0.993700
vn 0.113022 -0.001061 -0.993592
vn 0.114768 -0.000060 -0.993392
vn -0.095308 0.995448 -0.000010
vn -0.243739 0.969841 0.000154
vn -0.243429 0.969919 0.000153
vn -0.095308 0.995448 -0.000010
vn 0.114764 -0.000050 0.993393
vn 0.113025 -0.001043 0.993592
vn 0.112060 -0.001593 0.993700
vn 0.114764 -0.000050 0.993393
vn -0.929956 0.367670 -0.000388
vn -0.929956 0.367670 -0.000388
vn -0.365149 0.639171 -0.676850
vn -0.363799 0.639575 0.677196
vn 0.093424 -0.012277 -0.995551
vn 0.093424 -0.012277 -0.995551
vn 0.093403 -0.012219 0.995553
vn 0.093403 -0.012219 0.995553
vn 0.951057 0.000000 -0.309016
vn 0.809017 0.000000 -0.587785
vn 0.801503 0.135975 -0.582326
vn 0.942223 0.135976 -0.306146
vn 0.587785 0.000000 -0.809017
vn 0.582326 0.135976 -0.801503
vn 0.309017 0.000000 -0.951056
vn 0.306147 0.135976 -0.942223
vn -0.000000 0.000000 -1.000000
vn -0.000000 0.135976 -0.990712
vn -0.309017 0.000000 -0.951057
vn -0.306147 0.135976 -0.942223
vn -0.587786 0.000000 -0.809017
vn -0.582326 0.135976 -0.801503
vn -0.809017 0.000000 -0.587785
vn -0.801503 0.135976 -0.582326
vn -0.951057 0.000000 -0.309017
vn -0.942223 0.135976 -0.306147
vn -1.000000 0.000000 0.000000
vn -0.990712 0.135976 0.000000
vn -0.951056 0.000000 0.309017
vn -0.942223 0.135976 0.306147
vn -0.809017 0.000000 0.587785
vn -0.801503 0.135976 0.582326
vn -0.587785 0.000000 0.809017
vn -0.582326 0.135976 0.801503
vn -0.309017 0.000000 0.951057
vn -0.306146 0.135976 0.942223
vn 0.000000 0.000000 1.000000
vn 0.000000 0.135976 0.990712
vn 0.309017 0.000000 0.951057
vn 0.306147 0.135976 0.942223
vn 0.587785 0.000000 0.809017
vn 0.582326 0.135976 0.801503
vn 0.809017 0.000000 0.587785
vn 0.801503 0.135976 0.582326
vn 0.951057 0.000000 0.309017
vn 0.942223 0.135976 0.306147
vn 1.000000 0.000000 0.000001
vn 0.990712 0.135976 0.000001
vn 0.113659 0.992833 -0.036930
vn 0.096684 0.992833 -0.070245
vn 0.000000 1.000000 -0.000000
vn 0.070245 0.992833 -0.096684
vn 0.036930 0.992833 -0.113659
vn 0.000000 0.992833 -0.119508
vn -0.036930 0.992833 -0.113659
vn -0.070245 0.992833 -0.096684
vn -0.096684 0.992833 -0.070245
vn -0.113659 0.992833 -0.036930
vn -0.119508 0.992833 0.000000
vn -0.113659 0.992833 0.036930
vn -0.096684 0.992833 0.070245
vn -0.070245 0.992833 0.096684
vn -0.036930 0.992833 0.113659
vn 0.000000 0.992833 0.119508
vn 0.036930 0.992833 0.113659
vn 0.070245 0.992833 0.096684
vn 0.096684 0.992833 0.070245
vn 0.113659 0.992833 0.036930
vn 0.119508 0.992833 0.000000
vn 0.371773 0.888159 -0.270109
vn 0.437045 0.888159 -0.142004
vn 0.270109 0.888159 -0.371773
vn 0.142004 0.888159 -0.437045
vn 0.000000 0.888159 -0.459536
vn -0.142004 0.888159 -0.437045
vn -0.270109 0.888159 -0.371772
vn -0.371773 0.888159 -0.270108
vn -0.437045 0.888159 -0.142004
vn -0.459536 0.888159 0.000000
vn -0.437045 0.888159 0.142004
vn -0.371772 0.888159 0.270108
vn -0.270108 0.888159 0.371772
vn -0.142004 0.888159 0.437045
vn 0.000000 0.888159 0.459536
vn 0.142004 0.888159 0.437045
vn 0.270108 0.888159 0.371772
vn 0.371773 0.888159 0.270108
vn 0.437045 0.888159 0.142004
vn 0.459536 0.888159 0.000000
s off
g pCube27
usemtl lambert2SG
f 2/1/1 1/2/2 4/3/3 3/4/4 9/5/5 8/6/6
s 1
f 3/19/7 4/21/8 18/22/9 19/18/10
s 2
f 5/15/11 7/7/12 12/10/13 11/16/14
s 1
f 7/7/15 6/11/16 14/12/17 13/8/18
s 4
f 8/23/19 9/20/20 20/17/21 21/24/22
f 10/13/23 12/10/24 16/9/25 15/14/26
s 6
f 1/25/27 17/26/28 18/27/29 4/28/30
s 2
f 3/19/31 19/18/32 20/17/33 9/20/34
s 7
f 8/31/35 21/32/36 22/33/37 2/34/38
s 2
f 7/7/12 13/8/39 16/9/40 12/10/13
s 1
f 5/15/41 6/11/16 7/7/15
s 4
f 10/13/23 11/16/42 12/10/24
s 6
f 18/27/29 17/26/28 14/29/43 6/30/44
s 1
f 19/18/10 18/22/9 6/11/16 5/15/41
s 2
f 20/17/33 19/18/32 5/15/11 11/16/14
s 4
f 21/24/22 20/17/21 11/16/42 10/13/23
s 7
f 22/33/37 21/32/36 10/35/45 15/36/46
s off
f 24/37/47 23/38/48 26/39/49 25/40/50 31/41/51 30/42/52
s 8
f 25/43/53 26/44/54 40/45/55 41/46/56
s 9
f 27/47/57 29/48/58 34/49/59 33/50/60
s 8
f 29/48/61 28/51/62 36/52/63 35/53/64
s 11
f 30/54/65 31/55/66 42/56/67 43/57/68
f 32/58/69 34/49/70 38/59/71 37/60/72
s 13
f 23/61/73 39/62/74 40/63/75 26/64/76
s 9
f 25/43/77 41/46/78 42/56/79 31/55/80
s 14
f 30/65/81 43/66/82 44/67/83 24/68/84
s 9
f 29/48/58 35/53/85 38/59/86 34/49/59
s 8
f 27/47/87 28/51/62 29/48/61
s 11
f 32/58/69 33/50/88 34/49/70
s 13
f 40/63/75 39/62/74 36/69/89 28/70/90
s 8
f 41/46/56 40/45/55 28/51/62 27/47/87
s 9
f 42/56/79 41/46/78 27/47/57 33/50/60
s 11
f 43/57/68 42/56/67 33/50/88 32/58/69
s 14
f 44/67/83 43/66/82 32/71/91 37/72/92
s off
f 46/73/93 45/74/94 48/75/95 47/76/96 53/77/97 52/78/98
s 15
f 47/79/99 48/80/100 62/81/101 63/82/102
s 16
f 49/83/103 51/84/104 56/85/105 55/86/106
s 15
f 51/84/107 50/87/108 58/88/109 57/89/110
s 18
f 52/90/111 53/91/112 64/92/113 65/93/114
f 54/94/115 56/85/116 60/95/117 59/96/118
s 20
f 45/97/119 61/98/120 62/99/121 48/100/122
s 16
f 47/79/123 63/82/124 64/92/125 53/91/126
s 21
f 52/101/127 65/102/128 66/103/129 46/104/130
s 16
f 51/84/104 57/89/131 60/95/132 56/85/105
s 15
f 49/83/133 50/87/108 51/84/107
s 18
f 54/94/115 55/86/134 56/85/116
s 20
f 62/99/121 61/98/120 58/105/135 50/106/136
s 15
f 63/82/102 62/81/101 50/87/108 49/83/133
s 16
f 64/92/125 63/82/124 49/83/103 55/86/106
s 18
f 65/93/114 64/92/113 55/86/134 54/94/115
s 21
f 66/103/129 65/102/128 54/107/137 59/108/138
s off
f 68/109/139 67/110/140 70/111/141 69/112/142 75/113/143 74/114/144
s 22
f 69/115/145 70/116/146 84/117/147 85/118/148
s 23
f 71/119/149 73/120/150 78/121/151 77/122/152
s 22
f 73/120/153 72/123/154 80/124/155 79/125/156
s 25
f 74/126/157 75/127/158 86/128/159 87/129/160
f 76/130/161 78/121/162 82/131/163 81/132/164
s 27
f 67/133/165 83/134/166 84/135/167 70/136/168
s 23
f 69/115/169 85/118/170 86/128/171 75/127/172
s 28
f 74/137/173 87/138/174 88/139/175 68/140/176
s 23
f 73/120/150 79/125/177 82/131/178 78/121/151
s 22
f 71/119/179 72/123/154 73/120/153
s 25
f 76/130/161 77/122/180 78/121/162
s 27
f 84/135/167 83/134/166 80/141/181 72/142/182
s 22
f 85/118/148 84/117/147 72/123/154 71/119/179
s 23
f 86/128/171 85/118/170 71/119/149 77/122/152
s 25
f 87/129/160 86/128/159 77/122/180 76/130/161
s 28
f 88/139/175 87/138/174 76/143/183 81/144/184
s 29
f 89/145/185 90/146/186 110/147/187 109/148/188
f 90/146/186 91/149/189 111/150/190 110/147/187
f 91/149/189 92/151/191 112/152/192 111/150/190
f 92/151/191 93/153/193 113/154/194 112/152/192
f 93/153/193 94/155/195 114/156/196 113/154/194
f 94/155/195 95/157/197 115/158/198 114/156/196
f 95/157/197 96/159/199 116/160/200 115/158/198
f 96/159/199 97/161/201 117/162/202 116/160/200
f 97/161/201 98/163/203 118/164/204 117/162/202
f 98/165/203 99/166/205 119/167/206 118/168/204
f 99/166/205 100/169/207 120/170/208 119/167/206
f 100/169/207 101/171/209 121/172/210 120/170/208
f 101/171/209 102/173/211 122/174/212 121/172/210
f 102/173/211 103/175/213 123/176/214 122/174/212
f 103/175/213 104/177/215 124/178/216 123/176/214
f 104/177/215 105/179/217 125/180/218 124/178/216
f 105/179/217 106/181/219 126/182/220 125/180/218
f 106/181/219 107/183/221 127/184/222 126/182/220
f 107/183/221 108/185/223 128/186/224 127/184/222
f 108/185/223 89/145/185 109/148/188 128/186/224
f 149/187/225 150/188/226 151/189/227
f 150/188/226 152/190/228 151/189/227
f 152/190/228 153/191/229 151/189/227
f 153/191/229 154/192/230 151/189/227
f 154/192/230 155/193/231 151/189/227
f 155/193/231 156/194/232 151/189/227
f 156/194/232 157/195/233 151/189/227
f 157/195/233 158/196/234 151/189/227
f 158/196/234 159/197/235 151/189/227
f 159/197/235 160/198/236 151/189/227
f 160/198/236 161/199/237 151/189/227
f 161/199/237 162/200/238 151/189/227
f 162/200/238 163/201/239 151/189/227
f 163/201/239 164/202/240 151/189/227
f 164/202/240 165/203/241 151/189/227
f 165/203/241 166/204/242 151/189/227
f 166/204/242 167/205/243 151/189/227
f 167/205/243 168/206/244 151/189/227
f 168/206/244 169/207/245 151/189/227
f 169/207/245 149/187/225 151/189/227
f 109/208/188 110/209/187 130/210/246 129/211/247
f 110/209/187 111/212/190 131/213/248 130/210/246
f 111/212/190 112/214/192 132/215/249 131/213/248
f 112/214/192 113/216/194 133/217/250 132/215/249
f 113/216/194 114/218/196 134/219/251 133/217/250
f 114/218/196 115/220/198 135/221/252 134/219/251
f 115/220/198 116/222/200 136/223/253 135/221/252
f 116/222/200 117/224/202 137/225/254 136/223/253
f 117/224/202 118/226/204 138/227/255 137/225/254
f 118/226/204 119/228/206 139/229/256 138/227/255
f 119/228/206 120/230/208 140/231/257 139/229/256
f 120/230/208 121/232/210 141/233/258 140/231/257
f 121/232/210 122/234/212 142/235/259 141/233/258
f 122/234/212 123/236/214 143/237/260 142/235/259
f 123/236/214 124/238/216 144/239/261 143/237/260
f 124/238/216 125/240/218 145/241/262 144/239/261
f 125/240/218 126/242/220 146/243/263 145/241/262
f 126/242/220 127/244/222 147/245/264 146/243/263
f 127/244/222 128/246/224 148/247/265 147/245/264
f 128/246/224 109/208/188 129/211/247 148/247/265
f 129/211/247 130/210/246 150/188/226 149/187/225
f 130/210/246 131/213/248 152/190/228 150/188/226
f 131/213/248 132/215/249 153/191/229 152/190/228
f 132/215/249 133/217/250 154/192/230 153/191/229
f 133/217/250 134/219/251 155/193/231 154/192/230
f 134/219/251 135/221/252 156/194/232 155/193/231
f 135/221/252 136/223/253 157/195/233 156/194/232
f 136/223/253 137/225/254 158/196/234 157/195/233
f 137/225/254 138/227/255 159/197/235 158/196/234
f 138/227/255 139/229/256 160/198/236 159/197/235
f 139/229/256 140/231/257 161/199/237 160/198/236
f 140/231/257 141/233/258 162/200/238 161/199/237
f 141/233/258 142/235/259 163/201/239 162/200/238
f 142/235/259 143/237/260 164/202/240 163/201/239
f 143/237/260 144/239/261 165/203/241 164/202/240
f 144/239/261 145/241/262 166/204/242 165/203/241
f 145/241/262 146/243/263 167/205/243 166/204/242
f 146/243/263 147/245/264 168/206/244 167/205/243
f 147/245/264 148/247/265 169/207/245 168/206/244
f 148/247/265 129/211/247 149/187/225 169/207/245
