# This file uses centimeters as units for non-parametric coordinates.

mtllib M_Button.mtl
g default
v 1.989931 -0.010269 -0.646567
v 1.692736 -0.010269 -1.229844
v 1.229845 -0.010269 -1.692736
v 0.646567 -0.010269 -1.989930
v 0.000000 -0.010269 -2.092336
v -0.646568 -0.010269 -1.989930
v -1.229845 -0.010269 -1.692735
v -1.692736 -0.010269 -1.229844
v -1.989931 -0.010269 -0.646567
v -2.092336 -0.010269 0.000000
v -1.989931 -0.010269 0.646568
v -1.692736 -0.010269 1.229845
v -1.229845 -0.010269 1.692736
v -0.646567 -0.010269 1.989931
v 0.000000 -0.010269 2.092336
v 0.646567 -0.010269 1.989930
v 1.229844 -0.010269 1.692736
v 1.692735 -0.010269 1.229845
v 1.989929 -0.010269 0.646568
v 2.092336 -0.010269 0.000000
v 1.989931 0.810706 -0.646567
v 1.692736 0.810706 -1.229844
v 1.229845 0.810706 -1.692736
v 0.646567 0.810706 -1.989930
v 0.000000 0.810706 -2.092336
v -0.646568 0.810706 -1.989930
v -1.229845 0.810706 -1.692735
v -1.692736 0.810706 -1.229844
v -1.989931 0.810706 -0.646567
v -2.092336 0.810706 0.000000
v -1.989931 0.810706 0.646568
v -1.692736 0.810706 1.229845
v -1.229845 0.810706 1.692736
v -0.646567 0.810706 1.989931
v 0.000000 0.810706 2.092336
v 0.646567 0.810706 1.989930
v 1.229844 0.810706 1.692736
v 1.692735 0.810706 1.229845
v 1.989929 0.810706 0.646568
v 2.092336 0.810706 0.000000
v 1.852800 0.943639 -0.602011
v 1.576086 0.943639 -1.145092
v 1.145092 0.943639 -1.576086
v 0.602012 0.943639 -1.852800
v 0.000000 0.943639 -1.948148
v -0.602012 0.943639 -1.852800
v -1.145093 0.943639 -1.576086
v -1.576086 0.943639 -1.145092
v -1.852800 0.943639 -0.602011
v -1.948148 0.943639 0.000000
v -1.852800 0.943639 0.602012
v -1.576086 0.943639 1.145093
v -1.145092 0.943639 1.576087
v -0.602011 0.943639 1.852801
v 0.000000 0.943639 1.948148
v 0.602011 0.943639 1.852800
v 1.145092 0.943639 1.576086
v 1.576086 0.943639 1.145093
v 1.852799 0.943639 0.602012
v 1.948147 0.943639 0.000000
v 1.496059 1.058278 -0.486099
v 1.272625 1.058278 -0.924615
v 0.000000 1.058278 0.000000
v 0.924615 1.058278 -1.272624
v 0.486099 1.058278 -1.496059
v 0.000000 1.058278 -1.573051
v -0.486099 1.058278 -1.496059
v -0.924616 1.058278 -1.272624
v -1.272625 1.058278 -0.924615
v -1.496058 1.058278 -0.486099
v -1.573051 1.058278 0.000000
v -1.496058 1.058278 0.486100
v -1.272625 1.058278 0.924616
v -0.924616 1.058278 1.272625
v -0.486099 1.058278 1.496059
v 0.000000 1.058278 1.573051
v 0.486099 1.058278 1.496059
v 0.924615 1.058278 1.272625
v 1.272624 1.058278 0.924616
v 1.496058 1.058278 0.486100
v 1.573050 1.058278 0.000000
vt 0.123538 0.463047
vt 0.123470 0.504768
vt 0.123402 0.546488
vt 0.123334 0.588209
vt 0.123266 0.629930
vt 0.123198 0.671650
vt 0.123130 0.713371
vt 0.123062 0.755091
vt 0.122995 0.796812
vt 0.122927 0.838532
vt 0.124218 0.045841
vt 0.124150 0.087562
vt 0.124082 0.129283
vt 0.124014 0.171003
vt 0.123946 0.212724
vt 0.123878 0.254444
vt 0.123810 0.296165
vt 0.123742 0.337885
vt 0.123674 0.379606
vt 0.123606 0.421327
vt 0.283275 0.965749
vt 0.228247 0.943590
vt 0.182760 0.905510
vt 0.151266 0.855238
vt 0.136849 0.797694
vt 0.140919 0.738512
vt 0.163079 0.683484
vt 0.201159 0.637997
vt 0.251431 0.606503
vt 0.308975 0.592086
vt 0.368157 0.596157
vt 0.423185 0.618316
vt 0.468672 0.656396
vt 0.500165 0.706668
vt 0.514582 0.764212
vt 0.510512 0.823394
vt 0.488352 0.878422
vt 0.450273 0.923909
vt 0.400001 0.955403
vt 0.342457 0.969820
vt 0.325716 0.780953
vt 0.290783 0.926029
vt 0.247662 0.908134
vt 0.212181 0.877789
vt 0.187814 0.837965
vt 0.176946 0.792561
vt 0.180640 0.746021
vt 0.198535 0.702900
vt 0.228880 0.667419
vt 0.268703 0.643051
vt 0.314107 0.632183
vt 0.360648 0.635877
vt 0.403769 0.653772
vt 0.439250 0.684117
vt 0.463617 0.723940
vt 0.474486 0.769345
vt 0.470792 0.815885
vt 0.452896 0.859006
vt 0.422552 0.894487
vt 0.382728 0.918855
vt 0.337324 0.929723
vt 0.299603 0.882680
vt 0.269445 0.869632
vt 0.244796 0.847903
vt 0.228068 0.819621
vt 0.220898 0.787553
vt 0.223988 0.754840
vt 0.237037 0.724683
vt 0.258765 0.700033
vt 0.287048 0.683305
vt 0.319115 0.676135
vt 0.351829 0.679226
vt 0.381986 0.692274
vt 0.406636 0.714003
vt 0.423364 0.742285
vt 0.430534 0.774353
vt 0.427443 0.807066
vt 0.414395 0.837223
vt 0.392666 0.861873
vt 0.364384 0.878601
vt 0.332316 0.885771
vt 0.069189 0.419198
vt 0.069121 0.460918
vt 0.069257 0.377477
vt 0.069325 0.335757
vt 0.069393 0.294036
vt 0.069461 0.252316
vt 0.069529 0.210595
vt 0.069597 0.168874
vt 0.069665 0.127154
vt 0.069732 0.085433
vt 0.069800 0.043713
vt 0.069868 0.001992
vt 0.068577 0.794683
vt 0.068645 0.752963
vt 0.068713 0.711242
vt 0.068781 0.669521
vt 0.068849 0.627801
vt 0.068917 0.586080
vt 0.068985 0.544360
vt 0.069053 0.502639
vt 0.124286 0.004121
vt 0.068509 0.836404
vn 0.951057 0.000000 -0.309016
vn 0.809017 0.000000 -0.587785
vn 0.801503 0.135977 -0.582326
vn 0.942223 0.135977 -0.306146
vn 0.587785 0.000000 -0.809017
vn 0.582326 0.135976 -0.801503
vn 0.309017 0.000000 -0.951057
vn 0.306147 0.135976 -0.942223
vn -0.000000 0.000000 -1.000000
vn -0.000000 0.135976 -0.990712
vn -0.309017 0.000000 -0.951057
vn -0.306147 0.135976 -0.942223
vn -0.587786 0.000000 -0.809017
vn -0.582327 0.135976 -0.801503
vn -0.809017 0.000000 -0.587785
vn -0.801503 0.135976 -0.582326
vn -0.951057 0.000000 -0.309017
vn -0.942223 0.135976 -0.306146
vn -1.000000 0.000000 0.000000
vn -0.990712 0.135976 -0.000000
vn -0.951057 0.000000 0.309017
vn -0.942223 0.135976 0.306146
vn -0.809017 0.000000 0.587785
vn -0.801503 0.135976 0.582326
vn -0.587785 0.000000 0.809017
vn -0.582326 0.135976 0.801503
vn -0.309016 0.000000 0.951057
vn -0.306146 0.135976 0.942223
vn 0.000000 0.000000 1.000000
vn 0.000000 0.135976 0.990712
vn 0.309017 0.000000 0.951057
vn 0.306147 0.135976 0.942223
vn 0.587786 0.000000 0.809017
vn 0.582326 0.135976 0.801503
vn 0.809017 0.000000 0.587785
vn 0.801503 0.135975 0.582326
vn 0.951056 0.000000 0.309017
vn 0.942223 0.135975 0.306147
vn 1.000000 0.000000 0.000001
vn 0.990712 0.135977 0.000001
vn 0.113659 0.992833 -0.036930
vn 0.096684 0.992833 -0.070245
vn 0.000000 1.000000 0.000000
vn 0.070245 0.992833 -0.096684
vn 0.036930 0.992833 -0.113659
vn -0.000000 0.992833 -0.119508
vn -0.036930 0.992833 -0.113659
vn -0.070245 0.992833 -0.096684
vn -0.096684 0.992833 -0.070245
vn -0.113659 0.992833 -0.036930
vn -0.119509 0.992833 0.000000
vn -0.113659 0.992833 0.036930
vn -0.096684 0.992833 0.070245
vn -0.070245 0.992833 0.096684
vn -0.036930 0.992833 0.113659
vn -0.000000 0.992833 0.119508
vn 0.036930 0.992833 0.113659
vn 0.070245 0.992833 0.096684
vn 0.096684 0.992833 0.070245
vn 0.113659 0.992833 0.036930
vn 0.119508 0.992833 0.000000
vn 0.371772 0.888160 -0.270108
vn 0.437045 0.888159 -0.142004
vn 0.270108 0.888159 -0.371772
vn 0.142005 0.888159 -0.437045
vn -0.000000 0.888159 -0.459536
vn -0.142004 0.888159 -0.437045
vn -0.270109 0.888159 -0.371772
vn -0.371772 0.888159 -0.270108
vn -0.437045 0.888159 -0.142004
vn -0.459536 0.888159 -0.000000
vn -0.437045 0.888159 0.142004
vn -0.371772 0.888159 0.270108
vn -0.270108 0.888159 0.371772
vn -0.142004 0.888159 0.437045
vn 0.000000 0.888159 0.459536
vn 0.142004 0.888159 0.437045
vn 0.270108 0.888159 0.371772
vn 0.371773 0.888159 0.270109
vn 0.437046 0.888159 0.142004
vn 0.459536 0.888159 0.000000
s 1
g Button
usemtl lambert2SG
f 1/1/1 2/2/2 22/101/3 21/83/4
f 2/2/2 3/3/5 23/100/6 22/101/3
f 3/3/5 4/4/7 24/99/8 23/100/6
f 4/4/7 5/5/9 25/98/10 24/99/8
f 5/5/9 6/6/11 26/97/12 25/98/10
f 6/6/11 7/7/13 27/96/14 26/97/12
f 7/7/13 8/8/15 28/95/16 27/96/14
f 8/8/15 9/9/17 29/94/18 28/95/16
f 9/9/17 10/10/19 30/103/20 29/94/18
f 10/102/19 11/11/21 31/92/22 30/93/20
f 11/11/21 12/12/23 32/91/24 31/92/22
f 12/12/23 13/13/25 33/90/26 32/91/24
f 13/13/25 14/14/27 34/89/28 33/90/26
f 14/14/27 15/15/29 35/88/30 34/89/28
f 15/15/29 16/16/31 36/87/32 35/88/30
f 16/16/31 17/17/33 37/86/34 36/87/32
f 17/17/33 18/18/35 38/85/36 37/86/34
f 18/18/35 19/19/37 39/84/38 38/85/36
f 19/19/37 20/20/39 40/82/40 39/84/38
f 20/20/39 1/1/1 21/83/4 40/82/40
f 61/62/41 62/63/42 63/41/43
f 62/63/42 64/64/44 63/41/43
f 64/64/44 65/65/45 63/41/43
f 65/65/45 66/66/46 63/41/43
f 66/66/46 67/67/47 63/41/43
f 67/67/47 68/68/48 63/41/43
f 68/68/48 69/69/49 63/41/43
f 69/69/49 70/70/50 63/41/43
f 70/70/50 71/71/51 63/41/43
f 71/71/51 72/72/52 63/41/43
f 72/72/52 73/73/53 63/41/43
f 73/73/53 74/74/54 63/41/43
f 74/74/54 75/75/55 63/41/43
f 75/75/55 76/76/56 63/41/43
f 76/76/56 77/77/57 63/41/43
f 77/77/57 78/78/58 63/41/43
f 78/78/58 79/79/59 63/41/43
f 79/79/59 80/80/60 63/41/43
f 80/80/60 81/81/61 63/41/43
f 81/81/61 61/62/41 63/41/43
f 21/21/4 22/22/3 42/43/62 41/42/63
f 22/22/3 23/23/6 43/44/64 42/43/62
f 23/23/6 24/24/8 44/45/65 43/44/64
f 24/24/8 25/25/10 45/46/66 44/45/65
f 25/25/10 26/26/12 46/47/67 45/46/66
f 26/26/12 27/27/14 47/48/68 46/47/67
f 27/27/14 28/28/16 48/49/69 47/48/68
f 28/28/16 29/29/18 49/50/70 48/49/69
f 29/29/18 30/30/20 50/51/71 49/50/70
f 30/30/20 31/31/22 51/52/72 50/51/71
f 31/31/22 32/32/24 52/53/73 51/52/72
f 32/32/24 33/33/26 53/54/74 52/53/73
f 33/33/26 34/34/28 54/55/75 53/54/74
f 34/34/28 35/35/30 55/56/76 54/55/75
f 35/35/30 36/36/32 56/57/77 55/56/76
f 36/36/32 37/37/34 57/58/78 56/57/77
f 37/37/34 38/38/36 58/59/79 57/58/78
f 38/38/36 39/39/38 59/60/80 58/59/79
f 39/39/38 40/40/40 60/61/81 59/60/80
f 40/40/40 21/21/4 41/42/63 60/61/81
f 41/42/63 42/43/62 62/63/42 61/62/41
f 42/43/62 43/44/64 64/64/44 62/63/42
f 43/44/64 44/45/65 65/65/45 64/64/44
f 44/45/65 45/46/66 66/66/46 65/65/45
f 45/46/66 46/47/67 67/67/47 66/66/46
f 46/47/67 47/48/68 68/68/48 67/67/47
f 47/48/68 48/49/69 69/69/49 68/68/48
f 48/49/69 49/50/70 70/70/50 69/69/49
f 49/50/70 50/51/71 71/71/51 70/70/50
f 50/51/71 51/52/72 72/72/52 71/71/51
f 51/52/72 52/53/73 73/73/53 72/72/52
f 52/53/73 53/54/74 74/74/54 73/73/53
f 53/54/74 54/55/75 75/75/55 74/74/54
f 54/55/75 55/56/76 76/76/56 75/75/55
f 55/56/76 56/57/77 77/77/57 76/76/56
f 56/57/77 57/58/78 78/78/58 77/77/57
f 57/58/78 58/59/79 79/79/59 78/78/58
f 58/59/79 59/60/80 80/80/60 79/79/59
f 59/60/80 60/61/81 81/81/61 80/80/60
f 60/61/81 41/42/63 61/62/41 81/81/61
