# This file uses centimeters as units for non-parametric coordinates.

mtllib M_ButtonPillar.mtl
g default
v -0.000772 1.005853 -0.160251
v -0.082689 1.005853 -0.145466
v -0.146239 1.005853 -0.091703
v -0.174393 1.005853 -0.013369
v -0.159607 1.005853 0.068548
v -0.105844 1.005853 0.132097
v -0.027510 1.005853 0.160251
v 0.054407 1.005853 0.145466
v 0.117956 1.005853 0.091703
v 0.146110 1.005853 0.013369
v 0.131325 1.005853 -0.068548
v 0.077562 1.005853 -0.132097
v -0.001228 1.047473 -0.154791
v -0.080354 1.047473 -0.140509
v -0.141737 1.047473 -0.088579
v -0.168932 1.047473 -0.012913
v -0.154651 1.047473 0.066212
v -0.102720 1.047473 0.127596
v -0.027054 1.047473 0.154791
v 0.052071 1.047473 0.140509
v 0.113455 1.047473 0.088579
v 0.140650 1.047473 0.012913
v 0.126368 1.047473 -0.066212
v 0.074437 1.047473 -0.127596
v -0.002564 1.086257 -0.138782
v -0.073506 1.086257 -0.125977
v -0.128541 1.086257 -0.079417
v -0.152923 1.086257 -0.011578
v -0.140119 1.086257 0.059364
v -0.093559 1.086257 0.114400
v -0.025719 1.086257 0.138782
v 0.045223 1.086257 0.125977
v 0.100259 1.086257 0.079417
v 0.124641 1.086257 0.011578
v 0.111836 1.086257 -0.059364
v 0.065276 1.086257 -0.114400
v -0.004688 1.119561 -0.113315
v -0.062612 1.119561 -0.102860
v -0.107548 1.119561 -0.064844
v -0.127456 1.119561 -0.009453
v -0.117001 1.119561 0.048471
v -0.078985 1.119561 0.093407
v -0.023594 1.119561 0.113315
v 0.034330 1.119561 0.102860
v 0.079266 1.119561 0.064844
v 0.099174 1.119561 0.009453
v 0.088719 1.119561 -0.048471
v 0.050703 1.119561 -0.093407
v -0.007457 1.145117 -0.080126
v -0.048415 1.145117 -0.072733
v -0.080190 1.145117 -0.045852
v -0.094267 1.145117 -0.006684
v -0.086874 1.145117 0.034274
v -0.059993 1.145117 0.066049
v -0.020825 1.145117 0.080126
v 0.020133 1.145117 0.072733
v 0.051908 1.145117 0.045852
v 0.065985 1.145117 0.006684
v 0.058592 1.145117 -0.034274
v 0.031711 1.145117 -0.066049
v -0.010681 1.161182 -0.041476
v -0.031883 1.161182 -0.037649
v -0.048330 1.161182 -0.023735
v -0.055617 1.161182 -0.003460
v -0.051791 1.161182 0.017742
v -0.037876 1.161182 0.034189
v -0.017601 1.161182 0.041476
v 0.003600 1.161182 0.037649
v 0.020048 1.161182 0.023735
v 0.027335 1.161182 0.003460
v 0.023508 1.161182 -0.017742
v 0.009593 1.161182 -0.034189
v -0.014141 1.166661 0.000000
vt 0.611236 0.582072
vt 0.571675 0.593385
vt 0.571429 0.578701
vt 0.603681 0.569478
vt 0.531758 0.583403
vt 0.538887 0.570563
vt 0.502180 0.554799
vt 0.514774 0.547244
vt 0.490867 0.515238
vt 0.505551 0.514992
vt 0.500849 0.475321
vt 0.513689 0.482450
vt 0.529453 0.445743
vt 0.537008 0.458337
vt 0.569014 0.434430
vt 0.569260 0.449114
vt 0.608931 0.444413
vt 0.601802 0.457252
vt 0.638509 0.473017
vt 0.625915 0.480572
vt 0.649822 0.512577
vt 0.635138 0.512823
vt 0.639839 0.552494
vt 0.627000 0.545365
vt 0.571202 0.565117
vt 0.596692 0.557828
vt 0.545482 0.558685
vt 0.526424 0.540255
vt 0.519135 0.514765
vt 0.525567 0.489046
vt 0.543997 0.469988
vt 0.569487 0.462698
vt 0.595207 0.469130
vt 0.614264 0.487561
vt 0.621554 0.513050
vt 0.615122 0.538770
vt 0.571044 0.555720
vt 0.591857 0.549768
vt 0.550044 0.550468
vt 0.534484 0.535420
vt 0.528532 0.514608
vt 0.533784 0.493608
vt 0.548832 0.478047
vt 0.569644 0.472095
vt 0.590644 0.477347
vt 0.606205 0.492395
vt 0.612157 0.513208
vt 0.606905 0.534208
vt 0.570839 0.543473
vt 0.585556 0.539265
vt 0.555990 0.539760
vt 0.544987 0.529119
vt 0.540779 0.514403
vt 0.544492 0.499554
vt 0.555133 0.488550
vt 0.569849 0.484342
vt 0.584699 0.488056
vt 0.595702 0.498696
vt 0.599910 0.513413
vt 0.596197 0.528262
vt 0.570601 0.529212
vt 0.578218 0.527034
vt 0.562914 0.527290
vt 0.557219 0.521782
vt 0.555040 0.514164
vt 0.556962 0.506477
vt 0.562470 0.500782
vt 0.570088 0.498603
vt 0.577775 0.500526
vt 0.583470 0.506034
vt 0.585649 0.513651
vt 0.583726 0.521338
vt 0.570344 0.513908
vn 0.082423 0.130526 -0.988013
vn -0.422626 0.130526 -0.896856
vn -0.412864 0.248837 -0.876141
vn 0.080519 0.248837 -0.965193
vn -0.814433 0.130526 -0.565387
vn -0.795622 0.248837 -0.552328
vn -0.988013 0.130526 -0.082423
vn -0.965193 0.248837 -0.080519
vn -0.896856 0.130526 0.422626
vn -0.876141 0.248837 0.412864
vn -0.565387 0.130526 0.814433
vn -0.552328 0.248837 0.795622
vn -0.082423 0.130526 0.988013
vn -0.080519 0.248837 0.965193
vn 0.422626 0.130526 0.896856
vn 0.412864 0.248837 0.876141
vn 0.814433 0.130526 0.565387
vn 0.795622 0.248837 0.552328
vn 0.988013 0.130526 0.082423
vn 0.965193 0.248837 0.080519
vn 0.896856 0.130526 -0.422626
vn 0.876141 0.248837 -0.412864
vn 0.565387 0.130526 -0.814433
vn 0.552328 0.248837 -0.795622
vn -0.373529 0.481822 -0.792668
vn 0.072848 0.481822 -0.873236
vn -0.719820 0.481822 -0.499706
vn -0.873236 0.481822 -0.072848
vn -0.792668 0.481822 0.373529
vn -0.499706 0.481822 0.719820
vn -0.072848 0.481822 0.873236
vn 0.373529 0.481822 0.792668
vn 0.719820 0.481822 0.499706
vn 0.873236 0.481822 0.072848
vn 0.792668 0.481822 -0.373529
vn 0.499706 0.481822 -0.719820
vn -0.311013 0.683862 -0.660003
vn 0.060656 0.683862 -0.727086
vn -0.599347 0.683862 -0.416072
vn -0.727086 0.683862 -0.060656
vn -0.660003 0.683862 0.311013
vn -0.416072 0.683862 0.599347
vn -0.060656 0.683862 0.727086
vn 0.311013 0.683862 0.660003
vn 0.599347 0.683862 0.416072
vn 0.727086 0.683862 0.060656
vn 0.660003 0.683862 -0.311013
vn 0.416072 0.683862 -0.599347
vn -0.230395 0.841352 -0.488923
vn 0.044933 0.841352 -0.538617
vn -0.443990 0.841352 -0.308222
vn -0.538617 0.841352 -0.044933
vn -0.488923 0.841351 0.230395
vn -0.308222 0.841352 0.443990
vn -0.044933 0.841352 0.538617
vn 0.230395 0.841352 0.488923
vn 0.443990 0.841352 0.308222
vn 0.538617 0.841352 0.044933
vn 0.488923 0.841351 -0.230395
vn 0.308222 0.841352 -0.443990
vn -0.142624 0.942366 -0.302664
vn 0.027816 0.942366 -0.333426
vn -0.274848 0.942366 -0.190802
vn -0.333426 0.942366 -0.027816
vn -0.302664 0.942366 0.142624
vn -0.190802 0.942366 0.274848
vn -0.027816 0.942366 0.333426
vn 0.142624 0.942366 0.302664
vn 0.274848 0.942366 0.190802
vn 0.333426 0.942366 0.027816
vn 0.302664 0.942366 -0.142624
vn 0.190802 0.942366 -0.274848
vn 0.000000 1.000000 0.000000
s 1
g pSphere1 Button_Pillar
usemtl lambert3SG
f 1/1/1 2/2/2 14/3/3 13/4/4
f 2/2/2 3/5/5 15/6/6 14/3/3
f 3/5/5 4/7/7 16/8/8 15/6/6
f 4/7/7 5/9/9 17/10/10 16/8/8
f 5/9/9 6/11/11 18/12/12 17/10/10
f 6/11/11 7/13/13 19/14/14 18/12/12
f 7/13/13 8/15/15 20/16/16 19/14/14
f 8/15/15 9/17/17 21/18/18 20/16/16
f 9/17/17 10/19/19 22/20/20 21/18/18
f 10/19/19 11/21/21 23/22/22 22/20/20
f 11/21/21 12/23/23 24/24/24 23/22/22
f 12/23/23 1/1/1 13/4/4 24/24/24
f 13/4/4 14/3/3 26/25/25 25/26/26
f 14/3/3 15/6/6 27/27/27 26/25/25
f 15/6/6 16/8/8 28/28/28 27/27/27
f 16/8/8 17/10/10 29/29/29 28/28/28
f 17/10/10 18/12/12 30/30/30 29/29/29
f 18/12/12 19/14/14 31/31/31 30/30/30
f 19/14/14 20/16/16 32/32/32 31/31/31
f 20/16/16 21/18/18 33/33/33 32/32/32
f 21/18/18 22/20/20 34/34/34 33/33/33
f 22/20/20 23/22/22 35/35/35 34/34/34
f 23/22/22 24/24/24 36/36/36 35/35/35
f 24/24/24 13/4/4 25/26/26 36/36/36
f 25/26/26 26/25/25 38/37/37 37/38/38
f 26/25/25 27/27/27 39/39/39 38/37/37
f 27/27/27 28/28/28 40/40/40 39/39/39
f 28/28/28 29/29/29 41/41/41 40/40/40
f 29/29/29 30/30/30 42/42/42 41/41/41
f 30/30/30 31/31/31 43/43/43 42/42/42
f 31/31/31 32/32/32 44/44/44 43/43/43
f 32/32/32 33/33/33 45/45/45 44/44/44
f 33/33/33 34/34/34 46/46/46 45/45/45
f 34/34/34 35/35/35 47/47/47 46/46/46
f 35/35/35 36/36/36 48/48/48 47/47/47
f 36/36/36 25/26/26 37/38/38 48/48/48
f 37/38/38 38/37/37 50/49/49 49/50/50
f 38/37/37 39/39/39 51/51/51 50/49/49
f 39/39/39 40/40/40 52/52/52 51/51/51
f 40/40/40 41/41/41 53/53/53 52/52/52
f 41/41/41 42/42/42 54/54/54 53/53/53
f 42/42/42 43/43/43 55/55/55 54/54/54
f 43/43/43 44/44/44 56/56/56 55/55/55
f 44/44/44 45/45/45 57/57/57 56/56/56
f 45/45/45 46/46/46 58/58/58 57/57/57
f 46/46/46 47/47/47 59/59/59 58/58/58
f 47/47/47 48/48/48 60/60/60 59/59/59
f 48/48/48 37/38/38 49/50/50 60/60/60
f 49/50/50 50/49/49 62/61/61 61/62/62
f 50/49/49 51/51/51 63/63/63 62/61/61
f 51/51/51 52/52/52 64/64/64 63/63/63
f 52/52/52 53/53/53 65/65/65 64/64/64
f 53/53/53 54/54/54 66/66/66 65/65/65
f 54/54/54 55/55/55 67/67/67 66/66/66
f 55/55/55 56/56/56 68/68/68 67/67/67
f 56/56/56 57/57/57 69/69/69 68/68/68
f 57/57/57 58/58/58 70/70/70 69/69/69
f 58/58/58 59/59/59 71/71/71 70/70/70
f 59/59/59 60/60/60 72/72/72 71/71/71
f 60/60/60 49/50/50 61/62/62 72/72/72
f 61/62/62 62/61/61 73/73/73
f 62/61/61 63/63/63 73/73/73
f 63/63/63 64/64/64 73/73/73
f 64/64/64 65/65/65 73/73/73
f 65/65/65 66/66/66 73/73/73
f 66/66/66 67/67/67 73/73/73
f 67/67/67 68/68/68 73/73/73
f 68/68/68 69/69/69 73/73/73
f 69/69/69 70/70/70 73/73/73
f 70/70/70 71/71/71 73/73/73
f 71/71/71 72/72/72 73/73/73
f 72/72/72 61/62/62 73/73/73
g default
v -0.123649 0.301114 0.117835
v 0.118077 0.301114 0.117835
v -0.131999 0.968589 0.125925
v 0.126427 0.968589 0.125925
v -0.131999 0.968589 -0.126027
v 0.126427 0.968589 -0.126027
v -0.123649 0.301114 -0.117835
v 0.118077 0.301114 -0.117835
v 0.043361 0.301114 0.117835
v 0.043361 0.301114 -0.117835
v 0.049037 0.968589 -0.126027
v 0.049037 0.968589 0.125925
v -0.046964 0.301114 0.117835
v -0.046964 0.301114 -0.117835
v -0.051450 0.968589 -0.126027
v -0.051450 0.968589 0.125925
v -0.091449 0.543507 0.086507
v -0.035602 0.543507 0.086507
v 0.031774 0.543507 0.086507
v 0.085877 0.543507 0.086507
v 0.085877 0.543507 -0.086376
v 0.031774 0.543507 -0.086376
v -0.035602 0.543507 -0.086376
v -0.091449 0.543507 -0.086376
v -0.094878 0.725935 -0.089673
v -0.046991 0.725935 -0.089673
v 0.048360 0.725935 -0.089673
v 0.089306 0.725935 -0.089673
v 0.089306 0.725935 0.089898
v 0.047779 0.725935 0.089898
v -0.054981 0.725957 0.090329
v -0.094878 0.725935 0.089898
v -0.131999 0.968589 -0.049355
v 0.126427 0.968589 -0.049355
v 0.089306 0.725935 -0.048783
v 0.085877 0.543507 -0.032668
v 0.118077 0.301114 -0.043565
v -0.123649 0.301114 -0.043565
v -0.091449 0.543507 -0.032668
v -0.094878 0.725935 -0.041623
v -0.131999 0.968589 0.049415
v 0.126427 0.968589 0.049415
v 0.089306 0.725935 0.050284
v 0.085877 0.543507 0.035096
v 0.118077 0.301114 0.048802
v -0.123649 0.301114 0.048802
v -0.091449 0.543507 0.035096
v -0.094878 0.725935 0.045456
v 0.026338 0.560634 -0.075115
v -0.029096 0.560634 -0.075115
v -0.038541 0.711520 -0.076431
v 0.039911 0.711520 -0.076431
v 0.038482 0.711215 0.076635
v -0.045543 0.711058 0.077006
v -0.029837 0.560975 0.075270
v 0.025353 0.560975 0.075270
v 0.076144 0.717470 0.045019
v 0.073856 0.553962 0.031449
v 0.073856 0.553962 -0.029113
v 0.076144 0.717470 -0.043518
v -0.080043 0.562682 -0.025752
v -0.081168 0.709693 -0.032958
v -0.080043 0.562682 0.028528
v -0.081168 0.709693 0.036792
v 0.168362 0.865429 0.012499
v 0.124769 0.865429 -0.117743
v 0.001849 0.865429 -0.179013
v -0.128393 0.865429 -0.135419
v -0.189663 0.865429 -0.012499
v -0.146070 0.865429 0.117743
v -0.023149 0.865429 0.179013
v 0.107092 0.865429 0.135419
v 0.168195 0.895118 0.012487
v 0.124642 0.895118 -0.117633
v 0.001837 0.895118 -0.178845
v -0.128283 0.895118 -0.135292
v -0.189495 0.895118 -0.012487
v -0.145943 0.895118 0.117633
v -0.023138 0.895118 0.178845
v 0.106982 0.895118 0.135292
v -0.010650 0.865429 -0.000000
v -0.010650 0.895118 0.000000
v 0.116428 0.236039 -0.116428
v 0.000000 0.236039 -0.164654
v -0.116428 0.236039 -0.116428
v -0.164654 0.236039 0.000000
v -0.116428 0.236039 0.116428
v 0.000000 0.236039 0.164654
v 0.116428 0.236039 0.116428
v 0.164654 0.236039 0.000000
v 0.130794 0.312162 -0.130794
v -0.000000 0.312162 -0.184971
v -0.130794 0.312162 -0.130794
v -0.184971 0.312162 -0.000000
v -0.130794 0.312162 0.130794
v -0.000000 0.312162 0.184971
v 0.130794 0.312162 0.130794
v 0.184971 0.312162 -0.000000
v 0.000000 0.312162 0.000000
v -0.189554 0.005400 0.197529
v 0.189554 0.005400 0.197529
v -0.207334 0.244191 0.216057
v 0.207334 0.244191 0.216057
v -0.207334 0.244191 -0.216057
v 0.207334 0.244191 -0.216057
v -0.189554 0.005400 -0.197529
v 0.189554 0.005400 -0.197529
v -0.171444 0.262726 0.171104
v 0.171444 0.262726 0.171104
v 0.171444 0.262726 -0.171104
v -0.171444 0.262726 -0.171104
v -0.001458 0.072462 0.254753
v -0.001458 0.171245 0.254753
v -0.001458 0.194974 0.226954
v -0.001458 0.048733 0.226954
v -0.052424 0.125514 0.226954
v -0.035885 0.124326 0.254753
v 0.032970 0.124326 0.254753
v 0.049509 0.125514 0.226954
v -0.222255 0.003886 -0.148237
v -0.222255 0.003886 0.147615
v -0.228551 0.159260 -0.126154
v -0.228551 0.159260 0.125532
v -0.164713 0.168693 -0.155552
v -0.164713 0.168693 0.154930
v -0.164713 0.003886 -0.173505
v -0.164713 0.003886 0.172882
v -0.222255 0.003886 -0.101087
v -0.164713 0.233879 -0.064129
v -0.228551 0.212102 -0.052044
v -0.222255 0.003886 0.102833
v -0.228551 0.212102 0.052637
v -0.164713 0.233879 0.065007
v 0.248715 0.072739 -0.004950
v 0.248715 0.170690 -0.004950
v 0.221150 0.194219 -0.004950
v 0.221150 0.049210 -0.004950
v 0.221150 0.125344 0.045588
v 0.248715 0.124166 0.029187
v 0.248715 0.124166 -0.039087
v 0.221150 0.125344 -0.055488
v 0.014295 0.774931 -0.095828
v -0.038548 0.774931 -0.095828
v 0.017235 0.859522 -0.172080
v -0.038536 0.859522 -0.172080
v 0.017235 0.915591 -0.159428
v -0.038536 0.915591 -0.159428
v 0.014295 0.732815 -0.036379
v -0.038548 0.732815 -0.036379
v 0.014295 0.816752 -0.052131
v 0.014295 0.816752 -0.113294
v -0.038548 0.816752 -0.113294
v -0.038548 0.816752 -0.052131
v 0.014295 0.915669 -0.071402
v 0.014295 0.845297 -0.142067
v -0.038548 0.845297 -0.142067
v -0.038548 0.915669 -0.071402
v 0.017235 0.858585 -0.214277
v 0.017235 0.909558 -0.231260
v -0.038536 0.858585 -0.214277
v -0.038536 0.909558 -0.231260
v 0.017235 0.841898 -0.239728
v 0.017235 0.880779 -0.264225
v -0.038536 0.841898 -0.239729
v -0.038536 0.880779 -0.264225
v 0.017235 0.821491 -0.249076
v 0.017235 0.837100 -0.283394
v -0.038536 0.821491 -0.249076
v -0.038536 0.837100 -0.283394
v 0.017235 0.809732 -0.246602
v 0.017235 0.795972 -0.273398
v -0.038536 0.809732 -0.246602
v -0.038536 0.795972 -0.273397
v 0.017235 0.794890 -0.236626
v 0.017235 0.779111 -0.257418
v -0.038536 0.794890 -0.236626
v -0.038536 0.779111 -0.257418
v 0.017235 0.796091 -0.225657
v 0.017235 0.779583 -0.218576
v -0.038536 0.796091 -0.225656
v -0.038535 0.779583 -0.218576
v 0.017235 0.808533 -0.204984
v 0.017235 0.795503 -0.192834
v -0.038536 0.808533 -0.204984
v -0.038536 0.795503 -0.192834
v 0.017234 0.828173 -0.201940
v 0.017235 0.829697 -0.188750
v -0.038535 0.828173 -0.201940
v -0.038536 0.829697 -0.188750
v 0.017235 0.838964 -0.197059
v -0.038535 0.838964 -0.197060
v -0.097516 0.774931 -0.026813
v -0.097516 0.774931 0.026030
v -0.173768 0.859522 -0.029753
v -0.173768 0.859522 0.026017
v -0.161116 0.915591 -0.029753
v -0.161116 0.915591 0.026017
v -0.038067 0.732815 -0.026813
v -0.038067 0.732815 0.026030
v -0.053819 0.816752 -0.026813
v -0.114981 0.816752 -0.026813
v -0.114981 0.816752 0.026030
v -0.053819 0.816752 0.026030
v -0.073089 0.915669 -0.026813
v -0.143755 0.845297 -0.026813
v -0.143755 0.845297 0.026030
v -0.073089 0.915669 0.026030
v -0.215964 0.858585 -0.029753
v -0.232947 0.909558 -0.029753
v -0.215965 0.858585 0.026017
v -0.232947 0.909558 0.026017
v -0.241416 0.841898 -0.029753
v -0.265913 0.880779 -0.029753
v -0.241417 0.841898 0.026017
v -0.265913 0.880779 0.026017
v -0.250763 0.821491 -0.029753
v -0.285081 0.837100 -0.029753
v -0.250763 0.821491 0.026017
v -0.285081 0.837100 0.026017
v -0.248289 0.809732 -0.029753
v -0.275085 0.795972 -0.029753
v -0.248289 0.809732 0.026017
v -0.275085 0.795972 0.026017
v -0.238314 0.794890 -0.029753
v -0.259106 0.779111 -0.029753
v -0.238313 0.794890 0.026017
v -0.259106 0.779111 0.026017
v -0.227344 0.796091 -0.029753
v -0.220263 0.779583 -0.029753
v -0.227344 0.796091 0.026017
v -0.220264 0.779583 0.026017
v -0.206672 0.808533 -0.029753
v -0.194522 0.795503 -0.029753
v -0.206672 0.808533 0.026017
v -0.194522 0.795503 0.026017
v -0.203628 0.828173 -0.029753
v -0.190437 0.829697 -0.029753
v -0.203628 0.828173 0.026017
v -0.190438 0.829697 0.026017
v -0.198747 0.838964 -0.029753
v -0.198747 0.838964 0.026017
v 0.145046 0.005966 -0.228402
v -0.145626 0.005966 -0.228402
v 0.123349 0.158620 -0.234588
v -0.123930 0.158620 -0.234588
v 0.152233 0.167888 -0.171868
v -0.152813 0.167888 -0.171868
v 0.169871 0.005966 -0.171868
v -0.170451 0.005966 -0.171868
v 0.098721 0.005966 -0.228402
v 0.062410 0.231933 -0.171868
v 0.050537 0.210537 -0.234588
v -0.101629 0.005966 -0.228402
v -0.052312 0.210537 -0.234588
v -0.064464 0.231933 -0.171868
v 0.092208 0.774931 0.024592
v 0.092208 0.774931 -0.028251
v 0.168460 0.859522 0.027532
v 0.168460 0.859522 -0.028239
v 0.155808 0.915591 0.027532
v 0.155808 0.915591 -0.028239
v 0.032759 0.732815 0.024592
v 0.032759 0.732815 -0.028251
v 0.048511 0.816752 0.024592
v 0.109674 0.816752 0.024592
v 0.109674 0.816752 -0.028251
v 0.048511 0.816752 -0.028251
v 0.067782 0.915669 0.024592
v 0.138447 0.845297 0.024592
v 0.138447 0.845297 -0.028251
v 0.067782 0.915669 -0.028251
v 0.210657 0.858585 0.027532
v 0.227640 0.909558 0.027532
v 0.210657 0.858585 -0.028239
v 0.227640 0.909558 -0.028239
v 0.236108 0.841898 0.027532
v 0.260605 0.880779 0.027532
v 0.236109 0.841898 -0.028239
v 0.260606 0.880779 -0.028239
v 0.245456 0.821491 0.027532
v 0.279774 0.837100 0.027532
v 0.245456 0.821491 -0.028239
v 0.279774 0.837100 -0.028239
v 0.242982 0.809732 0.027532
v 0.269778 0.795972 0.027532
v 0.242982 0.809732 -0.028239
v 0.269777 0.795972 -0.028239
v 0.233006 0.794890 0.027532
v 0.253798 0.779111 0.027532
v 0.233006 0.794890 -0.028239
v 0.253798 0.779111 -0.028239
v 0.222037 0.796091 0.027532
v 0.214956 0.779583 0.027532
v 0.222036 0.796091 -0.028239
v 0.214956 0.779583 -0.028238
v 0.201364 0.808533 0.027532
v 0.189214 0.795503 0.027532
v 0.201364 0.808533 -0.028239
v 0.189214 0.795503 -0.028239
v 0.198320 0.828173 0.027531
v 0.185130 0.829697 0.027532
v 0.198320 0.828173 -0.028238
v 0.185130 0.829697 -0.028239
v 0.193439 0.838964 0.027532
v 0.193440 0.838964 -0.028238
v -0.031435 0.774931 0.096089
v 0.021408 0.774931 0.096089
v -0.034375 0.859522 0.172341
v 0.021395 0.859522 0.172341
v -0.034375 0.915591 0.159689
v 0.021395 0.915591 0.159689
v -0.031435 0.732815 0.036640
v 0.021408 0.732815 0.036640
v -0.031435 0.816752 0.052392
v -0.031435 0.816752 0.113554
v 0.021408 0.816752 0.113554
v 0.021408 0.816752 0.052392
v -0.031435 0.915669 0.071662
v -0.031435 0.845297 0.142328
v 0.021408 0.845297 0.142328
v 0.021408 0.915669 0.071662
v -0.034375 0.858585 0.214537
v -0.034375 0.909558 0.231520
v 0.021395 0.858585 0.214538
v 0.021395 0.909558 0.231520
v -0.034375 0.841898 0.239989
v -0.034375 0.880779 0.264486
v 0.021396 0.841898 0.239990
v 0.021395 0.880779 0.264486
v -0.034375 0.821491 0.249336
v -0.034375 0.837100 0.283654
v 0.021396 0.821491 0.249336
v 0.021396 0.837100 0.283654
v -0.034375 0.809732 0.246862
v -0.034375 0.795972 0.273658
v 0.021395 0.809732 0.246862
v 0.021396 0.795972 0.273658
v -0.034375 0.794890 0.236887
v -0.034375 0.779111 0.257679
v 0.021396 0.794890 0.236886
v 0.021396 0.779111 0.257679
v -0.034375 0.796091 0.225917
v -0.034375 0.779583 0.218836
v 0.021395 0.796091 0.225917
v 0.021395 0.779583 0.218837
v -0.034375 0.808533 0.205245
v -0.034375 0.795503 0.193095
v 0.021395 0.808533 0.205245
v 0.021396 0.795503 0.193095
v -0.034375 0.828173 0.202201
v -0.034375 0.829697 0.189010
v 0.021395 0.828173 0.202201
v 0.021396 0.829697 0.189011
v -0.034375 0.838964 0.197320
v 0.021395 0.838964 0.197320
v -0.002041 0.073317 -0.255149
v -0.002041 0.169531 -0.255149
v -0.002041 0.192643 -0.228072
v -0.002041 0.050205 -0.228072
v 0.047600 0.124989 -0.228072
v 0.031491 0.123832 -0.255149
v -0.035573 0.123832 -0.255149
v -0.051683 0.124989 -0.228072
v 0.222671 0.003859 0.144793
v 0.222671 0.003859 -0.151127
v 0.228968 0.159268 0.122705
v 0.228968 0.159268 -0.129039
v 0.165116 0.168703 0.152109
v 0.165116 0.168703 -0.158443
v 0.165116 0.003859 0.170066
v 0.165116 0.003859 -0.176400
v 0.222671 0.003859 0.097632
v 0.165116 0.233904 0.060665
v 0.228968 0.212122 0.048577
v 0.222671 0.003859 -0.106335
v 0.228968 0.212122 -0.056127
v 0.165116 0.233904 -0.068500
v 0.127644 0.954914 -0.138294
v -0.010650 0.954914 -0.195577
v -0.148944 0.954914 -0.138294
v -0.206228 0.954914 0.000000
v -0.148944 0.954914 0.138294
v -0.010650 0.954914 0.195577
v 0.127644 0.954914 0.138294
v 0.184927 0.954914 0.000000
v 0.135954 0.989249 -0.146604
v -0.010650 0.989249 -0.207330
v -0.157255 0.989249 -0.146604
v -0.217980 0.989249 0.000000
v -0.157255 0.989249 0.146604
v -0.010650 0.989249 0.207330
v 0.135954 0.989249 0.146604
v 0.196679 0.989249 0.000000
v -0.010650 0.954914 -0.000000
v -0.010650 0.989249 0.000000
v -0.245100 0.072746 0.001471
v -0.245100 0.170675 0.001471
v -0.217540 0.194199 0.001471
v -0.217540 0.049222 0.001471
v -0.217540 0.125340 -0.049055
v -0.245100 0.124162 -0.032658
v -0.245100 0.124162 0.035601
v -0.217540 0.125340 0.051998
v 0.088712 0.980487 -0.099363
v -0.010650 0.980487 -0.140520
v -0.110013 0.980487 -0.099363
v -0.151170 0.980487 0.000000
v -0.110013 0.980487 0.099363
v -0.010650 0.980487 0.140520
v 0.088712 0.980487 0.099363
v 0.129870 0.980487 0.000000
v 0.088712 1.032519 -0.099363
v -0.010650 1.032519 -0.140520
v -0.110013 1.032519 -0.099363
v -0.151170 1.032519 0.000000
v -0.110013 1.032519 0.099363
v -0.010650 1.032519 0.140520
v 0.088712 1.032519 0.099363
v 0.129870 1.032519 0.000000
v -0.152471 0.002850 0.229525
v 0.145960 0.002850 0.229525
v -0.130196 0.159579 0.235876
v 0.123685 0.159579 0.235876
v -0.159850 0.169094 0.171481
v 0.153339 0.169094 0.171481
v -0.177959 0.002850 0.171481
v 0.171448 0.002850 0.171481
v -0.104910 0.002850 0.229525
v -0.067630 0.234848 0.171481
v -0.055439 0.212881 0.235876
v 0.100788 0.002850 0.229525
v 0.050155 0.212881 0.235876
v 0.062632 0.234848 0.171481
v 0.282580 -0.011343 0.160958
v 0.276219 -0.011343 -0.161665
v -0.006361 -0.011343 -0.317467
v -0.282580 -0.011343 -0.150647
v -0.276219 -0.011343 0.171976
v 0.006361 -0.011343 0.327778
v 0.282580 0.040252 0.160958
v 0.276219 0.040252 -0.161665
v -0.006361 0.040252 -0.317467
v -0.282580 0.040252 -0.150647
v -0.276219 0.040252 0.171976
v 0.006361 0.040252 0.327778
v 0.000000 0.040252 0.005155
vt 0.091599 0.886276
vt 0.072300 0.886022
vt 0.067569 0.813074
vt 0.091856 0.813402
vt 0.165821 0.812743
vt 0.190100 0.812042
vt 0.186467 0.884948
vt 0.167361 0.885600
vt 0.147880 0.885764
vt 0.141172 0.813077
vt 0.239751 0.810256
vt 0.264367 0.808874
vt 0.265248 0.881810
vt 0.243109 0.883053
vt 0.192328 0.818751
vt 0.212674 0.818066
vt 0.218167 0.878181
vt 0.189372 0.879150
vt 0.068978 0.880089
vt 0.038125 0.879541
vt 0.044835 0.819694
vt 0.065102 0.820013
vt 0.221462 0.883831
vt 0.214832 0.811149
vt 0.022321 0.812362
vt 0.042829 0.812685
vt 0.034566 0.885437
vt 0.019915 0.885197
vt 0.012021 0.715373
vt 0.040180 0.715816
vt 0.073348 0.716338
vt 0.092199 0.716741
vt 0.144409 0.716169
vt 0.163778 0.716103
vt 0.182595 0.715364
vt 0.215748 0.714249
vt 0.235296 0.713698
vt 0.254626 0.712463
vt 0.247540 0.980032
vt 0.226356 0.980640
vt 0.189473 0.981881
vt 0.169456 0.982658
vt 0.148965 0.982737
vt 0.091298 0.983354
vt 0.071236 0.982936
vt 0.034337 0.982355
vt 0.004759 0.981889
vt 0.267990 0.978734
vt 0.110574 0.886103
vt 0.111761 0.983069
vt 0.112523 0.882758
vt 0.117053 0.817408
vt 0.139865 0.817205
vt 0.145872 0.882461
vt 0.115638 0.813298
vt 0.109617 0.716479
vt 0.289850 0.807386
vt 0.289360 0.710434
vt 0.268128 0.875144
vt 0.267415 0.816367
vt 0.287826 0.815175
vt 0.294357 0.873612
vt 0.297993 0.879898
vt 0.305132 0.976565
vt 0.309183 0.806257
vt 0.315320 0.708918
vt 0.314706 0.878922
vt 0.333903 0.974885
vt 0.194112 0.819079
vt 0.191644 0.879295
vt 0.119825 0.817751
vt 0.115581 0.882926
vt 0.142802 0.882693
vt 0.137087 0.817631
vt 0.928749 0.886230
vt 0.855043 0.916760
vt 0.855043 0.950415
vt 0.952547 0.910028
vt 0.781337 0.886230
vt 0.757539 0.910028
vt 0.750807 0.812524
vt 0.717151 0.812524
vt 0.781337 0.738817
vt 0.757539 0.715019
vt 0.855043 0.708287
vt 0.855043 0.674632
vt 0.928749 0.738817
vt 0.952547 0.715019
vt 0.959280 0.812524
vt 0.992935 0.812524
vt 0.934857 0.190198
vt 0.980263 0.209006
vt 0.934857 0.251843
vt 0.889451 0.209006
vt 0.870644 0.254412
vt 0.889451 0.299818
vt 0.934857 0.318625
vt 0.980263 0.299818
vt 0.999071 0.254412
vt 0.855043 0.812524
vt 0.929929 0.620143
vt 0.879327 0.641103
vt 0.879327 0.671152
vt 0.951176 0.641391
vt 0.828724 0.620143
vt 0.807477 0.641391
vt 0.807764 0.569541
vt 0.777716 0.569541
vt 0.828724 0.518939
vt 0.807477 0.497691
vt 0.879327 0.497978
vt 0.879327 0.467930
vt 0.929929 0.518939
vt 0.951176 0.497691
vt 0.950889 0.569541
vt 0.980937 0.569541
vt 0.879327 0.569541
vt 0.694643 0.100971
vt 0.816553 0.094055
vt 0.833978 0.194734
vt 0.700633 0.202185
vt 0.686101 0.210169
vt 0.686101 0.287569
vt 0.575476 0.287568
vt 0.575477 0.210169
vt 0.560945 0.202185
vt 0.427600 0.194734
vt 0.445024 0.094055
vt 0.566934 0.100971
vt 0.694643 0.396769
vt 0.566934 0.396769
vt 0.560945 0.295552
vt 0.700633 0.295552
vt 0.331525 0.778235
vt 0.380887 0.778235
vt 0.356206 0.822166
vt 0.392745 0.779348
vt 0.356206 0.844383
vt 0.319667 0.779348
vt 0.356206 0.707457
vt 0.356206 0.729674
vt 0.376333 0.956118
vt 0.363130 0.849887
vt 0.428085 0.849887
vt 0.414748 0.956118
vt 0.370632 0.969988
vt 0.420584 0.969988
vt 0.448169 0.849887
vt 0.463270 0.849887
vt 0.455368 0.935948
vt 0.441498 0.929940
vt 0.327365 0.849887
vt 0.342467 0.849887
vt 0.349137 0.929940
vt 0.335267 0.935948
vt 0.331525 0.778235
vt 0.380887 0.778235
vt 0.356206 0.822166
vt 0.392745 0.779348
vt 0.356206 0.844383
vt 0.319667 0.779348
vt 0.356206 0.707457
vt 0.356206 0.729674
vt 0.649503 0.605412
vt 0.649966 0.601253
vt 0.658289 0.601253
vt 0.658287 0.605412
vt 0.716658 0.661378
vt 0.692181 0.694307
vt 0.726654 0.692460
vt 0.731036 0.666224
vt 0.692181 0.694307
vt 0.716658 0.661378
vt 0.731036 0.666224
vt 0.726654 0.692460
vt 0.680412 0.605125
vt 0.701004 0.624832
vt 0.707054 0.644401
vt 0.685868 0.644401
vt 0.649966 0.597266
vt 0.649966 0.591470
vt 0.658288 0.591470
vt 0.658288 0.597266
vt 0.701004 0.624832
vt 0.680412 0.605125
vt 0.685868 0.644401
vt 0.707054 0.644401
vt 0.745653 0.665785
vt 0.751535 0.689637
vt 0.649503 0.611260
vt 0.658287 0.611260
vt 0.751535 0.689637
vt 0.745653 0.665785
vt 0.658287 0.672692
vt 0.649504 0.672692
vt 0.649504 0.662738
vt 0.658287 0.662738
vt 0.754830 0.654357
vt 0.763316 0.672551
vt 0.649504 0.614787
vt 0.658287 0.614787
vt 0.763316 0.672551
vt 0.754831 0.654357
vt 0.649504 0.658170
vt 0.658287 0.658170
vt 0.758068 0.644809
vt 0.769956 0.652112
vt 0.649504 0.617615
vt 0.658287 0.617615
vt 0.769955 0.652112
vt 0.758068 0.644809
vt 0.649504 0.652116
vt 0.658287 0.652116
vt 0.757211 0.639306
vt 0.766493 0.632867
vt 0.649504 0.619245
vt 0.658287 0.619245
vt 0.766493 0.632867
vt 0.757211 0.639306
vt 0.649504 0.646417
vt 0.658287 0.646417
vt 0.753756 0.632361
vt 0.760958 0.624978
vt 0.649504 0.620627
vt 0.658287 0.620627
vt 0.760958 0.624978
vt 0.753756 0.632361
vt 0.649504 0.644202
vt 0.658287 0.644202
vt 0.751404 0.633647
vt 0.748952 0.625923
vt 0.649504 0.622147
vt 0.658287 0.622147
vt 0.748952 0.625923
vt 0.751404 0.633647
vt 0.649504 0.638820
vt 0.658287 0.638820
vt 0.744244 0.639469
vt 0.740035 0.633372
vt 0.649504 0.625012
vt 0.658287 0.625012
vt 0.740035 0.633372
vt 0.744244 0.639469
vt 0.649504 0.635252
vt 0.658287 0.635252
vt 0.743189 0.648659
vt 0.738620 0.649372
vt 0.649504 0.627734
vt 0.658287 0.627734
vt 0.738621 0.649372
vt 0.743189 0.648659
vt 0.649504 0.630514
vt 0.658287 0.630514
vt 0.741499 0.653709
vt 0.649504 0.629229
vt 0.658287 0.629229
vt 0.741499 0.653709
vt 0.649967 0.684891
vt 0.658289 0.684891
vt 0.649503 0.605412
vt 0.649966 0.601253
vt 0.658289 0.601253
vt 0.658287 0.605412
vt 0.716658 0.661378
vt 0.692181 0.694307
vt 0.726654 0.692460
vt 0.731036 0.666224
vt 0.692181 0.694307
vt 0.716658 0.661378
vt 0.731036 0.666224
vt 0.726654 0.692460
vt 0.680412 0.605125
vt 0.701004 0.624832
vt 0.707054 0.644401
vt 0.685868 0.644401
vt 0.649966 0.597266
vt 0.649966 0.591470
vt 0.658288 0.591470
vt 0.658288 0.597266
vt 0.701004 0.624832
vt 0.680412 0.605125
vt 0.685868 0.644401
vt 0.707054 0.644401
vt 0.745653 0.665785
vt 0.751535 0.689637
vt 0.649503 0.611260
vt 0.658287 0.611260
vt 0.751535 0.689637
vt 0.745653 0.665785
vt 0.658287 0.672692
vt 0.649504 0.672692
vt 0.649504 0.662738
vt 0.658287 0.662738
vt 0.754830 0.654357
vt 0.763316 0.672551
vt 0.649504 0.614787
vt 0.658287 0.614787
vt 0.763316 0.672551
vt 0.754831 0.654357
vt 0.649504 0.658170
vt 0.658287 0.658170
vt 0.758068 0.644809
vt 0.769956 0.652112
vt 0.649504 0.617615
vt 0.658287 0.617615
vt 0.769955 0.652112
vt 0.758068 0.644809
vt 0.649504 0.652116
vt 0.658287 0.652116
vt 0.757211 0.639306
vt 0.766493 0.632867
vt 0.649504 0.619245
vt 0.658287 0.619245
vt 0.766493 0.632867
vt 0.757211 0.639306
vt 0.649504 0.646417
vt 0.658287 0.646417
vt 0.753756 0.632361
vt 0.760958 0.624978
vt 0.649504 0.620627
vt 0.658287 0.620627
vt 0.760958 0.624978
vt 0.753756 0.632361
vt 0.649504 0.644202
vt 0.658287 0.644202
vt 0.751404 0.633647
vt 0.748952 0.625923
vt 0.649504 0.622147
vt 0.658287 0.622147
vt 0.748952 0.625923
vt 0.751404 0.633647
vt 0.649504 0.638820
vt 0.658287 0.638820
vt 0.744244 0.639469
vt 0.740035 0.633372
vt 0.649504 0.625012
vt 0.658287 0.625012
vt 0.740035 0.633372
vt 0.744244 0.639469
vt 0.649504 0.635252
vt 0.658287 0.635252
vt 0.743189 0.648659
vt 0.738620 0.649372
vt 0.649504 0.627734
vt 0.658287 0.627734
vt 0.738621 0.649372
vt 0.743189 0.648659
vt 0.649504 0.630514
vt 0.658287 0.630514
vt 0.741499 0.653709
vt 0.649504 0.629229
vt 0.658287 0.629229
vt 0.741499 0.653709
vt 0.649967 0.684891
vt 0.658289 0.684891
vt 0.376333 0.956118
vt 0.363130 0.849887
vt 0.428085 0.849887
vt 0.414748 0.956118
vt 0.370632 0.969988
vt 0.420584 0.969988
vt 0.448169 0.849887
vt 0.463270 0.849887
vt 0.455368 0.935948
vt 0.441498 0.929940
vt 0.327365 0.849887
vt 0.342467 0.849887
vt 0.349137 0.929940
vt 0.335267 0.935948
vt 0.649503 0.605412
vt 0.649966 0.601253
vt 0.658289 0.601253
vt 0.658287 0.605412
vt 0.716658 0.661378
vt 0.692181 0.694307
vt 0.726654 0.692460
vt 0.731036 0.666224
vt 0.692181 0.694307
vt 0.716658 0.661378
vt 0.731036 0.666224
vt 0.726654 0.692460
vt 0.680412 0.605125
vt 0.701004 0.624832
vt 0.707054 0.644401
vt 0.685868 0.644401
vt 0.649966 0.597266
vt 0.649966 0.591470
vt 0.658288 0.591470
vt 0.658288 0.597266
vt 0.701004 0.624832
vt 0.680412 0.605125
vt 0.685868 0.644401
vt 0.707054 0.644401
vt 0.745653 0.665785
vt 0.751535 0.689637
vt 0.649503 0.611260
vt 0.658287 0.611260
vt 0.751535 0.689637
vt 0.745653 0.665785
vt 0.658287 0.672692
vt 0.649504 0.672692
vt 0.649504 0.662738
vt 0.658287 0.662738
vt 0.754830 0.654357
vt 0.763316 0.672551
vt 0.649504 0.614787
vt 0.658287 0.614787
vt 0.763316 0.672551
vt 0.754831 0.654357
vt 0.649504 0.658170
vt 0.658287 0.658170
vt 0.758068 0.644809
vt 0.769956 0.652112
vt 0.649504 0.617615
vt 0.658287 0.617615
vt 0.769955 0.652112
vt 0.758068 0.644809
vt 0.649504 0.652116
vt 0.658287 0.652116
vt 0.757211 0.639306
vt 0.766493 0.632867
vt 0.649504 0.619245
vt 0.658287 0.619245
vt 0.766493 0.632867
vt 0.757211 0.639306
vt 0.649504 0.646417
vt 0.658287 0.646417
vt 0.753756 0.632361
vt 0.760958 0.624978
vt 0.649504 0.620627
vt 0.658287 0.620627
vt 0.760958 0.624978
vt 0.753756 0.632361
vt 0.649504 0.644202
vt 0.658287 0.644202
vt 0.751404 0.633647
vt 0.748952 0.625923
vt 0.649504 0.622147
vt 0.658287 0.622147
vt 0.748952 0.625923
vt 0.751404 0.633647
vt 0.649504 0.638820
vt 0.658287 0.638820
vt 0.744244 0.639469
vt 0.740035 0.633372
vt 0.649504 0.625012
vt 0.658287 0.625012
vt 0.740035 0.633372
vt 0.744244 0.639469
vt 0.649504 0.635252
vt 0.658287 0.635252
vt 0.743189 0.648659
vt 0.738620 0.649372
vt 0.649504 0.627734
vt 0.658287 0.627734
vt 0.738621 0.649372
vt 0.743189 0.648659
vt 0.649504 0.630514
vt 0.658287 0.630514
vt 0.741499 0.653709
vt 0.649504 0.629229
vt 0.658287 0.629229
vt 0.741499 0.653709
vt 0.649967 0.684891
vt 0.658289 0.684891
vt 0.649503 0.605412
vt 0.649966 0.601253
vt 0.658289 0.601253
vt 0.658287 0.605412
vt 0.716658 0.661378
vt 0.692181 0.694307
vt 0.726654 0.692460
vt 0.731036 0.666224
vt 0.692181 0.694307
vt 0.716658 0.661378
vt 0.731036 0.666224
vt 0.726654 0.692460
vt 0.680412 0.605125
vt 0.701004 0.624832
vt 0.707054 0.644401
vt 0.685868 0.644401
vt 0.649966 0.597266
vt 0.649966 0.591470
vt 0.658288 0.591470
vt 0.658288 0.597266
vt 0.701004 0.624832
vt 0.680412 0.605125
vt 0.685868 0.644401
vt 0.707054 0.644401
vt 0.745653 0.665785
vt 0.751535 0.689637
vt 0.649503 0.611260
vt 0.658287 0.611260
vt 0.751535 0.689637
vt 0.745653 0.665785
vt 0.658287 0.672692
vt 0.649504 0.672692
vt 0.649504 0.662738
vt 0.658287 0.662738
vt 0.754830 0.654357
vt 0.763316 0.672551
vt 0.649504 0.614787
vt 0.658287 0.614787
vt 0.763316 0.672551
vt 0.754831 0.654357
vt 0.649504 0.658170
vt 0.658287 0.658170
vt 0.758068 0.644809
vt 0.769956 0.652112
vt 0.649504 0.617615
vt 0.658287 0.617615
vt 0.769955 0.652112
vt 0.758068 0.644809
vt 0.649504 0.652116
vt 0.658287 0.652116
vt 0.757211 0.639306
vt 0.766493 0.632867
vt 0.649504 0.619245
vt 0.658287 0.619245
vt 0.766493 0.632867
vt 0.757211 0.639306
vt 0.649504 0.646417
vt 0.658287 0.646417
vt 0.753756 0.632361
vt 0.760958 0.624978
vt 0.649504 0.620627
vt 0.658287 0.620627
vt 0.760958 0.624978
vt 0.753756 0.632361
vt 0.649504 0.644202
vt 0.658287 0.644202
vt 0.751404 0.633647
vt 0.748952 0.625923
vt 0.649504 0.622147
vt 0.658287 0.622147
vt 0.748952 0.625923
vt 0.751404 0.633647
vt 0.649504 0.638820
vt 0.658287 0.638820
vt 0.744244 0.639469
vt 0.740035 0.633372
vt 0.649504 0.625012
vt 0.658287 0.625012
vt 0.740035 0.633372
vt 0.744244 0.639469
vt 0.649504 0.635252
vt 0.658287 0.635252
vt 0.743189 0.648659
vt 0.738620 0.649372
vt 0.649504 0.627734
vt 0.658287 0.627734
vt 0.738621 0.649372
vt 0.743189 0.648659
vt 0.649504 0.630514
vt 0.658287 0.630514
vt 0.741499 0.653709
vt 0.649504 0.629229
vt 0.658287 0.629229
vt 0.741499 0.653709
vt 0.649967 0.684891
vt 0.658289 0.684891
vt 0.331525 0.778235
vt 0.380887 0.778235
vt 0.356206 0.822166
vt 0.392745 0.779348
vt 0.356206 0.844383
vt 0.319667 0.779348
vt 0.356206 0.707457
vt 0.356206 0.729674
vt 0.376333 0.956118
vt 0.363130 0.849887
vt 0.428085 0.849887
vt 0.414748 0.956118
vt 0.370632 0.969988
vt 0.420584 0.969988
vt 0.448169 0.849887
vt 0.463270 0.849887
vt 0.455368 0.935948
vt 0.441498 0.929940
vt 0.327365 0.849887
vt 0.342467 0.849887
vt 0.349137 0.929940
vt 0.335267 0.935948
vt 0.928749 0.886230
vt 0.855043 0.916760
vt 0.855043 0.950415
vt 0.952547 0.910028
vt 0.781337 0.886230
vt 0.757539 0.910028
vt 0.750807 0.812524
vt 0.717151 0.812524
vt 0.781337 0.738817
vt 0.757539 0.715019
vt 0.855043 0.708287
vt 0.855043 0.674632
vt 0.928749 0.738817
vt 0.952547 0.715019
vt 0.959280 0.812524
vt 0.992935 0.812524
vt 0.934857 0.190198
vt 0.980263 0.209006
vt 0.934857 0.251843
vt 0.889451 0.209006
vt 0.870644 0.254412
vt 0.889451 0.299818
vt 0.934857 0.318625
vt 0.980263 0.299818
vt 0.999071 0.254412
vt 0.855043 0.812524
vt 0.331525 0.778235
vt 0.380887 0.778235
vt 0.356206 0.822166
vt 0.392745 0.779348
vt 0.356206 0.844383
vt 0.319667 0.779348
vt 0.356206 0.707457
vt 0.356206 0.729674
vt 0.507091 0.954088
vt 0.567245 0.954088
vt 0.567245 0.990543
vt 0.507091 0.990543
vt 0.627398 0.954088
vt 0.627398 0.990543
vt 0.687552 0.954088
vt 0.687552 0.990543
vt 0.747705 0.954088
vt 0.747705 0.990543
vt 0.807859 0.954088
vt 0.807859 0.990543
vt 0.868012 0.954088
vt 0.868012 0.990543
vt 0.928166 0.954088
vt 0.928166 0.990543
vt 0.988320 0.954088
vt 0.988320 0.990543
vt 0.376333 0.956118
vt 0.363130 0.849887
vt 0.428085 0.849887
vt 0.414748 0.956118
vt 0.370632 0.969988
vt 0.420584 0.969988
vt 0.448169 0.849887
vt 0.463270 0.849887
vt 0.455368 0.935948
vt 0.441498 0.929940
vt 0.327365 0.849887
vt 0.342467 0.849887
vt 0.349137 0.929940
vt 0.335267 0.935948
vt 0.715639 0.756576
vt 0.712820 0.881806
vt 0.690875 0.870198
vt 0.693188 0.767418
vt 0.587589 0.942283
vt 0.588095 0.919833
vt 0.465178 0.877530
vt 0.487628 0.866688
vt 0.467997 0.752299
vt 0.489942 0.763908
vt 0.593227 0.691823
vt 0.592722 0.714273
vt 0.590408 0.817053
vn 0.000000 -0.102104 0.994774
vn 0.001070 -0.122347 0.992487
vn 0.000000 0.100460 0.994941
vn 0.000000 0.078310 0.996929
vn 0.000000 0.079038 -0.996872
vn 0.000000 0.101173 -0.994869
vn 0.000000 -0.123329 -0.992366
vn 0.000000 -0.102819 -0.994700
vn 0.992010 -0.126161 0.000000
vn 0.994611 0.103674 0.000000
vn 0.996740 0.080681 0.000000
vn 0.994476 -0.104960 0.000000
vn -0.996939 0.078186 0.000000
vn -0.994852 0.101343 0.000000
vn -0.992170 -0.124897 0.000000
vn -0.994521 -0.104542 0.000000
vn 0.000000 -0.008719 -0.999962
vn 0.000000 -0.008719 -0.999962
vn 0.000000 -0.008719 -0.999962
vn 0.000000 -0.008719 -0.999962
vn 0.002673 -0.010302 0.999943
vn 0.002673 -0.010302 0.999943
vn 0.002673 -0.010302 0.999943
vn 0.002673 -0.010302 0.999943
vn 0.000000 -0.102655 -0.994717
vn 0.000000 -0.122584 -0.992458
vn 0.000000 0.099005 -0.995087
vn 0.000000 0.077076 -0.997025
vn -0.001512 0.078714 0.996896
vn -0.000840 0.100717 0.994915
vn -0.000878 -0.122261 0.992498
vn -0.003867 -0.102486 0.994727
vn 0.000000 0.128178 0.991751
vn 0.000000 0.128178 0.991751
vn 0.000000 0.128179 0.991751
vn 0.000000 0.128179 0.991751
vn 0.991292 0.131686 0.000000
vn 0.991292 0.131686 0.000000
vn 0.000000 0.128706 -0.991683
vn 0.000000 0.128706 -0.991683
vn 0.000000 0.128706 -0.991683
vn 0.000000 0.128706 -0.991683
vn -0.991292 0.131686 0.000000
vn -0.991292 0.131686 0.000000
vn 0.000000 -0.148165 -0.988963
vn 0.000000 -0.148165 -0.988963
vn 0.000000 -0.148165 -0.988963
vn 0.000000 -0.148165 -0.988963
vn 0.988501 -0.151217 0.000000
vn 0.988501 -0.151217 0.000000
vn 0.000000 -0.146860 0.989157
vn 0.001312 -0.146335 0.989234
vn 0.000024 -0.146106 0.989269
vn -0.003517 -0.146243 0.989242
vn -0.988501 -0.151217 0.000000
vn -0.988501 -0.151217 0.000000
vn 0.991917 -0.126886 0.000000
vn 0.988501 -0.151217 0.000000
vn 0.999902 -0.013992 0.000000
vn 0.999902 -0.013992 0.000000
vn 0.999902 -0.013992 0.000000
vn 0.999902 -0.013992 0.000000
vn 0.994586 0.103912 0.000000
vn 0.991291 0.131686 0.000000
vn -0.994753 0.102307 0.000000
vn -0.991292 0.131686 0.000000
vn -0.999971 -0.007648 0.000000
vn -0.999971 -0.007648 0.000000
vn -0.999971 -0.007648 0.000000
vn -0.999971 -0.007648 0.000000
vn -0.992062 -0.125753 0.000000
vn -0.988501 -0.151217 0.000000
vn 0.994394 -0.105734 0.000000
vn 0.988501 -0.151217 0.000000
vn 0.996802 0.079907 0.000000
vn 0.991291 0.131686 0.000000
vn -0.996943 0.078133 0.000000
vn -0.991292 0.131686 0.000000
vn -0.994429 -0.105406 0.000000
vn -0.988501 -0.151217 0.000000
vn 0.000000 0.549380 -0.835573
vn 0.000000 0.549380 -0.835573
vn 0.000000 0.549380 -0.835573
vn 0.000000 0.549380 -0.835573
vn 0.850413 0.045903 -0.524110
vn 0.850413 0.045903 -0.524110
vn 0.850413 0.045903 -0.524110
vn 0.850413 0.045903 -0.524110
vn 0.000000 -0.676486 -0.736456
vn 0.000000 -0.676486 -0.736456
vn 0.000000 -0.676486 -0.736456
vn 0.000000 -0.676486 -0.736456
vn -0.864408 0.071326 -0.497706
vn -0.864408 0.071326 -0.497706
vn -0.864408 0.071326 -0.497706
vn -0.864408 0.071326 -0.497706
vn 0.003677 -0.667969 0.744180
vn 0.003677 -0.667969 0.744180
vn 0.003677 -0.667969 0.744180
vn 0.003677 -0.667969 0.744180
vn 0.843782 0.080156 0.530666
vn 0.843782 0.080156 0.530666
vn 0.843782 0.080156 0.530666
vn 0.843782 0.080156 0.530666
vn 0.000000 0.541029 0.841004
vn 0.000000 0.541029 0.841004
vn 0.000000 0.541029 0.841004
vn 0.000000 0.541029 0.841004
vn -0.836535 0.065484 0.543987
vn -0.836535 0.065484 0.543987
vn -0.836535 0.065484 0.543987
vn -0.836535 0.065484 0.543987
vn 0.337829 0.072428 -0.938417
vn 0.337829 0.072428 -0.938417
vn 0.337829 0.072428 -0.938417
vn 0.337829 0.072428 -0.938417
vn 0.656260 0.754535 0.000000
vn 0.656260 0.754535 0.000000
vn 0.656260 0.754535 0.000000
vn 0.656260 0.754535 0.000000
vn 0.335003 0.077307 0.939040
vn 0.335003 0.077307 0.939040
vn 0.335003 0.077307 0.939040
vn 0.335003 0.077307 0.939040
vn 0.540937 -0.841063 0.000000
vn 0.540937 -0.841063 0.000000
vn 0.540937 -0.841063 0.000000
vn 0.540937 -0.841063 0.000000
vn -0.529723 0.034252 0.847479
vn -0.529723 0.034252 0.847479
vn -0.529723 0.034252 0.847479
vn -0.529723 0.034252 0.847479
vn -0.859449 0.511222 0.000000
vn -0.859449 0.511222 0.000000
vn -0.859449 0.511222 0.000000
vn -0.859449 0.511222 0.000000
vn -0.521624 0.040965 -0.852192
vn -0.521624 0.040965 -0.852192
vn -0.521624 0.040965 -0.852192
vn -0.521624 0.040965 -0.852192
vn -0.764143 -0.645047 0.000000
vn -0.764143 -0.645047 0.000000
vn -0.764143 -0.645047 0.000000
vn -0.764143 -0.645047 0.000000
vn 0.997555 0.005658 0.069652
vn 0.754629 0.005658 -0.656127
vn 0.754629 0.005658 -0.656127
vn 0.997555 0.005658 0.069652
vn 0.069652 0.005659 -0.997555
vn 0.069652 0.005659 -0.997555
vn -0.656127 0.005659 -0.754629
vn -0.656127 0.005659 -0.754629
vn -0.997555 0.005659 -0.069652
vn -0.997555 0.005659 -0.069652
vn -0.754629 0.005659 0.656127
vn -0.754629 0.005659 0.656127
vn -0.069652 0.005659 0.997555
vn -0.069652 0.005659 0.997555
vn 0.656128 0.005658 0.754629
vn 0.656128 0.005658 0.754629
vn 0.000000 -1.000000 0.000000
vn 0.000000 -1.000000 0.000000
vn 0.000000 -1.000000 0.000000
vn 0.000000 -1.000000 0.000000
vn 0.000000 -1.000000 0.000000
vn 0.000000 -1.000000 0.000000
vn 0.000000 -1.000000 0.000000
vn 0.000000 -1.000000 0.000000
vn 0.000000 -1.000000 0.000000
vn 0.000000 1.000000 -0.000000
vn 0.000000 1.000000 -0.000001
vn 0.000000 1.000000 -0.000000
vn 0.000000 1.000000 -0.000000
vn 0.000000 1.000000 -0.000001
vn 0.000000 1.000000 0.000000
vn 0.000000 1.000000 0.000001
vn 0.000000 1.000000 0.000000
vn 0.000000 1.000000 0.000000
vn 0.683194 -0.257863 -0.683194
vn -0.000000 -0.257863 -0.966182
vn -0.000000 -0.257863 -0.966182
vn 0.683194 -0.257863 -0.683194
vn -0.683194 -0.257863 -0.683193
vn -0.683194 -0.257863 -0.683193
vn -0.966182 -0.257863 0.000000
vn -0.966182 -0.257863 0.000000
vn -0.683194 -0.257863 0.683193
vn -0.683194 -0.257863 0.683193
vn -0.000000 -0.257863 0.966182
vn 0.000000 -0.257863 0.966181
vn 0.683194 -0.257863 0.683193
vn 0.683194 -0.257863 0.683193
vn 0.966182 -0.257863 -0.000000
vn 0.966182 -0.257863 -0.000000
vn 0.000000 1.000000 0.000000
vn 0.000000 1.000000 0.000000
vn 0.000000 1.000000 0.000000
vn 0.000000 1.000000 0.000000
vn 0.000000 1.000000 0.000000
vn 0.000000 1.000000 0.000000
vn 0.000000 1.000000 0.000000
vn 0.000000 1.000000 0.000000
vn 0.000000 1.000000 0.000000
vn 0.000000 -0.077360 0.997003
vn 0.000000 -0.077360 0.997003
vn 0.000000 -0.077360 0.997003
vn 0.000000 -0.077360 0.997003
vn 0.000000 1.000000 0.000000
vn 0.000000 1.000000 0.000000
vn 0.000000 1.000000 0.000000
vn 0.000000 1.000000 0.000000
vn 0.000000 -0.077360 -0.997003
vn 0.000000 -0.077360 -0.997003
vn 0.000000 -0.077360 -0.997003
vn 0.000000 -0.077360 -0.997003
vn 0.997239 -0.074254 0.000000
vn 0.997239 -0.074254 0.000000
vn 0.997239 -0.074254 0.000000
vn 0.997239 -0.074254 0.000000
vn -0.997239 -0.074254 0.000000
vn -0.997239 -0.074254 0.000000
vn -0.997239 -0.074254 0.000000
vn -0.997239 -0.074254 0.000000
vn 0.000000 0.924494 0.381198
vn 0.000000 0.924494 0.381198
vn 0.000000 0.924494 0.381198
vn 0.000000 0.924494 0.381198
vn 0.458866 0.888506 0.000000
vn 0.458866 0.888506 0.000000
vn 0.458866 0.888506 0.000000
vn 0.458866 0.888506 0.000000
vn 0.000000 0.924494 -0.381198
vn 0.000000 0.924494 -0.381198
vn 0.000000 0.924494 -0.381198
vn 0.000000 0.924494 -0.381198
vn -0.458866 0.888506 0.000000
vn -0.458866 0.888506 0.000000
vn -0.458866 0.888506 0.000000
vn -0.458866 0.888506 0.000000
vn 0.000000 0.000000 1.000000
vn 0.000000 0.000000 1.000000
vn 0.000000 0.000000 1.000000
vn 0.859504 -0.006783 0.511084
vn 0.859167 0.009962 0.511599
vn 0.719687 0.528082 0.450755
vn 0.719687 0.528082 0.450755
vn -0.859167 0.009962 0.511599
vn -0.859504 -0.006784 0.511084
vn -0.719688 0.528082 0.450754
vn -0.719687 0.528082 0.450754
vn -0.753423 -0.500121 0.426888
vn -0.753423 -0.500121 0.426888
vn 0.000000 0.000000 1.000000
vn 0.753423 -0.500121 0.426888
vn 0.753423 -0.500121 0.426888
vn -0.999516 -0.031073 0.001839
vn -0.999460 -0.032483 0.004895
vn -0.999460 -0.032488 -0.004968
vn -0.999516 -0.031049 -0.001811
vn -0.356866 0.891804 -0.278087
vn -0.354951 0.899886 -0.253407
vn -0.356034 0.899166 0.254441
vn -0.358120 0.890624 0.280249
vn -0.415140 0.104834 0.903697
vn -0.415140 0.104834 0.903697
vn -0.424348 0.363279 0.829432
vn -0.422753 0.406987 0.809717
vn -0.415140 0.104835 -0.903697
vn -0.415140 0.104835 -0.903697
vn -0.422444 0.411856 -0.807413
vn -0.424193 0.367010 -0.827867
vn -0.999148 -0.037828 0.016484
vn -0.999148 -0.037828 0.016484
vn -0.999132 -0.037994 -0.017061
vn -0.999132 -0.037994 -0.017061
vn 1.000000 0.000000 0.000000
vn 1.000000 0.000000 0.000000
vn 1.000000 -0.000001 0.000000
vn 0.511084 -0.006784 -0.859504
vn 0.511599 0.009962 -0.859167
vn 0.450755 0.528082 -0.719687
vn 0.450755 0.528082 -0.719687
vn 0.511599 0.009962 0.859167
vn 0.511084 -0.006784 0.859504
vn 0.450755 0.528082 0.719687
vn 0.450755 0.528082 0.719687
vn 0.426888 -0.500121 0.753423
vn 0.426888 -0.500121 0.753423
vn 1.000000 0.000001 0.000000
vn 0.426888 -0.500121 -0.753423
vn 0.426888 -0.500121 -0.753423
vn 0.000001 -0.985211 -0.171344
vn 0.000001 -0.812706 -0.582674
vn 0.000001 -0.809976 -0.586464
vn 0.000001 -0.984038 -0.177959
vn -1.000000 0.000063 -0.000096
vn -1.000000 0.000050 -0.000076
vn -1.000000 0.000128 -0.000195
vn -1.000000 0.000128 -0.000195
vn 0.999768 -0.011841 0.017969
vn 0.999627 -0.015020 0.022795
vn 0.998475 -0.030374 0.046095
vn 0.998475 -0.030374 0.046095
vn 1.000000 0.000000 0.000000
vn 1.000000 0.000000 0.000000
vn 1.000000 0.000000 0.000000
vn 1.000000 0.000000 0.000000
vn 0.000000 -0.549161 -0.835717
vn 0.000000 -0.385365 -0.922764
vn 0.000000 -0.385365 -0.922764
vn 0.000000 -0.549161 -0.835717
vn -1.000000 -0.000000 0.000000
vn -1.000000 -0.000000 0.000000
vn -1.000000 -0.000000 0.000000
vn -1.000000 0.000000 0.000000
vn 1.000000 0.000000 -0.000000
vn 1.000000 0.000000 -0.000000
vn 1.000000 0.000000 -0.000000
vn 1.000000 0.000000 -0.000000
vn -0.000002 -0.967699 0.252111
vn -0.000002 -0.967698 0.252111
vn -1.000000 -0.000000 -0.000000
vn -1.000000 -0.000000 -0.000000
vn -1.000000 -0.000000 -0.000000
vn -1.000000 -0.000000 -0.000000
vn -0.000001 0.996491 -0.083704
vn -0.000001 0.996491 -0.083704
vn -0.000001 0.949009 -0.315248
vn -0.000001 0.949009 -0.315248
vn 1.000000 0.000000 -0.000002
vn 1.000000 0.000000 -0.000002
vn 1.000000 0.000000 -0.000002
vn 1.000000 0.000000 -0.000002
vn -0.000007 -0.684185 0.729309
vn -0.000007 -0.684181 0.729312
vn -1.000000 0.000001 0.000001
vn -1.000000 0.000001 0.000001
vn -1.000000 0.000001 0.000001
vn -1.000000 0.000001 0.000001
vn -0.000001 0.584044 -0.811722
vn -0.000001 0.584044 -0.811722
vn 1.000000 -0.000000 -0.000000
vn 1.000000 -0.000000 -0.000000
vn 1.000000 -0.000000 -0.000000
vn 1.000000 -0.000000 -0.000000
vn -0.000005 -0.208964 0.977923
vn -0.000005 -0.208964 0.977923
vn -1.000000 0.000002 -0.000001
vn -1.000000 0.000002 -0.000001
vn -1.000000 0.000002 -0.000001
vn -1.000000 0.000002 -0.000001
vn -0.000004 0.107525 -0.994202
vn -0.000004 0.107525 -0.994202
vn 1.000000 0.000000 0.000001
vn 1.000000 0.000000 0.000001
vn 1.000000 0.000000 0.000001
vn 1.000000 0.000000 0.000001
vn 0.000002 0.423891 0.905713
vn 0.000002 0.423891 0.905713
vn -1.000000 0.000001 0.000001
vn -1.000000 0.000001 0.000001
vn -1.000000 0.000001 0.000001
vn -1.000000 0.000001 0.000001
vn -0.000004 -0.408800 -0.912624
vn -0.000004 -0.408800 -0.912624
vn 1.000000 0.000005 -0.000002
vn 1.000000 0.000005 -0.000002
vn 1.000000 0.000005 -0.000002
vn 1.000000 0.000005 -0.000002
vn 0.000000 0.837959 0.545733
vn 0.000000 0.837960 0.545731
vn -1.000000 0.000002 0.000000
vn -1.000000 0.000002 0.000000
vn -1.000000 0.000002 0.000000
vn -1.000000 0.000002 0.000000
vn -0.000002 -0.958103 -0.286423
vn -0.000002 -0.958103 -0.286426
vn 1.000000 -0.000000 0.000002
vn 1.000000 -0.000000 0.000002
vn 1.000000 -0.000000 0.000002
vn 1.000000 -0.000000 0.000002
vn -0.000005 0.918282 -0.395927
vn -0.000005 0.918282 -0.395928
vn -1.000000 -0.000015 0.000011
vn -1.000000 -0.000015 0.000011
vn -1.000000 -0.000015 0.000011
vn -1.000000 -0.000015 0.000011
vn -0.000002 -0.969265 0.246018
vn -0.000002 -0.969266 0.246017
vn 1.000000 -0.000001 -0.000001
vn 1.000000 -0.000001 -0.000001
vn 1.000000 -0.000001 -0.000001
vn 1.000000 -0.000001 -0.000001
vn -0.000002 0.594457 -0.804127
vn -0.000002 0.594456 -0.804128
vn -1.000000 -0.000009 -0.000002
vn -1.000000 -0.000009 -0.000002
vn -1.000000 -0.000009 -0.000002
vn -1.000000 -0.000009 -0.000002
vn -0.000002 -0.511429 0.859325
vn -0.000002 -0.511428 0.859326
vn 1.000000 0.000008 -0.000013
vn 1.000000 0.000008 -0.000013
vn 1.000000 0.000008 -0.000013
vn 1.000000 0.000008 -0.000013
vn 0.000004 0.252006 -0.967726
vn 0.000004 0.252005 -0.967726
vn -1.000000 0.000007 -0.000014
vn -1.000000 0.000007 -0.000014
vn -1.000000 0.000007 -0.000014
vn -1.000000 0.000007 -0.000014
vn -0.000003 0.096763 0.995308
vn -0.000003 0.096761 0.995308
vn 1.000000 -0.000022 -0.000030
vn 1.000000 -0.000022 -0.000030
vn 1.000000 -0.000022 -0.000030
vn 0.000007 0.412082 -0.911147
vn 0.000007 0.412082 -0.911147
vn -1.000000 0.000016 -0.000029
vn -1.000000 0.000016 -0.000029
vn -1.000000 0.000016 -0.000029
vn -0.000006 0.667603 0.744517
vn -0.000006 0.667603 0.744517
vn 0.000000 1.000000 -0.000887
vn 0.000000 1.000000 -0.000887
vn 0.000000 1.000000 -0.000887
vn 0.000000 1.000000 -0.000887
vn -0.171345 -0.985211 -0.000002
vn -0.582674 -0.812706 -0.000001
vn -0.586464 -0.809975 -0.000001
vn -0.177960 -0.984038 -0.000002
vn -0.000096 0.000063 1.000000
vn -0.000076 0.000050 1.000000
vn -0.000195 0.000128 1.000000
vn -0.000195 0.000128 1.000000
vn 0.017969 -0.011841 -0.999768
vn 0.022795 -0.015020 -0.999627
vn 0.046095 -0.030374 -0.998475
vn 0.046095 -0.030374 -0.998475
vn 0.000000 0.000000 -1.000000
vn 0.000000 0.000000 -1.000000
vn -0.000000 0.000000 -1.000000
vn -0.000000 0.000000 -1.000000
vn -0.835717 -0.549161 0.000000
vn -0.922764 -0.385365 0.000000
vn -0.922764 -0.385365 0.000000
vn -0.835717 -0.549161 0.000000
vn 0.000000 0.000000 1.000000
vn 0.000000 0.000000 1.000000
vn 0.000000 0.000000 1.000000
vn 0.000000 0.000000 1.000000
vn 0.000000 0.000000 -1.000000
vn 0.000000 0.000000 -1.000000
vn 0.000000 0.000000 -1.000000
vn 0.000000 0.000000 -1.000000
vn 0.252111 -0.967698 0.000002
vn 0.252112 -0.967698 0.000002
vn -0.000000 -0.000000 1.000000
vn -0.000000 -0.000000 1.000000
vn -0.000000 -0.000000 1.000000
vn -0.000000 -0.000000 1.000000
vn -0.083704 0.996491 0.000000
vn -0.083704 0.996491 0.000000
vn -0.315248 0.949010 0.000000
vn -0.315248 0.949009 0.000000
vn -0.000002 0.000000 -1.000000
vn -0.000002 0.000000 -1.000000
vn -0.000002 0.000000 -1.000000
vn -0.000002 0.000000 -1.000000
vn 0.729309 -0.684184 0.000007
vn 0.729312 -0.684181 0.000007
vn 0.000001 0.000001 1.000000
vn 0.000001 0.000001 1.000000
vn 0.000001 0.000001 1.000000
vn 0.000001 0.000001 1.000000
vn -0.811722 0.584044 0.000001
vn -0.811722 0.584044 0.000001
vn -0.000000 -0.000000 -1.000000
vn -0.000000 -0.000000 -1.000000
vn -0.000000 -0.000000 -1.000000
vn -0.000000 -0.000000 -1.000000
vn 0.977923 -0.208965 0.000005
vn 0.977923 -0.208965 0.000005
vn -0.000001 0.000002 1.000000
vn -0.000001 0.000002 1.000000
vn -0.000001 0.000002 1.000000
vn -0.000001 0.000002 1.000000
vn -0.994202 0.107526 0.000003
vn -0.994202 0.107525 0.000003
vn 0.000001 0.000000 -1.000000
vn 0.000001 0.000000 -1.000000
vn 0.000001 0.000000 -1.000000
vn 0.000001 0.000000 -1.000000
vn 0.905713 0.423891 -0.000002
vn 0.905714 0.423890 -0.000002
vn 0.000001 0.000001 1.000000
vn 0.000001 0.000001 1.000000
vn 0.000001 0.000001 1.000000
vn 0.000001 0.000001 1.000000
vn -0.912624 -0.408800 0.000004
vn -0.912624 -0.408800 0.000004
vn -0.000002 0.000005 -1.000000
vn -0.000002 0.000005 -1.000000
vn -0.000002 0.000005 -1.000000
vn -0.000002 0.000005 -1.000000
vn 0.545736 0.837957 -0.000001
vn 0.545734 0.837959 -0.000001
vn 0.000000 0.000002 1.000000
vn 0.000000 0.000002 1.000000
vn 0.000000 0.000002 1.000000
vn 0.000000 0.000002 1.000000
vn -0.286424 -0.958103 0.000002
vn -0.286426 -0.958102 0.000002
vn 0.000002 -0.000000 -1.000000
vn 0.000002 -0.000000 -1.000000
vn 0.000002 -0.000000 -1.000000
vn 0.000002 -0.000000 -1.000000
vn -0.395926 0.918283 0.000005
vn -0.395926 0.918282 0.000005
vn 0.000011 -0.000015 1.000000
vn 0.000011 -0.000015 1.000000
vn 0.000011 -0.000015 1.000000
vn 0.000011 -0.000015 1.000000
vn 0.246018 -0.969265 0.000003
vn 0.246017 -0.969266 0.000003
vn -0.000001 -0.000001 -1.000000
vn -0.000001 -0.000001 -1.000000
vn -0.000001 -0.000001 -1.000000
vn -0.000001 -0.000001 -1.000000
vn -0.804128 0.594456 0.000002
vn -0.804128 0.594456 0.000002
vn -0.000002 -0.000010 1.000000
vn -0.000002 -0.000010 1.000000
vn -0.000002 -0.000010 1.000000
vn -0.000002 -0.000010 1.000000
vn 0.859325 -0.511430 0.000003
vn 0.859326 -0.511428 0.000003
vn -0.000013 0.000008 -1.000000
vn -0.000013 0.000008 -1.000000
vn -0.000013 0.000008 -1.000000
vn -0.000013 0.000008 -1.000000
vn -0.967726 0.252006 -0.000004
vn -0.967726 0.252005 -0.000004
vn -0.000014 0.000007 1.000000
vn -0.000014 0.000007 1.000000
vn -0.000014 0.000007 1.000000
vn -0.000014 0.000007 1.000000
vn 0.995308 0.096763 0.000003
vn 0.995308 0.096760 0.000003
vn -0.000029 -0.000022 -1.000000
vn -0.000029 -0.000022 -1.000000
vn -0.000029 -0.000022 -1.000000
vn -0.911146 0.412084 -0.000007
vn -0.911146 0.412084 -0.000007
vn -0.000029 0.000015 1.000000
vn -0.000029 0.000015 1.000000
vn -0.000029 0.000015 1.000000
vn 0.744517 0.667604 0.000005
vn 0.744517 0.667604 0.000005
vn -0.000887 1.000000 0.000000
vn -0.000887 1.000000 0.000000
vn -0.000887 1.000000 0.000000
vn -0.000887 1.000000 0.000000
vn -0.001839 -0.031073 -0.999516
vn -0.004895 -0.032483 -0.999460
vn 0.004968 -0.032488 -0.999460
vn 0.001811 -0.031049 -0.999516
vn 0.278087 0.891803 -0.356867
vn 0.253407 0.899886 -0.354952
vn -0.254441 0.899166 -0.356034
vn -0.280249 0.890623 -0.358121
vn -0.903697 0.104834 -0.415140
vn -0.903697 0.104834 -0.415140
vn -0.829432 0.363279 -0.424348
vn -0.809717 0.406987 -0.422752
vn 0.903697 0.104835 -0.415140
vn 0.903697 0.104835 -0.415140
vn 0.807413 0.411856 -0.422444
vn 0.827867 0.367010 -0.424193
vn -0.016484 -0.037828 -0.999148
vn -0.016484 -0.037828 -0.999148
vn 0.017061 -0.037994 -0.999132
vn 0.017061 -0.037994 -0.999132
vn 0.171345 -0.985211 0.000002
vn 0.582674 -0.812706 0.000001
vn 0.586464 -0.809975 0.000001
vn 0.177960 -0.984038 0.000002
vn 0.000096 0.000063 -1.000000
vn 0.000076 0.000050 -1.000000
vn 0.000195 0.000128 -1.000000
vn 0.000195 0.000128 -1.000000
vn -0.017969 -0.011841 0.999768
vn -0.022795 -0.015020 0.999627
vn -0.046095 -0.030374 0.998475
vn -0.046095 -0.030374 0.998475
vn 0.000000 0.000000 1.000000
vn 0.000000 0.000000 1.000000
vn 0.000000 0.000000 1.000000
vn 0.000000 0.000000 1.000000
vn 0.835717 -0.549161 0.000000
vn 0.922764 -0.385365 0.000000
vn 0.922764 -0.385365 0.000000
vn 0.835717 -0.549161 0.000000
vn 0.000000 0.000000 -1.000000
vn 0.000000 0.000000 -1.000000
vn 0.000000 0.000000 -1.000000
vn 0.000000 0.000000 -1.000000
vn -0.000000 0.000000 1.000000
vn -0.000000 0.000000 1.000000
vn -0.000000 0.000000 1.000000
vn -0.000000 0.000000 1.000000
vn -0.252111 -0.967698 -0.000002
vn -0.252112 -0.967698 -0.000002
vn 0.000000 -0.000000 -1.000000
vn 0.000000 -0.000000 -1.000000
vn 0.000000 -0.000000 -1.000000
vn 0.000000 -0.000000 -1.000000
vn 0.083704 0.996491 0.000000
vn 0.083704 0.996491 0.000000
vn 0.315247 0.949010 -0.000000
vn 0.315248 0.949009 -0.000000
vn 0.000002 0.000000 1.000000
vn 0.000002 0.000000 1.000000
vn 0.000002 0.000000 1.000000
vn 0.000002 0.000000 1.000000
vn -0.729309 -0.684184 -0.000007
vn -0.729312 -0.684181 -0.000007
vn -0.000001 0.000001 -1.000000
vn -0.000001 0.000001 -1.000000
vn -0.000001 0.000001 -1.000000
vn -0.000001 0.000001 -1.000000
vn 0.811722 0.584044 -0.000001
vn 0.811722 0.584044 -0.000001
vn 0.000000 -0.000000 1.000000
vn 0.000000 -0.000000 1.000000
vn 0.000000 -0.000000 1.000000
vn 0.000000 -0.000000 1.000000
vn -0.977923 -0.208964 -0.000005
vn -0.977923 -0.208965 -0.000005
vn 0.000001 0.000002 -1.000000
vn 0.000001 0.000002 -1.000000
vn 0.000001 0.000002 -1.000000
vn 0.000001 0.000002 -1.000000
vn 0.994202 0.107525 -0.000003
vn 0.994202 0.107525 -0.000003
vn -0.000001 0.000000 1.000000
vn -0.000001 0.000000 1.000000
vn -0.000001 0.000000 1.000000
vn -0.000001 0.000000 1.000000
vn -0.905714 0.423890 0.000002
vn -0.905714 0.423890 0.000002
vn -0.000001 0.000001 -1.000000
vn -0.000001 0.000001 -1.000000
vn -0.000001 0.000001 -1.000000
vn -0.000001 0.000001 -1.000000
vn 0.912624 -0.408800 -0.000004
vn 0.912624 -0.408800 -0.000004
vn 0.000002 0.000005 1.000000
vn 0.000002 0.000005 1.000000
vn 0.000002 0.000005 1.000000
vn 0.000002 0.000005 1.000000
vn -0.545736 0.837957 0.000001
vn -0.545734 0.837959 0.000001
vn 0.000000 0.000002 -1.000000
vn 0.000000 0.000002 -1.000000
vn 0.000000 0.000002 -1.000000
vn 0.000000 0.000002 -1.000000
vn 0.286424 -0.958103 -0.000002
vn 0.286426 -0.958102 -0.000002
vn -0.000002 -0.000000 1.000000
vn -0.000002 -0.000000 1.000000
vn -0.000002 -0.000000 1.000000
vn -0.000002 -0.000000 1.000000
vn 0.395926 0.918283 -0.000005
vn 0.395926 0.918282 -0.000005
vn -0.000011 -0.000015 -1.000000
vn -0.000011 -0.000015 -1.000000
vn -0.000011 -0.000015 -1.000000
vn -0.000011 -0.000015 -1.000000
vn -0.246018 -0.969265 -0.000003
vn -0.246017 -0.969266 -0.000003
vn 0.000001 -0.000001 1.000000
vn 0.000001 -0.000001 1.000000
vn 0.000001 -0.000001 1.000000
vn 0.000001 -0.000001 1.000000
vn 0.804128 0.594457 -0.000002
vn 0.804128 0.594456 -0.000002
vn 0.000002 -0.000010 -1.000000
vn 0.000002 -0.000010 -1.000000
vn 0.000002 -0.000010 -1.000000
vn 0.000002 -0.000010 -1.000000
vn -0.859325 -0.511429 -0.000003
vn -0.859326 -0.511428 -0.000003
vn 0.000013 0.000008 1.000000
vn 0.000013 0.000008 1.000000
vn 0.000013 0.000008 1.000000
vn 0.000013 0.000008 1.000000
vn 0.967726 0.252006 0.000004
vn 0.967726 0.252005 0.000004
vn 0.000014 0.000007 -1.000000
vn 0.000014 0.000007 -1.000000
vn 0.000014 0.000007 -1.000000
vn 0.000014 0.000007 -1.000000
vn -0.995307 0.096764 -0.000003
vn -0.995308 0.096761 -0.000003
vn 0.000030 -0.000022 1.000000
vn 0.000030 -0.000022 1.000000
vn 0.000030 -0.000022 1.000000
vn 0.911147 0.412082 0.000007
vn 0.911147 0.412082 0.000007
vn 0.000029 0.000015 -1.000000
vn 0.000029 0.000015 -1.000000
vn 0.000029 0.000015 -1.000000
vn -0.744516 0.667604 -0.000005
vn -0.744516 0.667604 -0.000005
vn 0.000887 1.000000 0.000000
vn 0.000887 1.000000 0.000000
vn 0.000887 1.000000 0.000000
vn 0.000887 1.000000 0.000000
vn -0.000001 -0.985211 0.171345
vn -0.000001 -0.812706 0.582674
vn -0.000001 -0.809976 0.586464
vn -0.000001 -0.984038 0.177960
vn 1.000000 0.000063 0.000096
vn 1.000000 0.000050 0.000076
vn 1.000000 0.000128 0.000195
vn 1.000000 0.000128 0.000195
vn -0.999768 -0.011841 -0.017969
vn -0.999627 -0.015020 -0.022795
vn -0.998475 -0.030374 -0.046095
vn -0.998475 -0.030374 -0.046095
vn -1.000000 -0.000000 0.000000
vn -1.000000 -0.000000 0.000000
vn -1.000000 -0.000000 0.000000
vn -1.000000 -0.000000 0.000000
vn 0.000000 -0.549161 0.835717
vn 0.000000 -0.385365 0.922764
vn 0.000000 -0.385365 0.922764
vn 0.000000 -0.549161 0.835717
vn 1.000000 0.000000 0.000000
vn 1.000000 0.000000 0.000000
vn 1.000000 0.000000 0.000000
vn 1.000000 0.000000 0.000000
vn -1.000000 0.000000 0.000000
vn -1.000000 0.000000 0.000000
vn -1.000000 0.000000 0.000000
vn -1.000000 0.000000 0.000000
vn 0.000002 -0.967698 -0.252111
vn 0.000002 -0.967698 -0.252112
vn 1.000000 -0.000000 0.000000
vn 1.000000 -0.000000 0.000000
vn 1.000000 -0.000000 0.000000
vn 1.000000 -0.000000 0.000000
vn 0.000001 0.996491 0.083704
vn 0.000001 0.996491 0.083704
vn 0.000001 0.949010 0.315247
vn 0.000001 0.949010 0.315248
vn -1.000000 0.000000 0.000002
vn -1.000000 0.000000 0.000002
vn -1.000000 0.000000 0.000002
vn -1.000000 0.000000 0.000002
vn 0.000007 -0.684184 -0.729309
vn 0.000007 -0.684181 -0.729312
vn 1.000000 0.000001 -0.000001
vn 1.000000 0.000001 -0.000001
vn 1.000000 0.000001 -0.000001
vn 1.000000 0.000001 -0.000001
vn 0.000001 0.584044 0.811722
vn 0.000001 0.584044 0.811722
vn -1.000000 -0.000000 0.000000
vn -1.000000 -0.000000 0.000000
vn -1.000000 -0.000000 0.000000
vn -1.000000 -0.000000 0.000000
vn 0.000005 -0.208964 -0.977923
vn 0.000005 -0.208964 -0.977923
vn 1.000000 0.000002 0.000001
vn 1.000000 0.000002 0.000001
vn 1.000000 0.000002 0.000001
vn 1.000000 0.000002 0.000001
vn 0.000003 0.107525 0.994202
vn 0.000003 0.107525 0.994202
vn -1.000000 0.000000 -0.000001
vn -1.000000 0.000000 -0.000001
vn -1.000000 0.000000 -0.000001
vn -1.000000 0.000000 -0.000001
vn -0.000002 0.423890 -0.905714
vn -0.000002 0.423890 -0.905714
vn 1.000000 0.000001 -0.000001
vn 1.000000 0.000001 -0.000001
vn 1.000000 0.000001 -0.000001
vn 1.000000 0.000001 -0.000001
vn 0.000004 -0.408800 0.912624
vn 0.000004 -0.408800 0.912624
vn -1.000000 0.000005 0.000002
vn -1.000000 0.000005 0.000002
vn -1.000000 0.000005 0.000002
vn -1.000000 0.000005 0.000002
vn -0.000000 0.837958 -0.545735
vn -0.000000 0.837959 -0.545733
vn 1.000000 0.000002 -0.000000
vn 1.000000 0.000002 -0.000000
vn 1.000000 0.000002 -0.000000
vn 1.000000 0.000002 -0.000000
vn 0.000002 -0.958103 0.286423
vn 0.000002 -0.958103 0.286426
vn -1.000000 -0.000000 -0.000002
vn -1.000000 -0.000000 -0.000002
vn -1.000000 -0.000000 -0.000002
vn -1.000000 -0.000000 -0.000002
vn 0.000005 0.918281 0.395929
vn 0.000005 0.918281 0.395929
vn 1.000000 -0.000015 -0.000011
vn 1.000000 -0.000015 -0.000011
vn 1.000000 -0.000015 -0.000011
vn 1.000000 -0.000015 -0.000011
vn 0.000002 -0.969265 -0.246019
vn 0.000002 -0.969265 -0.246018
vn -1.000000 -0.000001 0.000001
vn -1.000000 -0.000001 0.000001
vn -1.000000 -0.000001 0.000001
vn -1.000000 -0.000001 0.000001
vn 0.000002 0.594456 0.804128
vn 0.000002 0.594456 0.804128
vn 1.000000 -0.000010 0.000002
vn 1.000000 -0.000010 0.000002
vn 1.000000 -0.000010 0.000002
vn 1.000000 -0.000010 0.000002
vn 0.000002 -0.511429 -0.859325
vn 0.000002 -0.511428 -0.859326
vn -1.000000 0.000008 0.000013
vn -1.000000 0.000008 0.000013
vn -1.000000 0.000008 0.000013
vn -1.000000 0.000008 0.000013
vn -0.000004 0.252006 0.967726
vn -0.000004 0.252005 0.967726
vn 1.000000 0.000007 0.000014
vn 1.000000 0.000007 0.000014
vn 1.000000 0.000007 0.000014
vn 1.000000 0.000007 0.000014
vn 0.000003 0.096763 -0.995307
vn 0.000003 0.096761 -0.995308
vn -1.000000 -0.000022 0.000030
vn -1.000000 -0.000022 0.000030
vn -1.000000 -0.000022 0.000030
vn -0.000007 0.412082 0.911147
vn -0.000007 0.412082 0.911147
vn 1.000000 0.000015 0.000029
vn 1.000000 0.000015 0.000029
vn 1.000000 0.000015 0.000029
vn 0.000006 0.667600 -0.744520
vn 0.000006 0.667600 -0.744520
vn 0.000000 1.000000 0.000888
vn 0.000000 1.000000 0.000888
vn 0.000000 1.000000 0.000888
vn 0.000000 1.000000 0.000888
vn 0.000000 0.000000 -1.000000
vn 0.000000 0.000000 -1.000000
vn 0.000000 0.000000 -1.000000
vn -0.859504 -0.006784 -0.511084
vn -0.859167 0.009962 -0.511599
vn -0.719687 0.528082 -0.450754
vn -0.719687 0.528082 -0.450754
vn 0.859167 0.009962 -0.511599
vn 0.859504 -0.006784 -0.511084
vn 0.719687 0.528082 -0.450754
vn 0.719687 0.528082 -0.450754
vn 0.753423 -0.500121 -0.426888
vn 0.753423 -0.500121 -0.426888
vn 0.000000 0.000000 -1.000000
vn -0.753423 -0.500121 -0.426888
vn -0.753423 -0.500121 -0.426888
vn 0.999516 -0.031073 -0.001839
vn 0.999460 -0.032483 -0.004895
vn 0.999460 -0.032488 0.004968
vn 0.999516 -0.031049 0.001811
vn 0.356867 0.891804 0.278088
vn 0.354951 0.899886 0.253407
vn 0.356034 0.899166 -0.254441
vn 0.358121 0.890624 -0.280249
vn 0.415140 0.104834 -0.903697
vn 0.415140 0.104834 -0.903697
vn 0.424348 0.363279 -0.829432
vn 0.422753 0.406987 -0.809717
vn 0.415140 0.104835 0.903697
vn 0.415140 0.104835 0.903697
vn 0.422444 0.411856 0.807413
vn 0.424193 0.367010 0.827867
vn 0.999148 -0.037828 -0.016484
vn 0.999148 -0.037828 -0.016484
vn 0.999132 -0.037994 0.017061
vn 0.999132 -0.037994 0.017061
vn 0.669001 -0.323847 -0.669000
vn 0.000000 -0.323847 -0.946110
vn 0.000000 -0.323847 -0.946109
vn 0.669001 -0.323847 -0.669000
vn -0.669001 -0.323847 -0.669000
vn -0.669001 -0.323847 -0.669000
vn -0.946110 -0.323846 0.000000
vn -0.946110 -0.323846 0.000000
vn -0.669001 -0.323847 0.669000
vn -0.669001 -0.323847 0.669000
vn -0.000000 -0.323847 0.946109
vn -0.000000 -0.323847 0.946109
vn 0.669001 -0.323847 0.669000
vn 0.669001 -0.323847 0.669000
vn 0.946110 -0.323847 -0.000000
vn 0.946110 -0.323847 -0.000000
vn 0.000000 -1.000000 -0.000000
vn 0.000000 -1.000000 -0.000000
vn 0.000000 -1.000000 -0.000000
vn 0.000000 -1.000000 0.000000
vn 0.000000 -1.000000 0.000000
vn 0.000000 -1.000000 -0.000000
vn 0.000000 -1.000000 -0.000000
vn 0.000000 -1.000000 0.000000
vn 0.000000 -1.000000 0.000000
vn 0.000000 1.000000 0.000000
vn 0.000000 1.000000 -0.000000
vn 0.000000 1.000000 -0.000000
vn 0.000000 1.000000 -0.000000
vn 0.000000 1.000000 0.000000
vn 0.000000 1.000000 0.000000
vn 0.000000 1.000000 -0.000000
vn 0.000000 1.000000 -0.000000
vn 0.000000 1.000000 0.000000
vn -1.000000 0.000000 0.000000
vn -1.000000 0.000000 0.000000
vn -1.000000 0.000000 0.000000
vn -0.511084 -0.006784 0.859504
vn -0.511599 0.009962 0.859167
vn -0.450755 0.528082 0.719687
vn -0.450755 0.528082 0.719687
vn -0.511599 0.009962 -0.859167
vn -0.511084 -0.006784 -0.859504
vn -0.450755 0.528082 -0.719687
vn -0.450755 0.528082 -0.719687
vn -0.426888 -0.500121 -0.753423
vn -0.426888 -0.500121 -0.753423
vn -1.000000 0.000000 0.000000
vn -0.426888 -0.500121 0.753423
vn -0.426888 -0.500121 0.753423
vn 0.707107 0.000000 -0.707107
vn 0.000000 0.000000 -1.000000
vn 0.000000 0.000000 -1.000000
vn 0.707107 0.000000 -0.707107
vn -0.707107 0.000000 -0.707107
vn -0.707107 0.000000 -0.707107
vn -1.000000 0.000000 0.000000
vn -1.000000 0.000000 0.000000
vn -0.707107 0.000000 0.707107
vn -0.707107 0.000000 0.707107
vn -0.000000 0.000000 1.000000
vn -0.000000 0.000000 1.000000
vn 0.707107 0.000000 0.707107
vn 0.707107 0.000000 0.707107
vn 1.000000 0.000000 0.000000
vn 1.000000 0.000000 0.000000
vn 0.001839 -0.031073 0.999515
vn 0.004895 -0.032483 0.999460
vn -0.004968 -0.032488 0.999460
vn -0.001811 -0.031049 0.999516
vn -0.278087 0.891803 0.356867
vn -0.253407 0.899886 0.354952
vn 0.254441 0.899166 0.356034
vn 0.280249 0.890623 0.358121
vn 0.903697 0.104834 0.415140
vn 0.903697 0.104834 0.415140
vn 0.829432 0.363279 0.424348
vn 0.809717 0.406987 0.422753
vn -0.903697 0.104835 0.415140
vn -0.903697 0.104835 0.415140
vn -0.807413 0.411856 0.422445
vn -0.827867 0.367010 0.424193
vn 0.016484 -0.037828 0.999148
vn 0.016484 -0.037828 0.999148
vn -0.017061 -0.037994 0.999132
vn -0.017061 -0.037994 0.999132
vn 0.999806 0.000000 -0.019713
vn 0.999806 0.000000 -0.019713
vn 0.999806 0.000000 -0.019713
vn 0.999806 0.000000 -0.019713
vn 0.482831 0.000000 -0.875714
vn 0.482831 0.000000 -0.875714
vn 0.482831 0.000000 -0.875714
vn 0.482831 0.000000 -0.875714
vn -0.516975 0.000000 -0.856001
vn -0.516975 0.000000 -0.856001
vn -0.516975 0.000000 -0.856001
vn -0.516975 0.000000 -0.856001
vn -0.999806 0.000000 0.019713
vn -0.999806 0.000000 0.019713
vn -0.999806 0.000000 0.019713
vn -0.999806 0.000000 0.019713
vn -0.482831 0.000000 0.875714
vn -0.482831 0.000000 0.875714
vn -0.482831 0.000000 0.875714
vn -0.482831 0.000000 0.875714
vn 0.516975 0.000000 0.856001
vn 0.516975 0.000000 0.856001
vn 0.516975 0.000000 0.856001
vn 0.516975 0.000000 0.856001
vn 0.000000 1.000000 -0.000000
vn 0.000000 1.000000 0.000000
vn 0.000000 1.000000 0.000000
vn 0.000000 1.000000 0.000000
vn 0.000000 1.000000 -0.000000
vn 0.000000 1.000000 0.000000
vn 0.000000 1.000000 0.000000
s 1
g Button_Pillar polySurface22
usemtl lambert3SG
f 102/74/74 103/75/75 92/76/76 93/77/77
s 2
f 94/78/78 95/79/79 100/80/80 101/81/81
s 3
f 108/82/82 109/83/83 94/78/84 101/81/85
s 4
f 97/84/86 112/85/87 113/86/88 98/87/89
s off
f 122/88/90 123/89/91 124/90/92 125/91/93
f 126/92/94 127/93/95 128/94/96 129/95/97
s 2
f 98/87/98 99/96/99 96/97/100 97/84/101
s 1
f 90/98/102 91/99/103 104/100/104 105/101/105
f 91/99/103 90/98/102 74/102/106 86/103/107
f 92/76/76 91/99/103 86/103/107 82/104/108
f 93/77/77 92/76/76 82/104/108 75/105/109
s 3
f 94/78/84 109/83/83 110/106/110 81/107/111
s 2
f 95/79/79 94/78/78 81/107/112 83/108/113
f 96/97/100 95/79/79 83/108/113 87/109/114
f 97/84/101 96/97/100 87/109/114 80/110/115
s 4
f 112/85/87 97/84/86 80/110/116 111/111/117
s 2
f 99/96/99 98/87/98 78/112/118 88/113/119
f 100/80/80 99/96/99 88/113/119 84/114/120
f 101/81/81 100/80/80 84/114/120 79/115/121
s 3
f 108/82/82 101/81/85 79/115/122 107/116/123
s 1
f 103/75/75 102/74/74 77/117/124 85/118/125
f 104/100/104 103/75/75 85/118/125 89/119/126
f 105/101/105 104/100/104 89/119/126 76/120/127
s 4
f 78/112/128 98/87/89 113/86/88 106/121/129
s 3
f 116/122/130 108/82/82 107/116/123 115/123/131
s off
f 130/124/132 131/125/133 132/126/134 133/127/135
s 3
f 109/83/83 117/128/136 118/129/137 110/106/110
s 4
f 120/130/138 112/85/87 111/111/117 119/131/139
s off
f 135/132/140 134/133/141 136/134/142 137/135/143
s 4
f 113/86/88 121/136/144 114/137/145 106/121/129
s 3
f 102/74/146 116/122/130 115/123/131 77/117/147
f 93/77/148 117/128/136 116/122/130 102/74/146
f 117/128/136 93/77/148 75/105/149 118/129/137
s 4
f 90/138/150 120/130/138 119/131/139 74/139/151
f 121/136/144 120/130/138 90/138/150 105/140/152
f 121/136/144 105/140/152 76/141/153 114/137/145
s off
f 95/79/154 96/97/155 123/89/156 122/88/157
f 96/97/158 99/96/159 124/90/160 123/89/161
f 99/96/162 100/80/163 125/91/164 124/90/165
f 100/80/166 95/79/167 122/142/168 125/143/169
f 103/75/170 104/100/171 127/93/172 126/92/173
f 104/100/174 91/99/175 128/94/176 127/93/177
f 91/99/178 92/76/179 129/95/180 128/94/181
f 92/76/182 103/75/183 126/92/184 129/95/185
f 116/122/186 117/128/187 131/144/188 130/145/189
f 117/128/190 109/83/191 132/126/192 131/125/193
f 109/83/194 108/82/195 133/146/196 132/147/197
f 108/82/198 116/122/199 130/124/200 133/127/201
f 113/86/202 112/85/203 134/133/204 135/132/205
f 112/85/206 120/130/207 136/134/208 134/133/209
f 120/130/210 121/136/211 137/135/212 136/134/213
f 121/136/214 113/86/215 135/132/216 137/135/217
s 7
f 138/148/218 139/149/219 147/150/220 146/151/221
f 139/149/219 140/152/222 148/153/223 147/150/220
f 140/152/222 141/154/224 149/155/225 148/153/223
f 141/154/224 142/156/226 150/157/227 149/155/225
f 142/156/226 143/158/228 151/159/229 150/157/227
f 143/158/228 144/160/230 152/161/231 151/159/229
f 144/160/230 145/162/232 153/163/233 152/161/231
f 145/162/232 138/148/218 146/151/221 153/163/233
s 8
f 139/164/234 138/165/235 154/166/236
f 140/167/237 139/164/234 154/166/236
f 141/168/238 140/167/237 154/166/236
f 142/169/239 141/168/238 154/166/236
f 143/170/240 142/169/239 154/166/236
f 144/171/241 143/170/240 154/166/236
f 145/172/242 144/171/241 154/166/236
f 138/165/235 145/172/242 154/166/236
s 9
f 146/151/243 147/150/244 155/173/245
f 147/150/244 148/153/246 155/173/245
f 148/153/246 149/155/247 155/173/245
f 149/155/247 150/157/248 155/173/245
f 150/157/248 151/159/249 155/173/245
f 151/159/249 152/161/250 155/173/245
f 152/161/250 153/163/251 155/173/245
f 153/163/251 146/151/243 155/173/245
s 10
f 156/174/252 157/175/253 165/176/254 164/177/255
f 157/175/253 158/178/256 166/179/257 165/176/254
f 158/178/256 159/180/258 167/181/259 166/179/257
f 159/180/258 160/182/260 168/183/261 167/181/259
f 160/182/260 161/184/262 169/185/263 168/183/261
f 161/184/262 162/186/264 170/187/265 169/185/263
f 162/186/264 163/188/266 171/189/267 170/187/265
f 163/188/266 156/174/252 164/177/255 171/189/267
s 11
f 164/177/268 165/176/269 172/190/270
f 165/176/269 166/179/271 172/190/270
f 166/179/271 167/181/272 172/190/270
f 167/181/272 168/183/273 172/190/270
f 168/183/273 169/185/274 172/190/270
f 169/185/274 170/187/275 172/190/270
f 170/187/275 171/189/276 172/190/270
f 171/189/276 164/177/268 172/190/270
s off
f 173/191/277 174/192/278 176/193/279 175/194/280
f 181/195/281 182/196/282 183/197/283 184/198/284
f 177/199/285 178/200/286 180/201/287 179/202/288
f 174/203/289 180/204/290 178/205/291 176/206/292
f 179/202/293 173/191/294 175/194/295 177/199/296
f 175/194/297 176/206/298 182/196/299 181/195/300
f 176/206/301 178/205/302 183/197/303 182/196/304
f 178/205/305 177/199/306 184/198/307 183/197/308
f 177/199/309 175/194/310 181/195/311 184/198/312
s 12
f 190/207/313 191/208/314 186/209/315
s 13
f 191/208/316 192/210/317 187/211/318 186/209/319
s 14
f 189/212/320 190/207/321 186/209/322 187/211/323
f 188/213/324 185/214/325 190/207/321 189/212/320
s 12
f 185/214/326 191/208/314 190/207/313
s 13
f 185/214/327 188/213/328 192/210/317 191/208/316
s 15
f 203/215/329 201/216/330 204/217/331 205/218/332
s 16
f 202/219/333 203/215/334 205/218/335 206/220/336
f 194/221/337 200/222/338 198/223/339 196/224/340
f 199/225/341 193/226/342 195/227/343 197/228/344
f 195/227/343 203/215/334 202/219/333 197/228/344
s 15
f 193/226/345 201/216/330 203/215/329 195/227/346
f 205/218/332 204/217/331 194/221/347 196/224/348
s 16
f 206/220/336 205/218/335 196/224/340 198/223/339
s 17
f 212/229/349 213/230/350 208/231/351
s 18
f 213/230/352 214/232/353 209/233/354 208/231/355
s 19
f 211/234/356 212/229/357 208/231/358 209/233/359
f 210/235/360 207/236/361 212/229/357 211/234/356
s 17
f 207/236/362 213/230/350 212/229/349
s 18
f 207/236/363 210/235/364 214/232/353 213/230/352
s 20
f 217/237/365 228/238/366 229/239/367 218/240/368
s 21
f 229/241/369 230/242/370 220/243/371 218/244/372
s 22
f 227/245/373 228/246/374 217/247/375 219/248/376
f 221/249/377 215/250/378 224/251/379 223/252/380
s 20
f 224/253/381 215/254/382 216/255/383 225/256/384
s 21
f 216/257/385 222/258/386 226/259/387 225/260/388
s 22
f 223/252/380 224/251/379 228/246/374 227/245/373
s 20
f 228/238/366 224/253/381 225/256/384 229/239/367
s 21
f 225/260/388 226/259/387 230/242/370 229/241/369
s off
f 219/248/389 217/247/390 231/261/391 232/262/392
s 20
f 231/263/393 217/237/365 218/240/368 233/264/394
s off
f 218/244/395 220/243/396 234/265/397 233/266/398
s 23
f 220/267/399 219/268/400 232/269/401 234/270/402
s off
f 232/262/403 231/261/404 235/271/405 236/272/406
s 20
f 235/273/407 231/263/393 233/264/394 237/274/408
s off
f 233/266/409 234/265/410 238/275/411 237/276/412
s 23
f 232/269/401 236/277/413 238/278/414 234/270/402
s off
f 236/272/415 235/271/416 239/279/417 240/280/418
s 20
f 239/281/419 235/273/407 237/274/408 241/282/420
s off
f 237/276/421 238/275/422 242/283/423 241/284/424
s 23
f 236/277/413 240/285/425 242/286/426 238/278/414
s off
f 240/280/427 239/279/428 243/287/429 244/288/430
s 20
f 243/289/431 239/281/419 241/282/420 245/290/432
s off
f 241/284/433 242/283/434 246/291/435 245/292/436
s 23
f 240/285/425 244/293/437 246/294/438 242/286/426
s off
f 244/288/439 243/287/440 247/295/441 248/296/442
s 20
f 247/297/443 243/289/431 245/290/432 249/298/444
s off
f 245/292/445 246/291/446 250/299/447 249/300/448
s 23
f 244/293/437 248/301/449 250/302/450 246/294/438
s off
f 248/296/451 247/295/452 251/303/453 252/304/454
s 20
f 251/305/455 247/297/443 249/298/444 253/306/456
s off
f 249/300/457 250/299/458 254/307/459 253/308/460
s 23
f 248/301/449 252/309/461 254/310/462 250/302/450
s off
f 252/304/463 251/303/464 255/311/465 256/312/466
s 20
f 255/313/467 251/305/455 253/306/456 257/314/468
s off
f 253/308/469 254/307/470 258/315/471 257/316/472
s 23
f 252/309/461 256/317/473 258/318/474 254/310/462
s off
f 256/312/475 255/311/476 259/319/477 260/320/478
s 20
f 259/321/479 255/313/467 257/314/468 261/322/480
s off
f 257/316/481 258/315/482 262/323/483 261/324/484
s 23
f 256/317/473 260/325/485 262/326/486 258/318/474
s off
f 260/320/487 259/319/488 263/327/489
s 20
f 263/328/490 259/321/479 261/322/480 264/329/491
s off
f 261/324/492 262/323/493 264/330/494
s 23
f 260/325/485 263/328/495 264/329/496 262/326/486
s off
f 227/331/497 219/268/498 220/267/499 230/332/500
s 24
f 267/333/501 278/334/502 279/335/503 268/336/504
s 25
f 279/337/505 280/338/506 270/339/507 268/340/508
s 26
f 277/341/509 278/342/510 267/343/511 269/344/512
f 271/345/513 265/346/514 274/347/515 273/348/516
s 24
f 274/349/517 265/350/518 266/351/519 275/352/520
s 25
f 266/353/521 272/354/522 276/355/523 275/356/524
s 26
f 273/348/516 274/347/515 278/342/510 277/341/509
s 24
f 278/334/502 274/349/517 275/352/520 279/335/503
s 25
f 275/356/524 276/355/523 280/338/506 279/337/505
s off
f 269/344/525 267/343/526 281/357/527 282/358/528
s 24
f 281/359/529 267/333/501 268/336/504 283/360/530
s off
f 268/340/531 270/339/532 284/361/533 283/362/534
s 27
f 270/363/535 269/364/536 282/365/537 284/366/538
s off
f 282/358/539 281/357/540 285/367/541 286/368/542
s 24
f 285/369/543 281/359/529 283/360/530 287/370/544
s off
f 283/362/545 284/361/546 288/371/547 287/372/548
s 27
f 282/365/537 286/373/549 288/374/550 284/366/538
s off
f 286/368/551 285/367/552 289/375/553 290/376/554
s 24
f 289/377/555 285/369/543 287/370/544 291/378/556
s off
f 287/372/557 288/371/558 292/379/559 291/380/560
s 27
f 286/373/549 290/381/561 292/382/562 288/374/550
s off
f 290/376/563 289/375/564 293/383/565 294/384/566
s 24
f 293/385/567 289/377/555 291/378/556 295/386/568
s off
f 291/380/569 292/379/570 296/387/571 295/388/572
s 27
f 290/381/561 294/389/573 296/390/574 292/382/562
s off
f 294/384/575 293/383/576 297/391/577 298/392/578
s 24
f 297/393/579 293/385/567 295/386/568 299/394/580
s off
f 295/388/581 296/387/582 300/395/583 299/396/584
s 27
f 294/389/573 298/397/585 300/398/586 296/390/574
s off
f 298/392/587 297/391/588 301/399/589 302/400/590
s 24
f 301/401/591 297/393/579 299/394/580 303/402/592
s off
f 299/396/593 300/395/594 304/403/595 303/404/596
s 27
f 298/397/585 302/405/597 304/406/598 300/398/586
s off
f 302/400/599 301/399/600 305/407/601 306/408/602
s 24
f 305/409/603 301/401/591 303/402/592 307/410/604
s off
f 303/404/605 304/403/606 308/411/607 307/412/608
s 27
f 302/405/597 306/413/609 308/414/610 304/406/598
s off
f 306/408/611 305/407/612 309/415/613 310/416/614
s 24
f 309/417/615 305/409/603 307/410/604 311/418/616
s off
f 307/412/617 308/411/618 312/419/619 311/420/620
s 27
f 306/413/609 310/421/621 312/422/622 308/414/610
s off
f 310/416/623 309/415/624 313/423/625
s 24
f 313/424/626 309/417/615 311/418/616 314/425/627
s off
f 311/420/628 312/419/629 314/426/630
s 27
f 310/421/621 313/424/631 314/425/632 312/422/622
s off
f 277/427/633 269/364/634 270/363/635 280/428/636
s 28
f 325/429/637 323/430/638 326/431/639 327/432/640
s 29
f 324/433/641 325/429/642 327/432/643 328/434/644
f 316/435/645 322/436/646 320/437/647 318/438/648
f 321/439/649 315/440/650 317/441/651 319/442/652
f 317/441/651 325/429/642 324/433/641 319/442/652
s 28
f 315/440/653 323/430/638 325/429/637 317/441/654
f 327/432/640 326/431/639 316/435/655 318/438/656
s 29
f 328/434/644 327/432/643 318/438/648 320/437/647
s 30
f 331/443/657 342/444/658 343/445/659 332/446/660
s 31
f 343/447/661 344/448/662 334/449/663 332/450/664
s 32
f 341/451/665 342/452/666 331/453/667 333/454/668
f 335/455/669 329/456/670 338/457/671 337/458/672
s 30
f 338/459/673 329/460/674 330/461/675 339/462/676
s 31
f 330/463/677 336/464/678 340/465/679 339/466/680
s 32
f 337/458/672 338/457/671 342/452/666 341/451/665
s 30
f 342/444/658 338/459/673 339/462/676 343/445/659
s 31
f 339/466/680 340/465/679 344/448/662 343/447/661
s off
f 333/454/681 331/453/682 345/467/683 346/468/684
s 30
f 345/469/685 331/443/657 332/446/660 347/470/686
s off
f 332/450/687 334/449/688 348/471/689 347/472/690
s 33
f 334/473/691 333/474/692 346/475/693 348/476/694
s off
f 346/468/695 345/467/696 349/477/697 350/478/698
s 30
f 349/479/699 345/469/685 347/470/686 351/480/700
s off
f 347/472/701 348/471/702 352/481/703 351/482/704
s 33
f 346/475/693 350/483/705 352/484/706 348/476/694
s off
f 350/478/707 349/477/708 353/485/709 354/486/710
s 30
f 353/487/711 349/479/699 351/480/700 355/488/712
s off
f 351/482/713 352/481/714 356/489/715 355/490/716
s 33
f 350/483/705 354/491/717 356/492/718 352/484/706
s off
f 354/486/719 353/485/720 357/493/721 358/494/722
s 30
f 357/495/723 353/487/711 355/488/712 359/496/724
s off
f 355/490/725 356/489/726 360/497/727 359/498/728
s 33
f 354/491/717 358/499/729 360/500/730 356/492/718
s off
f 358/494/731 357/493/732 361/501/733 362/502/734
s 30
f 361/503/735 357/495/723 359/496/724 363/504/736
s off
f 359/498/737 360/497/738 364/505/739 363/506/740
s 33
f 358/499/729 362/507/741 364/508/742 360/500/730
s off
f 362/502/743 361/501/744 365/509/745 366/510/746
s 30
f 365/511/747 361/503/735 363/504/736 367/512/748
s off
f 363/506/749 364/505/750 368/513/751 367/514/752
s 33
f 362/507/741 366/515/753 368/516/754 364/508/742
s off
f 366/510/755 365/509/756 369/517/757 370/518/758
s 30
f 369/519/759 365/511/747 367/512/748 371/520/760
s off
f 367/514/761 368/513/762 372/521/763 371/522/764
s 33
f 366/515/753 370/523/765 372/524/766 368/516/754
s off
f 370/518/767 369/517/768 373/525/769 374/526/770
s 30
f 373/527/771 369/519/759 371/520/760 375/528/772
s off
f 371/522/773 372/521/774 376/529/775 375/530/776
s 33
f 370/523/765 374/531/777 376/532/778 372/524/766
s off
f 374/526/779 373/525/780 377/533/781
s 30
f 377/534/782 373/527/771 375/528/772 378/535/783
s off
f 375/530/784 376/529/785 378/536/786
s 33
f 374/531/777 377/534/787 378/535/788 376/532/778
s off
f 341/537/789 333/474/790 334/473/791 344/538/792
s 34
f 381/539/793 392/540/794 393/541/795 382/542/796
s 35
f 393/543/797 394/544/798 384/545/799 382/546/800
s 36
f 391/547/801 392/548/802 381/549/803 383/550/804
f 385/551/805 379/552/806 388/553/807 387/554/808
s 34
f 388/555/809 379/556/810 380/557/811 389/558/812
s 35
f 380/559/813 386/560/814 390/561/815 389/562/816
s 36
f 387/554/808 388/553/807 392/548/802 391/547/801
s 34
f 392/540/794 388/555/809 389/558/812 393/541/795
s 35
f 389/562/816 390/561/815 394/544/798 393/543/797
s off
f 383/550/817 381/549/818 395/563/819 396/564/820
s 34
f 395/565/821 381/539/793 382/542/796 397/566/822
s off
f 382/546/823 384/545/824 398/567/825 397/568/826
s 37
f 384/569/827 383/570/828 396/571/829 398/572/830
s off
f 396/564/831 395/563/832 399/573/833 400/574/834
s 34
f 399/575/835 395/565/821 397/566/822 401/576/836
s off
f 397/568/837 398/567/838 402/577/839 401/578/840
s 37
f 396/571/829 400/579/841 402/580/842 398/572/830
s off
f 400/574/843 399/573/844 403/581/845 404/582/846
s 34
f 403/583/847 399/575/835 401/576/836 405/584/848
s off
f 401/578/849 402/577/850 406/585/851 405/586/852
s 37
f 400/579/841 404/587/853 406/588/854 402/580/842
s off
f 404/582/855 403/581/856 407/589/857 408/590/858
s 34
f 407/591/859 403/583/847 405/584/848 409/592/860
s off
f 405/586/861 406/585/862 410/593/863 409/594/864
s 37
f 404/587/853 408/595/865 410/596/866 406/588/854
s off
f 408/590/867 407/589/868 411/597/869 412/598/870
s 34
f 411/599/871 407/591/859 409/592/860 413/600/872
s off
f 409/594/873 410/593/874 414/601/875 413/602/876
s 37
f 408/595/865 412/603/877 414/604/878 410/596/866
s off
f 412/598/879 411/597/880 415/605/881 416/606/882
s 34
f 415/607/883 411/599/871 413/600/872 417/608/884
s off
f 413/602/885 414/601/886 418/609/887 417/610/888
s 37
f 412/603/877 416/611/889 418/612/890 414/604/878
s off
f 416/606/891 415/605/892 419/613/893 420/614/894
s 34
f 419/615/895 415/607/883 417/608/884 421/616/896
s off
f 417/610/897 418/609/898 422/617/899 421/618/900
s 37
f 416/611/889 420/619/901 422/620/902 418/612/890
s off
f 420/614/903 419/613/904 423/621/905 424/622/906
s 34
f 423/623/907 419/615/895 421/616/896 425/624/908
s off
f 421/618/909 422/617/910 426/625/911 425/626/912
s 37
f 420/619/901 424/627/913 426/628/914 422/620/902
s off
f 424/622/915 423/621/916 427/629/917
s 34
f 427/630/918 423/623/907 425/624/908 428/631/919
s off
f 425/626/920 426/625/921 428/632/922
s 37
f 424/627/913 427/630/923 428/631/924 426/628/914
s off
f 391/633/925 383/570/926 384/569/927 394/634/928
s 38
f 434/635/929 435/636/930 430/637/931
s 39
f 435/636/932 436/638/933 431/639/934 430/637/935
s 40
f 433/640/936 434/635/937 430/637/938 431/639/939
f 432/641/940 429/642/941 434/635/937 433/640/936
s 38
f 429/642/942 435/636/930 434/635/929
s 39
f 429/642/943 432/641/944 436/638/933 435/636/932
s 41
f 447/643/945 445/644/946 448/645/947 449/646/948
s 42
f 446/647/949 447/643/950 449/646/951 450/648/952
f 438/649/953 444/650/954 442/651/955 440/652/956
f 443/653/957 437/654/958 439/655/959 441/656/960
f 439/655/959 447/643/950 446/647/949 441/656/960
s 41
f 437/654/961 445/644/946 447/643/945 439/655/962
f 449/646/948 448/645/947 438/649/963 440/652/964
s 42
f 450/648/952 449/646/951 440/652/956 442/651/955
s 43
f 451/657/965 452/658/966 460/659/967 459/660/968
f 452/658/966 453/661/969 461/662/970 460/659/967
f 453/661/969 454/663/971 462/664/972 461/662/970
f 454/663/971 455/665/973 463/666/974 462/664/972
f 455/665/973 456/667/975 464/668/976 463/666/974
f 456/667/975 457/669/977 465/670/978 464/668/976
f 457/669/977 458/671/979 466/672/980 465/670/978
f 458/671/979 451/657/965 459/660/968 466/672/980
s 44
f 452/673/981 451/674/982 467/675/983
f 453/676/984 452/673/981 467/675/983
f 454/677/985 453/676/984 467/675/983
f 455/678/986 454/677/985 467/675/983
f 456/679/987 455/678/986 467/675/983
f 457/680/988 456/679/987 467/675/983
f 458/681/989 457/680/988 467/675/983
f 451/674/982 458/681/989 467/675/983
s 45
f 459/660/990 460/659/991 468/682/992
f 460/659/991 461/662/993 468/682/992
f 461/662/993 462/664/994 468/682/992
f 462/664/994 463/666/995 468/682/992
f 463/666/995 464/668/996 468/682/992
f 464/668/996 465/670/997 468/682/992
f 465/670/997 466/672/998 468/682/992
f 466/672/998 459/660/990 468/682/992
s 46
f 474/683/999 475/684/1000 470/685/1001
s 47
f 475/684/1002 476/686/1003 471/687/1004 470/685/1005
s 48
f 473/688/1006 474/683/1007 470/685/1008 471/687/1009
f 472/689/1010 469/690/1011 474/683/1007 473/688/1006
s 46
f 469/690/1012 475/684/1000 474/683/999
s 47
f 469/690/1013 472/689/1014 476/686/1003 475/684/1002
s 49
f 477/691/1015 478/692/1016 486/693/1017 485/694/1018
f 478/692/1016 479/695/1019 487/696/1020 486/693/1017
f 479/695/1019 480/697/1021 488/698/1022 487/696/1020
f 480/697/1021 481/699/1023 489/700/1024 488/698/1022
f 481/699/1023 482/701/1025 490/702/1026 489/700/1024
f 482/701/1025 483/703/1027 491/704/1028 490/702/1026
f 483/703/1027 484/705/1029 492/706/1030 491/704/1028
f 484/705/1029 477/707/1015 485/708/1018 492/706/1030
s 50
f 503/709/1031 501/710/1032 504/711/1033 505/712/1034
s 51
f 502/713/1035 503/709/1036 505/712/1037 506/714/1038
f 494/715/1039 500/716/1040 498/717/1041 496/718/1042
f 499/719/1043 493/720/1044 495/721/1045 497/722/1046
f 495/721/1045 503/709/1036 502/713/1035 497/722/1046
s 50
f 493/720/1047 501/710/1032 503/709/1031 495/721/1048
f 505/712/1034 504/711/1033 494/715/1049 496/718/1050
s 51
f 506/714/1038 505/712/1037 496/718/1042 498/717/1041
s off
f 507/723/1051 508/724/1052 514/725/1053 513/726/1054
f 508/724/1055 509/727/1056 515/728/1057 514/725/1058
f 509/727/1059 510/729/1060 516/730/1061 515/728/1062
f 510/729/1063 511/731/1064 517/732/1065 516/730/1066
f 511/731/1067 512/733/1068 518/734/1069 517/732/1070
f 512/733/1071 507/723/1072 513/726/1073 518/734/1074
s 52
f 513/726/1075 514/725/1076 519/735/1077
f 514/725/1076 515/728/1078 519/735/1077
f 515/728/1078 516/730/1079 519/735/1077
f 516/730/1079 517/732/1080 519/735/1077
f 517/732/1080 518/734/1081 519/735/1077
f 518/734/1081 513/726/1075 519/735/1077
