# This file uses centimeters as units for non-parametric coordinates.

mtllib M_SwitchBase.mtl
g default
v 2.023467 -0.003719 0.953428
v 2.023467 -0.003719 0.499573
v 2.023467 0.798125 0.839976
v 2.023467 0.684996 0.953428
v 4.313883 0.353211 1.101719
v 4.309960 0.238565 1.211574
v 4.423384 0.234612 1.106751
v 2.023467 0.684996 0.499573
v 2.023467 0.798125 0.613026
v 4.309097 0.237784 0.241542
v 4.313045 0.353302 0.352238
v 4.423384 0.236220 0.344448
v 4.517927 -0.003719 1.107446
v 4.399139 -0.003719 1.210868
v 4.399139 -0.003719 0.242134
v 4.517927 -0.003719 0.345556
v 3.896732 -0.003719 1.169808
v 3.901241 0.503615 1.170401
v 3.904538 0.618019 1.059973
v 3.903834 0.618096 0.393832
v 3.900515 0.502958 0.282697
v 3.896732 -0.003719 0.283194
v 3.693849 0.003813 -0.471684
v 3.143104 0.003813 -1.552582
v 2.285298 0.003813 -2.410388
v 1.204401 0.003813 -2.961133
v 0.006216 0.003813 -3.150906
v -1.191970 0.003813 -2.961132
v -2.272867 0.003813 -2.410387
v -3.130672 0.003813 -1.552581
v -3.681417 0.003813 -0.471683
v -3.871191 0.003813 0.726501
v -3.681417 0.003813 1.924685
v -3.130672 0.003813 3.005583
v -2.272867 0.003813 3.863388
v -1.191968 0.003813 4.414133
v 0.006216 0.003813 4.603907
v 1.204400 0.003813 4.414133
v 2.285297 0.003813 3.863387
v 3.143103 0.003813 3.005583
v 3.693848 0.003813 1.924685
v 3.883621 0.003813 0.726501
v 3.693849 0.425710 -0.471684
v 3.143104 0.425710 -1.552582
v 2.285298 0.425710 -2.410388
v 1.204401 0.425710 -2.961133
v 0.006216 0.425710 -3.150906
v -1.191970 0.425710 -2.961132
v -2.272867 0.425710 -2.410387
v -3.130672 0.425710 -1.552581
v -3.681417 0.425710 -0.471683
v -3.871191 0.425710 0.726501
v -3.681417 0.425710 1.924685
v -3.130672 0.425710 3.005583
v -2.272867 0.425710 3.863388
v -1.191968 0.425710 4.414133
v 0.006216 0.425710 4.603907
v 1.204400 0.425710 4.414133
v 2.285297 0.425710 3.863387
v 3.143103 0.425710 3.005583
v 3.693848 0.425710 1.924685
v 3.883621 0.425710 0.726501
v 3.081463 0.428482 -0.272708
v 2.622177 0.428482 -1.174107
v 1.906823 0.428482 -1.889461
v 1.005423 0.428482 -2.348747
v 0.006216 0.428482 -2.507005
v -0.992992 0.428482 -2.348746
v -1.894392 0.428482 -1.889460
v -2.609746 0.428482 -1.174106
v -3.069031 0.428482 -0.272707
v -3.227289 0.428482 0.726501
v -3.069031 0.428482 1.725709
v -2.609746 0.428482 2.627107
v -1.894392 0.428482 3.342461
v -0.992992 0.428482 3.801747
v 0.006216 0.428482 3.960005
v 1.005423 0.428482 3.801747
v 1.906822 0.428482 3.342461
v 2.622176 0.428482 2.627107
v 3.081461 0.428482 1.725709
v 3.239719 0.428482 0.726501
v 3.081463 0.321270 -0.272708
v 2.622177 0.321270 -1.174107
v 1.906823 0.321270 -1.889461
v 1.005423 0.321270 -2.348747
v 0.006216 0.321270 -2.507005
v -0.992992 0.321270 -2.348746
v -1.894392 0.321270 -1.889460
v -2.609746 0.321270 -1.174106
v -3.069031 0.321270 -0.272707
v -3.227289 0.321270 0.726501
v -3.069031 0.321270 1.725709
v -2.609746 0.321270 2.627107
v -1.894392 0.321270 3.342461
v -0.992992 0.321270 3.801747
v 0.006216 0.321270 3.960005
v 1.005423 0.321270 3.801747
v 1.906822 0.321270 3.342461
v 2.622176 0.321270 2.627107
v 3.081461 0.321270 1.725709
v 3.239719 0.321270 0.726501
v 2.574703 0.324042 -0.108052
v 2.191102 0.324042 -0.860912
v 1.593629 0.324042 -1.458386
v 0.840768 0.324042 -1.841987
v 0.006216 0.324042 -1.974166
v -0.828337 0.324042 -1.841987
v -1.581197 0.324042 -1.458385
v -2.178670 0.324042 -0.860912
v -2.562272 0.324042 -0.108051
v -2.694450 0.324042 0.726501
v -2.562272 0.324042 1.561053
v -2.178670 0.324042 2.313913
v -1.581196 0.324042 2.911386
v -0.828337 0.324042 3.294988
v 0.006216 0.324042 3.427167
v 0.840767 0.324042 3.294988
v 1.593627 0.324042 2.911385
v 2.191100 0.324042 2.313913
v 2.574703 0.324042 1.561052
v 2.706881 0.324042 0.726501
v 2.574703 0.400060 -0.108052
v 2.191102 0.400060 -0.860912
v 1.593629 0.400060 -1.458386
v 0.840768 0.400060 -1.841987
v 0.006216 0.400060 -1.974166
v -0.828337 0.400060 -1.841987
v -1.581197 0.400060 -1.458385
v -2.178670 0.400060 -0.860912
v -2.562272 0.400060 -0.108051
v -2.694450 0.400060 0.726501
v -2.562272 0.400060 1.561053
v -2.178670 0.400060 2.313913
v -1.581196 0.400060 2.911386
v -0.828337 0.400060 3.294988
v 0.006216 0.400060 3.427167
v 0.840767 0.400060 3.294988
v 1.593627 0.400060 2.911385
v 2.191100 0.400060 2.313913
v 2.574703 0.400060 1.561052
v 2.706881 0.400060 0.726501
v 2.302239 0.400060 -0.019523
v 1.959330 0.400060 -0.692520
v 1.425236 0.400060 -1.226614
v 0.752239 0.400060 -1.569523
v 0.006216 0.400060 -1.687680
v -0.739807 0.400060 -1.569522
v -1.412805 0.400060 -1.226613
v -1.946898 0.400060 -0.692520
v -2.289807 0.400060 -0.019522
v -2.407966 0.400060 0.726501
v -2.289807 0.400060 1.472524
v -1.946898 0.400060 2.145520
v -1.412805 0.400060 2.679614
v -0.739807 0.400060 3.022523
v 0.006216 0.400060 3.140681
v 0.752237 0.400060 3.022523
v 1.425235 0.400060 2.679614
v 1.959328 0.400060 2.145520
v 2.302238 0.400060 1.472523
v 2.420395 0.400060 0.726501
v 2.302239 0.606859 -0.019523
v 1.959330 0.606859 -0.692520
v 1.425236 0.606859 -1.226614
v 0.752239 0.606859 -1.569523
v 0.006216 0.606859 -1.687680
v -0.739807 0.606859 -1.569522
v -1.412805 0.606859 -1.226613
v -1.946898 0.606859 -0.692520
v -2.289807 0.606859 -0.019522
v -2.407966 0.606859 0.726501
v -2.289807 0.606859 1.472524
v -1.946898 0.606859 2.145520
v -1.412805 0.606859 2.679614
v -0.739807 0.606859 3.022523
v 0.006216 0.606859 3.140681
v 0.752237 0.606859 3.022523
v 1.425235 0.606859 2.679614
v 1.959328 0.606859 2.145520
v 2.302238 0.606859 1.472523
v 2.420395 0.606859 0.726501
v 1.991777 0.606859 0.081353
v 1.695235 0.606859 -0.500644
v 1.233359 0.606859 -0.962519
v 0.651363 0.606859 -1.259061
v 0.006216 0.606859 -1.361241
v -0.638933 0.606859 -1.259060
v -1.220928 0.606859 -0.962518
v -1.682804 0.606859 -0.500644
v -1.979344 0.606859 0.081353
v -2.081527 0.606859 0.726501
v -1.979344 0.606859 1.371648
v -1.682804 0.606859 1.953645
v -1.220928 0.606859 2.415519
v -0.638932 0.606859 2.712061
v 0.006216 0.606859 2.814242
v 0.651363 0.606859 2.712061
v 1.233358 0.606859 2.415519
v 1.695234 0.606859 1.953645
v 1.991776 0.606859 1.371648
v 2.093957 0.606859 0.726501
v 1.991777 0.190363 0.081353
v 1.695235 0.190363 -0.500644
v 0.006216 0.190363 0.726501
v 1.233359 0.190363 -0.962519
v 0.651363 0.190363 -1.259061
v 0.006216 0.190363 -1.361241
v -0.638933 0.190363 -1.259060
v -1.220928 0.190363 -0.962518
v -1.682804 0.190363 -0.500644
v -1.979344 0.190363 0.081353
v -2.081527 0.190363 0.726501
v -1.979344 0.190363 1.371648
v -1.682804 0.190363 1.953645
v -1.220928 0.190363 2.415519
v -0.638932 0.190363 2.712061
v 0.006216 0.190363 2.814242
v 0.651363 0.190363 2.712061
v 1.233358 0.190363 2.415519
v 1.695234 0.190363 1.953645
v 1.991776 0.190363 1.371648
v 2.093957 0.190363 0.726501
v 0.225127 -0.003719 -1.298767
v -0.228728 -0.003719 -1.298767
v 0.111674 0.798125 -1.298767
v 0.225127 0.684996 -1.298767
v 0.373418 0.353211 -3.589183
v 0.483272 0.238565 -3.585260
v 0.378450 0.234612 -3.698683
v -0.228728 0.684996 -1.298767
v -0.115275 0.798125 -1.298767
v -0.486759 0.237784 -3.584397
v -0.376062 0.353302 -3.588345
v -0.383854 0.236220 -3.698683
v 0.379145 -0.003719 -3.793226
v 0.482567 -0.003719 -3.674439
v -0.486167 -0.003719 -3.674439
v -0.382746 -0.003719 -3.793226
v 0.441506 -0.003719 -3.172032
v 0.442100 0.503615 -3.176540
v 0.331671 0.618019 -3.179838
v -0.334469 0.618096 -3.179134
v -0.445604 0.502958 -3.175816
v -0.445107 -0.003719 -3.172032
v -2.027068 -0.003719 0.480075
v -2.027068 -0.003719 0.933930
v -2.027068 0.798125 0.593528
v -2.027068 0.684996 0.480075
v -4.317484 0.353211 0.331785
v -4.313561 0.238565 0.221930
v -4.426985 0.234612 0.326752
v -2.027068 0.684996 0.933930
v -2.027068 0.798125 0.820478
v -4.312698 0.237784 1.191961
v -4.316646 0.353302 1.081265
v -4.426985 0.236220 1.089056
v -4.521527 -0.003719 0.326057
v -4.402740 -0.003719 0.222636
v -4.402740 -0.003719 1.191369
v -4.521527 -0.003719 1.087948
v -3.900333 -0.003719 0.263696
v -3.904841 0.503615 0.263103
v -3.908139 0.618019 0.373531
v -3.907435 0.618096 1.039671
v -3.904117 0.502958 1.150807
v -3.900333 -0.003719 1.150309
v -0.228728 -0.003719 2.751769
v 0.225127 -0.003719 2.751769
v -0.115275 0.798125 2.751769
v -0.228728 0.684996 2.751769
v -0.377018 0.353211 5.042185
v -0.486874 0.238565 5.038262
v -0.382051 0.234612 5.151685
v 0.225127 0.684996 2.751769
v 0.111674 0.798125 2.751769
v 0.483158 0.237784 5.037399
v 0.372462 0.353302 5.041347
v 0.380253 0.236220 5.151685
v -0.382746 -0.003719 5.246228
v -0.486168 -0.003719 5.127440
v 0.482566 -0.003719 5.127440
v 0.379145 -0.003719 5.246228
v -0.445108 -0.003719 4.625033
v -0.445701 0.503615 4.629542
v -0.335272 0.618019 4.632840
v 0.330868 0.618096 4.632136
v 0.442004 0.502958 4.628817
v 0.441506 -0.003719 4.625034
vt 0.830450 0.432181
vt 0.830404 0.463090
vt 0.783501 0.463020
vt 0.775809 0.455283
vt 0.775832 0.439827
vt 0.783547 0.432112
vt 0.770292 0.489632
vt 0.770268 0.473401
vt 0.822154 0.473477
vt 0.822206 0.489818
vt 0.763144 0.490649
vt 0.763225 0.473390
vt 0.829205 0.490722
vt 0.829198 0.473488
vt 0.770620 0.494427
vt 0.821661 0.494513
vt 0.818805 0.517461
vt 0.773440 0.517385
vt 0.788339 0.647138
vt 0.803795 0.647148
vt 0.780612 0.647133
vt 0.765921 0.519243
vt 0.811521 0.647153
vt 0.826375 0.519333
vt 0.841905 0.433066
vt 0.948831 0.433224
vt 0.949046 0.462183
vt 0.841847 0.472378
vt 0.977509 0.433266
vt 0.972398 0.447089
vt 0.841845 0.473675
vt 0.948972 0.484225
vt 0.948713 0.513146
vt 0.841787 0.512987
vt 0.972271 0.499396
vt 0.977390 0.513188
vt 0.490901 0.008977
vt 0.565652 0.049601
vt 0.550916 0.068915
vt 0.482856 0.031900
vt 0.624190 0.111335
vt 0.604208 0.125151
vt 0.660787 0.188137
vt 0.637513 0.195102
vt 0.664577 0.272489
vt 0.647572 0.271921
vt 0.656323 0.356134
vt 0.633400 0.348088
vt 0.615700 0.430884
vt 0.596385 0.416148
vt 0.553966 0.489422
vt 0.540150 0.469439
vt 0.477164 0.526018
vt 0.470199 0.502744
vt 0.392813 0.530544
vt 0.393381 0.512804
vt 0.309168 0.521555
vt 0.317213 0.498633
vt 0.234418 0.480933
vt 0.249153 0.461618
vt 0.175879 0.419199
vt 0.195862 0.405383
vt 0.139282 0.342397
vt 0.162556 0.335432
vt 0.139620 0.258046
vt 0.152497 0.258614
vt 0.143745 0.174401
vt 0.166668 0.182446
vt 0.184368 0.099650
vt 0.203683 0.114385
vt 0.246101 0.041111
vt 0.259918 0.061094
vt 0.322903 0.004514
vt 0.329868 0.027788
vt 0.407256 0.001672
vt 0.406688 0.017729
vt 0.435990 0.164305
vt 0.465429 0.180357
vt 0.400034 0.265266
vt 0.488466 0.204721
vt 0.502848 0.235011
vt 0.507165 0.268263
vt 0.500995 0.301222
vt 0.484943 0.330661
vt 0.460579 0.353698
vt 0.430289 0.368080
vt 0.397037 0.372397
vt 0.364079 0.366228
vt 0.334640 0.350175
vt 0.311602 0.325812
vt 0.297221 0.295521
vt 0.292903 0.262269
vt 0.299073 0.229311
vt 0.315125 0.199872
vt 0.339489 0.176834
vt 0.369779 0.162453
vt 0.403031 0.158135
vt 0.528540 0.098031
vt 0.470572 0.066506
vt 0.573929 0.145927
vt 0.602296 0.205505
vt 0.610864 0.270932
vt 0.598794 0.335805
vt 0.567269 0.393773
vt 0.519373 0.439161
vt 0.459796 0.467528
vt 0.394369 0.476096
vt 0.329496 0.464027
vt 0.271528 0.432501
vt 0.226140 0.384606
vt 0.197773 0.325029
vt 0.189205 0.259602
vt 0.201274 0.194729
vt 0.232799 0.136761
vt 0.280695 0.091372
vt 0.340272 0.063005
vt 0.405699 0.054436
vt 0.524905 0.102772
vt 0.468579 0.072138
vt 0.569007 0.149312
vt 0.596568 0.207203
vt 0.604892 0.270777
vt 0.593162 0.333812
vt 0.562528 0.390137
vt 0.515988 0.434239
vt 0.458098 0.461800
vt 0.394524 0.470124
vt 0.331489 0.458395
vt 0.275164 0.427761
vt 0.231062 0.381221
vt 0.203501 0.323331
vt 0.195177 0.259757
vt 0.206906 0.196722
vt 0.237540 0.140397
vt 0.284080 0.096294
vt 0.341970 0.068732
vt 0.405544 0.060409
vt 0.506948 0.126137
vt 0.458722 0.099908
vt 0.544708 0.165984
vt 0.568307 0.215551
vt 0.575434 0.269983
vt 0.565392 0.323954
vt 0.539163 0.372180
vt 0.499316 0.409940
vt 0.449750 0.433539
vt 0.395318 0.440667
vt 0.341347 0.430624
vt 0.293121 0.404396
vt 0.255360 0.364549
vt 0.231761 0.314983
vt 0.224634 0.260550
vt 0.234676 0.206579
vt 0.260905 0.158353
vt 0.300752 0.120592
vt 0.350318 0.096993
vt 0.404751 0.089866
vt 0.504456 0.129385
vt 0.457355 0.103768
vt 0.541334 0.168304
vt 0.564381 0.216714
vt 0.571341 0.269876
vt 0.561532 0.322588
vt 0.535915 0.369688
vt 0.496996 0.406566
vt 0.448587 0.429614
vt 0.395424 0.436573
vt 0.342713 0.426765
vt 0.295613 0.401147
vt 0.258734 0.362229
vt 0.235687 0.313819
vt 0.228727 0.260657
vt 0.238536 0.207946
vt 0.264153 0.160845
vt 0.303072 0.123966
vt 0.351481 0.100919
vt 0.404644 0.093959
vt 0.495091 0.141564
vt 0.452213 0.118244
vt 0.528665 0.176993
vt 0.549647 0.221062
vt 0.555984 0.269459
vt 0.547056 0.317445
vt 0.523736 0.360323
vt 0.488307 0.393897
vt 0.444238 0.414879
vt 0.395842 0.421216
vt 0.347856 0.412288
vt 0.304977 0.388969
vt 0.271404 0.353540
vt 0.250422 0.309471
vt 0.244084 0.261074
vt 0.253012 0.213088
vt 0.276332 0.170210
vt 0.311761 0.136636
vt 0.355830 0.115653
vt 0.404227 0.109316
vt 0.488520 0.150155
vt 0.448618 0.128445
vt 0.519761 0.183132
vt 0.539282 0.224150
vt 0.545172 0.269192
vt 0.536855 0.313850
vt 0.515146 0.353752
vt 0.482168 0.384993
vt 0.441151 0.404514
vt 0.396109 0.410404
vt 0.351451 0.402088
vt 0.311548 0.380378
vt 0.280308 0.347400
vt 0.260787 0.306383
vt 0.254896 0.261341
vt 0.263213 0.216683
vt 0.284923 0.176781
vt 0.317900 0.145540
vt 0.358918 0.126019
vt 0.403960 0.120128
vt 0.478181 0.163600
vt 0.442940 0.144427
vt 0.505773 0.192725
vt 0.523014 0.228950
vt 0.528217 0.268731
vt 0.520873 0.308172
vt 0.501700 0.343413
vt 0.472576 0.371005
vt 0.436350 0.388246
vt 0.396570 0.393450
vt 0.357129 0.386105
vt 0.321887 0.366933
vt 0.294296 0.337808
vt 0.277054 0.301582
vt 0.271851 0.261802
vt 0.279195 0.222361
vt 0.298368 0.187119
vt 0.327493 0.159528
vt 0.363718 0.142286
vt 0.403499 0.137083
vt 0.830450 0.432181
vt 0.830404 0.463090
vt 0.783501 0.463020
vt 0.775809 0.455283
vt 0.775832 0.439827
vt 0.783547 0.432112
vt 0.788339 0.647138
vt 0.780612 0.647133
vt 0.765921 0.519243
vt 0.773440 0.517385
vt 0.770620 0.494427
vt 0.770292 0.489632
vt 0.822206 0.489818
vt 0.821661 0.494513
vt 0.763144 0.490649
vt 0.763225 0.473390
vt 0.770268 0.473401
vt 0.811521 0.647153
vt 0.803795 0.647148
vt 0.818805 0.517461
vt 0.826375 0.519333
vt 0.829205 0.490722
vt 0.822154 0.473477
vt 0.829198 0.473488
vt 0.841905 0.433066
vt 0.948831 0.433224
vt 0.949046 0.462183
vt 0.841847 0.472378
vt 0.841845 0.473675
vt 0.948972 0.484225
vt 0.948713 0.513146
vt 0.841787 0.512987
vt 0.977509 0.433266
vt 0.972398 0.447089
vt 0.972271 0.499396
vt 0.977390 0.513188
vt 0.830450 0.432181
vt 0.830404 0.463090
vt 0.783501 0.463020
vt 0.775809 0.455283
vt 0.775832 0.439827
vt 0.783547 0.432112
vt 0.788339 0.647138
vt 0.780612 0.647133
vt 0.765921 0.519243
vt 0.773440 0.517385
vt 0.770620 0.494427
vt 0.770292 0.489632
vt 0.822206 0.489818
vt 0.821661 0.494513
vt 0.763144 0.490649
vt 0.763225 0.473390
vt 0.770268 0.473401
vt 0.811521 0.647153
vt 0.803795 0.647148
vt 0.818805 0.517461
vt 0.826375 0.519333
vt 0.829205 0.490722
vt 0.822154 0.473477
vt 0.829198 0.473488
vt 0.841905 0.433066
vt 0.948831 0.433224
vt 0.949046 0.462183
vt 0.841847 0.472378
vt 0.841845 0.473675
vt 0.948972 0.484225
vt 0.948713 0.513146
vt 0.841787 0.512987
vt 0.977509 0.433266
vt 0.972398 0.447089
vt 0.972271 0.499396
vt 0.977390 0.513188
vt 0.830450 0.432181
vt 0.830404 0.463090
vt 0.783501 0.463020
vt 0.775809 0.455283
vt 0.775832 0.439827
vt 0.783547 0.432112
vt 0.788339 0.647138
vt 0.780612 0.647133
vt 0.765921 0.519243
vt 0.773440 0.517385
vt 0.770620 0.494427
vt 0.770292 0.489632
vt 0.822206 0.489818
vt 0.821661 0.494513
vt 0.763144 0.490649
vt 0.763225 0.473390
vt 0.770268 0.473401
vt 0.811521 0.647153
vt 0.803795 0.647148
vt 0.818805 0.517461
vt 0.826375 0.519333
vt 0.829205 0.490722
vt 0.822154 0.473477
vt 0.829198 0.473488
vt 0.841905 0.433066
vt 0.948831 0.433224
vt 0.949046 0.462183
vt 0.841847 0.472378
vt 0.841845 0.473675
vt 0.948972 0.484225
vt 0.948713 0.513146
vt 0.841787 0.512987
vt 0.977509 0.433266
vt 0.972398 0.447089
vt 0.972271 0.499396
vt 0.977390 0.513188
vn -1.000000 0.000000 0.000000
vn -1.000000 0.000000 0.000000
vn -1.000000 0.000000 0.000000
vn -1.000000 0.000000 0.000000
vn -1.000000 0.000000 0.000000
vn -1.000000 0.000000 0.000000
vn -0.015389 0.701392 0.712609
vn -0.015389 0.701392 0.712609
vn 0.075028 0.696158 0.713957
vn 0.033567 0.699273 0.714067
vn 0.598724 0.800956 -0.000258
vn 0.869165 0.494521 0.000384
vn 0.869265 0.494346 0.000384
vn 0.599043 0.800717 -0.000257
vn 0.643261 0.292186 0.707703
vn 0.487198 0.511351 0.707925
vn 0.649103 0.248113 0.719100
vn 0.649103 0.248113 0.719100
vn -0.015121 0.701372 -0.712635
vn -0.015121 0.701372 -0.712635
vn 0.034024 0.699235 -0.714082
vn 0.075603 0.696100 -0.713953
vn 0.483808 0.510435 -0.710905
vn 0.636306 0.290848 -0.714508
vn 0.643683 0.244228 -0.725276
vn 0.643683 0.244228 -0.725276
vn -0.114768 -0.000060 0.993392
vn -0.112065 -0.001609 0.993700
vn -0.113022 -0.001061 0.993592
vn -0.114768 -0.000060 0.993392
vn 0.095308 0.995448 0.000010
vn 0.243739 0.969841 -0.000154
vn 0.243429 0.969919 -0.000153
vn 0.095308 0.995448 0.000010
vn -0.114764 -0.000050 -0.993393
vn -0.113025 -0.001043 -0.993592
vn -0.112060 -0.001593 -0.993700
vn -0.114764 -0.000050 -0.993393
vn 0.929958 0.367666 0.000388
vn 0.929958 0.367666 0.000388
vn 0.365149 0.639171 0.676850
vn 0.363798 0.639573 -0.677198
vn -0.093424 -0.012277 0.995551
vn -0.093424 -0.012277 0.995551
vn -0.093403 -0.012219 -0.995553
vn -0.093403 -0.012219 -0.995553
vn 0.951057 0.000000 -0.309016
vn 0.809017 0.000000 -0.587785
vn 0.809017 0.000000 -0.587785
vn 0.951057 0.000000 -0.309016
vn 0.587785 0.000000 -0.809017
vn 0.587785 0.000000 -0.809017
vn 0.309017 0.000000 -0.951057
vn 0.309017 0.000000 -0.951057
vn -0.000000 0.000000 -1.000000
vn -0.000000 0.000000 -1.000000
vn -0.309017 0.000000 -0.951057
vn -0.309017 0.000000 -0.951057
vn -0.587786 0.000000 -0.809017
vn -0.587786 0.000000 -0.809017
vn -0.809017 0.000000 -0.587785
vn -0.809017 0.000000 -0.587785
vn -0.951057 0.000000 -0.309017
vn -0.951057 0.000000 -0.309017
vn -1.000000 0.000000 0.000000
vn -1.000000 0.000000 0.000000
vn -0.951057 0.000000 0.309017
vn -0.951057 0.000000 0.309017
vn -0.809017 0.000000 0.587785
vn -0.809017 0.000000 0.587785
vn -0.587785 0.000000 0.809017
vn -0.587785 0.000000 0.809017
vn -0.309017 0.000000 0.951057
vn -0.309017 0.000000 0.951057
vn 0.000000 0.000000 1.000000
vn 0.000000 0.000000 1.000000
vn 0.309017 0.000000 0.951056
vn 0.309017 0.000000 0.951056
vn 0.587785 0.000000 0.809017
vn 0.587785 0.000000 0.809017
vn 0.809017 0.000000 0.587785
vn 0.809017 0.000000 0.587785
vn 0.951057 0.000000 0.309017
vn 0.951057 0.000000 0.309017
vn 1.000000 0.000000 0.000001
vn 1.000000 0.000000 0.000001
vn 0.000000 1.000000 -0.000000
vn 0.000000 1.000000 0.000000
vn 0.000000 1.000000 -0.000000
vn 0.000000 1.000000 0.000000
vn 0.000000 1.000000 0.000000
vn 0.000000 1.000000 0.000000
vn 0.000000 1.000000 0.000000
vn 0.000000 1.000000 0.000000
vn 0.000000 1.000000 0.000000
vn 0.000000 1.000000 0.000000
vn 0.000000 1.000000 0.000000
vn 0.000000 1.000000 0.000000
vn 0.000000 1.000000 0.000000
vn 0.000000 1.000000 0.000000
vn 0.000000 1.000000 0.000000
vn 0.000000 1.000000 0.000000
vn 0.000000 1.000000 0.000000
vn 0.000000 1.000000 -0.000000
vn 0.000000 1.000000 0.000000
vn 0.000000 1.000000 0.000000
vn 0.000000 1.000000 -0.000000
vn 0.003884 0.999991 -0.001979
vn 0.003884 0.999991 -0.001979
vn 0.003884 0.999991 -0.001979
vn 0.003884 0.999991 -0.001979
vn 0.003083 0.999991 -0.003082
vn 0.003083 0.999991 -0.003082
vn 0.003083 0.999991 -0.003082
vn 0.003083 0.999991 -0.003082
vn 0.001979 0.999991 -0.003884
vn 0.001979 0.999991 -0.003884
vn 0.001979 0.999990 -0.003884
vn 0.001979 0.999991 -0.003884
vn 0.000682 0.999991 -0.004306
vn 0.000682 0.999991 -0.004306
vn 0.000682 0.999991 -0.004306
vn 0.000682 0.999991 -0.004306
vn -0.000682 0.999991 -0.004306
vn -0.000682 0.999991 -0.004306
vn -0.000682 0.999991 -0.004306
vn -0.000682 0.999990 -0.004306
vn -0.001979 0.999991 -0.003884
vn -0.001979 0.999991 -0.003884
vn -0.001979 0.999991 -0.003884
vn -0.001979 0.999991 -0.003884
vn -0.003083 0.999991 -0.003082
vn -0.003083 0.999991 -0.003082
vn -0.003083 0.999991 -0.003082
vn -0.003083 0.999991 -0.003082
vn -0.003884 0.999991 -0.001979
vn -0.003884 0.999991 -0.001979
vn -0.003884 0.999991 -0.001979
vn -0.003884 0.999991 -0.001979
vn -0.004306 0.999991 -0.000682
vn -0.004306 0.999991 -0.000682
vn -0.004306 0.999991 -0.000682
vn -0.004306 0.999991 -0.000682
vn -0.004306 0.999991 0.000682
vn -0.004306 0.999991 0.000682
vn -0.004306 0.999991 0.000682
vn -0.004306 0.999991 0.000682
vn -0.003884 0.999991 0.001979
vn -0.003884 0.999991 0.001979
vn -0.003884 0.999991 0.001979
vn -0.003884 0.999991 0.001979
vn -0.003083 0.999991 0.003083
vn -0.003083 0.999991 0.003083
vn -0.003083 0.999991 0.003083
vn -0.003083 0.999991 0.003083
vn -0.001979 0.999991 0.003884
vn -0.001979 0.999991 0.003884
vn -0.001979 0.999991 0.003884
vn -0.001979 0.999991 0.003884
vn -0.000682 0.999991 0.004306
vn -0.000682 0.999991 0.004306
vn -0.000682 0.999991 0.004306
vn -0.000682 0.999991 0.004306
vn 0.000682 0.999991 0.004306
vn 0.000682 0.999991 0.004306
vn 0.000682 0.999991 0.004306
vn 0.000682 0.999990 0.004306
vn 0.001979 0.999991 0.003884
vn 0.001979 0.999991 0.003884
vn 0.001979 0.999991 0.003884
vn 0.001979 0.999990 0.003884
vn 0.003083 0.999991 0.003083
vn 0.003083 0.999991 0.003083
vn 0.003083 0.999991 0.003083
vn 0.003083 0.999991 0.003083
vn 0.003884 0.999991 0.001979
vn 0.003884 0.999991 0.001979
vn 0.003884 0.999991 0.001979
vn 0.003884 0.999991 0.001979
vn 0.004306 0.999991 0.000682
vn 0.004306 0.999991 0.000682
vn 0.004306 0.999991 0.000682
vn 0.004306 0.999991 0.000682
vn 0.004306 0.999991 -0.000682
vn 0.004306 0.999991 -0.000682
vn 0.004306 0.999991 -0.000682
vn 0.004306 0.999991 -0.000682
vn -0.951057 0.000000 0.309016
vn -0.809017 0.000000 0.587785
vn -0.809017 0.000000 0.587785
vn -0.951057 0.000000 0.309016
vn -0.587785 0.000000 0.809017
vn -0.587785 0.000000 0.809017
vn -0.309017 0.000000 0.951057
vn -0.309017 0.000000 0.951057
vn 0.000000 0.000000 1.000000
vn 0.000000 0.000000 1.000000
vn 0.309017 0.000000 0.951057
vn 0.309017 0.000000 0.951057
vn 0.587785 0.000000 0.809017
vn 0.587785 0.000000 0.809017
vn 0.809017 0.000000 0.587785
vn 0.809017 0.000000 0.587785
vn 0.951057 0.000000 0.309016
vn 0.951057 0.000000 0.309016
vn 1.000000 0.000000 0.000000
vn 1.000000 0.000000 0.000000
vn 0.951057 0.000000 -0.309016
vn 0.951057 0.000000 -0.309016
vn 0.809017 0.000000 -0.587785
vn 0.809017 0.000000 -0.587785
vn 0.587785 0.000000 -0.809017
vn 0.587785 0.000000 -0.809017
vn 0.309017 0.000000 -0.951057
vn 0.309017 0.000000 -0.951057
vn 0.000000 0.000000 -1.000000
vn 0.000000 0.000000 -1.000000
vn -0.309017 0.000000 -0.951056
vn -0.309017 0.000000 -0.951056
vn -0.587785 0.000000 -0.809017
vn -0.587785 0.000000 -0.809017
vn -0.809017 0.000000 -0.587785
vn -0.809017 0.000000 -0.587785
vn -0.951057 0.000000 -0.309016
vn -0.951057 0.000000 -0.309016
vn -1.000000 0.000000 -0.000001
vn -1.000000 0.000000 -0.000001
vn 0.004694 0.999986 -0.002392
vn 0.004694 0.999986 -0.002392
vn 0.004694 0.999986 -0.002392
vn 0.004694 0.999986 -0.002392
vn 0.003725 0.999986 -0.003725
vn 0.003725 0.999986 -0.003725
vn 0.003725 0.999986 -0.003725
vn 0.003725 0.999986 -0.003725
vn 0.002392 0.999986 -0.004694
vn 0.002392 0.999986 -0.004694
vn 0.002392 0.999986 -0.004694
vn 0.002392 0.999986 -0.004694
vn 0.000824 0.999986 -0.005203
vn 0.000824 0.999986 -0.005203
vn 0.000824 0.999986 -0.005203
vn 0.000824 0.999986 -0.005203
vn -0.000824 0.999986 -0.005203
vn -0.000824 0.999986 -0.005203
vn -0.000824 0.999986 -0.005203
vn -0.000824 0.999986 -0.005203
vn -0.002392 0.999986 -0.004694
vn -0.002392 0.999986 -0.004694
vn -0.002392 0.999986 -0.004694
vn -0.002392 0.999986 -0.004694
vn -0.003725 0.999986 -0.003725
vn -0.003725 0.999986 -0.003725
vn -0.003725 0.999986 -0.003725
vn -0.003725 0.999986 -0.003725
vn -0.004694 0.999986 -0.002392
vn -0.004694 0.999986 -0.002392
vn -0.004694 0.999986 -0.002392
vn -0.004694 0.999986 -0.002392
vn -0.005203 0.999986 -0.000824
vn -0.005203 0.999986 -0.000824
vn -0.005203 0.999986 -0.000824
vn -0.005203 0.999986 -0.000824
vn -0.005203 0.999986 0.000824
vn -0.005203 0.999986 0.000824
vn -0.005203 0.999986 0.000824
vn -0.005203 0.999986 0.000824
vn -0.004694 0.999986 0.002392
vn -0.004694 0.999986 0.002392
vn -0.004694 0.999986 0.002392
vn -0.004694 0.999986 0.002392
vn -0.003725 0.999986 0.003725
vn -0.003725 0.999986 0.003725
vn -0.003725 0.999986 0.003725
vn -0.003725 0.999986 0.003725
vn -0.002392 0.999986 0.004694
vn -0.002392 0.999986 0.004694
vn -0.002392 0.999986 0.004694
vn -0.002392 0.999986 0.004694
vn -0.000824 0.999986 0.005203
vn -0.000824 0.999986 0.005203
vn -0.000824 0.999986 0.005203
vn -0.000824 0.999986 0.005203
vn 0.000824 0.999986 0.005203
vn 0.000824 0.999986 0.005203
vn 0.000824 0.999986 0.005203
vn 0.000824 0.999986 0.005203
vn 0.002392 0.999986 0.004694
vn 0.002392 0.999986 0.004694
vn 0.002392 0.999986 0.004694
vn 0.002392 0.999986 0.004694
vn 0.003725 0.999986 0.003725
vn 0.003725 0.999986 0.003725
vn 0.003725 0.999986 0.003725
vn 0.003725 0.999986 0.003725
vn 0.004694 0.999986 0.002392
vn 0.004694 0.999986 0.002392
vn 0.004694 0.999986 0.002392
vn 0.004694 0.999986 0.002392
vn 0.005203 0.999986 0.000824
vn 0.005203 0.999986 0.000824
vn 0.005203 0.999986 0.000824
vn 0.005203 0.999986 0.000824
vn 0.005203 0.999986 -0.000824
vn 0.005203 0.999986 -0.000824
vn 0.005203 0.999986 -0.000824
vn 0.005203 0.999986 -0.000824
vn 0.951057 0.000000 -0.309015
vn 0.809017 0.000000 -0.587785
vn 0.809017 0.000000 -0.587785
vn 0.951057 0.000000 -0.309015
vn 0.587785 0.000000 -0.809017
vn 0.587785 0.000000 -0.809017
vn 0.309017 0.000000 -0.951057
vn 0.309017 0.000000 -0.951057
vn -0.000000 0.000000 -1.000000
vn -0.000000 0.000000 -1.000000
vn -0.309017 0.000000 -0.951057
vn -0.309017 0.000000 -0.951057
vn -0.587785 0.000000 -0.809017
vn -0.587785 0.000000 -0.809017
vn -0.809017 0.000000 -0.587785
vn -0.809017 0.000000 -0.587785
vn -0.951057 0.000000 -0.309017
vn -0.951057 0.000000 -0.309017
vn -1.000000 0.000000 0.000000
vn -1.000000 0.000000 0.000000
vn -0.951057 0.000000 0.309017
vn -0.951057 0.000000 0.309017
vn -0.809017 0.000000 0.587786
vn -0.809017 0.000000 0.587786
vn -0.587786 0.000000 0.809017
vn -0.587786 0.000000 0.809017
vn -0.309017 0.000000 0.951057
vn -0.309017 0.000000 0.951057
vn 0.000000 0.000000 1.000000
vn 0.000000 0.000000 1.000000
vn 0.309017 0.000000 0.951057
vn 0.309017 0.000000 0.951057
vn 0.587786 0.000000 0.809017
vn 0.587786 0.000000 0.809017
vn 0.809017 0.000000 0.587786
vn 0.809017 0.000000 0.587786
vn 0.951057 0.000000 0.309016
vn 0.951057 0.000000 0.309016
vn 1.000000 0.000000 0.000000
vn 1.000000 0.000000 0.000000
vn 0.000000 1.000000 0.000000
vn 0.000000 1.000000 0.000000
vn 0.000000 1.000000 0.000000
vn 0.000000 1.000000 0.000000
vn 0.000000 1.000000 -0.000000
vn 0.000000 1.000000 -0.000000
vn 0.000000 1.000000 -0.000000
vn 0.000000 1.000000 -0.000000
vn 0.000000 1.000000 0.000000
vn 0.000000 1.000000 0.000000
vn 0.000000 1.000000 0.000000
vn 0.000000 1.000000 0.000000
vn 0.000000 1.000000 0.000000
vn 0.000000 1.000000 0.000000
vn 0.000000 1.000000 0.000000
vn 0.000000 1.000000 0.000000
vn 0.000000 1.000000 0.000000
vn 0.000000 1.000000 0.000000
vn 0.000000 1.000000 0.000000
vn 0.000000 1.000000 0.000000
vn 0.000000 1.000000 0.000000
vn 0.000000 1.000000 0.000000
vn 0.000000 1.000000 0.000000
vn 0.000000 1.000000 0.000000
vn 0.000000 1.000000 -0.000000
vn 0.000000 1.000000 -0.000000
vn 0.000000 1.000000 -0.000000
vn 0.000000 1.000000 -0.000000
vn 0.000000 1.000000 -0.000000
vn 0.000000 1.000000 -0.000000
vn 0.000000 1.000000 -0.000000
vn 0.000000 1.000000 -0.000000
vn 0.000000 1.000000 0.000000
vn 0.000000 1.000000 0.000000
vn 0.000000 1.000000 0.000000
vn 0.000000 1.000000 0.000000
vn 0.000000 1.000000 0.000000
vn 0.000000 1.000000 0.000000
vn 0.000000 1.000000 0.000000
vn 0.000000 1.000000 0.000000
vn 0.000000 1.000000 0.000000
vn 0.000000 1.000000 0.000000
vn 0.000000 1.000000 0.000000
vn 0.000000 1.000000 0.000000
vn 0.000000 1.000000 -0.000000
vn 0.000000 1.000000 -0.000000
vn 0.000000 1.000000 -0.000000
vn 0.000000 1.000000 -0.000000
vn 0.000000 1.000000 -0.000000
vn 0.000000 1.000000 -0.000000
vn 0.000000 1.000000 -0.000000
vn 0.000000 1.000000 -0.000000
vn 0.000000 1.000000 -0.000000
vn 0.000000 1.000000 -0.000000
vn 0.000000 1.000000 -0.000000
vn 0.000000 1.000000 -0.000000
vn 0.000000 1.000000 0.000000
vn 0.000000 1.000000 0.000000
vn 0.000000 1.000000 0.000000
vn 0.000000 1.000000 0.000000
vn 0.000000 1.000000 -0.000000
vn 0.000000 1.000000 -0.000000
vn 0.000000 1.000000 -0.000000
vn 0.000000 1.000000 -0.000000
vn 0.000000 1.000000 0.000000
vn 0.000000 1.000000 0.000000
vn 0.000000 1.000000 0.000000
vn 0.000000 1.000000 0.000000
vn 0.000000 1.000000 0.000000
vn 0.000000 1.000000 0.000000
vn 0.000000 1.000000 0.000000
vn 0.000000 1.000000 0.000000
vn 0.000000 1.000000 0.000000
vn 0.000000 1.000000 0.000000
vn 0.000000 1.000000 0.000000
vn 0.000000 1.000000 0.000000
vn 0.000000 1.000000 0.000000
vn 0.000000 1.000000 0.000000
vn 0.000000 1.000000 0.000000
vn 0.000000 1.000000 0.000000
vn 0.951057 0.000000 -0.309016
vn 0.809017 0.000000 -0.587785
vn 0.809017 0.000000 -0.587785
vn 0.951057 0.000000 -0.309016
vn 0.587785 0.000000 -0.809017
vn 0.587785 0.000000 -0.809017
vn 0.309016 0.000000 -0.951057
vn 0.309016 0.000000 -0.951057
vn -0.000000 0.000000 -1.000000
vn -0.000000 0.000000 -1.000000
vn -0.309017 0.000000 -0.951057
vn -0.309017 0.000000 -0.951057
vn -0.587785 0.000000 -0.809017
vn -0.587785 0.000000 -0.809017
vn -0.809017 0.000000 -0.587785
vn -0.809017 0.000000 -0.587785
vn -0.951056 0.000000 -0.309017
vn -0.951056 0.000000 -0.309017
vn -1.000000 0.000000 0.000000
vn -1.000000 0.000000 0.000000
vn -0.951056 0.000000 0.309017
vn -0.951056 0.000000 0.309017
vn -0.809017 0.000000 0.587785
vn -0.809017 0.000000 0.587785
vn -0.587785 0.000000 0.809017
vn -0.587785 0.000000 0.809017
vn -0.309017 0.000000 0.951057
vn -0.309017 0.000000 0.951057
vn 0.000000 0.000000 1.000000
vn 0.000000 0.000000 1.000000
vn 0.309017 0.000000 0.951057
vn 0.309017 0.000000 0.951057
vn 0.587785 0.000000 0.809017
vn 0.587785 0.000000 0.809017
vn 0.809017 0.000000 0.587786
vn 0.809017 0.000000 0.587786
vn 0.951057 0.000000 0.309017
vn 0.951057 0.000000 0.309017
vn 1.000000 0.000000 0.000001
vn 1.000000 0.000000 0.000001
vn 0.000000 1.000000 -0.000000
vn 0.000000 1.000000 -0.000000
vn 0.000000 1.000000 -0.000000
vn 0.000000 1.000000 -0.000000
vn 0.000000 1.000000 0.000000
vn 0.000000 1.000000 0.000000
vn 0.000000 1.000000 0.000000
vn 0.000000 1.000000 0.000000
vn 0.000000 1.000000 0.000000
vn 0.000000 1.000000 0.000000
vn 0.000000 1.000000 0.000000
vn 0.000000 1.000000 0.000000
vn 0.000000 1.000000 0.000000
vn 0.000000 1.000000 0.000000
vn 0.000000 1.000000 0.000000
vn 0.000000 1.000000 0.000000
vn 0.000000 1.000000 0.000000
vn 0.000000 1.000000 0.000000
vn 0.000000 1.000000 0.000000
vn 0.000000 1.000000 0.000000
vn 0.000000 1.000000 0.000000
vn 0.000000 1.000000 0.000000
vn 0.000000 1.000000 0.000000
vn 0.000000 1.000000 0.000000
vn 0.000000 1.000000 -0.000000
vn 0.000000 1.000000 -0.000000
vn 0.000000 1.000000 -0.000000
vn 0.000000 1.000000 -0.000000
vn 0.000000 1.000000 0.000000
vn 0.000000 1.000000 0.000000
vn 0.000000 1.000000 0.000000
vn 0.000000 1.000000 0.000000
vn 0.000000 1.000000 0.000000
vn 0.000000 1.000000 0.000000
vn 0.000000 1.000000 0.000000
vn 0.000000 1.000000 0.000000
vn 0.000000 1.000000 0.000000
vn 0.000000 1.000000 0.000000
vn 0.000000 1.000000 0.000000
vn 0.000000 1.000000 0.000000
vn 0.000000 1.000000 -0.000000
vn 0.000000 1.000000 -0.000000
vn 0.000000 1.000000 -0.000000
vn 0.000000 1.000000 -0.000000
vn 0.000000 1.000000 0.000000
vn 0.000000 1.000000 0.000000
vn 0.000000 1.000000 0.000000
vn 0.000000 1.000000 0.000000
vn 0.000000 1.000000 -0.000000
vn 0.000000 1.000000 -0.000000
vn 0.000000 1.000000 -0.000000
vn 0.000000 1.000000 -0.000000
vn 0.000000 1.000000 -0.000000
vn 0.000000 1.000000 -0.000000
vn 0.000000 1.000000 -0.000000
vn 0.000000 1.000000 -0.000000
vn 0.000000 1.000000 0.000000
vn 0.000000 1.000000 0.000000
vn 0.000000 1.000000 0.000000
vn 0.000000 1.000000 0.000000
vn 0.000000 1.000000 -0.000000
vn 0.000000 1.000000 -0.000000
vn 0.000000 1.000000 -0.000000
vn 0.000000 1.000000 -0.000000
vn 0.000000 1.000000 0.000000
vn 0.000000 1.000000 0.000000
vn 0.000000 1.000000 0.000000
vn 0.000000 1.000000 0.000000
vn 0.000000 1.000000 0.000000
vn 0.000000 1.000000 0.000000
vn 0.000000 1.000000 0.000000
vn 0.000000 1.000000 0.000000
vn 0.000000 1.000000 -0.000000
vn 0.000000 1.000000 -0.000000
vn 0.000000 1.000000 -0.000000
vn 0.000000 1.000000 -0.000000
vn 0.000000 1.000000 0.000000
vn 0.000000 1.000000 0.000000
vn 0.000000 1.000000 0.000000
vn 0.000000 1.000000 0.000000
vn -0.951057 0.000000 0.309016
vn -0.809017 0.000000 0.587786
vn -0.809017 0.000000 0.587786
vn -0.951057 0.000000 0.309016
vn -0.587785 0.000000 0.809017
vn -0.587785 0.000000 0.809017
vn -0.309017 0.000000 0.951057
vn -0.309017 0.000000 0.951057
vn 0.000000 0.000000 1.000000
vn 0.000000 0.000000 1.000000
vn 0.309017 0.000000 0.951057
vn 0.309017 0.000000 0.951057
vn 0.587785 0.000000 0.809017
vn 0.587785 0.000000 0.809017
vn 0.809017 0.000000 0.587785
vn 0.809017 0.000000 0.587785
vn 0.951057 0.000000 0.309017
vn 0.951057 0.000000 0.309017
vn 1.000000 0.000000 0.000000
vn 1.000000 0.000000 0.000000
vn 0.951057 0.000000 -0.309017
vn 0.951057 0.000000 -0.309017
vn 0.809017 0.000000 -0.587785
vn 0.809017 0.000000 -0.587785
vn 0.587785 0.000000 -0.809017
vn 0.587785 0.000000 -0.809017
vn 0.309017 0.000000 -0.951057
vn 0.309017 0.000000 -0.951057
vn 0.000000 0.000000 -1.000000
vn 0.000000 0.000000 -1.000000
vn -0.309018 0.000000 -0.951056
vn -0.309018 0.000000 -0.951056
vn -0.587785 0.000000 -0.809017
vn -0.587785 0.000000 -0.809017
vn -0.809017 0.000000 -0.587786
vn -0.809017 0.000000 -0.587786
vn -0.951057 0.000000 -0.309017
vn -0.951057 0.000000 -0.309017
vn -1.000000 0.000000 -0.000001
vn -1.000000 0.000000 -0.000001
vn 0.000000 0.000000 1.000000
vn 0.000000 0.000000 1.000000
vn 0.000000 0.000000 1.000000
vn 0.000000 0.000000 1.000000
vn 0.000000 0.000000 1.000000
vn 0.000000 0.000000 1.000000
vn 0.712606 0.701395 0.015388
vn 0.712606 0.701395 0.015388
vn 0.713955 0.696160 -0.075028
vn 0.714064 0.699275 -0.033568
vn -0.000259 0.800956 -0.598724
vn 0.000384 0.494520 -0.869166
vn 0.000384 0.494344 -0.869266
vn -0.000257 0.800717 -0.599043
vn 0.707703 0.292184 -0.643261
vn 0.707925 0.511352 -0.487198
vn 0.719101 0.248112 -0.649103
vn 0.719101 0.248112 -0.649103
vn -0.712635 0.701372 0.015121
vn -0.712636 0.701372 0.015121
vn -0.714081 0.699236 -0.034024
vn -0.713953 0.696100 -0.075604
vn -0.710904 0.510435 -0.483809
vn -0.714510 0.290846 -0.636305
vn -0.725278 0.244225 -0.643682
vn -0.725278 0.244225 -0.643682
vn 0.993392 -0.000061 0.114768
vn 0.993700 -0.001610 0.112065
vn 0.993592 -0.001062 0.113023
vn 0.993392 -0.000061 0.114768
vn 0.000010 0.995448 -0.095308
vn -0.000154 0.969841 -0.243739
vn -0.000153 0.969919 -0.243429
vn 0.000010 0.995448 -0.095308
vn -0.993393 -0.000050 0.114764
vn -0.993592 -0.001043 0.113025
vn -0.993700 -0.001593 0.112060
vn -0.993393 -0.000050 0.114764
vn 0.000388 0.367664 -0.929959
vn 0.000388 0.367664 -0.929959
vn 0.676851 0.639171 -0.365149
vn -0.677196 0.639575 -0.363799
vn 0.995551 -0.012279 0.093424
vn 0.995551 -0.012279 0.093424
vn -0.995553 -0.012219 0.093404
vn -0.995553 -0.012219 0.093404
vn 1.000000 -0.000000 0.000000
vn 1.000000 -0.000000 0.000000
vn 1.000000 -0.000000 0.000000
vn 1.000000 -0.000000 0.000000
vn 1.000000 -0.000000 0.000000
vn 1.000000 -0.000000 0.000000
vn 0.015389 0.701392 -0.712609
vn 0.015389 0.701392 -0.712609
vn -0.075027 0.696158 -0.713958
vn -0.033567 0.699273 -0.714067
vn -0.598723 0.800956 0.000259
vn -0.869167 0.494519 -0.000384
vn -0.869266 0.494344 -0.000384
vn -0.599043 0.800717 0.000258
vn -0.643261 0.292183 -0.707704
vn -0.487197 0.511351 -0.707926
vn -0.649103 0.248112 -0.719101
vn -0.649103 0.248112 -0.719101
vn 0.015121 0.701372 0.712635
vn 0.015121 0.701372 0.712635
vn -0.034024 0.699235 0.714081
vn -0.075604 0.696100 0.713953
vn -0.483809 0.510435 0.710904
vn -0.636307 0.290846 0.714509
vn -0.643684 0.244225 0.725276
vn -0.643684 0.244225 0.725276
vn 0.114768 -0.000060 -0.993392
vn 0.112065 -0.001609 -0.993700
vn 0.113022 -0.001061 -0.993592
vn 0.114768 -0.000060 -0.993392
vn -0.095308 0.995448 -0.000010
vn -0.243739 0.969841 0.000154
vn -0.243429 0.969919 0.000154
vn -0.095308 0.995448 -0.000010
vn 0.114764 -0.000050 0.993393
vn 0.113025 -0.001043 0.993592
vn 0.112060 -0.001593 0.993700
vn 0.114764 -0.000050 0.993393
vn -0.929959 0.367662 -0.000388
vn -0.929959 0.367662 -0.000388
vn -0.365148 0.639170 -0.676852
vn -0.363798 0.639575 0.677197
vn 0.093424 -0.012277 -0.995551
vn 0.093424 -0.012277 -0.995551
vn 0.093403 -0.012219 0.995553
vn 0.093403 -0.012219 0.995553
vn 0.000000 0.000000 -1.000000
vn 0.000000 0.000000 -1.000000
vn 0.000000 0.000000 -1.000000
vn 0.000000 0.000000 -1.000000
vn 0.000000 0.000000 -1.000000
vn 0.000000 0.000000 -1.000000
vn -0.712608 0.701394 -0.015389
vn -0.712608 0.701394 -0.015389
vn -0.713956 0.696159 0.075028
vn -0.714065 0.699274 0.033568
vn 0.000258 0.800956 0.598724
vn -0.000384 0.494520 0.869166
vn -0.000384 0.494344 0.869266
vn 0.000257 0.800717 0.599043
vn -0.707702 0.292185 0.643262
vn -0.707925 0.511351 0.487199
vn -0.719100 0.248112 0.649103
vn -0.719100 0.248112 0.649103
vn 0.712634 0.701373 -0.015121
vn 0.712634 0.701373 -0.015121
vn 0.714080 0.699237 0.034024
vn 0.713952 0.696101 0.075603
vn 0.710904 0.510435 0.483810
vn 0.714509 0.290846 0.636307
vn 0.725276 0.244226 0.643684
vn 0.725276 0.244226 0.643684
vn -0.993392 -0.000060 -0.114768
vn -0.993700 -0.001609 -0.112065
vn -0.993592 -0.001061 -0.113022
vn -0.993392 -0.000060 -0.114768
vn -0.000010 0.995448 0.095308
vn 0.000154 0.969841 0.243739
vn 0.000153 0.969919 0.243429
vn -0.000010 0.995448 0.095308
vn 0.993393 -0.000050 -0.114764
vn 0.993592 -0.001043 -0.113025
vn 0.993700 -0.001593 -0.112060
vn 0.993393 -0.000050 -0.114764
vn -0.000387 0.367664 0.929959
vn -0.000387 0.367664 0.929959
vn -0.676850 0.639171 0.365149
vn 0.677197 0.639574 0.363799
vn -0.995551 -0.012277 -0.093425
vn -0.995551 -0.012277 -0.093425
vn 0.995553 -0.012219 -0.093402
vn 0.995553 -0.012219 -0.093402
s off
g pCube25
usemtl lambert2SG
f 2/1/1 1/2/2 4/3/3 3/4/4 9/5/5 8/6/6
s 1
f 3/19/7 4/21/8 18/22/9 19/18/10
s 2
f 5/15/11 7/7/12 12/10/13 11/16/14
s 1
f 7/7/15 6/11/16 14/12/17 13/8/18
s 4
f 8/23/19 9/20/20 20/17/21 21/24/22
f 10/13/23 12/10/24 16/9/25 15/14/26
s 6
f 1/25/27 17/26/28 18/27/29 4/28/30
s 2
f 3/19/31 19/18/32 20/17/33 9/20/34
s 7
f 8/31/35 21/32/36 22/33/37 2/34/38
s 2
f 7/7/12 13/8/39 16/9/40 12/10/13
s 1
f 5/15/41 6/11/16 7/7/15
s 4
f 10/13/23 11/16/42 12/10/24
s 6
f 18/27/29 17/26/28 14/29/43 6/30/44
s 1
f 19/18/10 18/22/9 6/11/16 5/15/41
s 2
f 20/17/33 19/18/32 5/15/11 11/16/14
s 4
f 21/24/22 20/17/21 11/16/42 10/13/23
s 7
f 22/33/37 21/32/36 10/35/45 15/36/46
s 8
f 23/37/47 24/38/48 44/39/49 43/40/50
f 24/38/48 25/41/51 45/42/52 44/39/49
f 25/41/51 26/43/53 46/44/54 45/42/52
f 26/43/53 27/45/55 47/46/56 46/44/54
f 27/45/55 28/47/57 48/48/58 47/46/56
f 28/47/57 29/49/59 49/50/60 48/48/58
f 29/49/59 30/51/61 50/52/62 49/50/60
f 30/51/61 31/53/63 51/54/64 50/52/62
f 31/53/63 32/55/65 52/56/66 51/54/64
f 32/55/65 33/57/67 53/58/68 52/56/66
f 33/57/67 34/59/69 54/60/70 53/58/68
f 34/59/69 35/61/71 55/62/72 54/60/70
f 35/61/71 36/63/73 56/64/74 55/62/72
f 36/63/73 37/65/75 57/66/76 56/64/74
f 37/65/75 38/67/77 58/68/78 57/66/76
f 38/67/77 39/69/79 59/70/80 58/68/78
f 39/69/79 40/71/81 60/72/82 59/70/80
f 40/71/81 41/73/83 61/74/84 60/72/82
f 41/73/83 42/75/85 62/76/86 61/74/84
f 42/75/85 23/37/47 43/40/50 62/76/86
s 9
f 203/77/87 204/78/88 205/79/89
f 204/78/88 206/80/90 205/79/89
f 206/80/90 207/81/91 205/79/89
f 207/81/91 208/82/92 205/79/89
f 208/82/92 209/83/93 205/79/89
f 209/83/93 210/84/94 205/79/89
f 210/84/94 211/85/95 205/79/89
f 211/85/95 212/86/96 205/79/89
f 212/86/96 213/87/97 205/79/89
f 213/87/97 214/88/98 205/79/89
f 214/88/98 215/89/99 205/79/89
f 215/89/99 216/90/100 205/79/89
f 216/90/100 217/91/101 205/79/89
f 217/91/101 218/92/102 205/79/89
f 218/92/102 219/93/103 205/79/89
f 219/93/103 220/94/104 205/79/89
f 220/94/104 221/95/105 205/79/89
f 221/95/105 222/96/106 205/79/89
f 222/96/106 223/97/107 205/79/89
f 223/97/107 203/77/87 205/79/89
s off
f 43/40/108 44/39/109 64/98/110 63/99/111
f 44/39/112 45/42/113 65/100/114 64/98/115
f 45/42/116 46/44/117 66/101/118 65/100/119
f 46/44/120 47/46/121 67/102/122 66/101/123
f 47/46/124 48/48/125 68/103/126 67/102/127
f 48/48/128 49/50/129 69/104/130 68/103/131
f 49/50/132 50/52/133 70/105/134 69/104/135
f 50/52/136 51/54/137 71/106/138 70/105/139
f 51/54/140 52/56/141 72/107/142 71/106/143
f 52/56/144 53/58/145 73/108/146 72/107/147
f 53/58/148 54/60/149 74/109/150 73/108/151
f 54/60/152 55/62/153 75/110/154 74/109/155
f 55/62/156 56/64/157 76/111/158 75/110/159
f 56/64/160 57/66/161 77/112/162 76/111/163
f 57/66/164 58/68/165 78/113/166 77/112/167
f 58/68/168 59/70/169 79/114/170 78/113/171
f 59/70/172 60/72/173 80/115/174 79/114/175
f 60/72/176 61/74/177 81/116/178 80/115/179
f 61/74/180 62/76/181 82/117/182 81/116/183
f 62/76/184 43/40/185 63/99/186 82/117/187
s 10
f 63/99/188 64/98/189 84/118/190 83/119/191
f 64/98/189 65/100/192 85/120/193 84/118/190
f 65/100/192 66/101/194 86/121/195 85/120/193
f 66/101/194 67/102/196 87/122/197 86/121/195
f 67/102/196 68/103/198 88/123/199 87/122/197
f 68/103/198 69/104/200 89/124/201 88/123/199
f 69/104/200 70/105/202 90/125/203 89/124/201
f 70/105/202 71/106/204 91/126/205 90/125/203
f 71/106/204 72/107/206 92/127/207 91/126/205
f 72/107/206 73/108/208 93/128/209 92/127/207
f 73/108/208 74/109/210 94/129/211 93/128/209
f 74/109/210 75/110/212 95/130/213 94/129/211
f 75/110/212 76/111/214 96/131/215 95/130/213
f 76/111/214 77/112/216 97/132/217 96/131/215
f 77/112/216 78/113/218 98/133/219 97/132/217
f 78/113/218 79/114/220 99/134/221 98/133/219
f 79/114/220 80/115/222 100/135/223 99/134/221
f 80/115/222 81/116/224 101/136/225 100/135/223
f 81/116/224 82/117/226 102/137/227 101/136/225
f 82/117/226 63/99/188 83/119/191 102/137/227
s off
f 83/119/228 84/118/229 104/138/230 103/139/231
f 84/118/232 85/120/233 105/140/234 104/138/235
f 85/120/236 86/121/237 106/141/238 105/140/239
f 86/121/240 87/122/241 107/142/242 106/141/243
f 87/122/244 88/123/245 108/143/246 107/142/247
f 88/123/248 89/124/249 109/144/250 108/143/251
f 89/124/252 90/125/253 110/145/254 109/144/255
f 90/125/256 91/126/257 111/146/258 110/145/259
f 91/126/260 92/127/261 112/147/262 111/146/263
f 92/127/264 93/128/265 113/148/266 112/147/267
f 93/128/268 94/129/269 114/149/270 113/148/271
f 94/129/272 95/130/273 115/150/274 114/149/275
f 95/130/276 96/131/277 116/151/278 115/150/279
f 96/131/280 97/132/281 117/152/282 116/151/283
f 97/132/284 98/133/285 118/153/286 117/152/287
f 98/133/288 99/134/289 119/154/290 118/153/291
f 99/134/292 100/135/293 120/155/294 119/154/295
f 100/135/296 101/136/297 121/156/298 120/155/299
f 101/136/300 102/137/301 122/157/302 121/156/303
f 102/137/304 83/119/305 103/139/306 122/157/307
s 11
f 103/139/308 104/138/309 124/158/310 123/159/311
f 104/138/309 105/140/312 125/160/313 124/158/310
f 105/140/312 106/141/314 126/161/315 125/160/313
f 106/141/314 107/142/316 127/162/317 126/161/315
f 107/142/316 108/143/318 128/163/319 127/162/317
f 108/143/318 109/144/320 129/164/321 128/163/319
f 109/144/320 110/145/322 130/165/323 129/164/321
f 110/145/322 111/146/324 131/166/325 130/165/323
f 111/146/324 112/147/326 132/167/327 131/166/325
f 112/147/326 113/148/328 133/168/329 132/167/327
f 113/148/328 114/149/330 134/169/331 133/168/329
f 114/149/330 115/150/332 135/170/333 134/169/331
f 115/150/332 116/151/334 136/171/335 135/170/333
f 116/151/334 117/152/336 137/172/337 136/171/335
f 117/152/336 118/153/338 138/173/339 137/172/337
f 118/153/338 119/154/340 139/174/341 138/173/339
f 119/154/340 120/155/342 140/175/343 139/174/341
f 120/155/342 121/156/344 141/176/345 140/175/343
f 121/156/344 122/157/346 142/177/347 141/176/345
f 122/157/346 103/139/308 123/159/311 142/177/347
s off
f 123/159/348 124/158/349 144/178/350 143/179/351
f 124/158/352 125/160/353 145/180/354 144/178/355
f 125/160/356 126/161/357 146/181/358 145/180/359
f 126/161/360 127/162/361 147/182/362 146/181/363
f 127/162/364 128/163/365 148/183/366 147/182/367
f 128/163/368 129/164/369 149/184/370 148/183/371
f 129/164/372 130/165/373 150/185/374 149/184/375
f 130/165/376 131/166/377 151/186/378 150/185/379
f 131/166/380 132/167/381 152/187/382 151/186/383
f 132/167/384 133/168/385 153/188/386 152/187/387
f 133/168/388 134/169/389 154/189/390 153/188/391
f 134/169/392 135/170/393 155/190/394 154/189/395
f 135/170/396 136/171/397 156/191/398 155/190/399
f 136/171/400 137/172/401 157/192/402 156/191/403
f 137/172/404 138/173/405 158/193/406 157/192/407
f 138/173/408 139/174/409 159/194/410 158/193/411
f 139/174/412 140/175/413 160/195/414 159/194/415
f 140/175/416 141/176/417 161/196/418 160/195/419
f 141/176/420 142/177/421 162/197/422 161/196/423
f 142/177/424 123/159/425 143/179/426 162/197/427
s 12
f 143/179/428 144/178/429 164/198/430 163/199/431
f 144/178/429 145/180/432 165/200/433 164/198/430
f 145/180/432 146/181/434 166/201/435 165/200/433
f 146/181/434 147/182/436 167/202/437 166/201/435
f 147/182/436 148/183/438 168/203/439 167/202/437
f 148/183/438 149/184/440 169/204/441 168/203/439
f 149/184/440 150/185/442 170/205/443 169/204/441
f 150/185/442 151/186/444 171/206/445 170/205/443
f 151/186/444 152/187/446 172/207/447 171/206/445
f 152/187/446 153/188/448 173/208/449 172/207/447
f 153/188/448 154/189/450 174/209/451 173/208/449
f 154/189/450 155/190/452 175/210/453 174/209/451
f 155/190/452 156/191/454 176/211/455 175/210/453
f 156/191/454 157/192/456 177/212/457 176/211/455
f 157/192/456 158/193/458 178/213/459 177/212/457
f 158/193/458 159/194/460 179/214/461 178/213/459
f 159/194/460 160/195/462 180/215/463 179/214/461
f 160/195/462 161/196/464 181/216/465 180/215/463
f 161/196/464 162/197/466 182/217/467 181/216/465
f 162/197/466 143/179/428 163/199/431 182/217/467
s off
f 163/199/468 164/198/469 184/218/470 183/219/471
f 164/198/472 165/200/473 185/220/474 184/218/475
f 165/200/476 166/201/477 186/221/478 185/220/479
f 166/201/480 167/202/481 187/222/482 186/221/483
f 167/202/484 168/203/485 188/223/486 187/222/487
f 168/203/488 169/204/489 189/224/490 188/223/491
f 169/204/492 170/205/493 190/225/494 189/224/495
f 170/205/496 171/206/497 191/226/498 190/225/499
f 171/206/500 172/207/501 192/227/502 191/226/503
f 172/207/504 173/208/505 193/228/506 192/227/507
f 173/208/508 174/209/509 194/229/510 193/228/511
f 174/209/512 175/210/513 195/230/514 194/229/515
f 175/210/516 176/211/517 196/231/518 195/230/519
f 176/211/520 177/212/521 197/232/522 196/231/523
f 177/212/524 178/213/525 198/233/526 197/232/527
f 178/213/528 179/214/529 199/234/530 198/233/531
f 179/214/532 180/215/533 200/235/534 199/234/535
f 180/215/536 181/216/537 201/236/538 200/235/539
f 181/216/540 182/217/541 202/237/542 201/236/543
f 182/217/544 163/199/545 183/219/546 202/237/547
s 13
f 183/219/548 184/218/549 204/78/550 203/77/551
f 184/218/549 185/220/552 206/80/553 204/78/550
f 185/220/552 186/221/554 207/81/555 206/80/553
f 186/221/554 187/222/556 208/82/557 207/81/555
f 187/222/556 188/223/558 209/83/559 208/82/557
f 188/223/558 189/224/560 210/84/561 209/83/559
f 189/224/560 190/225/562 211/85/563 210/84/561
f 190/225/562 191/226/564 212/86/565 211/85/563
f 191/226/564 192/227/566 213/87/567 212/86/565
f 192/227/566 193/228/568 214/88/569 213/87/567
f 193/228/568 194/229/570 215/89/571 214/88/569
f 194/229/570 195/230/572 216/90/573 215/89/571
f 195/230/572 196/231/574 217/91/575 216/90/573
f 196/231/574 197/232/576 218/92/577 217/91/575
f 197/232/576 198/233/578 219/93/579 218/92/577
f 198/233/578 199/234/580 220/94/581 219/93/579
f 199/234/580 200/235/582 221/95/583 220/94/581
f 200/235/582 201/236/584 222/96/585 221/95/583
f 201/236/584 202/237/586 223/97/587 222/96/585
f 202/237/586 183/219/548 203/77/551 223/97/587
s off
f 225/238/588 224/239/589 227/240/590 226/241/591 232/242/592 231/243/593
s 14
f 226/244/594 227/245/595 241/246/596 242/247/597
s 15
f 228/248/598 230/249/599 235/250/600 234/251/601
s 14
f 230/249/602 229/252/603 237/253/604 236/254/605
s 17
f 231/255/606 232/256/607 243/257/608 244/258/609
f 233/259/610 235/250/611 239/260/612 238/261/613
s 19
f 224/262/614 240/263/615 241/264/616 227/265/617
s 15
f 226/244/618 242/247/619 243/257/620 232/256/621
s 20
f 231/266/622 244/267/623 245/268/624 225/269/625
s 15
f 230/249/599 236/254/626 239/260/627 235/250/600
s 14
f 228/248/628 229/252/603 230/249/602
s 17
f 233/259/610 234/251/629 235/250/611
s 19
f 241/264/616 240/263/615 237/270/630 229/271/631
s 14
f 242/247/597 241/246/596 229/252/603 228/248/628
s 15
f 243/257/620 242/247/619 228/248/598 234/251/601
s 17
f 244/258/609 243/257/608 234/251/629 233/259/610
s 20
f 245/268/624 244/267/623 233/272/632 238/273/633
s off
f 247/274/634 246/275/635 249/276/636 248/277/637 254/278/638 253/279/639
s 21
f 248/280/640 249/281/641 263/282/642 264/283/643
s 22
f 250/284/644 252/285/645 257/286/646 256/287/647
s 21
f 252/285/648 251/288/649 259/289/650 258/290/651
s 24
f 253/291/652 254/292/653 265/293/654 266/294/655
f 255/295/656 257/286/657 261/296/658 260/297/659
s 26
f 246/298/660 262/299/661 263/300/662 249/301/663
s 22
f 248/280/664 264/283/665 265/293/666 254/292/667
s 27
f 253/302/668 266/303/669 267/304/670 247/305/671
s 22
f 252/285/645 258/290/672 261/296/673 257/286/646
s 21
f 250/284/674 251/288/649 252/285/648
s 24
f 255/295/656 256/287/675 257/286/657
s 26
f 263/300/662 262/299/661 259/306/676 251/307/677
s 21
f 264/283/643 263/282/642 251/288/649 250/284/674
s 22
f 265/293/666 264/283/665 250/284/644 256/287/647
s 24
f 266/294/655 265/293/654 256/287/675 255/295/656
s 27
f 267/304/670 266/303/669 255/308/678 260/309/679
s off
f 269/310/680 268/311/681 271/312/682 270/313/683 276/314/684 275/315/685
s 28
f 270/316/686 271/317/687 285/318/688 286/319/689
s 29
f 272/320/690 274/321/691 279/322/692 278/323/693
s 28
f 274/321/694 273/324/695 281/325/696 280/326/697
s 31
f 275/327/698 276/328/699 287/329/700 288/330/701
f 277/331/702 279/322/703 283/332/704 282/333/705
s 33
f 268/334/706 284/335/707 285/336/708 271/337/709
s 29
f 270/316/710 286/319/711 287/329/712 276/328/713
s 34
f 275/338/714 288/339/715 289/340/716 269/341/717
s 29
f 274/321/691 280/326/718 283/332/719 279/322/692
s 28
f 272/320/720 273/324/695 274/321/694
s 31
f 277/331/702 278/323/721 279/322/703
s 33
f 285/336/708 284/335/707 281/342/722 273/343/723
s 28
f 286/319/689 285/318/688 273/324/695 272/320/720
s 29
f 287/329/712 286/319/711 272/320/690 278/323/693
s 31
f 288/330/701 287/329/700 278/323/721 277/331/702
s 34
f 289/340/716 288/339/715 277/344/724 282/345/725
